<?xml version="1.0" standalone="no"?>
<!DOCTYPE svg PUBLIC "-//W3C//DTD SVG 1.1//EN" "http://www.w3.org/Graphics/SVG/1.1/DTD/svg11.dtd" >
<svg xmlns="http://www.w3.org/2000/svg" xmlns:xlink="http://www.w3.org/1999/xlink" version="1.1">
<metadata>
Created by FontForge 20170731 at Sun Oct 20 04:41:04 2002
 By Aleksey,,,
Copyright (c) Terminal Design, Inc, 2002. All rights reserved.
</metadata>
<defs>
<font id="ClearviewHwy-Six-B" horiz-adv-x="700" >
  <font-face 
    font-family="ClearviewHwy-6-B"
    font-weight="400"
    font-stretch="normal"
    units-per-em="1448"
    panose-1="2 0 9 4 6 0 0 2 0 4"
    ascent="1158"
    descent="-290"
    x-height="817"
    cap-height="1000"
    bbox="-290 -382 2333 1434"
    underline-thickness="80"
    underline-position="-260"
    unicode-range="U+0020-F6C3"
  />
<missing-glyph horiz-adv-x="900" 
 />
    <glyph glyph-name=".notdef" horiz-adv-x="900" 
 />
    <glyph glyph-name=".null" horiz-adv-x="0" 
 />
    <glyph glyph-name="nonmarkingreturn" horiz-adv-x="900" 
 />
    <glyph glyph-name="space" unicode=" " horiz-adv-x="900" 
 />
    <glyph glyph-name="space" unicode="&#xa0;" horiz-adv-x="900" 
 />
    <glyph glyph-name="exclam" unicode="!" horiz-adv-x="681" 
d="M481 91q0 -23 -11 -43t-30 -34.5t-44.5 -23t-54.5 -8.5q-30 0 -56 8.5t-45 23t-29.5 34.5t-10.5 43t10.5 43t29.5 34.5t44 23t55 8.5t55.5 -8.5t45 -23t30.5 -34.5t11 -43zM428 294h-176l-30 706h239z" />
    <glyph glyph-name="quotedbl" unicode="&#x22;" horiz-adv-x="930" 
d="M353 670h-146l-37 379h227zM715 670h-145l-36 379h226z" />
    <glyph glyph-name="numbersign" unicode="#" horiz-adv-x="1240" 
d="M541 683l-24 -181h183l25 181h-184zM1046 683h-153l-28 -181h163l-22 -157h-166l-23 -175h-171l27 175h-177l-27 -175h-164l28 175h-163l19 157h165l23 181h-166l23 154h166l22 163h167l-24 -163h187l26 163h165l-26 -163h153z" />
    <glyph glyph-name="dollar" unicode="$" horiz-adv-x="1054" 
d="M894 314q0 -40 -13.5 -82.5t-44.5 -79t-81.5 -63.5t-125.5 -36v-122h-200v123q-66 5 -131 29t-138 68l88 149q75 -50 144 -73t137 -23q166 0 166 97q0 35 -22 57.5t-76 42.5l-208 71q-107 40 -157.5 98.5t-50.5 148.5q0 45 15 87t46 75.5t77.5 56t109.5 29.5v115h201
v-116q58 -7 109.5 -22.5t113.5 -44.5l-76 -159q-62 35 -120.5 52t-124.5 17q-68 0 -107 -19.5t-39 -59.5q0 -17 6 -29t20 -23t38.5 -21.5t61.5 -24.5l168 -58q113 -41 163.5 -102.5t50.5 -157.5z" />
    <glyph glyph-name="percent" unicode="%" horiz-adv-x="1812" 
d="M1504 271q0 35 -4 66.5t-16 55t-34 37.5t-57 14t-56.5 -14t-33.5 -37.5t-16 -55t-4 -66.5t4 -66t16 -54.5t33.5 -37.5t56.5 -14t57 13.5t34 37t16 55t4 66.5zM1652 271q0 -141 -64.5 -214.5t-199.5 -73.5q-65 0 -112.5 20t-79.5 57.5t-47.5 91t-15.5 119.5q0 142 66 215
t200 73q64 0 112 -20t79 -57.5t46.5 -91t15.5 -119.5zM640 0h-162l678 1000h161zM526 729q0 35 -3.5 66t-15 54.5t-33 37t-56.5 13.5t-56.5 -13.5t-33.5 -37t-16 -54.5t-4 -66t4 -66.5t16 -55t33.5 -37.5t56.5 -14t56.5 14t33 37.5t15 55t3.5 66.5zM676 729
q0 -143 -64 -215.5t-200 -72.5q-64 0 -111.5 20t-78.5 57t-46.5 90.5t-15.5 120.5q0 142 64.5 214.5t198.5 72.5q130 0 191.5 -77t61.5 -210z" />
    <glyph glyph-name="ampersand" unicode="&#x26;" horiz-adv-x="1194" 
d="M749 452h-211q-87 0 -125 -32t-38 -102q0 -77 45.5 -119t141.5 -42q60 0 97 13.5t57 40.5t26.5 66.5t6.5 90.5v84zM953 452v-88q0 -88 -22 -158t-68.5 -119t-119 -75t-174.5 -26q-87 0 -160.5 20t-126.5 60.5t-82.5 100.5t-29.5 141q0 90 44 150.5t117 82.5v3
q-63 27 -96.5 80.5t-33.5 120.5q0 66 24.5 117t69.5 86t108.5 53t141.5 18q58 0 110 -11t113 -38l-55 -160q-29 17 -68 25.5t-80 8.5q-80 0 -120 -29.5t-40 -85.5q0 -32 16.5 -52.5t43.5 -32t62.5 -15.5t74.5 -4h148v118h199v-118h135v-173h-131z" />
    <glyph glyph-name="quotesingle" unicode="'" horiz-adv-x="567" 
d="M353 670h-146l-37 379h227z" />
    <glyph glyph-name="parenleft" unicode="(" horiz-adv-x="621" 
d="M321 -198q-40 97 -68.5 184.5t-47 171t-27 164t-8.5 163.5q0 84 8.5 165.5t27 164.5t47 170.5t68.5 185.5l150 -40q-27 -83 -46.5 -161.5t-32 -157t-18.5 -159t-6 -166.5t6 -166.5t18.5 -159.5t32 -157.5t46.5 -159.5z" />
    <glyph glyph-name="parenright" unicode=")" horiz-adv-x="621" 
d="M451 485q0 -84 -9.5 -166t-28 -165.5t-47.5 -170.5t-68 -181l-148 42q27 81 46 160t32 158t19 159.5t6 165.5t-6 165.5t-19 159.5t-32 157.5t-46 161.5l148 40q39 -95 68 -182t47.5 -170.5t28 -166t9.5 -167.5z" />
    <glyph glyph-name="asterisk" unicode="*" horiz-adv-x="789" 
d="M486 802v-5l116 -106l-135 -92l-70 140h-3l-71 -140l-135 92l117 106v5l-165 17l51 148l146 -71l1 1l-30 152h172l-26 -150v-2l144 71l51 -149z" />
    <glyph glyph-name="plus" unicode="+" horiz-adv-x="1030" 
d="M613 321v-254h-193v254h-260v184h260v234h193v-234h257v-184h-257z" />
    <glyph glyph-name="comma" unicode="," horiz-adv-x="604" 
d="M294 -200h-144l74 380h230z" />
    <glyph glyph-name="hyphen" unicode="-" horiz-adv-x="851" 
d="M210 338v206h431v-206h-431z" />
    <glyph glyph-name="hyphen" unicode="&#xad;" horiz-adv-x="851" 
d="M210 338v206h431v-206h-431z" />
    <glyph glyph-name="period" unicode="." horiz-adv-x="604" 
d="M444 93q0 -24 -11 -44.5t-30.5 -35t-45 -23t-54.5 -8.5q-30 0 -56.5 8.5t-45.5 23t-30 35t-11 44.5q0 23 11 42.5t30 34t44.5 23t55.5 8.5q31 0 57 -8.5t45 -23t30 -34t11 -42.5z" />
    <glyph glyph-name="slash" unicode="/" horiz-adv-x="1027" 
d="M311 -173h-191l592 1222h195z" />
    <glyph glyph-name="zero" unicode="0" horiz-adv-x="1211" 
d="M825 498q0 64 -7 125.5t-30 109.5t-66 77t-115 29q-73 0 -116.5 -29t-67 -77t-30.5 -109.5t-7 -125.5q0 -72 9 -134t33 -108t67 -72.5t112 -26.5q68 0 110.5 26.5t66.5 72.5t32.5 108t8.5 134zM1041 498q0 -117 -25 -212.5t-77.5 -163.5t-134.5 -105t-197 -37
q-116 0 -199 37t-136 105t-77.5 163.5t-24.5 212.5q0 116 24.5 211.5t77.5 163.5t136 105.5t199 37.5q115 0 197 -37.5t134.5 -105.5t77.5 -163.5t25 -211.5z" />
    <glyph glyph-name="one" unicode="1" horiz-adv-x="781" 
d="M358 0l5 735h-5l-187 -146l-91 159l322 253h169v-1001h-213z" />
    <glyph glyph-name="two" unicode="2" horiz-adv-x="1038" 
d="M163 0l-33 180q126 105 223 181.5t163.5 138t100.5 115t34 112.5q0 47 -32.5 78t-97.5 31q-69 0 -129 -30.5t-124 -99.5l-125 144q47 44 92.5 75.5t92.5 51.5t97.5 29.5t107.5 9.5q77 0 138.5 -19t104.5 -55t66 -89t23 -121q0 -41 -7.5 -79t-27.5 -77.5t-54 -81.5
t-88 -90t-129 -104t-176 -123l495 4v-181h-715z" />
    <glyph glyph-name="three" unicode="3" horiz-adv-x="1046" 
d="M876 302q0 -70 -25 -128t-76 -100t-127.5 -65t-179.5 -23q-52 0 -97.5 6.5t-88 21t-82.5 36.5t-80 53l96 155q39 -29 71.5 -48.5t62.5 -31t59 -16t61 -4.5q43 0 78.5 8.5t60.5 25.5t39 43.5t14 62.5q0 74 -39.5 103.5t-113.5 29.5h-155v173h73q45 0 82.5 4.5t65 17.5
t42.5 35t15 57q0 21 -6.5 42.5t-23 38t-46 27t-75.5 10.5q-65 0 -129.5 -26.5t-120.5 -77.5l-102 152q48 35 92.5 59.5t90 40t93 22.5t100.5 7q75 0 137.5 -17.5t107.5 -52.5t70.5 -89t25.5 -127q0 -70 -26.5 -118t-83.5 -80v-3q68 -20 104 -78t36 -146z" />
    <glyph glyph-name="four" unicode="4" horiz-adv-x="1103" 
d="M611 752l-258 -373h258l3 373h-3zM818 200v-200h-217v200h-422l-49 160l465 640h223v-621h155v-179h-155z" />
    <glyph glyph-name="five" unicode="5" horiz-adv-x="1066" 
d="M896 345q0 -83 -25.5 -150.5t-76.5 -115t-127 -73.5t-177 -26q-50 0 -93.5 6t-84.5 19t-81 33.5t-81 48.5l101 156q60 -47 115.5 -68t112.5 -21q103 0 156 47.5t53 144.5q0 87 -48.5 130.5t-138.5 43.5q-120 0 -185 -84l-160 108l84 456h595v-183h-432l-39 -188v-7
q46 36 92.5 51.5t108.5 15.5q76 0 137.5 -23t104.5 -67t66 -108t23 -146z" />
    <glyph glyph-name="six" unicode="6" horiz-adv-x="1102" 
d="M738 334q0 79 -44 121.5t-127 42.5q-80 0 -125.5 -44.5t-45.5 -123.5q0 -82 45.5 -127t126.5 -45t125.5 46.5t44.5 129.5zM942 338q0 -80 -26.5 -144.5t-76 -111t-119 -71.5t-154.5 -25q-199 0 -297.5 123.5t-98.5 358.5q0 115 20.5 215t70.5 174t134 116.5t212 42.5
q81 0 151.5 -20.5t140.5 -62.5l-100 -153q-47 33 -91.5 46.5t-97.5 13.5q-58 0 -99.5 -14.5t-68.5 -45.5t-41 -81t-18 -120h3q70 94 215 94q79 0 142 -23.5t107 -67.5t68 -106t24 -138z" />
    <glyph glyph-name="seven" unicode="7" horiz-adv-x="969" 
d="M869 829q-69 -54 -121 -102.5t-89.5 -98t-62.5 -103.5t-39.5 -120t-20.5 -147.5t-6 -185.5v-72h-222v47q0 94 8.5 197t38 204t87.5 196t157 173v2h-499v181h733l36 -171v0z" />
    <glyph glyph-name="eight" unicode="8" horiz-adv-x="1116" 
d="M736 297q0 28 -5.5 54.5t-24 47t-54 33t-94.5 12.5q-35 0 -67 -4t-57 -19.5t-40 -45t-15 -80.5q0 -33 8 -59.5t28.5 -45.5t55 -29.5t87.5 -10.5q40 0 73 6t56.5 22.5t36 45t12.5 73.5zM709 729q0 61 -36 90.5t-115 29.5t-115 -28.5t-36 -91.5q0 -122 151 -122t151 122z
M946 300q0 -65 -18.5 -122.5t-62.5 -101t-119 -68.5t-187 -25t-187 25t-120 68.5t-63.5 101t-18.5 122.5q0 88 38.5 142t119.5 89v4q-73 33 -103 84t-30 124q0 130 87.5 201.5t275.5 71.5q361 0 361 -273q0 -73 -30 -124t-103 -84v-4q83 -35 121.5 -89t38.5 -142z" />
    <glyph glyph-name="nine" unicode="9" horiz-adv-x="1107" 
d="M712 670q0 37 -9 68t-30 53.5t-55 35t-83 12.5q-80 0 -123.5 -45.5t-43.5 -127.5q0 -161 170 -161q84 0 128.5 42t44.5 123h1zM937 512q0 -126 -25.5 -224.5t-78.5 -166t-134.5 -103t-193.5 -35.5q-45 0 -84.5 6t-75 18.5t-68.5 32t-67 47.5l108 138q27 -21 49.5 -34.5
t44 -21.5t44.5 -11.5t52 -3.5q55 0 96 14.5t69 47t42 85t15 127.5h-2q-42 -53 -95 -76.5t-131 -23.5q-74 0 -136.5 21.5t-108.5 64t-71.5 104.5t-25.5 143q0 82 27 148t77 112t120.5 70.5t156.5 24.5q93 0 166.5 -30.5t124.5 -92.5t78 -157t27 -224z" />
    <glyph glyph-name="colon" unicode=":" horiz-adv-x="604" 
d="M444 93q0 -24 -11 -44.5t-30.5 -35t-45 -23t-54.5 -8.5q-30 0 -56.5 8.5t-45.5 23t-30 35t-11 44.5q0 23 11 42.5t30 34t44.5 23t55.5 8.5q31 0 57 -8.5t45 -23t30 -34t11 -42.5zM444 611q0 -24 -11 -44.5t-30.5 -35t-45 -23t-54.5 -8.5q-30 0 -56.5 8.5t-45.5 23t-30 35
t-11 44.5q0 23 11 42.5t30 34t44.5 23t55.5 8.5q31 0 57 -8.5t45 -23t30 -34t11 -42.5z" />
    <glyph glyph-name="semicolon" unicode=";" horiz-adv-x="604" 
d="M285 -207h-151l79 393h236zM469 611q0 -24 -11 -44.5t-30.5 -35t-45 -23t-54.5 -8.5q-30 0 -56.5 8.5t-45.5 23t-30 35t-11 44.5q0 23 11 42.5t30 34t44.5 23t55.5 8.5q31 0 57 -8.5t45 -23t30 -34t11 -42.5z" />
    <glyph glyph-name="less" unicode="&#x3c;" horiz-adv-x="1213" 
d="M160 334v164l863 337v-168l-665 -249l665 -253v-165z" />
    <glyph glyph-name="equal" unicode="=" horiz-adv-x="1024" 
d="M190 150v178h644v-178h-644zM190 484v179h644v-179h-644z" />
    <glyph glyph-name="greater" unicode="&#x3e;" horiz-adv-x="1213" 
d="M190 0v165l665 250l-665 252v168l863 -337v-164z" />
    <glyph glyph-name="question" unicode="?" horiz-adv-x="989" 
d="M562 91q0 -23 -10.5 -43t-29.5 -34.5t-44.5 -23t-55.5 -8.5t-56 8.5t-44.5 23t-29.5 34.5t-11 43t11 43t29.5 34.5t44 23t55.5 8.5t56 -8.5t45 -23t29.5 -34.5t10.5 -43zM819 737q0 -91 -42 -156.5t-138 -111.5l-60 -27q-18 -9 -27.5 -15.5t-14.5 -15t-6 -22t-1 -37.5
v-58h-205v104q0 34 4.5 57t15.5 40.5t31 31t50 28.5l62 28q32 15 55.5 28t39.5 28.5t23.5 34.5t7.5 46q0 57 -41.5 88.5t-116.5 31.5q-131 0 -222 -87l-104 154q45 30 86.5 51t83.5 34t87 19t98 6q84 0 146.5 -19.5t104.5 -55.5t62.5 -88t20.5 -117z" />
    <glyph glyph-name="at" unicode="@" horiz-adv-x="1406" 
d="M807 559q3 21 1 37.5t-11 28.5t-26.5 18t-45.5 6q-67 0 -98 -49.5t-31 -160.5q0 -51 21.5 -74t66.5 -23q52 0 77.5 28.5t33.5 90.5l12 98v0zM1236 591q0 -94 -24.5 -164t-65 -117t-92.5 -70.5t-106 -23.5q-20 0 -41.5 5t-40 15.5t-32 27.5t-17.5 41h-3q-32 -42 -80 -63
t-103 -21q-91 0 -143 61.5t-52 171.5q0 53 14 109t45 101.5t80.5 75t120.5 29.5q45 0 74 -13.5t55 -45.5h2l5 43h160l-53 -401q-3 -15 10 -26t36 -11q24 0 51.5 14.5t51 48t39 87.5t15.5 133q0 81 -28 142.5t-79 103t-122.5 62.5t-158.5 21q-103 0 -190 -26.5t-150.5 -80.5
t-99.5 -137t-36 -196q0 -99 27.5 -177t82 -133t135.5 -84t187 -29q94 0 173 23.5t141 69.5l51 -73q-85 -60 -179 -83.5t-200 -23.5q-109 0 -204.5 33t-167 98t-113 161t-41.5 221q0 123 44 220.5t121.5 165.5t183.5 104.5t229 36.5q109 0 199 -28.5t154 -83.5t99.5 -134
t35.5 -180z" />
    <glyph glyph-name="A" unicode="A" horiz-adv-x="1195" 
d="M595 789h-5l-141 -401h288zM870 0l-79 208h-393l-80 -208h-228l385 1004h237l393 -1004h-235z" />
    <glyph glyph-name="B" unicode="B" horiz-adv-x="1186" 
d="M804 294q0 52 -20.5 81t-51.5 43t-68 17t-70 3q-41 0 -85.5 -1.5t-79.5 -3.5v-273q43 -2 80.5 -2.5t88.5 -0.5q44 0 81.5 4t65.5 18t43.5 41t15.5 74zM772 719q0 31 -9 54.5t-31 38.5t-59 22.5t-92 7.5q-17 0 -38.5 -0.5t-43.5 -1.5t-40.5 -2.5t-28.5 -2.5v-243
q17 -1 33.5 -1.5t35 -1t39.5 -0.5h50q51 0 86 6t57 21t31.5 40t9.5 63zM1026 273q0 -76 -25.5 -128t-72 -84.5t-112 -46.5t-145.5 -14h-461v993q93 10 189 14t178 4q73 0 146.5 -9.5t132.5 -38.5t96 -81.5t37 -139.5q0 -46 -11 -80.5t-31.5 -60t-50.5 -43.5t-67 -30v-3
q95 -20 146 -80t51 -172z" />
    <glyph glyph-name="C" unicode="C" horiz-adv-x="1177" 
d="M1047 144q-87 -83 -180 -122t-202 -39q-128 0 -221.5 38t-154.5 106.5t-90 165t-29 213.5q0 115 32.5 209.5t95 161t153 103t207.5 36.5q113 0 205.5 -39.5t178.5 -126.5l-133 -144q-57 65 -114 95.5t-127 30.5q-131 0 -199 -79t-68 -248q0 -79 15.5 -141.5t47.5 -106
t82.5 -67t120.5 -23.5q73 0 136 30.5t126 93.5l118 -147v0z" />
    <glyph glyph-name="D" unicode="D" horiz-adv-x="1246" 
d="M845 509q0 59 -9.5 118t-39 106t-84 76.5t-144.5 29.5q-32 0 -68.5 -1.5t-69.5 -4.5v-656q18 -1 31 -1.5t24.5 -1t22.5 -0.5h26q71 0 128.5 13t98 50t62.5 102.5t22 169.5zM1076 505q0 -131 -36 -226t-103 -157t-162.5 -92t-214.5 -30h-350v993q37 3 81 6t89.5 5.5
t91.5 4t88 1.5q114 0 209 -28t163 -89t106 -156.5t38 -231.5z" />
    <glyph glyph-name="E" unicode="E" horiz-adv-x="1061" 
d="M210 0v1000h685v-184h-465v-211h422v-186h-422v-238h481v-181h-701z" />
    <glyph glyph-name="F" unicode="F" horiz-adv-x="1022" 
d="M430 816v-218h408v-187h-408v-411h-220v1000h672v-184h-452z" />
    <glyph glyph-name="G" unicode="G" horiz-adv-x="1271" 
d="M1101 455q0 -113 -25 -200t-78 -147t-136 -91t-198 -31q-104 0 -194 30.5t-157 93.5t-105 159.5t-38 228.5q0 134 39.5 232t106.5 161.5t156.5 94t188.5 30.5q69 0 125 -14t101 -36.5t80.5 -50t64.5 -55.5l-131 -141q-56 58 -112.5 85.5t-118.5 27.5q-141 0 -205 -85.5
t-64 -247.5q0 -80 14.5 -144.5t46 -109.5t82.5 -69.5t124 -24.5q106 0 164.5 56.5t58.5 177.5h-233v177h443v-107v0z" />
    <glyph glyph-name="H" unicode="H" horiz-adv-x="1245" 
d="M815 0v422h-385v-422h-220v1000h220v-372h385v372h220v-1000h-220z" />
    <glyph glyph-name="I" unicode="I" horiz-adv-x="640" 
d="M210 0v1000h220v-1000h-220z" />
    <glyph glyph-name="J" unicode="J" horiz-adv-x="901" 
d="M691 341q0 -76 -12 -142t-45 -114.5t-92 -76.5t-154 -28q-43 0 -79.5 5.5t-69.5 17.5t-64.5 31t-64.5 47l97 159q23 -22 43 -36t39 -22t38.5 -11t42.5 -3q46 0 73.5 28.5t27.5 100.5v703h220v-659v0z" />
    <glyph glyph-name="K" unicode="K" horiz-adv-x="1159" 
d="M798 0l-281 424l-87 -92v-332h-220v1000h220v-415h6l324 415h262l-350 -437l387 -563h-261z" />
    <glyph glyph-name="L" unicode="L" horiz-adv-x="996" 
d="M210 0v1000h220v-814h426v-186h-646z" />
    <glyph glyph-name="M" unicode="M" horiz-adv-x="1404" 
d="M979 0v641h-6l-270 -389l-274 386h-5l1 -638h-215v1000h194l299 -419l297 419h194v-1000h-215z" />
    <glyph glyph-name="N" unicode="N" horiz-adv-x="1307" 
d="M890 0l-460 631h-2v-631h-218v1000h210l455 -632h4v632h218v-1000h-207z" />
    <glyph glyph-name="O" unicode="O" horiz-adv-x="1332" 
d="M931 501q0 80 -12.5 142.5t-43 105.5t-81.5 65.5t-127 22.5q-77 0 -128.5 -22t-82 -64.5t-43 -105.5t-12.5 -144t12.5 -144t43 -105.5t82 -65t128.5 -22.5q76 0 127 22.5t81.5 65t43 105.5t12.5 144zM1162 501q0 -134 -36 -231t-101.5 -160t-156.5 -93.5t-201 -30.5
q-111 0 -202.5 30.5t-157 93.5t-101.5 160t-36 231q0 132 36 229t101 160.5t157 94.5t203 31t202 -31t156.5 -94.5t101 -160.5t35.5 -229z" />
    <glyph glyph-name="P" unicode="P" horiz-adv-x="1140" 
d="M769 683q0 43 -10.5 72.5t-33.5 47.5t-60.5 25.5t-92.5 7.5q-31 0 -65.5 -2t-76.5 -4v-302h156q37 0 70.5 3t58.5 17.5t39.5 46t14.5 88.5zM990 689q0 -74 -19.5 -135.5t-62 -106t-111 -69t-165.5 -24.5h-202v-354h-220v993q32 3 74.5 6t90 5.5t98 4t98.5 1.5
q83 0 159 -14.5t133.5 -50.5t92 -98t34.5 -158z" />
    <glyph glyph-name="Q" unicode="Q" horiz-adv-x="1333" 
d="M931 501q0 74 -10.5 135.5t-39 106t-80.5 69t-134 24.5q-84 0 -136 -24.5t-81 -69t-39 -106t-10 -135.5t10.5 -135.5t40 -106.5t81 -70t134.5 -25q81 0 132.5 25.5t81 70.5t40 106.5t10.5 134.5zM1162 501q0 -61 -9 -119.5t-29.5 -111.5t-53.5 -100.5t-82 -86.5v-2
q30 -8 48.5 -20t37.5 -24t43 -22.5t66 -15.5l-76 -153q-60 1 -111 23.5t-94.5 48t-82 47t-74.5 21.5q-17 0 -30.5 -2t-33.5 -2q-251 0 -381 132.5t-130 386.5q0 122 31.5 218t94 162t155.5 100.5t216 34.5t215.5 -34.5t155 -100.5t93.5 -162t31 -218z" />
    <glyph glyph-name="R" unicode="R" horiz-adv-x="1159" 
d="M765 693q0 48 -15 76.5t-41 43.5t-61.5 19.5t-76.5 4.5q-37 0 -70.5 -1.5t-68.5 -3.5v-280h161q39 0 70.5 5.5t54 21t35 43t12.5 71.5zM787 0l-143 342q-8 23 -17.5 29.5t-33.5 6.5h-163v-378h-220v993q88 8 178 12.5t178 4.5q77 0 152 -12t134.5 -45t96.5 -92.5
t37 -154.5q0 -47 -9 -88.5t-29 -76.5t-52.5 -63t-80.5 -47v-3q7 -2 14 -9t12.5 -16t9.5 -19t7 -16l161 -368h-232z" />
    <glyph glyph-name="S" unicode="S" horiz-adv-x="1086" 
d="M926 294q0 -87 -31.5 -146t-84 -95t-121.5 -51.5t-144 -15.5q-60 0 -113 6.5t-101.5 21t-95.5 36.5t-95 53l94 165q69 -46 142 -77t157 -31q30 0 60 4t55 16.5t40.5 35t15.5 58.5q0 33 -19.5 56t-51.5 39.5t-74.5 29.5t-87.5 27q-54 17 -107.5 38.5t-96 56t-69.5 86
t-27 126.5q0 80 32 134t84 86.5t118 46t134 13.5q96 0 179.5 -23t168.5 -66l-78 -171q-57 35 -119 57.5t-134 22.5q-33 0 -62.5 -3.5t-52.5 -13.5t-36.5 -28t-13.5 -48q0 -29 16 -49t44 -35t64 -26t77 -23q57 -16 116.5 -36.5t107.5 -54.5t79 -87t31 -135z" />
    <glyph glyph-name="T" unicode="T" horiz-adv-x="1004" 
d="M611 812v-812h-220v812h-281v188h784v-188h-283z" />
    <glyph glyph-name="U" unicode="U" horiz-adv-x="1255" 
d="M1045 406q0 -99 -22 -177.5t-71.5 -133t-129.5 -83.5t-195 -29q-116 0 -195.5 28.5t-128.5 83t-71 133t-22 178.5v594h220v-546q0 -57 4.5 -109t24 -91t59 -62.5t110.5 -23.5q70 0 109.5 23.5t59 62.5t24 91t4.5 109v546h220v-594v0z" />
    <glyph glyph-name="V" unicode="V" horiz-adv-x="1090" 
d="M658 0h-227l-341 1000h234l223 -742h3l220 742h230z" />
    <glyph glyph-name="W" unicode="W" horiz-adv-x="1665" 
d="M1262 0h-238l-190 703h-8l-194 -703h-248l-274 1000h241l167 -738h2l204 738h223l193 -736h7l174 736h234z" />
    <glyph glyph-name="X" unicode="X" horiz-adv-x="1105" 
d="M767 0l-214 337h-1l-214 -337h-258l346 520l-308 480h261l182 -315h1l188 315h254l-314 -494l335 -506h-258z" />
    <glyph glyph-name="Y" unicode="Y" horiz-adv-x="1105" 
d="M663 392v-392h-218v388l-375 612h254l231 -417l237 417h243z" />
    <glyph glyph-name="Z" unicode="Z" horiz-adv-x="1083" 
d="M150 0v165l488 647h-464v188h743v-165l-493 -654h509v-181h-783z" />
    <glyph glyph-name="bracketleft" unicode="[" horiz-adv-x="682" 
d="M170 -188v1362h362v-125h-175v-1113h175v-124h-362z" />
    <glyph glyph-name="backslash" unicode="\" horiz-adv-x="1025" 
d="M715 -173l-595 1222h193l592 -1222h-190z" />
    <glyph glyph-name="bracketright" unicode="]" horiz-adv-x="684" 
d="M150 -188v124h177v1113h-177v125h364v-1362h-364z" />
    <glyph glyph-name="asciicircum" unicode="^" horiz-adv-x="835" 
d="M642 763l-230 118l-235 -118l-91 127l323 168l327 -168z" />
    <glyph glyph-name="underscore" unicode="_" horiz-adv-x="949" 
d="M100 -257v133h749v-133h-749z" />
    <glyph glyph-name="grave" unicode="`" 
d="M416 908l-260 177l179 100l209 -208z" />
    <glyph glyph-name="a" unicode="a" horiz-adv-x="1096" 
d="M675 402q-42 0 -95 -3t-100 -18t-79.5 -47t-32.5 -90q0 -54 29 -85.5t85 -31.5q54 0 101 19.5t92 50.5v205zM829 -14q-44 11 -79.5 33t-50.5 65h-4q-60 -48 -129.5 -75t-147.5 -27q-58 0 -105.5 16.5t-81.5 48.5t-52.5 78t-18.5 105q0 67 24 115t64 81t93 53t110 30.5
t115 13.5t109 3v37q0 62 -31 86t-98 24q-80 0 -155 -22t-143 -62l-68 147q95 48 187 72.5t198 24.5q87 0 148 -17.5t100 -56t57 -99t18 -146.5v-293q0 -21 4 -36t12.5 -27t21.5 -22t30 -21z" />
    <glyph glyph-name="b" unicode="b" horiz-adv-x="1153" 
d="M766 412q0 50 -5.5 96t-23.5 81t-53.5 56t-95.5 21q-77 0 -122.5 -35t-45.5 -117v-180q0 -44 8.5 -79.5t28 -60.5t51 -39t77.5 -14q60 0 95.5 24.5t54.5 63t25 87t6 96.5zM983 415q0 -83 -18.5 -160.5t-59 -138.5t-105.5 -97.5t-159 -36.5q-76 0 -137.5 29t-95.5 99h-4
l-34 -110h-160v1085h213v-358h3q16 31 39.5 51.5t51 32.5t59.5 17t65 5q92 0 157 -34.5t106 -92t60 -133.5t19 -158z" />
    <glyph glyph-name="c" unicode="c" horiz-adv-x="1039" 
d="M805 576q-46 46 -94 68t-114 22q-59 0 -99 -20.5t-64.5 -55.5t-35.5 -82t-11 -99q0 -54 11 -101.5t36 -82.5t65 -55t98 -20q64 0 120 18t112 63l67 -144q-73 -53 -146.5 -79t-165.5 -26q-99 0 -176 29t-130 83.5t-80.5 132.5t-27.5 175q0 99 28 178.5t82 136t132.5 86.5
t178.5 30q81 0 161.5 -29.5t146.5 -85.5z" />
    <glyph glyph-name="d" unicode="d" horiz-adv-x="1154" 
d="M734 514q0 82 -45 117t-122 35q-61 0 -96.5 -21t-54 -56.5t-24 -81.5t-5.5 -95q0 -48 6 -96t25 -87t55 -63.5t95 -24.5q48 0 79.5 14t51 39.5t27.5 61t8 78.5v180zM766 0l-15 99h-7q-39 -60 -99 -88.5t-131 -28.5q-94 0 -159.5 36.5t-106.5 97.5t-59.5 138.5t-18.5 160.5
q0 82 19 158t60 133.5t106.5 92t158.5 34.5q63 0 119.5 -21.5t94.5 -75.5h3v349h213v-1085h-178z" />
    <glyph glyph-name="e" unicode="e" horiz-adv-x="1129" 
d="M757 474q0 43 -10 79.5t-31.5 63t-55 41.5t-80.5 15q-43 0 -78.5 -13.5t-61 -39t-39.5 -62.5t-14 -84h370v0zM959 405v-31q0 -14 -3 -37h-571q2 -94 55 -143t162 -49q67 0 122.5 17.5t119.5 55.5l70 -149q-79 -47 -156.5 -67t-165.5 -20q-102 0 -180.5 30.5t-132 86.5
t-81.5 134t-28 173q0 114 33.5 194.5t90 132.5t130.5 76t155 24q93 0 164 -30t119 -86t72.5 -135t24.5 -177z" />
    <glyph glyph-name="f" unicode="f" horiz-adv-x="754" 
d="M644 933q-20 2 -40.5 3.5t-46.5 1.5q-32 0 -52.5 -4.5t-32.5 -15.5t-16.5 -29t-4.5 -45v-44h178v-169h-172v-631h-213v628h-124v172h124v62q0 63 11.5 107t42.5 72t86 40.5t143 12.5q25 0 55 -1t62 -6v-154v0z" />
    <glyph glyph-name="g" unicode="g" horiz-adv-x="1157" 
d="M734 509q0 83 -44.5 120.5t-124.5 37.5q-57 0 -91.5 -19.5t-54 -52.5t-26 -76t-6.5 -91q0 -46 7 -89t26.5 -76t54.5 -52.5t90 -19.5q48 0 80 14.5t52 41t28.5 62.5t8.5 79v121zM947 26q0 -98 -21.5 -164t-67 -106t-116 -57.5t-167.5 -17.5t-182 22t-170 67l63 163
q71 -41 139 -62.5t149 -21.5q42 0 72 6.5t49.5 23t29 45t9.5 72.5v138h-3q-43 -58 -93.5 -81t-123.5 -23q-90 0 -155 30t-107 83t-62 125t-20 156q0 83 18.5 157.5t59.5 130.5t106.5 88.5t158.5 32.5q74 0 132.5 -24t99.5 -89h3l15 97h184v-791v0z" />
    <glyph glyph-name="h" unicode="h" horiz-adv-x="1162" 
d="M739 0v457q0 44 -4 80t-18.5 62t-43.5 40t-79 14q-85 0 -128 -38.5t-43 -124.5v-490h-213v1085h213v-348h1q22 29 48.5 47.5t56 29.5t61.5 15t67 4q83 0 139.5 -23.5t91 -67.5t49.5 -107t15 -142v-493h-213z" />
    <glyph glyph-name="i" unicode="i" horiz-adv-x="632" 
d="M442 1019q0 -52 -36 -81.5t-90 -29.5t-90 29.5t-36 81.5q0 50 36 79.5t90 29.5q55 0 90.5 -29.5t35.5 -79.5zM209 0v817h213v-817h-213z" />
    <glyph glyph-name="j" unicode="j" horiz-adv-x="627" 
d="M418 14q0 -166 -77.5 -249.5t-245.5 -83.5q-32 0 -67.5 3t-67.5 8v177q27 -3 54.5 -4.5t52.5 -1.5q49 0 76.5 11t41 33.5t17 55.5t3.5 77v777h213v-803v0zM437 1019q0 -52 -36 -81.5t-90 -29.5t-90 29.5t-36 81.5q0 50 36 79.5t90 29.5q55 0 90.5 -29.5t35.5 -79.5z" />
    <glyph glyph-name="k" unicode="k" horiz-adv-x="1071" 
d="M725 0l-212 355l-90 -91v-264h-213v1085h213v-589h4l271 321h263l-297 -330l317 -487h-256z" />
    <glyph glyph-name="l" unicode="l" horiz-adv-x="691" 
d="M561 0q-30 -5 -69.5 -7.5t-85.5 -2.5q-56 0 -93.5 10t-60.5 32t-32.5 57t-9.5 85v911h213v-860q0 -20 3 -31.5t10 -17.5t19.5 -7.5t30.5 -1.5h75v-167v0z" />
    <glyph glyph-name="m" unicode="m" horiz-adv-x="1621" 
d="M1198 0v471q0 42 -5.5 76t-20 58t-40 37t-66.5 13q-30 0 -57.5 -8t-47.5 -25.5t-32 -44.5t-12 -65v-512h-213v474q0 42 -5 75.5t-19 57t-40 36t-68 12.5q-31 0 -58 -9t-47.5 -27t-32 -45t-11.5 -63v-511h-213v817h189l16 -97h4q12 22 30 43t43.5 37t59.5 25.5t80 9.5
q77 0 131.5 -28t88.5 -89q49 65 108.5 91t140.5 26q161 0 235.5 -88t74.5 -254v-493h-213z" />
    <glyph glyph-name="n" unicode="n" horiz-adv-x="1163" 
d="M740 0v457q0 44 -4.5 80t-19.5 62t-44 40t-78 14q-85 0 -128 -38.5t-43 -124.5v-490h-213v817h184l17 -95h3q45 64 105.5 87.5t137.5 23.5q83 0 140 -23.5t91.5 -67t49.5 -106t15 -141.5v-495h-213z" />
    <glyph glyph-name="o" unicode="o" horiz-adv-x="1164" 
d="M777 408q0 60 -9.5 107.5t-32 80t-60 49.5t-93.5 17t-93.5 -17t-60 -49.5t-32 -80t-9.5 -107.5q0 -62 9.5 -110.5t32.5 -82t61 -51t94 -17.5q55 0 92.5 17.5t59.5 50.5t31.5 81.5t9.5 111.5zM994 408q0 -94 -25 -172t-76 -134.5t-128.5 -88t-182.5 -31.5t-182.5 31.5
t-128.5 87.5t-76 134.5t-25 172.5q0 89 23.5 166.5t73 135t127.5 90.5t188 33q103 0 180 -29.5t128.5 -85t77.5 -134t26 -176.5z" />
    <glyph glyph-name="p" unicode="p" horiz-adv-x="1153" 
d="M766 412q0 50 -5.5 96t-23.5 81.5t-53.5 56.5t-95.5 21q-76 0 -122 -35.5t-46 -114.5v-183q0 -44 8.5 -79.5t27.5 -61t50.5 -39t78.5 -13.5q60 0 95.5 24.5t54.5 63.5t25 87t6 96zM983 415q0 -86 -18.5 -164.5t-60.5 -138t-109 -95t-164 -35.5q-36 0 -65 5t-53 16.5
t-45 31t-41 48.5h-4v-391h-213v1125h180l14 -97h3q45 63 100.5 88t131.5 25q94 0 159.5 -33.5t106.5 -91t59.5 -133.5t18.5 -160z" />
    <glyph glyph-name="q" unicode="q" horiz-adv-x="1157" 
d="M735 515q0 83 -44.5 117.5t-123.5 34.5q-61 0 -96.5 -21t-54 -56.5t-24 -82t-5.5 -96.5q0 -48 6 -96.5t25.5 -87t55 -62.5t94.5 -24q48 0 80 13.5t51.5 39t27.5 61t8 79.5v181zM895 -338q-48 11 -79 29.5t-49.5 45.5t-25.5 64t-7 85v198h-8q-39 -58 -91.5 -80t-118.5 -22
q-95 0 -160.5 36.5t-107 97t-60 138.5t-18.5 161q0 84 19 160t60 134t106.5 92t158.5 34q36 0 70 -5t64 -18t55 -35.5t42 -56.5h3l13 97h186v-883q0 -46 13.5 -74t56.5 -47z" />
    <glyph glyph-name="r" unicode="r" horiz-adv-x="839" 
d="M657 643q-51 0 -93.5 -5.5t-74 -23t-49 -51t-17.5 -88.5v-475h-213v817h184l19 -110h1q18 32 39.5 55.5t50 39.5t65.5 23.5t85 7.5h55v-190h-52z" />
    <glyph glyph-name="s" unicode="s" horiz-adv-x="963" 
d="M813 241q0 -133 -82.5 -196t-245.5 -63q-92 0 -182.5 24t-172.5 74l74 150q66 -38 134 -64.5t145 -26.5q61 0 93.5 19.5t32.5 70.5q0 27 -16.5 44t-44 29t-63 21.5t-73.5 20.5q-46 13 -91.5 30.5t-82 46t-59 70.5t-22.5 105q0 51 20.5 95t61.5 76t102.5 50t143.5 18
q78 0 153 -17.5t148 -53.5l-58 -146q-52 29 -109 46.5t-117 17.5q-66 0 -103.5 -17t-37.5 -60q0 -21 12 -35.5t32.5 -25t48 -18.5t59.5 -17q49 -14 102 -31t97 -46t72.5 -74.5t28.5 -116.5z" />
    <glyph glyph-name="t" unicode="t" horiz-adv-x="815" 
d="M655 -3q-43 -5 -74 -7.5t-60 -2.5q-83 0 -135 12.5t-81.5 42t-40.5 78.5t-10 121v387h-134v172h135v219h212v-219h188v-172h-188v-367q0 -32 3 -50.5t17.5 -29t43.5 -13.5t81 -3h43v-168v0z" />
    <glyph glyph-name="u" unicode="u" horiz-adv-x="1147" 
d="M750 0l-15 90h-4q-35 -51 -90 -80.5t-141 -29.5q-68 0 -121.5 15t-91 52.5t-57.5 100.5t-20 159v510h213v-435q0 -51 3 -92t17 -70.5t42.5 -45.5t79.5 -16q49 0 80 12t48.5 34.5t24 54.5t6.5 73v485h213v-817h-187z" />
    <glyph glyph-name="v" unicode="v" horiz-adv-x="1026" 
d="M636 0h-244l-292 817h228l187 -622h6l185 622h220z" />
    <glyph glyph-name="w" unicode="w" horiz-adv-x="1465" 
d="M1099 0h-210l-157 498h-6l-151 -498h-214l-241 817h224l134 -596h7l163 596h168l164 -597h6l141 597h218z" />
    <glyph glyph-name="x" unicode="x" horiz-adv-x="1000" 
d="M672 0l-172 288h-2l-170 -288h-248l294 428l-260 389h245l150 -255h3l153 255h225l-262 -382l292 -435h-248z" />
    <glyph glyph-name="y" unicode="y" horiz-adv-x="1049" 
d="M630 4q-39 -98 -71 -161t-69 -99t-85 -49.5t-120 -13.5q-23 0 -52.5 2t-64.5 6v180q12 -2 34.5 -4t54.5 -2q33 0 55 5t37.5 17t27 33t22.5 53l18 47l-317 799h231l195 -576h3l190 576h230z" />
    <glyph glyph-name="z" unicode="z" horiz-adv-x="942" 
d="M140 0v148l385 495h-381v174h651v-161l-380 -483h387v-173h-662z" />
    <glyph glyph-name="braceleft" unicode="{" horiz-adv-x="668" 
d="M405 -195q-59 0 -101.5 10t-69.5 34t-40 64.5t-13 100.5v266q0 24 -2.5 45t-11 37.5t-24.5 28t-43 17.5v142q26 4 42 16t24.5 29t11.5 38t3 44v290q0 60 13 100.5t40 65t69 34.5t101 10h114v-128h-53q-36 0 -56 -6.5t-29 -21.5t-10.5 -39t-1.5 -58v-282q0 -30 -5.5 -52
t-16.5 -40.5t-29 -35t-42 -35.5q24 -18 42 -34.5t29 -35t16.5 -41t5.5 -51.5v-260q0 -36 2 -60t11.5 -38.5t29.5 -20t56 -5.5h51v-128h-113z" />
    <glyph glyph-name="bar" unicode="|" horiz-adv-x="578" 
d="M210 -330v1379h158v-1379h-158z" />
    <glyph glyph-name="braceright" unicode="}" horiz-adv-x="667" 
d="M567 408q-27 -6 -43 -17.5t-24.5 -28t-11 -37.5t-2.5 -45v-266q0 -60 -12.5 -100.5t-39.5 -64.5t-69.5 -34t-102.5 -10h-112v128h51q36 0 56 5.5t30 20t12 38.5t2 60v260q0 29 5 51.5t16 41t28 35t41 34.5q-24 19 -41 35.5t-28 35t-16 40.5t-5 52v282q0 34 -1.5 58
t-10.5 39t-29 21.5t-57 6.5h-53v128h114q59 0 101 -10t69 -34.5t39.5 -65t12.5 -100.5v-290q0 -23 3 -44t11.5 -38t24.5 -29t42 -16v-142v0z" />
    <glyph glyph-name="asciitilde" unicode="~" horiz-adv-x="900" 
d="M799 899q-27 -69 -81.5 -102.5t-121.5 -33.5q-40 0 -76 10.5t-70.5 22.5t-67 22.5t-65.5 10.5q-17 0 -31 -2.5t-25.5 -10t-22 -20.5t-20.5 -34l-125 91q21 37 41.5 62t43.5 40.5t51 22t63 6.5q38 0 74.5 -10t71 -22.5t68 -22.5t66.5 -10q31 0 55 14.5t42 50.5l130 -85v0z
" />
    <glyph glyph-name="exclamdown" unicode="&#xa1;" horiz-adv-x="681" 
d="M481 708q0 -23 -11 -43t-29.5 -35t-44 -23.5t-55.5 -8.5t-56 8.5t-44.5 23.5t-29.5 35t-11 43q0 24 11 44t30 34.5t44.5 22.5t54.5 8q30 0 56 -8t44.5 -22.5t29.5 -34.5t11 -44zM222 -200l32 706h174l32 -706h-238z" />
    <glyph glyph-name="cent" unicode="&#xa2;" horiz-adv-x="984" 
d="M864 235q-51 -48 -101.5 -76.5t-110.5 -41.5v-117h-199v117q-66 13 -118.5 45.5t-89 82t-56 115t-19.5 144.5q0 159 73 256.5t210 123.5v116h199v-116q52 -11 100.5 -34t99.5 -61l-95 -144q-25 22 -47 38t-44.5 25.5t-46 14t-51.5 4.5q-49 0 -84 -15.5t-57 -44
t-32.5 -68.5t-10.5 -88q0 -118 47 -178t139 -60q22 0 44.5 3t47 13t52.5 27.5t60 47.5l90 -129v0z" />
    <glyph glyph-name="sterling" unicode="&#xa3;" horiz-adv-x="995" 
d="M150 0v165h18q128 0 128 147v22q0 12 -1.5 27.5t-4 37t-7.5 52.5h-124v167h104q-8 43 -14.5 81t-6.5 83q0 118 80 176t232 58q83 0 156 -16.5t144 -49.5l-42 -181q-48 29 -100.5 48.5t-120.5 19.5q-80 0 -110 -26t-30 -78q0 -23 4 -48.5t11 -66.5h238v-167h-210
q14 -59 18 -93t4 -57q0 -37 -8 -64.5t-25 -52.5v-3h392v-181h-725z" />
    <glyph glyph-name="currency" unicode="&#xa4;" horiz-adv-x="1180" 
d="M120 334l32 108h87q-2 47 -2 62q0 13 2 49h-103l33 108h83q15 82 48 148t86 112t126 70.5t169 24.5q56 0 105.5 -9.5t95 -30t88.5 -52t86 -74.5l-125 -135q-55 64 -118 94t-131 30q-94 0 -145 -44t-69 -134h374l-30 -108h-358v-48q0 -16 2 -63h345l-32 -108h-299
q8 -40 23.5 -72.5t40 -55.5t60 -35.5t83.5 -12.5q146 0 272 126l111 -143q-88 -81 -176.5 -121t-196.5 -40q-102 0 -177 25t-127.5 71t-84 111.5t-46.5 146.5h-132z" />
    <glyph glyph-name="yen" unicode="&#xa5;" horiz-adv-x="1130" 
d="M803 598h174v-135h-257l-38 -66v-89h295v-134h-295v-174h-217v174h-307v134h307v80l-46 75h-261v135h176l-244 402h251l234 -411l231 411h234z" />
    <glyph glyph-name="brokenbar" unicode="&#xa6;" horiz-adv-x="576" 
d="M210 -330v570h156v-570h-156zM210 479v570h156v-570h-156z" />
    <glyph glyph-name="section" unicode="&#xa7;" horiz-adv-x="945" 
d="M608 436q0 34 -30 56t-101 22q-60 0 -96.5 -16t-36.5 -62q0 -15 6.5 -28.5t21.5 -24t40.5 -17t64.5 -6.5q131 0 131 76zM795 481q0 -75 -42 -121.5t-136 -61.5v-3q36 -8 67 -24.5t54 -41t36.5 -57.5t13.5 -73q0 -39 -15.5 -79t-52 -72t-96.5 -52t-149 -20q-48 0 -89.5 5
t-80 16t-76.5 28t-79 42l73 147q73 -42 134.5 -63.5t115.5 -21.5t78 18t24 46q0 23 -18.5 40t-66.5 35q-60 20 -108 38t-89 39q-72 35 -103 77t-31 102q0 81 49 124.5t140 53.5v5q-85 23 -132 70.5t-47 119.5q0 47 18.5 87t56.5 69.5t95 46t134 16.5q84 0 152.5 -15
t140.5 -48l-58 -160q-58 32 -109 48t-108 16q-46 0 -77 -10.5t-31 -43.5q0 -10 3.5 -18.5t12.5 -17t25.5 -16.5t42.5 -18l64.5 -21.5t53 -19.5t48 -20t49.5 -22q54 -26 83.5 -67t29.5 -102z" />
    <glyph glyph-name="dieresis" unicode="&#xa8;" 
d="M276 1021q0 -22 -8.5 -41.5t-23 -34.5t-34 -23.5t-41.5 -8.5q-23 0 -43 8.5t-34.5 23.5t-23 34.5t-8.5 41.5t8.5 42t23 34t34.5 22.5t43 8.5q22 0 41.5 -8.5t34 -22.5t23 -34t8.5 -42zM639 1021q0 -22 -8.5 -41.5t-22.5 -34.5t-34 -23.5t-42 -8.5t-41.5 8.5t-34.5 23.5
t-24 34.5t-9 41.5t9 42t24 34t34.5 22.5t41.5 8.5t42 -8.5t34 -22.5t22.5 -34t8.5 -42z" />
    <glyph glyph-name="copyright" unicode="&#xa9;" horiz-adv-x="1355" 
d="M933 284q-54 -51 -110.5 -74.5t-124.5 -23.5q-80 0 -137.5 25.5t-94.5 69t-54.5 101.5t-17.5 123q0 69 20 126t58 98.5t93.5 64t126.5 22.5q70 0 127.5 -25t109.5 -76l-84 -96q-35 38 -70 57.5t-77 19.5q-83 0 -121 -51.5t-38 -140.5q0 -93 38.5 -145t121.5 -52
q45 0 83.5 18t76.5 54l74 -95v0zM1127 504q0 92 -35.5 173t-96 142t-142 96t-174.5 35t-174.5 -35t-142 -96t-96 -142t-35.5 -173q0 -93 35.5 -174.5t96 -142t142 -96t174.5 -35.5t174.5 35.5t142 96t96 142t35.5 174.5zM1195 501q0 -108 -40.5 -202t-110.5 -164.5
t-164 -111t-201 -40.5q-108 0 -202.5 40.5t-165 111t-111 164.5t-40.5 202q0 107 40.5 201t111 164t165 110.5t202.5 40.5q107 0 201 -40.5t164 -110.5t110.5 -164t40.5 -201z" />
    <glyph glyph-name="ordfeminine" unicode="&#xaa;" horiz-adv-x="755" 
d="M434 782q-44 0 -73.5 -5.5t-47.5 -15.5t-26 -25t-8 -34q0 -29 15.5 -44.5t41.5 -15.5q23 0 45 8.5t53 29.5v102zM523 555q-57 12 -73 52h-2q-34 -25 -71 -38t-78 -13q-68 0 -108.5 37.5t-40.5 102.5q0 87 75 125.5t209 38.5v10q0 14 -1.5 24.5t-8 17.5t-19.5 10.5
t-36 3.5q-31 0 -75 -9.5t-92 -36.5l-42 93q58 29 110.5 42t109.5 13q56 0 92 -11t56.5 -34.5t28.5 -60t8 -86.5v-143q0 -11 1.5 -18.5t6 -13.5t12 -12t20.5 -14z" />
    <glyph glyph-name="guillemotleft" unicode="&#xab;" horiz-adv-x="940" 
d="M316 144l-186 305l186 303l145 -73l-147 -231l147 -232zM665 144l-186 305l186 303l145 -73l-148 -231l148 -232z" />
    <glyph glyph-name="registered" unicode="&#xae;" horiz-adv-x="818" 
d="M373 884v-70h43q23 0 32 9t9 26q0 18 -10 26.5t-40 8.5h-34zM490 778q1 -3 9.5 -22.5t17.5 -41t16.5 -39l7.5 -17.5h-84l-37 95q-2 7 -8 7h-38v-102h-72v282q26 2 54 2.5t51 0.5t45.5 -3.5t40.5 -13.5t29 -28t11 -47q0 -24 -11.5 -43t-31.5 -30zM409 1013
q-46 0 -86.5 -17t-70.5 -46.5t-47.5 -68.5t-17.5 -84t17.5 -84.5t47.5 -69t70.5 -46.5t86.5 -17q45 0 85.5 17t70.5 46.5t47.5 69t17.5 84.5t-17.5 84t-47.5 68.5t-70.5 46.5t-85.5 17zM407 542q-53 0 -100 20t-82 54.5t-55 80.5t-20 99t20 99t55 80.5t82 54t100 19.5
q54 0 101.5 -19.5t83 -54t56 -80.5t20.5 -99t-20.5 -99t-56 -80.5t-83 -54.5t-101.5 -20z" />
    <glyph glyph-name="macron" unicode="&#xaf;" 
d="M106 940v145h487v-145h-487z" />
    <glyph glyph-name="macron" unicode="&#x2c9;" 
d="M106 940v145h487v-145h-487z" />
    <glyph glyph-name="degree" unicode="&#xb0;" horiz-adv-x="783" 
d="M555 797q0 34 -13 63.5t-35 51.5t-51.5 35t-63.5 13t-63.5 -13t-52 -35t-35.5 -51.5t-13 -63.5t13 -64t35.5 -52.5t52 -35.5t63.5 -13t63.5 13t51.5 35.5t35 52.5t13 64zM623 796q0 -48 -18 -90t-49.5 -74t-73.5 -50.5t-90 -18.5t-90.5 18.5t-74 50.5t-49.5 74t-18 90
t18 90.5t49.5 74.5t74 50.5t90.5 18.5t90 -18.5t73.5 -50.5t49.5 -74.5t18 -90.5z" />
    <glyph glyph-name="plusminus" unicode="&#xb1;" horiz-adv-x="1030" 
d="M160 0v184h710v-184h-710zM613 559v-254h-193v254h-260v184h260v234h193v-234h257v-184h-257z" />
    <glyph glyph-name="twosuperior" unicode="&#xb2;" horiz-adv-x="741" 
d="M125 616q16 12 44.5 31t63 43t70 51.5t64 56t47 57.5t18.5 55q0 12 -3.5 24.5t-13.5 22.5t-26.5 16.5t-42.5 6.5q-38 0 -77.5 -16t-75.5 -51l-73 104q33 28 63.5 46t61 29t62 15.5t66.5 4.5q48 0 88 -12t68.5 -35.5t44 -57.5t15.5 -78q0 -35 -11 -68t-39.5 -69t-78 -77.5
t-127.5 -92.5h263v-127h-448z" />
    <glyph glyph-name="threesuperior" unicode="&#xb3;" horiz-adv-x="750" 
d="M600 679q0 -89 -67 -140.5t-194 -51.5q-66 0 -123 20t-106 58l71 107q24 -20 44.5 -32t39.5 -19t37.5 -9.5t38.5 -2.5q49 0 78.5 17.5t29.5 53.5q0 38 -24.5 51.5t-83.5 13.5h-86v117h74q45 0 72.5 15t27.5 50q0 10 -4.5 20.5t-15 19.5t-28.5 14.5t-46 5.5
q-36 0 -73.5 -14t-67.5 -43l-72 101q33 24 62 39.5t57 25.5t57 14t63 4q49 0 89.5 -11t69 -32t44.5 -52.5t16 -71.5q0 -46 -18.5 -77.5t-48.5 -50.5q41 -19 64 -53.5t23 -86.5z" />
    <glyph glyph-name="acute" unicode="&#xb4;" 
d="M285 908l-128 69l208 207l178 -99z" />
    <glyph glyph-name="mu" unicode="&#xb5;" horiz-adv-x="1149" 
d="M750 0l-15 90h-4q-35 -51 -86 -80.5t-112 -29.5q-46 0 -78.5 18t-42.5 41v-377h-202v1155h213v-435q0 -51 3 -92t17 -70.5t42.5 -45.5t79.5 -16q49 0 80 12t48.5 34.5t24 54.5t6.5 73v485h215v-817h-189z" />
    <glyph glyph-name="mu" unicode="&#x3bc;" horiz-adv-x="1149" 
d="M750 0l-15 90h-4q-35 -51 -86 -80.5t-112 -29.5q-46 0 -78.5 18t-42.5 41v-377h-202v1155h213v-435q0 -51 3 -92t17 -70.5t42.5 -45.5t79.5 -16q49 0 80 12t48.5 34.5t24 54.5t6.5 73v485h215v-817h-189z" />
    <glyph glyph-name="paragraph" unicode="&#xb6;" horiz-adv-x="1014" 
d="M610 0q-109 0 -191 29t-137.5 80t-83.5 120t-28 149q0 78 28 146t83.5 119t137.5 80t191 29h194v-752h-194z" />
    <glyph glyph-name="periodcentered" unicode="&#xb7;" horiz-adv-x="604" 
d="M444 412q0 -24 -11 -44.5t-30.5 -35t-45 -23t-54.5 -8.5q-30 0 -56.5 8.5t-45.5 23t-30 35t-11 44.5q0 23 11 42.5t30 34t44.5 23t55.5 8.5q31 0 57 -8.5t45 -23t30 -34t11 -42.5z" />
    <glyph glyph-name="periodcentered" unicode="&#x2219;" horiz-adv-x="604" 
d="M444 412q0 -24 -11 -44.5t-30.5 -35t-45 -23t-54.5 -8.5q-30 0 -56.5 8.5t-45.5 23t-30 35t-11 44.5q0 23 11 42.5t30 34t44.5 23t55.5 8.5q31 0 57 -8.5t45 -23t30 -34t11 -42.5z" />
    <glyph glyph-name="cedilla" unicode="&#xb8;" horiz-adv-x="920" 
d="M648 -198q0 -29 -9.5 -55t-29 -45t-50 -30t-71.5 -11q-45 0 -80 11.5t-64 27.5l30 69q30 -12 57 -19t51 -7t41.5 13t17.5 45q0 20 -11.5 34.5t-43.5 14.5q-12 0 -25.5 -2t-27.5 -7l-49 26l61 133h93l-40 -84l2 -1q8 1 18 2.5t18 1.5q58 0 85 -32t27 -85z" />
    <glyph glyph-name="onesuperior" unicode="&#xb9;" horiz-adv-x="581" 
d="M401 1104v-609h-155v413l-105 -72l-61 114l208 154h113z" />
    <glyph glyph-name="ordmasculine" unicode="&#xba;" horiz-adv-x="755" 
d="M477 793q0 66 -21.5 96.5t-78.5 30.5t-79 -30.5t-22 -96.5q0 -76 25 -105.5t78 -29.5q51 0 74.5 29.5t23.5 105.5zM611 793q0 -109 -59 -173t-175 -64t-175 64t-59 173q0 50 14 93t42.5 74.5t72.5 49.5t105 18q113 0 173.5 -61.5t60.5 -173.5z" />
    <glyph glyph-name="guillemotright" unicode="&#xbb;" horiz-adv-x="939" 
d="M274 144l-144 73l147 231l-147 232l144 72l186 -303zM623 144l-144 73l147 231l-147 232l144 72l186 -303z" />
    <glyph glyph-name="onequarter" unicode="&#xbc;" horiz-adv-x="1750" 
d="M471 1104v-609h-155v413l-105 -72l-61 114l208 154h113zM562 -58h-126l793 1162h126zM1436 181v228l-160 -228h160zM1577 -58h-157v121h-252l-35 123l276 366h168v-358h94v-131h-94v-121z" />
    <glyph glyph-name="onehalf" unicode="&#xbd;" horiz-adv-x="1750" 
d="M471 1104v-609h-155v413l-105 -72l-61 114l208 154h113zM549 -58h-126l793 1162h126zM1213 63q16 12 44.5 31.5t63 44t70 52t64 56t47 57t18.5 54.5q0 12 -4 24.5t-14 22.5t-26.5 16t-41.5 6q-38 0 -77.5 -15.5t-76.5 -50.5l-74 105q34 27 64.5 45t61 29.5t62 16
t66.5 4.5q49 0 89 -12t68.5 -35.5t44 -58t15.5 -79.5q0 -34 -11 -67t-39.5 -69.5t-78 -77.5t-127.5 -92h263v-128h-448z" />
    <glyph glyph-name="threequarters" unicode="&#xbe;" horiz-adv-x="1750" 
d="M625 679q0 -89 -67 -140.5t-194 -51.5q-66 0 -123 20t-106 58l71 107q24 -20 44.5 -32t39.5 -19t37.5 -9.5t38.5 -2.5q49 0 78.5 17.5t29.5 53.5q0 38 -24.5 51.5t-83.5 13.5h-86v117h74q45 0 72.5 15t27.5 50q0 10 -4.5 20.5t-15 19.5t-28.5 14.5t-46 5.5
q-36 0 -73.5 -14t-67.5 -43l-72 101q33 24 62 39.5t57 25.5t57 14t63 4q49 0 89.5 -11t69 -32t44.5 -52.5t16 -71.5q0 -46 -18.5 -77.5t-48.5 -50.5q41 -19 64 -53.5t23 -86.5zM590 -58h-126l793 1162h126zM1448 181v228l-160 -228h160zM1589 -58h-157v121h-252l-35 123
l276 366h168v-358h94v-131h-94v-121z" />
    <glyph glyph-name="questiondown" unicode="&#xbf;" horiz-adv-x="990" 
d="M708 708q0 -23 -11 -43t-29.5 -35t-44 -23.5t-55.5 -8.5t-56 8.5t-44.5 23.5t-29.5 35t-11 43q0 24 11 44t30 34.5t44 22.5t54 8q30 0 56 -8t45 -22.5t30 -34.5t11 -44zM860 -106q-45 -30 -86.5 -51.5t-83.5 -34.5t-87.5 -19t-97.5 -6q-84 0 -147 20.5t-104.5 58.5
t-62.5 92t-21 120q0 45 10.5 82.5t32 68.5t56 57.5t82.5 49.5l59 27q18 9 28 15t15 15t6 22.5t1 37.5v62h205v-109q0 -34 -4.5 -57t-16 -40t-31.5 -30.5t-51 -28.5l-61 -28q-32 -16 -55 -28.5t-38.5 -27t-23 -33.5t-7.5 -47q0 -57 41 -89t116 -32q66 0 120 20.5t102 64.5
l104 -152v0z" />
    <glyph glyph-name="Agrave" unicode="&#xc0;" horiz-adv-x="1195" 
d="M595 789h-5l-141 -401h288zM870 0l-79 208h-393l-80 -208h-228l385 1004h237l393 -1004h-235zM587 1088l-260 177l179 100l209 -208z" />
    <glyph glyph-name="Aacute" unicode="&#xc1;" horiz-adv-x="1195" 
d="M595 789h-5l-141 -401h288zM870 0l-79 208h-393l-80 -208h-228l385 1004h237l393 -1004h-235zM600 1088l-128 69l208 207l178 -99z" />
    <glyph glyph-name="Acircumflex" unicode="&#xc2;" horiz-adv-x="1195" 
d="M595 789h-5l-141 -401h288zM870 0l-79 208h-393l-80 -208h-228l385 1004h237l393 -1004h-235zM797 1087l-203 94l-205 -95l-58 115l260 132l263 -132z" />
    <glyph glyph-name="Atilde" unicode="&#xc3;" horiz-adv-x="1195" 
d="M595 789h-5l-141 -401h288zM870 0l-79 208h-393l-80 -208h-228l385 1004h237l393 -1004h-235zM896 1250q-23 -73 -69.5 -110.5t-105.5 -37.5q-38 0 -71 11.5t-63 25t-57 25t-51 11.5q-29 0 -48.5 -14.5t-36.5 -59.5l-108 61q17 41 34.5 69t38 45.5t44.5 25t55 7.5
q34 0 66 -11.5t62.5 -25.5t59 -25.5t55.5 -11.5q26 0 46 16.5t37 56.5z" />
    <glyph glyph-name="Adieresis" unicode="&#xc4;" horiz-adv-x="1195" 
d="M595 789h-5l-141 -401h288zM870 0l-79 208h-393l-80 -208h-228l385 1004h237l393 -1004h-235zM520 1201q0 -22 -8.5 -41.5t-23 -34.5t-34 -23.5t-41.5 -8.5q-23 0 -43 8.5t-34.5 23.5t-23 34.5t-8.5 41.5t8.5 42t23 34t34.5 22.5t43 8.5q22 0 41.5 -8.5t34 -22.5t23 -34
t8.5 -42zM883 1201q0 -22 -8.5 -41.5t-22.5 -34.5t-34 -23.5t-42 -8.5t-41.5 8.5t-34.5 23.5t-24 34.5t-9 41.5t9 42t24 34t34.5 22.5t41.5 8.5t42 -8.5t34 -22.5t22.5 -34t8.5 -42z" />
    <glyph glyph-name="Aring" unicode="&#xc5;" horiz-adv-x="1187" 
d="M595 789h-5l-141 -401h288zM870 0l-79 208h-393l-80 -208h-228l385 1004h237l393 -1004h-235zM659 1225q0 30 -19.5 50t-48.5 20q-30 0 -50 -20t-20 -50q0 -32 20 -52.5t50 -20.5q29 0 48.5 20.5t19.5 52.5zM739 1225q0 -33 -11 -60.5t-31 -47.5t-47.5 -31t-60.5 -11
q-32 0 -59.5 11.5t-47.5 31.5t-31.5 47.5t-11.5 59.5q0 33 11 60.5t31 47.5t47.5 31t60.5 11t60.5 -11t47.5 -31t31 -47.5t11 -60.5z" />
    <glyph glyph-name="AE" unicode="&#xc6;" horiz-adv-x="1658" 
d="M495 388h312v428h-100zM807 0v208h-391l-98 -208h-228l518 1000h884v-184h-465v-211h422v-186h-422v-238h481v-181h-701z" />
    <glyph glyph-name="Ccedilla" unicode="&#xc7;" horiz-adv-x="1168" 
d="M807 -208q0 -29 -9.5 -55t-29 -45t-50 -30t-71.5 -11q-45 0 -80 11.5t-64 27.5l30 69q30 -12 57 -19t51 -7t41.5 13t17.5 45q0 20 -11.5 34.5t-43.5 14.5q-12 0 -25.5 -2t-27.5 -7l-49 26l59 129q-112 9 -193.5 50.5t-134.5 109t-78.5 159t-25.5 201.5q0 115 32.5 209.5
t95 161t153 103t207.5 36.5q113 0 205.5 -39.5t178.5 -126.5l-133 -144q-57 65 -114 95.5t-127 30.5q-131 0 -199 -79t-68 -248q0 -79 15.5 -141.5t47.5 -106t82.5 -67t120.5 -23.5q73 0 136 30.5t126 93.5l118 -147q-81 -78 -167.5 -116.5t-185.5 -43.5l-37 -78l2 -1
q8 1 18 2.5t18 1.5q58 0 85 -32t27 -85z" />
    <glyph glyph-name="Egrave" unicode="&#xc8;" horiz-adv-x="1061" 
d="M210 0v1000h685v-184h-465v-211h422v-186h-422v-238h481v-181h-701zM541 1088l-260 177l179 100l209 -208z" />
    <glyph glyph-name="Eacute" unicode="&#xc9;" horiz-adv-x="1061" 
d="M210 0v1000h685v-184h-465v-211h422v-186h-422v-238h481v-181h-701zM550 1088l-128 69l208 207l178 -99z" />
    <glyph glyph-name="Ecircumflex" unicode="&#xca;" horiz-adv-x="1061" 
d="M210 0v1000h685v-184h-465v-211h422v-186h-422v-238h481v-181h-701zM758 1087l-203 94l-205 -95l-58 115l260 132l263 -132z" />
    <glyph glyph-name="Edieresis" unicode="&#xcb;" horiz-adv-x="1061" 
d="M210 0v1000h685v-184h-465v-211h422v-186h-422v-238h481v-181h-701zM479 1201q0 -22 -8.5 -41.5t-23 -34.5t-34 -23.5t-41.5 -8.5q-23 0 -43 8.5t-34.5 23.5t-23 34.5t-8.5 41.5t8.5 42t23 34t34.5 22.5t43 8.5q22 0 41.5 -8.5t34 -22.5t23 -34t8.5 -42zM842 1201
q0 -22 -8.5 -41.5t-22.5 -34.5t-34 -23.5t-42 -8.5t-41.5 8.5t-34.5 23.5t-24 34.5t-9 41.5t9 42t24 34t34.5 22.5t41.5 8.5t42 -8.5t34 -22.5t22.5 -34t8.5 -42z" />
    <glyph glyph-name="Igrave" unicode="&#xcc;" horiz-adv-x="640" 
d="M210 0v1000h220v-1000h-220zM313 1088l-260 177l179 100l209 -208z" />
    <glyph glyph-name="Iacute" unicode="&#xcd;" horiz-adv-x="640" 
d="M210 0v1000h220v-1000h-220zM327 1088l-128 69l208 207l178 -99z" />
    <glyph glyph-name="Icircumflex" unicode="&#xce;" horiz-adv-x="640" 
d="M210 0v1000h220v-1000h-220zM527 1087l-203 94l-205 -95l-58 115l260 132l263 -132z" />
    <glyph glyph-name="Idieresis" unicode="&#xcf;" horiz-adv-x="640" 
d="M210 0v1000h220v-1000h-220zM248 1201q0 -22 -8.5 -41.5t-23 -34.5t-34 -23.5t-41.5 -8.5q-23 0 -43 8.5t-34.5 23.5t-23 34.5t-8.5 41.5t8.5 42t23 34t34.5 22.5t43 8.5q22 0 41.5 -8.5t34 -22.5t23 -34t8.5 -42zM611 1201q0 -22 -8.5 -41.5t-22.5 -34.5t-34 -23.5
t-42 -8.5t-41.5 8.5t-34.5 23.5t-24 34.5t-9 41.5t9 42t24 34t34.5 22.5t41.5 8.5t42 -8.5t34 -22.5t22.5 -34t8.5 -42z" />
    <glyph glyph-name="Eth" unicode="&#xd0;" horiz-adv-x="1246" 
d="M430 418v-241q18 -1 31 -1.5t24.5 -1t22.5 -0.5h26q71 0 128.5 13t98 50t62.5 102.5t22 169.5q0 59 -9.5 118t-39 106t-84 76.5t-144.5 29.5q-32 0 -68.5 -1.5t-69.5 -4.5v-228h181v-187h-181zM1076 505q0 -131 -36 -226t-103 -157t-162.5 -92t-214.5 -30h-350v418h-120
v187h120v388q37 3 81 6t89.5 5.5t91.5 4t88 1.5q114 0 209 -28t163 -89t106 -156.5t38 -231.5z" />
    <glyph glyph-name="Ntilde" unicode="&#xd1;" horiz-adv-x="1307" 
d="M890 0l-460 631h-2v-631h-218v1000h210l455 -632h4v632h218v-1000h-207zM977 1250q-23 -73 -69.5 -110.5t-105.5 -37.5q-38 0 -71 11.5t-63 25t-57 25t-51 11.5q-29 0 -48.5 -14.5t-36.5 -59.5l-108 61q17 41 34.5 69t38 45.5t44.5 25t55 7.5q34 0 66 -11.5t62.5 -25.5
t59 -25.5t55.5 -11.5q26 0 46 16.5t37 56.5z" />
    <glyph glyph-name="Ograve" unicode="&#xd2;" horiz-adv-x="1332" 
d="M931 501q0 80 -12.5 142.5t-43 105.5t-81.5 65.5t-127 22.5q-77 0 -128.5 -22t-82 -64.5t-43 -105.5t-12.5 -144t12.5 -144t43 -105.5t82 -65t128.5 -22.5q76 0 127 22.5t81.5 65t43 105.5t12.5 144zM1162 501q0 -134 -36 -231t-101.5 -160t-156.5 -93.5t-201 -30.5
q-111 0 -202.5 30.5t-157 93.5t-101.5 160t-36 231q0 132 36 229t101 160.5t157 94.5t203 31t202 -31t156.5 -94.5t101 -160.5t35.5 -229zM654 1088l-260 177l179 100l209 -208z" />
    <glyph glyph-name="Oacute" unicode="&#xd3;" horiz-adv-x="1332" 
d="M931 501q0 80 -12.5 142.5t-43 105.5t-81.5 65.5t-127 22.5q-77 0 -128.5 -22t-82 -64.5t-43 -105.5t-12.5 -144t12.5 -144t43 -105.5t82 -65t128.5 -22.5q76 0 127 22.5t81.5 65t43 105.5t12.5 144zM1162 501q0 -134 -36 -231t-101.5 -160t-156.5 -93.5t-201 -30.5
q-111 0 -202.5 30.5t-157 93.5t-101.5 160t-36 231q0 132 36 229t101 160.5t157 94.5t203 31t202 -31t156.5 -94.5t101 -160.5t35.5 -229zM678 1088l-128 69l208 207l178 -99z" />
    <glyph glyph-name="Ocircumflex" unicode="&#xd4;" horiz-adv-x="1332" 
d="M931 501q0 80 -12.5 142.5t-43 105.5t-81.5 65.5t-127 22.5q-77 0 -128.5 -22t-82 -64.5t-43 -105.5t-12.5 -144t12.5 -144t43 -105.5t82 -65t128.5 -22.5q76 0 127 22.5t81.5 65t43 105.5t12.5 144zM1162 501q0 -134 -36 -231t-101.5 -160t-156.5 -93.5t-201 -30.5
q-111 0 -202.5 30.5t-157 93.5t-101.5 160t-36 231q0 132 36 229t101 160.5t157 94.5t203 31t202 -31t156.5 -94.5t101 -160.5t35.5 -229zM873 1087l-203 94l-205 -95l-58 115l260 132l263 -132z" />
    <glyph glyph-name="Otilde" unicode="&#xd5;" horiz-adv-x="1332" 
d="M931 501q0 80 -12.5 142.5t-43 105.5t-81.5 65.5t-127 22.5q-77 0 -128.5 -22t-82 -64.5t-43 -105.5t-12.5 -144t12.5 -144t43 -105.5t82 -65t128.5 -22.5q76 0 127 22.5t81.5 65t43 105.5t12.5 144zM1162 501q0 -134 -36 -231t-101.5 -160t-156.5 -93.5t-201 -30.5
q-111 0 -202.5 30.5t-157 93.5t-101.5 160t-36 231q0 132 36 229t101 160.5t157 94.5t203 31t202 -31t156.5 -94.5t101 -160.5t35.5 -229zM973 1250q-23 -73 -69.5 -110.5t-105.5 -37.5q-38 0 -71 11.5t-63 25t-57 25t-51 11.5q-29 0 -48.5 -14.5t-36.5 -59.5l-108 61
q17 41 34.5 69t38 45.5t44.5 25t55 7.5q34 0 66 -11.5t62.5 -25.5t59 -25.5t55.5 -11.5q26 0 46 16.5t37 56.5z" />
    <glyph glyph-name="Odieresis" unicode="&#xd6;" horiz-adv-x="1332" 
d="M931 501q0 80 -12.5 142.5t-43 105.5t-81.5 65.5t-127 22.5q-77 0 -128.5 -22t-82 -64.5t-43 -105.5t-12.5 -144t12.5 -144t43 -105.5t82 -65t128.5 -22.5q76 0 127 22.5t81.5 65t43 105.5t12.5 144zM1162 501q0 -134 -36 -231t-101.5 -160t-156.5 -93.5t-201 -30.5
q-111 0 -202.5 30.5t-157 93.5t-101.5 160t-36 231q0 132 36 229t101 160.5t157 94.5t203 31t202 -31t156.5 -94.5t101 -160.5t35.5 -229zM597 1201q0 -22 -8.5 -41.5t-23 -34.5t-34 -23.5t-41.5 -8.5q-23 0 -43 8.5t-34.5 23.5t-23 34.5t-8.5 41.5t8.5 42t23 34t34.5 22.5
t43 8.5q22 0 41.5 -8.5t34 -22.5t23 -34t8.5 -42zM960 1201q0 -22 -8.5 -41.5t-22.5 -34.5t-34 -23.5t-42 -8.5t-41.5 8.5t-34.5 23.5t-24 34.5t-9 41.5t9 42t24 34t34.5 22.5t41.5 8.5t42 -8.5t34 -22.5t22.5 -34t8.5 -42z" />
    <glyph glyph-name="multiply" unicode="&#xd7;" horiz-adv-x="1030" 
d="M832 588l-195 -186l195 -188l-130 -130l-188 194l-186 -194l-131 130l197 188l-197 186l131 130l186 -193l188 193z" />
    <glyph glyph-name="Oslash" unicode="&#xd8;" horiz-adv-x="1332" 
d="M931 501q0 30 -1.5 57.5t-5.5 53.5l-444 -388q32 -30 77.5 -45t109.5 -15q76 0 127 22.5t81.5 65t43 105.5t12.5 144zM401 501q0 -32 1.5 -61t5.5 -55l446 389q-31 31 -77 47t-110 16q-77 0 -128.5 -22t-82 -64.5t-43 -105.5t-12.5 -144zM1162 501q0 -134 -36 -231
t-101.5 -160t-156.5 -93.5t-201 -30.5q-103 0 -188.5 25.5t-150.5 79.5l-103 -91l-108 131l108 94q-55 112 -55 276q0 132 36 229t101 160.5t157 94.5t203 31q104 0 189.5 -27t150.5 -82l106 93l115 -121l-120 -105q26 -56 40 -123.5t14 -149.5z" />
    <glyph glyph-name="Ugrave" unicode="&#xd9;" horiz-adv-x="1255" 
d="M1045 406q0 -99 -22 -177.5t-71.5 -133t-129.5 -83.5t-195 -29q-116 0 -195.5 28.5t-128.5 83t-71 133t-22 178.5v594h220v-546q0 -57 4.5 -109t24 -91t59 -62.5t110.5 -23.5q70 0 109.5 23.5t59 62.5t24 91t4.5 109v546h220v-594v0zM607 1088l-260 177l179 100l209 -208
z" />
    <glyph glyph-name="Uacute" unicode="&#xda;" horiz-adv-x="1255" 
d="M1045 406q0 -99 -22 -177.5t-71.5 -133t-129.5 -83.5t-195 -29q-116 0 -195.5 28.5t-128.5 83t-71 133t-22 178.5v594h220v-546q0 -57 4.5 -109t24 -91t59 -62.5t110.5 -23.5q70 0 109.5 23.5t59 62.5t24 91t4.5 109v546h220v-594v0zM642 1088l-128 69l208 207l178 -99z
" />
    <glyph glyph-name="Ucircumflex" unicode="&#xdb;" horiz-adv-x="1255" 
d="M1045 406q0 -99 -22 -177.5t-71.5 -133t-129.5 -83.5t-195 -29q-116 0 -195.5 28.5t-128.5 83t-71 133t-22 178.5v594h220v-546q0 -57 4.5 -109t24 -91t59 -62.5t110.5 -23.5q70 0 109.5 23.5t59 62.5t24 91t4.5 109v546h220v-594v0zM833 1087l-203 94l-205 -95l-58 115
l260 132l263 -132z" />
    <glyph glyph-name="Udieresis" unicode="&#xdc;" horiz-adv-x="1255" 
d="M1045 406q0 -99 -22 -177.5t-71.5 -133t-129.5 -83.5t-195 -29q-116 0 -195.5 28.5t-128.5 83t-71 133t-22 178.5v594h220v-546q0 -57 4.5 -109t24 -91t59 -62.5t110.5 -23.5q70 0 109.5 23.5t59 62.5t24 91t4.5 109v546h220v-594v0zM554 1201q0 -22 -8.5 -41.5
t-23 -34.5t-34 -23.5t-41.5 -8.5q-23 0 -43 8.5t-34.5 23.5t-23 34.5t-8.5 41.5t8.5 42t23 34t34.5 22.5t43 8.5q22 0 41.5 -8.5t34 -22.5t23 -34t8.5 -42zM917 1201q0 -22 -8.5 -41.5t-22.5 -34.5t-34 -23.5t-42 -8.5t-41.5 8.5t-34.5 23.5t-24 34.5t-9 41.5t9 42t24 34
t34.5 22.5t41.5 8.5t42 -8.5t34 -22.5t22.5 -34t8.5 -42z" />
    <glyph glyph-name="Yacute" unicode="&#xdd;" horiz-adv-x="1105" 
d="M663 392v-392h-218v388l-375 612h254l231 -417l237 417h243zM555 1088l-128 69l208 207l178 -99z" />
    <glyph glyph-name="Thorn" unicode="&#xde;" horiz-adv-x="1140" 
d="M773 504q0 42 -10.5 70.5t-34 46t-62 25t-94.5 7.5q-29 0 -65.5 -1t-76.5 -4v-301h156q36 0 69.5 2.5t59.5 17.5t42 46.5t16 90.5zM990 502q0 -68 -19 -127.5t-61.5 -104.5t-111 -71t-166.5 -26h-202v-173h-220v1000h219v-174q35 1 70.5 2.5t69.5 1.5q85 0 161.5 -14.5
t134 -52t91.5 -101t34 -160.5z" />
    <glyph glyph-name="germandbls" unicode="&#xdf;" horiz-adv-x="1146" 
d="M996 304q0 -87 -26 -145.5t-72.5 -93.5t-110 -50t-138.5 -15h-71v161q36 0 74 3t69.5 15.5t51.5 39t20 73.5q0 32 -9.5 59.5t-34.5 51t-69.5 43.5t-113.5 38l-26 128q45 37 73 66.5t43.5 55t21.5 49.5t6 50q0 22 -6 42t-19 34.5t-34 23t-51 8.5q-35 0 -57.5 -10
t-36 -28.5t-18.5 -44t-5 -56.5v-802h-213v628h-124v172h124q0 60 11.5 113.5t46.5 93.5t98 63.5t167 23.5q159 0 234 -63.5t75 -180.5q0 -71 -38 -127t-110 -114v-2q60 -22 109.5 -51t85 -66t54.5 -83t19 -103z" />
    <glyph glyph-name="agrave" unicode="&#xe0;" horiz-adv-x="1096" 
d="M675 402q-42 0 -95 -3t-100 -18t-79.5 -47t-32.5 -90q0 -54 29 -85.5t85 -31.5q54 0 101 19.5t92 50.5v205zM829 -14q-44 11 -79.5 33t-50.5 65h-4q-60 -48 -129.5 -75t-147.5 -27q-58 0 -105.5 16.5t-81.5 48.5t-52.5 78t-18.5 105q0 67 24 115t64 81t93 53t110 30.5
t115 13.5t109 3v37q0 62 -31 86t-98 24q-80 0 -155 -22t-143 -62l-68 147q95 48 187 72.5t198 24.5q87 0 148 -17.5t100 -56t57 -99t18 -146.5v-293q0 -21 4 -36t12.5 -27t21.5 -22t30 -21zM550 908l-260 177l179 100l209 -208z" />
    <glyph glyph-name="aacute" unicode="&#xe1;" horiz-adv-x="1096" 
d="M675 402q-42 0 -95 -3t-100 -18t-79.5 -47t-32.5 -90q0 -54 29 -85.5t85 -31.5q54 0 101 19.5t92 50.5v205zM829 -14q-44 11 -79.5 33t-50.5 65h-4q-60 -48 -129.5 -75t-147.5 -27q-58 0 -105.5 16.5t-81.5 48.5t-52.5 78t-18.5 105q0 67 24 115t64 81t93 53t110 30.5
t115 13.5t109 3v37q0 62 -31 86t-98 24q-80 0 -155 -22t-143 -62l-68 147q95 48 187 72.5t198 24.5q87 0 148 -17.5t100 -56t57 -99t18 -146.5v-293q0 -21 4 -36t12.5 -27t21.5 -22t30 -21zM557 908l-128 69l208 207l178 -99z" />
    <glyph glyph-name="acircumflex" unicode="&#xe2;" horiz-adv-x="1096" 
d="M675 402q-42 0 -95 -3t-100 -18t-79.5 -47t-32.5 -90q0 -54 29 -85.5t85 -31.5q54 0 101 19.5t92 50.5v205zM829 -14q-44 11 -79.5 33t-50.5 65h-4q-60 -48 -129.5 -75t-147.5 -27q-58 0 -105.5 16.5t-81.5 48.5t-52.5 78t-18.5 105q0 67 24 115t64 81t93 53t110 30.5
t115 13.5t109 3v37q0 62 -31 86t-98 24q-80 0 -155 -22t-143 -62l-68 147q95 48 187 72.5t198 24.5q87 0 148 -17.5t100 -56t57 -99t18 -146.5v-293q0 -21 4 -36t12.5 -27t21.5 -22t30 -21zM749 907l-203 94l-205 -95l-58 115l260 132l263 -132z" />
    <glyph glyph-name="atilde" unicode="&#xe3;" horiz-adv-x="1096" 
d="M675 402q-42 0 -95 -3t-100 -18t-79.5 -47t-32.5 -90q0 -54 29 -85.5t85 -31.5q54 0 101 19.5t92 50.5v205zM829 -14q-44 11 -79.5 33t-50.5 65h-4q-60 -48 -129.5 -75t-147.5 -27q-58 0 -105.5 16.5t-81.5 48.5t-52.5 78t-18.5 105q0 67 24 115t64 81t93 53t110 30.5
t115 13.5t109 3v37q0 62 -31 86t-98 24q-80 0 -155 -22t-143 -62l-68 147q95 48 187 72.5t198 24.5q87 0 148 -17.5t100 -56t57 -99t18 -146.5v-293q0 -21 4 -36t12.5 -27t21.5 -22t30 -21zM845 1070q-23 -73 -69.5 -110.5t-105.5 -37.5q-38 0 -71 11.5t-63 25t-57 25
t-51 11.5q-29 0 -48.5 -14.5t-36.5 -59.5l-108 61q17 41 34.5 69t38 45.5t44.5 25t55 7.5q34 0 66 -11.5t62.5 -25.5t59 -25.5t55.5 -11.5q26 0 46 16.5t37 56.5z" />
    <glyph glyph-name="adieresis" unicode="&#xe4;" horiz-adv-x="1096" 
d="M675 402q-42 0 -95 -3t-100 -18t-79.5 -47t-32.5 -90q0 -54 29 -85.5t85 -31.5q54 0 101 19.5t92 50.5v205zM829 -14q-44 11 -79.5 33t-50.5 65h-4q-60 -48 -129.5 -75t-147.5 -27q-58 0 -105.5 16.5t-81.5 48.5t-52.5 78t-18.5 105q0 67 24 115t64 81t93 53t110 30.5
t115 13.5t109 3v37q0 62 -31 86t-98 24q-80 0 -155 -22t-143 -62l-68 147q95 48 187 72.5t198 24.5q87 0 148 -17.5t100 -56t57 -99t18 -146.5v-293q0 -21 4 -36t12.5 -27t21.5 -22t30 -21zM460 1021q0 -22 -8.5 -41.5t-23 -34.5t-34 -23.5t-41.5 -8.5q-23 0 -43 8.5
t-34.5 23.5t-23 34.5t-8.5 41.5t8.5 42t23 34t34.5 22.5t43 8.5q22 0 41.5 -8.5t34 -22.5t23 -34t8.5 -42zM823 1021q0 -22 -8.5 -41.5t-22.5 -34.5t-34 -23.5t-42 -8.5t-41.5 8.5t-34.5 23.5t-24 34.5t-9 41.5t9 42t24 34t34.5 22.5t41.5 8.5t42 -8.5t34 -22.5t22.5 -34
t8.5 -42z" />
    <glyph glyph-name="aring" unicode="&#xe5;" horiz-adv-x="1096" 
d="M675 402q-42 0 -95 -3t-100 -18t-79.5 -47t-32.5 -90q0 -54 29 -85.5t85 -31.5q54 0 101 19.5t92 50.5v205zM829 -14q-44 11 -79.5 33t-50.5 65h-4q-60 -48 -129.5 -75t-147.5 -27q-58 0 -105.5 16.5t-81.5 48.5t-52.5 78t-18.5 105q0 67 24 115t64 81t93 53t110 30.5
t115 13.5t109 3v37q0 62 -31 86t-98 24q-80 0 -155 -22t-143 -62l-68 147q95 48 187 72.5t198 24.5q87 0 148 -17.5t100 -56t57 -99t18 -146.5v-293q0 -21 4 -36t12.5 -27t21.5 -22t30 -21zM615 1045q0 30 -19.5 50t-48.5 20q-30 0 -50 -20t-20 -50q0 -32 20 -52.5t50 -20.5
q29 0 48.5 20.5t19.5 52.5zM695 1045q0 -33 -11 -60.5t-31 -47.5t-47.5 -31t-60.5 -11q-32 0 -59.5 11.5t-47.5 31.5t-31.5 47.5t-11.5 59.5q0 33 11 60.5t31 47.5t47.5 31t60.5 11t60.5 -11t47.5 -31t31 -47.5t11 -60.5z" />
    <glyph glyph-name="ae" unicode="&#xe6;" horiz-adv-x="1635" 
d="M1263 474q0 43 -10 79.5t-31.5 63t-55 41.5t-80.5 15q-43 0 -78.5 -13.5t-61 -39t-39.5 -62.5t-14 -84h370v0zM711 221q-15 41 -23 85.5t-8 95.5q-47 0 -101.5 -3.5t-101.5 -19t-78 -47t-31 -88.5q0 -54 29 -85.5t85 -31.5q50 0 104.5 21.5t124.5 72.5zM1465 405v-31
q0 -14 -3 -37h-571q2 -94 55 -143t162 -49q67 0 122.5 17.5t119.5 55.5l70 -149q-79 -47 -156.5 -67t-165.5 -20q-110 0 -191 35t-135 99q-70 -66 -154 -100t-200 -34q-58 0 -105.5 16.5t-81.5 48.5t-52.5 78t-18.5 105q0 67 25 115t66.5 81t96 53t113 30.5t117.5 13.5
t110 3v37q0 62 -37.5 86t-104.5 24q-80 0 -155 -22t-143 -62l-68 147q95 48 187 72.5t198 24.5q92 0 155 -19.5t102 -63.5q54 43 121.5 63t141.5 20q93 0 164 -30t119 -86t72.5 -135t24.5 -177z" />
    <glyph glyph-name="ccedilla" unicode="&#xe7;" horiz-adv-x="1039" 
d="M721 -198q0 -29 -9.5 -55t-29 -45t-50 -30t-71.5 -11q-45 0 -80 11.5t-64 27.5l30 69q30 -12 57 -19t51 -7t41.5 13t17.5 45q0 20 -11.5 34.5t-43.5 14.5q-12 0 -25.5 -2t-27.5 -7l-49 26l55 120q-82 10 -146 43t-107.5 86t-66 125.5t-22.5 160.5q0 99 28 178.5t82 136
t132.5 86.5t178.5 30q81 0 161.5 -29.5t146.5 -85.5l-94 -142q-46 46 -94 68t-114 22q-59 0 -99 -20.5t-64.5 -55.5t-35.5 -82t-11 -99q0 -54 11 -101.5t36 -82.5t65 -55t98 -20q64 0 120 18t112 63l67 -144q-69 -51 -139 -76.5t-155 -27.5l-31 -67l2 -1q8 1 18 2.5t18 1.5
q58 0 85 -32t27 -85z" />
    <glyph glyph-name="egrave" unicode="&#xe8;" horiz-adv-x="1129" 
d="M757 474q0 43 -10 79.5t-31.5 63t-55 41.5t-80.5 15q-43 0 -78.5 -13.5t-61 -39t-39.5 -62.5t-14 -84h370v0zM959 405v-31q0 -14 -3 -37h-571q2 -94 55 -143t162 -49q67 0 122.5 17.5t119.5 55.5l70 -149q-79 -47 -156.5 -67t-165.5 -20q-102 0 -180.5 30.5t-132 86.5
t-81.5 134t-28 173q0 114 33.5 194.5t90 132.5t130.5 76t155 24q93 0 164 -30t119 -86t72.5 -135t24.5 -177zM581 908l-260 177l179 100l209 -208z" />
    <glyph glyph-name="eacute" unicode="&#xe9;" horiz-adv-x="1129" 
d="M757 474q0 43 -10 79.5t-31.5 63t-55 41.5t-80.5 15q-43 0 -78.5 -13.5t-61 -39t-39.5 -62.5t-14 -84h370v0zM959 405v-31q0 -14 -3 -37h-571q2 -94 55 -143t162 -49q67 0 122.5 17.5t119.5 55.5l70 -149q-79 -47 -156.5 -67t-165.5 -20q-102 0 -180.5 30.5t-132 86.5
t-81.5 134t-28 173q0 114 33.5 194.5t90 132.5t130.5 76t155 24q93 0 164 -30t119 -86t72.5 -135t24.5 -177zM606 908l-128 69l208 207l178 -99z" />
    <glyph glyph-name="ecircumflex" unicode="&#xea;" horiz-adv-x="1129" 
d="M757 474q0 43 -10 79.5t-31.5 63t-55 41.5t-80.5 15q-43 0 -78.5 -13.5t-61 -39t-39.5 -62.5t-14 -84h370v0zM959 405v-31q0 -14 -3 -37h-571q2 -94 55 -143t162 -49q67 0 122.5 17.5t119.5 55.5l70 -149q-79 -47 -156.5 -67t-165.5 -20q-102 0 -180.5 30.5t-132 86.5
t-81.5 134t-28 173q0 114 33.5 194.5t90 132.5t130.5 76t155 24q93 0 164 -30t119 -86t72.5 -135t24.5 -177zM788 907l-203 94l-205 -95l-58 115l260 132l263 -132z" />
    <glyph glyph-name="edieresis" unicode="&#xeb;" horiz-adv-x="1129" 
d="M757 474q0 43 -10 79.5t-31.5 63t-55 41.5t-80.5 15q-43 0 -78.5 -13.5t-61 -39t-39.5 -62.5t-14 -84h370v0zM959 405v-31q0 -14 -3 -37h-571q2 -94 55 -143t162 -49q67 0 122.5 17.5t119.5 55.5l70 -149q-79 -47 -156.5 -67t-165.5 -20q-102 0 -180.5 30.5t-132 86.5
t-81.5 134t-28 173q0 114 33.5 194.5t90 132.5t130.5 76t155 24q93 0 164 -30t119 -86t72.5 -135t24.5 -177zM509 1021q0 -22 -8.5 -41.5t-23 -34.5t-34 -23.5t-41.5 -8.5q-23 0 -43 8.5t-34.5 23.5t-23 34.5t-8.5 41.5t8.5 42t23 34t34.5 22.5t43 8.5q22 0 41.5 -8.5
t34 -22.5t23 -34t8.5 -42zM872 1021q0 -22 -8.5 -41.5t-22.5 -34.5t-34 -23.5t-42 -8.5t-41.5 8.5t-34.5 23.5t-24 34.5t-9 41.5t9 42t24 34t34.5 22.5t41.5 8.5t42 -8.5t34 -22.5t22.5 -34t8.5 -42z" />
    <glyph glyph-name="igrave" unicode="&#xec;" horiz-adv-x="633" 
d="M210 0v817h213v-817h-213zM307 908l-260 177l179 100l209 -208z" />
    <glyph glyph-name="iacute" unicode="&#xed;" horiz-adv-x="633" 
d="M210 0v817h213v-817h-213zM335 908l-128 69l208 207l178 -99z" />
    <glyph glyph-name="icircumflex" unicode="&#xee;" horiz-adv-x="633" 
d="M210 0v817h213v-817h-213zM522 907l-203 94l-205 -95l-58 115l260 132l263 -132z" />
    <glyph glyph-name="idieresis" unicode="&#xef;" horiz-adv-x="633" 
d="M210 0v817h213v-817h-213zM244 1021q0 -22 -8.5 -41.5t-23 -34.5t-34 -23.5t-41.5 -8.5q-23 0 -43 8.5t-34.5 23.5t-23 34.5t-8.5 41.5t8.5 42t23 34t34.5 22.5t43 8.5q22 0 41.5 -8.5t34 -22.5t23 -34t8.5 -42zM607 1021q0 -22 -8.5 -41.5t-22.5 -34.5t-34 -23.5
t-42 -8.5t-41.5 8.5t-34.5 23.5t-24 34.5t-9 41.5t9 42t24 34t34.5 22.5t41.5 8.5t42 -8.5t34 -22.5t22.5 -34t8.5 -42z" />
    <glyph glyph-name="eth" unicode="&#xf0;" horiz-adv-x="1164" 
d="M777 408q0 60 -9.5 107.5t-32 80t-60 49.5t-93.5 17t-93.5 -17t-60 -49.5t-32 -80t-9.5 -107.5q0 -62 9.5 -110.5t32.5 -82t61 -51t94 -17.5q55 0 92.5 17.5t59.5 50.5t31.5 81.5t9.5 111.5zM810 1005q39 -69 73 -139.5t58.5 -144.5t38.5 -152t14 -161q0 -94 -25 -172
t-76 -134.5t-128.5 -88t-182.5 -31.5t-182.5 31.5t-128.5 87.5t-76 134.5t-25 172.5q0 89 26 166.5t75 134.5t118.5 90t155.5 33q36 0 67.5 -9t56.5 -22.5t44.5 -29.5t31.5 -31q-13 35 -36 84t-49 102l-79 -41l-45 98l75 40q-13 25 -24.5 47t-20.5 40l139 66
q12 -20 24.5 -38.5t24.5 -38.5l109 58l49 -98z" />
    <glyph glyph-name="ntilde" unicode="&#xf1;" horiz-adv-x="1163" 
d="M740 0v457q0 44 -4.5 80t-19.5 62t-44 40t-78 14q-85 0 -128 -38.5t-43 -124.5v-490h-213v817h184l17 -95h3q45 64 105.5 87.5t137.5 23.5q83 0 140 -23.5t91.5 -67t49.5 -106t15 -141.5v-495h-213zM890 1070q-23 -73 -69.5 -110.5t-105.5 -37.5q-38 0 -71 11.5t-63 25
t-57 25t-51 11.5q-29 0 -48.5 -14.5t-36.5 -59.5l-108 61q17 41 34.5 69t38 45.5t44.5 25t55 7.5q34 0 66 -11.5t62.5 -25.5t59 -25.5t55.5 -11.5q26 0 46 16.5t37 56.5z" />
    <glyph glyph-name="ograve" unicode="&#xf2;" horiz-adv-x="1164" 
d="M777 408q0 60 -9.5 107.5t-32 80t-60 49.5t-93.5 17t-93.5 -17t-60 -49.5t-32 -80t-9.5 -107.5q0 -62 9.5 -110.5t32.5 -82t61 -51t94 -17.5q55 0 92.5 17.5t59.5 50.5t31.5 81.5t9.5 111.5zM994 408q0 -94 -25 -172t-76 -134.5t-128.5 -88t-182.5 -31.5t-182.5 31.5
t-128.5 87.5t-76 134.5t-25 172.5q0 89 23.5 166.5t73 135t127.5 90.5t188 33q103 0 180 -29.5t128.5 -85t77.5 -134t26 -176.5zM569 908l-260 177l179 100l209 -208z" />
    <glyph glyph-name="oacute" unicode="&#xf3;" horiz-adv-x="1164" 
d="M777 408q0 60 -9.5 107.5t-32 80t-60 49.5t-93.5 17t-93.5 -17t-60 -49.5t-32 -80t-9.5 -107.5q0 -62 9.5 -110.5t32.5 -82t61 -51t94 -17.5q55 0 92.5 17.5t59.5 50.5t31.5 81.5t9.5 111.5zM994 408q0 -94 -25 -172t-76 -134.5t-128.5 -88t-182.5 -31.5t-182.5 31.5
t-128.5 87.5t-76 134.5t-25 172.5q0 89 23.5 166.5t73 135t127.5 90.5t188 33q103 0 180 -29.5t128.5 -85t77.5 -134t26 -176.5zM588 908l-128 69l208 207l178 -99z" />
    <glyph glyph-name="ocircumflex" unicode="&#xf4;" horiz-adv-x="1164" 
d="M777 408q0 60 -9.5 107.5t-32 80t-60 49.5t-93.5 17t-93.5 -17t-60 -49.5t-32 -80t-9.5 -107.5q0 -62 9.5 -110.5t32.5 -82t61 -51t94 -17.5q55 0 92.5 17.5t59.5 50.5t31.5 81.5t9.5 111.5zM994 408q0 -94 -25 -172t-76 -134.5t-128.5 -88t-182.5 -31.5t-182.5 31.5
t-128.5 87.5t-76 134.5t-25 172.5q0 89 23.5 166.5t73 135t127.5 90.5t188 33q103 0 180 -29.5t128.5 -85t77.5 -134t26 -176.5zM791 907l-203 94l-205 -95l-58 115l260 132l263 -132z" />
    <glyph glyph-name="otilde" unicode="&#xf5;" horiz-adv-x="1164" 
d="M777 408q0 60 -9.5 107.5t-32 80t-60 49.5t-93.5 17t-93.5 -17t-60 -49.5t-32 -80t-9.5 -107.5q0 -62 9.5 -110.5t32.5 -82t61 -51t94 -17.5q55 0 92.5 17.5t59.5 50.5t31.5 81.5t9.5 111.5zM994 408q0 -94 -25 -172t-76 -134.5t-128.5 -88t-182.5 -31.5t-182.5 31.5
t-128.5 87.5t-76 134.5t-25 172.5q0 89 23.5 166.5t73 135t127.5 90.5t188 33q103 0 180 -29.5t128.5 -85t77.5 -134t26 -176.5zM880 1070q-23 -73 -69.5 -110.5t-105.5 -37.5q-38 0 -71 11.5t-63 25t-57 25t-51 11.5q-29 0 -48.5 -14.5t-36.5 -59.5l-108 61q17 41 34.5 69
t38 45.5t44.5 25t55 7.5q34 0 66 -11.5t62.5 -25.5t59 -25.5t55.5 -11.5q26 0 46 16.5t37 56.5z" />
    <glyph glyph-name="odieresis" unicode="&#xf6;" horiz-adv-x="1164" 
d="M777 408q0 60 -9.5 107.5t-32 80t-60 49.5t-93.5 17t-93.5 -17t-60 -49.5t-32 -80t-9.5 -107.5q0 -62 9.5 -110.5t32.5 -82t61 -51t94 -17.5q55 0 92.5 17.5t59.5 50.5t31.5 81.5t9.5 111.5zM994 408q0 -94 -25 -172t-76 -134.5t-128.5 -88t-182.5 -31.5t-182.5 31.5
t-128.5 87.5t-76 134.5t-25 172.5q0 89 23.5 166.5t73 135t127.5 90.5t188 33q103 0 180 -29.5t128.5 -85t77.5 -134t26 -176.5zM505 1021q0 -22 -8.5 -41.5t-23 -34.5t-34 -23.5t-41.5 -8.5q-23 0 -43 8.5t-34.5 23.5t-23 34.5t-8.5 41.5t8.5 42t23 34t34.5 22.5t43 8.5
q22 0 41.5 -8.5t34 -22.5t23 -34t8.5 -42zM868 1021q0 -22 -8.5 -41.5t-22.5 -34.5t-34 -23.5t-42 -8.5t-41.5 8.5t-34.5 23.5t-24 34.5t-9 41.5t9 42t24 34t34.5 22.5t41.5 8.5t42 -8.5t34 -22.5t22.5 -34t8.5 -42z" />
    <glyph glyph-name="oslash" unicode="&#xf8;" horiz-adv-x="1164" 
d="M777 408q0 16 -1 34t-2.5 36t-5 34.5t-7.5 28.5l-313 -347q23 -24 58 -35.5t77 -11.5q57 0 94 17.5t59.5 51t31.5 82t9 110.5zM693 636q-21 14 -51 20t-60 6q-56 0 -93.5 -17t-60 -49.5t-32 -80t-9.5 -107.5q0 -10 0.5 -24t1.5 -29t3 -29t6 -25l295 335v0zM914 691
q42 -54 61 -128t19 -155q0 -94 -25 -172t-76 -134.5t-128.5 -88t-182.5 -31.5q-76 0 -140 17.5t-114 53.5l-83 -92l-95 99l83 92q-34 56 -48.5 120t-14.5 136q0 89 23 167t73 135.5t128 91t188 33.5q64 0 121.5 -13t102.5 -42l94 99l103 -93z" />
    <glyph glyph-name="ugrave" unicode="&#xf9;" horiz-adv-x="1147" 
d="M750 0l-15 90h-4q-35 -51 -90 -80.5t-141 -29.5q-68 0 -121.5 15t-91 52.5t-57.5 100.5t-20 159v510h213v-435q0 -51 3 -92t17 -70.5t42.5 -45.5t79.5 -16q49 0 80 12t48.5 34.5t24 54.5t6.5 73v485h213v-817h-187zM573 908l-260 177l179 100l209 -208z" />
    <glyph glyph-name="uacute" unicode="&#xfa;" horiz-adv-x="1147" 
d="M750 0l-15 90h-4q-35 -51 -90 -80.5t-141 -29.5q-68 0 -121.5 15t-91 52.5t-57.5 100.5t-20 159v510h213v-435q0 -51 3 -92t17 -70.5t42.5 -45.5t79.5 -16q49 0 80 12t48.5 34.5t24 54.5t6.5 73v485h213v-817h-187zM580 908l-128 69l208 207l178 -99z" />
    <glyph glyph-name="ucircumflex" unicode="&#xfb;" horiz-adv-x="1147" 
d="M750 0l-15 90h-4q-35 -51 -90 -80.5t-141 -29.5q-68 0 -121.5 15t-91 52.5t-57.5 100.5t-20 159v510h213v-435q0 -51 3 -92t17 -70.5t42.5 -45.5t79.5 -16q49 0 80 12t48.5 34.5t24 54.5t6.5 73v485h213v-817h-187zM783 907l-203 94l-205 -95l-58 115l260 132l263 -132z
" />
    <glyph glyph-name="udieresis" unicode="&#xfc;" horiz-adv-x="1147" 
d="M750 0l-15 90h-4q-35 -51 -90 -80.5t-141 -29.5q-68 0 -121.5 15t-91 52.5t-57.5 100.5t-20 159v510h213v-435q0 -51 3 -92t17 -70.5t42.5 -45.5t79.5 -16q49 0 80 12t48.5 34.5t24 54.5t6.5 73v485h213v-817h-187zM491 1021q0 -22 -8.5 -41.5t-23 -34.5t-34 -23.5
t-41.5 -8.5q-23 0 -43 8.5t-34.5 23.5t-23 34.5t-8.5 41.5t8.5 42t23 34t34.5 22.5t43 8.5q22 0 41.5 -8.5t34 -22.5t23 -34t8.5 -42zM854 1021q0 -22 -8.5 -41.5t-22.5 -34.5t-34 -23.5t-42 -8.5t-41.5 8.5t-34.5 23.5t-24 34.5t-9 41.5t9 42t24 34t34.5 22.5t41.5 8.5
t42 -8.5t34 -22.5t22.5 -34t8.5 -42z" />
    <glyph glyph-name="yacute" unicode="&#xfd;" horiz-adv-x="1049" 
d="M630 4q-39 -98 -71 -161t-69 -99t-85 -49.5t-120 -13.5q-23 0 -52.5 2t-64.5 6v180q12 -2 34.5 -4t54.5 -2q33 0 55 5t37.5 17t27 33t22.5 53l18 47l-317 799h231l195 -576h3l190 576h230zM546 908l-128 69l208 207l178 -99z" />
    <glyph glyph-name="thorn" unicode="&#xfe;" horiz-adv-x="1153" 
d="M766 412q0 50 -5.5 96t-23.5 81.5t-53.5 56.5t-95.5 21q-76 0 -122 -35.5t-46 -114.5v-183q0 -44 8.5 -79.5t27.5 -61t50.5 -39t78.5 -13.5q60 0 95.5 24.5t54.5 63.5t25 87t6 96zM983 415q0 -86 -18.5 -164.5t-60.5 -138t-109 -95t-164 -35.5q-36 0 -65 5t-53 16.5
t-45 31t-41 48.5h-4v-391h-213v1393h213v-359h3q22 31 44.5 51.5t47.5 33t54.5 17.5t66.5 5q94 0 159.5 -33.5t106.5 -91t59.5 -133.5t18.5 -160z" />
    <glyph glyph-name="ydieresis" unicode="&#xff;" horiz-adv-x="1049" 
d="M630 4q-39 -98 -71 -161t-69 -99t-85 -49.5t-120 -13.5q-23 0 -52.5 2t-64.5 6v180q12 -2 34.5 -4t54.5 -2q33 0 55 5t37.5 17t27 33t22.5 53l18 47l-317 799h231l195 -576h3l190 576h230zM452 1021q0 -22 -8.5 -41.5t-23 -34.5t-34 -23.5t-41.5 -8.5q-23 0 -43 8.5
t-34.5 23.5t-23 34.5t-8.5 41.5t8.5 42t23 34t34.5 22.5t43 8.5q22 0 41.5 -8.5t34 -22.5t23 -34t8.5 -42zM815 1021q0 -22 -8.5 -41.5t-22.5 -34.5t-34 -23.5t-42 -8.5t-41.5 8.5t-34.5 23.5t-24 34.5t-9 41.5t9 42t24 34t34.5 22.5t41.5 8.5t42 -8.5t34 -22.5t22.5 -34
t8.5 -42z" />
    <glyph glyph-name="Amacron" unicode="&#x100;" horiz-adv-x="1195" 
d="M595 789h-5l-141 -401h288zM870 0l-79 208h-393l-80 -208h-228l385 1004h237l393 -1004h-235zM350 1120v145h487v-145h-487z" />
    <glyph glyph-name="amacron" unicode="&#x101;" horiz-adv-x="1096" 
d="M675 402q-42 0 -95 -3t-100 -18t-79.5 -47t-32.5 -90q0 -54 29 -85.5t85 -31.5q54 0 101 19.5t92 50.5v205zM829 -14q-44 11 -79.5 33t-50.5 65h-4q-60 -48 -129.5 -75t-147.5 -27q-58 0 -105.5 16.5t-81.5 48.5t-52.5 78t-18.5 105q0 67 24 115t64 81t93 53t110 30.5
t115 13.5t109 3v37q0 62 -31 86t-98 24q-80 0 -155 -22t-143 -62l-68 147q95 48 187 72.5t198 24.5q87 0 148 -17.5t100 -56t57 -99t18 -146.5v-293q0 -21 4 -36t12.5 -27t21.5 -22t30 -21zM293 940v145h487v-145h-487z" />
    <glyph glyph-name="Abreve" unicode="&#x102;" horiz-adv-x="1195" 
d="M595 789h-5l-141 -401h288zM870 0l-79 208h-393l-80 -208h-228l385 1004h237l393 -1004h-235zM857 1308q-5 -70 -34.5 -112t-70 -64t-85 -29t-77.5 -7q-37 0 -80.5 6.5t-81.5 28.5t-65.5 64t-32.5 113h139q3 -15 9.5 -30t21 -27t37 -19t56.5 -7q32 0 54.5 7t37 18.5
t22 26.5t10.5 31h140v0z" />
    <glyph glyph-name="abreve" unicode="&#x103;" horiz-adv-x="1096" 
d="M675 402q-42 0 -95 -3t-100 -18t-79.5 -47t-32.5 -90q0 -54 29 -85.5t85 -31.5q54 0 101 19.5t92 50.5v205zM829 -14q-44 11 -79.5 33t-50.5 65h-4q-60 -48 -129.5 -75t-147.5 -27q-58 0 -105.5 16.5t-81.5 48.5t-52.5 78t-18.5 105q0 67 24 115t64 81t93 53t110 30.5
t115 13.5t109 3v37q0 62 -31 86t-98 24q-80 0 -155 -22t-143 -62l-68 147q95 48 187 72.5t198 24.5q87 0 148 -17.5t100 -56t57 -99t18 -146.5v-293q0 -21 4 -36t12.5 -27t21.5 -22t30 -21zM808 1128q-5 -70 -34.5 -112t-70 -64t-85 -29t-77.5 -7q-37 0 -80.5 6.5
t-81.5 28.5t-65.5 64t-32.5 113h139q3 -15 9.5 -30t21 -27t37 -19t56.5 -7q32 0 54.5 7t37 18.5t22 26.5t10.5 31h140v0z" />
    <glyph glyph-name="Aogonek" unicode="&#x104;" horiz-adv-x="1195" 
d="M595 789h-5l-141 -401h288zM1105 -291q-26 -15 -68.5 -31t-105.5 -16q-43 0 -74.5 13t-51.5 34.5t-30 50.5t-10 62q0 34 11 63.5t27 52t34.5 38.5t32.5 24l-79 208h-393l-80 -208h-228l385 1004h237l393 -1004h-95q-48 -32 -75 -67.5t-27 -83.5q0 -33 17 -52.5t47 -19.5
q26 0 45.5 8t39.5 20z" />
    <glyph glyph-name="aogonek" unicode="&#x105;" horiz-adv-x="1096" 
d="M675 402q-42 0 -95 -3t-100 -18t-79.5 -47t-32.5 -90q0 -54 29 -85.5t85 -31.5q54 0 101 19.5t92 50.5v205zM942 -291q-26 -15 -68.5 -31t-105.5 -16q-43 0 -74.5 13t-51.5 34.5t-30 50.5t-10 62q0 34 11.5 63.5t31 54.5t45 45.5t53.5 37.5q-31 23 -44 61h-4
q-60 -48 -129.5 -75t-147.5 -27q-58 0 -105.5 16.5t-81.5 48.5t-52.5 78t-18.5 105q0 67 24 115t64 81t93 53t110 30.5t115 13.5t109 3v37q0 62 -31 86t-98 24q-80 0 -155 -22t-143 -62l-68 147q95 48 187 72.5t198 24.5q87 0 148 -17.5t100 -56t57 -99t18 -146.5v-293
q0 -21 4 -36t12.5 -27t21.5 -22t30 -21q-63 -63 -104 -104.5t-64.5 -70.5t-33 -49.5t-9.5 -41.5q0 -33 17 -52.5t47 -19.5q26 0 45.5 8t39.5 20z" />
    <glyph glyph-name="Cacute" unicode="&#x106;" horiz-adv-x="1177" 
d="M1047 144q-87 -83 -180 -122t-202 -39q-128 0 -221.5 38t-154.5 106.5t-90 165t-29 213.5q0 115 32.5 209.5t95 161t153 103t207.5 36.5q113 0 205.5 -39.5t178.5 -126.5l-133 -144q-57 65 -114 95.5t-127 30.5q-131 0 -199 -79t-68 -248q0 -79 15.5 -141.5t47.5 -106
t82.5 -67t120.5 -23.5q73 0 136 30.5t126 93.5l118 -147v0zM663 1088l-128 69l208 207l178 -99z" />
    <glyph glyph-name="cacute" unicode="&#x107;" horiz-adv-x="1039" 
d="M805 576q-46 46 -94 68t-114 22q-59 0 -99 -20.5t-64.5 -55.5t-35.5 -82t-11 -99q0 -54 11 -101.5t36 -82.5t65 -55t98 -20q64 0 120 18t112 63l67 -144q-73 -53 -146.5 -79t-165.5 -26q-99 0 -176 29t-130 83.5t-80.5 132.5t-27.5 175q0 99 28 178.5t82 136t132.5 86.5
t178.5 30q81 0 161.5 -29.5t146.5 -85.5zM596 908l-128 69l208 207l178 -99z" />
    <glyph glyph-name="Ccaron" unicode="&#x10c;" horiz-adv-x="1177" 
d="M1047 144q-87 -83 -180 -122t-202 -39q-128 0 -221.5 38t-154.5 106.5t-90 165t-29 213.5q0 115 32.5 209.5t95 161t153 103t207.5 36.5q113 0 205.5 -39.5t178.5 -126.5l-133 -144q-57 65 -114 95.5t-127 30.5q-131 0 -199 -79t-68 -248q0 -79 15.5 -141.5t47.5 -106
t82.5 -67t120.5 -23.5q73 0 136 30.5t126 93.5l118 -147v0zM455 1331l203 -94l205 95l58 -115l-260 -132l-263 132z" />
    <glyph glyph-name="ccaron" unicode="&#x10d;" horiz-adv-x="1039" 
d="M805 576q-46 46 -94 68t-114 22q-59 0 -99 -20.5t-64.5 -55.5t-35.5 -82t-11 -99q0 -54 11 -101.5t36 -82.5t65 -55t98 -20q64 0 120 18t112 63l67 -144q-73 -53 -146.5 -79t-165.5 -26q-99 0 -176 29t-130 83.5t-80.5 132.5t-27.5 175q0 99 28 178.5t82 136t132.5 86.5
t178.5 30q81 0 161.5 -29.5t146.5 -85.5zM377 1151l203 -94l205 95l58 -115l-260 -132l-263 132z" />
    <glyph glyph-name="Dcaron" unicode="&#x10e;" horiz-adv-x="1246" 
d="M845 509q0 59 -9.5 118t-39 106t-84 76.5t-144.5 29.5q-32 0 -68.5 -1.5t-69.5 -4.5v-656q18 -1 31 -1.5t24.5 -1t22.5 -0.5h26q71 0 128.5 13t98 50t62.5 102.5t22 169.5zM1076 505q0 -131 -36 -226t-103 -157t-162.5 -92t-214.5 -30h-350v993q37 3 81 6t89.5 5.5
t91.5 4t88 1.5q114 0 209 -28t163 -89t106 -156.5t38 -231.5zM371 1331l203 -94l205 95l58 -115l-260 -132l-263 132z" />
    <glyph glyph-name="dcaron" unicode="&#x10f;" horiz-adv-x="1154" 
d="M734 514q0 82 -45 117t-122 35q-61 0 -96.5 -21t-54 -56.5t-24 -81.5t-5.5 -95q0 -48 6 -96t25 -87t55 -63.5t95 -24.5q48 0 79.5 14t51 39.5t27.5 61t8 78.5v180zM766 0l-15 99h-7q-39 -60 -99 -88.5t-131 -28.5q-94 0 -159.5 36.5t-106.5 97.5t-59.5 138.5t-18.5 160.5
q0 82 19 158t60 133.5t106.5 92t158.5 34.5q63 0 119.5 -21.5t94.5 -75.5h3v349h213v-1085h-178zM1243 817h-134l68 268h212z" />
    <glyph glyph-name="Dcroat" unicode="&#x110;" horiz-adv-x="1246" 
d="M430 418v-241q18 -1 31 -1.5t24.5 -1t22.5 -0.5h26q71 0 128.5 13t98 50t62.5 102.5t22 169.5q0 59 -9.5 118t-39 106t-84 76.5t-144.5 29.5q-32 0 -68.5 -1.5t-69.5 -4.5v-228h181v-187h-181zM1076 505q0 -131 -36 -226t-103 -157t-162.5 -92t-214.5 -30h-350v418h-120
v187h120v388q37 3 81 6t89.5 5.5t91.5 4t88 1.5q114 0 209 -28t163 -89t106 -156.5t38 -231.5z" />
    <glyph glyph-name="dcroat" unicode="&#x111;" horiz-adv-x="1154" 
d="M734 514q0 82 -45 117t-122 35q-61 0 -96.5 -21t-54 -56.5t-24 -81.5t-5.5 -95q0 -48 6 -96t25 -87t55 -63.5t95 -24.5q48 0 79.5 14t51 39.5t27.5 61t8 78.5v180zM766 0l-15 99h-7q-39 -60 -99 -88.5t-131 -28.5q-94 0 -159.5 36.5t-106.5 97.5t-59.5 138.5t-18.5 160.5
q0 82 19 158t60 133.5t106.5 92t158.5 34.5q63 0 119.5 -21.5t94.5 -75.5h3v142h-107v123h107v84h213v-84h119v-123h-119v-878h-178z" />
    <glyph glyph-name="Emacron" unicode="&#x112;" horiz-adv-x="1061" 
d="M210 0v1000h685v-184h-465v-211h422v-186h-422v-238h481v-181h-701zM313 1120v145h487v-145h-487z" />
    <glyph glyph-name="emacron" unicode="&#x113;" horiz-adv-x="1129" 
d="M757 474q0 43 -10 79.5t-31.5 63t-55 41.5t-80.5 15q-43 0 -78.5 -13.5t-61 -39t-39.5 -62.5t-14 -84h370v0zM959 405v-31q0 -14 -3 -37h-571q2 -94 55 -143t162 -49q67 0 122.5 17.5t119.5 55.5l70 -149q-79 -47 -156.5 -67t-165.5 -20q-102 0 -180.5 30.5t-132 86.5
t-81.5 134t-28 173q0 114 33.5 194.5t90 132.5t130.5 76t155 24q93 0 164 -30t119 -86t72.5 -135t24.5 -177zM336 940v145h487v-145h-487z" />
    <glyph glyph-name="Ebreve" unicode="&#x114;" horiz-adv-x="1061" 
d="M210 0v1000h685v-184h-465v-211h422v-186h-422v-238h481v-181h-701zM820 1308q-5 -70 -34.5 -112t-70 -64t-85 -29t-77.5 -7q-37 0 -80.5 6.5t-81.5 28.5t-65.5 64t-32.5 113h139q3 -15 9.5 -30t21 -27t37 -19t56.5 -7q32 0 54.5 7t37 18.5t22 26.5t10.5 31h140v0z" />
    <glyph glyph-name="ebreve" unicode="&#x115;" horiz-adv-x="1129" 
d="M757 474q0 43 -10 79.5t-31.5 63t-55 41.5t-80.5 15q-43 0 -78.5 -13.5t-61 -39t-39.5 -62.5t-14 -84h370v0zM959 405v-31q0 -14 -3 -37h-571q2 -94 55 -143t162 -49q67 0 122.5 17.5t119.5 55.5l70 -149q-79 -47 -156.5 -67t-165.5 -20q-102 0 -180.5 30.5t-132 86.5
t-81.5 134t-28 173q0 114 33.5 194.5t90 132.5t130.5 76t155 24q93 0 164 -30t119 -86t72.5 -135t24.5 -177zM845 1128q-5 -70 -34.5 -112t-70 -64t-85 -29t-77.5 -7q-37 0 -80.5 6.5t-81.5 28.5t-65.5 64t-32.5 113h139q3 -15 9.5 -30t21 -27t37 -19t56.5 -7q32 0 54.5 7
t37 18.5t22 26.5t10.5 31h140v0z" />
    <glyph glyph-name="Edotaccent" unicode="&#x116;" horiz-adv-x="1065" 
d="M210 0v1000h685v-184h-465v-211h422v-186h-422v-238h481v-181h-701zM692 1199q0 -52 -36 -81.5t-95 -29.5q-60 0 -96 29.5t-36 81.5q0 50 36 79.5t96 29.5t95.5 -29.5t35.5 -79.5z" />
    <glyph glyph-name="edotaccent" unicode="&#x117;" horiz-adv-x="1129" 
d="M757 474q0 43 -10 79.5t-31.5 63t-55 41.5t-80.5 15q-43 0 -78.5 -13.5t-61 -39t-39.5 -62.5t-14 -84h370v0zM959 405v-31q0 -14 -3 -37h-571q2 -94 55 -143t162 -49q67 0 122.5 17.5t119.5 55.5l70 -149q-79 -47 -156.5 -67t-165.5 -20q-102 0 -180.5 30.5t-132 86.5
t-81.5 134t-28 173q0 114 33.5 194.5t90 132.5t130.5 76t155 24q93 0 164 -30t119 -86t72.5 -135t24.5 -177zM716 1019q0 -52 -36 -81.5t-95 -29.5q-60 0 -96 29.5t-36 81.5q0 50 36 79.5t96 29.5t95.5 -29.5t35.5 -79.5z" />
    <glyph glyph-name="Eogonek" unicode="&#x118;" horiz-adv-x="1061" 
d="M894 -291q-26 -15 -68.5 -31t-105.5 -16q-43 0 -74.5 13t-51.5 34.5t-30 50.5t-10 62q0 34 11 63.5t27 52t34.5 38.5t32.5 24h-449v1000h685v-184h-465v-211h422v-186h-422v-238h481v-181h-112q-48 -32 -75 -67.5t-27 -83.5q0 -33 17 -52.5t47 -19.5q26 0 45.5 8t39.5 20
z" />
    <glyph glyph-name="eogonek" unicode="&#x119;" horiz-adv-x="1129" 
d="M757 474q0 43 -10 79.5t-31.5 63t-55 41.5t-80.5 15q-43 0 -78.5 -13.5t-61 -39t-39.5 -62.5t-14 -84h370v0zM845 -291q-26 -15 -68.5 -31t-105.5 -16q-43 0 -74.5 13t-51.5 34.5t-30 50.5t-10 62q0 28 7.5 52t18.5 44.5t25 36.5t28 27q-100 1 -177 32t-129.5 87
t-80 133.5t-27.5 171.5q0 114 33.5 194.5t90 132.5t130.5 76t155 24q93 0 164 -30t119 -86t72.5 -135t24.5 -177v-31q0 -14 -3 -37h-571q2 -94 55 -143t162 -49q67 0 122.5 17.5t119.5 55.5l70 -149q-42 -25 -82.5 -41.5t-82.5 -27.5h1q-48 -32 -75 -67.5t-27 -83.5
q0 -33 17 -52.5t47 -19.5q26 0 45.5 8t39.5 20z" />
    <glyph glyph-name="Ecaron" unicode="&#x11a;" horiz-adv-x="1061" 
d="M210 0v1000h685v-184h-465v-211h422v-186h-422v-238h481v-181h-701zM354 1331l203 -94l205 95l58 -115l-260 -132l-263 132z" />
    <glyph glyph-name="ecaron" unicode="&#x11b;" horiz-adv-x="1129" 
d="M757 474q0 43 -10 79.5t-31.5 63t-55 41.5t-80.5 15q-43 0 -78.5 -13.5t-61 -39t-39.5 -62.5t-14 -84h370v0zM959 405v-31q0 -14 -3 -37h-571q2 -94 55 -143t162 -49q67 0 122.5 17.5t119.5 55.5l70 -149q-79 -47 -156.5 -67t-165.5 -20q-102 0 -180.5 30.5t-132 86.5
t-81.5 134t-28 173q0 114 33.5 194.5t90 132.5t130.5 76t155 24q93 0 164 -30t119 -86t72.5 -135t24.5 -177zM375 1151l203 -94l205 95l58 -115l-260 -132l-263 132z" />
    <glyph glyph-name="Gbreve" unicode="&#x11e;" horiz-adv-x="1271" 
d="M1101 455q0 -113 -25 -200t-78 -147t-136 -91t-198 -31q-104 0 -194 30.5t-157 93.5t-105 159.5t-38 228.5q0 134 39.5 232t106.5 161.5t156.5 94t188.5 30.5q69 0 125 -14t101 -36.5t80.5 -50t64.5 -55.5l-131 -141q-56 58 -112.5 85.5t-118.5 27.5q-141 0 -205 -85.5
t-64 -247.5q0 -80 14.5 -144.5t46 -109.5t82.5 -69.5t124 -24.5q106 0 164.5 56.5t58.5 177.5h-233v177h443v-107v0zM921 1308q-5 -70 -34.5 -112t-70 -64t-85 -29t-77.5 -7q-37 0 -80.5 6.5t-81.5 28.5t-65.5 64t-32.5 113h139q3 -15 9.5 -30t21 -27t37 -19t56.5 -7
q32 0 54.5 7t37 18.5t22 26.5t10.5 31h140v0z" />
    <glyph glyph-name="gbreve" unicode="&#x11f;" horiz-adv-x="1157" 
d="M734 509q0 83 -44.5 120.5t-124.5 37.5q-57 0 -91.5 -19.5t-54 -52.5t-26 -76t-6.5 -91q0 -46 7 -89t26.5 -76t54.5 -52.5t90 -19.5q48 0 80 14.5t52 41t28.5 62.5t8.5 79v121zM947 26q0 -98 -21.5 -164t-67 -106t-116 -57.5t-167.5 -17.5t-182 22t-170 67l63 163
q71 -41 139 -62.5t149 -21.5q42 0 72 6.5t49.5 23t29 45t9.5 72.5v138h-3q-43 -58 -93.5 -81t-123.5 -23q-90 0 -155 30t-107 83t-62 125t-20 156q0 83 18.5 157.5t59.5 130.5t106.5 88.5t158.5 32.5q74 0 132.5 -24t99.5 -89h3l15 97h184v-791v0zM842 1128
q-5 -70 -34.5 -112t-70 -64t-85 -29t-77.5 -7q-37 0 -80.5 6.5t-81.5 28.5t-65.5 64t-32.5 113h139q3 -15 9.5 -30t21 -27t37 -19t56.5 -7q32 0 54.5 7t37 18.5t22 26.5t10.5 31h140v0z" />
    <glyph glyph-name="Gcommaaccent" unicode="&#x122;" horiz-adv-x="1271" 
d="M1101 455q0 -113 -25 -200t-78 -147t-136 -91t-198 -31q-104 0 -194 30.5t-157 93.5t-105 159.5t-38 228.5q0 134 39.5 232t106.5 161.5t156.5 94t188.5 30.5q69 0 125 -14t101 -36.5t80.5 -50t64.5 -55.5l-131 -141q-56 58 -112.5 85.5t-118.5 27.5q-141 0 -205 -85.5
t-64 -247.5q0 -80 14.5 -144.5t46 -109.5t82.5 -69.5t124 -24.5q106 0 164.5 56.5t58.5 177.5h-233v177h443v-107v0zM621 -382h-134l73 280h212z" />
    <glyph glyph-name="gcommaaccent" unicode="&#x123;" horiz-adv-x="1157" 
d="M734 509q0 83 -44.5 120.5t-124.5 37.5q-57 0 -91.5 -19.5t-54 -52.5t-26 -76t-6.5 -91q0 -46 7 -89t26.5 -76t54.5 -52.5t90 -19.5q48 0 80 14.5t52 41t28.5 62.5t8.5 79v121zM947 26q0 -98 -21.5 -164t-67 -106t-116 -57.5t-167.5 -17.5t-182 22t-170 67l63 163
q71 -41 139 -62.5t149 -21.5q42 0 72 6.5t49.5 23t29 45t9.5 72.5v138h-3q-43 -58 -93.5 -81t-123.5 -23q-90 0 -155 30t-107 83t-62 125t-20 156q0 83 18.5 157.5t59.5 130.5t106.5 88.5t158.5 32.5q74 0 132.5 -24t99.5 -89h3l15 97h184v-791v0zM602 1181h134l-66 -250
h-212z" />
    <glyph glyph-name="Imacron" unicode="&#x12a;" horiz-adv-x="640" 
d="M210 0v1000h220v-1000h-220zM78 1120v145h487v-145h-487z" />
    <glyph glyph-name="imacron" unicode="&#x12b;" horiz-adv-x="633" 
d="M210 0v817h213v-817h-213zM76 940v145h487v-145h-487z" />
    <glyph glyph-name="Ibreve" unicode="&#x12c;" horiz-adv-x="640" 
d="M210 0v1000h220v-1000h-220zM584 1308q-5 -70 -34.5 -112t-70 -64t-85 -29t-77.5 -7q-37 0 -80.5 6.5t-81.5 28.5t-65.5 64t-32.5 113h139q3 -15 9.5 -30t21 -27t37 -19t56.5 -7q32 0 54.5 7t37 18.5t22 26.5t10.5 31h140v0z" />
    <glyph glyph-name="ibreve" unicode="&#x12d;" horiz-adv-x="633" 
d="M210 0v817h213v-817h-213zM580 1128q-5 -70 -34.5 -112t-70 -64t-85 -29t-77.5 -7q-37 0 -80.5 6.5t-81.5 28.5t-65.5 64t-32.5 113h139q3 -15 9.5 -30t21 -27t37 -19t56.5 -7q32 0 54.5 7t37 18.5t22 26.5t10.5 31h140v0z" />
    <glyph glyph-name="Iogonek" unicode="&#x12e;" horiz-adv-x="640" 
d="M467 -291q-13 -8 -28.5 -16t-35 -15t-44.5 -11.5t-56 -4.5q-43 0 -74.5 13t-51.5 34.5t-30 50.5t-10 62q0 34 9.5 63.5t23.5 52t31 38.5t31 24h-22v1000h220v-1000h-58q-48 -32 -70 -69.5t-22 -81.5q0 -33 17 -52.5t47 -19.5q21 0 38 8t37 20z" />
    <glyph glyph-name="iogonek" unicode="&#x12f;" horiz-adv-x="633" 
d="M442 1019q0 -52 -36 -81.5t-90 -29.5t-90 29.5t-36 81.5q0 50 36 79.5t90 29.5q55 0 90.5 -29.5t35.5 -79.5zM209 0v817h213v-817h-213zM498 -291q-26 -15 -68.5 -31t-105.5 -16q-43 0 -74.5 13t-51.5 34.5t-30 50.5t-10 62q0 34 11 63.5t27 52t34.5 38.5t32.5 24h140
q-48 -32 -75 -67.5t-27 -83.5q0 -33 17 -52.5t47 -19.5q26 0 45.5 8t39.5 20z" />
    <glyph glyph-name="Idotaccent" unicode="&#x130;" horiz-adv-x="640" 
d="M210 0v1000h220v-1000h-220zM452 1199q0 -52 -36 -81.5t-95 -29.5q-60 0 -96 29.5t-36 81.5q0 50 36 79.5t96 29.5t95.5 -29.5t35.5 -79.5z" />
    <glyph glyph-name="dotlessi" unicode="&#x131;" horiz-adv-x="633" 
d="M210 0v817h213v-817h-213z" />
    <glyph glyph-name="Kcommaaccent" unicode="&#x136;" horiz-adv-x="1159" 
d="M798 0l-281 424l-87 -92v-332h-220v1000h220v-415h6l324 415h262l-350 -437l387 -563h-261zM550 -380h-134l73 280h212z" />
    <glyph glyph-name="kcommaaccent" unicode="&#x137;" horiz-adv-x="1071" 
d="M725 0l-212 355l-90 -91v-264h-213v1085h213v-589h4l271 321h263l-297 -330l317 -487h-256zM523 -380h-134l73 280h212z" />
    <glyph glyph-name="Lacute" unicode="&#x139;" horiz-adv-x="996" 
d="M210 0v1000h220v-814h426v-186h-646zM323 1088l-128 69l208 207l178 -99z" />
    <glyph glyph-name="lacute" unicode="&#x13a;" horiz-adv-x="691" 
d="M561 0q-30 -5 -69.5 -7.5t-85.5 -2.5q-56 0 -93.5 10t-60.5 32t-32.5 57t-9.5 85v911h213v-860q0 -20 3 -31.5t10 -17.5t19.5 -7.5t30.5 -1.5h75v-167v0zM317 1158l-128 69l208 207l178 -99z" />
    <glyph glyph-name="Lcommaaccent" unicode="&#x13b;" horiz-adv-x="996" 
d="M210 0v1000h220v-814h426v-186h-646zM487 -380h-134l73 280h212z" />
    <glyph glyph-name="lcommaaccent" unicode="&#x13c;" horiz-adv-x="691" 
d="M561 0q-30 -5 -69.5 -7.5t-85.5 -2.5q-56 0 -93.5 10t-60.5 32t-32.5 57t-9.5 85v911h213v-860q0 -20 3 -31.5t10 -17.5t19.5 -7.5t30.5 -1.5h75v-167v0zM362 -380h-134l73 280h212z" />
    <glyph glyph-name="Lcaron" unicode="&#x13d;" horiz-adv-x="996" 
d="M210 0v1000h220v-814h426v-186h-646zM813 817h-134l68 268h212z" />
    <glyph glyph-name="lcaron" unicode="&#x13e;" horiz-adv-x="691" 
d="M561 0q-30 -5 -69.5 -7.5t-85.5 -2.5q-56 0 -93.5 10t-60.5 32t-32.5 57t-9.5 85v911h213v-860q0 -20 3 -31.5t10 -17.5t19.5 -7.5t30.5 -1.5h75v-167v0zM754 817h-134l68 268h212z" />
    <glyph glyph-name="Lslash" unicode="&#x141;" horiz-adv-x="1016" 
d="M208 0v328l-97 -64v176l97 62v498h217v-359l266 168v-184l-266 -168v-277h426v-180h-643z" />
    <glyph glyph-name="lslash" unicode="&#x142;" horiz-adv-x="691" 
d="M103 496l107 71v518h213v-404l202 135v-192l-202 -135v-264q0 -20 3 -31.5t10 -17.5t19.5 -7.5t30.5 -1.5h75v-167q-30 -5 -69.5 -7.5t-85.5 -2.5q-56 0 -93.5 10t-60.5 32t-32.5 57t-9.5 85v201l-107 -71v192z" />
    <glyph glyph-name="Nacute" unicode="&#x143;" horiz-adv-x="1307" 
d="M890 0l-460 631h-2v-631h-218v1000h210l455 -632h4v632h218v-1000h-207zM673 1088l-128 69l208 207l178 -99z" />
    <glyph glyph-name="nacute" unicode="&#x144;" horiz-adv-x="1163" 
d="M740 0v457q0 44 -4.5 80t-19.5 62t-44 40t-78 14q-85 0 -128 -38.5t-43 -124.5v-490h-213v817h184l17 -95h3q45 64 105.5 87.5t137.5 23.5q83 0 140 -23.5t91.5 -67t49.5 -106t15 -141.5v-495h-213zM627 908l-128 69l208 207l178 -99z" />
    <glyph glyph-name="Ncommaaccent" unicode="&#x145;" horiz-adv-x="1307" 
d="M890 0l-460 631h-2v-631h-218v1000h210l455 -632h4v632h218v-1000h-207zM625 -380h-134l73 280h212z" />
    <glyph glyph-name="ncommaaccent" unicode="&#x146;" horiz-adv-x="1163" 
d="M740 0v457q0 44 -4.5 80t-19.5 62t-44 40t-78 14q-85 0 -128 -38.5t-43 -124.5v-490h-213v817h184l17 -95h3q45 64 105.5 87.5t137.5 23.5q83 0 140 -23.5t91.5 -67t49.5 -106t15 -141.5v-495h-213zM558 -380h-134l73 280h212z" />
    <glyph glyph-name="Ncaron" unicode="&#x147;" horiz-adv-x="1307" 
d="M890 0l-460 631h-2v-631h-218v1000h210l455 -632h4v632h218v-1000h-207zM456 1331l203 -94l205 95l58 -115l-260 -132l-263 132z" />
    <glyph glyph-name="ncaron" unicode="&#x148;" horiz-adv-x="1163" 
d="M740 0v457q0 44 -4.5 80t-19.5 62t-44 40t-78 14q-85 0 -128 -38.5t-43 -124.5v-490h-213v817h184l17 -95h3q45 64 105.5 87.5t137.5 23.5q83 0 140 -23.5t91.5 -67t49.5 -106t15 -141.5v-495h-213zM403 1151l203 -94l205 95l58 -115l-260 -132l-263 132z" />
    <glyph glyph-name="Omacron" unicode="&#x14c;" horiz-adv-x="1332" 
d="M931 501q0 80 -12.5 142.5t-43 105.5t-81.5 65.5t-127 22.5q-77 0 -128.5 -22t-82 -64.5t-43 -105.5t-12.5 -144t12.5 -144t43 -105.5t82 -65t128.5 -22.5q76 0 127 22.5t81.5 65t43 105.5t12.5 144zM1162 501q0 -134 -36 -231t-101.5 -160t-156.5 -93.5t-201 -30.5
q-111 0 -202.5 30.5t-157 93.5t-101.5 160t-36 231q0 132 36 229t101 160.5t157 94.5t203 31t202 -31t156.5 -94.5t101 -160.5t35.5 -229zM426 1120v145h487v-145h-487z" />
    <glyph glyph-name="omacron" unicode="&#x14d;" horiz-adv-x="1164" 
d="M777 408q0 60 -9.5 107.5t-32 80t-60 49.5t-93.5 17t-93.5 -17t-60 -49.5t-32 -80t-9.5 -107.5q0 -62 9.5 -110.5t32.5 -82t61 -51t94 -17.5q55 0 92.5 17.5t59.5 50.5t31.5 81.5t9.5 111.5zM994 408q0 -94 -25 -172t-76 -134.5t-128.5 -88t-182.5 -31.5t-182.5 31.5
t-128.5 87.5t-76 134.5t-25 172.5q0 89 23.5 166.5t73 135t127.5 90.5t188 33q103 0 180 -29.5t128.5 -85t77.5 -134t26 -176.5zM342 940v145h487v-145h-487z" />
    <glyph glyph-name="Obreve" unicode="&#x14e;" horiz-adv-x="1332" 
d="M931 501q0 80 -12.5 142.5t-43 105.5t-81.5 65.5t-127 22.5q-77 0 -128.5 -22t-82 -64.5t-43 -105.5t-12.5 -144t12.5 -144t43 -105.5t82 -65t128.5 -22.5q76 0 127 22.5t81.5 65t43 105.5t12.5 144zM1162 501q0 -134 -36 -231t-101.5 -160t-156.5 -93.5t-201 -30.5
q-111 0 -202.5 30.5t-157 93.5t-101.5 160t-36 231q0 132 36 229t101 160.5t157 94.5t203 31t202 -31t156.5 -94.5t101 -160.5t35.5 -229zM933 1308q-5 -70 -34.5 -112t-70 -64t-85 -29t-77.5 -7q-37 0 -80.5 6.5t-81.5 28.5t-65.5 64t-32.5 113h139q3 -15 9.5 -30t21 -27
t37 -19t56.5 -7q32 0 54.5 7t37 18.5t22 26.5t10.5 31h140v0z" />
    <glyph glyph-name="obreve" unicode="&#x14f;" horiz-adv-x="1164" 
d="M777 408q0 60 -9.5 107.5t-32 80t-60 49.5t-93.5 17t-93.5 -17t-60 -49.5t-32 -80t-9.5 -107.5q0 -62 9.5 -110.5t32.5 -82t61 -51t94 -17.5q55 0 92.5 17.5t59.5 50.5t31.5 81.5t9.5 111.5zM994 408q0 -94 -25 -172t-76 -134.5t-128.5 -88t-182.5 -31.5t-182.5 31.5
t-128.5 87.5t-76 134.5t-25 172.5q0 89 23.5 166.5t73 135t127.5 90.5t188 33q103 0 180 -29.5t128.5 -85t77.5 -134t26 -176.5zM847 1128q-5 -70 -34.5 -112t-70 -64t-85 -29t-77.5 -7q-37 0 -80.5 6.5t-81.5 28.5t-65.5 64t-32.5 113h139q3 -15 9.5 -30t21 -27t37 -19
t56.5 -7q32 0 54.5 7t37 18.5t22 26.5t10.5 31h140v0z" />
    <glyph glyph-name="Ohungarumlaut" unicode="&#x150;" horiz-adv-x="1332" 
d="M931 501q0 80 -12.5 142.5t-43 105.5t-81.5 65.5t-127 22.5q-77 0 -128.5 -22t-82 -64.5t-43 -105.5t-12.5 -144t12.5 -144t43 -105.5t82 -65t128.5 -22.5q76 0 127 22.5t81.5 65t43 105.5t12.5 144zM1162 501q0 -134 -36 -231t-101.5 -160t-156.5 -93.5t-201 -30.5
q-111 0 -202.5 30.5t-157 93.5t-101.5 160t-36 231q0 132 36 229t101 160.5t157 94.5t203 31t202 -31t156.5 -94.5t101 -160.5t35.5 -229zM483 1088l-86 69l209 197l135 -89zM882 1088l-87 69l208 197l137 -89z" />
    <glyph glyph-name="ohungarumlaut" unicode="&#x151;" horiz-adv-x="1164" 
d="M777 408q0 60 -9.5 107.5t-32 80t-60 49.5t-93.5 17t-93.5 -17t-60 -49.5t-32 -80t-9.5 -107.5q0 -62 9.5 -110.5t32.5 -82t61 -51t94 -17.5q55 0 92.5 17.5t59.5 50.5t31.5 81.5t9.5 111.5zM994 408q0 -94 -25 -172t-76 -134.5t-128.5 -88t-182.5 -31.5t-182.5 31.5
t-128.5 87.5t-76 134.5t-25 172.5q0 89 23.5 166.5t73 135t127.5 90.5t188 33q103 0 180 -29.5t128.5 -85t77.5 -134t26 -176.5zM403 908l-86 69l209 197l135 -89zM802 908l-87 69l208 197l137 -89z" />
    <glyph glyph-name="OE" unicode="&#x152;" horiz-adv-x="1784" 
d="M930 501q0 79 -13 141.5t-43 105.5t-79 66t-121 23q-78 0 -131 -21t-84.5 -63t-45 -105t-13.5 -147q0 -80 12 -142.5t43 -105.5t84 -66t135 -23q73 0 122 23t79 66t42.5 105.5t12.5 142.5zM939 0v91q-45 -47 -111 -76t-154 -29q-117 0 -210 30.5t-158.5 93.5t-100.5 160
t-35 231q0 132 35 229t100 160.5t158.5 94.5t210.5 31q86 0 149.5 -27t115.5 -81v92h681v-181h-465v-210h421v-187h-421v-242h479v-180h-695z" />
    <glyph glyph-name="oe" unicode="&#x153;" horiz-adv-x="1736" 
d="M1364 474q0 43 -10 79.5t-31.5 63t-55 41.5t-80.5 15q-43 0 -78.5 -13.5t-61 -39t-39.5 -62.5t-14 -84h370v0zM777 408q0 60 -9.5 107.5t-32 80t-60 49.5t-93.5 17t-93.5 -17t-60 -49.5t-32 -80t-9.5 -107.5q0 -62 9.5 -110.5t32.5 -82t61 -51t94 -17.5q55 0 92.5 17.5
t59.5 50.5t31.5 81.5t9.5 111.5zM1566 405v-31q0 -14 -3 -37h-571q2 -94 55 -143t162 -49q67 0 122.5 17.5t119.5 55.5l70 -149q-79 -47 -156.5 -67t-165.5 -20q-109 0 -185 34.5t-123 97.5q-47 -63 -122 -97.5t-187 -34.5q-105 0 -182.5 31.5t-128.5 87.5t-76 134.5
t-25 172.5q0 89 23.5 166.5t73 135t127.5 90.5t188 33q111 0 186.5 -34t122.5 -97q51 69 126.5 100t168.5 31t164 -30t119 -86t72.5 -135t24.5 -177z" />
    <glyph glyph-name="Racute" unicode="&#x154;" horiz-adv-x="1159" 
d="M765 693q0 48 -15 76.5t-41 43.5t-61.5 19.5t-76.5 4.5q-37 0 -70.5 -1.5t-68.5 -3.5v-280h161q39 0 70.5 5.5t54 21t35 43t12.5 71.5zM787 0l-143 342q-8 23 -17.5 29.5t-33.5 6.5h-163v-378h-220v993q88 8 178 12.5t178 4.5q77 0 152 -12t134.5 -45t96.5 -92.5
t37 -154.5q0 -47 -9 -88.5t-29 -76.5t-52.5 -63t-80.5 -47v-3q7 -2 14 -9t12.5 -16t9.5 -19t7 -16l161 -368h-232zM556 1105l-128 69l208 207l178 -99z" />
    <glyph glyph-name="racute" unicode="&#x155;" horiz-adv-x="839" 
d="M657 643q-51 0 -93.5 -5.5t-74 -23t-49 -51t-17.5 -88.5v-475h-213v817h184l19 -110h1q18 32 39.5 55.5t50 39.5t65.5 23.5t85 7.5h55v-190h-52zM425 908l-128 69l208 207l178 -99z" />
    <glyph glyph-name="Rcommaaccent" unicode="&#x156;" horiz-adv-x="1159" 
d="M765 693q0 48 -15 76.5t-41 43.5t-61.5 19.5t-76.5 4.5q-37 0 -70.5 -1.5t-68.5 -3.5v-280h161q39 0 70.5 5.5t54 21t35 43t12.5 71.5zM787 0l-143 342q-8 23 -17.5 29.5t-33.5 6.5h-163v-378h-220v993q88 8 178 12.5t178 4.5q77 0 152 -12t134.5 -45t96.5 -92.5
t37 -154.5q0 -47 -9 -88.5t-29 -76.5t-52.5 -63t-80.5 -47v-3q7 -2 14 -9t12.5 -16t9.5 -19t7 -16l161 -368h-232zM561 -380h-134l73 280h212z" />
    <glyph glyph-name="rcommaaccent" unicode="&#x157;" horiz-adv-x="839" 
d="M657 643q-51 0 -93.5 -5.5t-74 -23t-49 -51t-17.5 -88.5v-475h-213v817h184l19 -110h1q18 32 39.5 55.5t50 39.5t65.5 23.5t85 7.5h55v-190h-52zM274 -380h-134l73 280h212z" />
    <glyph glyph-name="Rcaron" unicode="&#x158;" horiz-adv-x="1159" 
d="M765 693q0 48 -15 76.5t-41 43.5t-61.5 19.5t-76.5 4.5q-37 0 -70.5 -1.5t-68.5 -3.5v-280h161q39 0 70.5 5.5t54 21t35 43t12.5 71.5zM787 0l-143 342q-8 23 -17.5 29.5t-33.5 6.5h-163v-378h-220v993q88 8 178 12.5t178 4.5q77 0 152 -12t134.5 -45t96.5 -92.5
t37 -154.5q0 -47 -9 -88.5t-29 -76.5t-52.5 -63t-80.5 -47v-3q7 -2 14 -9t12.5 -16t9.5 -19t7 -16l161 -368h-232zM332 1331l203 -94l205 95l58 -115l-260 -132l-263 132z" />
    <glyph glyph-name="rcaron" unicode="&#x159;" horiz-adv-x="839" 
d="M657 643q-51 0 -93.5 -5.5t-74 -23t-49 -51t-17.5 -88.5v-475h-213v817h184l19 -110h1q18 32 39.5 55.5t50 39.5t65.5 23.5t85 7.5h55v-190h-52zM240 1151l203 -94l205 95l58 -115l-260 -132l-263 132z" />
    <glyph glyph-name="Sacute" unicode="&#x15a;" horiz-adv-x="1081" 
d="M926 294q0 -87 -31.5 -146t-84 -95t-121.5 -51.5t-144 -15.5q-60 0 -113 6.5t-101.5 21t-95.5 36.5t-95 53l94 165q69 -46 142 -77t157 -31q30 0 60 4t55 16.5t40.5 35t15.5 58.5q0 33 -19.5 56t-51.5 39.5t-74.5 29.5t-87.5 27q-54 17 -107.5 38.5t-96 56t-69.5 86
t-27 126.5q0 80 32 134t84 86.5t118 46t134 13.5q96 0 179.5 -23t168.5 -66l-78 -171q-57 35 -119 57.5t-134 22.5q-33 0 -62.5 -3.5t-52.5 -13.5t-36.5 -28t-13.5 -48q0 -29 16 -49t44 -35t64 -26t77 -23q57 -16 116.5 -36.5t107.5 -54.5t79 -87t31 -135zM558 1088l-128 69
l208 207l178 -99z" />
    <glyph glyph-name="sacute" unicode="&#x15b;" horiz-adv-x="963" 
d="M813 241q0 -133 -82.5 -196t-245.5 -63q-92 0 -182.5 24t-172.5 74l74 150q66 -38 134 -64.5t145 -26.5q61 0 93.5 19.5t32.5 70.5q0 27 -16.5 44t-44 29t-63 21.5t-73.5 20.5q-46 13 -91.5 30.5t-82 46t-59 70.5t-22.5 105q0 51 20.5 95t61.5 76t102.5 50t143.5 18
q78 0 153 -17.5t148 -53.5l-58 -146q-52 29 -109 46.5t-117 17.5q-66 0 -103.5 -17t-37.5 -60q0 -21 12 -35.5t32.5 -25t48 -18.5t59.5 -17q49 -14 102 -31t97 -46t72.5 -74.5t28.5 -116.5zM512 908l-128 69l208 207l178 -99z" />
    <glyph glyph-name="Scedilla" unicode="&#x15e;" horiz-adv-x="1081" 
d="M699 -198q0 -29 -9.5 -55t-29 -45t-50 -30t-71.5 -11q-45 0 -80 11.5t-64 27.5l30 69q30 -12 57 -19t51 -7t41.5 13t17.5 45q0 20 -11.5 34.5t-43.5 14.5q-12 0 -25.5 -2t-27.5 -7l-49 26l55 121q-50 3 -95 11t-87.5 22t-84 34.5t-83.5 47.5l94 165q69 -46 142 -77
t157 -31q30 0 60 4t55 16.5t40.5 35t15.5 58.5q0 33 -19.5 56t-51.5 39.5t-74.5 29.5t-87.5 27q-54 17 -107.5 38.5t-96 56t-69.5 86t-27 126.5q0 80 32 134t84 86.5t118 46t134 13.5q96 0 179.5 -23t168.5 -66l-78 -171q-57 35 -119 57.5t-134 22.5q-33 0 -62.5 -3.5
t-52.5 -13.5t-36.5 -28t-13.5 -48q0 -29 16 -49t44 -35t64 -26t77 -23q57 -16 116.5 -36.5t107.5 -54.5t79 -87t31 -135q0 -81 -27.5 -138t-74.5 -93t-109.5 -54t-131.5 -22l-34 -71l2 -1q8 1 18 2.5t18 1.5q58 0 85 -32t27 -85z" />
    <glyph glyph-name="Scedilla" unicode="&#xf6c1;" horiz-adv-x="1081" 
d="M699 -198q0 -29 -9.5 -55t-29 -45t-50 -30t-71.5 -11q-45 0 -80 11.5t-64 27.5l30 69q30 -12 57 -19t51 -7t41.5 13t17.5 45q0 20 -11.5 34.5t-43.5 14.5q-12 0 -25.5 -2t-27.5 -7l-49 26l55 121q-50 3 -95 11t-87.5 22t-84 34.5t-83.5 47.5l94 165q69 -46 142 -77
t157 -31q30 0 60 4t55 16.5t40.5 35t15.5 58.5q0 33 -19.5 56t-51.5 39.5t-74.5 29.5t-87.5 27q-54 17 -107.5 38.5t-96 56t-69.5 86t-27 126.5q0 80 32 134t84 86.5t118 46t134 13.5q96 0 179.5 -23t168.5 -66l-78 -171q-57 35 -119 57.5t-134 22.5q-33 0 -62.5 -3.5
t-52.5 -13.5t-36.5 -28t-13.5 -48q0 -29 16 -49t44 -35t64 -26t77 -23q57 -16 116.5 -36.5t107.5 -54.5t79 -87t31 -135q0 -81 -27.5 -138t-74.5 -93t-109.5 -54t-131.5 -22l-34 -71l2 -1q8 1 18 2.5t18 1.5q58 0 85 -32t27 -85z" />
    <glyph glyph-name="scedilla" unicode="&#x15f;" horiz-adv-x="963" 
d="M641 -198q0 -29 -9.5 -55t-29 -45t-50 -30t-71.5 -11q-45 0 -80 11.5t-64 27.5l30 69q30 -12 57 -19t51 -7t41.5 13t17.5 45q0 20 -11.5 34.5t-43.5 14.5q-12 0 -25.5 -2t-27.5 -7l-49 26l53 117q-78 6 -154 30t-146 66l74 150q66 -38 134 -64.5t145 -26.5
q61 0 93.5 19.5t32.5 70.5q0 27 -16.5 44t-44 29t-63 21.5t-73.5 20.5q-46 13 -91.5 30.5t-82 46t-59 70.5t-22.5 105q0 51 20.5 95t61.5 76t102.5 50t143.5 18q78 0 153 -17.5t148 -53.5l-58 -146q-52 29 -109 46.5t-117 17.5q-66 0 -103.5 -17t-37.5 -60q0 -21 12 -35.5
t32.5 -25t48 -18.5t59.5 -17q49 -14 102 -31t97 -46t72.5 -74.5t28.5 -116.5q0 -126 -72.5 -188t-217.5 -70l-32 -67l2 -1q8 1 18 2.5t18 1.5q58 0 85 -32t27 -85z" />
    <glyph glyph-name="scedilla" unicode="&#xf6c2;" horiz-adv-x="963" 
d="M641 -198q0 -29 -9.5 -55t-29 -45t-50 -30t-71.5 -11q-45 0 -80 11.5t-64 27.5l30 69q30 -12 57 -19t51 -7t41.5 13t17.5 45q0 20 -11.5 34.5t-43.5 14.5q-12 0 -25.5 -2t-27.5 -7l-49 26l53 117q-78 6 -154 30t-146 66l74 150q66 -38 134 -64.5t145 -26.5
q61 0 93.5 19.5t32.5 70.5q0 27 -16.5 44t-44 29t-63 21.5t-73.5 20.5q-46 13 -91.5 30.5t-82 46t-59 70.5t-22.5 105q0 51 20.5 95t61.5 76t102.5 50t143.5 18q78 0 153 -17.5t148 -53.5l-58 -146q-52 29 -109 46.5t-117 17.5q-66 0 -103.5 -17t-37.5 -60q0 -21 12 -35.5
t32.5 -25t48 -18.5t59.5 -17q49 -14 102 -31t97 -46t72.5 -74.5t28.5 -116.5q0 -126 -72.5 -188t-217.5 -70l-32 -67l2 -1q8 1 18 2.5t18 1.5q58 0 85 -32t27 -85z" />
    <glyph glyph-name="Scaron" unicode="&#x160;" horiz-adv-x="1081" 
d="M926 294q0 -87 -31.5 -146t-84 -95t-121.5 -51.5t-144 -15.5q-60 0 -113 6.5t-101.5 21t-95.5 36.5t-95 53l94 165q69 -46 142 -77t157 -31q30 0 60 4t55 16.5t40.5 35t15.5 58.5q0 33 -19.5 56t-51.5 39.5t-74.5 29.5t-87.5 27q-54 17 -107.5 38.5t-96 56t-69.5 86
t-27 126.5q0 80 32 134t84 86.5t118 46t134 13.5q96 0 179.5 -23t168.5 -66l-78 -171q-57 35 -119 57.5t-134 22.5q-33 0 -62.5 -3.5t-52.5 -13.5t-36.5 -28t-13.5 -48q0 -29 16 -49t44 -35t64 -26t77 -23q57 -16 116.5 -36.5t107.5 -54.5t79 -87t31 -135zM336 1331l203 -94
l205 95l58 -115l-260 -132l-263 132z" />
    <glyph glyph-name="scaron" unicode="&#x161;" horiz-adv-x="963" 
d="M813 241q0 -133 -82.5 -196t-245.5 -63q-92 0 -182.5 24t-172.5 74l74 150q66 -38 134 -64.5t145 -26.5q61 0 93.5 19.5t32.5 70.5q0 27 -16.5 44t-44 29t-63 21.5t-73.5 20.5q-46 13 -91.5 30.5t-82 46t-59 70.5t-22.5 105q0 51 20.5 95t61.5 76t102.5 50t143.5 18
q78 0 153 -17.5t148 -53.5l-58 -146q-52 29 -109 46.5t-117 17.5q-66 0 -103.5 -17t-37.5 -60q0 -21 12 -35.5t32.5 -25t48 -18.5t59.5 -17q49 -14 102 -31t97 -46t72.5 -74.5t28.5 -116.5zM279 1151l203 -94l205 95l58 -115l-260 -132l-263 132z" />
    <glyph glyph-name="Tcommaaccent" unicode="&#x162;" horiz-adv-x="1004" 
d="M611 812v-812h-220v812h-281v188h784v-188h-283zM454 -380h-134l73 280h212z" />
    <glyph glyph-name="Tcommaaccent" unicode="&#x21a;" horiz-adv-x="1004" 
d="M611 812v-812h-220v812h-281v188h784v-188h-283zM454 -380h-134l73 280h212z" />
    <glyph glyph-name="tcommaaccent" unicode="&#x163;" horiz-adv-x="815" 
d="M655 -3q-43 -5 -74 -7.5t-60 -2.5q-83 0 -135 12.5t-81.5 42t-40.5 78.5t-10 121v387h-134v172h135v219h212v-219h188v-172h-188v-367q0 -32 3 -50.5t17.5 -29t43.5 -13.5t81 -3h43v-168v0zM434 -380h-134l73 280h212z" />
    <glyph glyph-name="tcommaaccent" unicode="&#x21b;" horiz-adv-x="815" 
d="M655 -3q-43 -5 -74 -7.5t-60 -2.5q-83 0 -135 12.5t-81.5 42t-40.5 78.5t-10 121v387h-134v172h135v219h212v-219h188v-172h-188v-367q0 -32 3 -50.5t17.5 -29t43.5 -13.5t81 -3h43v-168v0zM434 -380h-134l73 280h212z" />
    <glyph glyph-name="Tcaron" unicode="&#x164;" horiz-adv-x="1004" 
d="M611 812v-812h-220v812h-281v188h784v-188h-283zM299 1331l203 -94l205 95l58 -115l-260 -132l-263 132z" />
    <glyph glyph-name="tcaron" unicode="&#x165;" horiz-adv-x="815" 
d="M655 -3q-43 -5 -74 -7.5t-60 -2.5q-83 0 -135 12.5t-81.5 42t-40.5 78.5t-10 121v387h-134v172h135v219h212v-219h188v-172h-188v-367q0 -32 3 -50.5t17.5 -29t43.5 -13.5t81 -3h43v-168v0zM820 817h-134l68 268h212z" />
    <glyph glyph-name="Umacron" unicode="&#x16a;" horiz-adv-x="1255" 
d="M1045 406q0 -99 -22 -177.5t-71.5 -133t-129.5 -83.5t-195 -29q-116 0 -195.5 28.5t-128.5 83t-71 133t-22 178.5v594h220v-546q0 -57 4.5 -109t24 -91t59 -62.5t110.5 -23.5q70 0 109.5 23.5t59 62.5t24 91t4.5 109v546h220v-594v0zM381 1120v145h487v-145h-487z" />
    <glyph glyph-name="umacron" unicode="&#x16b;" horiz-adv-x="1147" 
d="M750 0l-15 90h-4q-35 -51 -90 -80.5t-141 -29.5q-68 0 -121.5 15t-91 52.5t-57.5 100.5t-20 159v510h213v-435q0 -51 3 -92t17 -70.5t42.5 -45.5t79.5 -16q49 0 80 12t48.5 34.5t24 54.5t6.5 73v485h213v-817h-187zM334 940v145h487v-145h-487z" />
    <glyph glyph-name="Ubreve" unicode="&#x16c;" horiz-adv-x="1255" 
d="M1045 406q0 -99 -22 -177.5t-71.5 -133t-129.5 -83.5t-195 -29q-116 0 -195.5 28.5t-128.5 83t-71 133t-22 178.5v594h220v-546q0 -57 4.5 -109t24 -91t59 -62.5t110.5 -23.5q70 0 109.5 23.5t59 62.5t24 91t4.5 109v546h220v-594v0zM889 1308q-5 -70 -34.5 -112t-70 -64
t-85 -29t-77.5 -7q-37 0 -80.5 6.5t-81.5 28.5t-65.5 64t-32.5 113h139q3 -15 9.5 -30t21 -27t37 -19t56.5 -7q32 0 54.5 7t37 18.5t22 26.5t10.5 31h140v0z" />
    <glyph glyph-name="ubreve" unicode="&#x16d;" horiz-adv-x="1147" 
d="M750 0l-15 90h-4q-35 -51 -90 -80.5t-141 -29.5q-68 0 -121.5 15t-91 52.5t-57.5 100.5t-20 159v510h213v-435q0 -51 3 -92t17 -70.5t42.5 -45.5t79.5 -16q49 0 80 12t48.5 34.5t24 54.5t6.5 73v485h213v-817h-187zM834 1128q-5 -70 -34.5 -112t-70 -64t-85 -29t-77.5 -7
q-37 0 -80.5 6.5t-81.5 28.5t-65.5 64t-32.5 113h139q3 -15 9.5 -30t21 -27t37 -19t56.5 -7q32 0 54.5 7t37 18.5t22 26.5t10.5 31h140v0z" />
    <glyph glyph-name="Uring" unicode="&#x16e;" horiz-adv-x="1259" 
d="M1045 406q0 -99 -22 -177.5t-71.5 -133t-129.5 -83.5t-195 -29q-116 0 -195.5 28.5t-128.5 83t-71 133t-22 178.5v594h220v-546q0 -57 4.5 -109t24 -91t59 -62.5t110.5 -23.5q70 0 109.5 23.5t59 62.5t24 91t4.5 109v546h220v-594v0zM699 1225q0 30 -19.5 50t-48.5 20
q-30 0 -50 -20t-20 -50q0 -32 20 -52.5t50 -20.5q29 0 48.5 20.5t19.5 52.5zM779 1225q0 -33 -11 -60.5t-31 -47.5t-47.5 -31t-60.5 -11q-32 0 -59.5 11.5t-47.5 31.5t-31.5 47.5t-11.5 59.5q0 33 11 60.5t31 47.5t47.5 31t60.5 11t60.5 -11t47.5 -31t31 -47.5t11 -60.5z
" />
    <glyph glyph-name="uring" unicode="&#x16f;" horiz-adv-x="1147" 
d="M750 0l-15 90h-4q-35 -51 -90 -80.5t-141 -29.5q-68 0 -121.5 15t-91 52.5t-57.5 100.5t-20 159v510h213v-435q0 -51 3 -92t17 -70.5t42.5 -45.5t79.5 -16q49 0 80 12t48.5 34.5t24 54.5t6.5 73v485h213v-817h-187zM640 1045q0 30 -19.5 50t-48.5 20q-30 0 -50 -20
t-20 -50q0 -32 20 -52.5t50 -20.5q29 0 48.5 20.5t19.5 52.5zM720 1045q0 -33 -11 -60.5t-31 -47.5t-47.5 -31t-60.5 -11q-32 0 -59.5 11.5t-47.5 31.5t-31.5 47.5t-11.5 59.5q0 33 11 60.5t31 47.5t47.5 31t60.5 11t60.5 -11t47.5 -31t31 -47.5t11 -60.5z" />
    <glyph glyph-name="Uhungarumlaut" unicode="&#x170;" horiz-adv-x="1255" 
d="M1045 406q0 -99 -22 -177.5t-71.5 -133t-129.5 -83.5t-195 -29q-116 0 -195.5 28.5t-128.5 83t-71 133t-22 178.5v594h220v-546q0 -57 4.5 -109t24 -91t59 -62.5t110.5 -23.5q70 0 109.5 23.5t59 62.5t24 91t4.5 109v546h220v-594v0zM442 1088l-86 69l209 197l135 -89z
M841 1088l-87 69l208 197l137 -89z" />
    <glyph glyph-name="uhungarumlaut" unicode="&#x171;" horiz-adv-x="1147" 
d="M750 0l-15 90h-4q-35 -51 -90 -80.5t-141 -29.5q-68 0 -121.5 15t-91 52.5t-57.5 100.5t-20 159v510h213v-435q0 -51 3 -92t17 -70.5t42.5 -45.5t79.5 -16q49 0 80 12t48.5 34.5t24 54.5t6.5 73v485h213v-817h-187zM370 908l-86 69l209 197l135 -89zM769 908l-87 69
l208 197l137 -89z" />
    <glyph glyph-name="Uogonek" unicode="&#x172;" horiz-adv-x="1255" 
d="M1045 406q0 -99 -22 -177.5t-71.5 -133t-129.5 -83.5t-195 -29q-116 0 -195.5 28.5t-128.5 83t-71 133t-22 178.5v594h220v-546q0 -57 4.5 -109t24 -91t59 -62.5t110.5 -23.5q70 0 109.5 23.5t59 62.5t24 91t4.5 109v546h220v-594v0zM909 -287q-26 -15 -68.5 -31
t-105.5 -16q-43 0 -74.5 13t-51.5 34.5t-30 50.5t-10 62q0 34 11 63.5t27 52t34.5 38.5t32.5 24h140q-48 -32 -75 -67.5t-27 -83.5q0 -33 17 -52.5t47 -19.5q26 0 45.5 8t39.5 20z" />
    <glyph glyph-name="uogonek" unicode="&#x173;" horiz-adv-x="1147" 
d="M985 -291q-26 -15 -68.5 -31t-105.5 -16q-43 0 -74.5 13t-51.5 34.5t-30 50.5t-10 62q0 34 11 63.5t27 52t34.5 38.5t32.5 24l-15 90h-4q-35 -51 -90 -80.5t-141 -29.5q-68 0 -121.5 15t-91 52.5t-57.5 100.5t-20 159v510h213v-435q0 -51 3 -92t17 -70.5t42.5 -45.5
t79.5 -16q49 0 80 12t48.5 34.5t24 54.5t6.5 73v485h213v-817h-47q-48 -32 -75 -67.5t-27 -83.5q0 -33 17 -52.5t47 -19.5q26 0 45.5 8t39.5 20z" />
    <glyph glyph-name="Ydieresis" unicode="&#x178;" horiz-adv-x="1105" 
d="M663 392v-392h-218v388l-375 612h254l231 -417l237 417h243zM482 1201q0 -22 -8.5 -41.5t-23 -34.5t-34 -23.5t-41.5 -8.5q-23 0 -43 8.5t-34.5 23.5t-23 34.5t-8.5 41.5t8.5 42t23 34t34.5 22.5t43 8.5q22 0 41.5 -8.5t34 -22.5t23 -34t8.5 -42zM845 1201
q0 -22 -8.5 -41.5t-22.5 -34.5t-34 -23.5t-42 -8.5t-41.5 8.5t-34.5 23.5t-24 34.5t-9 41.5t9 42t24 34t34.5 22.5t41.5 8.5t42 -8.5t34 -22.5t22.5 -34t8.5 -42z" />
    <glyph glyph-name="Zacute" unicode="&#x179;" horiz-adv-x="1083" 
d="M150 0v165l488 647h-464v188h743v-165l-493 -654h509v-181h-783zM561 1088l-128 69l208 207l178 -99z" />
    <glyph glyph-name="zacute" unicode="&#x17a;" horiz-adv-x="952" 
d="M140 0v148l385 495h-381v174h651v-161l-380 -483h387v-173h-662zM483 908l-128 69l208 207l178 -99z" />
    <glyph glyph-name="Zdotaccent" unicode="&#x17b;" horiz-adv-x="1083" 
d="M150 0v165l488 647h-464v188h743v-165l-493 -654h509v-181h-783zM700 1199q0 -52 -36 -81.5t-95 -29.5q-60 0 -96 29.5t-36 81.5q0 50 36 79.5t96 29.5t95.5 -29.5t35.5 -79.5z" />
    <glyph glyph-name="zdotaccent" unicode="&#x17c;" horiz-adv-x="952" 
d="M140 0v148l385 495h-381v174h651v-161l-380 -483h387v-173h-662zM617 1019q0 -52 -36 -81.5t-95 -29.5q-60 0 -96 29.5t-36 81.5q0 50 36 79.5t96 29.5t95.5 -29.5t35.5 -79.5z" />
    <glyph glyph-name="Zcaron" unicode="&#x17d;" horiz-adv-x="1083" 
d="M150 0v165l488 647h-464v188h743v-165l-493 -654h509v-181h-783zM356 1331l203 -94l205 95l58 -115l-260 -132l-263 132z" />
    <glyph glyph-name="zcaron" unicode="&#x17e;" horiz-adv-x="952" 
d="M140 0v148l385 495h-381v174h651v-161l-380 -483h387v-173h-662zM294 1151l203 -94l205 95l58 -115l-260 -132l-263 132z" />
    <glyph glyph-name="florin" unicode="&#x192;" horiz-adv-x="976" 
d="M859 894q-19 2 -31 3.5t-35 1.5q-35 0 -56.5 -5.5t-35 -16.5t-20.5 -27t-11 -38l-27 -140h161l-31 -171h-159l-100 -510q-14 -71 -36 -124t-56.5 -88t-83 -53t-113.5 -18q-35 0 -71.5 5t-63.5 14l27 156q21 -8 41 -9t49 -1q28 0 46.5 13t31.5 37.5t22 59.5t17 78l79 440
h-115l30 171h115l30 167q11 61 31.5 102t58 66t95 35t142.5 10q26 0 45 -0.5t51 -2.5z" />
    <glyph glyph-name="Scommaaccent" unicode="&#x218;" horiz-adv-x="1081" 
d="M926 294q0 -87 -31.5 -146t-84 -95t-121.5 -51.5t-144 -15.5q-60 0 -113 6.5t-101.5 21t-95.5 36.5t-95 53l94 165q69 -46 142 -77t157 -31q30 0 60 4t55 16.5t40.5 35t15.5 58.5q0 33 -19.5 56t-51.5 39.5t-74.5 29.5t-87.5 27q-54 17 -107.5 38.5t-96 56t-69.5 86
t-27 126.5q0 80 32 134t84 86.5t118 46t134 13.5q96 0 179.5 -23t168.5 -66l-78 -171q-57 35 -119 57.5t-134 22.5q-33 0 -62.5 -3.5t-52.5 -13.5t-36.5 -28t-13.5 -48q0 -29 16 -49t44 -35t64 -26t77 -23q57 -16 116.5 -36.5t107.5 -54.5t79 -87t31 -135zM499 -380h-134
l73 280h212z" />
    <glyph glyph-name="scommaaccent" unicode="&#x219;" horiz-adv-x="963" 
d="M813 241q0 -133 -82.5 -196t-245.5 -63q-92 0 -182.5 24t-172.5 74l74 150q66 -38 134 -64.5t145 -26.5q61 0 93.5 19.5t32.5 70.5q0 27 -16.5 44t-44 29t-63 21.5t-73.5 20.5q-46 13 -91.5 30.5t-82 46t-59 70.5t-22.5 105q0 51 20.5 95t61.5 76t102.5 50t143.5 18
q78 0 153 -17.5t148 -53.5l-58 -146q-52 29 -109 46.5t-117 17.5q-66 0 -103.5 -17t-37.5 -60q0 -21 12 -35.5t32.5 -25t48 -18.5t59.5 -17q49 -14 102 -31t97 -46t72.5 -74.5t28.5 -116.5zM455 -380h-134l73 280h212z" />
    <glyph glyph-name="circumflex" unicode="&#x2c6;" 
d="M554 907l-203 94l-205 -95l-58 115l260 132l263 -132z" />
    <glyph glyph-name="caron" unicode="&#x2c7;" 
d="M145 1151l203 -94l205 95l58 -115l-260 -132l-263 132z" />
    <glyph glyph-name="breve" unicode="&#x2d8;" 
d="M613 1128q-5 -70 -34.5 -112t-70 -64t-85 -29t-77.5 -7q-37 0 -80.5 6.5t-81.5 28.5t-65.5 64t-32.5 113h139q3 -15 9.5 -30t21 -27t37 -19t56.5 -7q32 0 54.5 7t37 18.5t22 26.5t10.5 31h140v0z" />
    <glyph glyph-name="dotaccent" unicode="&#x2d9;" 
d="M481 1019q0 -52 -36 -81.5t-95 -29.5q-60 0 -96 29.5t-36 81.5q0 50 36 79.5t96 29.5t95.5 -29.5t35.5 -79.5z" />
    <glyph glyph-name="ring" unicode="&#x2da;" 
d="M420 1045q0 30 -19.5 50t-48.5 20q-30 0 -50 -20t-20 -50q0 -32 20 -52.5t50 -20.5q29 0 48.5 20.5t19.5 52.5zM500 1045q0 -33 -11 -60.5t-31 -47.5t-47.5 -31t-60.5 -11q-32 0 -59.5 11.5t-47.5 31.5t-31.5 47.5t-11.5 59.5q0 33 11 60.5t31 47.5t47.5 31t60.5 11
t60.5 -11t47.5 -31t31 -47.5t11 -60.5z" />
    <glyph glyph-name="ogonek" unicode="&#x2db;" 
d="M520 -291q-26 -15 -68.5 -31t-105.5 -16q-43 0 -74.5 13t-51.5 34.5t-30 50.5t-10 62q0 34 11 63.5t27 52t34.5 38.5t32.5 24h140q-48 -32 -75 -67.5t-27 -83.5q0 -33 17 -52.5t47 -19.5q26 0 45.5 8t39.5 20z" />
    <glyph glyph-name="tilde" unicode="&#x2dc;" horiz-adv-x="696" 
d="M679 1070q-23 -73 -69.5 -110.5t-105.5 -37.5q-38 0 -71 11.5t-63 25t-57 25t-51 11.5q-29 0 -48.5 -14.5t-36.5 -59.5l-108 61q17 41 34.5 69t38 45.5t44.5 25t55 7.5q34 0 66 -11.5t62.5 -25.5t59 -25.5t55.5 -11.5q26 0 46 16.5t37 56.5z" />
    <glyph glyph-name="hungarumlaut" unicode="&#x2dd;" 
d="M207 908l-86 69l209 197l135 -89zM606 908l-87 69l208 197l137 -89z" />
    <glyph glyph-name="endash" unicode="&#x2013;" horiz-adv-x="1089" 
d="M170 425v171h749v-171h-749z" />
    <glyph glyph-name="emdash" unicode="&#x2014;" horiz-adv-x="1819" 
d="M160 361v165h1499v-165h-1499z" />
    <glyph glyph-name="quoteleft" unicode="&#x2018;" horiz-adv-x="599" 
d="M351 680h-241l168 369h151z" />
    <glyph glyph-name="quoteright" unicode="&#x2019;" horiz-adv-x="598" 
d="M321 680h-151l78 369h240z" />
    <glyph glyph-name="quotesinglbase" unicode="&#x201a;" horiz-adv-x="598" 
d="M261 -269h-151l78 369h240z" />
    <glyph glyph-name="quotedblleft" unicode="&#x201c;" horiz-adv-x="982" 
d="M350 680h-240l167 369h152zM734 680h-240l167 369h151z" />
    <glyph glyph-name="quotedblright" unicode="&#x201d;" horiz-adv-x="982" 
d="M322 680h-152l79 369h240zM704 680h-150l79 369h239z" />
    <glyph glyph-name="quotedblbase" unicode="&#x201e;" horiz-adv-x="982" 
d="M262 -269h-152l79 369h240zM644 -269h-150l79 369h239z" />
    <glyph glyph-name="dagger" unicode="&#x2020;" horiz-adv-x="782" 
d="M494 673v-391h-207v391h-137v167h137v197h207v-197h138v-167h-138z" />
    <glyph glyph-name="daggerdbl" unicode="&#x2021;" horiz-adv-x="784" 
d="M495 374v-188h-206v188h-139v167h139v148h-139v170h139v178h206v-178h137v-170h-137v-148h139v-167h-139z" />
    <glyph glyph-name="bullet" unicode="&#x2022;" horiz-adv-x="1101" 
d="M801 493q0 -52 -20 -97.5t-54 -79.5t-79.5 -53.5t-97.5 -19.5q-53 0 -98.5 19.5t-79 53.5t-53 79.5t-19.5 97.5t19.5 97.5t53 79.5t79 53.5t98.5 19.5q52 0 97.5 -19.5t79.5 -53.5t54 -79.5t20 -97.5z" />
    <glyph glyph-name="ellipsis" unicode="&#x2026;" horiz-adv-x="1486" 
d="M444 93q0 -24 -11 -44.5t-30.5 -35t-45 -23t-54.5 -8.5q-30 0 -56.5 8.5t-45.5 23t-30 35t-11 44.5q0 23 11 42.5t30 34t44.5 23t55.5 8.5q31 0 57 -8.5t45 -23t30 -34t11 -42.5zM882 93q0 -24 -11 -44.5t-30.5 -35t-45 -23t-54.5 -8.5q-30 0 -56.5 8.5t-45.5 23t-30 35
t-11 44.5q0 23 11 42.5t30 34t44.5 23t55.5 8.5q31 0 57 -8.5t45 -23t30 -34t11 -42.5zM1326 93q0 -24 -11 -44.5t-30.5 -35t-45 -23t-54.5 -8.5q-30 0 -56.5 8.5t-45.5 23t-30 35t-11 44.5q0 23 11 42.5t30 34t44.5 23t55.5 8.5q31 0 57 -8.5t45 -23t30 -34t11 -42.5z" />
    <glyph glyph-name="perthousand" unicode="&#x2030;" horiz-adv-x="2493" 
d="M1504 271q0 35 -4 66.5t-16 55t-34 37.5t-57 14t-56.5 -14t-33.5 -37.5t-16 -55t-4 -66.5t4 -66t16 -54.5t33.5 -37.5t56.5 -14t57 13.5t34 37t16 55t4 66.5zM1652 271q0 -141 -64.5 -214.5t-199.5 -73.5q-65 0 -112.5 20t-79.5 57.5t-47.5 91t-15.5 119.5q0 142 66 215
t200 73q64 0 112 -20t79 -57.5t46.5 -91t15.5 -119.5zM640 0h-162l678 1000h161zM526 729q0 35 -3.5 66t-15 54.5t-33 37t-56.5 13.5t-56.5 -13.5t-33.5 -37t-16 -54.5t-4 -66t4 -66.5t16 -55t33.5 -37.5t56.5 -14t56.5 14t33 37.5t15 55t3.5 66.5zM676 729
q0 -143 -64 -215.5t-200 -72.5q-64 0 -111.5 20t-78.5 57t-46.5 90.5t-15.5 120.5q0 142 64.5 214.5t198.5 72.5q130 0 191.5 -77t61.5 -210zM2185 271q0 35 -4 66.5t-16 55t-34 37.5t-57 14t-56.5 -14t-33.5 -37.5t-16 -55t-4 -66.5t4 -66t16 -54.5t33.5 -37.5t56.5 -14
t57 13.5t34 37t16 55t4 66.5zM2333 271q0 -141 -64.5 -214.5t-199.5 -73.5q-65 0 -112.5 20t-79.5 57.5t-47.5 91t-15.5 119.5q0 142 66 215t200 73q64 0 112 -20t79 -57.5t46.5 -91t15.5 -119.5z" />
    <glyph glyph-name="guilsinglleft" unicode="&#x2039;" horiz-adv-x="590" 
d="M317 144l-187 305l187 303l143 -72l-147 -232l147 -231z" />
    <glyph glyph-name="guilsinglright" unicode="&#x203a;" horiz-adv-x="590" 
d="M274 144l-144 73l147 231l-147 232l144 72l186 -303z" />
    <glyph glyph-name="fraction" unicode="&#x2044;" horiz-adv-x="339" 
d="M-164 -58h-126l793 1162h126z" />
    <glyph glyph-name="fraction" unicode="&#x2215;" horiz-adv-x="339" 
d="M-164 -58h-126l793 1162h126z" />
    <glyph glyph-name="zerosuperior" unicode="&#x2070;" horiz-adv-x="866" 
d="M544 803q0 40 -4.5 74t-16.5 59t-33.5 39t-55.5 14q-35 0 -56.5 -14t-33.5 -39t-16.5 -59t-4.5 -74t4.5 -74.5t16.5 -60.5t33.5 -41t56.5 -15q34 0 55.5 15t33.5 41t16.5 60.5t4.5 74.5zM706 803q0 -156 -68 -236t-209 -80q-65 0 -115 22t-84.5 63t-52 99.5t-17.5 131.5
q0 311 281 311q131 0 198 -82.5t67 -228.5z" />
    <glyph glyph-name="foursuperior" unicode="&#x2074;" horiz-adv-x="778" 
d="M403 733v230l-160 -230h160zM544 493h-157v122h-252l-35 124l276 367h168v-363h94v-128h-94v-122z" />
    <glyph glyph-name="fivesuperior" unicode="&#x2075;" horiz-adv-x="735" 
d="M585 703q0 -49 -14.5 -88.5t-45.5 -67.5t-78 -43t-113 -15q-63 0 -113.5 17t-100.5 50l66 106q32 -25 67 -37.5t80 -12.5q46 0 69 21t23 67q0 39 -22.5 60.5t-67.5 21.5q-31 0 -56 -9.5t-48 -27.5l-98 78l56 281h350v-131h-245l-24 -119l3 -1q20 16 46 26.5t72 10.5
q40 0 75.5 -10.5t61.5 -33t41.5 -58t15.5 -85.5z" />
    <glyph glyph-name="sixsuperior" unicode="&#x2076;" horiz-adv-x="805" 
d="M497 703q0 45 -18 69.5t-67 24.5q-46 0 -65.5 -25.5t-19.5 -68.5q0 -20 4.5 -38t14.5 -31.5t26.5 -21.5t39.5 -8q49 0 67 28t18 71zM655 705q0 -46 -17.5 -86t-49.5 -70t-77.5 -47t-100.5 -17q-65 0 -112 20.5t-78 57.5t-45.5 89.5t-14.5 117.5q0 67 15 129t48 109.5
t86 75.5t129 28q57 0 102 -13.5t84 -38.5l-57 -104q-55 38 -138 38q-31 0 -53.5 -11.5t-37 -31t-22 -46t-8.5 -56.5h3q17 19 48 36.5t79 17.5q57 0 98.5 -14t67.5 -39.5t38.5 -62t12.5 -82.5z" />
    <glyph glyph-name="sevensuperior" unicode="&#x2077;" horiz-adv-x="715" 
d="M585 980q-47 -34 -82.5 -74.5t-59.5 -94t-36.5 -123t-12.5 -159.5v-33h-157v18q0 45 6.5 107t23.5 126.5t48 125t79 101.5h-264v132h438l17 -126v0z" />
    <glyph glyph-name="eightsuperior" unicode="&#x2078;" horiz-adv-x="790" 
d="M481 682q0 43 -20.5 61.5t-64.5 18.5q-42 0 -65.5 -19.5t-23.5 -60.5q0 -42 23.5 -61t65.5 -19q44 0 64.5 19t20.5 61zM467 929q0 31 -16.5 49.5t-54.5 18.5q-40 0 -57 -18.5t-17 -49.5q0 -70 74 -70q39 0 55 17t16 53zM640 672q0 -39 -13 -72.5t-41.5 -58.5t-75 -39.5
t-113.5 -14.5q-68 0 -115 14.5t-76.5 39.5t-42.5 58.5t-13 72.5q0 104 97 144v3q-44 20 -64 52.5t-20 77.5q0 82 62 123.5t171 41.5q107 0 169 -41.5t62 -123.5q0 -45 -20.5 -77.5t-65.5 -52.5v-3q50 -20 74.5 -55t24.5 -89z" />
    <glyph glyph-name="ninesuperior" unicode="&#x2079;" horiz-adv-x="804" 
d="M306 900q0 -19 4.5 -36t14 -29.5t26 -20t40.5 -7.5q45 0 65.5 27.5t20.5 65.5q0 40 -20 67.5t-67 27.5q-48 0 -66 -26.5t-18 -68.5zM150 903q0 44 17.5 82.5t49.5 67t77 45t100 16.5q128 0 189 -73t61 -214q0 -77 -15 -139.5t-48 -107t-86 -69t-129 -24.5
q-56 0 -102.5 13.5t-84.5 38.5l56 104q55 -36 141 -36q30 0 52.5 12t36.5 33t21.5 48.5t7.5 58.5h-1q-18 -20 -47.5 -36t-79.5 -16q-58 0 -99 13.5t-67 39t-38 62t-12 81.5z" />
    <glyph glyph-name="zeroinferior" unicode="&#x2080;" horiz-adv-x="868" 
d="M544 254q0 40 -4.5 73.5t-16.5 58.5t-33 39t-55 14t-55.5 -14t-34 -39t-17 -58.5t-4.5 -73.5t4.5 -75.5t17 -61.5t34 -41.5t55.5 -15.5t55 15.5t33 41.5t16.5 61.5t4.5 75.5zM708 254q0 -158 -68 -238t-209 -80q-65 0 -115.5 22t-85 63t-52.5 100t-18 133q0 309 283 309
q65 0 114.5 -21.5t83 -61.5t50.5 -97t17 -129z" />
    <glyph glyph-name="oneinferior" unicode="&#x2081;" horiz-adv-x="584" 
d="M404 552v-610h-157v415l-106 -72l-61 112l208 155h116z" />
    <glyph glyph-name="twoinferior" unicode="&#x2082;" horiz-adv-x="743" 
d="M127 63q16 12 44.5 31.5t63 44t70 52t64 56t47 57t18.5 54.5q0 12 -4 24.5t-14 22.5t-26.5 16t-41.5 6q-38 0 -77.5 -15.5t-76.5 -50.5l-74 105q34 27 64.5 45t61 29.5t62 16t66.5 4.5q49 0 89 -12t68.5 -35.5t44 -58t15.5 -79.5q0 -34 -11 -67t-39.5 -69.5t-78 -77.5
t-127.5 -92h263v-128h-448z" />
    <glyph glyph-name="threeinferior" unicode="&#x2083;" horiz-adv-x="751" 
d="M601 127q0 -88 -66.5 -139.5t-193.5 -51.5q-67 0 -124 21t-107 57l72 107q23 -20 43.5 -32t40 -19t38.5 -9.5t39 -2.5q50 0 78 17.5t28 53.5q0 38 -24.5 49.5t-83.5 11.5h-84v117h73q45 0 73 13.5t28 50.5q0 9 -4.5 19.5t-15 19.5t-29 15t-46.5 6q-37 0 -74 -14.5
t-68 -42.5l-72 98q34 24 62.5 40t56.5 25.5t57.5 14t64.5 4.5q49 0 89.5 -11t69.5 -32t45 -52t16 -72q0 -47 -19 -76.5t-50 -48.5q40 -17 63.5 -50.5t23.5 -86.5z" />
    <glyph glyph-name="fourinferior" unicode="&#x2084;" horiz-adv-x="778" 
d="M403 181v228l-160 -228h160zM544 -58h-157v121h-252l-35 123l276 366h168v-358h94v-131h-94v-121z" />
    <glyph glyph-name="fiveinferior" unicode="&#x2085;" horiz-adv-x="735" 
d="M585 148q0 -98 -60 -155t-191 -57q-63 0 -113.5 16.5t-100.5 48.5l66 107q32 -25 67 -38t80 -13q92 0 92 90q0 81 -90 81q-60 0 -104 -38l-98 78l56 282h350v-132h-245l-24 -117l3 -3q20 17 46 27t72 10q40 0 75.5 -10t61.5 -32.5t41.5 -58t15.5 -86.5z" />
    <glyph glyph-name="sixinferior" unicode="&#x2086;" horiz-adv-x="805" 
d="M497 154q0 45 -18 69t-67 24q-46 0 -65.5 -25t-19.5 -68q0 -20 4.5 -37.5t14.5 -31t26.5 -21.5t39.5 -8q49 0 67 27.5t18 70.5zM655 154q0 -45 -17.5 -84.5t-49.5 -69t-77.5 -46.5t-100.5 -17q-65 0 -112 20t-78 57t-45.5 89.5t-14.5 117.5q0 68 15 130t48 109t86 75
t129 28q57 0 102 -13.5t84 -38.5l-57 -103q-52 36 -138 36q-31 0 -53.5 -11t-37 -30.5t-22 -45.5t-8.5 -57h3q17 19 48 35.5t79 16.5q115 0 166 -52t51 -146z" />
    <glyph glyph-name="seveninferior" unicode="&#x2087;" horiz-adv-x="715" 
d="M585 425q-47 -34 -82.5 -74.5t-59.5 -94t-36.5 -122.5t-12.5 -160v-32h-157v18q0 45 6.5 107.5t23.5 127t48 124.5t79 100h-264v133h438l17 -127v0z" />
    <glyph glyph-name="eightinferior" unicode="&#x2088;" horiz-adv-x="788" 
d="M481 130q0 43 -21 61.5t-64 18.5t-66.5 -19.5t-23.5 -59.5q0 -42 23.5 -61t66.5 -19q44 0 64.5 18.5t20.5 60.5zM467 379q0 29 -16.5 48.5t-54.5 19.5q-40 0 -58 -19.5t-18 -48.5q0 -71 76 -71q39 0 55 17t16 54zM638 121q0 -38 -12.5 -71.5t-41 -59t-75 -40
t-113.5 -14.5q-68 0 -114.5 14.5t-76 40t-42.5 59t-13 71.5q0 55 23 89.5t74 54.5v3q-45 20 -64.5 52t-19.5 77q0 82 62 124t171 42q106 0 167.5 -42t61.5 -124q0 -45 -20 -77t-65 -52v-3q51 -20 74.5 -54.5t23.5 -89.5z" />
    <glyph glyph-name="nineinferior" unicode="&#x2089;" horiz-adv-x="804" 
d="M306 349q0 -38 18.5 -64.5t66.5 -26.5q45 0 65.5 26.5t20.5 66.5t-19.5 66.5t-67.5 26.5t-66 -26.5t-18 -68.5zM150 352q0 45 17.5 83.5t49.5 67t77 44.5t100 16q128 0 189 -72.5t61 -215.5q0 -76 -15 -138.5t-48 -107t-86 -69t-129 -24.5q-56 0 -102.5 14.5t-84.5 39.5
l56 101q54 -35 141 -35q30 0 52.5 12.5t36.5 33.5t21.5 48.5t7.5 57.5h-1q-18 -20 -47.5 -36t-79.5 -16q-58 0 -99 14t-67 39.5t-38 62t-12 80.5z" />
    <glyph glyph-name="Euro" unicode="&#x20ac;" horiz-adv-x="1180" 
d="M120 334l32 108h87q-2 47 -2 62q0 13 2 49h-103l33 108h83q15 82 48 148t86 112t126 70.5t169 24.5q56 0 105.5 -9.5t95 -30t88.5 -52t86 -74.5l-125 -135q-55 64 -118 94t-131 30q-94 0 -145 -44t-69 -134h374l-30 -108h-358v-48q0 -16 2 -63h345l-32 -108h-299
q8 -40 23.5 -72.5t40 -55.5t60 -35.5t83.5 -12.5q146 0 272 126l111 -143q-88 -81 -176.5 -121t-196.5 -40q-102 0 -177 25t-127.5 71t-84 111.5t-46.5 146.5h-132z" />
    <glyph glyph-name="trademark" unicode="&#x2122;" horiz-adv-x="1222" 
d="M400 957v-302h-109v302h-131v92h370v-92h-130zM955 655l1 209l-120 -164l-122 164l1 -209h-104v394h91l134 -189l133 189h93v-394h-107z" />
    <glyph glyph-name="onethird" unicode="&#x2153;" horiz-adv-x="1750" 
d="M471 1104v-609h-155v413l-105 -72l-61 114l208 154h113zM560 -58h-126l793 1162h126zM1685 127q0 -88 -66.5 -139.5t-193.5 -51.5q-67 0 -124 21t-107 57l72 107q23 -20 43.5 -32t40 -19t38.5 -9.5t39 -2.5q50 0 78 17.5t28 53.5q0 38 -24.5 49.5t-83.5 11.5h-84v117h73
q45 0 73 13.5t28 50.5q0 9 -4.5 19.5t-15 19.5t-29 15t-46.5 6q-37 0 -74 -14.5t-68 -42.5l-72 98q34 24 62.5 40t56.5 25.5t57.5 14t64.5 4.5q49 0 89.5 -11t69.5 -32t45 -52t16 -72q0 -47 -19 -76.5t-50 -48.5q40 -17 63.5 -50.5t23.5 -86.5z" />
    <glyph glyph-name="twothirds" unicode="&#x2154;" horiz-adv-x="1750" 
d="M145 616q16 12 44.5 31t63 43t70 51.5t64 56t47 57.5t18.5 55q0 12 -3.5 24.5t-13.5 22.5t-26.5 16.5t-42.5 6.5q-38 0 -77.5 -16t-75.5 -51l-73 104q33 28 63.5 46t61 29t62 15.5t66.5 4.5q48 0 88 -12t68.5 -35.5t44 -57.5t15.5 -78q0 -35 -11 -68t-39.5 -69t-78 -77.5
t-127.5 -92.5h263v-127h-448zM599 -58h-126l793 1162h126zM1728 127q0 -88 -66.5 -139.5t-193.5 -51.5q-67 0 -124 21t-107 57l72 107q23 -20 43.5 -32t40 -19t38.5 -9.5t39 -2.5q50 0 78 17.5t28 53.5q0 38 -24.5 49.5t-83.5 11.5h-84v117h73q45 0 73 13.5t28 50.5
q0 9 -4.5 19.5t-15 19.5t-29 15t-46.5 6q-37 0 -74 -14.5t-68 -42.5l-72 98q34 24 62.5 40t56.5 25.5t57.5 14t64.5 4.5q49 0 89.5 -11t69.5 -32t45 -52t16 -72q0 -47 -19 -76.5t-50 -48.5q40 -17 63.5 -50.5t23.5 -86.5z" />
    <glyph glyph-name="onefifth" unicode="&#x2155;" horiz-adv-x="1750" 
d="M1689 148q0 -98 -60 -155t-191 -57q-63 0 -113.5 16.5t-100.5 48.5l66 107q32 -25 67 -38t80 -13q92 0 92 90q0 81 -90 81q-60 0 -104 -38l-98 78l56 282h350v-132h-245l-24 -117l3 -3q20 17 46 27t72 10q40 0 75.5 -10t61.5 -32.5t41.5 -58t15.5 -86.5zM563 -58h-126
l793 1162h126zM471 1104v-609h-155v413l-105 -72l-61 114l208 154h113z" />
    <glyph glyph-name="threefifths" unicode="&#x2157;" horiz-adv-x="1750" 
d="M625 679q0 -89 -67 -140.5t-194 -51.5q-66 0 -123 20t-106 58l71 107q24 -20 44.5 -32t39.5 -19t37.5 -9.5t38.5 -2.5q49 0 78.5 17.5t29.5 53.5q0 38 -24.5 51.5t-83.5 13.5h-86v117h74q45 0 72.5 15t27.5 50q0 10 -4.5 20.5t-15 19.5t-28.5 14.5t-46 5.5
q-36 0 -73.5 -14t-67.5 -43l-72 101q33 24 62 39.5t57 25.5t57 14t63 4q49 0 89.5 -11t69 -32t44.5 -52.5t16 -71.5q0 -46 -18.5 -77.5t-48.5 -50.5q41 -19 64 -53.5t23 -86.5zM1725 148q0 -98 -60 -155t-191 -57q-63 0 -113.5 16.5t-100.5 48.5l66 107q32 -25 67 -38
t80 -13q92 0 92 90q0 81 -90 81q-60 0 -104 -38l-98 78l56 282h350v-132h-245l-24 -117l3 -3q20 17 46 27t72 10q40 0 75.5 -10t61.5 -32.5t41.5 -58t15.5 -86.5zM599 -58h-126l793 1162h126z" />
    <glyph glyph-name="minus" unicode="&#x2212;" horiz-adv-x="1030" 
d="M193 319v180h644v-180h-644z" />
    <glyph glyph-name="lessequal" unicode="&#x2264;" horiz-adv-x="1268" 
d="M194 0v143h860v-143h-860zM195 520v163l862 303v-167l-655 -217l655 -217v-169z" />
    <glyph glyph-name="greaterequal" unicode="&#x2265;" horiz-adv-x="1224" 
d="M167 0v143h860v-143h-860zM164 216v169l655 216l-655 218v167l861 -303v-163z" />
    <glyph glyph-name="commaaccent" unicode="&#xf6c3;" 
d="M341 -380h-134l73 280h212z" />
    <glyph glyph-name="glyph182" 
d="M346 817h-134l68 268h212z" />
    <glyph glyph-name="glyph183" 
d="M368 1181h134l-66 -250h-212z" />
    </font>
</defs>
</svg>
