<?xml version="1.0" standalone="no"?>
<!DOCTYPE svg PUBLIC "-//W3C//DTD SVG 1.1//EN" "http://www.w3.org/Graphics/SVG/1.1/DTD/svg11.dtd" >
<svg xmlns="http://www.w3.org/2000/svg" xmlns:xlink="http://www.w3.org/1999/xlink" version="1.1">
<metadata>
Created by FontForge 20170731 at Sun Oct 20 04:40:01 2002
 By Aleksey,,,
Copyright (c) Terminal Design, Inc., 2002. All rights reserved.
</metadata>
<defs>
<font id="ClearviewHwy-Five-W" horiz-adv-x="1250" >
  <font-face 
    font-family="ClearviewHwy-5-W"
    font-weight="400"
    font-stretch="normal"
    units-per-em="1448"
    panose-1="2 0 5 4 4 0 0 2 0 4"
    ascent="1158"
    descent="-290"
    x-height="817"
    cap-height="1000"
    bbox="-275 -371 2355 1404"
    underline-thickness="106"
    underline-position="-280"
    unicode-range="U+0020-F004"
  />
<missing-glyph horiz-adv-x="749" 
 />
    <glyph glyph-name=".notdef" horiz-adv-x="749" 
 />
    <glyph glyph-name=".null" horiz-adv-x="0" 
 />
    <glyph glyph-name="nonmarkingreturn" horiz-adv-x="749" 
 />
    <glyph glyph-name="space" unicode=" " horiz-adv-x="800" 
 />
    <glyph glyph-name="exclam" unicode="!" horiz-adv-x="609" 
d="M429 86q0 -23 -9.5 -41.5t-26 -32.5t-39 -21.5t-48.5 -7.5q-27 0 -50 7.5t-40 21.5t-26.5 32.5t-9.5 41.5q0 45 36 73t89 28q54 0 89 -28t35 -73zM384 294h-155l-29 706h213z" />
    <glyph glyph-name="quotedbl" unicode="&#x22;" horiz-adv-x="822" 
d="M307 692h-131l-36 357h207zM641 692h-131l-35 357h207z" />
    <glyph glyph-name="numbersign" unicode="#" horiz-adv-x="1137" 
d="M491 688l-24 -190h181l27 190h-184zM976 688h-151l-30 -190h162l-20 -140h-164l-24 -187h-154l30 187h-178l-27 -187h-145l25 187h-160l18 140h162l24 190h-163l19 136h164l24 176h149l-25 -176h186l27 176h147l-26 -176h151z" />
    <glyph glyph-name="dollar" unicode="$" horiz-adv-x="921" 
d="M801 310q0 -42 -13 -84.5t-42 -78t-77 -61.5t-117 -35v-120h-176v122q-127 10 -256 90l73 141q69 -48 135 -72t132 -24q79 0 120 28t41 82q0 40 -22 64t-74 47l-181 75q-51 22 -88.5 45.5t-63 52.5t-38 64.5t-12.5 80.5t13.5 85.5t42 73t72.5 54t106 28.5v114h176v-115
q55 -5 105 -20.5t105 -42.5l-61 -147q-60 35 -113.5 52t-116.5 17q-68 0 -106.5 -22t-38.5 -67q0 -19 6.5 -32.5t21 -25.5t38.5 -24t59 -27l154 -63q102 -42 149 -102.5t47 -152.5z" />
    <glyph glyph-name="percent" unicode="%" horiz-adv-x="1740" 
d="M1476 250q0 44 -5 80.5t-18 62.5t-34 40.5t-54 14.5q-32 0 -53.5 -14.5t-34 -40.5t-17.5 -62.5t-5 -80.5t5 -80.5t17.5 -63t34 -41.5t53.5 -15q33 0 54 15t34 41.5t18 63t5 80.5zM1620 250q0 -152 -63.5 -233t-194.5 -81q-62 0 -109 22t-79 62.5t-48.5 99t-16.5 130.5
q0 152 65.5 232t195.5 80q61 0 108 -21.5t78.5 -62t47.5 -98t16 -130.5zM550 -64h-134l750 1178h132zM487 802q0 44 -5 80.5t-18 62.5t-34 40.5t-54 14.5t-54 -14.5t-34 -40.5t-18 -62.5t-5 -80.5t5 -81t18 -63.5t34 -41.5t54 -15t54 15t34 41.5t18 63.5t5 81zM631 802
q0 -153 -63.5 -234t-194.5 -81q-62 0 -109 22t-79 63t-48.5 99.5t-16.5 130.5q0 152 65 232t196 80q61 0 108 -21.5t78.5 -62t47.5 -98.5t16 -130z" />
    <glyph glyph-name="ampersand" unicode="&#x26;" horiz-adv-x="1116" 
d="M706 462h-196q-89 0 -127.5 -34.5t-38.5 -113.5q0 -86 45 -131t136 -45q58 0 93.5 14t55 42t26 68.5t6.5 94.5v105zM887 462v-107q0 -81 -18.5 -148.5t-61 -116.5t-111 -76.5t-168.5 -27.5q-86 0 -154.5 21t-116 62t-72.5 100t-25 136q0 93 42.5 155t117.5 84v4
q-63 24 -96.5 77.5t-33.5 123.5q0 65 23 115t65.5 84t102 51.5t132.5 17.5q55 0 104.5 -10.5t104.5 -35.5l-47 -142q-30 16 -67 25t-77 9q-79 0 -118 -32t-39 -94q0 -34 14.5 -57t40 -36.5t61 -19.5t77.5 -6h139v122h179v-122h131v-156h-129z" />
    <glyph glyph-name="quotesingle" unicode="'" horiz-adv-x="487" 
d="M307 692h-131l-36 357h207z" />
    <glyph glyph-name="parenleft" unicode="(" horiz-adv-x="574" 
d="M292 -204q-37 95 -64 182t-44 170t-25.5 164.5t-8.5 166.5t8.5 167t25.5 165.5t44 170.5t64 182l132 -36q-25 -83 -43.5 -162t-30.5 -157.5t-17.5 -159.5t-5.5 -168q0 -88 5.5 -168.5t17 -159.5t30 -157.5t44.5 -162.5z" />
    <glyph glyph-name="parenright" unicode=")" horiz-adv-x="574" 
d="M424 479q0 -87 -9 -170t-27 -166.5t-44.5 -169t-61.5 -177.5l-132 37q25 84 43.5 162.5t30.5 157.5t17.5 160t5.5 168t-5.5 167.5t-17.5 159.5t-30.5 158t-43.5 162l132 36q36 -93 62.5 -178.5t44.5 -169t26.5 -166.5t8.5 -171z" />
    <glyph glyph-name="asterisk" unicode="*" horiz-adv-x="782" 
d="M473 812v-5l112 -104l-123 -85l-68 138h-5l-69 -140l-124 86l114 105v5l-160 17l46 138l142 -70l2 2l-30 150h158l-26 -149l2 -1l140 69l48 -138z" />
    <glyph glyph-name="plus" unicode="+" horiz-adv-x="972" 
d="M572 327v-252h-171v252h-251v165h251v235h171v-235h250v-165h-250z" />
    <glyph glyph-name="comma" unicode="," horiz-adv-x="528" 
d="M258 -194h-128l63 365h205z" />
    <glyph glyph-name="hyphen" unicode="-" horiz-adv-x="792" 
d="M200 347v185h392v-185h-392z" />
    <glyph glyph-name="hyphen" unicode="&#xad;" horiz-adv-x="792" 
d="M200 347v185h392v-185h-392z" />
    <glyph glyph-name="period" unicode="." horiz-adv-x="529" 
d="M389 87q0 -23 -9.5 -42t-26.5 -33t-39.5 -21.5t-47.5 -7.5q-55 0 -90.5 29t-35.5 75q0 22 9.5 41t26 32t39 20.5t49.5 7.5q26 0 49 -7.5t40 -20.5t26.5 -32t9.5 -41z" />
    <glyph glyph-name="slash" unicode="/" horiz-adv-x="940" 
d="M277 -173h-167l551 1222h169z" />
    <glyph glyph-name="zero" unicode="0" horiz-adv-x="1155" 
d="M792 499q0 71 -7.5 136t-30.5 115t-65 79.5t-111 29.5t-111 -29.5t-65.5 -79.5t-31 -115t-7.5 -136q0 -79 9.5 -145t34 -113.5t66 -74t105.5 -26.5q63 0 104.5 26.5t66 74t34 113.5t9.5 145zM985 501q0 -115 -23 -210.5t-72.5 -164t-126.5 -106.5t-185 -38t-185.5 38
t-127 106.5t-72.5 164t-23 210.5t24 209.5t73.5 162.5t126.5 105.5t184 37.5q106 0 183 -37.5t127 -105.5t73.5 -162.5t23.5 -209.5z" />
    <glyph glyph-name="one" unicode="1" horiz-adv-x="752" 
d="M363 0l3 760h-5l-176 -147l-85 143l300 247h152v-1003h-189z" />
    <glyph glyph-name="two" unicode="2" horiz-adv-x="969" 
d="M148 0l-28 167q117 104 208.5 183.5t153.5 144.5t94.5 122t32.5 116q0 25 -7.5 47t-23.5 39t-41 27t-61 10q-66 0 -122 -30.5t-116 -95.5l-106 133q43 40 84.5 69t84.5 48t89 27.5t99 8.5q71 0 128.5 -18t98 -53.5t62.5 -87.5t22 -120q0 -62 -20 -121t-72.5 -125.5
t-142.5 -147t-231 -185.5l475 3v-161h-661z" />
    <glyph glyph-name="three" unicode="3" horiz-adv-x="967" 
d="M807 295q0 -68 -23 -125.5t-69.5 -99t-116 -64.5t-162.5 -23q-47 0 -89.5 6t-82.5 18.5t-78 32.5t-76 48l82 143q35 -25 65.5 -42.5t58.5 -28t56 -15.5t59 -5q41 0 75 8.5t59 27.5t38.5 49t13.5 72q0 79 -39.5 112t-119.5 33h-133v156h59q96 0 151 29t55 100
q0 27 -7.5 50.5t-25.5 41.5t-47.5 28t-72.5 10q-60 0 -117.5 -24.5t-110.5 -69.5l-87 137q43 30 84 52t82 35.5t83.5 20t89.5 6.5q70 0 128.5 -17t101 -51.5t66.5 -87t24 -122.5q0 -71 -29.5 -121t-93.5 -82v-2q76 -23 112.5 -82.5t36.5 -153.5z" />
    <glyph glyph-name="four" unicode="4" horiz-adv-x="1038" 
d="M575 778l-261 -414h262l4 414h-5zM763 204v-204h-194v204h-405l-44 147l439 649h204v-636h145v-160h-145z" />
    <glyph glyph-name="five" unicode="5" horiz-adv-x="1000" 
d="M840 345q0 -85 -24.5 -152.5t-72.5 -114t-118.5 -71.5t-162.5 -25q-46 0 -86.5 5.5t-78 17t-74 30t-73.5 45.5l87 140q53 -42 106 -62.5t110 -20.5q200 0 200 208q0 95 -46 143t-134 48q-58 0 -101.5 -21.5t-77.5 -67.5l-136 98l77 455h543v-165h-395l-41 -210v-5
q42 35 85.5 50t100.5 15q72 0 130 -22.5t98.5 -66t62 -107t21.5 -144.5z" />
    <glyph glyph-name="six" unicode="6" horiz-adv-x="1035" 
d="M702 331q0 84 -42.5 130.5t-125.5 46.5q-81 0 -127 -49t-46 -134q0 -87 44.5 -135.5t128.5 -48.5q81 0 124.5 50.5t43.5 139.5zM885 334q0 -79 -25 -143.5t-71.5 -110.5t-112 -71.5t-145.5 -25.5q-96 0 -165.5 33t-115.5 94.5t-68 150.5t-22 200q0 118 20 219.5t67.5 176
t125.5 117t195 42.5q73 0 136.5 -17.5t126.5 -55.5l-82 -138q-45 29 -86 42t-92 13q-54 0 -94.5 -16t-68 -51.5t-42.5 -92.5t-18 -138h5q31 50 84.5 75t124.5 25q75 0 135 -23t101.5 -65.5t64 -103t22.5 -136.5z" />
    <glyph glyph-name="seven" unicode="7" horiz-adv-x="905" 
d="M805 840q-63 -53 -110.5 -101t-82 -97.5t-57.5 -105t-37 -123t-19.5 -151t-5.5 -189.5v-73h-197v47q0 101 8 206.5t37 208t86 197.5t155 176v1h-482v164h676z" />
    <glyph glyph-name="eight" unicode="8" horiz-adv-x="1053" 
d="M705 292q0 33 -7.5 62.5t-27 51.5t-54 35t-89.5 13q-36 0 -68 -6.5t-57 -24.5t-39.5 -50t-14.5 -84q0 -37 9 -66t30 -49.5t55.5 -31.5t84.5 -11q42 0 75 8t56 26.5t35 49.5t12 77zM679 736q0 66 -36 98t-116 32t-116.5 -31t-36.5 -99q0 -137 153 -137q152 0 152 137z
M893 294q0 -68 -20 -125t-63.5 -98.5t-113 -64.5t-168.5 -23t-169 23t-114.5 64.5t-64.5 98.5t-20 125q0 91 38 147.5t120 91.5v3q-71 35 -101.5 86t-30.5 126q0 127 84 197.5t257 70.5q163 0 251 -66t88 -202q0 -75 -30 -126t-101 -86v-3q83 -35 120.5 -91.5t37.5 -147.5z
" />
    <glyph glyph-name="nine" unicode="9" horiz-adv-x="1039" 
d="M678 673q0 41 -10 75t-31 59t-54 38.5t-79 13.5q-81 0 -124.5 -50.5t-43.5 -138.5q0 -84 42 -129.5t127 -45.5q83 0 127 47t44 131h2zM879 514q0 -128 -23.5 -227t-72.5 -166.5t-126 -102.5t-183 -35q-81 0 -144 21t-124 68l87 129q25 -19 46.5 -31t42.5 -19.5
t43.5 -10.5t49.5 -3q55 0 95.5 16t68 53t41.5 96t16 145h-4q-70 -112 -215 -112q-72 0 -132 23t-103.5 66t-67.5 104.5t-24 138.5q0 79 26 143.5t73 110.5t113 70.5t146 24.5q181 0 276 -125t95 -377z" />
    <glyph glyph-name="colon" unicode=":" horiz-adv-x="529" 
d="M389 609q0 -23 -9.5 -42t-26.5 -33t-39.5 -21.5t-47.5 -7.5q-55 0 -90.5 29t-35.5 75q0 22 9.5 41t26 32t39 20.5t49.5 7.5q26 0 49 -7.5t40 -20.5t26.5 -32t9.5 -41zM389 87q0 -23 -9.5 -42t-26.5 -33t-39.5 -21.5t-47.5 -7.5q-55 0 -90.5 29t-35.5 75q0 22 9.5 41
t26 32t39 20.5t49.5 7.5q26 0 49 -7.5t40 -20.5t26.5 -32t9.5 -41z" />
    <glyph glyph-name="semicolon" unicode=";" horiz-adv-x="532" 
d="M402 628q0 -24 -9.5 -44t-26 -34t-39 -22t-49.5 -8q-54 0 -90 30t-36 78q0 23 9.5 42.5t26.5 33.5t40 22t50 8q54 0 89 -29.5t35 -76.5zM242 -201h-132l63 378h215z" />
    <glyph glyph-name="semicolon" unicode="&#x37e;" horiz-adv-x="532" 
d="M402 628q0 -24 -9.5 -44t-26 -34t-39 -22t-49.5 -8q-54 0 -90 30t-36 78q0 23 9.5 42.5t26.5 33.5t40 22t50 8q54 0 89 -29.5t35 -76.5zM242 -201h-132l63 378h215z" />
    <glyph glyph-name="less" unicode="&#x3c;" horiz-adv-x="1137" 
d="M160 332v153l807 335v-153l-633 -256l633 -260v-151z" />
    <glyph glyph-name="equal" unicode="=" horiz-adv-x="964" 
d="M180 164v160h604v-160h-604zM180 471v161h604v-161h-604z" />
    <glyph glyph-name="greater" unicode="&#x3e;" horiz-adv-x="1157" 
d="M167 0v151l635 258l-635 258v153l807 -335v-153z" />
    <glyph glyph-name="question" unicode="?" horiz-adv-x="918" 
d="M523 87q0 -46 -34.5 -75t-87.5 -29t-87.5 29t-34.5 75q0 45 34.5 73t86.5 28q54 0 88.5 -28.5t34.5 -72.5zM778 742q0 -93 -40.5 -156t-127.5 -108l-63 -33q-19 -10 -29.5 -17t-15.5 -16.5t-6 -23t-1 -37.5v-69h-179v107q0 34 4 57.5t14.5 40.5t28.5 31t47 30l61 28
q31 16 54 30.5t37.5 31.5t21.5 38.5t7 50.5q0 62 -39.5 97t-113.5 35q-120 0 -211 -84l-87 139q41 28 79 47.5t76.5 31.5t79.5 17.5t88 5.5q155 0 235 -72.5t80 -201.5z" />
    <glyph glyph-name="at" unicode="@" horiz-adv-x="1328" 
d="M771 561q3 21 1 39t-11.5 31t-28 20t-47.5 7q-68 0 -100.5 -52t-32.5 -167q0 -58 23 -83t68 -25q54 0 81 32.5t35 93.5zM1168 588q0 -95 -24 -165t-62.5 -116t-87 -68.5t-97.5 -22.5q-19 0 -38.5 5t-36.5 15.5t-29.5 27t-16.5 40.5h-3q-32 -42 -77 -63t-98 -21
q-85 0 -136 60t-51 172q0 55 14 111.5t44 102.5t77.5 75t115.5 29q45 0 73.5 -14.5t51.5 -46.5h3l6 47h140l-51 -404q-2 -16 10 -29t35 -13q21 0 47 15t48.5 48.5t37.5 88t15 133.5q0 82 -26.5 145t-74.5 106t-115.5 65t-149.5 22q-103 0 -186.5 -30t-142.5 -87.5t-91 -141
t-32 -190.5q0 -101 27 -180.5t79 -134t127.5 -83t172.5 -28.5q91 0 164.5 24t133.5 71l46 -73q-78 -58 -166 -81t-188 -23q-107 0 -198 33.5t-157 98.5t-103.5 160.5t-37.5 220.5q0 120 41.5 217.5t115 166.5t174 106t217.5 37q99 0 183.5 -27.5t146 -81.5t96 -134
t34.5 -185z" />
    <glyph glyph-name="A" unicode="A" horiz-adv-x="1120" 
d="M558 817h-5l-141 -436h287zM822 0l-79 220h-372l-77 -220h-204l357 1004h220l363 -1004h-208z" />
    <glyph glyph-name="B" unicode="B" horiz-adv-x="1111" 
d="M765 291q0 54 -19.5 85t-50 46.5t-68.5 19t-75 3.5q-88 0 -157 -3v-297q43 -2 79 -2h82t84.5 4.5t66 19.5t43 44.5t15.5 79.5zM732 723q0 74 -44 105t-146 31q-17 0 -36.5 -0.5t-39.5 -1.5t-38.5 -2t-31.5 -2v-267q32 -2 67 -2.5t82 -0.5q50 0 85.5 6.5t58 22.5t33 43
t10.5 68zM961 275q0 -144 -88 -209.5t-251 -65.5h-422v993q82 8 170.5 13t169.5 5q69 0 137.5 -10t124 -39.5t90 -82t34.5 -136.5q0 -89 -39 -139t-114 -75v-4q94 -18 141 -81t47 -169z" />
    <glyph glyph-name="C" unicode="C" horiz-adv-x="1086" 
d="M976 135q-78 -76 -164.5 -114t-190.5 -38q-120 0 -207 38.5t-143.5 107.5t-83.5 164.5t-27 210.5q0 109 28.5 202.5t86.5 162.5t144 108t202 39q104 0 187 -37.5t163 -116.5l-118 -132q-54 60 -106.5 90.5t-121.5 30.5q-129 0 -194.5 -88t-65.5 -259q0 -74 13.5 -139
t43.5 -113.5t79.5 -76.5t121.5 -28t130.5 30t118.5 91z" />
    <glyph glyph-name="D" unicode="D" horiz-adv-x="1166" 
d="M802 509q0 42 -4 84t-15 81t-30.5 72t-49.5 58t-72 39t-99 14q-33 0 -68.5 -1t-67.5 -5v-694q32 -1 54 -1h49q73 0 129.5 17t95 57.5t58.5 108.5t20 170zM1006 505q0 -122 -31 -216t-92 -158t-151.5 -97.5t-209.5 -33.5h-322v994q34 3 75 6.5t84 5.5t85 3.5t79 1.5
q112 0 202 -31t152 -94t95.5 -158t33.5 -223z" />
    <glyph glyph-name="E" unicode="E" horiz-adv-x="979" 
d="M200 0v1000h625v-165h-429v-236h388v-166h-388v-272h443v-161h-639z" />
    <glyph glyph-name="F" unicode="F" horiz-adv-x="943" 
d="M396 835v-242h376v-166h-376v-427h-196v1000h613v-165h-417z" />
    <glyph glyph-name="G" unicode="G" horiz-adv-x="1186" 
d="M1026 445q0 -107 -22.5 -192.5t-71.5 -145.5t-126.5 -92t-186.5 -32q-107 0 -192 36t-144 102.5t-91 162t-32 214.5t32.5 215t92.5 163.5t145.5 103.5t190.5 36q60 0 109.5 -11.5t91 -31.5t76 -46t64.5 -54l-113 -131q-54 54 -107 81.5t-116 27.5q-74 0 -123.5 -27.5
t-80.5 -75.5t-44 -112t-13 -137t12 -139t41.5 -116t79 -79.5t125.5 -29.5q117 0 169.5 68.5t52.5 188.5h-224v161h405v-108z" />
    <glyph glyph-name="H" unicode="H" horiz-adv-x="1167" 
d="M772 0v436h-376v-436h-196v1000h196v-381h376v381h195v-1000h-195z" />
    <glyph glyph-name="I" unicode="I" horiz-adv-x="596" 
d="M200 0v1000h196v-1000h-196z" />
    <glyph glyph-name="J" unicode="J" horiz-adv-x="837" 
d="M637 301q0 -70 -13.5 -128.5t-45.5 -101t-86 -66t-135 -23.5q-53 0 -92.5 8.5t-71.5 22.5t-59 33.5t-54 41.5l88 140q20 -18 38.5 -33t39 -25.5t43 -16.5t50.5 -6q52 0 77.5 31.5t25.5 101.5v720h195v-699z" />
    <glyph glyph-name="K" unicode="K" horiz-adv-x="1069" 
d="M738 0l-255 436l-88 -106v-330h-195v1000h195v-432h6l305 432h240l-322 -424l355 -576h-241z" />
    <glyph glyph-name="L" unicode="L" horiz-adv-x="907" 
d="M200 0v1000h195v-835h392v-165h-587z" />
    <glyph glyph-name="M" unicode="M" horiz-adv-x="1318" 
d="M927 0v677h-4l-261 -412h-6l-260 410h-4v-675h-192v1000h192l265 -428h6l264 428h191v-1000h-191z" />
    <glyph glyph-name="N" unicode="N" horiz-adv-x="1223" 
d="M837 0l-443 663h-3v-663h-191v1000h187l440 -662h3v662h193v-1000h-186z" />
    <glyph glyph-name="O" unicode="O" 
d="M886 501q0 79 -12 144.5t-41.5 112.5t-80 73t-127.5 26t-127 -26t-79.5 -73t-41.5 -112.5t-12 -144.5q0 -80 12 -145.5t41.5 -112.5t80 -73t127.5 -26q76 0 126.5 26t80 73.5t41.5 113t12 144.5zM1090 501q0 -124 -31.5 -220.5t-91 -162.5t-145.5 -100.5t-196 -34.5
t-196.5 34.5t-146.5 100.5t-91.5 162.5t-31.5 220.5q0 122 31 218t91 162t146.5 100.5t197.5 34.5t197.5 -34.5t145.5 -100.5t90 -162t31 -218z" />
    <glyph glyph-name="P" unicode="P" horiz-adv-x="1046" 
d="M729 686q0 48 -10 80t-33 51.5t-59.5 28t-88.5 8.5q-33 0 -68.5 -1.5t-74.5 -3.5v-332h150q43 0 77 5t58 22t36.5 51t12.5 91zM926 691q0 -77 -19.5 -138.5t-61 -104.5t-106.5 -65.5t-156 -22.5h-188v-360h-195v993q66 7 154 12t178 5q82 0 154 -15t125.5 -52t84 -98
t30.5 -154z" />
    <glyph glyph-name="Q" unicode="Q" 
d="M886 501q0 76 -10.5 141.5t-39.5 112.5t-80 74t-131 27t-130.5 -27t-79.5 -74.5t-39.5 -112.5t-10.5 -141t11 -141.5t40 -113.5t79.5 -75t130.5 -27q79 0 129.5 27.5t79.5 76t40 113.5t11 140zM1090 501q0 -63 -9 -123.5t-29 -115.5t-53.5 -103t-82.5 -86v-1
q26 -7 41.5 -18l31 -22t39.5 -23.5t62 -18.5l-65 -140q-56 2 -102 24t-82 47t-70 45.5t-65 20.5q-18 0 -32.5 -2t-33.5 -2q-120 0 -210 35t-150 101.5t-90 163t-30 218.5q0 117 28.5 212.5t86.5 162.5t145.5 103.5t205.5 36.5t205 -36.5t144.5 -103.5t86 -162.5t28.5 -212.5
z" />
    <glyph glyph-name="R" unicode="R" horiz-adv-x="1097" 
d="M725 699q0 46 -13.5 76.5t-38 48.5t-60 25t-79.5 7q-37 0 -70.5 -1.5t-68.5 -4.5v-306h158q40 0 72 7t54 24.5t34 47.5t12 76zM740 0l-131 348q-9 23 -19 32t-35 9h-160v-389h-195v993q81 10 164.5 13.5t166.5 3.5q76 0 146.5 -13t125 -47t87.5 -92t33 -148
q0 -97 -39 -165.5t-128 -103.5v-2q15 -5 24 -25.5t15 -34.5l152 -379h-207z" />
    <glyph glyph-name="S" unicode="S" horiz-adv-x="974" 
d="M844 291q0 -82 -28 -140t-76 -94.5t-113 -53.5t-138 -17q-54 0 -102.5 6.5t-93.5 19.5t-87.5 33.5t-85.5 47.5l80 151q63 -45 132 -75.5t147 -30.5q31 0 62 6.5t55 22.5t39 41.5t15 64.5q0 35 -17.5 60t-47 44t-68.5 33.5t-81 28.5q-51 18 -101.5 40.5t-91.5 56t-66.5 83
t-25.5 121.5q0 75 29 127t76.5 85t108.5 47.5t125 14.5q88 0 165 -22t152 -63l-64 -156q-55 38 -112 61t-126 23q-32 0 -60.5 -5.5t-50.5 -18.5t-35 -34.5t-13 -52.5q0 -32 17.5 -54t47 -38.5t67.5 -30t80 -27.5q51 -17 102 -39t92 -56t66.5 -84.5t25.5 -125.5z" />
    <glyph glyph-name="T" unicode="T" horiz-adv-x="923" 
d="M559 833v-833h-196v833h-263v167h723v-167h-264z" />
    <glyph glyph-name="U" unicode="U" horiz-adv-x="1177" 
d="M977 406q0 -101 -20.5 -179.5t-66 -132.5t-120 -82.5t-182.5 -28.5t-182 28.5t-120 82.5t-66 132.5t-20 179.5v594h196v-575q0 -58 5.5 -108.5t25.5 -88t58.5 -59t103.5 -21.5t103 22t58 59.5t26 88t6 107.5v575h195v-594z" />
    <glyph glyph-name="V" unicode="V" horiz-adv-x="1027" 
d="M619 0h-213l-316 1000h208l216 -783h3l215 783h205z" />
    <glyph glyph-name="W" unicode="W" horiz-adv-x="1526" 
d="M1169 0h-218l-186 716h-7l-188 -716h-223l-247 1000h212l157 -775h2l200 775h190l192 -773h8l159 773h206z" />
    <glyph glyph-name="X" unicode="X" horiz-adv-x="1023" 
d="M719 0l-206 358h-3l-205 -358h-225l318 520l-282 480h228l175 -337h3l180 337h224l-291 -494l308 -506h-224z" />
    <glyph glyph-name="Y" unicode="Y" horiz-adv-x="1018" 
d="M608 391v-391h-195v385l-343 615h220l222 -441l223 441h213z" />
    <glyph glyph-name="Z" unicode="Z" horiz-adv-x="976" 
d="M130 0v151l464 682h-442l-1 167h681v-151l-470 -688h484v-161h-716z" />
    <glyph glyph-name="bracketleft" unicode="[" horiz-adv-x="629" 
d="M150 -181v1345h329v-115h-160v-1115h160v-115h-329z" />
    <glyph glyph-name="backslash" unicode="\" horiz-adv-x="940" 
d="M665 -173l-555 1222h169l551 -1222h-165z" />
    <glyph glyph-name="bracketright" unicode="]" horiz-adv-x="628" 
d="M150 -181v115h159v1115h-159v115h328v-1345h-328z" />
    <glyph glyph-name="asciicircum" unicode="^" horiz-adv-x="797" 
d="M619 758l-220 117l-226 -117l-83 123l307 163l310 -163z" />
    <glyph glyph-name="underscore" unicode="_" horiz-adv-x="929" 
d="M90 -244v123h749v-123h-749z" />
    <glyph glyph-name="grave" unicode="`" horiz-adv-x="526" 
d="M332 923l-249 149l168 87l191 -176z" />
    <glyph glyph-name="a" unicode="a" horiz-adv-x="1002" 
d="M624 411q-47 0 -100.5 -4.5t-100 -21.5t-77 -51t-30.5 -93q0 -56 28 -92t86 -36q54 0 102 21t92 56v221zM758 -12q-42 10 -72.5 32t-41.5 64h-3q-57 -48 -124.5 -75t-142.5 -27q-57 0 -102 17.5t-76.5 50t-48.5 78.5t-17 102q0 65 22.5 112t60.5 80t88 53.5t105 31.5
t111.5 15t108.5 4v36q0 66 -27 96t-99 30q-78 0 -150 -22.5t-138 -60.5l-56 138q88 44 173.5 67t184.5 23q82 0 139 -18t92.5 -55t51 -94t15.5 -135v-326q0 -22 3 -37t9.5 -27t18 -22t29.5 -20z" />
    <glyph glyph-name="b" unicode="b" horiz-adv-x="1064" 
d="M721 409q0 55 -5.5 104.5t-23.5 87t-53 60t-94 22.5q-78 0 -121.5 -39t-43.5 -124v-193q0 -43 8 -80t27 -64.5t50.5 -43t77.5 -15.5q57 0 92 25.5t54 66t25.5 91.5t6.5 102zM914 412q0 -80 -17 -157.5t-56 -138t-101 -97.5t-152 -37q-72 0 -127.5 28.5t-90.5 92.5h-4
l-27 -103h-149v1085h190v-356h2q33 59 86.5 81.5t118.5 22.5q89 0 151 -34t101 -91.5t57 -134t18 -161.5z" />
    <glyph glyph-name="c" unicode="c" horiz-adv-x="929" 
d="M748 599q-45 42 -90.5 63t-105.5 21t-100 -23.5t-64 -61.5t-33.5 -87.5t-9.5 -101.5q0 -53 10 -103t34 -89t64 -62.5t99 -23.5q60 0 112 20t103 62l62 -133q-68 -50 -138 -74t-155 -24q-97 0 -169.5 31.5t-120.5 87.5t-72 133.5t-24 170.5t25 171.5t75 135.5t123.5 89
t171.5 32q78 0 149.5 -26.5t134.5 -74.5z" />
    <glyph glyph-name="d" unicode="d" horiz-adv-x="1066" 
d="M686 520q0 85 -43 124t-121 39q-59 0 -94 -22.5t-53.5 -60.5t-24 -87.5t-5.5 -103.5q0 -51 6.5 -101.5t25.5 -91t54 -65.5t92 -25q46 0 77.5 15.5t50.5 42t27 63t8 78.5v195zM715 0l-15 97h-7q-36 -58 -91.5 -86.5t-125.5 -28.5q-89 0 -151 37t-101 97.5t-56.5 138
t-17.5 157.5q0 85 18 161.5t57 134t101.5 91.5t151.5 34q63 0 116 -21.5t89 -75.5h3v349h190v-1085h-161z" />
    <glyph glyph-name="e" unicode="e" horiz-adv-x="1037" 
d="M709 471q0 45 -9 85t-29 69.5t-53.5 46.5t-82.5 17q-88 0 -139.5 -56t-51.5 -162h365zM887 411q0 -14 -0.5 -29.5t-2.5 -35.5h-540q1 -105 52 -161t159 -56q62 0 114.5 17t113.5 58l63 -137q-74 -46 -147 -65.5t-154 -19.5q-96 0 -169.5 30.5t-124 86t-76 134
t-25.5 175.5q0 108 30 188t81.5 132.5t122 78.5t151.5 26q87 0 152.5 -29t110 -83.5t67 -133t22.5 -176.5z" />
    <glyph glyph-name="f" unicode="f" horiz-adv-x="690" 
d="M590 947q-19 2 -37 4t-41 2q-29 0 -48.5 -4.5t-31 -15t-16.5 -28.5t-5 -45v-57h166v-153h-161v-650h-189v649h-117v154h117v60q0 63 11 107t40 71.5t80 40t131 12.5q21 0 48 -1t53 -6v-140z" />
    <glyph glyph-name="g" unicode="g" horiz-adv-x="1069" 
d="M688 514q0 82 -43.5 126.5t-124.5 44.5q-56 0 -90.5 -21.5t-53 -58t-25 -84t-6.5 -99.5q0 -47 7 -92t26 -80.5t53 -57.5t89 -22q48 0 80.5 17t52 45.5t27.5 66.5t8 80v135zM879 7q0 -88 -19.5 -150t-61 -101t-107 -57t-156.5 -18t-173 20.5t-160 61.5l58 149
q66 -39 131 -59t142 -20q42 0 71.5 7t48 24t27 47t8.5 75v140l-3 1q-41 -55 -90.5 -79t-118.5 -24q-86 0 -147.5 29t-101 81.5t-58.5 125t-19 158.5q0 82 16.5 157t55 132.5t100.5 91.5t154 34q72 0 127.5 -24t93.5 -87h2l13 95h167v-810z" />
    <glyph glyph-name="h" unicode="h" horiz-adv-x="1074" 
d="M694 0v463q0 46 -3.5 84.5t-17.5 66.5t-43 43.5t-80 15.5q-88 0 -129 -43.5t-41 -134.5v-495h-190v1085h190v-348h2q40 56 98.5 76t124.5 20q81 0 134.5 -24t86 -68t45.5 -107t13 -142v-492h-190z" />
    <glyph glyph-name="i" unicode="i" horiz-adv-x="572" 
d="M402 1021q0 -48 -31.5 -75t-84.5 -27q-54 0 -85 27t-31 75q0 46 31 74t85 28q53 0 84.5 -28t31.5 -74zM190 0v817h192v-817h-192z" />
    <glyph glyph-name="j" unicode="j" horiz-adv-x="578" 
d="M388 7q0 -78 -17.5 -138.5t-53 -102t-92.5 -63t-138 -21.5q-29 0 -58.5 2.5t-58.5 7.5v155l46 -2t46 -1q46 0 73 12t40.5 35t17 57.5t3.5 78.5v790h192v-810zM408 1021q0 -48 -31.5 -75t-84.5 -27q-54 0 -85 27t-31 75q0 46 31 74t85 28q53 0 84.5 -28t31.5 -74z" />
    <glyph glyph-name="k" unicode="k" horiz-adv-x="968" 
d="M677 0l-204 362l-94 -104v-258h-189v1085h190v-613h3l268 345h228l-271 -335l290 -482h-221z" />
    <glyph glyph-name="l" unicode="l" horiz-adv-x="617" 
d="M507 0q-26 -5 -61.5 -7.5t-71.5 -2.5q-52 0 -87 9.5t-56.5 31t-31 56t-9.5 84.5v914h190v-869q0 -23 3.5 -36.5t11.5 -20t21.5 -8t33.5 -1.5h57v-150z" />
    <glyph glyph-name="m" unicode="m" horiz-adv-x="1513" 
d="M1133 0v478q0 43 -4.5 79t-18.5 62.5t-39.5 41t-68.5 14.5q-68 0 -109 -40.5t-41 -120.5v-514h-190v482q0 43 -4.5 79t-18.5 61t-40 39t-69 14q-69 0 -109.5 -41.5t-40.5 -119.5v-514h-190v817h169l14 -94h3q29 51 77 80.5t131 29.5q73 0 126.5 -26.5t84.5 -88.5
q46 65 104.5 90t135.5 25q78 0 132.5 -22t89 -64t50.5 -104.5t16 -143.5v-499h-190z" />
    <glyph glyph-name="n" unicode="n" horiz-adv-x="1074" 
d="M694 0v463q0 46 -3.5 84.5t-18 66.5t-43.5 43.5t-79 15.5q-88 0 -129 -43.5t-41 -134.5v-495h-190v817h165l15 -91h3q41 61 99.5 84t132.5 23q81 0 134.5 -23.5t86 -68t45.5 -107.5t13 -142v-492h-190z" />
    <glyph glyph-name="o" unicode="o" horiz-adv-x="1073" 
d="M730 408q0 59 -8.5 109t-30 86t-58.5 56.5t-95 20.5q-59 0 -96 -20.5t-59 -56.5t-30 -86t-8 -109q0 -63 8.5 -114t30.5 -87.5t59.5 -56.5t94.5 -20t94 20t58.5 56.5t30.5 87.5t9 114zM923 408q0 -94 -23.5 -172t-71 -134.5t-120 -88t-170.5 -31.5q-99 0 -172 31.5
t-121 87.5t-71.5 134.5t-23.5 172.5q0 90 22 167.5t69.5 135t121 90t175.5 32.5q97 0 169 -30.5t120 -86.5t72 -134t24 -174z" />
    <glyph glyph-name="p" unicode="p" horiz-adv-x="1065" 
d="M721 411q0 49 -4.5 98t-22.5 88t-53.5 63.5t-96.5 24.5q-79 0 -121.5 -42t-42.5 -123v-193q0 -43 8 -79.5t27 -63.5t50 -42.5t78 -15.5q59 0 94 27t54 69t24.5 92t5.5 97zM915 414q0 -80 -17 -157.5t-56 -138.5t-102.5 -98.5t-156.5 -37.5q-68 0 -115 22.5t-85 76.5h-3
v-389h-190v1125h163l13 -94h3q40 60 94 85t125 25q91 0 154 -35.5t101 -94.5t55 -134.5t17 -154.5z" />
    <glyph glyph-name="q" unicode="q" horiz-adv-x="1069" 
d="M688 519q0 87 -43 125.5t-123 38.5q-60 0 -95 -22.5t-53.5 -60t-23.5 -87t-5 -104.5q0 -51 6.5 -101.5t25.5 -91t54 -65.5t92 -25q47 0 78.5 16t51 43.5t27.5 65t8 80.5v188zM839 -338q-76 18 -113.5 69t-37.5 148v204h-8q-37 -55 -86.5 -78t-115.5 -23q-89 0 -151.5 36
t-101.5 96t-57 138t-18 162q0 81 17 157t55.5 134t101 93t152.5 35q70 0 128 -23t93 -87h2l11 94h169v-901q0 -62 16.5 -83t53.5 -37z" />
    <glyph glyph-name="r" unicode="r" horiz-adv-x="750" 
d="M602 661q-50 0 -91 -7t-70 -26t-45 -52.5t-16 -86.5v-489h-190v817h166l15 -105h2q33 62 86 91.5t140 29.5h51v-172h-48z" />
    <glyph glyph-name="s" unicode="s" horiz-adv-x="880" 
d="M750 235q0 -131 -81.5 -192t-228.5 -61q-88 0 -171.5 23t-158.5 68l68 135q57 -38 124 -63t136 -25q62 0 95.5 23.5t33.5 76.5q0 28 -15 47.5t-40 34t-57.5 26t-67.5 23.5q-44 14 -88 32t-79.5 46t-58 69.5t-22.5 103.5q0 55 21 98t60.5 72.5t96.5 45t129 15.5t142 -15
t136 -48l-49 -135q-48 30 -102 47t-113 17q-61 0 -100.5 -19.5t-39.5 -66.5q0 -24 14 -42t38 -31.5t55.5 -24.5t66.5 -22q45 -15 90.5 -33t82.5 -47t60 -71.5t23 -106.5z" />
    <glyph glyph-name="t" unicode="t" horiz-adv-x="692" 
d="M582 -1q-36 -5 -65.5 -8t-58.5 -3q-76 0 -123.5 13t-74.5 43t-36.5 77.5t-9.5 116.5v411h-124v154h128v218h187v-218h177v-154h-177v-404q0 -32 3 -51t16 -29.5t39.5 -14t73.5 -3.5h45v-148z" />
    <glyph glyph-name="u" unicode="u" horiz-adv-x="1062" 
d="M701 0l-14 88h-3q-35 -49 -88.5 -78.5t-137.5 -29.5q-65 0 -114.5 16t-84 53.5t-52 100t-17.5 154.5v513h190v-446q0 -52 3 -94.5t17 -73t42 -47t79 -16.5q47 0 78 12.5t49 36.5t25.5 58.5t7.5 79.5v490h191v-817h-171z" />
    <glyph glyph-name="v" unicode="v" horiz-adv-x="903" 
d="M566 0h-225l-271 817h202l181 -652h5l179 652h196z" />
    <glyph glyph-name="w" unicode="w" horiz-adv-x="1317" 
d="M1014 0h-199l-155 538h-7l-151 -538h-202l-220 817h197l133 -631h6l163 631h157l166 -633h5l139 633h191z" />
    <glyph glyph-name="x" unicode="x" horiz-adv-x="894" 
d="M616 0l-169 304h-3l-167 -304h-217l274 428l-242 389h215l149 -269h3l148 269h198l-244 -385l273 -432h-218z" />
    <glyph glyph-name="y" unicode="y" horiz-adv-x="923" 
d="M551 -20q-32 -84 -59.5 -141.5t-61 -92.5t-78 -50t-108.5 -15q-25 0 -50 1.5t-60 5.5v159q12 -1 33 -2t47 -1q30 0 50.5 5t35.5 17.5t27 35t24 58.5l17 50l-298 807h204l190 -606h5l180 606h204z" />
    <glyph glyph-name="z" unicode="z" horiz-adv-x="850" 
d="M120 0v137l377 524h-369v156h595v-148l-369 -515h376v-154h-610z" />
    <glyph glyph-name="braceleft" unicode="{" horiz-adv-x="652" 
d="M407 -190q-56 0 -95.5 10.5t-64 34.5t-36 63.5t-11.5 98.5v270q0 24 -2.5 44.5t-11 36.5t-24 27.5t-42.5 16.5v132q25 4 40.5 15.5t24.5 28.5t12 38.5t3 45.5v288q0 58 11.5 97.5t36 63.5t64 34.5t95.5 10.5h95v-117h-41q-34 0 -53 -6.5t-28 -21.5t-11 -39t-2 -58v-284
q0 -29 -4 -51t-14 -40.5t-25.5 -35t-39.5 -35.5q24 -18 39.5 -34t25.5 -34.5t14 -41t4 -51.5v-266q0 -37 2.5 -61t12 -38t28.5 -19.5t52 -5.5h40v-117h-95z" />
    <glyph glyph-name="bar" unicode="|" horiz-adv-x="540" 
d="M200 -330v1379h140v-1379h-140z" />
    <glyph glyph-name="braceright" unicode="}" horiz-adv-x="652" 
d="M532 412q-27 -5 -42.5 -16.5t-24 -27.5t-11 -36.5t-2.5 -44.5v-270q0 -59 -11.5 -98.5t-36 -63.5t-64 -34.5t-94.5 -10.5h-96v117h42q33 0 52 5.5t28 19.5t11.5 38t2.5 61v266q0 29 4 51.5t13.5 41t25 34.5t38.5 34q-23 19 -38.5 35.5t-25 35t-13.5 40.5t-4 51v284
q0 34 -2 58t-11 39t-28 21.5t-53 6.5h-42v117h97q55 0 94 -10.5t63.5 -34.5t36 -63.5t11.5 -97.5v-288q0 -24 3 -45.5t12 -38.5t24.5 -28.5t40.5 -15.5v-132z" />
    <glyph glyph-name="asciitilde" unicode="~" horiz-adv-x="847" 
d="M757 891q-26 -63 -77 -95t-115 -32q-38 0 -73.5 10.5t-69 22.5t-66 22.5t-64.5 10.5q-33 0 -53.5 -13.5t-41.5 -53.5l-113 91q20 35 39.5 59t41.5 38.5t48 21t60 6.5q38 0 73.5 -10t69 -22.5t65.5 -22.5t64 -10q31 0 54 15t41 50z" />
    <glyph glyph-name="nonbreakingspace" unicode="&#xa0;" horiz-adv-x="449" 
 />
    <glyph glyph-name="exclamdown" unicode="&#xa1;" horiz-adv-x="604" 
d="M424 714q0 -23 -9.5 -41.5t-25.5 -32.5t-38.5 -21.5t-47.5 -7.5q-53 0 -88 29t-35 74q0 22 9.5 41t26 32t38.5 20.5t47 7.5q26 0 48.5 -7.5t39 -20.5t26 -32t9.5 -41zM197 -202l29 706h155l29 -706h-213z" />
    <glyph glyph-name="cent" unicode="&#xa2;" horiz-adv-x="898" 
d="M798 220q-51 -42 -99 -67.5t-105 -35.5v-117h-171v118q-67 13 -118 46.5t-85.5 83.5t-52 115t-17.5 142q0 155 69 255t204 126v114h171v-114q51 -9 97 -30t93 -56l-80 -133q-47 40 -87.5 58t-92.5 18t-87 -19t-56 -51.5t-30 -75t-9 -89.5q0 -57 11 -102.5t34 -78
t57.5 -50t82.5 -17.5q22 0 45 3.5t47 12.5t49.5 25.5t52.5 42.5z" />
    <glyph glyph-name="sterling" unicode="&#xa3;" horiz-adv-x="955" 
d="M150 0v150h17q65 0 92.5 38t27.5 110q0 12 -0.5 25t-2.5 31.5t-5 44t-9 63.5h-113v148h96q-9 45 -15.5 86.5t-6.5 89.5q0 115 76.5 172.5t216.5 57.5q73 0 139.5 -15.5t131.5 -47.5l-38 -160q-43 28 -92.5 46t-109.5 18q-75 0 -106 -29t-31 -86q0 -28 4.5 -60t12.5 -72
h219v-148h-196q14 -68 19 -106.5t5 -67.5q0 -40 -7.5 -68.5t-24.5 -54.5v-4h365v-161h-665z" />
    <glyph glyph-name="currency" unicode="&#xa4;" horiz-adv-x="1130" 
d="M120 335l30 104h84q-1 17 -2 32.5t-1 32.5v26t2 28h-97l30 101h79q13 79 43.5 144.5t80 112.5t119 73.5t161.5 26.5q52 0 98 -9.5t88 -28.5t81.5 -48t79.5 -68l-113 -123q-104 120 -234 120q-94 0 -144 -50t-67 -150h365l-30 -101h-347q-1 -14 -1 -27v-27q0 -32 3 -65
h337l-30 -104h-295q7 -42 21.5 -77.5t39 -61.5t60 -41t84.5 -15q71 0 133 30t122 91l100 -127q-78 -76 -162.5 -114t-186.5 -38q-95 0 -165 24.5t-119 70.5t-78.5 111.5t-43.5 146.5h-125z" />
    <glyph glyph-name="yen" unicode="&#xa5;" horiz-adv-x="985" 
d="M700 585h169v-124h-240l-32 -63v-91h272v-124h-272v-183h-193v183h-280v124h280v82l-41 72h-239v124h167l-231 415h220l221 -437l221 437h203z" />
    <glyph glyph-name="brokenbar" unicode="&#xa6;" horiz-adv-x="537" 
d="M200 -330v578h137v-578h-137zM200 471v578h137v-578h-137z" />
    <glyph glyph-name="section" unicode="&#xa7;" horiz-adv-x="871" 
d="M567 436q0 40 -29.5 63.5t-100.5 23.5q-28 0 -52.5 -4t-42.5 -13.5t-28.5 -26.5t-10.5 -43q0 -17 6.5 -32t21.5 -27t41 -19t65 -7q130 0 130 85zM731 471q0 -36 -9.5 -67t-31 -54.5t-55 -39t-81.5 -21.5v-4q35 -10 66 -27.5t54.5 -43t37 -58t13.5 -72.5
q0 -42 -14.5 -81.5t-48 -70.5t-88.5 -50t-136 -19q-86 0 -155 20.5t-143 66.5l62 134q66 -40 123 -61.5t111 -21.5q55 0 80 20.5t25 55.5q0 15 -5 27t-16 22.5t-30 21.5t-46 23q-46 17 -86.5 33t-75.5 34q-36 19 -63 38t-44.5 41.5t-26 49.5t-8.5 60q0 82 48.5 125t135.5 52
v5q-80 25 -126 71.5t-46 121.5q0 48 18 87t54 67.5t89 44t123 15.5q74 0 136 -13t130 -44l-49 -145q-52 29 -100 44t-99 15q-23 0 -43 -3t-35 -10.5t-24 -20.5t-9 -32q0 -23 17.5 -42t65.5 -39q27 -10 49.5 -19t44 -18t43.5 -18.5t49 -21.5q55 -26 87 -68t32 -110z" />
    <glyph glyph-name="dieresis" unicode="&#xa8;" horiz-adv-x="642" 
d="M282 1021q0 -21 -8.5 -39.5t-22.5 -32.5t-33 -22t-39 -8q-21 0 -39.5 8t-32.5 22t-22 32.5t-8 39.5t8 39.5t22 32.5t32.5 22t39.5 8q20 0 39 -8t33 -22t22.5 -32.5t8.5 -39.5zM616 1021q0 -43 -29.5 -72.5t-71.5 -29.5q-21 0 -40 8t-33 22t-22.5 32.5t-8.5 39.5t8.5 39.5
t22.5 32.5t33 22t40 8q42 0 71.5 -29.5t29.5 -72.5z" />
    <glyph glyph-name="copyright" unicode="&#xa9;" horiz-adv-x="1316" 
d="M906 277q-54 -48 -109.5 -70.5t-121.5 -22.5q-78 0 -134.5 25t-92.5 68.5t-53.5 102t-17.5 124.5q0 69 19 127t56.5 99t92.5 64t126 23q66 0 122.5 -23t108.5 -74l-77 -89q-35 37 -71 55.5t-79 18.5q-87 0 -126 -55t-39 -148q0 -95 40.5 -150t127.5 -55q45 0 84 18t78 53
zM1108 502q0 93 -35.5 175t-96.5 142.5t-143 96t-175 35.5t-174.5 -35.5t-142.5 -96t-96.5 -142.5t-35.5 -175t35.5 -174.5t96.5 -142.5t142.5 -96.5t174.5 -35.5t175 35.5t143 96.5t96.5 142.5t35.5 174.5zM1176 501q0 -108 -40.5 -202t-111 -164.5t-164.5 -111t-202 -40.5
q-107 0 -201.5 40.5t-165 111t-111 164.5t-40.5 202q0 107 40.5 201t111 164t165 110.5t201.5 40.5q108 0 202 -40.5t164.5 -110.5t111 -164t40.5 -201z" />
    <glyph glyph-name="ordfeminine" unicode="&#xaa;" horiz-adv-x="724" 
d="M427 786q-92 0 -130.5 -22t-38.5 -65q0 -31 17 -48t43 -17q25 0 51 9.5t58 32.5v110zM509 555q-53 12 -69 50h-2q-33 -25 -71.5 -37.5t-79.5 -12.5q-66 0 -106.5 37t-40.5 100q0 45 20 76.5t57.5 52t90.5 29.5t119 9v11q0 16 -2 27.5t-8.5 18.5t-20.5 10.5t-38 3.5
q-33 0 -76.5 -9.5t-91.5 -37.5l-39 88q57 29 108 41.5t109 12.5q52 0 86 -10.5t54.5 -32.5t29 -56t8.5 -82v-158q0 -11 1.5 -18.5t5.5 -13.5t11.5 -12t19.5 -13z" />
    <glyph glyph-name="guillemotleft" unicode="&#xab;" horiz-adv-x="878" 
d="M301 150l-181 302l181 300l131 -67l-145 -234l145 -235zM625 150l-181 302l181 300l133 -67l-146 -234l146 -235z" />
    <glyph glyph-name="registered" unicode="&#xae;" horiz-adv-x="781" 
d="M390 886h-36v-74h42q24 0 34.5 10t10.5 27q0 19 -11 28t-40 9zM469 778q3 -6 11.5 -25t17 -40t15.5 -38l7 -17h-79l-38 95q-2 5 -3.5 6t-6.5 1h-38v-102h-71v280q28 2 55.5 3.5t50.5 1.5q22 0 44 -3.5t39 -14t27.5 -28.5t10.5 -46q0 -50 -42 -73zM390 1011q-46 0 -86 -17
t-70 -46.5t-47.5 -68.5t-17.5 -83q0 -45 17.5 -84t47.5 -68t70 -45.5t86 -16.5q45 0 85 16.5t70 45.5t47.5 68t17.5 84q0 44 -17.5 83t-47.5 68.5t-70 46.5t-85 17zM390 542q-54 0 -101.5 20t-82.5 54.5t-55.5 80.5t-20.5 99t20.5 99t55.5 80.5t82.5 54t101.5 19.5
t101.5 -19.5t83 -54t56 -80.5t20.5 -99t-20.5 -99t-56 -80.5t-83 -54.5t-101.5 -20z" />
    <glyph glyph-name="macron" unicode="&#xaf;" horiz-adv-x="889" 
d="M207 953v132h466v-132h-466z" />
    <glyph glyph-name="macron" unicode="&#x2c9;" horiz-adv-x="889" 
d="M207 953v132h466v-132h-466z" />
    <glyph glyph-name="degree" unicode="&#xb0;" horiz-adv-x="742" 
d="M535 799q0 34 -13 63t-35.5 51t-52 34.5t-63.5 12.5t-63.5 -12.5t-51.5 -34.5t-35 -51t-13 -63q0 -35 13 -64.5t35 -52t51.5 -35t63.5 -12.5t63.5 12.5t52 35t35.5 52t13 64.5zM602 797q0 -47 -18.5 -89t-50 -73.5t-73.5 -50t-89 -18.5q-48 0 -90 18.5t-73.5 50
t-49.5 73.5t-18 89q0 48 18 90t49.5 73.5t73.5 49.5t90 18q47 0 89 -18t73.5 -49.5t50 -73.5t18.5 -90z" />
    <glyph glyph-name="plusminus" unicode="&#xb1;" horiz-adv-x="972" 
d="M150 0v165h672v-165h-672zM572 542v-252h-171v252h-251v165h251v235h171v-235h250v-165h-250z" />
    <glyph glyph-name="twosuperior" unicode="&#xb2;" horiz-adv-x="681" 
d="M114 607q19 17 47.5 39.5t60.5 48.5t64.5 54.5t58 57.5t41.5 57.5t16 54.5q0 13 -4 26.5t-13.5 24t-26 17.5t-40.5 7q-36 0 -70 -16.5t-71 -51.5l-67 95q58 51 112.5 72t119.5 21q92 0 147.5 -46t55.5 -134q0 -36 -12 -71.5t-41 -73.5t-78 -81.5t-123 -95.5h260v-117
h-417z" />
    <glyph glyph-name="threesuperior" unicode="&#xb3;" horiz-adv-x="694" 
d="M564 675q0 -84 -62.5 -136t-179.5 -52q-62 0 -113 17.5t-99 51.5l61 99q45 -35 79.5 -46t70.5 -11q46 0 74.5 19t28.5 62q0 41 -23 57t-80 16h-78v108h60q104 0 104 74q0 13 -4.5 25t-15 21t-28 14.5t-42.5 5.5q-35 0 -69.5 -13t-64.5 -40l-63 91q31 21 57.5 35.5
t52 23.5t51.5 13t56 4q45 0 83 -11t65.5 -32t43 -51.5t15.5 -70.5q0 -45 -18 -77t-49 -52q42 -17 64.5 -54t22.5 -91z" />
    <glyph glyph-name="acute" unicode="&#xb4;" horiz-adv-x="526" 
d="M188 923l-108 60l190 174l169 -86z" />
    <glyph glyph-name="mu" unicode="&#xb5;" horiz-adv-x="1062" 
d="M702 0l-15 89h-3q-35 -50 -82 -80t-102 -30q-47 0 -80.5 17.5t-47.5 37.5v-405h-182v1187h190v-451q-1 -118 25 -171.5t119 -53.5q80 0 118.5 42.5t38.5 138.5v495h191v-816h-170z" />
    <glyph glyph-name="mu" unicode="&#x3bc;" horiz-adv-x="1062" 
d="M702 0l-15 89h-3q-35 -50 -82 -80t-102 -30q-47 0 -80.5 17.5t-47.5 37.5v-405h-182v1187h190v-451q-1 -118 25 -171.5t119 -53.5q80 0 118.5 42.5t38.5 138.5v495h191v-816h-170z" />
    <glyph glyph-name="paragraph" unicode="&#xb6;" horiz-adv-x="952" 
d="M602 0q-107 0 -188 29t-135 80t-81.5 120t-27.5 149q0 78 27.5 146t81.5 119t135 80t188 29h150v-752h-150z" />
    <glyph glyph-name="periodcentered" unicode="&#xb7;" horiz-adv-x="534" 
d="M394 406q0 -26 -10 -49t-27.5 -40t-41 -27t-49.5 -10t-48.5 10t-40 27t-27.5 40t-10 49q0 27 10 50t27.5 40t40 26.5t48.5 9.5t49.5 -9.5t41 -26.5t27.5 -40t10 -50z" />
    <glyph glyph-name="periodcentered" unicode="&#x2219;" horiz-adv-x="534" 
d="M394 406q0 -26 -10 -49t-27.5 -40t-41 -27t-49.5 -10t-48.5 10t-40 27t-27.5 40t-10 49q0 27 10 50t27.5 40t40 26.5t48.5 9.5t49.5 -9.5t41 -26.5t27.5 -40t10 -50z" />
    <glyph glyph-name="cedilla" unicode="&#xb8;" horiz-adv-x="794" 
d="M582 -205q0 -31 -10.5 -58t-31 -46.5t-50 -30.5t-68.5 -11q-42 0 -77 11.5t-67 31.5l24 70q32 -17 57 -25t56 -8q28 0 47 15.5t19 47.5q0 25 -15.5 43t-56.5 18q-14 0 -27.5 -2.5t-27.5 -8.5l-37 20l65 135h80l-40 -81l2 -2q9 2 16.5 3.5t16.5 1.5q56 0 90.5 -32
t34.5 -92z" />
    <glyph glyph-name="onesuperior" unicode="&#xb9;" horiz-adv-x="571" 
d="M401 1106v-611h-140v434l-105 -73l-56 101l195 149h106z" />
    <glyph glyph-name="ordmasculine" unicode="&#xba;" horiz-adv-x="722" 
d="M461 793q0 65 -21 100.5t-79 35.5q-59 0 -79.5 -36t-20.5 -101q0 -75 24 -108.5t77 -33.5q52 0 75.5 33.5t23.5 109.5zM582 792q0 -108 -56 -172t-165 -64q-110 0 -165.5 64t-55.5 173q0 51 13.5 94.5t41 74.5t69 48.5t98.5 17.5q107 0 163.5 -62t56.5 -174z" />
    <glyph glyph-name="guillemotright" unicode="&#xbb;" horiz-adv-x="878" 
d="M253 150l-133 67l146 234l-146 234l133 67l181 -300zM575 150l-129 67l145 234l-145 234l129 67l183 -300z" />
    <glyph glyph-name="onequarter" unicode="&#xbc;" horiz-adv-x="1650" 
d="M421 1106v-611h-140v434l-105 -73l-56 101l195 149h106zM500 -58h-137l740 1164h135zM1312 175v246l-157 -246h157zM1440 -58h-141v124h-243l-31 112l258 375h157v-370h86v-117h-86v-124z" />
    <glyph glyph-name="onehalf" unicode="&#xbd;" horiz-adv-x="1650" 
d="M421 1106v-611h-140v434l-105 -73l-56 101l195 149h106zM499 -58h-137l740 1164h135zM1111 54q19 17 47.5 39.5t60.5 48t64.5 54.5t58 57.5t41.5 57t16 54.5q0 14 -4 27.5t-13 24.5t-25 17.5t-40 6.5q-37 0 -71.5 -16.5t-71.5 -50.5l-67 94q58 51 113.5 72t120.5 21
q91 0 146.5 -46t55.5 -134q0 -36 -12 -71t-41 -73.5t-78 -82t-122 -96.5h258v-116h-415z" />
    <glyph glyph-name="threequarters" unicode="&#xbe;" horiz-adv-x="1650" 
d="M559 675q0 -84 -62.5 -136t-179.5 -52q-62 0 -113 17.5t-99 51.5l61 99q45 -35 79.5 -46t70.5 -11q46 0 74.5 19t28.5 62q0 41 -23 57t-80 16h-78v108h60q104 0 104 74q0 13 -4.5 25t-15 21t-28 14.5t-42.5 5.5q-35 0 -69.5 -13t-64.5 -40l-63 91q31 21 57.5 35.5
t52 23.5t51.5 13t56 4q45 0 83 -11t65.5 -32t43 -51.5t15.5 -70.5q0 -45 -18 -77t-49 -52q42 -17 64.5 -54t22.5 -91zM519 -58h-137l740 1164h135zM1311 175v246l-157 -246h157zM1439 -58h-141v124h-243l-31 112l258 375h157v-370h86v-117h-86v-124z" />
    <glyph glyph-name="questiondown" unicode="&#xbf;" horiz-adv-x="916" 
d="M638 712q0 -22 -9.5 -41t-26 -32.5t-39 -21.5t-48.5 -8q-53 0 -87.5 29t-34.5 74q0 22 9.5 41t26 33t38.5 21.5t47 7.5q26 0 49 -7.5t39.5 -21.5t26 -33t9.5 -41zM776 -115q-41 -29 -78.5 -48.5t-75.5 -32t-79 -18t-89 -5.5q-77 0 -135.5 19.5t-98.5 56.5t-60 89.5
t-20 117.5q0 47 9.5 84.5t30 68t52.5 55.5t77 48l62 33q19 9 29.5 16.5t15.5 17t6 23.5t1 38v71h179v-112q0 -34 -4 -57t-14.5 -40t-29 -30.5t-47.5 -28.5l-60 -31q-32 -15 -55 -28.5t-38 -29.5t-22 -37t-7 -51q0 -64 40 -99t115 -35q62 0 112.5 20t98.5 62z" />
    <glyph glyph-name="Agrave" unicode="&#xc0;" horiz-adv-x="1120" 
d="M558 817h-5l-141 -436h287zM822 0l-79 220h-372l-77 -220h-204l357 1004h220l363 -1004h-208zM553 1103l-249 149l168 87l191 -176z" />
    <glyph glyph-name="Aacute" unicode="&#xc1;" horiz-adv-x="1120" 
d="M558 817h-5l-141 -436h287zM822 0l-79 220h-372l-77 -220h-204l357 1004h220l363 -1004h-208zM560 1103l-108 60l190 174l169 -86z" />
    <glyph glyph-name="Acircumflex" unicode="&#xc2;" horiz-adv-x="1120" 
d="M558 817h-5l-141 -436h287zM822 0l-79 220h-372l-77 -220h-204l357 1004h220l363 -1004h-208zM737 1091l-181 94l-177 -96l-68 101l244 135l247 -135z" />
    <glyph glyph-name="Atilde" unicode="&#xc3;" horiz-adv-x="1120" 
d="M558 817h-5l-141 -436h287zM822 0l-79 220h-372l-77 -220h-204l357 1004h220l363 -1004h-208zM844 1237q-23 -67 -67 -102.5t-100 -35.5q-34 0 -65 11t-59.5 24t-55 24.5t-50.5 11.5q-29 0 -47.5 -16.5t-35.5 -55.5l-96 59q32 75 69 107t98 32q32 0 62 -11t58.5 -24
t55 -24.5t52.5 -11.5q28 0 48.5 17t36.5 54z" />
    <glyph glyph-name="Adieresis" unicode="&#xc4;" horiz-adv-x="1120" 
d="M558 817h-5l-141 -436h287zM822 0l-79 220h-372l-77 -220h-204l357 1004h220l363 -1004h-208zM491 1201q0 -21 -8.5 -39.5t-22.5 -32.5t-33 -22t-39 -8q-21 0 -39.5 8t-32.5 22t-22 32.5t-8 39.5t8 39.5t22 32.5t32.5 22t39.5 8q20 0 39 -8t33 -22t22.5 -32.5t8.5 -39.5z
M825 1201q0 -43 -29.5 -72.5t-71.5 -29.5q-21 0 -40 8t-33 22t-22.5 32.5t-8.5 39.5t8.5 39.5t22.5 32.5t33 22t40 8q42 0 71.5 -29.5t29.5 -72.5z" />
    <glyph glyph-name="Aring" unicode="&#xc5;" horiz-adv-x="1120" 
d="M558 817h-5l-141 -436h287zM822 0l-79 220h-372l-77 -220h-204l357 1004h220l363 -1004h-208zM627 1210q0 28 -20.5 46.5t-49.5 18.5t-48.5 -18.5t-19.5 -46.5q0 -27 19.5 -45t48.5 -18t49.5 18t20.5 45zM700 1211q0 -28 -10.5 -52t-29.5 -41.5t-45.5 -27.5t-57.5 -10
q-30 0 -55.5 10t-45 27.5t-30.5 41.5t-11 52q0 27 11 51t30.5 41.5t45 27.5t55.5 10q31 0 57.5 -10t45.5 -27.5t29.5 -41.5t10.5 -51z" />
    <glyph glyph-name="AE" unicode="&#xc6;" horiz-adv-x="1427" 
d="M392 381h256v454h-112zM1273 1000v-165h-428v-236h388v-166h-388v-272h442v-161h-639v220h-298l-77 -220h-203l357 1000h846z" />
    <glyph glyph-name="Ccedilla" unicode="&#xc7;" horiz-adv-x="1096" 
d="M781 -213q0 -31 -10.5 -57.5t-31 -46t-50 -30.5t-67.5 -11q-42 0 -77 11t-67 30l24 72q32 -17 56.5 -25t56.5 -8q28 0 46.5 15t18.5 47q0 25 -15.5 43.5t-56.5 18.5q-13 0 -27 -2.5t-28 -10.5l-38 22l63 131q-108 6 -187 46.5t-130 109t-76 160.5t-25 202
q0 109 28.5 202.5t86.5 162.5t144 108t202 39q104 0 187 -37.5t163 -116.5l-118 -132q-54 60 -106.5 90.5t-121.5 30.5q-129 0 -194.5 -88t-65.5 -259q0 -74 13.5 -139t43.5 -113.5t79.5 -76.5t121.5 -28t130.5 30t118.5 91l104 -133q-71 -69 -149 -106t-169 -43l-36 -77
l1 -2q9 2 17 3.5t16 1.5q56 0 90.5 -32.5t34.5 -92.5z" />
    <glyph glyph-name="Egrave" unicode="&#xc8;" horiz-adv-x="979" 
d="M200 0v1000h625v-165h-429v-236h388v-166h-388v-272h443v-161h-639zM506 1103l-249 149l168 87l191 -176z" />
    <glyph glyph-name="Eacute" unicode="&#xc9;" horiz-adv-x="979" 
d="M200 0v1000h625v-165h-429v-236h388v-166h-388v-272h443v-161h-639zM493 1103l-108 60l190 174l169 -86z" />
    <glyph glyph-name="Ecircumflex" unicode="&#xca;" horiz-adv-x="979" 
d="M200 0v1000h625v-165h-429v-236h388v-166h-388v-272h443v-161h-639zM702 1091l-181 94l-177 -96l-68 101l244 135l247 -135z" />
    <glyph glyph-name="Edieresis" unicode="&#xcb;" horiz-adv-x="979" 
d="M200 0v1000h625v-165h-429v-236h388v-166h-388v-272h443v-161h-639zM473 1216q0 -21 -8.5 -39.5t-22.5 -32.5t-33 -22t-39 -8q-21 0 -39.5 8t-32.5 22t-22 32.5t-8 39.5t8 39.5t22 32.5t32.5 22t39.5 8q20 0 39 -8t33 -22t22.5 -32.5t8.5 -39.5zM807 1216
q0 -43 -29.5 -72.5t-71.5 -29.5q-21 0 -40 8t-33 22t-22.5 32.5t-8.5 39.5t8.5 39.5t22.5 32.5t33 22t40 8q42 0 71.5 -29.5t29.5 -72.5z" />
    <glyph glyph-name="Igrave" unicode="&#xcc;" horiz-adv-x="596" 
d="M200 0v1000h196v-1000h-196zM303 1103l-249 149l168 87l191 -176z" />
    <glyph glyph-name="Iacute" unicode="&#xcd;" horiz-adv-x="596" 
d="M200 0v1000h196v-1000h-196zM308 1103l-108 60l190 174l169 -86z" />
    <glyph glyph-name="Icircumflex" unicode="&#xce;" horiz-adv-x="596" 
d="M200 0v1000h196v-1000h-196zM485 1091l-181 94l-177 -96l-68 101l244 135l247 -135z" />
    <glyph glyph-name="Idieresis" unicode="&#xcf;" horiz-adv-x="596" 
d="M200 0v1000h196v-1000h-196zM239 1201q0 -21 -8.5 -39.5t-22.5 -32.5t-33 -22t-39 -8q-21 0 -39.5 8t-32.5 22t-22 32.5t-8 39.5t8 39.5t22 32.5t32.5 22t39.5 8q20 0 39 -8t33 -22t22.5 -32.5t8.5 -39.5zM573 1201q0 -43 -29.5 -72.5t-71.5 -29.5q-21 0 -40 8t-33 22
t-22.5 32.5t-8.5 39.5t8.5 39.5t22.5 32.5t33 22t40 8q42 0 71.5 -29.5t29.5 -72.5z" />
    <glyph glyph-name="Eth" unicode="&#xd0;" horiz-adv-x="1166" 
d="M396 447v-290q32 -1 54 -1h49q73 0 129.5 17t95 57.5t58.5 108.5t20 170q0 42 -4 84t-15 81t-30.5 72t-49.5 58t-72 39t-99 14q-33 0 -68.5 -1t-67.5 -5v-255h136v-149h-136zM1006 505q0 -122 -31 -216t-92 -158t-151.5 -97.5t-209.5 -33.5h-322v447h-120v149h120v398
q34 3 75 6.5t84 5.5t85 3.5t79 1.5q112 0 202 -31t152 -94t95.5 -158t33.5 -223z" />
    <glyph glyph-name="Ntilde" unicode="&#xd1;" horiz-adv-x="1233" 
d="M837 0l-443 663h-3v-663h-191v1000h187l440 -662h3v662h193v-1000h-186zM911 1237q-23 -67 -67 -102.5t-100 -35.5q-34 0 -65 11t-59.5 24t-55 24.5t-50.5 11.5q-29 0 -47.5 -16.5t-35.5 -55.5l-96 59q32 75 69 107t98 32q32 0 62 -11t58.5 -24t55 -24.5t52.5 -11.5
q28 0 48.5 17t36.5 54z" />
    <glyph glyph-name="Ograve" unicode="&#xd2;" 
d="M886 501q0 79 -12 144.5t-41.5 112.5t-80 73t-127.5 26t-127 -26t-79.5 -73t-41.5 -112.5t-12 -144.5q0 -80 12 -145.5t41.5 -112.5t80 -73t127.5 -26q76 0 126.5 26t80 73.5t41.5 113t12 144.5zM1090 501q0 -124 -31.5 -220.5t-91 -162.5t-145.5 -100.5t-196 -34.5
t-196.5 34.5t-146.5 100.5t-91.5 162.5t-31.5 220.5q0 122 31 218t91 162t146.5 100.5t197.5 34.5t197.5 -34.5t145.5 -100.5t90 -162t31 -218zM620 1103l-249 149l168 87l191 -176z" />
    <glyph glyph-name="Oacute" unicode="&#xd3;" 
d="M886 501q0 79 -12 144.5t-41.5 112.5t-80 73t-127.5 26t-127 -26t-79.5 -73t-41.5 -112.5t-12 -144.5q0 -80 12 -145.5t41.5 -112.5t80 -73t127.5 -26q76 0 126.5 26t80 73.5t41.5 113t12 144.5zM1090 501q0 -124 -31.5 -220.5t-91 -162.5t-145.5 -100.5t-196 -34.5
t-196.5 34.5t-146.5 100.5t-91.5 162.5t-31.5 220.5q0 122 31 218t91 162t146.5 100.5t197.5 34.5t197.5 -34.5t145.5 -100.5t90 -162t31 -218zM623 1103l-108 60l190 174l169 -86z" />
    <glyph glyph-name="Ocircumflex" unicode="&#xd4;" 
d="M886 501q0 79 -12 144.5t-41.5 112.5t-80 73t-127.5 26t-127 -26t-79.5 -73t-41.5 -112.5t-12 -144.5q0 -80 12 -145.5t41.5 -112.5t80 -73t127.5 -26q76 0 126.5 26t80 73.5t41.5 113t12 144.5zM1090 501q0 -124 -31.5 -220.5t-91 -162.5t-145.5 -100.5t-196 -34.5
t-196.5 34.5t-146.5 100.5t-91.5 162.5t-31.5 220.5q0 122 31 218t91 162t146.5 100.5t197.5 34.5t197.5 -34.5t145.5 -100.5t90 -162t31 -218zM808 1091l-181 94l-177 -96l-68 101l244 135l247 -135z" />
    <glyph glyph-name="Otilde" unicode="&#xd5;" 
d="M886 501q0 79 -12 144.5t-41.5 112.5t-80 73t-127.5 26t-127 -26t-79.5 -73t-41.5 -112.5t-12 -144.5q0 -80 12 -145.5t41.5 -112.5t80 -73t127.5 -26q76 0 126.5 26t80 73.5t41.5 113t12 144.5zM1090 501q0 -124 -31.5 -220.5t-91 -162.5t-145.5 -100.5t-196 -34.5
t-196.5 34.5t-146.5 100.5t-91.5 162.5t-31.5 220.5q0 122 31 218t91 162t146.5 100.5t197.5 34.5t197.5 -34.5t145.5 -100.5t90 -162t31 -218zM914 1237q-23 -67 -67 -102.5t-100 -35.5q-34 0 -65 11t-59.5 24t-55 24.5t-50.5 11.5q-29 0 -47.5 -16.5t-35.5 -55.5l-96 59
q32 75 69 107t98 32q32 0 62 -11t58.5 -24t55 -24.5t52.5 -11.5q28 0 48.5 17t36.5 54z" />
    <glyph glyph-name="Odieresis" unicode="&#xd6;" 
d="M886 501q0 79 -12 144.5t-41.5 112.5t-80 73t-127.5 26t-127 -26t-79.5 -73t-41.5 -112.5t-12 -144.5q0 -80 12 -145.5t41.5 -112.5t80 -73t127.5 -26q76 0 126.5 26t80 73.5t41.5 113t12 144.5zM1090 501q0 -124 -31.5 -220.5t-91 -162.5t-145.5 -100.5t-196 -34.5
t-196.5 34.5t-146.5 100.5t-91.5 162.5t-31.5 220.5q0 122 31 218t91 162t146.5 100.5t197.5 34.5t197.5 -34.5t145.5 -100.5t90 -162t31 -218zM566 1201q0 -21 -8.5 -39.5t-22.5 -32.5t-33 -22t-39 -8q-21 0 -39.5 8t-32.5 22t-22 32.5t-8 39.5t8 39.5t22 32.5t32.5 22
t39.5 8q20 0 39 -8t33 -22t22.5 -32.5t8.5 -39.5zM900 1201q0 -43 -29.5 -72.5t-71.5 -29.5q-21 0 -40 8t-33 22t-22.5 32.5t-8.5 39.5t8.5 39.5t22.5 32.5t33 22t40 8q42 0 71.5 -29.5t29.5 -72.5z" />
    <glyph glyph-name="multiply" unicode="&#xd7;" horiz-adv-x="972" 
d="M785 582l-188 -181l188 -185l-117 -117l-181 189l-184 -189l-117 117l190 185l-190 181l117 117l184 -188l181 188z" />
    <glyph glyph-name="Oslash" unicode="&#xd8;" 
d="M365 501q0 -35 2.5 -66.5t7.5 -60.5l434 415q-30 32 -75.5 50t-108.5 18q-77 0 -127 -26t-79.5 -73t-41.5 -112.5t-12 -144.5zM886 501q0 38 -2.5 73t-10.5 68l-438 -421q30 -36 76 -56.5t115 -20.5q76 0 126.5 26t80 73.5t41.5 113t12 144.5zM1090 501
q0 -124 -31.5 -220.5t-91 -162.5t-145.5 -100.5t-196 -34.5q-101 0 -182 29t-141 84l-100 -96l-104 111l115 110q-26 58 -40 127.5t-14 152.5q0 122 31 218t91 162t146.5 100.5t197.5 34.5q194 0 311 -105l93 89l111 -104l-111 -106q29 -59 44.5 -131t15.5 -158z" />
    <glyph glyph-name="Ugrave" unicode="&#xd9;" horiz-adv-x="1177" 
d="M977 406q0 -101 -20.5 -179.5t-66 -132.5t-120 -82.5t-182.5 -28.5t-182 28.5t-120 82.5t-66 132.5t-20 179.5v594h196v-575q0 -58 5.5 -108.5t25.5 -88t58.5 -59t103.5 -21.5t103 22t58 59.5t26 88t6 107.5v575h195v-594zM573 1103l-249 149l168 87l191 -176z" />
    <glyph glyph-name="Uacute" unicode="&#xda;" horiz-adv-x="1177" 
d="M977 406q0 -101 -20.5 -179.5t-66 -132.5t-120 -82.5t-182.5 -28.5t-182 28.5t-120 82.5t-66 132.5t-20 179.5v594h196v-575q0 -58 5.5 -108.5t25.5 -88t58.5 -59t103.5 -21.5t103 22t58 59.5t26 88t6 107.5v575h195v-594zM586 1103l-108 60l190 174l169 -86z" />
    <glyph glyph-name="Ucircumflex" unicode="&#xdb;" horiz-adv-x="1177" 
d="M977 406q0 -101 -20.5 -179.5t-66 -132.5t-120 -82.5t-182.5 -28.5t-182 28.5t-120 82.5t-66 132.5t-20 179.5v594h196v-575q0 -58 5.5 -108.5t25.5 -88t58.5 -59t103.5 -21.5t103 22t58 59.5t26 88t6 107.5v575h195v-594zM772 1091l-181 94l-177 -96l-68 101l244 135
l247 -135z" />
    <glyph glyph-name="Udieresis" unicode="&#xdc;" horiz-adv-x="1177" 
d="M977 406q0 -101 -20.5 -179.5t-66 -132.5t-120 -82.5t-182.5 -28.5t-182 28.5t-120 82.5t-66 132.5t-20 179.5v594h196v-575q0 -58 5.5 -108.5t25.5 -88t58.5 -59t103.5 -21.5t103 22t58 59.5t26 88t6 107.5v575h195v-594zM521 1201q0 -21 -8.5 -39.5t-22.5 -32.5
t-33 -22t-39 -8q-21 0 -39.5 8t-32.5 22t-22 32.5t-8 39.5t8 39.5t22 32.5t32.5 22t39.5 8q20 0 39 -8t33 -22t22.5 -32.5t8.5 -39.5zM855 1201q0 -43 -29.5 -72.5t-71.5 -29.5q-21 0 -40 8t-33 22t-22.5 32.5t-8.5 39.5t8.5 39.5t22.5 32.5t33 22t40 8q42 0 71.5 -29.5
t29.5 -72.5z" />
    <glyph glyph-name="Yacute" unicode="&#xdd;" horiz-adv-x="1018" 
d="M608 391v-391h-195v385l-343 615h220l222 -441l223 441h213zM509 1103l-108 60l190 174l169 -86z" />
    <glyph glyph-name="Thorn" unicode="&#xde;" horiz-adv-x="1046" 
d="M732 509q0 46 -10 77.5t-33 51.5t-60 29t-91 9q-30 0 -69 -2t-75 -5v-331h149q41 0 75.5 5t60 22.5t39.5 51.5t14 92zM926 508q0 -71 -19.5 -131t-61 -103t-107 -67t-157.5 -24h-187v-183h-194v1000h192v-171q34 1 71 2.5t69 1.5q83 0 155 -15.5t125 -52.5t83.5 -100
t30.5 -157z" />
    <glyph glyph-name="germandbls" unicode="&#xdf;" horiz-adv-x="1035" 
d="M905 294q0 -77 -22.5 -133t-64 -92.5t-99.5 -54.5t-129 -18q-19 0 -40.5 1.5t-33.5 2.5v145q12 -1 29.5 -1.5t30.5 -0.5q71 0 111 33.5t40 111.5q0 32 -7.5 61t-28.5 55t-59 49.5t-99 44.5l-22 117q43 39 68 68t38 54.5t16.5 50.5t3.5 54q0 24 -5.5 45t-18 36.5t-34 24.5
t-54.5 9q-63 0 -86 -35.5t-23 -101.5v-820h-189v649h-117v154h117q0 65 11.5 119t44 92.5t90 59.5t149.5 21q287 0 287 -239q0 -37 -7.5 -69t-23 -61t-41 -57.5t-61.5 -58.5v-3q55 -26 97.5 -55.5t72 -67t44.5 -84t15 -106.5z" />
    <glyph glyph-name="agrave" unicode="&#xe0;" horiz-adv-x="1002" 
d="M624 411q-47 0 -100.5 -4.5t-100 -21.5t-77 -51t-30.5 -93q0 -56 28 -92t86 -36q54 0 102 21t92 56v221zM758 -12q-42 10 -72.5 32t-41.5 64h-3q-57 -48 -124.5 -75t-142.5 -27q-57 0 -102 17.5t-76.5 50t-48.5 78.5t-17 102q0 65 22.5 112t60.5 80t88 53.5t105 31.5
t111.5 15t108.5 4v36q0 66 -27 96t-99 30q-78 0 -150 -22.5t-138 -60.5l-56 138q88 44 173.5 67t184.5 23q82 0 139 -18t92.5 -55t51 -94t15.5 -135v-326q0 -22 3 -37t9.5 -27t18 -22t29.5 -20zM499 923l-249 149l168 87l191 -176z" />
    <glyph glyph-name="aacute" unicode="&#xe1;" horiz-adv-x="1002" 
d="M624 411q-47 0 -100.5 -4.5t-100 -21.5t-77 -51t-30.5 -93q0 -56 28 -92t86 -36q54 0 102 21t92 56v221zM758 -12q-42 10 -72.5 32t-41.5 64h-3q-57 -48 -124.5 -75t-142.5 -27q-57 0 -102 17.5t-76.5 50t-48.5 78.5t-17 102q0 65 22.5 112t60.5 80t88 53.5t105 31.5
t111.5 15t108.5 4v36q0 66 -27 96t-99 30q-78 0 -150 -22.5t-138 -60.5l-56 138q88 44 173.5 67t184.5 23q82 0 139 -18t92.5 -55t51 -94t15.5 -135v-326q0 -22 3 -37t9.5 -27t18 -22t29.5 -20zM510 923l-108 60l190 174l169 -86z" />
    <glyph glyph-name="acircumflex" unicode="&#xe2;" horiz-adv-x="1002" 
d="M624 411q-47 0 -100.5 -4.5t-100 -21.5t-77 -51t-30.5 -93q0 -56 28 -92t86 -36q54 0 102 21t92 56v221zM758 -12q-42 10 -72.5 32t-41.5 64h-3q-57 -48 -124.5 -75t-142.5 -27q-57 0 -102 17.5t-76.5 50t-48.5 78.5t-17 102q0 65 22.5 112t60.5 80t88 53.5t105 31.5
t111.5 15t108.5 4v36q0 66 -27 96t-99 30q-78 0 -150 -22.5t-138 -60.5l-56 138q88 44 173.5 67t184.5 23q82 0 139 -18t92.5 -55t51 -94t15.5 -135v-326q0 -22 3 -37t9.5 -27t18 -22t29.5 -20zM679 911l-181 94l-177 -96l-68 101l244 135l247 -135z" />
    <glyph glyph-name="atilde" unicode="&#xe3;" horiz-adv-x="1002" 
d="M624 411q-47 0 -100.5 -4.5t-100 -21.5t-77 -51t-30.5 -93q0 -56 28 -92t86 -36q54 0 102 21t92 56v221zM758 -12q-42 10 -72.5 32t-41.5 64h-3q-57 -48 -124.5 -75t-142.5 -27q-57 0 -102 17.5t-76.5 50t-48.5 78.5t-17 102q0 65 22.5 112t60.5 80t88 53.5t105 31.5
t111.5 15t108.5 4v36q0 66 -27 96t-99 30q-78 0 -150 -22.5t-138 -60.5l-56 138q88 44 173.5 67t184.5 23q82 0 139 -18t92.5 -55t51 -94t15.5 -135v-326q0 -22 3 -37t9.5 -27t18 -22t29.5 -20zM766 1057q-23 -67 -67 -102.5t-100 -35.5q-34 0 -65 11t-59.5 24t-55 24.5
t-50.5 11.5q-29 0 -47.5 -16.5t-35.5 -55.5l-96 59q32 75 69 107t98 32q32 0 62 -11t58.5 -24t55 -24.5t52.5 -11.5q28 0 48.5 17t36.5 54z" />
    <glyph glyph-name="adieresis" unicode="&#xe4;" horiz-adv-x="1002" 
d="M624 411q-47 0 -100.5 -4.5t-100 -21.5t-77 -51t-30.5 -93q0 -56 28 -92t86 -36q54 0 102 21t92 56v221zM758 -12q-42 10 -72.5 32t-41.5 64h-3q-57 -48 -124.5 -75t-142.5 -27q-57 0 -102 17.5t-76.5 50t-48.5 78.5t-17 102q0 65 22.5 112t60.5 80t88 53.5t105 31.5
t111.5 15t108.5 4v36q0 66 -27 96t-99 30q-78 0 -150 -22.5t-138 -60.5l-56 138q88 44 173.5 67t184.5 23q82 0 139 -18t92.5 -55t51 -94t15.5 -135v-326q0 -22 3 -37t9.5 -27t18 -22t29.5 -20zM432 1021q0 -21 -8.5 -39.5t-22.5 -32.5t-33 -22t-39 -8q-21 0 -39.5 8
t-32.5 22t-22 32.5t-8 39.5t8 39.5t22 32.5t32.5 22t39.5 8q20 0 39 -8t33 -22t22.5 -32.5t8.5 -39.5zM766 1021q0 -43 -29.5 -72.5t-71.5 -29.5q-21 0 -40 8t-33 22t-22.5 32.5t-8.5 39.5t8.5 39.5t22.5 32.5t33 22t40 8q42 0 71.5 -29.5t29.5 -72.5z" />
    <glyph glyph-name="aring" unicode="&#xe5;" horiz-adv-x="1002" 
d="M624 411q-47 0 -100.5 -4.5t-100 -21.5t-77 -51t-30.5 -93q0 -56 28 -92t86 -36q54 0 102 21t92 56v221zM758 -12q-42 10 -72.5 32t-41.5 64h-3q-57 -48 -124.5 -75t-142.5 -27q-57 0 -102 17.5t-76.5 50t-48.5 78.5t-17 102q0 65 22.5 112t60.5 80t88 53.5t105 31.5
t111.5 15t108.5 4v36q0 66 -27 96t-99 30q-78 0 -150 -22.5t-138 -60.5l-56 138q88 44 173.5 67t184.5 23q82 0 139 -18t92.5 -55t51 -94t15.5 -135v-326q0 -22 3 -37t9.5 -27t18 -22t29.5 -20zM566 1030q0 28 -20.5 46.5t-49.5 18.5t-48.5 -18.5t-19.5 -46.5
q0 -27 19.5 -45t48.5 -18t49.5 18t20.5 45zM639 1031q0 -28 -10.5 -52t-29.5 -41.5t-45.5 -27.5t-57.5 -10q-30 0 -55.5 10t-45 27.5t-30.5 41.5t-11 52q0 27 11 51t30.5 41.5t45 27.5t55.5 10q31 0 57.5 -10t45.5 -27.5t29.5 -41.5t10.5 -51z" />
    <glyph glyph-name="ae" unicode="&#xe6;" horiz-adv-x="1522" 
d="M626 412q-160 0 -234 -42.5t-74 -131.5q0 -58 29 -93t82 -35q27 0 50 4t46.5 14t47.5 25t53 38v221zM1195 476q-2 45 -12 83.5t-31.5 67.5t-56 45.5t-85.5 16.5q-88 0 -138 -53t-52 -160h375zM1372 406q0 -11 -0.5 -26t-3.5 -36h-547q3 -103 57 -156.5t157 -53.5
q58 0 114.5 17.5t112.5 55.5l61 -138q-69 -45 -143 -66t-154 -21q-105 0 -182 34.5t-125 98.5q-63 -64 -144.5 -99.5t-186.5 -35.5q-61 0 -109 18t-81 51t-50.5 79t-17.5 102q0 82 36 139t101.5 93t157 52.5t201.5 16.5v25q0 32 -3 56t-15.5 39.5t-37.5 23.5t-68 8
q-63 0 -136 -19t-154 -63l-58 142q92 48 178.5 70t182.5 22q81 0 143.5 -21t98.5 -72q50 48 115.5 71t138.5 23q84 0 151 -28t113.5 -83t71.5 -135t25 -184z" />
    <glyph glyph-name="ccedilla" unicode="&#xe7;" horiz-adv-x="929" 
d="M669 -205q0 -31 -10 -58t-29.5 -46.5t-47.5 -30.5t-65 -11q-39 0 -72.5 11.5t-63.5 31.5l23 70q30 -17 53 -25t52 -8q27 0 45 15.5t18 47.5q0 25 -14.5 43t-52.5 18q-14 0 -27 -2.5t-26 -8.5l-35 20l57 125q-81 9 -142 43.5t-101.5 89.5t-60.5 127.5t-20 157.5
q0 93 25 171.5t75 135.5t123.5 89t171.5 32q78 0 149.5 -26.5t134.5 -74.5l-81 -133q-45 42 -90.5 63t-105.5 21t-100 -23.5t-64 -61.5t-33.5 -87.5t-9.5 -101.5q0 -53 10 -103t34 -89t64 -62.5t99 -23.5q60 0 112 20t103 62l62 -133q-66 -48 -133 -71.5t-148 -26.5l-31 -66
l2 -2q9 2 15.5 3.5t15.5 1.5q53 0 86 -32t33 -92z" />
    <glyph glyph-name="egrave" unicode="&#xe8;" horiz-adv-x="1037" 
d="M709 471q0 45 -9 85t-29 69.5t-53.5 46.5t-82.5 17q-88 0 -139.5 -56t-51.5 -162h365zM887 411q0 -14 -0.5 -29.5t-2.5 -35.5h-540q1 -105 52 -161t159 -56q62 0 114.5 17t113.5 58l63 -137q-74 -46 -147 -65.5t-154 -19.5q-96 0 -169.5 30.5t-124 86t-76 134
t-25.5 175.5q0 108 30 188t81.5 132.5t122 78.5t151.5 26q87 0 152.5 -29t110 -83.5t67 -133t22.5 -176.5zM549 923l-249 149l168 87l191 -176z" />
    <glyph glyph-name="eacute" unicode="&#xe9;" horiz-adv-x="1037" 
d="M709 471q0 45 -9 85t-29 69.5t-53.5 46.5t-82.5 17q-88 0 -139.5 -56t-51.5 -162h365zM887 411q0 -14 -0.5 -29.5t-2.5 -35.5h-540q1 -105 52 -161t159 -56q62 0 114.5 17t113.5 58l63 -137q-74 -46 -147 -65.5t-154 -19.5q-96 0 -169.5 30.5t-124 86t-76 134
t-25.5 175.5q0 108 30 188t81.5 132.5t122 78.5t151.5 26q87 0 152.5 -29t110 -83.5t67 -133t22.5 -176.5zM553 923l-108 60l190 174l169 -86z" />
    <glyph glyph-name="ecircumflex" unicode="&#xea;" horiz-adv-x="1037" 
d="M709 471q0 45 -9 85t-29 69.5t-53.5 46.5t-82.5 17q-88 0 -139.5 -56t-51.5 -162h365zM887 411q0 -14 -0.5 -29.5t-2.5 -35.5h-540q1 -105 52 -161t159 -56q62 0 114.5 17t113.5 58l63 -137q-74 -46 -147 -65.5t-154 -19.5q-96 0 -169.5 30.5t-124 86t-76 134
t-25.5 175.5q0 108 30 188t81.5 132.5t122 78.5t151.5 26q87 0 152.5 -29t110 -83.5t67 -133t22.5 -176.5zM715 911l-181 94l-177 -96l-68 101l244 135l247 -135z" />
    <glyph glyph-name="edieresis" unicode="&#xeb;" horiz-adv-x="1037" 
d="M709 471q0 45 -9 85t-29 69.5t-53.5 46.5t-82.5 17q-88 0 -139.5 -56t-51.5 -162h365zM887 411q0 -14 -0.5 -29.5t-2.5 -35.5h-540q1 -105 52 -161t159 -56q62 0 114.5 17t113.5 58l63 -137q-74 -46 -147 -65.5t-154 -19.5q-96 0 -169.5 30.5t-124 86t-76 134
t-25.5 175.5q0 108 30 188t81.5 132.5t122 78.5t151.5 26q87 0 152.5 -29t110 -83.5t67 -133t22.5 -176.5zM477 1021q0 -21 -8.5 -39.5t-22.5 -32.5t-33 -22t-39 -8q-21 0 -39.5 8t-32.5 22t-22 32.5t-8 39.5t8 39.5t22 32.5t32.5 22t39.5 8q20 0 39 -8t33 -22t22.5 -32.5
t8.5 -39.5zM811 1021q0 -43 -29.5 -72.5t-71.5 -29.5q-21 0 -40 8t-33 22t-22.5 32.5t-8.5 39.5t8.5 39.5t22.5 32.5t33 22t40 8q42 0 71.5 -29.5t29.5 -72.5z" />
    <glyph glyph-name="igrave" unicode="&#xec;" horiz-adv-x="572" 
d="M190 0v817h192v-817h-192zM290 923l-249 149l168 87l191 -176z" />
    <glyph glyph-name="iacute" unicode="&#xed;" horiz-adv-x="572" 
d="M190 0v817h192v-817h-192zM302 923l-108 60l190 174l169 -86z" />
    <glyph glyph-name="icircumflex" unicode="&#xee;" horiz-adv-x="572" 
d="M190 0v817h192v-817h-192zM473 911l-181 94l-177 -96l-68 101l244 135l247 -135z" />
    <glyph glyph-name="idieresis" unicode="&#xef;" horiz-adv-x="572" 
d="M190 0v817h192v-817h-192zM230 1021q0 -21 -8.5 -39.5t-22.5 -32.5t-33 -22t-39 -8q-21 0 -39.5 8t-32.5 22t-22 32.5t-8 39.5t8 39.5t22 32.5t32.5 22t39.5 8q20 0 39 -8t33 -22t22.5 -32.5t8.5 -39.5zM564 1021q0 -43 -29.5 -72.5t-71.5 -29.5q-21 0 -40 8t-33 22
t-22.5 32.5t-8.5 39.5t8.5 39.5t22.5 32.5t33 22t40 8q42 0 71.5 -29.5t29.5 -72.5z" />
    <glyph glyph-name="eth" unicode="&#xf0;" horiz-adv-x="1073" 
d="M730 408q0 59 -8.5 106.5t-30 81.5t-58.5 52t-95 18q-59 0 -96 -18t-59 -51.5t-30 -81.5t-8 -107q0 -63 8.5 -114t30.5 -87.5t59.5 -56.5t94.5 -20t94 20t58.5 56.5t30.5 87.5t9 114zM874 1027l-105 -51q35 -68 63.5 -134.5t48.5 -135.5t31 -142.5t11 -155.5
q0 -94 -23.5 -172t-71 -134.5t-120 -88t-170.5 -31.5q-99 0 -172 31.5t-121 87.5t-71.5 134.5t-23.5 172.5q0 90 22 165.5t68.5 130t117.5 85t170 30.5q24 0 47 -4.5t43 -12t35.5 -17t23.5 -18.5h9q-8 30 -22 67.5t-30 75.5l-66 -31l-53 115l68 33q-9 19 -18 37t-17 36
l124 55q11 -19 19 -34t18 -33l111 54z" />
    <glyph glyph-name="ntilde" unicode="&#xf1;" horiz-adv-x="1074" 
d="M694 0v463q0 46 -3.5 84.5t-18 66.5t-43.5 43.5t-79 15.5q-88 0 -129 -43.5t-41 -134.5v-495h-190v817h165l15 -91h3q41 61 99.5 84t132.5 23q81 0 134.5 -23.5t86 -68t45.5 -107.5t13 -142v-492h-190zM838 1057q-23 -67 -67 -102.5t-100 -35.5q-34 0 -65 11t-59.5 24
t-55 24.5t-50.5 11.5q-29 0 -47.5 -16.5t-35.5 -55.5l-96 59q32 75 69 107t98 32q32 0 62 -11t58.5 -24t55 -24.5t52.5 -11.5q28 0 48.5 17t36.5 54z" />
    <glyph glyph-name="ograve" unicode="&#xf2;" horiz-adv-x="1073" 
d="M730 408q0 59 -8.5 109t-30 86t-58.5 56.5t-95 20.5q-59 0 -96 -20.5t-59 -56.5t-30 -86t-8 -109q0 -63 8.5 -114t30.5 -87.5t59.5 -56.5t94.5 -20t94 20t58.5 56.5t30.5 87.5t9 114zM923 408q0 -94 -23.5 -172t-71 -134.5t-120 -88t-170.5 -31.5q-99 0 -172 31.5
t-121 87.5t-71.5 134.5t-23.5 172.5q0 90 22 167.5t69.5 135t121 90t175.5 32.5q97 0 169 -30.5t120 -86.5t72 -134t24 -174zM540 923l-249 149l168 87l191 -176z" />
    <glyph glyph-name="oacute" unicode="&#xf3;" horiz-adv-x="1073" 
d="M730 408q0 59 -8.5 109t-30 86t-58.5 56.5t-95 20.5q-59 0 -96 -20.5t-59 -56.5t-30 -86t-8 -109q0 -63 8.5 -114t30.5 -87.5t59.5 -56.5t94.5 -20t94 20t58.5 56.5t30.5 87.5t9 114zM923 408q0 -94 -23.5 -172t-71 -134.5t-120 -88t-170.5 -31.5q-99 0 -172 31.5
t-121 87.5t-71.5 134.5t-23.5 172.5q0 90 22 167.5t69.5 135t121 90t175.5 32.5q97 0 169 -30.5t120 -86.5t72 -134t24 -174zM539 923l-108 60l190 174l169 -86z" />
    <glyph glyph-name="ocircumflex" unicode="&#xf4;" horiz-adv-x="1073" 
d="M730 408q0 59 -8.5 109t-30 86t-58.5 56.5t-95 20.5q-59 0 -96 -20.5t-59 -56.5t-30 -86t-8 -109q0 -63 8.5 -114t30.5 -87.5t59.5 -56.5t94.5 -20t94 20t58.5 56.5t30.5 87.5t9 114zM923 408q0 -94 -23.5 -172t-71 -134.5t-120 -88t-170.5 -31.5q-99 0 -172 31.5
t-121 87.5t-71.5 134.5t-23.5 172.5q0 90 22 167.5t69.5 135t121 90t175.5 32.5q97 0 169 -30.5t120 -86.5t72 -134t24 -174zM717 911l-181 94l-177 -96l-68 101l244 135l247 -135z" />
    <glyph glyph-name="otilde" unicode="&#xf5;" horiz-adv-x="1073" 
d="M730 408q0 59 -8.5 109t-30 86t-58.5 56.5t-95 20.5q-59 0 -96 -20.5t-59 -56.5t-30 -86t-8 -109q0 -63 8.5 -114t30.5 -87.5t59.5 -56.5t94.5 -20t94 20t58.5 56.5t30.5 87.5t9 114zM923 408q0 -94 -23.5 -172t-71 -134.5t-120 -88t-170.5 -31.5q-99 0 -172 31.5
t-121 87.5t-71.5 134.5t-23.5 172.5q0 90 22 167.5t69.5 135t121 90t175.5 32.5q97 0 169 -30.5t120 -86.5t72 -134t24 -174zM822 1057q-23 -67 -67 -102.5t-100 -35.5q-34 0 -65 11t-59.5 24t-55 24.5t-50.5 11.5q-29 0 -47.5 -16.5t-35.5 -55.5l-96 59q32 75 69 107t98 32
q32 0 62 -11t58.5 -24t55 -24.5t52.5 -11.5q28 0 48.5 17t36.5 54z" />
    <glyph glyph-name="odieresis" unicode="&#xf6;" horiz-adv-x="1073" 
d="M730 408q0 59 -8.5 109t-30 86t-58.5 56.5t-95 20.5q-59 0 -96 -20.5t-59 -56.5t-30 -86t-8 -109q0 -63 8.5 -114t30.5 -87.5t59.5 -56.5t94.5 -20t94 20t58.5 56.5t30.5 87.5t9 114zM923 408q0 -94 -23.5 -172t-71 -134.5t-120 -88t-170.5 -31.5q-99 0 -172 31.5
t-121 87.5t-71.5 134.5t-23.5 172.5q0 90 22 167.5t69.5 135t121 90t175.5 32.5q97 0 169 -30.5t120 -86.5t72 -134t24 -174zM474 1021q0 -21 -8.5 -39.5t-22.5 -32.5t-33 -22t-39 -8q-21 0 -39.5 8t-32.5 22t-22 32.5t-8 39.5t8 39.5t22 32.5t32.5 22t39.5 8q20 0 39 -8
t33 -22t22.5 -32.5t8.5 -39.5zM808 1021q0 -43 -29.5 -72.5t-71.5 -29.5q-21 0 -40 8t-33 22t-22.5 32.5t-8.5 39.5t8.5 39.5t22.5 32.5t33 22t40 8q42 0 71.5 -29.5t29.5 -72.5z" />
    <glyph glyph-name="oslash" unicode="&#xf8;" horiz-adv-x="1073" 
d="M730 408q0 35 -3.5 73.5t-17.5 67.5l-304 -362q50 -52 133 -52q56 0 93 19t59 54.5t31 86t9 113.5zM646 640q-21 20 -50 29.5t-58 9.5q-59 0 -96.5 -20.5t-59 -56.5t-30 -85.5t-8.5 -108.5q0 -26 2.5 -60t10.5 -59zM847 692q40 -53 58 -128.5t18 -155.5q0 -94 -23.5 -172
t-71 -134.5t-120 -88t-170.5 -31.5q-145 0 -241 72l-80 -91l-86 85l80 97q-32 54 -46.5 121.5t-14.5 141.5q0 90 22 168t69.5 135.5t121 90.5t175.5 33q61 0 116.5 -14t98.5 -45l84 97l93 -81z" />
    <glyph glyph-name="ugrave" unicode="&#xf9;" horiz-adv-x="1062" 
d="M701 0l-14 88h-3q-35 -49 -88.5 -78.5t-137.5 -29.5q-65 0 -114.5 16t-84 53.5t-52 100t-17.5 154.5v513h190v-446q0 -52 3 -94.5t17 -73t42 -47t79 -16.5q47 0 78 12.5t49 36.5t25.5 58.5t7.5 79.5v490h191v-817h-171zM542 923l-249 149l168 87l191 -176z" />
    <glyph glyph-name="uacute" unicode="&#xfa;" horiz-adv-x="1062" 
d="M701 0l-14 88h-3q-35 -49 -88.5 -78.5t-137.5 -29.5q-65 0 -114.5 16t-84 53.5t-52 100t-17.5 154.5v513h190v-446q0 -52 3 -94.5t17 -73t42 -47t79 -16.5q47 0 78 12.5t49 36.5t25.5 58.5t7.5 79.5v490h191v-817h-171zM530 923l-108 60l190 174l169 -86z" />
    <glyph glyph-name="ucircumflex" unicode="&#xfb;" horiz-adv-x="1062" 
d="M701 0l-14 88h-3q-35 -49 -88.5 -78.5t-137.5 -29.5q-65 0 -114.5 16t-84 53.5t-52 100t-17.5 154.5v513h190v-446q0 -52 3 -94.5t17 -73t42 -47t79 -16.5q47 0 78 12.5t49 36.5t25.5 58.5t7.5 79.5v490h191v-817h-171zM715 911l-181 94l-177 -96l-68 101l244 135
l247 -135z" />
    <glyph glyph-name="udieresis" unicode="&#xfc;" horiz-adv-x="1062" 
d="M701 0l-14 88h-3q-35 -49 -88.5 -78.5t-137.5 -29.5q-65 0 -114.5 16t-84 53.5t-52 100t-17.5 154.5v513h190v-446q0 -52 3 -94.5t17 -73t42 -47t79 -16.5q47 0 78 12.5t49 36.5t25.5 58.5t7.5 79.5v490h191v-817h-171zM468 1021q0 -21 -8.5 -39.5t-22.5 -32.5t-33 -22
t-39 -8q-21 0 -39.5 8t-32.5 22t-22 32.5t-8 39.5t8 39.5t22 32.5t32.5 22t39.5 8q20 0 39 -8t33 -22t22.5 -32.5t8.5 -39.5zM802 1021q0 -43 -29.5 -72.5t-71.5 -29.5q-21 0 -40 8t-33 22t-22.5 32.5t-8.5 39.5t8.5 39.5t22.5 32.5t33 22t40 8q42 0 71.5 -29.5t29.5 -72.5z
" />
    <glyph glyph-name="yacute" unicode="&#xfd;" horiz-adv-x="923" 
d="M551 -20q-32 -84 -59.5 -141.5t-61 -92.5t-78 -50t-108.5 -15q-25 0 -50 1.5t-60 5.5v159q12 -1 33 -2t47 -1q30 0 50.5 5t35.5 17.5t27 35t24 58.5l17 50l-298 807h204l190 -606h5l180 606h204zM478 923l-108 60l190 174l169 -86z" />
    <glyph glyph-name="thorn" unicode="&#xfe;" horiz-adv-x="1065" 
d="M721 411q0 49 -4.5 98t-22.5 88t-53.5 63.5t-96.5 24.5q-79 0 -121.5 -42t-42.5 -123v-193q0 -43 8 -79.5t27 -63.5t50 -42.5t78 -15.5q59 0 94 27t54 69t24.5 92t5.5 97zM915 414q0 -80 -17 -157.5t-56 -138.5t-102.5 -98.5t-156.5 -37.5q-68 0 -115 22.5t-85 76.5h-3
v-389h-190v1393h170v-362h3q41 60 97.5 85t127.5 25q91 0 154 -35.5t101 -94.5t55 -134.5t17 -154.5z" />
    <glyph glyph-name="ydieresis" unicode="&#xff;" horiz-adv-x="923" 
d="M551 -20q-32 -84 -59.5 -141.5t-61 -92.5t-78 -50t-108.5 -15q-25 0 -50 1.5t-60 5.5v159q12 -1 33 -2t47 -1q30 0 50.5 5t35.5 17.5t27 35t24 58.5l17 50l-298 807h204l190 -606h5l180 606h204zM415 1021q0 -21 -8.5 -39.5t-22.5 -32.5t-33 -22t-39 -8q-21 0 -39.5 8
t-32.5 22t-22 32.5t-8 39.5t8 39.5t22 32.5t32.5 22t39.5 8q20 0 39 -8t33 -22t22.5 -32.5t8.5 -39.5zM749 1021q0 -43 -29.5 -72.5t-71.5 -29.5q-21 0 -40 8t-33 22t-22.5 32.5t-8.5 39.5t8.5 39.5t22.5 32.5t33 22t40 8q42 0 71.5 -29.5t29.5 -72.5z" />
    <glyph glyph-name="Amacron" unicode="&#x100;" horiz-adv-x="1120" 
d="M558 817h-5l-141 -436h287zM822 0l-79 220h-372l-77 -220h-204l357 1004h220l363 -1004h-208zM322 1133v132h466v-132h-466z" />
    <glyph glyph-name="amacron" unicode="&#x101;" horiz-adv-x="1002" 
d="M624 411q-47 0 -100.5 -4.5t-100 -21.5t-77 -51t-30.5 -93q0 -56 28 -92t86 -36q54 0 102 21t92 56v221zM758 -12q-42 10 -72.5 32t-41.5 64h-3q-57 -48 -124.5 -75t-142.5 -27q-57 0 -102 17.5t-76.5 50t-48.5 78.5t-17 102q0 65 22.5 112t60.5 80t88 53.5t105 31.5
t111.5 15t108.5 4v36q0 66 -27 96t-99 30q-78 0 -150 -22.5t-138 -60.5l-56 138q88 44 173.5 67t184.5 23q82 0 139 -18t92.5 -55t51 -94t15.5 -135v-326q0 -22 3 -37t9.5 -27t18 -22t29.5 -20zM254 953v132h466v-132h-466z" />
    <glyph glyph-name="Abreve" unicode="&#x102;" horiz-adv-x="1120" 
d="M558 817h-5l-141 -436h287zM822 0l-79 220h-372l-77 -220h-204l357 1004h220l363 -1004h-208zM786 1298q-3 -61 -28.5 -99t-60.5 -59.5t-74 -29t-70 -7.5q-35 0 -73.5 8t-72 29.5t-56.5 59.5t-26 98h117q3 -35 30 -59.5t81 -24.5t82.5 23t33.5 61h117z" />
    <glyph glyph-name="abreve" unicode="&#x103;" horiz-adv-x="1002" 
d="M624 411q-47 0 -100.5 -4.5t-100 -21.5t-77 -51t-30.5 -93q0 -56 28 -92t86 -36q54 0 102 21t92 56v221zM758 -12q-42 10 -72.5 32t-41.5 64h-3q-57 -48 -124.5 -75t-142.5 -27q-57 0 -102 17.5t-76.5 50t-48.5 78.5t-17 102q0 65 22.5 112t60.5 80t88 53.5t105 31.5
t111.5 15t108.5 4v36q0 66 -27 96t-99 30q-78 0 -150 -22.5t-138 -60.5l-56 138q88 44 173.5 67t184.5 23q82 0 139 -18t92.5 -55t51 -94t15.5 -135v-326q0 -22 3 -37t9.5 -27t18 -22t29.5 -20zM735 1118q-3 -61 -28.5 -99t-60.5 -59.5t-74 -29t-70 -7.5q-35 0 -73.5 8
t-72 29.5t-56.5 59.5t-26 98h117q3 -35 30 -59.5t81 -24.5t82.5 23t33.5 61h117z" />
    <glyph glyph-name="Aogonek" unicode="&#x104;" horiz-adv-x="1120" 
d="M558 817h-5l-141 -436h287zM1030 -297q-23 -16 -58 -30.5t-88 -14.5q-41 0 -72 13t-52 35t-31.5 51.5t-10.5 62.5q0 35 11.5 64.5t27.5 52.5t34 39t31 24l-79 220h-372l-77 -220h-204l357 1004h220l363 -1004h-81q-43 -32 -70.5 -69t-27.5 -84q0 -33 14 -55t43 -22
q24 0 39.5 6.5t35.5 19.5z" />
    <glyph glyph-name="aogonek" unicode="&#x105;" horiz-adv-x="1002" 
d="M624 411q-47 0 -100.5 -4.5t-100 -21.5t-77 -51t-30.5 -93q0 -56 28 -92t86 -36q54 0 102 21t92 56v221zM852 -297q-23 -16 -57.5 -30.5t-87.5 -14.5q-40 0 -70 13t-49.5 35t-29.5 51.5t-10 62.5q0 35 10.5 65t28.5 55.5t41.5 46.5t49.5 39q-12 11 -20.5 24.5t-13.5 33.5
h-3q-57 -48 -124.5 -75t-142.5 -27q-57 0 -102 17.5t-76.5 50t-48.5 78.5t-17 102q0 65 22.5 112t60.5 80t88 53.5t105 31.5t111.5 15t108.5 4v36q0 66 -27 96t-99 30q-78 0 -150 -22.5t-138 -60.5l-56 138q88 44 173.5 67t184.5 23q82 0 139 -18t92.5 -55t51 -94t15.5 -135
v-326q0 -22 3 -37t9.5 -27t18 -22t29.5 -20l-115 -111q-35 -33 -59 -66t-24 -75q0 -33 14 -55t43 -22q23 0 39.5 6.5t34.5 19.5z" />
    <glyph glyph-name="Cacute" unicode="&#x106;" horiz-adv-x="1096" 
d="M976 135q-78 -76 -164.5 -114t-190.5 -38q-120 0 -207 38.5t-143.5 107.5t-83.5 164.5t-27 210.5q0 109 28.5 202.5t86.5 162.5t144 108t202 39q104 0 187 -37.5t163 -116.5l-118 -132q-54 60 -106.5 90.5t-121.5 30.5q-129 0 -194.5 -88t-65.5 -259q0 -74 13.5 -139
t43.5 -113.5t79.5 -76.5t121.5 -28t130.5 30t118.5 91zM618 1103l-108 60l190 174l169 -86z" />
    <glyph glyph-name="cacute" unicode="&#x107;" horiz-adv-x="929" 
d="M748 599q-45 42 -90.5 63t-105.5 21t-100 -23.5t-64 -61.5t-33.5 -87.5t-9.5 -101.5q0 -53 10 -103t34 -89t64 -62.5t99 -23.5q60 0 112 20t103 62l62 -133q-68 -50 -138 -74t-155 -24q-97 0 -169.5 31.5t-120.5 87.5t-72 133.5t-24 170.5t25 171.5t75 135.5t123.5 89
t171.5 32q78 0 149.5 -26.5t134.5 -74.5zM543 923l-108 60l190 174l169 -86z" />
    <glyph glyph-name="Ccaron" unicode="&#x10c;" horiz-adv-x="1096" 
d="M976 135q-78 -76 -164.5 -114t-190.5 -38q-120 0 -207 38.5t-143.5 107.5t-83.5 164.5t-27 210.5q0 109 28.5 202.5t86.5 162.5t144 108t202 39q104 0 187 -37.5t163 -116.5l-118 -132q-54 60 -106.5 90.5t-121.5 30.5q-129 0 -194.5 -88t-65.5 -259q0 -74 13.5 -139
t43.5 -113.5t79.5 -76.5t121.5 -28t130.5 30t118.5 91zM432 1323l181 -94l177 96l68 -101l-244 -135l-247 135z" />
    <glyph glyph-name="ccaron" unicode="&#x10d;" horiz-adv-x="929" 
d="M748 599q-45 42 -90.5 63t-105.5 21t-100 -23.5t-64 -61.5t-33.5 -87.5t-9.5 -101.5q0 -53 10 -103t34 -89t64 -62.5t99 -23.5q60 0 112 20t103 62l62 -133q-68 -50 -138 -74t-155 -24q-97 0 -169.5 31.5t-120.5 87.5t-72 133.5t-24 170.5t25 171.5t75 135.5t123.5 89
t171.5 32q78 0 149.5 -26.5t134.5 -74.5zM350 1143l181 -94l177 96l68 -101l-244 -135l-247 135z" />
    <glyph glyph-name="Dcaron" unicode="&#x10e;" horiz-adv-x="1166" 
d="M802 509q0 42 -4 84t-15 81t-30.5 72t-49.5 58t-72 39t-99 14q-33 0 -68.5 -1t-67.5 -5v-694q32 -1 54 -1h49q73 0 129.5 17t95 57.5t58.5 108.5t20 170zM1006 505q0 -122 -31 -216t-92 -158t-151.5 -97.5t-209.5 -33.5h-322v994q34 3 75 6.5t84 5.5t85 3.5t79 1.5
q112 0 202 -31t152 -94t95.5 -158t33.5 -223zM370 1323l181 -94l177 96l68 -101l-244 -135l-247 135z" />
    <glyph glyph-name="dcaron" unicode="&#x10f;" horiz-adv-x="1066" 
d="M686 520q0 85 -43 124t-121 39q-59 0 -94 -22.5t-53.5 -60.5t-24 -87.5t-5.5 -103.5q0 -51 6.5 -101.5t25.5 -91t54 -65.5t92 -25q46 0 77.5 15.5t50.5 42t27 63t8 78.5v195zM715 0l-15 97h-7q-36 -58 -91.5 -86.5t-125.5 -28.5q-89 0 -151 37t-101 97.5t-56.5 138
t-17.5 157.5q0 85 18 161.5t57 134t101.5 91.5t151.5 34q63 0 116 -21.5t89 -75.5h3v349h190v-1085h-161zM1113 857h-113l45 228h167z" />
    <glyph glyph-name="Dmacron" unicode="&#x110;" horiz-adv-x="1166" 
d="M396 447v-290q32 -1 54 -1h49q73 0 129.5 17t95 57.5t58.5 108.5t20 170q0 42 -4 84t-15 81t-30.5 72t-49.5 58t-72 39t-99 14q-33 0 -68.5 -1t-67.5 -5v-255h136v-149h-136zM1006 505q0 -122 -31 -216t-92 -158t-151.5 -97.5t-209.5 -33.5h-322v447h-120v149h120v398
q34 3 75 6.5t84 5.5t85 3.5t79 1.5q112 0 202 -31t152 -94t95.5 -158t33.5 -223z" />
    <glyph glyph-name="dmacron" unicode="&#x111;" horiz-adv-x="1066" 
d="M686 520q0 85 -43 124t-121 39q-59 0 -94 -22.5t-53.5 -60.5t-24 -87.5t-5.5 -103.5q0 -51 6.5 -101.5t25.5 -91t54 -65.5t92 -25q46 0 77.5 15.5t50.5 42t27 63t8 78.5v195zM715 0l-15 97h-7q-36 -58 -91.5 -86.5t-125.5 -28.5q-89 0 -151 37t-101 97.5t-56.5 138
t-17.5 157.5q0 85 18 161.5t57 134t101.5 91.5t151.5 34q63 0 116 -21.5t89 -75.5h3v158h-100v95h100v96h190v-96h111v-95h-111v-894h-161z" />
    <glyph glyph-name="Emacron" unicode="&#x112;" horiz-adv-x="979" 
d="M200 0v1000h625v-165h-429v-236h388v-166h-388v-272h443v-161h-639zM284 1133v132h466v-132h-466z" />
    <glyph glyph-name="emacron" unicode="&#x113;" horiz-adv-x="1037" 
d="M709 471q0 45 -9 85t-29 69.5t-53.5 46.5t-82.5 17q-88 0 -139.5 -56t-51.5 -162h365zM887 411q0 -14 -0.5 -29.5t-2.5 -35.5h-540q1 -105 52 -161t159 -56q62 0 114.5 17t113.5 58l63 -137q-74 -46 -147 -65.5t-154 -19.5q-96 0 -169.5 30.5t-124 86t-76 134
t-25.5 175.5q0 108 30 188t81.5 132.5t122 78.5t151.5 26q87 0 152.5 -29t110 -83.5t67 -133t22.5 -176.5zM294 953v132h466v-132h-466z" />
    <glyph glyph-name="Ebreve" unicode="&#x114;" horiz-adv-x="979" 
d="M200 0v1000h625v-165h-429v-236h388v-166h-388v-272h443v-161h-639zM742 1298q-3 -61 -28.5 -99t-60.5 -59.5t-74 -29t-70 -7.5q-35 0 -73.5 8t-72 29.5t-56.5 59.5t-26 98h117q3 -35 30 -59.5t81 -24.5t82.5 23t33.5 61h117z" />
    <glyph glyph-name="ebreve" unicode="&#x115;" horiz-adv-x="1037" 
d="M709 471q0 45 -9 85t-29 69.5t-53.5 46.5t-82.5 17q-88 0 -139.5 -56t-51.5 -162h365zM887 411q0 -14 -0.5 -29.5t-2.5 -35.5h-540q1 -105 52 -161t159 -56q62 0 114.5 17t113.5 58l63 -137q-74 -46 -147 -65.5t-154 -19.5q-96 0 -169.5 30.5t-124 86t-76 134
t-25.5 175.5q0 108 30 188t81.5 132.5t122 78.5t151.5 26q87 0 152.5 -29t110 -83.5t67 -133t22.5 -176.5zM761 1118q-3 -61 -28.5 -99t-60.5 -59.5t-74 -29t-70 -7.5q-35 0 -73.5 8t-72 29.5t-56.5 59.5t-26 98h117q3 -35 30 -59.5t81 -24.5t82.5 23t33.5 61h117z" />
    <glyph glyph-name="Edotaccent" unicode="&#x116;" horiz-adv-x="979" 
d="M200 0v1000h625v-165h-429v-236h388v-166h-388v-272h443v-161h-639zM632 1201q0 -48 -31 -75t-85 -27q-55 0 -87 27t-32 75q0 46 32 74t87 28q54 0 85 -28t31 -74z" />
    <glyph glyph-name="edotaccent" unicode="&#x117;" horiz-adv-x="1037" 
d="M709 471q0 45 -9 85t-29 69.5t-53.5 46.5t-82.5 17q-88 0 -139.5 -56t-51.5 -162h365zM887 411q0 -14 -0.5 -29.5t-2.5 -35.5h-540q1 -105 52 -161t159 -56q62 0 114.5 17t113.5 58l63 -137q-74 -46 -147 -65.5t-154 -19.5q-96 0 -169.5 30.5t-124 86t-76 134
t-25.5 175.5q0 108 30 188t81.5 132.5t122 78.5t151.5 26q87 0 152.5 -29t110 -83.5t67 -133t22.5 -176.5zM661 1021q0 -48 -31 -75t-85 -27q-55 0 -87 27t-32 75q0 46 32 74t87 28q54 0 85 -28t31 -74z" />
    <glyph glyph-name="Eogonek" unicode="&#x118;" horiz-adv-x="979" 
d="M823 -297q-23 -16 -57 -30.5t-88 -14.5q-40 0 -69.5 13t-49.5 35t-30 51.5t-10 62.5q0 35 10 64.5t25 52.5t31.5 39t29.5 24h-415v1000h625v-165h-429v-236h388v-166h-388v-272h443v-161h-97q-42 -32 -69.5 -69t-27.5 -84q0 -33 14 -55t43 -22q23 0 39.5 6.5t35.5 19.5z
" />
    <glyph glyph-name="eogonek" unicode="&#x119;" horiz-adv-x="1037" 
d="M709 471q0 45 -9 85t-29 69.5t-53.5 46.5t-82.5 17q-88 0 -139.5 -56t-51.5 -162h365zM767 -298q-23 -16 -57.5 -31t-87.5 -15q-40 0 -70 13t-49.5 35t-29.5 52t-10 63q0 28 7 53t17.5 45.5t23.5 37t25 27.5q-93 2 -165 33t-121 86.5t-74.5 133t-25.5 173.5q0 108 30 188
t81.5 132.5t122 78.5t151.5 26q87 0 152.5 -29t110 -83.5t67 -133t22.5 -176.5q0 -14 -0.5 -29.5t-2.5 -35.5h-540q1 -105 52 -161t159 -56q62 0 114.5 17t113.5 58l63 -137q-41 -26 -80.5 -42t-80.5 -26q-43 -32 -69.5 -69.5t-26.5 -83.5q0 -33 14 -55t43 -22q23 0 39.5 6
t34.5 20z" />
    <glyph glyph-name="Ecaron" unicode="&#x11a;" horiz-adv-x="979" 
d="M200 0v1000h625v-165h-429v-236h388v-166h-388v-272h443v-161h-639zM339 1323l181 -94l177 96l68 -101l-244 -135l-247 135z" />
    <glyph glyph-name="ecaron" unicode="&#x11b;" horiz-adv-x="1037" 
d="M709 471q0 45 -9 85t-29 69.5t-53.5 46.5t-82.5 17q-88 0 -139.5 -56t-51.5 -162h365zM887 411q0 -14 -0.5 -29.5t-2.5 -35.5h-540q1 -105 52 -161t159 -56q62 0 114.5 17t113.5 58l63 -137q-74 -46 -147 -65.5t-154 -19.5q-96 0 -169.5 30.5t-124 86t-76 134
t-25.5 175.5q0 108 30 188t81.5 132.5t122 78.5t151.5 26q87 0 152.5 -29t110 -83.5t67 -133t22.5 -176.5zM350 1143l181 -94l177 96l68 -101l-244 -135l-247 135z" />
    <glyph glyph-name="Gbreve" unicode="&#x11e;" horiz-adv-x="1186" 
d="M1026 445q0 -107 -22.5 -192.5t-71.5 -145.5t-126.5 -92t-186.5 -32q-107 0 -192 36t-144 102.5t-91 162t-32 214.5t32.5 215t92.5 163.5t145.5 103.5t190.5 36q60 0 109.5 -11.5t91 -31.5t76 -46t64.5 -54l-113 -131q-54 54 -107 81.5t-116 27.5q-74 0 -123.5 -27.5
t-80.5 -75.5t-44 -112t-13 -137t12 -139t41.5 -116t79 -79.5t125.5 -29.5q117 0 169.5 68.5t52.5 188.5h-224v161h405v-108zM843 1298q-3 -61 -28.5 -99t-60.5 -59.5t-74 -29t-70 -7.5q-35 0 -73.5 8t-72 29.5t-56.5 59.5t-26 98h117q3 -35 30 -59.5t81 -24.5t82.5 23
t33.5 61h117z" />
    <glyph glyph-name="gbreve" unicode="&#x11f;" horiz-adv-x="1069" 
d="M688 514q0 82 -43.5 126.5t-124.5 44.5q-56 0 -90.5 -21.5t-53 -58t-25 -84t-6.5 -99.5q0 -47 7 -92t26 -80.5t53 -57.5t89 -22q48 0 80.5 17t52 45.5t27.5 66.5t8 80v135zM879 7q0 -88 -19.5 -150t-61 -101t-107 -57t-156.5 -18t-173 20.5t-160 61.5l58 149
q66 -39 131 -59t142 -20q42 0 71.5 7t48 24t27 47t8.5 75v140l-3 1q-41 -55 -90.5 -79t-118.5 -24q-86 0 -147.5 29t-101 81.5t-58.5 125t-19 158.5q0 82 16.5 157t55 132.5t100.5 91.5t154 34q72 0 127.5 -24t93.5 -87h2l13 95h167v-810zM755 1118q-3 -61 -28.5 -99
t-60.5 -59.5t-74 -29t-70 -7.5q-35 0 -73.5 8t-72 29.5t-56.5 59.5t-26 98h117q3 -35 30 -59.5t81 -24.5t82.5 23t33.5 61h117z" />
    <glyph glyph-name="Gcommaaccent" unicode="&#x122;" horiz-adv-x="1186" 
d="M1026 445q0 -107 -22.5 -192.5t-71.5 -145.5t-126.5 -92t-186.5 -32q-107 0 -192 36t-144 102.5t-91 162t-32 214.5t32.5 215t92.5 163.5t145.5 103.5t190.5 36q60 0 109.5 -11.5t91 -31.5t76 -46t64.5 -54l-113 -131q-54 54 -107 81.5t-116 27.5q-74 0 -123.5 -27.5
t-80.5 -75.5t-44 -112t-13 -137t12 -139t41.5 -116t79 -79.5t125.5 -29.5q117 0 169.5 68.5t52.5 188.5h-224v161h405v-108zM581 -367h-115l55 276h190z" />
    <glyph glyph-name="gcommaaccent" unicode="&#x123;" horiz-adv-x="1069" 
d="M688 514q0 82 -43.5 126.5t-124.5 44.5q-56 0 -90.5 -21.5t-53 -58t-25 -84t-6.5 -99.5q0 -47 7 -92t26 -80.5t53 -57.5t89 -22q48 0 80.5 17t52 45.5t27.5 66.5t8 80v135zM879 7q0 -88 -19.5 -150t-61 -101t-107 -57t-156.5 -18t-173 20.5t-160 61.5l58 149
q66 -39 131 -59t142 -20q42 0 71.5 7t48 24t27 47t8.5 75v140l-3 1q-41 -55 -90.5 -79t-118.5 -24q-86 0 -147.5 29t-101 81.5t-58.5 125t-19 158.5q0 82 16.5 157t55 132.5t100.5 91.5t154 34q72 0 127.5 -24t93.5 -87h2l13 95h167v-810zM575.115 1198.62h121.945
l-61.5117 -262.998h-197.487z" />
    <glyph glyph-name="Imacron" unicode="&#x12a;" horiz-adv-x="596" 
d="M200 0v1000h196v-1000h-196zM69 1133v132h466v-132h-466z" />
    <glyph glyph-name="imacron" unicode="&#x12b;" horiz-adv-x="572" 
d="M190 0v817h192v-817h-192zM57 953v132h466v-132h-466z" />
    <glyph glyph-name="Ibreve" unicode="&#x12c;" horiz-adv-x="596" 
d="M200 0v1000h196v-1000h-196zM534 1298q-3 -61 -28.5 -99t-60.5 -59.5t-74 -29t-70 -7.5q-35 0 -73.5 8t-72 29.5t-56.5 59.5t-26 98h117q3 -35 30 -59.5t81 -24.5t82.5 23t33.5 61h117z" />
    <glyph glyph-name="ibreve" unicode="&#x12d;" horiz-adv-x="572" 
d="M190 0v817h192v-817h-192zM518 1118q-3 -61 -28.5 -99t-60.5 -59.5t-74 -29t-70 -7.5q-35 0 -73.5 8t-72 29.5t-56.5 59.5t-26 98h117q3 -35 30 -59.5t81 -24.5t82.5 23t33.5 61h117z" />
    <glyph glyph-name="Iogonek" unicode="&#x12e;" horiz-adv-x="596" 
d="M456 -297q-23 -16 -57.5 -30.5t-87.5 -14.5q-40 0 -70.5 13t-51.5 35t-31.5 51.5t-10.5 62.5q0 35 9.5 64.5t23 52.5t29 39t28.5 24h-37v1000h196v-1000h-21q-43 -32 -70 -69t-27 -84q0 -33 13.5 -55t43.5 -22q23 0 39 6.5t35 19.5z" />
    <glyph glyph-name="iogonek" unicode="&#x12f;" horiz-adv-x="572" 
d="M403 1021q0 -48 -31.5 -75t-85.5 -27q-55 0 -86.5 27t-31.5 75q0 46 31.5 74t86.5 28q54 0 85.5 -28t31.5 -74zM431 -297q-23 -16 -57.5 -30.5t-87.5 -14.5q-40 0 -70.5 13t-50.5 35t-30.5 51.5t-10.5 62.5q0 35 9.5 64.5t23.5 52.5t29.5 39t28.5 24h-25v817h192v-817
h-32q-43 -32 -70 -69t-27 -84q0 -33 13.5 -55t43.5 -22q23 0 39 6.5t35 19.5z" />
    <glyph glyph-name="Idotaccent" unicode="&#x130;" horiz-adv-x="596" 
d="M200 0v1000h196v-1000h-196zM418 1201q0 -48 -31 -75t-85 -27q-55 0 -87 27t-32 75q0 46 32 74t87 28q54 0 85 -28t31 -74z" />
    <glyph glyph-name="dotlessi" unicode="&#x131;" horiz-adv-x="572" 
d="M190 0v817h192v-817h-192z" />
    <glyph glyph-name="Kcommaaccent" unicode="&#x136;" horiz-adv-x="1069" 
d="M738 0l-255 436l-88 -106v-330h-195v1000h195v-432h6l305 432h240l-322 -424l355 -576h-241zM515 -367h-115l55 276h190z" />
    <glyph glyph-name="kcommaaccent" unicode="&#x137;" horiz-adv-x="968" 
d="M677 0l-204 362l-94 -104v-258h-189v1085h190v-613h3l268 345h228l-271 -335l290 -482h-221zM486 -367h-115l55 276h190z" />
    <glyph glyph-name="Lacute" unicode="&#x139;" horiz-adv-x="907" 
d="M200 0v1000h195v-835h392v-165h-587zM299 1113l-108 60l190 174l169 -86z" />
    <glyph glyph-name="lacute" unicode="&#x13a;" horiz-adv-x="617" 
d="M507 0q-26 -5 -61.5 -7.5t-71.5 -2.5q-52 0 -87 9.5t-56.5 31t-31 56t-9.5 84.5v914h190v-869q0 -23 3.5 -36.5t11.5 -20t21.5 -8t33.5 -1.5h57v-150zM291 1170l-108 60l190 174l169 -86z" />
    <glyph glyph-name="Lcommaaccent" unicode="&#x13b;" horiz-adv-x="907" 
d="M200 0v1000h195v-835h392v-165h-587zM449 -367h-115l55 276h190z" />
    <glyph glyph-name="lcommaaccent" unicode="&#x13c;" horiz-adv-x="617" 
d="M507 0q-26 -5 -61.5 -7.5t-71.5 -2.5q-52 0 -87 9.5t-56.5 31t-31 56t-9.5 84.5v914h190v-869q0 -23 3.5 -36.5t11.5 -20t21.5 -8t33.5 -1.5h57v-150zM331 -367h-115l55 276h190z" />
    <glyph glyph-name="Lcaron" unicode="&#x13d;" horiz-adv-x="907" 
d="M200 0v1000h195v-835h392v-165h-587zM760 857h-113l45 228h167z" />
    <glyph glyph-name="lcaron" unicode="&#x13e;" horiz-adv-x="617" 
d="M507 0q-26 -5 -61.5 -7.5t-71.5 -2.5q-52 0 -87 9.5t-56.5 31t-31 56t-9.5 84.5v914h190v-869q0 -23 3.5 -36.5t11.5 -20t21.5 -8t33.5 -1.5h57v-150zM635 857h-113l45 228h167z" />
    <glyph glyph-name="Lslash" unicode="&#x141;" horiz-adv-x="907" 
d="M200 0v415l-87 -55v162l87 54v424h195v-304l223 140v-169l-223 -141v-361h392v-165h-587z" />
    <glyph glyph-name="lslash" unicode="&#x142;" horiz-adv-x="617" 
d="M380 545v-329q0 -23 3.5 -36.5t11.5 -20t21.5 -8t33.5 -1.5h57v-150q-26 -5 -61.5 -7.5t-71.5 -2.5q-52 0 -87 9.5t-56.5 31t-31 56t-9.5 84.5v261l-120 -72v165l120 71v489h190v-375l177 107v-165z" />
    <glyph glyph-name="Nacute" unicode="&#x143;" horiz-adv-x="1233" 
d="M837 0l-443 663h-3v-663h-191v1000h187l440 -662h3v662h193v-1000h-186zM613 1103l-108 60l190 174l169 -86z" />
    <glyph glyph-name="nacute" unicode="&#x144;" horiz-adv-x="1074" 
d="M694 0v463q0 46 -3.5 84.5t-18 66.5t-43.5 43.5t-79 15.5q-88 0 -129 -43.5t-41 -134.5v-495h-190v817h165l15 -91h3q41 61 99.5 84t132.5 23q81 0 134.5 -23.5t86 -68t45.5 -107.5t13 -142v-492h-190zM573 923l-108 60l190 174l169 -86z" />
    <glyph glyph-name="Ncommaaccent" unicode="&#x145;" horiz-adv-x="1233" 
d="M837 0l-443 663h-3v-663h-191v1000h187l440 -662h3v662h193v-1000h-186zM581 -367h-115l55 276h190z" />
    <glyph glyph-name="ncommaaccent" unicode="&#x146;" horiz-adv-x="1074" 
d="M694 0v463q0 46 -3.5 84.5t-18 66.5t-43.5 43.5t-79 15.5q-88 0 -129 -43.5t-41 -134.5v-495h-190v817h165l15 -91h3q41 61 99.5 84t132.5 23q81 0 134.5 -23.5t86 -68t45.5 -107.5t13 -142v-492h-190zM518 -367h-115l55 276h190z" />
    <glyph glyph-name="Ncaron" unicode="&#x147;" horiz-adv-x="1233" 
d="M837 0l-443 663h-3v-663h-191v1000h187l440 -662h3v662h193v-1000h-186zM447 1323l181 -94l177 96l68 -101l-244 -135l-247 135z" />
    <glyph glyph-name="ncaron" unicode="&#x148;" horiz-adv-x="1074" 
d="M694 0v463q0 46 -3.5 84.5t-18 66.5t-43.5 43.5t-79 15.5q-88 0 -129 -43.5t-41 -134.5v-495h-190v817h165l15 -91h3q41 61 99.5 84t132.5 23q81 0 134.5 -23.5t86 -68t45.5 -107.5t13 -142v-492h-190zM376 1143l181 -94l177 96l68 -101l-244 -135l-247 135z" />
    <glyph glyph-name="Omacron" unicode="&#x14c;" 
d="M886 501q0 79 -12 144.5t-41.5 112.5t-80 73t-127.5 26t-127 -26t-79.5 -73t-41.5 -112.5t-12 -144.5q0 -80 12 -145.5t41.5 -112.5t80 -73t127.5 -26q76 0 126.5 26t80 73.5t41.5 113t12 144.5zM1090 501q0 -124 -31.5 -220.5t-91 -162.5t-145.5 -100.5t-196 -34.5
t-196.5 34.5t-146.5 100.5t-91.5 162.5t-31.5 220.5q0 122 31 218t91 162t146.5 100.5t197.5 34.5t197.5 -34.5t145.5 -100.5t90 -162t31 -218zM390 1133v132h466v-132h-466z" />
    <glyph glyph-name="omacron" unicode="&#x14d;" horiz-adv-x="1073" 
d="M730 408q0 59 -8.5 109t-30 86t-58.5 56.5t-95 20.5q-59 0 -96 -20.5t-59 -56.5t-30 -86t-8 -109q0 -63 8.5 -114t30.5 -87.5t59.5 -56.5t94.5 -20t94 20t58.5 56.5t30.5 87.5t9 114zM923 408q0 -94 -23.5 -172t-71 -134.5t-120 -88t-170.5 -31.5q-99 0 -172 31.5
t-121 87.5t-71.5 134.5t-23.5 172.5q0 90 22 167.5t69.5 135t121 90t175.5 32.5q97 0 169 -30.5t120 -86.5t72 -134t24 -174zM304 953v132h466v-132h-466z" />
    <glyph glyph-name="Obreve" unicode="&#x14e;" 
d="M886 501q0 79 -12 144.5t-41.5 112.5t-80 73t-127.5 26t-127 -26t-79.5 -73t-41.5 -112.5t-12 -144.5q0 -80 12 -145.5t41.5 -112.5t80 -73t127.5 -26q76 0 126.5 26t80 73.5t41.5 113t12 144.5zM1090 501q0 -124 -31.5 -220.5t-91 -162.5t-145.5 -100.5t-196 -34.5
t-196.5 34.5t-146.5 100.5t-91.5 162.5t-31.5 220.5q0 122 31 218t91 162t146.5 100.5t197.5 34.5t197.5 -34.5t145.5 -100.5t90 -162t31 -218zM859 1298q-3 -61 -28.5 -99t-60.5 -59.5t-74 -29t-70 -7.5q-35 0 -73.5 8t-72 29.5t-56.5 59.5t-26 98h117q3 -35 30 -59.5
t81 -24.5t82.5 23t33.5 61h117z" />
    <glyph glyph-name="obreve" unicode="&#x14f;" horiz-adv-x="1073" 
d="M730 408q0 59 -8.5 109t-30 86t-58.5 56.5t-95 20.5q-59 0 -96 -20.5t-59 -56.5t-30 -86t-8 -109q0 -63 8.5 -114t30.5 -87.5t59.5 -56.5t94.5 -20t94 20t58.5 56.5t30.5 87.5t9 114zM923 408q0 -94 -23.5 -172t-71 -134.5t-120 -88t-170.5 -31.5q-99 0 -172 31.5
t-121 87.5t-71.5 134.5t-23.5 172.5q0 90 22 167.5t69.5 135t121 90t175.5 32.5q97 0 169 -30.5t120 -86.5t72 -134t24 -174zM766 1118q-3 -61 -28.5 -99t-60.5 -59.5t-74 -29t-70 -7.5q-35 0 -73.5 8t-72 29.5t-56.5 59.5t-26 98h117q3 -35 30 -59.5t81 -24.5t82.5 23
t33.5 61h117z" />
    <glyph glyph-name="Ohungarumlaut" unicode="&#x150;" 
d="M886 501q0 79 -12 144.5t-41.5 112.5t-80 73t-127.5 26t-127 -26t-79.5 -73t-41.5 -112.5t-12 -144.5q0 -80 12 -145.5t41.5 -112.5t80 -73t127.5 -26q76 0 126.5 26t80 73.5t41.5 113t12 144.5zM1090 501q0 -124 -31.5 -220.5t-91 -162.5t-145.5 -100.5t-196 -34.5
t-196.5 34.5t-146.5 100.5t-91.5 162.5t-31.5 220.5q0 122 31 218t91 162t146.5 100.5t197.5 34.5t197.5 -34.5t145.5 -100.5t90 -162t31 -218zM440 1103l-83 61l195 177l139 -87zM814 1103l-85 61l195 177l139 -87z" />
    <glyph glyph-name="ohungarumlaut" unicode="&#x151;" horiz-adv-x="1073" 
d="M730 408q0 59 -8.5 109t-30 86t-58.5 56.5t-95 20.5q-59 0 -96 -20.5t-59 -56.5t-30 -86t-8 -109q0 -63 8.5 -114t30.5 -87.5t59.5 -56.5t94.5 -20t94 20t58.5 56.5t30.5 87.5t9 114zM923 408q0 -94 -23.5 -172t-71 -134.5t-120 -88t-170.5 -31.5q-99 0 -172 31.5
t-121 87.5t-71.5 134.5t-23.5 172.5q0 90 22 167.5t69.5 135t121 90t175.5 32.5q97 0 169 -30.5t120 -86.5t72 -134t24 -174zM363 923l-83 61l195 177l139 -87zM737 923l-85 61l195 177l139 -87z" />
    <glyph glyph-name="OE" unicode="&#x152;" horiz-adv-x="1684" 
d="M902 501q0 78 -13.5 143.5t-45 112.5t-83.5 73t-129 26t-129 -26t-84 -73.5t-46 -112.5t-14 -143q0 -79 14 -144.5t46 -113t84 -73.5t129 -26q76 0 127.5 26.5t83.5 73.5t46 113t14 144zM909 0v103q-20 -27 -50 -48.5t-66.5 -37t-78 -23.5t-84.5 -8q-110 0 -197 34
t-148 99.5t-93 161.5t-32 220q0 122 32 218t92 162t147.5 100.5t198.5 34.5q87 0 159.5 -30.5t119.5 -88.5v103h622v-164h-431v-235h388v-165h-388v-276h444v-160h-635z" />
    <glyph glyph-name="oe" unicode="&#x153;" horiz-adv-x="1589" 
d="M710 394q0 58 -8.5 105.5t-29 81t-56 51.5t-89.5 18t-89.5 -18t-56.5 -51.5t-29.5 -81t-8.5 -105.5q0 -137 45.5 -198.5t140.5 -61.5q93 0 137 61.5t44 198.5zM1263 462q-2 42 -11 78.5t-29.5 63.5t-53.5 42.5t-81 15.5q-86 0 -134.5 -50.5t-48.5 -149.5h358zM1439 391
q0 -11 -0.5 -25.5t-2.5 -35.5h-532q6 -196 207 -196q56 0 108.5 16.5t109.5 51.5l60 -136q-71 -43 -140 -63.5t-148 -20.5q-99 0 -169.5 32.5t-118.5 95.5q-47 -61 -118 -94.5t-168 -33.5q-92 0 -162.5 28.5t-118 82t-72 130t-24.5 171.5q0 92 23 168t70 130t117.5 84
t166.5 30q94 0 164.5 -31.5t118.5 -91.5q48 63 120 93.5t157 30.5q82 0 147 -27.5t110.5 -80.5t70 -130.5t24.5 -177.5z" />
    <glyph glyph-name="Racute" unicode="&#x154;" horiz-adv-x="1097" 
d="M725 699q0 46 -13.5 76.5t-38 48.5t-60 25t-79.5 7q-37 0 -70.5 -1.5t-68.5 -4.5v-306h158q40 0 72 7t54 24.5t34 47.5t12 76zM740 0l-131 348q-9 23 -19 32t-35 9h-160v-389h-195v993q81 10 164.5 13.5t166.5 3.5q76 0 146.5 -13t125 -47t87.5 -92t33 -148
q0 -97 -39 -165.5t-128 -103.5v-2q15 -5 24 -25.5t15 -34.5l152 -379h-207zM526 1103l-108 60l190 174l169 -86z" />
    <glyph glyph-name="racute" unicode="&#x155;" horiz-adv-x="750" 
d="M602 661q-50 0 -91 -7t-70 -26t-45 -52.5t-16 -86.5v-489h-190v817h166l15 -105h2q33 62 86 91.5t140 29.5h51v-172h-48zM397 923l-108 60l190 174l169 -86z" />
    <glyph glyph-name="Rcommaaccent" unicode="&#x156;" horiz-adv-x="1097" 
d="M725 699q0 46 -13.5 76.5t-38 48.5t-60 25t-79.5 7q-37 0 -70.5 -1.5t-68.5 -4.5v-306h158q40 0 72 7t54 24.5t34 47.5t12 76zM740 0l-131 348q-9 23 -19 32t-35 9h-160v-389h-195v993q81 10 164.5 13.5t166.5 3.5q76 0 146.5 -13t125 -47t87.5 -92t33 -148
q0 -97 -39 -165.5t-128 -103.5v-2q15 -5 24 -25.5t15 -34.5l152 -379h-207zM522 -367h-115l55 276h190z" />
    <glyph glyph-name="rcommaaccent" unicode="&#x157;" horiz-adv-x="750" 
d="M602 661q-50 0 -91 -7t-70 -26t-45 -52.5t-16 -86.5v-489h-190v817h166l15 -105h2q33 62 86 91.5t140 29.5h51v-172h-48zM251 -367h-115l55 276h190z" />
    <glyph glyph-name="Rcaron" unicode="&#x158;" horiz-adv-x="1097" 
d="M725 699q0 46 -13.5 76.5t-38 48.5t-60 25t-79.5 7q-37 0 -70.5 -1.5t-68.5 -4.5v-306h158q40 0 72 7t54 24.5t34 47.5t12 76zM740 0l-131 348q-9 23 -19 32t-35 9h-160v-389h-195v993q81 10 164.5 13.5t166.5 3.5q76 0 146.5 -13t125 -47t87.5 -92t33 -148
q0 -97 -39 -165.5t-128 -103.5v-2q15 -5 24 -25.5t15 -34.5l152 -379h-207zM349 1323l181 -94l177 96l68 -101l-244 -135l-247 135z" />
    <glyph glyph-name="rcaron" unicode="&#x159;" horiz-adv-x="750" 
d="M602 661q-50 0 -91 -7t-70 -26t-45 -52.5t-16 -86.5v-489h-190v817h166l15 -105h2q33 62 86 91.5t140 29.5h51v-172h-48zM235 1143l181 -94l177 96l68 -101l-244 -135l-247 135z" />
    <glyph glyph-name="Sacute" unicode="&#x15a;" horiz-adv-x="974" 
d="M844 291q0 -82 -28 -140t-76 -94.5t-113 -53.5t-138 -17q-54 0 -102.5 6.5t-93.5 19.5t-87.5 33.5t-85.5 47.5l80 151q63 -45 132 -75.5t147 -30.5q31 0 62 6.5t55 22.5t39 41.5t15 64.5q0 35 -17.5 60t-47 44t-68.5 33.5t-81 28.5q-51 18 -101.5 40.5t-91.5 56t-66.5 83
t-25.5 121.5q0 75 29 127t76.5 85t108.5 47.5t125 14.5q88 0 165 -22t152 -63l-64 -156q-55 38 -112 61t-126 23q-32 0 -60.5 -5.5t-50.5 -18.5t-35 -34.5t-13 -52.5q0 -32 17.5 -54t47 -38.5t67.5 -30t80 -27.5q51 -17 102 -39t92 -56t66.5 -84.5t25.5 -125.5zM485 1103
l-108 60l190 174l169 -86z" />
    <glyph glyph-name="sacute" unicode="&#x15b;" horiz-adv-x="880" 
d="M750 235q0 -131 -81.5 -192t-228.5 -61q-88 0 -171.5 23t-158.5 68l68 135q57 -38 124 -63t136 -25q62 0 95.5 23.5t33.5 76.5q0 28 -15 47.5t-40 34t-57.5 26t-67.5 23.5q-44 14 -88 32t-79.5 46t-58 69.5t-22.5 103.5q0 55 21 98t60.5 72.5t96.5 45t129 15.5t142 -15
t136 -48l-49 -135q-48 30 -102 47t-113 17q-61 0 -100.5 -19.5t-39.5 -66.5q0 -24 14 -42t38 -31.5t55.5 -24.5t66.5 -22q45 -15 90.5 -33t82.5 -47t60 -71.5t23 -106.5zM461 923l-108 60l190 174l169 -86z" />
    <glyph glyph-name="Scedilla" unicode="&#x15e;" horiz-adv-x="974" 
d="M637 -205q0 -31 -10.5 -58t-31 -46.5t-50 -30.5t-67.5 -11q-42 0 -77 11.5t-67 31.5l24 70q32 -17 56.5 -25t56.5 -8q28 0 46.5 15.5t18.5 47.5q0 25 -15 43t-56 18q-14 0 -28 -2.5t-28 -8.5l-37 20l60 125q-89 7 -163 32.5t-149 73.5l80 151q63 -45 132 -75.5t147 -30.5
q31 0 62 6.5t55 22.5t39 41.5t15 64.5q0 38 -20.5 64t-54.5 45.5t-77 34.5t-89 32q-48 18 -94 40t-82.5 55t-59 80.5t-22.5 115.5q0 75 29 127t76.5 85t108.5 47.5t125 14.5q88 0 165 -22t152 -63l-64 -156q-55 38 -112 61t-126 23q-32 0 -60.5 -5.5t-50.5 -18.5t-35 -34.5
t-13 -52.5t16.5 -53t44.5 -38.5t65 -29.5t77 -26q51 -17 103.5 -38.5t95 -56t69.5 -86t27 -127.5q0 -79 -26 -135.5t-71 -93t-105.5 -55t-130.5 -20.5l-33 -71l1 -2l17.5 3.5t15.5 1.5q56 0 90.5 -32t34.5 -92z" />
    <glyph glyph-name="scedilla" unicode="&#x15f;" horiz-adv-x="880" 
d="M588 -205q0 -31 -10 -58t-29.5 -46.5t-48 -30.5t-64.5 -11q-39 0 -72 11.5t-64 31.5l22 70q30 -17 53.5 -25t55.5 -8q26 0 43.5 15.5t17.5 47.5q0 25 -15 43t-53 18q-14 0 -27 -2.5t-25 -8.5l-37 20l57 121q-154 12 -287 90l68 135q57 -38 124 -63t136 -25
q62 0 95.5 23.5t33.5 76.5q0 30 -17 50.5t-45.5 36t-65 27.5t-74.5 24q-41 13 -81.5 31.5t-72.5 46t-52 68t-20 98.5q0 55 21 98t60.5 72.5t96.5 45t129 15.5t142 -15t136 -48l-49 -135q-48 30 -102 47t-113 17q-61 0 -100.5 -19.5t-39.5 -66.5q0 -26 14.5 -43.5t38.5 -31
t55.5 -24t66.5 -21.5q45 -15 90 -33t82 -47t60 -72t23 -106q0 -124 -73 -185t-206 -67l-30 -67l2 -2q8 2 15.5 3.5t15.5 1.5q53 0 86 -32t33 -92z" />
    <glyph glyph-name="Scaron" unicode="&#x160;" horiz-adv-x="974" 
d="M844 291q0 -82 -28 -140t-76 -94.5t-113 -53.5t-138 -17q-54 0 -102.5 6.5t-93.5 19.5t-87.5 33.5t-85.5 47.5l80 151q63 -45 132 -75.5t147 -30.5q31 0 62 6.5t55 22.5t39 41.5t15 64.5q0 35 -17.5 60t-47 44t-68.5 33.5t-81 28.5q-51 18 -101.5 40.5t-91.5 56t-66.5 83
t-25.5 121.5q0 75 29 127t76.5 85t108.5 47.5t125 14.5q88 0 165 -22t152 -63l-64 -156q-55 38 -112 61t-126 23q-32 0 -60.5 -5.5t-50.5 -18.5t-35 -34.5t-13 -52.5q0 -32 17.5 -54t47 -38.5t67.5 -30t80 -27.5q51 -17 102 -39t92 -56t66.5 -84.5t25.5 -125.5zM320 1323
l181 -94l177 96l68 -101l-244 -135l-247 135z" />
    <glyph glyph-name="scaron" unicode="&#x161;" horiz-adv-x="880" 
d="M750 235q0 -131 -81.5 -192t-228.5 -61q-88 0 -171.5 23t-158.5 68l68 135q57 -38 124 -63t136 -25q62 0 95.5 23.5t33.5 76.5q0 28 -15 47.5t-40 34t-57.5 26t-67.5 23.5q-44 14 -88 32t-79.5 46t-58 69.5t-22.5 103.5q0 55 21 98t60.5 72.5t96.5 45t129 15.5t142 -15
t136 -48l-49 -135q-48 30 -102 47t-113 17q-61 0 -100.5 -19.5t-39.5 -66.5q0 -24 14 -42t38 -31.5t55.5 -24.5t66.5 -22q45 -15 90.5 -33t82.5 -47t60 -71.5t23 -106.5zM265 1143l181 -94l177 96l68 -101l-244 -135l-247 135z" />
    <glyph glyph-name="Tcommaaccent" unicode="&#x162;" horiz-adv-x="923" 
d="M559 833v-833h-196v833h-263v167h723v-167h-264zM430 -367h-115l55 276h190z" />
    <glyph glyph-name="Tcommaaccent" unicode="&#x21a;" horiz-adv-x="923" 
d="M559 833v-833h-196v833h-263v167h723v-167h-264zM430 -367h-115l55 276h190z" />
    <glyph glyph-name="tcommaaccent" unicode="&#x163;" horiz-adv-x="702" 
d="M582 -1q-36 -5 -65.5 -8t-58.5 -3q-76 0 -123.5 13t-74.5 43t-36.5 77.5t-9.5 116.5v411h-124v154h128v218h187v-218h177v-154h-177v-404q0 -32 3 -51t16 -29.5t39.5 -14t73.5 -3.5h45v-148zM413 -367h-115l55 276h190z" />
    <glyph glyph-name="tcommaaccent" unicode="&#x21b;" horiz-adv-x="702" 
d="M582 -1q-36 -5 -65.5 -8t-58.5 -3q-76 0 -123.5 13t-74.5 43t-36.5 77.5t-9.5 116.5v411h-124v154h128v218h187v-218h177v-154h-177v-404q0 -32 3 -51t16 -29.5t39.5 -14t73.5 -3.5h45v-148zM413 -367h-115l55 276h190z" />
    <glyph glyph-name="Tcaron" unicode="&#x164;" horiz-adv-x="923" 
d="M559 833v-833h-196v833h-263v167h723v-167h-264zM277 1323l181 -94l177 96l68 -101l-244 -135l-247 135z" />
    <glyph glyph-name="tcaron" unicode="&#x165;" horiz-adv-x="702" 
d="M582 -1q-36 -5 -65.5 -8t-58.5 -3q-76 0 -123.5 13t-74.5 43t-36.5 77.5t-9.5 116.5v411h-124v154h128v218h187v-218h177v-154h-177v-404q0 -32 3 -51t16 -29.5t39.5 -14t73.5 -3.5h45v-148zM730 857h-113l45 228h167z" />
    <glyph glyph-name="Umacron" unicode="&#x16a;" horiz-adv-x="1177" 
d="M977 406q0 -101 -20.5 -179.5t-66 -132.5t-120 -82.5t-182.5 -28.5t-182 28.5t-120 82.5t-66 132.5t-20 179.5v594h196v-575q0 -58 5.5 -108.5t25.5 -88t58.5 -59t103.5 -21.5t103 22t58 59.5t26 88t6 107.5v575h195v-594zM363 1133v132h466v-132h-466z" />
    <glyph glyph-name="umacron" unicode="&#x16b;" horiz-adv-x="1062" 
d="M701 0l-14 88h-3q-35 -49 -88.5 -78.5t-137.5 -29.5q-65 0 -114.5 16t-84 53.5t-52 100t-17.5 154.5v513h190v-446q0 -52 3 -94.5t17 -73t42 -47t79 -16.5q47 0 78 12.5t49 36.5t25.5 58.5t7.5 79.5v490h191v-817h-171zM293 953v132h466v-132h-466z" />
    <glyph glyph-name="Ubreve" unicode="&#x16c;" horiz-adv-x="1177" 
d="M977 406q0 -101 -20.5 -179.5t-66 -132.5t-120 -82.5t-182.5 -28.5t-182 28.5t-120 82.5t-66 132.5t-20 179.5v594h196v-575q0 -58 5.5 -108.5t25.5 -88t58.5 -59t103.5 -21.5t103 22t58 59.5t26 88t6 107.5v575h195v-594zM818 1298q-3 -61 -28.5 -99t-60.5 -59.5
t-74 -29t-70 -7.5q-35 0 -73.5 8t-72 29.5t-56.5 59.5t-26 98h117q3 -35 30 -59.5t81 -24.5t82.5 23t33.5 61h117z" />
    <glyph glyph-name="ubreve" unicode="&#x16d;" horiz-adv-x="1062" 
d="M701 0l-14 88h-3q-35 -49 -88.5 -78.5t-137.5 -29.5q-65 0 -114.5 16t-84 53.5t-52 100t-17.5 154.5v513h190v-446q0 -52 3 -94.5t17 -73t42 -47t79 -16.5q47 0 78 12.5t49 36.5t25.5 58.5t7.5 79.5v490h191v-817h-171zM760 1118q-3 -61 -28.5 -99t-60.5 -59.5t-74 -29
t-70 -7.5q-35 0 -73.5 8t-72 29.5t-56.5 59.5t-26 98h117q3 -35 30 -59.5t81 -24.5t82.5 23t33.5 61h117z" />
    <glyph glyph-name="Uring" unicode="&#x16e;" horiz-adv-x="1177" 
d="M977 406q0 -101 -20.5 -179.5t-66 -132.5t-120 -82.5t-182.5 -28.5t-182 28.5t-120 82.5t-66 132.5t-20 179.5v594h196v-575q0 -58 5.5 -108.5t25.5 -88t58.5 -59t103.5 -21.5t103 22t58 59.5t26 88t6 107.5v575h195v-594zM664 1210q0 28 -20.5 46.5t-49.5 18.5
t-48.5 -18.5t-19.5 -46.5q0 -27 19.5 -45t48.5 -18t49.5 18t20.5 45zM737 1211q0 -28 -10.5 -52t-29.5 -41.5t-45.5 -27.5t-57.5 -10q-30 0 -55.5 10t-45 27.5t-30.5 41.5t-11 52q0 27 11 51t30.5 41.5t45 27.5t55.5 10q31 0 57.5 -10t45.5 -27.5t29.5 -41.5t10.5 -51z" />
    <glyph glyph-name="uring" unicode="&#x16f;" horiz-adv-x="1062" 
d="M701 0l-14 88h-3q-35 -49 -88.5 -78.5t-137.5 -29.5q-65 0 -114.5 16t-84 53.5t-52 100t-17.5 154.5v513h190v-446q0 -52 3 -94.5t17 -73t42 -47t79 -16.5q47 0 78 12.5t49 36.5t25.5 58.5t7.5 79.5v490h191v-817h-171zM603 1030q0 28 -20.5 46.5t-49.5 18.5t-48.5 -18.5
t-19.5 -46.5q0 -27 19.5 -45t48.5 -18t49.5 18t20.5 45zM676 1031q0 -28 -10.5 -52t-29.5 -41.5t-45.5 -27.5t-57.5 -10q-30 0 -55.5 10t-45 27.5t-30.5 41.5t-11 52q0 27 11 51t30.5 41.5t45 27.5t55.5 10q31 0 57.5 -10t45.5 -27.5t29.5 -41.5t10.5 -51z" />
    <glyph glyph-name="Uhungarumlaut" unicode="&#x170;" horiz-adv-x="1177" 
d="M977 406q0 -101 -20.5 -179.5t-66 -132.5t-120 -82.5t-182.5 -28.5t-182 28.5t-120 82.5t-66 132.5t-20 179.5v594h196v-575q0 -58 5.5 -108.5t25.5 -88t58.5 -59t103.5 -21.5t103 22t58 59.5t26 88t6 107.5v575h195v-594zM414 1103l-83 61l195 177l139 -87zM788 1103
l-85 61l195 177l139 -87z" />
    <glyph glyph-name="uhungarumlaut" unicode="&#x171;" horiz-adv-x="1062" 
d="M701 0l-14 88h-3q-35 -49 -88.5 -78.5t-137.5 -29.5q-65 0 -114.5 16t-84 53.5t-52 100t-17.5 154.5v513h190v-446q0 -52 3 -94.5t17 -73t42 -47t79 -16.5q47 0 78 12.5t49 36.5t25.5 58.5t7.5 79.5v490h191v-817h-171zM357 923l-83 61l195 177l139 -87zM731 923l-85 61
l195 177l139 -87z" />
    <glyph glyph-name="Uogonek" unicode="&#x172;" horiz-adv-x="1177" 
d="M834 -291q-23 -16 -57.5 -30t-87.5 -14q-81 0 -124.5 44.5t-43.5 116.5q0 27 7 51t18.5 43.5t25 35t25.5 27.5h-9q-108 0 -182 28.5t-120 82.5t-66 132.5t-20 179.5v594h196v-575q0 -58 5.5 -108.5t25.5 -88t58.5 -59t103.5 -21.5t103 22t58 59.5t26 88t6 107.5v575h195
v-594q0 -158 -52 -260.5t-173 -141.5q-43 -31 -69.5 -68t-26.5 -83q0 -32 13.5 -54.5t42.5 -22.5q23 0 39.5 6t35.5 20z" />
    <glyph glyph-name="uogonek" unicode="&#x173;" horiz-adv-x="1062" 
d="M903 -294q-23 -16 -58 -30t-88 -14q-40 0 -71 12.5t-52 33.5t-32 50t-11 62q0 37 12 67t29.5 52.5t37.5 37.5t36 23l-14 88h-3q-35 -49 -88.5 -78.5t-137.5 -29.5q-65 0 -114.5 16t-84 53.5t-52 100t-17.5 154.5v513h190v-446q0 -52 3 -94.5t17 -73t42 -47t79 -16.5
q47 0 78 12.5t49 36.5t25.5 58.5t7.5 79.5v490h191v-817h-44q-21 -14 -41 -29t-35.5 -33.5t-24.5 -40t-9 -47.5q0 -33 14 -55t43 -22q24 0 40 6.5t36 19.5z" />
    <glyph glyph-name="Ydieresis" unicode="&#x178;" horiz-adv-x="1018" 
d="M608 391v-391h-195v385l-343 615h220l222 -441l223 441h213zM449 1201q0 -21 -8.5 -39.5t-22.5 -32.5t-33 -22t-39 -8q-21 0 -39.5 8t-32.5 22t-22 32.5t-8 39.5t8 39.5t22 32.5t32.5 22t39.5 8q20 0 39 -8t33 -22t22.5 -32.5t8.5 -39.5zM783 1201q0 -43 -29.5 -72.5
t-71.5 -29.5q-21 0 -40 8t-33 22t-22.5 32.5t-8.5 39.5t8.5 39.5t22.5 32.5t33 22t40 8q42 0 71.5 -29.5t29.5 -72.5z" />
    <glyph glyph-name="Zacute" unicode="&#x179;" horiz-adv-x="976" 
d="M130 0v151l464 682h-442l-1 167h681v-151l-470 -688h484v-161h-716zM506 1103l-108 60l190 174l169 -86z" />
    <glyph glyph-name="zacute" unicode="&#x17a;" horiz-adv-x="850" 
d="M120 0v137l377 524h-369v156h595v-148l-369 -515h376v-154h-610zM432 923l-108 60l190 174l169 -86z" />
    <glyph glyph-name="Zdotaccent" unicode="&#x17b;" horiz-adv-x="976" 
d="M130 0v151l464 682h-442l-1 167h681v-151l-470 -688h484v-161h-716zM612 1201q0 -48 -31 -75t-85 -27q-55 0 -87 27t-32 75q0 46 32 74t87 28q54 0 85 -28t31 -74z" />
    <glyph glyph-name="zdotaccent" unicode="&#x17c;" horiz-adv-x="850" 
d="M120 0v137l377 524h-369v156h595v-148l-369 -515h376v-154h-610zM547 1021q0 -48 -31 -75t-85 -27q-55 0 -87 27t-32 75q0 46 32 74t87 28q54 0 85 -28t31 -74z" />
    <glyph glyph-name="Zcaron" unicode="&#x17d;" horiz-adv-x="976" 
d="M130 0v151l464 682h-442l-1 167h681v-151l-470 -688h484v-161h-716zM332 1323l181 -94l177 96l68 -101l-244 -135l-247 135z" />
    <glyph glyph-name="zcaron" unicode="&#x17e;" horiz-adv-x="850" 
d="M120 0v137l377 524h-369v156h595v-148l-369 -515h376v-154h-610zM243 1143l181 -94l177 96l68 -101l-244 -135l-247 135z" />
    <glyph glyph-name="florin" unicode="&#x192;" horiz-adv-x="924" 
d="M808 910q-17 1 -28.5 2t-31.5 1q-31 0 -51.5 -4.5t-33 -14.5t-20 -26t-11.5 -38l-31 -161h152l-27 -154h-151l-105 -538q-13 -68 -34.5 -118.5t-54.5 -83.5t-80 -49.5t-110 -16.5q-27 0 -56.5 3.5t-54.5 12.5l26 138q20 -6 36 -6.5t40 -0.5q27 0 45.5 11.5t31.5 34
t22.5 54.5t17.5 73l88 486h-111l28 154h112l31 171q11 61 30.5 102t54 65.5t87.5 34.5t130 10q22 0 40 -0.5t45 -2.5z" />
    <glyph glyph-name="Scommaaccent" unicode="&#x218;" horiz-adv-x="974" 
d="M844 291q0 -82 -28 -140t-76 -94.5t-113 -53.5t-138 -17q-54 0 -102.5 6.5t-93.5 19.5t-87.5 33.5t-85.5 47.5l80 151q63 -45 132 -75.5t147 -30.5q31 0 62 6.5t55 22.5t39 41.5t15 64.5q0 35 -17.5 60t-47 44t-68.5 33.5t-81 28.5q-51 18 -101.5 40.5t-91.5 56t-66.5 83
t-25.5 121.5q0 75 29 127t76.5 85t108.5 47.5t125 14.5q88 0 165 -22t152 -63l-64 -156q-55 38 -112 61t-126 23q-32 0 -60.5 -5.5t-50.5 -18.5t-35 -34.5t-13 -52.5q0 -32 17.5 -54t47 -38.5t67.5 -30t80 -27.5q51 -17 102 -39t92 -56t66.5 -84.5t25.5 -125.5zM460 -367
h-115l55 276h190z" />
    <glyph glyph-name="scommaaccent" unicode="&#x219;" horiz-adv-x="880" 
d="M750 235q0 -131 -81.5 -192t-228.5 -61q-88 0 -171.5 23t-158.5 68l68 135q57 -38 124 -63t136 -25q62 0 95.5 23.5t33.5 76.5q0 28 -15 47.5t-40 34t-57.5 26t-67.5 23.5q-44 14 -88 32t-79.5 46t-58 69.5t-22.5 103.5q0 55 21 98t60.5 72.5t96.5 45t129 15.5t142 -15
t136 -48l-49 -135q-48 30 -102 47t-113 17q-61 0 -100.5 -19.5t-39.5 -66.5q0 -24 14 -42t38 -31.5t55.5 -24.5t66.5 -22q45 -15 90.5 -33t82.5 -47t60 -71.5t23 -106.5zM420 -367h-115l55 276h190z" />
    <glyph glyph-name="circumflex" unicode="&#x2c6;" horiz-adv-x="618" 
d="M494 911l-181 94l-177 -96l-68 101l244 135l247 -135z" />
    <glyph glyph-name="caron" unicode="&#x2c7;" horiz-adv-x="618" 
d="M132 1143l181 -94l177 96l68 -101l-244 -135l-247 135z" />
    <glyph glyph-name="breve" unicode="&#x2d8;" horiz-adv-x="709" 
d="M598 1118q-3 -61 -28.5 -99t-60.5 -59.5t-74 -29t-70 -7.5q-35 0 -73.5 8t-72 29.5t-56.5 59.5t-26 98h117q3 -35 30 -59.5t81 -24.5t82.5 23t33.5 61h117z" />
    <glyph glyph-name="dotaccent" unicode="&#x2d9;" horiz-adv-x="385" 
d="M310 1021q0 -48 -31 -75t-85 -27q-55 0 -87 27t-32 75q0 46 32 74t87 28q54 0 85 -28t31 -74z" />
    <glyph glyph-name="ring" unicode="&#x2da;" horiz-adv-x="535" 
d="M332 1030q0 28 -20.5 46.5t-49.5 18.5t-48.5 -18.5t-19.5 -46.5q0 -27 19.5 -45t48.5 -18t49.5 18t20.5 45zM405 1031q0 -28 -10.5 -52t-29.5 -41.5t-45.5 -27.5t-57.5 -10q-30 0 -55.5 10t-45 27.5t-30.5 41.5t-11 52q0 27 11 51t30.5 41.5t45 27.5t55.5 10
q31 0 57.5 -10t45.5 -27.5t29.5 -41.5t10.5 -51z" />
    <glyph glyph-name="ogonek" unicode="&#x2db;" horiz-adv-x="562" 
d="M424 -297q-23 -16 -57.5 -30.5t-88.5 -14.5q-39 0 -69 13t-49.5 35t-29.5 51.5t-10 62.5q0 35 10 64.5t25 52.5t31.5 39t29.5 24h128q-43 -32 -71 -69t-28 -84q0 -33 14 -55t43 -22q24 0 40 6.5t36 19.5z" />
    <glyph glyph-name="tilde" unicode="&#x2dc;" horiz-adv-x="645" 
d="M637 1057q-23 -67 -67 -102.5t-100 -35.5q-34 0 -65 11t-59.5 24t-55 24.5t-50.5 11.5q-29 0 -47.5 -16.5t-35.5 -55.5l-96 59q32 75 69 107t98 32q32 0 62 -11t58.5 -24t55 -24.5t52.5 -11.5q28 0 48.5 17t36.5 54z" />
    <glyph glyph-name="hungarumlaut" unicode="&#x2dd;" horiz-adv-x="903" 
d="M190 923l-83 61l195 177l139 -87zM564 923l-85 61l195 177l139 -87z" />
    <glyph glyph-name="endash" unicode="&#x2013;" horiz-adv-x="1018" 
d="M160 435v153h698v-153h-698z" />
    <glyph glyph-name="emdash" unicode="&#x2014;" horiz-adv-x="1694" 
d="M150 364v150h1394v-150h-1394z" />
    <glyph glyph-name="quoteleft" unicode="&#x2018;" horiz-adv-x="509" 
d="M312 739h-212l148 346h131z" />
    <glyph glyph-name="quoteright" unicode="&#x2019;" horiz-adv-x="507" 
d="M260 737h-130l66 348h211z" />
    <glyph glyph-name="quotesinglbase" unicode="&#x201a;" horiz-adv-x="507" 
d="M230 -248h-130l66 348h211z" />
    <glyph glyph-name="quotedblleft" unicode="&#x201c;" horiz-adv-x="849" 
d="M312 737h-212l148 348h131zM652 737h-211l148 348h130z" />
    <glyph glyph-name="quotedblright" unicode="&#x201d;" horiz-adv-x="848" 
d="M260 737h-130l66 348h211zM600 737h-129l66 348h211z" />
    <glyph glyph-name="quotedblbase" unicode="&#x201e;" horiz-adv-x="848" 
d="M230 -248h-130l66 348h211zM570 -248h-129l66 348h211z" />
    <glyph glyph-name="dagger" unicode="&#x2020;" horiz-adv-x="692" 
d="M437 688v-410h-182v410h-125v149h125v197h182v-197h125v-149h-125z" />
    <glyph glyph-name="daggerdbl" unicode="&#x2021;" horiz-adv-x="692" 
d="M437 398v-181h-182v181h-125v151h125v158h-125v152h125v175h182v-175h124v-152h-124v-158h125v-151h-125z" />
    <glyph glyph-name="bullet" unicode="&#x2022;" horiz-adv-x="1049" 
d="M769 493q0 -51 -19 -95.5t-52 -78t-78 -52.5t-96 -19t-95.5 19t-77.5 52.5t-52 78t-19 95.5t19 95.5t52 77.5t77.5 52t95.5 19t96 -19t78 -52t52 -77.5t19 -95.5z" />
    <glyph glyph-name="ellipsis" unicode="&#x2026;" horiz-adv-x="1311" 
d="M1171 81q0 -42 -32 -69t-82 -29q-48 0 -81 27.5t-33 70.5q0 42 33 68t81 26q50 0 82 -26t32 -68zM769 81q0 -42 -31.5 -69t-81.5 -29q-49 0 -81.5 27.5t-32.5 70.5q0 42 32.5 68t80.5 26q51 0 82.5 -26t31.5 -68zM368 81q1 -42 -31.5 -69t-81.5 -29q-49 0 -82 27.5
t-33 70.5q0 42 33 68t81 26q50 0 82 -26t32 -68z" />
    <glyph glyph-name="perthousand" unicode="&#x2030;" horiz-adv-x="2475" 
d="M1476 250q0 44 -5 80.5t-18 62.5t-34 40.5t-54 14.5q-32 0 -53.5 -14.5t-34 -40.5t-17.5 -62.5t-5 -80.5t5 -80.5t17.5 -63t34 -41.5t53.5 -15q33 0 54 15t34 41.5t18 63t5 80.5zM1620 250q0 -152 -63.5 -233t-194.5 -81q-62 0 -109 22t-79 62.5t-48.5 99t-16.5 130.5
q0 152 65.5 232t195.5 80q61 0 108 -21.5t78.5 -62t47.5 -98t16 -130.5zM550 -64h-134l750 1178h132zM487 802q0 44 -5 80.5t-18 62.5t-34 40.5t-54 14.5t-54 -14.5t-34 -40.5t-18 -62.5t-5 -80.5t5 -81t18 -63.5t34 -41.5t54 -15t54 15t34 41.5t18 63.5t5 81zM631 802
q0 -153 -63.5 -234t-194.5 -81q-62 0 -109 22t-79 63t-48.5 99.5t-16.5 130.5q0 152 65 232t196 80q61 0 108 -21.5t78.5 -62t47.5 -98.5t16 -130zM2211 250q0 44 -5 80.5t-18 62.5t-34 40.5t-54 14.5q-32 0 -53.5 -14.5t-34 -40.5t-17.5 -62.5t-5 -80.5t5 -80.5t17.5 -63
t34 -41.5t53.5 -15q33 0 54 15t34 41.5t18 63t5 80.5zM2355 250q0 -152 -63.5 -233t-194.5 -81q-62 0 -109 22t-79 62.5t-48.5 99t-16.5 130.5q0 152 65.5 232t195.5 80q61 0 108 -21.5t78.5 -62t47.5 -98t16 -130.5z" />
    <glyph glyph-name="guilsinglleft" unicode="&#x2039;" horiz-adv-x="554" 
d="M301 150l-181 302l181 300l133 -67l-146 -234l146 -234z" />
    <glyph glyph-name="guilsinglright" unicode="&#x203a;" horiz-adv-x="552" 
d="M251 150l-131 67l145 234l-145 234l131 67l181 -300z" />
    <glyph glyph-name="fraction" unicode="&#x2044;" horiz-adv-x="351" 
d="M-138 -58h-137l740 1164h135z" />
    <glyph glyph-name="fraction" unicode="&#x2215;" horiz-adv-x="351" 
d="M-138 -58h-137l740 1164h135z" />
    <glyph glyph-name="zerosuperior" unicode="&#x2070;" horiz-adv-x="790" 
d="M506 802q0 44 -5 80.5t-18 62.5t-34 40.5t-54 14.5q-32 0 -53.5 -14.5t-34 -40.5t-17.5 -62.5t-5 -80.5t5 -81t17.5 -63.5t34 -41.5t53.5 -15q33 0 54 15t34 41.5t18 63.5t5 81zM650 802q0 -153 -63.5 -234t-194.5 -81q-62 0 -109 22t-78.5 63t-48 99.5t-16.5 130.5
q0 152 65 232t196 80q61 0 107.5 -21.5t78 -62t47.5 -98.5t16 -130z" />
    <glyph glyph-name="foursuperior" unicode="&#x2074;" horiz-adv-x="721" 
d="M387 729v245l-157 -245h157zM515 495h-141v123h-243l-31 114l258 374h157v-370h86v-118h-86v-123z" />
    <glyph glyph-name="fivesuperior" unicode="&#x2075;" horiz-adv-x="682" 
d="M552 702q0 -101 -58.5 -158t-175.5 -57q-60 0 -107.5 17.5t-90.5 47.5l58 97q30 -23 62 -36.5t75 -13.5q50 0 73 24.5t23 76.5q0 94 -93 94q-61 0 -100 -41l-84 70l48 281h331v-118h-232l-25 -124h3q18 14 41.5 23t65.5 9q40 0 74 -10.5t59 -34t39 -60t14 -87.5z" />
    <glyph glyph-name="sixsuperior" unicode="&#x2076;" horiz-adv-x="729" 
d="M458 703q0 48 -18 75t-70 27q-46 0 -67.5 -27.5t-21.5 -75.5q0 -45 20.5 -75.5t68.5 -30.5q26 0 43 8t27 22t14 33.5t4 43.5zM599 705q0 -46 -16 -85.5t-46 -69t-73 -46.5t-96 -17q-62 0 -107 20t-74 57t-43 89.5t-14 116.5q0 72 15.5 135t47.5 109.5t82 73t119 26.5
q53 0 96.5 -13.5t76.5 -34.5l-49 -96q-26 18 -57.5 25.5t-73.5 7.5q-59 0 -89 -41.5t-31 -114.5h1q16 22 47 39.5t81 17.5q105 0 154 -52.5t49 -146.5z" />
    <glyph glyph-name="sevensuperior" unicode="&#x2077;" horiz-adv-x="629" 
d="M529 993q-43 -35 -76.5 -77t-57 -96t-35.5 -124t-12 -161v-40h-142v24q0 50 7 113.5t24.5 128t48.5 124t79 101.5h-265v120h415z" />
    <glyph glyph-name="eightsuperior" unicode="&#x2078;" horiz-adv-x="724" 
d="M453 676q0 48 -22.5 69t-68.5 21q-45 0 -69 -22t-24 -68q0 -41 24 -63t69 -22q48 0 69.5 22t21.5 63zM438 936q0 32 -18 52.5t-58 20.5q-41 0 -60.5 -20.5t-19.5 -52.5q0 -79 80 -79q42 0 59 19.5t17 59.5zM594 670q0 -40 -14 -73.5t-42.5 -58t-72.5 -38t-103 -13.5
q-60 0 -103.5 13.5t-72 38t-42.5 58t-14 73.5q0 53 23 90t72 57v3q-44 22 -62.5 54t-18.5 76q0 41 15.5 72t44 51.5t69 30.5t89.5 10q48 0 88 -10t68.5 -30.5t44.5 -51.5t16 -72q0 -44 -19 -76t-64 -54v-3q98 -40 98 -147z" />
    <glyph glyph-name="ninesuperior" unicode="&#x2079;" horiz-adv-x="728" 
d="M270 903q0 -44 20 -73.5t70 -29.5q46 0 67 29t21 74q0 43 -20 72t-70 29q-49 0 -68.5 -28t-19.5 -73zM130 903q0 45 16.5 83.5t47 67t73 44.5t94.5 16q122 0 179.5 -74t57.5 -210q0 -79 -14.5 -142.5t-46 -108t-81 -68.5t-119.5 -24q-52 0 -98 14t-78 34l49 96
q51 -33 133 -33q61 0 89.5 46t28.5 118h-1q-17 -22 -47.5 -39.5t-78.5 -17.5q-105 0 -154.5 53t-49.5 145z" />
    <glyph glyph-name="zeroinferior" unicode="&#x2080;" horiz-adv-x="791" 
d="M507 250q0 44 -5 80.5t-17.5 62.5t-34 40.5t-53.5 14.5q-33 0 -54.5 -14.5t-34 -40.5t-18 -62.5t-5.5 -80.5t5.5 -80.5t18 -63t34 -41.5t54.5 -15q32 0 53.5 15t34 41.5t17.5 63t5 80.5zM651 250q0 -152 -63.5 -233t-194.5 -81q-62 0 -109 22t-79 62.5t-48.5 99
t-16.5 130.5q0 152 65 232t196 80q61 0 108 -21.5t78.5 -62t47.5 -98t16 -130.5z" />
    <glyph glyph-name="oneinferior" unicode="&#x2081;" horiz-adv-x="571" 
d="M401 553v-611h-139v434l-105 -74l-57 103l197 148h104z" />
    <glyph glyph-name="twoinferior" unicode="&#x2082;" horiz-adv-x="681" 
d="M114 54q19 17 47.5 39.5t60.5 48t64.5 54.5t58 57.5t41.5 57t16 54.5q0 14 -4 27.5t-13 24.5t-25 17.5t-40 6.5q-37 0 -71.5 -16.5t-71.5 -50.5l-67 94q58 51 113.5 72t120.5 21q91 0 146.5 -46t55.5 -134q0 -36 -12 -71t-41 -73.5t-78 -82t-122 -96.5h258v-116h-415z
" />
    <glyph glyph-name="threeinferior" unicode="&#x2083;" horiz-adv-x="693" 
d="M563 124q0 -86 -61.5 -137t-179.5 -51q-62 0 -113 18t-99 50l61 97q45 -34 79.5 -44t70.5 -10q46 0 74.5 18t28.5 61q0 41 -23 56.5t-80 15.5h-78v107h59q53 0 78.5 16.5t25.5 54.5q0 26 -19.5 46t-69.5 20q-35 0 -69 -13t-65 -40l-63 92q31 21 57.5 35.5t52 23.5
t51.5 12.5t56 3.5q46 0 84 -10.5t65.5 -31.5t42.5 -52t15 -71q0 -45 -18 -76t-50 -51q42 -16 64.5 -51t22.5 -89z" />
    <glyph glyph-name="fourinferior" unicode="&#x2084;" horiz-adv-x="721" 
d="M387 175v246l-157 -246h157zM515 -58h-141v124h-243l-31 112l258 375h157v-370h86v-117h-86v-124z" />
    <glyph glyph-name="fiveinferior" unicode="&#x2085;" horiz-adv-x="682" 
d="M552 150q0 -100 -58.5 -157t-175.5 -57q-60 0 -107.5 17.5t-90.5 46.5l58 97q30 -23 62 -36t75 -13q50 0 73 24.5t23 75.5q0 95 -93 95q-62 0 -100 -41l-84 69l48 282h331v-118h-232l-25 -125h3q18 15 41.5 24.5t65.5 9.5q40 0 74 -11t59 -34.5t39 -60t14 -88.5z" />
    <glyph glyph-name="sixinferior" unicode="&#x2086;" horiz-adv-x="729" 
d="M458 151q0 49 -18.5 76t-71.5 27q-47 0 -67.5 -28t-20.5 -76q0 -45 20 -75t68 -30q52 0 71 29t19 77zM599 153q0 -46 -16.5 -85.5t-46.5 -69t-72.5 -46t-95.5 -16.5q-62 0 -107 20t-74 57t-43 89t-14 116q0 72 15 135t47 109.5t81.5 73t119.5 26.5q53 0 96 -13.5
t78 -34.5l-49 -96q-27 18 -58.5 25.5t-72.5 7.5q-61 0 -90.5 -41.5t-29.5 -114.5h1q17 22 47.5 39.5t79.5 17.5q105 0 154.5 -53t49.5 -146z" />
    <glyph glyph-name="seveninferior" unicode="&#x2087;" horiz-adv-x="629" 
d="M529 439q-43 -35 -76.5 -76.5t-57 -95.5t-35.5 -123.5t-12 -161.5v-40h-142v24q0 50 7 113.5t24.5 127.5t48.5 123.5t79 102.5h-265v120h415z" />
    <glyph glyph-name="eightinferior" unicode="&#x2088;" horiz-adv-x="724" 
d="M453 124q0 48 -22.5 69t-68.5 21q-45 0 -69 -21.5t-24 -68.5q0 -41 24 -63t69 -22q48 0 69.5 22t21.5 63zM438 384q0 32 -18 52.5t-58 20.5q-41 0 -60.5 -20.5t-19.5 -52.5q0 -79 80 -79q42 0 59 19.5t17 59.5zM594 118q0 -40 -14 -73.5t-42.5 -57.5t-72.5 -37.5
t-103 -13.5q-60 0 -103.5 13.5t-72 37.5t-42.5 57.5t-14 73.5q0 53 23 90t72 57v3q-44 22 -62.5 54.5t-18.5 75.5q0 41 15.5 72t44 51.5t69 30.5t89.5 10q48 0 88 -10t68.5 -30.5t44.5 -51.5t16 -72q0 -43 -19 -75.5t-64 -54.5v-3q98 -40 98 -147z" />
    <glyph glyph-name="nineinferior" unicode="&#x2089;" horiz-adv-x="727" 
d="M269 351q0 -44 20 -73.5t70 -29.5q46 0 67.5 29t21.5 74q0 44 -20.5 72.5t-69.5 28.5q-50 0 -69.5 -28t-19.5 -73zM130 351q0 45 16.5 83.5t47 67t73 44.5t94.5 16q122 0 179 -73t57 -211q0 -79 -14.5 -142.5t-46 -107.5t-81 -68t-119.5 -24q-52 0 -97.5 13.5t-77.5 33.5
l47 97q52 -33 134 -33q61 0 90 45.5t29 117.5h-2q-16 -22 -46.5 -39.5t-79.5 -17.5q-104 0 -153.5 53.5t-49.5 144.5z" />
    <glyph glyph-name="Euro" unicode="&#x20ac;" horiz-adv-x="1130" 
d="M120 335l30 104h84q-1 17 -2 32.5t-1 32.5v26t2 28h-97l30 101h79q13 79 43.5 144.5t80 112.5t119 73.5t161.5 26.5q52 0 98 -9.5t88 -28.5t81.5 -48t79.5 -68l-113 -123q-104 120 -234 120q-94 0 -144 -50t-67 -150h365l-30 -101h-347q-1 -14 -1 -27v-27q0 -32 3 -65
h337l-30 -104h-295q7 -42 21.5 -77.5t39 -61.5t60 -41t84.5 -15q71 0 133 30t122 91l100 -127q-78 -76 -162.5 -114t-186.5 -38q-95 0 -165 24.5t-119 70.5t-78.5 111.5t-43.5 146.5h-125z" />
    <glyph glyph-name="trademark" unicode="&#x2122;" horiz-adv-x="1143" 
d="M371 966v-300h-100v300h-121v83h339v-83h-118zM896 666l3 214l-116 -165l-117 165l2 -214h-97v383h87l125 -182l123 182h87v-383h-97z" />
    <glyph glyph-name="onethird" unicode="&#x2153;" horiz-adv-x="1650" 
d="M421 1106v-611h-140v434l-105 -73l-56 101l195 149h106zM498 -58h-137l740 1164h135zM1540 124q0 -86 -61.5 -137t-179.5 -51q-62 0 -113 18t-99 50l61 97q45 -34 79.5 -44t70.5 -10q46 0 74.5 18t28.5 61q0 41 -23 56.5t-80 15.5h-78v107h59q53 0 78.5 16.5t25.5 54.5
q0 26 -19.5 46t-69.5 20q-35 0 -69 -13t-65 -40l-63 92q31 21 57.5 35.5t52 23.5t51.5 12.5t56 3.5q46 0 84 -10.5t65.5 -31.5t42.5 -52t15 -71q0 -45 -18 -76t-50 -51q42 -16 64.5 -51t22.5 -89z" />
    <glyph glyph-name="twothirds" unicode="&#x2154;" horiz-adv-x="1650" 
d="M114 607q19 17 47.5 39.5t60.5 48.5t64.5 54.5t58 57.5t41.5 57.5t16 54.5q0 13 -4 26.5t-13.5 24t-26 17.5t-40.5 7q-36 0 -70 -16.5t-71 -51.5l-67 95q58 51 112.5 72t119.5 21q92 0 147.5 -46t55.5 -134q0 -36 -12 -71.5t-41 -73.5t-78 -81.5t-123 -95.5h260v-117
h-417zM527 -58h-137l740 1164h135zM1540 124q0 -86 -61.5 -137t-179.5 -51q-62 0 -113 18t-99 50l61 97q45 -34 79.5 -44t70.5 -10q46 0 74.5 18t28.5 61q0 41 -23 56.5t-80 15.5h-78v107h59q53 0 78.5 16.5t25.5 54.5q0 26 -19.5 46t-69.5 20q-35 0 -69 -13t-65 -40l-63 92
q31 21 57.5 35.5t52 23.5t51.5 12.5t56 3.5q46 0 84 -10.5t65.5 -31.5t42.5 -52t15 -71q0 -45 -18 -76t-50 -51q42 -16 64.5 -51t22.5 -89z" />
    <glyph glyph-name="onefifth" unicode="&#x2155;" horiz-adv-x="1650" 
d="M421 1105v-611h-140v434l-105 -73l-56 101l195 149h106zM498 -58h-137l740 1164h135zM1539 150q0 -100 -58.5 -157t-175.5 -57q-60 0 -107.5 17.5t-90.5 46.5l58 97q30 -23 62 -36t75 -13q50 0 73 24.5t23 75.5q0 95 -93 95q-62 0 -100 -41l-84 69l48 282h331v-118h-232
l-25 -125h3q18 15 41.5 24.5t65.5 9.5q40 0 74 -11t59 -34.5t39 -60t14 -88.5z" />
    <glyph glyph-name="threefifths" unicode="&#x2157;" horiz-adv-x="1650" 
d="M559 675q0 -84 -62.5 -136t-179.5 -52q-62 0 -113 17.5t-99 51.5l61 99q45 -35 79.5 -46t70.5 -11q46 0 74.5 19t28.5 62q0 41 -23 57t-80 16h-78v108h60q104 0 104 74q0 13 -4.5 25t-15 21t-28 14.5t-42.5 5.5q-35 0 -69.5 -13t-64.5 -40l-63 91q31 21 57.5 35.5
t52 23.5t51.5 13t56 4q45 0 83 -11t65.5 -32t43 -51.5t15.5 -70.5q0 -45 -18 -77t-49 -52q42 -17 64.5 -54t22.5 -91zM520 -58h-137l740 1164h135zM1539 150q0 -100 -58.5 -157t-175.5 -57q-60 0 -107.5 17.5t-90.5 46.5l58 97q30 -23 62 -36t75 -13q50 0 73 24.5t23 75.5
q0 95 -93 95q-62 0 -100 -41l-84 69l48 282h331v-118h-232l-25 -125h3q18 15 41.5 24.5t65.5 9.5q40 0 74 -11t59 -34.5t39 -60t14 -88.5z" />
    <glyph glyph-name="minus" unicode="&#x2212;" horiz-adv-x="972" 
d="M184 322v162h604v-162h-604z" />
    <glyph glyph-name="lessequal" unicode="&#x2264;" horiz-adv-x="1190" 
d="M173 0v131h825v-131h-825zM174 525v152l827 307v-154l-644 -229l644 -230v-155z" />
    <glyph glyph-name="greaterequal" unicode="&#x2265;" horiz-adv-x="1154" 
d="M151 0v131h826v-131h-826zM148 216v155l645 228l-645 231v154l828 -307v-152z" />
    <glyph glyph-name="commaaccent" unicode="&#xf004;" horiz-adv-x="513" 
d="M254 -367h-115l55 276h190z" />
    <glyph glyph-name="commaaccent" unicode="&#xf6c3;" horiz-adv-x="513" 
d="M254 -367h-115l55 276h190z" />
    <glyph glyph-name="caron.1" horiz-adv-x="526" 
d="M273 857h-113l45 228h167z" />
    <glyph glyph-name="commaaccent.1" horiz-adv-x="526" 
d="M292 1178h113l-57 -282h-183z" />
    </font>
</defs>
</svg>
