<?xml version="1.0" standalone="no"?>
<!DOCTYPE svg PUBLIC "-//W3C//DTD SVG 1.1//EN" "http://www.w3.org/Graphics/SVG/1.1/DTD/svg11.dtd" >
<svg xmlns="http://www.w3.org/2000/svg" xmlns:xlink="http://www.w3.org/1999/xlink" version="1.1">
<metadata>
Created by FontForge 20170731 at Sun Oct 20 04:41:48 2002
 By Aleksey,,,
Copyright (c) Terminal Design, Inc,, 2002. All rights reserved.
</metadata>
<defs>
<font id="ClearviewHwy-Five-B" horiz-adv-x="1076" >
  <font-face 
    font-family="ClearviewHwy-5-B"
    font-weight="400"
    font-stretch="normal"
    units-per-em="1448"
    panose-1="2 0 0 0 0 0 0 0 0 0"
    ascent="1158"
    descent="-290"
    x-height="817"
    cap-height="1000"
    bbox="-291 -363 1980 1389"
    underline-thickness="175"
    underline-position="-352"
    unicode-range="U+0020-F004"
  />
<missing-glyph horiz-adv-x="749" 
 />
    <glyph glyph-name=".notdef" horiz-adv-x="749" 
 />
    <glyph glyph-name=".null" horiz-adv-x="0" 
 />
    <glyph glyph-name="nonmarkingreturn" horiz-adv-x="800" 
 />
    <glyph glyph-name="glyph308" horiz-adv-x="750" 
 />
    <glyph glyph-name="glyph308" horiz-adv-x="750" 
 />
    <glyph glyph-name="space" unicode=" " horiz-adv-x="800" 
 />
    <glyph glyph-name="space" unicode="&#xa0;" horiz-adv-x="800" 
 />
    <glyph glyph-name="exclam" unicode="!" horiz-adv-x="590" 
d="M430 91q0 -23 -10.5 -43t-29 -34.5t-43 -23t-52.5 -8.5q-29 0 -53.5 8.5t-42.5 23t-28.5 34.5t-10.5 43q0 24 10.5 43.5t29 33.5t43 22t52.5 8t52.5 -8t43 -22.5t29 -34t10.5 -42.5zM382 294h-172l-30 706h232z" />
    <glyph glyph-name="quotedbl" unicode="&#x22;" horiz-adv-x="861" 
d="M319 673h-142l-37 376h224zM676 673h-142l-36 376h223z" />
    <glyph glyph-name="numbersign" unicode="#" horiz-adv-x="1162" 
d="M504 683l-24 -181h180l25 181h-181zM999 683h-150l-28 -181h159l-21 -153h-161l-24 -178h-168l27 178h-172l-27 -178h-161l26 178h-159l17 153h163l23 181h-161l21 153h161l24 164h163l-23 -164h181l26 164h161l-24 -164h150z" />
    <glyph glyph-name="dollar" unicode="$" horiz-adv-x="944" 
d="M824 315q0 -42 -13.5 -85t-43 -79t-77 -62t-116.5 -35v-123h-196v123q-127 11 -258 91l81 153q71 -48 137 -71t133 -23q152 0 152 97q0 36 -20 58t-68 42l-195 74q-100 40 -149.5 97t-49.5 147q0 47 14.5 88.5t44 74.5t74 54.5t105.5 29.5v116h195v-116
q54 -7 104.5 -21.5t107.5 -40.5l-70 -161q-57 33 -113.5 50t-118.5 17q-63 0 -100.5 -18.5t-37.5 -59.5q0 -18 6 -30.5t19.5 -23t35.5 -21t55 -23.5l163 -63q104 -41 151.5 -101.5t47.5 -154.5z" />
    <glyph glyph-name="percent" unicode="%" horiz-adv-x="1525" 
d="M1241 271q0 34 -3.5 65t-15 55t-31.5 38.5t-53 14.5t-53.5 -14.5t-31.5 -38.5t-14.5 -55t-3.5 -65t4 -65t15 -55t31 -38t53 -14t53 14t31.5 38t15 55t3.5 65zM1385 273q0 -135 -61.5 -211t-189.5 -76q-62 0 -108 20.5t-76 58t-44.5 90.5t-14.5 118q0 67 15.5 120t47 90
t78.5 56.5t110 19.5q62 0 107.5 -20.5t75.5 -58t45 -90.5t15 -117zM526 0h-157l629 1000h157zM487 730q0 33 -3.5 64.5t-14.5 55.5t-31 38.5t-53 14.5q-34 0 -54 -14.5t-30.5 -38.5t-13.5 -55.5t-3 -64.5q0 -34 3 -65.5t13.5 -55.5t30.5 -38.5t54 -14.5q33 0 53 14.5
t31 38.5t14.5 55.5t3.5 65.5zM631 730q0 -135 -60.5 -211.5t-189.5 -76.5q-63 0 -108.5 21t-75 58.5t-43.5 90.5t-14 118q0 135 61.5 210.5t187.5 75.5q62 0 107.5 -21t75.5 -58.5t44.5 -90t14.5 -116.5z" />
    <glyph glyph-name="ampersand" unicode="&#x26;" horiz-adv-x="1090" 
d="M692 452h-199q-81 0 -115 -32.5t-34 -101.5q0 -78 41.5 -121t132.5 -43q56 0 90.5 13.5t53 40t24.5 65.5t6 89v90zM893 452v-95q0 -86 -21.5 -155t-66.5 -117t-115 -73.5t-168 -25.5q-86 0 -156 20t-120.5 60t-78 100.5t-27.5 140.5q0 89 42.5 150.5t113.5 83.5v3
q-60 27 -93 81t-33 123q0 66 24 116t67.5 84t104.5 51.5t135 17.5q55 0 104.5 -9.5t105.5 -33.5l-49 -157q-29 14 -66 22t-75 8q-73 0 -110.5 -29.5t-37.5 -85.5q0 -33 15 -54.5t40 -33.5t58 -16.5t69 -4.5h139v120h195v-120h131v-171h-127z" />
    <glyph glyph-name="quotesingle" unicode="'" horiz-adv-x="504" 
d="M319 673h-142l-37 376h224z" />
    <glyph glyph-name="parenleft" unicode="(" horiz-adv-x="610" 
d="M291 -197q-37 95 -63.5 182t-44 170t-25.5 165t-8 167t8 166.5t25 165t43.5 170.5t64.5 183l149 -39q-26 -83 -44 -162t-30 -157.5t-17.5 -159t-5.5 -165.5q0 -87 5.5 -167.5t17.5 -159.5t30 -157.5t44 -160.5z" />
    <glyph glyph-name="parenright" unicode=")" horiz-adv-x="614" 
d="M464 487q0 -86 -9 -168.5t-27 -166.5t-45 -170.5t-63 -179.5l-150 42q26 82 45 161t31 158t17.5 159.5t5.5 166.5q0 85 -6 165t-18 159t-30.5 158t-44.5 162l150 39q36 -93 63 -179.5t45 -170.5t27 -166.5t9 -168.5z" />
    <glyph glyph-name="asterisk" unicode="*" horiz-adv-x="745" 
d="M462 803v-4l115 -107l-132 -91l-70 141h-4l-71 -141l-132 90l116 108v4l-164 17l50 147l145 -73l1 3l-29 152h168l-26 -150l2 -3l144 71l50 -145z" />
    <glyph glyph-name="plus" unicode="+" horiz-adv-x="960" 
d="M575 322v-252h-189v252h-256v182h256v235h189v-235h255v-182h-255z" />
    <glyph glyph-name="comma" unicode="," horiz-adv-x="550" 
d="M247 -200h-147l67 380h233z" />
    <glyph glyph-name="hyphen" unicode="-" horiz-adv-x="707" 
d="M150 347v185h407v-185h-407z" />
    <glyph glyph-name="hyphen" unicode="&#xad;" horiz-adv-x="707" 
d="M150 347v185h407v-185h-407z" />
    <glyph glyph-name="period" unicode="." horiz-adv-x="550" 
d="M410 93q0 -24 -10.5 -44.5t-28.5 -35t-42 -23t-52 -8.5q-29 0 -54 8.5t-43.5 23t-29 35t-10.5 44.5q0 23 10.5 42.5t29 34t43 22.5t52.5 8t53 -8t43 -22.5t28.5 -34t10.5 -42.5z" />
    <glyph glyph-name="slash" unicode="/" horiz-adv-x="938" 
d="M285 -173h-185l551 1222h187z" />
    <glyph glyph-name="zero" unicode="0" horiz-adv-x="1134" 
d="M772 499q0 64 -6.5 125.5t-28 109.5t-62 77t-107.5 29q-68 0 -108.5 -29t-62.5 -77t-28.5 -109.5t-6.5 -125.5q0 -70 8 -132.5t30.5 -109t62.5 -74t105 -27.5q64 0 104 27.5t62 74t30 109t8 132.5zM984 501q0 -113 -23 -208t-73 -164t-129 -108t-191 -39q-113 0 -192 39
t-129.5 108t-73.5 164t-23 208t24 207.5t74.5 163t129.5 106.5t190 38q110 0 189 -38t129.5 -106.5t74 -163t23.5 -207.5z" />
    <glyph glyph-name="one" unicode="1" horiz-adv-x="735" 
d="M346 0l3 737h-4l-175 -138l-90 157l308 245h167v-1001h-209z" />
    <glyph glyph-name="two" unicode="2" horiz-adv-x="949" 
d="M130 0l-30 178q113 99 203.5 175.5t153.5 140.5t97 120t34 113q0 48 -30.5 79t-94.5 31q-66 0 -122 -30.5t-116 -93.5l-117 147q45 41 88 70.5t87 48.5t91.5 28t101.5 9q75 0 134.5 -18.5t101.5 -54.5t64.5 -88.5t22.5 -121.5q0 -63 -18 -122t-68 -124t-139.5 -140.5
t-232.5 -171.5h468v-175h-679z" />
    <glyph glyph-name="three" unicode="3" horiz-adv-x="949" 
d="M809 300q0 -70 -24.5 -128t-73 -99t-120.5 -64t-167 -23q-98 0 -177.5 25t-156.5 82l89 154q36 -26 66.5 -43.5t59 -28t56.5 -15t59 -4.5q40 0 73 8.5t57 26t37 44.5t13 65q0 73 -39 102.5t-110 29.5h-142v172h67q42 0 78 5t62 18.5t40.5 35.5t14.5 57q0 23 -6.5 44.5
t-23 38t-44.5 26.5t-70 10q-61 0 -120 -24.5t-111 -71.5l-96 153q45 31 87 53.5t84.5 37t87.5 21t95 6.5q71 0 131 -17t103.5 -52t68 -88t24.5 -125q0 -70 -26.5 -119t-86.5 -81v-3q72 -23 106.5 -82t34.5 -147z" />
    <glyph glyph-name="four" unicode="4" horiz-adv-x="1011" 
d="M558 756l-244 -380h249v380h-5zM764 200v-200h-213v200h-405l-46 158l445 642h219v-624h147v-176h-147z" />
    <glyph glyph-name="five" unicode="5" horiz-adv-x="971" 
d="M831 346q0 -83 -24.5 -150t-73 -114.5t-121 -73.5t-169.5 -26q-93 0 -169 23t-154 76l97 156q103 -84 216 -84q96 0 143.5 49t47.5 143q0 88 -43.5 133t-128.5 45q-57 0 -100 -22t-75 -65l-147 105l77 459h562v-180h-396l-38 -191v-4q42 33 84 47t98 14q73 0 131.5 -23
t99 -66.5t62 -106.5t21.5 -144z" />
    <glyph glyph-name="six" unicode="6" horiz-adv-x="1033" 
d="M692 334q0 77 -39.5 120.5t-119.5 43.5q-76 0 -118.5 -46t-42.5 -124t41 -124.5t120 -46.5q78 0 118.5 48t40.5 129zM893 338q0 -79 -26 -144t-73 -111t-113.5 -71.5t-148.5 -25.5q-98 0 -170 33t-119 95t-70 151t-23 201q0 115 20.5 215.5t69 174.5t129 117t200.5 43
q78 0 143.5 -19t129.5 -57l-89 -151q-45 29 -86.5 42t-92.5 13q-107 0 -158 -63t-56 -205h2q33 48 84 70.5t119 22.5q76 0 137 -23t103.5 -66t65 -104.5t22.5 -137.5z" />
    <glyph glyph-name="seven" unicode="7" horiz-adv-x="907" 
d="M817 830q-64 -55 -112.5 -104.5t-83 -100t-57 -105t-36 -121t-18.5 -147.5t-5 -183v-69h-218v48q0 96 8.5 199t37 204t84 195t150.5 173v1h-477v180h696l31 -170v0z" />
    <glyph glyph-name="eight" unicode="8" horiz-adv-x="1050" 
d="M692 295q0 30 -6 57t-24 48t-50.5 33t-85.5 12q-34 0 -64.5 -5.5t-53.5 -22t-36.5 -46t-13.5 -77.5q0 -33 8 -60.5t27 -46.5t51.5 -29.5t81.5 -10.5q39 0 69.5 7t52 24t33 45.5t11.5 71.5zM668 730q0 62 -33.5 91.5t-108.5 29.5t-109.5 -29.5t-34.5 -91.5q0 -61 35 -93
t109 -32q72 0 107 32t35 93zM900 297q0 -68 -19.5 -125.5t-63.5 -99.5t-115.5 -65.5t-174.5 -23.5q-104 0 -176 23.5t-116.5 65.5t-64.5 99.5t-20 125.5q0 89 37 144.5t118 90.5v3q-71 35 -100.5 85.5t-29.5 125.5q0 131 88 200.5t263 69.5q167 0 257.5 -67t90.5 -203
q0 -75 -29 -125.5t-99 -85.5v-3q81 -35 117.5 -90.5t36.5 -144.5z" />
    <glyph glyph-name="nine" unicode="9" horiz-adv-x="1039" 
d="M667 670q0 36 -8.5 67.5t-28 55t-51 36.5t-76.5 13q-76 0 -116.5 -47.5t-40.5 -127.5q0 -78 38.5 -120.5t119.5 -42.5q80 0 121 44t41 122h1zM889 514q0 -125 -24 -224t-74.5 -167t-129.5 -104t-188 -36q-42 0 -79 5t-70.5 16.5t-65 29t-63.5 41.5l98 142q26 -19 47 -31
t41.5 -19.5t42.5 -10.5t50 -3q52 0 91.5 15.5t65.5 48.5t39 85t14 126h-3q-38 -51 -88 -75.5t-120 -24.5q-73 0 -134 23t-105.5 66t-69 105t-24.5 140q0 80 26.5 145.5t74.5 112t115.5 71.5t150.5 25q184 0 283 -125t99 -377z" />
    <glyph glyph-name="colon" unicode=":" horiz-adv-x="550" 
d="M410 610q0 -24 -10.5 -44.5t-28.5 -35.5t-42 -23t-52 -8q-29 0 -54 8t-43.5 23t-29 35.5t-10.5 44.5q0 23 10.5 42.5t29 33.5t43 22t52.5 8t53 -8t43 -22t28.5 -33.5t10.5 -42.5zM410 93q0 -24 -10.5 -44.5t-28.5 -35t-42 -23t-52 -8.5q-29 0 -54 8.5t-43.5 23t-29 35
t-10.5 44.5q0 23 10.5 42.5t29 34t43 22.5t52.5 8t53 -8t43 -22.5t28.5 -34t10.5 -42.5z" />
    <glyph glyph-name="semicolon" unicode=";" horiz-adv-x="550" 
d="M410 610q0 -24 -10.5 -44.5t-28.5 -35.5t-42 -23t-52 -8q-29 0 -54 8t-43.5 23t-29 35.5t-10.5 44.5q0 23 10.5 42.5t29 33.5t43 22t52.5 8t53 -8t43 -22t28.5 -33.5t10.5 -42.5zM247 -200h-147l67 380h233z" />
    <glyph glyph-name="semicolon" unicode="&#x37e;" horiz-adv-x="550" 
d="M410 610q0 -24 -10.5 -44.5t-28.5 -35.5t-42 -23t-52 -8q-29 0 -54 8t-43.5 23t-29 35.5t-10.5 44.5q0 23 10.5 42.5t29 33.5t43 22t52.5 8t53 -8t43 -22t28.5 -33.5t10.5 -42.5zM247 -200h-147l67 380h233z" />
    <glyph glyph-name="less" unicode="&#x3c;" horiz-adv-x="1166" 
d="M160 334v162l846 337v-166l-652 -250l652 -253v-164z" />
    <glyph glyph-name="equal" unicode="=" horiz-adv-x="962" 
d="M170 151v177h622v-177h-622zM170 482v179h622v-179h-622z" />
    <glyph glyph-name="greater" unicode="&#x3e;" horiz-adv-x="1166" 
d="M160 0v164l653 251l-653 252v166l846 -337v-162z" />
    <glyph glyph-name="question" unicode="?" horiz-adv-x="893" 
d="M507 91q0 -23 -10 -43t-27.5 -34.5t-41.5 -23t-52 -8.5q-29 0 -53.5 8.5t-42.5 23t-28.5 34.5t-10.5 43q0 24 10.5 44t28.5 34.5t42.5 22.5t52.5 8t52 -8t42 -22.5t28 -34.5t10 -44zM753 737q0 -92 -40 -156t-127 -109l-60 -31q-17 -9 -26.5 -16t-14 -16t-5.5 -22.5
t-1 -35.5v-60h-200v104q0 34 4 57t15 40t29.5 30t47.5 28l59 32q29 14 51 27t36.5 28.5t21.5 35t7 47.5q0 57 -38 89.5t-109 32.5q-61 0 -112 -20.5t-96 -61.5l-95 153q42 28 81 47.5t78.5 32t82 18.5t91.5 6q160 0 240 -75t80 -205z" />
    <glyph glyph-name="at" unicode="@" horiz-adv-x="1295" 
d="M746 559q6 42 -9 66.5t-68 24.5q-63 0 -93 -50t-30 -161q0 -51 20.5 -74.5t62.5 -23.5q51 0 75 29.5t32 88.5l10 100v0zM1155 589q0 -96 -24 -166.5t-62.5 -116.5t-88 -68t-100.5 -22q-19 0 -39.5 5t-37.5 15.5t-30 27.5t-17 41h-2q-32 -42 -76.5 -63t-95.5 -21
q-86 0 -137 61t-51 172q0 54 14 110t44 101.5t77 74.5t113 29q44 0 71 -13.5t50 -45.5h3l6 43h149l-50 -401q-3 -16 9.5 -27t35.5 -11q22 0 48 15t48 48.5t36.5 88t14.5 132.5q0 79 -26.5 141t-74.5 104t-115.5 64t-149.5 22q-98 0 -181 -28t-143.5 -84t-94.5 -139t-34 -194
q0 -100 27 -178.5t78.5 -132.5t127.5 -82t175 -28q88 0 163 24t135 70l50 -74q-81 -60 -171 -83t-190 -23q-103 0 -194 31.5t-158.5 95.5t-107 160.5t-39.5 225.5q0 123 42.5 221t117 166t175.5 104t218 36q103 0 188 -28.5t146 -83t94.5 -134t33.5 -182.5z" />
    <glyph glyph-name="A" unicode="A" horiz-adv-x="1132" 
d="M563 794h-5l-130 -405h268zM820 0l-75 213h-364l-77 -213h-224l361 1004h241l370 -1004h-232z" />
    <glyph glyph-name="B" unicode="B" horiz-adv-x="1093" 
d="M745 294q0 50 -18.5 79t-47 43.5t-63.5 18t-68 3.5q-39 0 -79.5 -1.5t-73.5 -3.5v-273q41 -2 75 -2.5t81 -0.5q43 0 79 4t61.5 18.5t39.5 41.5t14 73zM715 719q0 31 -9 54.5t-29.5 39.5t-55 23.5t-85.5 7.5q-15 0 -35 -0.5t-39.5 -2t-37 -3t-27.5 -2.5v-245q31 -2 63 -2
h81q47 0 80 6t54 20.5t30.5 39.5t9.5 64zM963 275q0 -77 -24.5 -129.5t-70 -85t-109.5 -46.5t-143 -14h-436v993q87 8 177.5 13t176.5 5q70 0 141 -10.5t127 -40t91.5 -82t35.5 -136.5q0 -46 -10.5 -80.5t-30 -60t-48 -43.5t-65.5 -30v-3q188 -39 188 -250z" />
    <glyph glyph-name="C" unicode="C" horiz-adv-x="1066" 
d="M976 140q-157 -157 -362 -157q-124 0 -213.5 38.5t-147.5 108t-85.5 165.5t-27.5 210q0 111 30.5 205t90 162t147.5 106t203 38q108 0 194.5 -40t166.5 -122l-131 -144q-51 62 -104 92.5t-120 30.5q-126 0 -188 -84.5t-62 -244.5q0 -73 13.5 -135t43.5 -107.5t77.5 -71.5
t115.5 -26q71 0 129 31.5t115 91.5l115 -147v0z" />
    <glyph glyph-name="D" unicode="D" horiz-adv-x="1150" 
d="M783 506q0 60 -9 119.5t-37 106.5t-78.5 76t-133.5 29q-31 0 -64 -1t-64 -3v-662q31 -1 51 -1h48q69 0 122 15.5t90 54t56 103.5t19 163zM1010 505q0 -127 -33 -221.5t-97 -157.5t-156.5 -94.5t-211.5 -31.5h-332v993q36 4 78 7t85.5 5t87.5 3.5t84 1.5q112 0 203.5 -30
t156.5 -92t100 -157t35 -226z" />
    <glyph glyph-name="E" unicode="E" horiz-adv-x="970" 
d="M180 0v1000h646v-181h-429v-215h388v-183h-388v-243h443v-178h-660z" />
    <glyph glyph-name="F" unicode="F" horiz-adv-x="923" 
d="M397 819v-221h376v-184h-376v-414h-217v1000h633v-181h-416z" />
    <glyph glyph-name="G" unicode="G" horiz-adv-x="1167" 
d="M1027 451q0 -108 -22.5 -194t-72 -146t-128.5 -92.5t-193 -32.5q-104 0 -191 33.5t-149 98.5t-96.5 160.5t-34.5 219.5q0 126 35.5 222.5t98.5 162t149.5 99.5t187.5 34q64 0 116 -13t94.5 -34t77.5 -47.5t64 -54.5l-129 -144q-51 55 -102 82.5t-114 27.5
q-69 0 -116.5 -24.5t-77.5 -68.5t-43.5 -105.5t-13.5 -135.5q0 -73 12 -136.5t40.5 -111t77 -74.5t120.5 -27q105 0 159.5 59.5t54.5 175.5h-220v177h416v-111v0z" />
    <glyph glyph-name="H" unicode="H" horiz-adv-x="1151" 
d="M753 0v424h-356v-424h-217v1000h217v-372h356v372h218v-1000h-218z" />
    <glyph glyph-name="I" unicode="I" horiz-adv-x="577" 
d="M180 0v1000h217v-1000h-217z" />
    <glyph glyph-name="J" unicode="J" horiz-adv-x="826" 
d="M646 295q0 -69 -13.5 -127t-46.5 -99.5t-89 -65t-142 -23.5q-80 0 -142.5 22.5t-122.5 70.5l91 158q21 -19 39 -31.5t36 -20t37 -11t42 -3.5q48 0 71 29t23 97v709h217v-705v0z" />
    <glyph glyph-name="K" unicode="K" 
d="M740 0l-269 414l-75 -86l1 -328h-217v1000h217l-1 -417h5l293 417h268l-334 -439l368 -561h-256z" />
    <glyph glyph-name="L" unicode="L" horiz-adv-x="910" 
d="M180 0v1000h217v-817h393v-183h-610z" />
    <glyph glyph-name="M" unicode="M" horiz-adv-x="1301" 
d="M911 0v620h-4l-256 -366l-256 364h-5v-618h-210v1000h195l276 -412l276 412h194v-1000h-210z" />
    <glyph glyph-name="N" unicode="N" horiz-adv-x="1208" 
d="M827 0l-432 631h-3v-631h-212v1000h206l427 -609h3v609h212v-1000h-201z" />
    <glyph glyph-name="O" unicode="O" horiz-adv-x="1232" 
d="M865 501q0 77 -11.5 139.5t-40 106.5t-76 68t-120.5 24q-74 0 -122 -23.5t-76.5 -67.5t-40 -106.5t-11.5 -140.5t11.5 -141.5t40 -107.5t77 -68t122.5 -24q72 0 120 24t76 68.5t39.5 107.5t11.5 141zM1092 501q0 -129 -33.5 -225.5t-95.5 -161t-149.5 -96.5t-196.5 -32
t-197 32t-150.5 96.5t-96 161t-33.5 225.5q0 127 33.5 223t95.5 161t150 98t198 33t198 -33t149.5 -98t94.5 -161t33 -223z" />
    <glyph glyph-name="P" unicode="P" horiz-adv-x="1050" 
d="M712 683q0 43 -9.5 72.5t-31 47.5t-56.5 26t-86 8q-29 0 -61.5 -1.5t-70.5 -3.5v-306h144q38 0 69.5 4.5t54 20t35 47t12.5 85.5zM930 688q0 -77 -19.5 -138.5t-62 -105t-109 -67t-160.5 -23.5h-182v-354h-217v993q33 3 73.5 6t85.5 5.5t92 4t94 1.5q82 0 156 -15
t129 -52t87.5 -99t32.5 -156z" />
    <glyph glyph-name="Q" unicode="Q" horiz-adv-x="1233" 
d="M865 501q0 73 -9.5 135t-36.5 107t-75.5 70.5t-126.5 25.5t-127 -26t-76.5 -71.5t-37 -107t-9.5 -133.5t10 -134.5t38 -108.5t76.5 -72t126.5 -26q76 0 124.5 26.5t75.5 72.5t37 108t10 134zM1092 501q0 -61 -8.5 -120t-28.5 -113t-52 -101.5t-80 -85.5v-1q28 -8 45 -20
t34 -23.5t39.5 -22t61.5 -15.5l-70 -152q-59 1 -107.5 23t-89 47.5t-75.5 47t-66 21.5q-17 0 -30.5 -2t-30.5 -2q-122 0 -214.5 34.5t-154.5 101t-93.5 163t-31.5 220.5q0 119 30 214.5t89.5 162t149 102.5t208.5 36t208 -36t148.5 -102.5t89 -162t29.5 -214.5z" />
    <glyph glyph-name="R" unicode="R" 
d="M710 693q0 45 -13.5 73t-37.5 44.5t-57.5 22.5t-73.5 6q-35 0 -66.5 -1.5t-64.5 -4.5v-283h151q38 0 68 6.5t51 22.5t32 44t11 70zM726 0l-132 342q-8 23 -17 30t-32 7h-148v-379h-217v993q85 8 171 12.5t171 4.5q76 0 149.5 -13t130.5 -47t92 -93t35 -151
q0 -98 -39 -167t-128 -104v-2q6 -2 12 -9t11 -16t9.5 -18l7.5 -15l154 -375h-230z" />
    <glyph glyph-name="S" unicode="S" horiz-adv-x="990" 
d="M860 294q0 -85 -29.5 -144t-80 -95.5t-117.5 -52.5t-141 -16q-56 0 -106 6.5t-96 20t-90.5 34.5t-89.5 50l88 165q66 -46 136 -77t148 -31q28 0 57 5t52.5 17.5t38.5 35.5t15 59q0 33 -19 56t-50 40t-71.5 30.5t-83.5 27.5q-51 17 -101 39t-89.5 56t-64.5 83.5t-25 122.5
q0 78 30.5 132.5t80 89t112.5 50t129 15.5q91 0 170 -22t158 -64l-71 -168q-55 35 -113 57.5t-126 22.5q-31 0 -59 -4t-49 -15.5t-33.5 -30.5t-12.5 -49t19 -50t51 -35t73.5 -27t85.5 -27q50 -16 99 -38t88 -57t63 -86.5t24 -125.5z" />
    <glyph glyph-name="T" unicode="T" horiz-adv-x="923" 
d="M569 816v-816h-217v816h-262v184h743v-184h-264z" />
    <glyph glyph-name="U" unicode="U" horiz-adv-x="1162" 
d="M982 406q0 -99 -20.5 -177.5t-68 -133t-124.5 -83.5t-190 -29q-112 0 -188 28.5t-123 83t-67.5 133t-20.5 178.5v594h217v-564q0 -54 4.5 -103t22.5 -86t54.5 -58.5t100.5 -21.5q65 0 102 21.5t56 58.5t23.5 86t4.5 103v564h217v-594v0z" />
    <glyph glyph-name="V" unicode="V" horiz-adv-x="1057" 
d="M646 0h-235l-321 1000h231l210 -760h2l207 760h227z" />
    <glyph glyph-name="W" unicode="W" horiz-adv-x="1565" 
d="M1200 0h-238l-178 691h-9l-179 -691h-244l-252 1000h236l149 -745h3l192 745h211l184 -743h7l155 743h228z" />
    <glyph glyph-name="X" unicode="X" horiz-adv-x="1023" 
d="M713 0l-200 342h-1l-200 -342h-252l325 520l-287 480h253l170 -320h3l174 320h246l-295 -494l314 -506h-250z" />
    <glyph glyph-name="Y" unicode="Y" horiz-adv-x="1016" 
d="M615 389v-389h-215v385l-350 615h247l212 -424l222 424h235z" />
    <glyph glyph-name="Z" unicode="Z" horiz-adv-x="977" 
d="M120 0v161l455 655h-432v184h701v-163l-462 -659h475v-178h-737z" />
    <glyph glyph-name="bracketleft" unicode="[" horiz-adv-x="641" 
d="M140 -188v1362h351v-125h-167v-1115h167v-122h-351z" />
    <glyph glyph-name="backslash" unicode="\" horiz-adv-x="940" 
d="M656 -173l-556 1222h185l555 -1222h-184z" />
    <glyph glyph-name="bracketright" unicode="]" horiz-adv-x="650" 
d="M150 -188v122h164v1115h-164v125h350v-1362h-350z" />
    <glyph glyph-name="asciicircum" unicode="^" horiz-adv-x="847" 
d="M653 749l-228 118l-234 -118l-91 141l322 167l325 -167z" />
    <glyph glyph-name="underscore" unicode="_" horiz-adv-x="903" 
d="M100 -255v131h703v-131h-703z" />
    <glyph glyph-name="grave" unicode="`" horiz-adv-x="514" 
d="M321 911l-254 147l174 87l203 -168z" />
    <glyph glyph-name="a" unicode="a" horiz-adv-x="1000" 
d="M616 404q-43 0 -93.5 -4.5t-94 -20.5t-72.5 -48.5t-29 -87.5q0 -52 26.5 -85.5t81.5 -33.5q50 0 94.5 19.5t86.5 51.5v209zM752 -14q-42 10 -73.5 34.5t-41.5 62.5h-3q-57 -48 -123.5 -74.5t-142.5 -26.5q-57 0 -103 17t-78 49.5t-49.5 78.5t-17.5 103q0 65 22.5 112.5
t61 80.5t89 53t105.5 31.5t111 15t107 3.5v35q0 61 -26.5 87.5t-93.5 26.5q-77 0 -149.5 -22t-138.5 -60l-61 149q90 45 177 68t188 23q87 0 147 -18.5t96.5 -57.5t52.5 -98.5t16 -141.5v-303q0 -38 10.5 -62t45.5 -45z" />
    <glyph glyph-name="b" unicode="b" horiz-adv-x="1066" 
d="M710 411q0 50 -4.5 96.5t-21.5 82.5t-49.5 57.5t-89.5 21.5q-74 0 -115.5 -36.5t-41.5 -117.5v-184q0 -41 7.5 -76t25.5 -60.5t47.5 -40t73.5 -14.5q55 0 88 24t51 63t23.5 87.5t5.5 96.5zM926 415q0 -81 -17.5 -158.5t-57 -138.5t-102.5 -98.5t-153 -37.5
q-72 0 -128.5 28.5t-89.5 96.5h-4l-30 -107h-164v1085h211v-355h3q16 30 37.5 49.5t47.5 31.5t55.5 17t61.5 5q89 0 151.5 -34t102.5 -91.5t58 -133.5t18 -159z" />
    <glyph glyph-name="c" unicode="c" horiz-adv-x="921" 
d="M741 589q-43 42 -87.5 60t-98.5 18q-57 0 -95 -21.5t-61.5 -57.5t-33 -82t-9.5 -95q0 -52 11 -99.5t34.5 -84t61.5 -58t92 -21.5q61 0 109.5 16.5t99.5 56.5l67 -146q-35 -24 -69 -42t-69 -29t-73.5 -16.5t-81.5 -5.5q-98 0 -172.5 30.5t-124.5 86.5t-75.5 133.5
t-25.5 172.5t26.5 174t78 135.5t127.5 87.5t175 31q83 0 151 -25t133 -76z" />
    <glyph glyph-name="d" unicode="d" horiz-adv-x="1068" 
d="M680 515q0 81 -41.5 117.5t-114.5 36.5q-57 0 -90 -21.5t-50.5 -57.5t-22.5 -82.5t-5 -96.5q0 -48 6 -96t24 -87t51 -63.5t88 -24.5q45 0 74.5 14.5t47.5 40t25.5 60t7.5 75.5v185zM710 0l-14 99h-6q-38 -60 -94 -88.5t-125 -28.5q-90 0 -153 37.5t-102.5 98.5
t-57.5 138.5t-18 158.5q0 83 18.5 159t58.5 133.5t102.5 91.5t151.5 34q62 0 115 -21.5t88 -72.5h3v346h211v-1085h-178z" />
    <glyph glyph-name="e" unicode="e" horiz-adv-x="1039" 
d="M704 474q0 42 -9 78.5t-28.5 64t-51.5 43t-78 15.5q-84 0 -132.5 -52.5t-48.5 -148.5h348v0zM899 406v-31q0 -14 -2 -37h-541q2 -94 50.5 -144t151.5 -50q63 0 116 17t114 55l68 -149q-76 -45 -150 -65t-159 -20q-98 0 -173.5 30t-127.5 85.5t-79 134t-27 174.5
q0 111 32 191.5t86 133t126 77.5t152 25q90 0 157.5 -31.5t113.5 -87.5t69 -135t23 -173z" />
    <glyph glyph-name="f" unicode="f" horiz-adv-x="672" 
d="M592 934q-18 2 -37.5 4t-42.5 2q-59 0 -79.5 -20t-20.5 -70v-48h167v-170h-161v-632h-211v632h-117v170h117v58q0 65 12 109.5t43 72.5t84 40t136 12q24 0 53 -1t57 -6v-153v0z" />
    <glyph glyph-name="g" unicode="g" horiz-adv-x="1071" 
d="M680 509q0 78 -40 119t-118 41q-53 0 -85.5 -20t-50.5 -53t-24 -77t-6 -92q0 -44 6.5 -87t24.5 -77t50.5 -55t84.5 -21q47 0 77.5 15.5t48.5 42.5t25 63t7 77v124zM891 23q0 -93 -19.5 -158t-62.5 -106t-111 -59.5t-164 -18.5q-94 0 -177.5 21.5t-164.5 63.5l61 162
q68 -39 133.5 -59t144.5 -20q40 0 68 6.5t46 23t26.5 44.5t8.5 71v133h-3q-41 -55 -89.5 -77.5t-116.5 -22.5q-87 0 -149.5 30t-103 82.5t-59.5 125t-19 157.5q0 82 17 156.5t56 131t102 90t155 33.5q72 0 127 -24t93 -86h3l14 94h184v-794v0z" />
    <glyph glyph-name="h" unicode="h" horiz-adv-x="1077" 
d="M686 0v461q0 41 -3.5 76.5t-17 61.5t-40.5 41t-75 15q-82 0 -120.5 -40.5t-38.5 -125.5v-489h-211v1085h211v-345h1q21 28 46 46t53.5 28.5t59.5 14.5t64 4q82 0 136 -24.5t86.5 -70t46 -110t13.5 -143.5v-485h-211z" />
    <glyph glyph-name="i" unicode="i" horiz-adv-x="556" 
d="M406 1019q0 -50 -34 -79.5t-94 -29.5q-59 0 -93.5 29.5t-34.5 79.5t34.5 79.5t93.5 29.5q60 0 94 -29.5t34 -79.5zM173 0v817h212v-817h-212z" />
    <glyph glyph-name="j" unicode="j" horiz-adv-x="569" 
d="M394 17q0 -82 -17 -144.5t-54.5 -105t-96.5 -64.5t-143 -22q-59 0 -123 11v174q24 -2 48.5 -3t47.5 -1q46 0 71.5 11.5t38 33.5t15 54.5t2.5 75.5v780h211v-800v0zM419 1019q0 -27 -10.5 -47.5t-28 -34t-41 -20.5t-49.5 -7q-27 0 -50.5 7t-41 20.5t-27.5 34t-10 47.5
q0 28 10 48.5t27.5 34t41 20t50.5 6.5q26 0 49.5 -6.5t41 -20t28 -34t10.5 -48.5z" />
    <glyph glyph-name="k" unicode="k" horiz-adv-x="999" 
d="M673 0l-198 351l-84 -94v-257h-211v1085h211v-593h4l254 325h254l-277 -336l293 -481h-246z" />
    <glyph glyph-name="l" unicode="l" horiz-adv-x="630" 
d="M520 0q-29 -5 -67 -7.5t-79 -2.5q-55 0 -92 10t-59.5 31.5t-32.5 57t-10 86.5v910h211v-858q0 -21 3 -33.5t10.5 -18.5t20.5 -8t32 -2h63v-165v0z" />
    <glyph glyph-name="m" unicode="m" horiz-adv-x="1519" 
d="M1128 0v474q0 41 -4.5 74.5t-17.5 57.5t-37 37t-63 13q-63 0 -102.5 -35.5t-39.5 -109.5v-511h-211v476q0 41 -4 74.5t-16.5 57t-36.5 36t-64 12.5q-63 0 -102 -37.5t-39 -109.5v-509h-211v817h188l16 -94h3q13 24 31 44.5t42.5 35.5t57 23.5t74.5 8.5q75 0 128 -27.5
t85 -89.5q46 65 103.5 91t134.5 26q78 0 134 -22.5t92 -66t53 -106.5t17 -145v-495h-211z" />
    <glyph glyph-name="n" unicode="n" horiz-adv-x="1077" 
d="M686 0v459q0 42 -3.5 78t-17 62.5t-41 41t-74.5 14.5q-82 0 -120.5 -40.5t-38.5 -125.5v-489h-211v817h184l15 -91h3q42 61 100.5 84t132.5 23q82 0 136 -24.5t86.5 -70t46 -110t13.5 -143.5v-485h-211z" />
    <glyph glyph-name="o" unicode="o" 
d="M720 408q0 57 -8 104t-28.5 80.5t-55.5 52t-90 18.5q-54 0 -89.5 -18.5t-56 -52t-28.5 -80.5t-8 -104q0 -60 8.5 -109t29.5 -83t56.5 -52.5t89.5 -18.5q53 0 87.5 18.5t55 52.5t29 83t8.5 109zM936 408q0 -94 -24.5 -172.5t-74 -134.5t-124 -87.5t-175.5 -31.5t-175.5 31
t-124 87.5t-74 134.5t-24.5 173q0 90 23 167.5t71.5 135t124 90t179.5 32.5q99 0 173.5 -30t124.5 -85.5t75 -134t25 -175.5z" />
    <glyph glyph-name="p" unicode="p" horiz-adv-x="1068" 
d="M712 411q0 47 -4.5 93.5t-21.5 83t-50.5 59.5t-91.5 23q-75 0 -115.5 -38.5t-40.5 -114.5v-189q0 -41 7.5 -75t25.5 -59.5t47.5 -39.5t73.5 -14q56 0 89.5 26t51.5 65.5t23.5 87.5t5.5 92zM928 415q0 -81 -18 -159t-57.5 -139t-104 -98t-157.5 -37q-34 0 -61.5 5
t-51.5 16.5t-44.5 30t-39.5 46.5h-3v-388h-211v1125h181l14 -91h2q41 58 94 82.5t125 24.5q91 0 154.5 -35.5t103 -94t57 -133.5t17.5 -155z" />
    <glyph glyph-name="q" unicode="q" horiz-adv-x="1068" 
d="M680 515q0 81 -40.5 117.5t-115.5 36.5q-57 0 -90.5 -21t-50.5 -57t-22 -83t-5 -99q0 -47 6 -95t24 -86.5t51 -63t88 -24.5q45 0 75 15t47.5 41t25 61t7.5 75v183zM834 -338q-47 11 -77 30t-47 46t-23.5 63.5t-6.5 83.5v195h-8q-36 -54 -85.5 -76t-113.5 -22
q-90 0 -153.5 36.5t-103 97t-58 138.5t-18.5 161q0 81 18 156.5t57.5 134t102.5 94t153 35.5q69 0 126.5 -23.5t92.5 -85.5h3l12 91h186v-886q0 -25 2.5 -44t9.5 -33.5t20.5 -26t34.5 -21.5z" />
    <glyph glyph-name="r" unicode="r" horiz-adv-x="761" 
d="M608 645q-49 0 -89 -6.5t-68.5 -24.5t-44 -51t-15.5 -87v-476h-211v817h185l17 -107h2q32 62 83 92.5t140 30.5h54v-188h-53z" />
    <glyph glyph-name="s" unicode="s" horiz-adv-x="882" 
d="M762 240q0 -133 -83 -195.5t-237 -62.5q-91 0 -177.5 23.5t-164.5 71.5l72 150q61 -38 128.5 -64t139.5 -26q59 0 90 18.5t31 68.5q0 24 -16.5 40.5t-44 29t-63 23.5t-74.5 24q-42 13 -84 32t-75.5 48.5t-54 72t-20.5 102.5q0 54 21 98t61 75.5t99 48.5t136 17
q75 0 148 -16t143 -50l-54 -156q-50 28 -104.5 45.5t-112.5 17.5q-63 0 -100 -13.5t-37 -53.5q0 -23 17 -39.5t44.5 -29t63.5 -24t74 -23.5q43 -14 85 -32t75 -47t53.5 -71t20.5 -103z" />
    <glyph glyph-name="t" unicode="t" horiz-adv-x="690" 
d="M580 -3q-40 -5 -71 -7t-62 -2q-78 0 -127.5 13t-77.5 43t-38 78t-9 119v391h-125v170h126v219h210v-219h174v-170h-174v-375q0 -31 3 -49.5t16 -28t39 -12.5t72 -3h44v-167v0z" />
    <glyph glyph-name="u" unicode="u" horiz-adv-x="1064" 
d="M695 0l-13 88h-3q-35 -51 -90.5 -79.5t-136.5 -28.5q-67 0 -117.5 16.5t-85 54t-52 99.5t-17.5 152v515h211v-443q0 -48 2.5 -88t15.5 -68.5t40 -44.5t75 -16q45 0 74 11.5t45.5 34t23 55t6.5 74.5v485h211v-817h-189z" />
    <glyph glyph-name="v" unicode="v" horiz-adv-x="953" 
d="M601 0h-247l-274 817h224l174 -633h4l174 633h217z" />
    <glyph glyph-name="w" unicode="w" horiz-adv-x="1387" 
d="M1061 0h-216l-151 511h-6l-147 -511h-219l-222 817h220l124 -606h6l157 606h172l160 -609h5l129 609h214z" />
    <glyph glyph-name="x" unicode="x" horiz-adv-x="948" 
d="M635 0l-164 292h-1l-160 -292h-240l276 427l-244 390h238l142 -262h5l142 262h220l-247 -385l276 -432h-243z" />
    <glyph glyph-name="y" unicode="y" horiz-adv-x="971" 
d="M592 0q-34 -90 -63 -151t-64.5 -98.5t-83 -53.5t-117.5 -16q-26 0 -52.5 1.5t-66.5 6.5v176q13 -2 35 -3.5t51 -1.5q30 0 50.5 4.5t34.5 16.5t24.5 32t21.5 50l17 46l-299 808h225l184 -582h4l173 582h225z" />
    <glyph glyph-name="z" unicode="z" horiz-adv-x="846" 
d="M110 0v147l362 498h-357v172h614v-159l-356 -488h363v-170h-626z" />
    <glyph glyph-name="braceleft" unicode="{" horiz-adv-x="675" 
d="M420 -195q-58 0 -99.5 10t-68.5 34t-40 64t-13 101v268q0 24 -2.5 44.5t-11 37t-24 28t-41.5 16.5v141q25 4 40.5 16t24 28.5t11.5 37.5t3 45v291q0 60 13 100.5t40 65t68.5 34.5t99.5 10h105v-128h-45q-36 0 -55.5 -6.5t-28.5 -21t-10.5 -38.5t-1.5 -59v-284
q0 -29 -4.5 -51t-15 -40.5t-27 -35t-40.5 -35.5q24 -18 40.5 -34t27 -34.5t15 -41t4.5 -51.5v-261q0 -37 2 -61t11.5 -38.5t29 -20t54.5 -5.5h44v-126h-105z" />
    <glyph glyph-name="bar" unicode="|" horiz-adv-x="511" 
d="M180 -330v1379h151v-1379h-151z" />
    <glyph glyph-name="braceright" unicode="}" horiz-adv-x="675" 
d="M555 408q-26 -5 -42 -16.5t-24 -28t-10.5 -37t-2.5 -44.5v-268q0 -61 -12.5 -101t-39.5 -64t-68.5 -34t-99.5 -10h-106v126h46q35 0 54.5 5.5t28.5 20t11 38.5t2 61v261q0 29 4.5 51.5t14.5 41t26 34.5t40 34q-24 19 -40 35.5t-26 35t-14.5 40.5t-4.5 51v284q0 35 -2 59
t-11 38.5t-28.5 21t-54.5 6.5h-46v128h106q58 0 99.5 -10t68.5 -34.5t39.5 -65t12.5 -100.5v-291q0 -24 3 -45t11.5 -37.5t24 -28.5t40.5 -16v-141v0z" />
    <glyph glyph-name="asciitilde" unicode="~" horiz-adv-x="843" 
d="M773 900q-26 -67 -80 -100.5t-122 -33.5q-39 0 -75.5 10t-71 22.5t-67 22.5t-65.5 10q-34 0 -55 -13.5t-43 -53.5l-124 89q21 37 41.5 62t43.5 40.5t50.5 22t62.5 6.5q39 0 75.5 -10.5t71 -23t68 -23t65.5 -10.5q31 0 55 15.5t42 50.5l128 -83v0z" />
    <glyph glyph-name="exclamdown" unicode="&#xa1;" horiz-adv-x="566" 
d="M416 710q0 -23 -10.5 -43t-28.5 -34.5t-42.5 -22.5t-51.5 -8q-28 0 -52.5 8t-42.5 22.5t-28 34.5t-10 43q0 24 10 43.5t28 33.5t42 22t52 8t52.5 -8t42.5 -22t28.5 -33.5t10.5 -43.5zM168 -198l30 706h172l29 -706h-231z" />
    <glyph glyph-name="cent" unicode="&#xa2;" horiz-adv-x="899" 
d="M809 225q-51 -44 -99 -69.5t-105 -37.5v-118h-191v118q-66 15 -117.5 48.5t-86 83t-52.5 114t-18 141.5q0 154 69 252t205 126v117h191v-116q51 -8 96 -30t93 -57l-88 -145q-23 20 -43.5 34.5t-41.5 23.5t-43.5 13t-49.5 4q-48 0 -81.5 -17t-54.5 -46t-30.5 -69t-9.5 -86
q0 -109 43.5 -172.5t135.5 -63.5q22 0 44 3.5t45 13.5t49 26.5t55 43.5l85 -135v0z" />
    <glyph glyph-name="sterling" unicode="&#xa3;" horiz-adv-x="886" 
d="M110 0v164h17q63 0 91.5 38t28.5 110q0 12 -0.5 24.5t-2 28.5t-4 37t-7.5 50h-115v164h98q-8 43 -14 82t-6 84q0 119 78 176.5t220 57.5q78 0 147 -15.5t137 -47.5l-40 -178q-43 28 -92 46t-112 18q-74 0 -102.5 -27t-28.5 -79q0 -23 3.5 -51t10.5 -66h222v-164h-196
q13 -56 16.5 -91t3.5 -61q0 -38 -7 -65.5t-23 -53.5v-3h363v-178h-686z" />
    <glyph glyph-name="currency" unicode="&#xa4;" horiz-adv-x="1079" 
d="M90 332l32 109h84q-2 16 -2 31v33v23t2 25h-101l32 109h82q14 80 46 145.5t82.5 112t121 71.5t162.5 25q54 0 101 -10t90 -30t83.5 -50.5t80.5 -71.5l-124 -132q-51 61 -108 89.5t-123 28.5q-88 0 -136 -45t-65 -133h355l-31 -109h-335q-2 -11 -2 -23v-26q0 -17 1 -32
t2 -31h324l-32 -109h-278q7 -38 21.5 -70.5t37.5 -56t56.5 -36.5t78.5 -13q71 0 133 30.5t120 90.5l108 -139q-78 -78 -164 -117t-191 -39q-96 0 -168 25t-122 70.5t-80.5 110t-45.5 144.5h-128z" />
    <glyph glyph-name="yen" unicode="&#xa5;" horiz-adv-x="1079" 
d="M767 598h164v-135h-240l-36 -66v-89h276v-133h-276v-175h-215v175h-284v133h284v80l-43 75h-241v135h161l-227 402h243l215 -418l215 418h226z" />
    <glyph glyph-name="brokenbar" unicode="&#xa6;" horiz-adv-x="509" 
d="M180 -330v570h149v-570h-149zM180 479v570h149v-570h-149z" />
    <glyph glyph-name="section" unicode="&#xa7;" horiz-adv-x="857" 
d="M555 438q0 37 -28 57t-95 20q-27 0 -50 -3.5t-39.5 -12t-25.5 -23.5t-9 -38q0 -32 27.5 -54.5t96.5 -22.5q123 0 123 77zM737 479q0 -71 -39 -118.5t-129 -62.5v-4q34 -10 63.5 -27.5t51 -42t34 -56.5t12.5 -71q0 -44 -15.5 -84.5t-51 -71t-92.5 -49t-140 -18.5
q-45 0 -84.5 5t-77 16.5t-74 29t-75.5 41.5l68 147q69 -42 128.5 -64t114.5 -22q48 0 71 17.5t23 45.5q0 27 -19.5 44t-68.5 39q-51 18 -94 34t-79 36q-70 36 -103.5 77.5t-33.5 104.5q0 80 46 123t132 54v5q-79 25 -123.5 71.5t-44.5 118.5q0 49 19 89t56 69t92 45t127 16
q78 0 143.5 -14t135.5 -46l-54 -159q-54 30 -102.5 46t-101.5 16q-43 0 -72 -11.5t-29 -44.5q0 -23 16.5 -39.5t66.5 -34.5q30 -11 54.5 -20t46.5 -17.5t43 -17.5t45 -19q53 -27 83.5 -69t30.5 -107z" />
    <glyph glyph-name="dieresis" unicode="&#xa8;" horiz-adv-x="635" 
d="M258 1018q0 -22 -8.5 -41.5t-23 -34t-34.5 -23t-42 -8.5q-24 0 -43.5 8.5t-34.5 23t-23.5 34t-8.5 41.5q0 24 8.5 43.5t23.5 34.5t34.5 23.5t43.5 8.5q22 0 42 -8.5t34.5 -23.5t23 -34.5t8.5 -43.5zM619 1018q0 -22 -8 -41.5t-23 -34t-34.5 -23t-42.5 -8.5q-22 0 -43 8.5
t-35 23t-23 34t-9 41.5q0 24 9 43.5t23 34.5t35 23.5t43 8.5q23 0 42.5 -8.5t34.5 -23.5t23 -34.5t8 -43.5z" />
    <glyph glyph-name="copyright" unicode="&#xa9;" horiz-adv-x="1295" 
d="M901 280q-53 -48 -109.5 -72t-124.5 -24q-80 0 -138 25.5t-95.5 69.5t-55 102t-17.5 124q0 70 20.5 128t59 99t94 64t126.5 23q70 0 127.5 -24.5t109.5 -76.5l-84 -95q-66 76 -147 76q-84 0 -123 -52t-39 -143q0 -95 41 -147.5t122 -52.5q45 0 84 18t77 54l72 -96v0z
M1096 502q0 93 -35.5 174.5t-96 142t-142 96t-173.5 35.5q-93 0 -175 -35.5t-142.5 -96t-96 -142t-35.5 -174.5q0 -92 35.5 -173t96 -142t142.5 -96t175 -35q92 0 173.5 35t142 96t96 142t35.5 173zM1165 501q0 -108 -40.5 -202t-111 -164.5t-164.5 -111t-202 -40.5
q-107 0 -201.5 40.5t-164.5 111t-110.5 164.5t-40.5 202q0 107 40.5 201t110.5 164t164.5 110.5t201.5 40.5q108 0 202 -40.5t164.5 -110.5t111 -164t40.5 -201z" />
    <glyph glyph-name="ordfeminine" unicode="&#xaa;" horiz-adv-x="693" 
d="M404 782q-88 0 -122.5 -21t-34.5 -59q0 -29 15.5 -44.5t42.5 -15.5q22 0 44.5 7.5t54.5 30.5v102zM492 555q-29 6 -46.5 19t-26.5 33h-1q-71 -51 -150 -51q-68 0 -108 37t-40 100q0 89 75 128t209 39v10q0 14 -1.5 24.5t-7.5 17.5t-19.5 10.5t-37.5 3.5q-32 0 -75 -9.5
t-91 -36.5l-42 93q58 28 109.5 41t111.5 13q55 0 90 -11t55.5 -34t28.5 -59t8 -86v-144q0 -11 1.5 -19t6 -14t12.5 -12t20 -14z" />
    <glyph glyph-name="guillemotleft" unicode="&#xab;" horiz-adv-x="887" 
d="M287 145l-177 304l177 303l143 -72l-138 -232l138 -232zM633 145l-177 304l177 303l144 -72l-140 -232l140 -232z" />
    <glyph glyph-name="registered" unicode="&#xae;" horiz-adv-x="780" 
d="M354 884v-72h42q24 0 34 10t10 27q0 18 -11 26.5t-40 8.5h-35zM470 778q2 -3 10.5 -22.5t17.5 -41t16.5 -39t8.5 -17.5h-83l-39 95q-1 7 -7 7h-38v-102h-73v282q26 2 54.5 2.5t51.5 0.5t45.5 -3.5t40 -13.5t28.5 -28t11 -47q0 -49 -44 -73zM390 1013q-46 0 -86.5 -17
t-70.5 -46.5t-47 -69t-17 -84.5t17 -84t47 -68t70.5 -45.5t86.5 -16.5t86 16.5t70 45.5t47.5 68t17.5 84t-17.5 84.5t-47.5 69t-70 46.5t-86 17zM389 542q-53 0 -100.5 20t-82.5 54.5t-55.5 80.5t-20.5 99t20.5 99t55.5 80.5t82.5 54t100.5 19.5q54 0 101.5 -19.5t83 -54
t56 -80.5t20.5 -99t-20.5 -99t-56 -80.5t-83 -54.5t-101.5 -20z" />
    <glyph glyph-name="macron" unicode="&#xaf;" horiz-adv-x="837" 
d="M174 956v146h496v-146h-496z" />
    <glyph glyph-name="macron" unicode="&#x2c9;" horiz-adv-x="837" 
d="M174 956v146h496v-146h-496z" />
    <glyph glyph-name="degree" unicode="&#xb0;" horiz-adv-x="708" 
d="M519 796q0 34 -13 64t-35 52t-52.5 35t-64.5 13t-64 -13t-52.5 -35t-35.5 -52t-13 -64t13 -64t35.5 -52.5t52.5 -35.5t64 -13t64.5 13t52.5 35.5t35 52.5t13 64zM588 796q0 -48 -18.5 -91t-50 -74.5t-74.5 -50t-91 -18.5t-91 18.5t-74.5 50t-50 74.5t-18.5 91t18.5 90.5
t50 74.5t74.5 50.5t91 18.5t91 -18.5t74.5 -50.5t50 -74.5t18.5 -90.5z" />
    <glyph glyph-name="plusminus" unicode="&#xb1;" horiz-adv-x="960" 
d="M130 0v182h700v-182h-700zM576 564v-252h-189v252h-257v182h257v235h189v-235h254v-182h-254z" />
    <glyph glyph-name="twosuperior" unicode="&#xb2;" horiz-adv-x="633" 
d="M84 615q18 15 46 36t60.5 46t65 52t58.5 55t42.5 56t16.5 53q0 13 -4 25t-13 21.5t-24.5 15.5t-39.5 6q-36 0 -71.5 -14.5t-70.5 -49.5l-70 104q30 25 58.5 42t57.5 28t59 16t64 5q95 0 152 -47t57 -135q0 -36 -12 -70.5t-41 -71.5t-77 -78.5t-119 -89.5h254v-125h-426z
" />
    <glyph glyph-name="threesuperior" unicode="&#xb3;" horiz-adv-x="646" 
d="M546 676q0 -87 -64.5 -138t-182.5 -51q-64 0 -117.5 18.5t-101.5 53.5l65 104q45 -34 80 -45t73 -11q45 0 72.5 17t27.5 55t-23.5 53.5t-77.5 15.5h-82v114h69q44 0 69.5 15t25.5 52q0 11 -4.5 22t-14.5 19.5t-27 14t-42 5.5q-35 0 -68.5 -12.5t-65.5 -39.5l-67 99
q31 21 58.5 36t54.5 24t54 13t59 4q96 0 154 -43t58 -124q0 -45 -18 -77t-50 -51q42 -17 64 -54t22 -89z" />
    <glyph glyph-name="acute" unicode="&#xb4;" horiz-adv-x="514" 
d="M187 913l-123 66l203 166l174 -87z" />
    <glyph glyph-name="mu" unicode="&#xb5;" horiz-adv-x="1064" 
d="M695 0h189v817h-211v-485q0 -42 -7 -75q-6 -32 -22.5 -54.5t-45.5 -34t-74 -11.5q-48 0 -75 16t-40 44.5t-15.5 68.5t-2.5 88v443h-211v-1143h192v313q36 -7 80 -7q81 0 136 28q56 29 91 80h3z" />
    <glyph glyph-name="mu" unicode="&#x3bc;" horiz-adv-x="1064" 
d="M695 0h189v817h-211v-485q0 -42 -7 -75q-6 -32 -22.5 -54.5t-45.5 -34t-74 -11.5q-48 0 -75 16t-40 44.5t-15.5 68.5t-2.5 88v443h-211v-1143h192v313q36 -7 80 -7q81 0 136 28q56 29 91 80h3z" />
    <glyph glyph-name="paragraph" unicode="&#xb6;" horiz-adv-x="925" 
d="M576 0q-108 0 -189.5 29t-136.5 80t-82.5 120t-27.5 149q0 78 27.5 146t82.5 119t136.5 80t189.5 29h169v-752h-169z" />
    <glyph glyph-name="periodcentered" unicode="&#xb7;" horiz-adv-x="538" 
d="M398 406q0 -27 -10 -50.5t-27.5 -41t-41 -27.5t-49.5 -10q-27 0 -50.5 10t-41.5 27.5t-28 41t-10 50.5t10 50t28 40.5t41.5 27t50.5 9.5q26 0 49.5 -9.5t41 -27t27.5 -40.5t10 -50z" />
    <glyph glyph-name="periodcentered" unicode="&#x2219;" horiz-adv-x="538" 
d="M398 406q0 -27 -10 -50.5t-27.5 -41t-41 -27.5t-49.5 -10q-27 0 -50.5 10t-41.5 27.5t-28 41t-10 50.5t10 50t28 40.5t41.5 27t50.5 9.5q26 0 49.5 -9.5t41 -27t27.5 -40.5t10 -50z" />
    <glyph glyph-name="cedilla" unicode="&#xb8;" horiz-adv-x="836" 
d="M619 -205q0 -31 -10.5 -58t-30.5 -46.5t-49.5 -30.5t-67.5 -11q-42 0 -77.5 11.5t-66.5 31.5l31 71q21 -14 47.5 -22t49.5 -8q11 0 22 3.5t20 10.5t15 18t6 27q0 25 -13.5 41t-55.5 16q-8 0 -21 -2.5t-27 -10.5l-37 26l65 138h80l-38 -84l1 -2q9 2 16 3.5t17 1.5
q55 0 89.5 -32t34.5 -92z" />
    <glyph glyph-name="onesuperior" unicode="&#xb9;" horiz-adv-x="509" 
d="M374 1104v-609h-151v419l-103 -68l-60 108l201 150h113z" />
    <glyph glyph-name="ordmasculine" unicode="&#xba;" horiz-adv-x="692" 
d="M439 794q0 63 -19.5 96.5t-74.5 33.5t-74.5 -33.5t-19.5 -96.5q0 -69 21.5 -101t72.5 -32t72.5 32t21.5 101zM572 794q0 -108 -58 -172t-170 -64t-168 64t-56 172q0 51 13.5 94t41 74.5t70 49.5t100.5 18q110 0 168.5 -62.5t58.5 -173.5z" />
    <glyph glyph-name="guillemotright" unicode="&#xbb;" horiz-adv-x="885" 
d="M253 145l-143 71l138 232l-138 232l143 72l177 -303zM599 145l-144 71l140 232l-140 232l144 72l176 -303z" />
    <glyph glyph-name="onequarter" unicode="&#xbc;" horiz-adv-x="1630" 
d="M1221 180v234l-153 -234h153zM1358 -58h-154v119h-241l-32 122l260 369h167v-362h87v-129h-87v-119zM451 -58h-133l769 1162h131zM472 1104v-609h-151v419l-101 -68l-60 108l201 150h111z" />
    <glyph glyph-name="onehalf" unicode="&#xbd;" horiz-adv-x="1630" 
d="M449 -58h-132l768 1162h131zM994 61q18 15 46.5 36.5t60.5 46.5t65 52.5t59 55.5t42.5 55.5t16.5 52.5q0 13 -4 26t-13.5 23t-25 16t-39.5 6q-72 0 -142 -66l-72 103q62 49 118 71t123 22q95 0 152 -47.5t57 -135.5q0 -36 -12.5 -70.5t-41.5 -71.5t-76.5 -78t-118.5 -89
h255v-127h-427zM472 1104v-609h-151v419l-101 -68l-60 108l201 150h111z" />
    <glyph glyph-name="threequarters" unicode="&#xbe;" horiz-adv-x="1630" 
d="M596 676q0 -87 -64.5 -138t-182.5 -51q-64 0 -117.5 18.5t-101.5 53.5l65 104q45 -34 80 -45t73 -11q45 0 72.5 17t27.5 55t-23.5 53.5t-77.5 15.5h-82v114h69q44 0 69.5 15t25.5 52q0 11 -4.5 22t-14.5 19.5t-27 14t-42 5.5q-35 0 -68.5 -12.5t-65.5 -39.5l-67 99
q31 21 58.5 36t54.5 24t54 13t59 4q48 0 87 -11t66.5 -32t43 -52.5t15.5 -71.5q0 -45 -18 -77t-50 -51q42 -17 64 -54t22 -89zM542 -58h-133l768 1162h131zM1312 180v234l-153 -234h153zM1449 -58h-154v119h-241l-31 122l259 369h167v-362h87v-129h-87v-119z" />
    <glyph glyph-name="questiondown" unicode="&#xbf;" horiz-adv-x="894" 
d="M653 710q0 -23 -10.5 -43t-28.5 -34.5t-42.5 -22.5t-51.5 -8q-29 0 -53.5 8t-42.5 22.5t-28 34.5t-10 43q0 24 10 43.5t28 33.5t42 22t52 8t53 -8t43 -22t28.5 -33.5t10.5 -43.5zM794 -110q-42 -29 -81 -49t-78.5 -32.5t-82 -18t-91.5 -5.5q-80 0 -140 20.5t-100 58
t-60.5 91t-20.5 119.5q0 92 40.5 151t128.5 106l59 31q17 9 26.5 15.5t14 15.5t5 22.5t0.5 36.5v63h200v-108q0 -34 -4 -57t-14.5 -40t-29 -30.5t-46.5 -28.5l-59 -30q-29 -15 -51 -27.5t-36.5 -27.5t-22 -34.5t-7.5 -47.5q0 -58 38.5 -91t108.5 -33q63 0 113 20.5t95 62.5
l95 -153v0z" />
    <glyph glyph-name="Agrave" unicode="&#xc0;" horiz-adv-x="1132" 
d="M563 794h-5l-130 -405h268zM820 0l-75 213h-364l-77 -213h-224l361 1004h241l370 -1004h-232zM559 1091l-254 147l174 87l203 -168z" />
    <glyph glyph-name="Aacute" unicode="&#xc1;" horiz-adv-x="1132" 
d="M563 794h-5l-130 -405h268zM820 0l-75 213h-364l-77 -213h-224l361 1004h241l370 -1004h-232zM568 1093l-123 66l203 166l174 -87z" />
    <glyph glyph-name="Acircumflex" unicode="&#xc2;" horiz-adv-x="1132" 
d="M563 794h-5l-130 -405h268zM820 0l-75 213h-364l-77 -213h-224l361 1004h241l370 -1004h-232zM730 1083l-167 92l-167 -95l-73 103l239 141l239 -141z" />
    <glyph glyph-name="Atilde" unicode="&#xc3;" horiz-adv-x="1132" 
d="M563 794h-5l-130 -405h268zM820 0l-75 213h-364l-77 -213h-224l361 1004h241l370 -1004h-232zM852 1243q-23 -69 -66.5 -106t-97.5 -37q-34 0 -63.5 11.5t-55.5 24.5t-51 24.5t-47 11.5q-27 0 -46 -17t-33 -58l-97 68q32 76 67.5 109.5t93.5 33.5q31 0 60 -11.5
t55.5 -25.5t52.5 -25.5t49 -11.5q52 0 81 74z" />
    <glyph glyph-name="Adieresis" unicode="&#xc4;" horiz-adv-x="1132" 
d="M563 794h-5l-130 -405h268zM820 0l-75 213h-364l-77 -213h-224l361 1004h241l370 -1004h-232zM489 1198q0 -22 -8.5 -41.5t-23 -34t-34.5 -23t-42 -8.5q-24 0 -43.5 8.5t-34.5 23t-23.5 34t-8.5 41.5q0 24 8.5 43.5t23.5 34.5t34.5 23.5t43.5 8.5q22 0 42 -8.5
t34.5 -23.5t23 -34.5t8.5 -43.5zM850 1198q0 -22 -8 -41.5t-23 -34t-34.5 -23t-42.5 -8.5q-22 0 -43 8.5t-35 23t-23 34t-9 41.5q0 24 9 43.5t23 34.5t35 23.5t43 8.5q23 0 42.5 -8.5t34.5 -23.5t23 -34.5t8 -43.5z" />
    <glyph glyph-name="Aring" unicode="&#xc5;" horiz-adv-x="1132" 
d="M563 794h-5l-130 -405h268zM820 0l-75 213h-364l-77 -213h-224l361 1004h241l370 -1004h-232zM626 1226q0 31 -19.5 51t-48.5 20q-30 0 -50 -20t-20 -51q0 -30 20 -50t50 -20q29 0 48.5 20t19.5 50zM705 1226q0 -31 -11 -57t-31 -44.5t-47 -28.5t-58 -10
q-32 0 -58.5 10.5t-46.5 29t-31 44t-11 56.5q0 32 11 58t31 45t46.5 29t58.5 10q31 0 58 -10t47 -29t31 -45t11 -58z" />
    <glyph glyph-name="AE" unicode="&#xc6;" horiz-adv-x="1517" 
d="M462 389h264v430h-58zM726 0v213h-344l-101 -213h-221l502 1000h810v-181h-429v-215h388v-183h-388v-243h444v-178h-661z" />
    <glyph glyph-name="Ccedilla" unicode="&#xc7;" horiz-adv-x="1064" 
d="M763 -205q0 -31 -10.5 -58t-31 -46.5t-50 -30.5t-67.5 -11q-42 0 -77 11.5t-67 31.5l32 71q21 -14 47.5 -22t49.5 -8q10 0 21.5 3.5t20.5 10.5t15 18t6 27q0 25 -13.5 41t-55.5 16q-8 0 -21 -2.5t-27 -10.5l-37 26l58 125q-109 8 -187.5 49.5t-129.5 109.5t-75 159.5
t-24 199.5q0 111 30 205t89.5 162t147 106t202.5 38q108 0 194.5 -40t166.5 -122l-131 -144q-51 62 -104 92.5t-120 30.5q-126 0 -188 -84.5t-62 -244.5q0 -73 13.5 -135t43.5 -107.5t77.5 -71.5t115.5 -26q71 0 129 31.5t115 91.5l115 -147q-147 -147 -338 -154l-32 -70
l2 -2q8 2 15.5 3.5t17.5 1.5q55 0 89.5 -32t34.5 -92z" />
    <glyph glyph-name="Egrave" unicode="&#xc8;" horiz-adv-x="970" 
d="M180 0v1000h646v-181h-429v-215h388v-183h-388v-243h443v-178h-660zM499 1091l-254 147l174 87l203 -168z" />
    <glyph glyph-name="Eacute" unicode="&#xc9;" horiz-adv-x="970" 
d="M180 0v1000h646v-181h-429v-215h388v-183h-388v-243h443v-178h-660zM494 1093l-123 66l203 166l174 -87z" />
    <glyph glyph-name="Ecircumflex" unicode="&#xca;" horiz-adv-x="970" 
d="M180 0v1000h646v-181h-429v-215h388v-183h-388v-243h443v-178h-660zM682 1083l-167 92l-167 -95l-73 103l239 141l239 -141z" />
    <glyph glyph-name="Edieresis" unicode="&#xcb;" horiz-adv-x="970" 
d="M180 0v1000h646v-181h-429v-215h388v-183h-388v-243h443v-178h-660zM440 1198q0 -22 -8.5 -41.5t-23 -34t-34.5 -23t-42 -8.5q-24 0 -43.5 8.5t-34.5 23t-23.5 34t-8.5 41.5q0 24 8.5 43.5t23.5 34.5t34.5 23.5t43.5 8.5q22 0 42 -8.5t34.5 -23.5t23 -34.5t8.5 -43.5z
M801 1198q0 -22 -8 -41.5t-23 -34t-34.5 -23t-42.5 -8.5q-22 0 -43 8.5t-35 23t-23 34t-9 41.5q0 24 9 43.5t23 34.5t35 23.5t43 8.5q23 0 42.5 -8.5t34.5 -23.5t23 -34.5t8 -43.5z" />
    <glyph glyph-name="Igrave" unicode="&#xcc;" horiz-adv-x="577" 
d="M180 0v1000h217v-1000h-217zM281 1091l-254 147l174 87l203 -168z" />
    <glyph glyph-name="Iacute" unicode="&#xcd;" horiz-adv-x="577" 
d="M180 0v1000h217v-1000h-217zM288 1093l-123 66l203 166l174 -87z" />
    <glyph glyph-name="Icircumflex" unicode="&#xce;" horiz-adv-x="577" 
d="M180 0v1000h217v-1000h-217zM453 1083l-167 92l-167 -95l-73 103l239 141l239 -141z" />
    <glyph glyph-name="Idieresis" unicode="&#xcf;" horiz-adv-x="577" 
d="M180 0v1000h217v-1000h-217zM213 1198q0 -22 -8.5 -41.5t-23 -34t-34.5 -23t-42 -8.5q-24 0 -43.5 8.5t-34.5 23t-23.5 34t-8.5 41.5q0 24 8.5 43.5t23.5 34.5t34.5 23.5t43.5 8.5q22 0 42 -8.5t34.5 -23.5t23 -34.5t8.5 -43.5zM574 1198q0 -22 -8 -41.5t-23 -34
t-34.5 -23t-42.5 -8.5q-22 0 -43 8.5t-35 23t-23 34t-9 41.5q0 24 9 43.5t23 34.5t35 23.5t43 8.5q23 0 42.5 -8.5t34.5 -23.5t23 -34.5t8 -43.5z" />
    <glyph glyph-name="Eth" unicode="&#xd0;" horiz-adv-x="1150" 
d="M397 432v-261q31 -1 51 -1h48q69 0 122 15.5t90 54t56 103.5t19 163q0 60 -9 119.5t-37 106.5t-78.5 76t-133.5 29q-31 0 -64 -1t-64 -3v-241h172v-160h-172zM1010 505q0 -127 -33 -221.5t-97 -157.5t-156.5 -94.5t-211.5 -31.5h-332v432h-102v160h102v401q36 4 78 7
t85.5 5t87.5 3.5t84 1.5q112 0 203.5 -30t156.5 -92t100 -157t35 -226z" />
    <glyph glyph-name="Ntilde" unicode="&#xd1;" horiz-adv-x="1208" 
d="M827 0l-432 631h-3v-631h-212v1000h206l427 -609h3v609h212v-1000h-201zM892 1243q-23 -69 -66.5 -106t-97.5 -37q-34 0 -63.5 11.5t-55.5 24.5t-51 24.5t-47 11.5q-27 0 -46 -17t-33 -58l-97 68q32 76 67.5 109.5t93.5 33.5q31 0 60 -11.5t55.5 -25.5t52.5 -25.5
t49 -11.5q52 0 81 74z" />
    <glyph glyph-name="Ograve" unicode="&#xd2;" horiz-adv-x="1232" 
d="M865 501q0 77 -11.5 139.5t-40 106.5t-76 68t-120.5 24q-74 0 -122 -23.5t-76.5 -67.5t-40 -106.5t-11.5 -140.5t11.5 -141.5t40 -107.5t77 -68t122.5 -24q72 0 120 24t76 68.5t39.5 107.5t11.5 141zM1092 501q0 -129 -33.5 -225.5t-95.5 -161t-149.5 -96.5t-196.5 -32
t-197 32t-150.5 96.5t-96 161t-33.5 225.5q0 127 33.5 223t95.5 161t150 98t198 33t198 -33t149.5 -98t94.5 -161t33 -223zM606 1101l-254 147l174 87l203 -168z" />
    <glyph glyph-name="Oacute" unicode="&#xd3;" horiz-adv-x="1232" 
d="M865 501q0 77 -11.5 139.5t-40 106.5t-76 68t-120.5 24q-74 0 -122 -23.5t-76.5 -67.5t-40 -106.5t-11.5 -140.5t11.5 -141.5t40 -107.5t77 -68t122.5 -24q72 0 120 24t76 68.5t39.5 107.5t11.5 141zM1092 501q0 -129 -33.5 -225.5t-95.5 -161t-149.5 -96.5t-196.5 -32
t-197 32t-150.5 96.5t-96 161t-33.5 225.5q0 127 33.5 223t95.5 161t150 98t198 33t198 -33t149.5 -98t94.5 -161t33 -223zM627 1103l-123 66l203 166l174 -87z" />
    <glyph glyph-name="Ocircumflex" unicode="&#xd4;" horiz-adv-x="1232" 
d="M865 501q0 77 -11.5 139.5t-40 106.5t-76 68t-120.5 24q-74 0 -122 -23.5t-76.5 -67.5t-40 -106.5t-11.5 -140.5t11.5 -141.5t40 -107.5t77 -68t122.5 -24q72 0 120 24t76 68.5t39.5 107.5t11.5 141zM1092 501q0 -129 -33.5 -225.5t-95.5 -161t-149.5 -96.5t-196.5 -32
t-197 32t-150.5 96.5t-96 161t-33.5 225.5q0 127 33.5 223t95.5 161t150 98t198 33t198 -33t149.5 -98t94.5 -161t33 -223zM782 1093l-167 92l-167 -95l-73 103l239 141l239 -141z" />
    <glyph glyph-name="Otilde" unicode="&#xd5;" horiz-adv-x="1232" 
d="M865 501q0 77 -11.5 139.5t-40 106.5t-76 68t-120.5 24q-74 0 -122 -23.5t-76.5 -67.5t-40 -106.5t-11.5 -140.5t11.5 -141.5t40 -107.5t77 -68t122.5 -24q72 0 120 24t76 68.5t39.5 107.5t11.5 141zM1092 501q0 -129 -33.5 -225.5t-95.5 -161t-149.5 -96.5t-196.5 -32
t-197 32t-150.5 96.5t-96 161t-33.5 225.5q0 127 33.5 223t95.5 161t150 98t198 33t198 -33t149.5 -98t94.5 -161t33 -223zM891 1253q-23 -69 -66.5 -106t-97.5 -37q-34 0 -63.5 11.5t-55.5 24.5t-51 24.5t-47 11.5q-27 0 -46 -17t-33 -58l-97 68q32 76 67.5 109.5
t93.5 33.5q31 0 60 -11.5t55.5 -25.5t52.5 -25.5t49 -11.5q52 0 81 74z" />
    <glyph glyph-name="Odieresis" unicode="&#xd6;" horiz-adv-x="1232" 
d="M865 501q0 77 -11.5 139.5t-40 106.5t-76 68t-120.5 24q-74 0 -122 -23.5t-76.5 -67.5t-40 -106.5t-11.5 -140.5t11.5 -141.5t40 -107.5t77 -68t122.5 -24q72 0 120 24t76 68.5t39.5 107.5t11.5 141zM1092 501q0 -129 -33.5 -225.5t-95.5 -161t-149.5 -96.5t-196.5 -32
t-197 32t-150.5 96.5t-96 161t-33.5 225.5q0 127 33.5 223t95.5 161t150 98t198 33t198 -33t149.5 -98t94.5 -161t33 -223zM548 1208q0 -22 -8.5 -41.5t-23 -34t-34.5 -23t-42 -8.5q-24 0 -43.5 8.5t-34.5 23t-23.5 34t-8.5 41.5q0 24 8.5 43.5t23.5 34.5t34.5 23.5
t43.5 8.5q22 0 42 -8.5t34.5 -23.5t23 -34.5t8.5 -43.5zM909 1208q0 -22 -8 -41.5t-23 -34t-34.5 -23t-42.5 -8.5q-22 0 -43 8.5t-35 23t-23 34t-9 41.5q0 24 9 43.5t23 34.5t35 23.5t43 8.5q23 0 42.5 -8.5t34.5 -23.5t23 -34.5t8 -43.5z" />
    <glyph glyph-name="multiply" unicode="&#xd7;" horiz-adv-x="960" 
d="M793 588l-192 -184l192 -187l-129 -129l-185 192l-184 -192l-128 129l191 187l-191 184l128 128l184 -191l185 191z" />
    <glyph glyph-name="Oslash" unicode="&#xd8;" horiz-adv-x="1232" 
d="M367 501q0 -35 2 -66.5t6 -59.5l403 414q-29 25 -69.5 37.5t-93.5 12.5q-74 0 -122 -23.5t-75.5 -67.5t-39 -106.5t-11.5 -140.5zM865 501q0 38 -2.5 73t-9.5 66l-411 -420q29 -29 71.5 -44.5t102.5 -15.5q74 0 122 24t76 68.5t39.5 107.5t11.5 141zM1092 501
q0 -129 -33.5 -225.5t-95.5 -161t-149.5 -96.5t-198.5 -32q-94 0 -172 23t-138 71l-92 -94l-103 117l95 98q-65 119 -65 300q0 127 33 223t94.5 161t149.5 98t198 33q92 0 166 -22t134 -65l84 87l114 -109l-93 -97q35 -60 53.5 -137.5t18.5 -171.5z" />
    <glyph glyph-name="Ugrave" unicode="&#xd9;" horiz-adv-x="1162" 
d="M982 406q0 -99 -20.5 -177.5t-68 -133t-124.5 -83.5t-190 -29q-112 0 -188 28.5t-123 83t-67.5 133t-20.5 178.5v594h217v-564q0 -54 4.5 -103t22.5 -86t54.5 -58.5t100.5 -21.5q65 0 102 21.5t56 58.5t23.5 86t4.5 103v564h217v-594v0zM559 1091l-254 147l174 87
l203 -168z" />
    <glyph glyph-name="Uacute" unicode="&#xda;" horiz-adv-x="1162" 
d="M982 406q0 -99 -20.5 -177.5t-68 -133t-124.5 -83.5t-190 -29q-112 0 -188 28.5t-123 83t-67.5 133t-20.5 178.5v594h217v-564q0 -54 4.5 -103t22.5 -86t54.5 -58.5t100.5 -21.5q65 0 102 21.5t56 58.5t23.5 86t4.5 103v564h217v-594v0zM589 1093l-123 66l203 166
l174 -87z" />
    <glyph glyph-name="Ucircumflex" unicode="&#xdb;" horiz-adv-x="1162" 
d="M982 406q0 -99 -20.5 -177.5t-68 -133t-124.5 -83.5t-190 -29q-112 0 -188 28.5t-123 83t-67.5 133t-20.5 178.5v594h217v-564q0 -54 4.5 -103t22.5 -86t54.5 -58.5t100.5 -21.5q65 0 102 21.5t56 58.5t23.5 86t4.5 103v564h217v-594v0zM745 1083l-167 92l-167 -95
l-73 103l239 141l239 -141z" />
    <glyph glyph-name="Udieresis" unicode="&#xdc;" horiz-adv-x="1162" 
d="M982 406q0 -99 -20.5 -177.5t-68 -133t-124.5 -83.5t-190 -29q-112 0 -188 28.5t-123 83t-67.5 133t-20.5 178.5v594h217v-564q0 -54 4.5 -103t22.5 -86t54.5 -58.5t100.5 -21.5q65 0 102 21.5t56 58.5t23.5 86t4.5 103v564h217v-594v0zM503 1198q0 -22 -8.5 -41.5
t-23 -34t-34.5 -23t-42 -8.5q-24 0 -43.5 8.5t-34.5 23t-23.5 34t-8.5 41.5q0 24 8.5 43.5t23.5 34.5t34.5 23.5t43.5 8.5q22 0 42 -8.5t34.5 -23.5t23 -34.5t8.5 -43.5zM864 1198q0 -22 -8 -41.5t-23 -34t-34.5 -23t-42.5 -8.5q-22 0 -43 8.5t-35 23t-23 34t-9 41.5
q0 24 9 43.5t23 34.5t35 23.5t43 8.5q23 0 42.5 -8.5t34.5 -23.5t23 -34.5t8 -43.5z" />
    <glyph glyph-name="Yacute" unicode="&#xdd;" horiz-adv-x="1016" 
d="M615 389v-389h-215v385l-350 615h247l212 -424l222 424h235zM538 1093l-123 66l203 166l174 -87z" />
    <glyph glyph-name="Thorn" unicode="&#xde;" horiz-adv-x="1050" 
d="M716 545q0 42 -9.5 71t-31.5 47t-57.5 26t-87.5 8q-29 0 -62.5 -1t-70.5 -5v-304h142q37 0 69.5 4t56.5 20t37.5 47.5t13.5 86.5zM930 542q0 -71 -19.5 -131t-62 -103.5t-109.5 -68.5t-161 -25h-181v-214h-217v1000h215v-134q32 2 65.5 3t63.5 1q84 0 158 -15t129 -52.5
t87 -101t32 -159.5z" />
    <glyph glyph-name="germandbls" unicode="&#xdf;" horiz-adv-x="1063" 
d="M943 300q0 -83 -25.5 -140.5t-71 -93t-107.5 -51t-135 -15.5h-76v160q36 0 70.5 3t62 16.5t44 40.5t16.5 74q0 34 -9.5 62t-33.5 51t-65.5 43t-104.5 37l-24 126q41 36 69 65t45.5 54.5t25 50t7.5 52.5q0 23 -5.5 43t-18 34.5t-33.5 23t-51 8.5q-32 0 -52.5 -9.5
t-32.5 -27t-16.5 -42.5t-4.5 -56v-809h-211v632h-116v170h116v4q0 61 12.5 113.5t47 91.5t95.5 61.5t159 22.5q152 0 225.5 -62t73.5 -183q0 -36 -7 -67.5t-22.5 -60t-39.5 -56t-58 -56.5v-1q58 -24 104.5 -51t79 -62.5t50 -83t17.5 -112.5z" />
    <glyph glyph-name="agrave" unicode="&#xe0;" horiz-adv-x="1000" 
d="M616 404q-43 0 -93.5 -4.5t-94 -20.5t-72.5 -48.5t-29 -87.5q0 -52 26.5 -85.5t81.5 -33.5q50 0 94.5 19.5t86.5 51.5v209zM752 -14q-42 10 -73.5 34.5t-41.5 62.5h-3q-57 -48 -123.5 -74.5t-142.5 -26.5q-57 0 -103 17t-78 49.5t-49.5 78.5t-17.5 103q0 65 22.5 112.5
t61 80.5t89 53t105.5 31.5t111 15t107 3.5v35q0 61 -26.5 87.5t-93.5 26.5q-77 0 -149.5 -22t-138.5 -60l-61 149q90 45 177 68t188 23q87 0 147 -18.5t96.5 -57.5t52.5 -98.5t16 -141.5v-303q0 -38 10.5 -62t45.5 -45zM499 911l-254 147l174 87l203 -168z" />
    <glyph glyph-name="aacute" unicode="&#xe1;" horiz-adv-x="1000" 
d="M616 404q-43 0 -93.5 -4.5t-94 -20.5t-72.5 -48.5t-29 -87.5q0 -52 26.5 -85.5t81.5 -33.5q50 0 94.5 19.5t86.5 51.5v209zM752 -14q-42 10 -73.5 34.5t-41.5 62.5h-3q-57 -48 -123.5 -74.5t-142.5 -26.5q-57 0 -103 17t-78 49.5t-49.5 78.5t-17.5 103q0 65 22.5 112.5
t61 80.5t89 53t105.5 31.5t111 15t107 3.5v35q0 61 -26.5 87.5t-93.5 26.5q-77 0 -149.5 -22t-138.5 -60l-61 149q90 45 177 68t188 23q87 0 147 -18.5t96.5 -57.5t52.5 -98.5t16 -141.5v-303q0 -38 10.5 -62t45.5 -45zM502 913l-123 66l203 166l174 -87z" />
    <glyph glyph-name="acircumflex" unicode="&#xe2;" horiz-adv-x="1000" 
d="M616 404q-43 0 -93.5 -4.5t-94 -20.5t-72.5 -48.5t-29 -87.5q0 -52 26.5 -85.5t81.5 -33.5q50 0 94.5 19.5t86.5 51.5v209zM752 -14q-42 10 -73.5 34.5t-41.5 62.5h-3q-57 -48 -123.5 -74.5t-142.5 -26.5q-57 0 -103 17t-78 49.5t-49.5 78.5t-17.5 103q0 65 22.5 112.5
t61 80.5t89 53t105.5 31.5t111 15t107 3.5v35q0 61 -26.5 87.5t-93.5 26.5q-77 0 -149.5 -22t-138.5 -60l-61 149q90 45 177 68t188 23q87 0 147 -18.5t96.5 -57.5t52.5 -98.5t16 -141.5v-303q0 -38 10.5 -62t45.5 -45zM661 903l-167 92l-167 -95l-73 103l239 141l239 -141z
" />
    <glyph glyph-name="atilde" unicode="&#xe3;" horiz-adv-x="1000" 
d="M616 404q-43 0 -93.5 -4.5t-94 -20.5t-72.5 -48.5t-29 -87.5q0 -52 26.5 -85.5t81.5 -33.5q50 0 94.5 19.5t86.5 51.5v209zM752 -14q-42 10 -73.5 34.5t-41.5 62.5h-3q-57 -48 -123.5 -74.5t-142.5 -26.5q-57 0 -103 17t-78 49.5t-49.5 78.5t-17.5 103q0 65 22.5 112.5
t61 80.5t89 53t105.5 31.5t111 15t107 3.5v35q0 61 -26.5 87.5t-93.5 26.5q-77 0 -149.5 -22t-138.5 -60l-61 149q90 45 177 68t188 23q87 0 147 -18.5t96.5 -57.5t52.5 -98.5t16 -141.5v-303q0 -38 10.5 -62t45.5 -45zM761 1063q-23 -69 -66.5 -106t-97.5 -37
q-34 0 -63.5 11.5t-55.5 24.5t-51 24.5t-47 11.5q-27 0 -46 -17t-33 -58l-97 68q32 76 67.5 109.5t93.5 33.5q31 0 60 -11.5t55.5 -25.5t52.5 -25.5t49 -11.5q52 0 81 74z" />
    <glyph glyph-name="adieresis" unicode="&#xe4;" horiz-adv-x="1000" 
d="M616 404q-43 0 -93.5 -4.5t-94 -20.5t-72.5 -48.5t-29 -87.5q0 -52 26.5 -85.5t81.5 -33.5q50 0 94.5 19.5t86.5 51.5v209zM752 -14q-42 10 -73.5 34.5t-41.5 62.5h-3q-57 -48 -123.5 -74.5t-142.5 -26.5q-57 0 -103 17t-78 49.5t-49.5 78.5t-17.5 103q0 65 22.5 112.5
t61 80.5t89 53t105.5 31.5t111 15t107 3.5v35q0 61 -26.5 87.5t-93.5 26.5q-77 0 -149.5 -22t-138.5 -60l-61 149q90 45 177 68t188 23q87 0 147 -18.5t96.5 -57.5t52.5 -98.5t16 -141.5v-303q0 -38 10.5 -62t45.5 -45zM430 1018q0 -22 -8.5 -41.5t-23 -34t-34.5 -23
t-42 -8.5q-24 0 -43.5 8.5t-34.5 23t-23.5 34t-8.5 41.5q0 24 8.5 43.5t23.5 34.5t34.5 23.5t43.5 8.5q22 0 42 -8.5t34.5 -23.5t23 -34.5t8.5 -43.5zM791 1018q0 -22 -8 -41.5t-23 -34t-34.5 -23t-42.5 -8.5q-22 0 -43 8.5t-35 23t-23 34t-9 41.5q0 24 9 43.5t23 34.5
t35 23.5t43 8.5q23 0 42.5 -8.5t34.5 -23.5t23 -34.5t8 -43.5z" />
    <glyph glyph-name="aring" unicode="&#xe5;" horiz-adv-x="1000" 
d="M616 404q-43 0 -93.5 -4.5t-94 -20.5t-72.5 -48.5t-29 -87.5q0 -52 26.5 -85.5t81.5 -33.5q50 0 94.5 19.5t86.5 51.5v209zM752 -14q-42 10 -73.5 34.5t-41.5 62.5h-3q-57 -48 -123.5 -74.5t-142.5 -26.5q-57 0 -103 17t-78 49.5t-49.5 78.5t-17.5 103q0 65 22.5 112.5
t61 80.5t89 53t105.5 31.5t111 15t107 3.5v35q0 61 -26.5 87.5t-93.5 26.5q-77 0 -149.5 -22t-138.5 -60l-61 149q90 45 177 68t188 23q87 0 147 -18.5t96.5 -57.5t52.5 -98.5t16 -141.5v-303q0 -38 10.5 -62t45.5 -45zM563 1046q0 31 -19.5 51t-48.5 20q-30 0 -50 -20
t-20 -51q0 -30 20 -50t50 -20q29 0 48.5 20t19.5 50zM642 1046q0 -31 -11 -57t-31 -44.5t-47 -28.5t-58 -10q-32 0 -58.5 10.5t-46.5 29t-31 44t-11 56.5q0 32 11 58t31 45t46.5 29t58.5 10q31 0 58 -10t47 -29t31 -45t11 -58z" />
    <glyph glyph-name="ae" unicode="&#xe6;" horiz-adv-x="1523" 
d="M614 402q-152 0 -220.5 -40t-68.5 -122q0 -53 28 -86.5t79 -33.5q24 0 45.5 4t42.5 13.5t44 24t50 35.5v205zM1188 479q-3 42 -13.5 78.5t-31.5 62.5t-53.5 41t-79.5 15q-84 0 -132 -49.5t-50 -147.5h360v0zM1383 402q0 -11 -0.5 -27t-3.5 -40h-549q3 -92 54.5 -139.5
t150.5 -47.5q116 0 227 69l69 -148q-72 -45 -147.5 -66t-159.5 -21q-105 0 -182.5 34t-128.5 97q-63 -62 -144.5 -97.5t-187.5 -35.5q-63 0 -111.5 17.5t-81.5 50.5t-50.5 79t-17.5 103q0 82 35.5 139t100.5 93t156 52.5t202 16.5v24q0 28 -2.5 49.5t-14.5 36t-35.5 22
t-65.5 7.5q-60 0 -135 -19t-153 -62l-64 154q93 47 181.5 69.5t186.5 22.5q81 0 144 -20t101 -67q51 45 116 66.5t137 21.5q87 0 156 -29t117.5 -84.5t74 -136.5t25.5 -184z" />
    <glyph glyph-name="ccedilla" unicode="&#xe7;" horiz-adv-x="921" 
d="M704 -210q0 -31 -10.5 -57.5t-31 -46t-50 -30.5t-68.5 -11q-42 0 -77 11.5t-67 29.5l32 73q21 -14 48 -22t50 -8q10 0 21.5 3t20.5 10t15 18t6 27q0 25 -14 41t-55 16q-8 0 -21 -2t-27 -10l-38 25l60 126q-89 6 -156 39.5t-112 88.5t-67.5 130t-22.5 164q0 95 26.5 174
t78 135.5t127.5 87.5t175 31q83 0 151 -25t133 -76l-90 -143q-43 42 -87.5 60t-98.5 18q-57 0 -95 -21.5t-61.5 -57.5t-33 -82t-9.5 -95q0 -52 11 -99.5t34.5 -84t61.5 -58t92 -21.5q61 0 109.5 16.5t99.5 56.5l67 -146q-62 -43 -121.5 -65t-132.5 -27l-33 -71l2 -2
q9 2 16.5 3t16.5 1q56 0 90.5 -32t34.5 -92z" />
    <glyph glyph-name="egrave" unicode="&#xe8;" horiz-adv-x="1039" 
d="M704 474q0 42 -9 78.5t-28.5 64t-51.5 43t-78 15.5q-84 0 -132.5 -52.5t-48.5 -148.5h348v0zM899 406v-31q0 -14 -2 -37h-541q2 -94 50.5 -144t151.5 -50q63 0 116 17t114 55l68 -149q-76 -45 -150 -65t-159 -20q-98 0 -173.5 30t-127.5 85.5t-79 134t-27 174.5
q0 111 32 191.5t86 133t126 77.5t152 25q90 0 157.5 -31.5t113.5 -87.5t69 -135t23 -173zM530 911l-254 147l174 87l203 -168z" />
    <glyph glyph-name="eacute" unicode="&#xe9;" horiz-adv-x="1039" 
d="M704 474q0 42 -9 78.5t-28.5 64t-51.5 43t-78 15.5q-84 0 -132.5 -52.5t-48.5 -148.5h348v0zM899 406v-31q0 -14 -2 -37h-541q2 -94 50.5 -144t151.5 -50q63 0 116 17t114 55l68 -149q-76 -45 -150 -65t-159 -20q-98 0 -173.5 30t-127.5 85.5t-79 134t-27 174.5
q0 111 32 191.5t86 133t126 77.5t152 25q90 0 157.5 -31.5t113.5 -87.5t69 -135t23 -173zM546 913l-123 66l203 166l174 -87z" />
    <glyph glyph-name="ecircumflex" unicode="&#xea;" horiz-adv-x="1039" 
d="M704 474q0 42 -9 78.5t-28.5 64t-51.5 43t-78 15.5q-84 0 -132.5 -52.5t-48.5 -148.5h348v0zM899 406v-31q0 -14 -2 -37h-541q2 -94 50.5 -144t151.5 -50q63 0 116 17t114 55l68 -149q-76 -45 -150 -65t-159 -20q-98 0 -173.5 30t-127.5 85.5t-79 134t-27 174.5
q0 111 32 191.5t86 133t126 77.5t152 25q90 0 157.5 -31.5t113.5 -87.5t69 -135t23 -173zM699 903l-167 92l-167 -95l-73 103l239 141l239 -141z" />
    <glyph glyph-name="edieresis" unicode="&#xeb;" horiz-adv-x="1039" 
d="M704 474q0 42 -9 78.5t-28.5 64t-51.5 43t-78 15.5q-84 0 -132.5 -52.5t-48.5 -148.5h348v0zM899 406v-31q0 -14 -2 -37h-541q2 -94 50.5 -144t151.5 -50q63 0 116 17t114 55l68 -149q-76 -45 -150 -65t-159 -20q-98 0 -173.5 30t-127.5 85.5t-79 134t-27 174.5
q0 111 32 191.5t86 133t126 77.5t152 25q90 0 157.5 -31.5t113.5 -87.5t69 -135t23 -173zM465 1018q0 -22 -8.5 -41.5t-23 -34t-34.5 -23t-42 -8.5q-24 0 -43.5 8.5t-34.5 23t-23.5 34t-8.5 41.5q0 24 8.5 43.5t23.5 34.5t34.5 23.5t43.5 8.5q22 0 42 -8.5t34.5 -23.5
t23 -34.5t8.5 -43.5zM826 1018q0 -22 -8 -41.5t-23 -34t-34.5 -23t-42.5 -8.5q-22 0 -43 8.5t-35 23t-23 34t-9 41.5q0 24 9 43.5t23 34.5t35 23.5t43 8.5q23 0 42.5 -8.5t34.5 -23.5t23 -34.5t8 -43.5z" />
    <glyph glyph-name="igrave" unicode="&#xec;" horiz-adv-x="556" 
d="M170 0v817h212v-817h-212zM274 911l-254 147l174 87l203 -168z" />
    <glyph glyph-name="iacute" unicode="&#xed;" horiz-adv-x="556" 
d="M170 0v817h212v-817h-212zM291 913l-123 66l203 166l174 -87z" />
    <glyph glyph-name="icircumflex" unicode="&#xee;" horiz-adv-x="556" 
d="M170 0v817h212v-817h-212zM448 903l-167 92l-167 -95l-73 103l239 141l239 -141z" />
    <glyph glyph-name="idieresis" unicode="&#xef;" horiz-adv-x="556" 
d="M170 0v817h212v-817h-212zM206 1018q0 -22 -8.5 -41.5t-23 -34t-34.5 -23t-42 -8.5q-24 0 -43.5 8.5t-34.5 23t-23.5 34t-8.5 41.5q0 24 8.5 43.5t23.5 34.5t34.5 23.5t43.5 8.5q22 0 42 -8.5t34.5 -23.5t23 -34.5t8.5 -43.5zM567 1018q0 -22 -8 -41.5t-23 -34t-34.5 -23
t-42.5 -8.5q-22 0 -43 8.5t-35 23t-23 34t-9 41.5q0 24 9 43.5t23 34.5t35 23.5t43 8.5q23 0 42.5 -8.5t34.5 -23.5t23 -34.5t8 -43.5z" />
    <glyph glyph-name="eth" unicode="&#xf0;" 
d="M516 988l43 -103l68 31q17 -41 31.5 -79.5t25.5 -70.5q-30 32 -72 49.5t-91 17.5q-183 0 -282 -116t-99 -309q0 -197 104 -311.5t294 -114.5q203 1 300.5 122.5t97.5 303.5q-1 139 -35.5 271.5t-121.5 307.5l96 44l-48 103l-100 -47q-11 20 -22.5 41t-23.5 43l-139 -69
q9 -19 19 -39.5t21 -43.5zM720 408q0 -140 -43.5 -201.5t-136.5 -61.5q-92 0 -138 59t-46 204q0 142 45.5 198.5t136.5 56.5q96 0 139 -60.5t43 -194.5z" />
    <glyph glyph-name="ntilde" unicode="&#xf1;" horiz-adv-x="1077" 
d="M686 0v459q0 42 -3.5 78t-17 62.5t-41 41t-74.5 14.5q-82 0 -120.5 -40.5t-38.5 -125.5v-489h-211v817h184l15 -91h3q42 61 100.5 84t132.5 23q82 0 136 -24.5t86.5 -70t46 -110t13.5 -143.5v-485h-211zM821 1063q-23 -69 -66.5 -106t-97.5 -37q-34 0 -63.5 11.5
t-55.5 24.5t-51 24.5t-47 11.5q-27 0 -46 -17t-33 -58l-97 68q32 76 67.5 109.5t93.5 33.5q31 0 60 -11.5t55.5 -25.5t52.5 -25.5t49 -11.5q52 0 81 74z" />
    <glyph glyph-name="ograve" unicode="&#xf2;" 
d="M720 408q0 57 -8 104t-28.5 80.5t-55.5 52t-90 18.5q-54 0 -89.5 -18.5t-56 -52t-28.5 -80.5t-8 -104q0 -60 8.5 -109t29.5 -83t56.5 -52.5t89.5 -18.5q53 0 87.5 18.5t55 52.5t29 83t8.5 109zM936 408q0 -94 -24.5 -172.5t-74 -134.5t-124 -87.5t-175.5 -31.5t-175.5 31
t-124 87.5t-74 134.5t-24.5 173q0 90 23 167.5t71.5 135t124 90t179.5 32.5q99 0 173.5 -30t124.5 -85.5t75 -134t25 -175.5zM519 911l-254 147l174 87l203 -168z" />
    <glyph glyph-name="oacute" unicode="&#xf3;" 
d="M720 408q0 57 -8 104t-28.5 80.5t-55.5 52t-90 18.5q-54 0 -89.5 -18.5t-56 -52t-28.5 -80.5t-8 -104q0 -60 8.5 -109t29.5 -83t56.5 -52.5t89.5 -18.5q53 0 87.5 18.5t55 52.5t29 83t8.5 109zM936 408q0 -94 -24.5 -172.5t-74 -134.5t-124 -87.5t-175.5 -31.5t-175.5 31
t-124 87.5t-74 134.5t-24.5 173q0 90 23 167.5t71.5 135t124 90t179.5 32.5q99 0 173.5 -30t124.5 -85.5t75 -134t25 -175.5zM535 913l-123 66l203 166l174 -87z" />
    <glyph glyph-name="ocircumflex" unicode="&#xf4;" 
d="M720 408q0 57 -8 104t-28.5 80.5t-55.5 52t-90 18.5q-54 0 -89.5 -18.5t-56 -52t-28.5 -80.5t-8 -104q0 -60 8.5 -109t29.5 -83t56.5 -52.5t89.5 -18.5q53 0 87.5 18.5t55 52.5t29 83t8.5 109zM936 408q0 -94 -24.5 -172.5t-74 -134.5t-124 -87.5t-175.5 -31.5t-175.5 31
t-124 87.5t-74 134.5t-24.5 173q0 90 23 167.5t71.5 135t124 90t179.5 32.5q99 0 173.5 -30t124.5 -85.5t75 -134t25 -175.5zM702 903l-167 92l-167 -95l-73 103l239 141l239 -141z" />
    <glyph glyph-name="otilde" unicode="&#xf5;" 
d="M720 408q0 57 -8 104t-28.5 80.5t-55.5 52t-90 18.5q-54 0 -89.5 -18.5t-56 -52t-28.5 -80.5t-8 -104q0 -60 8.5 -109t29.5 -83t56.5 -52.5t89.5 -18.5q53 0 87.5 18.5t55 52.5t29 83t8.5 109zM936 408q0 -94 -24.5 -172.5t-74 -134.5t-124 -87.5t-175.5 -31.5t-175.5 31
t-124 87.5t-74 134.5t-24.5 173q0 90 23 167.5t71.5 135t124 90t179.5 32.5q99 0 173.5 -30t124.5 -85.5t75 -134t25 -175.5zM815 1063q-23 -69 -66.5 -106t-97.5 -37q-34 0 -63.5 11.5t-55.5 24.5t-51 24.5t-47 11.5q-27 0 -46 -17t-33 -58l-97 68q32 76 67.5 109.5
t93.5 33.5q31 0 60 -11.5t55.5 -25.5t52.5 -25.5t49 -11.5q52 0 81 74z" />
    <glyph glyph-name="odieresis" unicode="&#xf6;" 
d="M720 408q0 57 -8 104t-28.5 80.5t-55.5 52t-90 18.5q-54 0 -89.5 -18.5t-56 -52t-28.5 -80.5t-8 -104q0 -60 8.5 -109t29.5 -83t56.5 -52.5t89.5 -18.5q53 0 87.5 18.5t55 52.5t29 83t8.5 109zM936 408q0 -94 -24.5 -172.5t-74 -134.5t-124 -87.5t-175.5 -31.5t-175.5 31
t-124 87.5t-74 134.5t-24.5 173q0 90 23 167.5t71.5 135t124 90t179.5 32.5q99 0 173.5 -30t124.5 -85.5t75 -134t25 -175.5zM468 1019q0 -22 -8.5 -41.5t-23 -34t-34.5 -23t-42 -8.5q-24 0 -43.5 8.5t-34.5 23t-23.5 34t-8.5 41.5q0 24 8.5 43.5t23.5 34.5t34.5 23.5
t43.5 8.5q22 0 42 -8.5t34.5 -23.5t23 -34.5t8.5 -43.5zM829 1019q0 -22 -8 -41.5t-23 -34t-34.5 -23t-42.5 -8.5q-22 0 -43 8.5t-35 23t-23 34t-9 41.5q0 24 9 43.5t23 34.5t35 23.5t43 8.5q23 0 42.5 -8.5t34.5 -23.5t23 -34.5t8 -43.5z" />
    <glyph glyph-name="oslash" unicode="&#xf8;" 
d="M720 408q0 30 -2.5 66t-10.5 61l-296 -341q22 -25 55.5 -37t71.5 -12q53 0 88 18.5t56 52.5t29.5 83t8.5 109zM647 634q-18 17 -50.5 23t-59.5 6q-54 0 -89.5 -18.5t-55.5 -52t-28 -80.5t-8 -104q0 -22 1.5 -51.5t7.5 -51.5l282 329v0zM858 689q41 -53 59.5 -126.5
t18.5 -154.5q0 -94 -24.5 -172.5t-74 -134.5t-124.5 -87.5t-176 -31.5q-73 0 -133.5 17t-110.5 54l-80 -90l-91 93l81 92q-33 53 -48 119.5t-15 140.5q0 90 23 168t71.5 135.5t123.5 90.5t179 33q65 0 120 -14t100 -43l85 92l100 -87z" />
    <glyph glyph-name="ugrave" unicode="&#xf9;" horiz-adv-x="1064" 
d="M695 0l-13 88h-3q-35 -51 -90.5 -79.5t-136.5 -28.5q-67 0 -117.5 16.5t-85 54t-52 99.5t-17.5 152v515h211v-443q0 -48 2.5 -88t15.5 -68.5t40 -44.5t75 -16q45 0 74 11.5t45.5 34t23 55t6.5 74.5v485h211v-817h-189zM534 911l-254 147l174 87l203 -168z" />
    <glyph glyph-name="uacute" unicode="&#xfa;" horiz-adv-x="1064" 
d="M695 0l-13 88h-3q-35 -51 -90.5 -79.5t-136.5 -28.5q-67 0 -117.5 16.5t-85 54t-52 99.5t-17.5 152v515h211v-443q0 -48 2.5 -88t15.5 -68.5t40 -44.5t75 -16q45 0 74 11.5t45.5 34t23 55t6.5 74.5v485h211v-817h-189zM536 913l-123 66l203 166l174 -87z" />
    <glyph glyph-name="ucircumflex" unicode="&#xfb;" horiz-adv-x="1064" 
d="M695 0l-13 88h-3q-35 -51 -90.5 -79.5t-136.5 -28.5q-67 0 -117.5 16.5t-85 54t-52 99.5t-17.5 152v515h211v-443q0 -48 2.5 -88t15.5 -68.5t40 -44.5t75 -16q45 0 74 11.5t45.5 34t23 55t6.5 74.5v485h211v-817h-189zM710 903l-167 92l-167 -95l-73 103l239 141
l239 -141z" />
    <glyph glyph-name="udieresis" unicode="&#xfc;" horiz-adv-x="1064" 
d="M695 0l-13 88h-3q-35 -51 -90.5 -79.5t-136.5 -28.5q-67 0 -117.5 16.5t-85 54t-52 99.5t-17.5 152v515h211v-443q0 -48 2.5 -88t15.5 -68.5t40 -44.5t75 -16q45 0 74 11.5t45.5 34t23 55t6.5 74.5v485h211v-817h-189zM461 1018q0 -22 -8.5 -41.5t-23 -34t-34.5 -23
t-42 -8.5q-24 0 -43.5 8.5t-34.5 23t-23.5 34t-8.5 41.5q0 24 8.5 43.5t23.5 34.5t34.5 23.5t43.5 8.5q22 0 42 -8.5t34.5 -23.5t23 -34.5t8.5 -43.5zM822 1018q0 -22 -8 -41.5t-23 -34t-34.5 -23t-42.5 -8.5q-22 0 -43 8.5t-35 23t-23 34t-9 41.5q0 24 9 43.5t23 34.5
t35 23.5t43 8.5q23 0 42.5 -8.5t34.5 -23.5t23 -34.5t8 -43.5z" />
    <glyph glyph-name="yacute" unicode="&#xfd;" horiz-adv-x="961" 
d="M592 0q-34 -90 -63 -151t-64.5 -98.5t-83 -53.5t-117.5 -16q-26 0 -52.5 1.5t-66.5 6.5v176q13 -2 35 -3.5t51 -1.5q30 0 50.5 4.5t34.5 16.5t24.5 32t21.5 50l17 46l-299 808h225l184 -582h4l173 582h225zM508 913l-123 66l203 166l174 -87z" />
    <glyph glyph-name="thorn" unicode="&#xfe;" horiz-adv-x="1068" 
d="M712 411q0 47 -4.5 93.5t-21.5 83t-50.5 59.5t-91.5 23q-75 0 -115.5 -38.5t-37.5 -114.5v-189q0 -41 6 -75t24 -59.5t47.5 -39.5t73.5 -14q56 0 89.5 26t51.5 65.5t23.5 87.5t5.5 92zM928 415q0 -81 -18 -159t-57.5 -139t-104 -98t-157.5 -37q-34 0 -61.5 5t-51.5 16.5
t-44.5 30t-39.5 46.5h-3v-388h-211v1393h211v-338h2q29 39 80 62.5t123 23.5q91 0 154.5 -35.5t103 -94t57 -133.5t17.5 -155z" />
    <glyph glyph-name="ydieresis" unicode="&#xff;" horiz-adv-x="961" 
d="M592 0q-34 -90 -63 -151t-64.5 -98.5t-83 -53.5t-117.5 -16q-26 0 -52.5 1.5t-66.5 6.5v176q13 -2 35 -3.5t51 -1.5q30 0 50.5 4.5t34.5 16.5t24.5 32t21.5 50l17 46l-299 808h225l184 -582h4l173 582h225zM425 1018q0 -22 -8.5 -41.5t-23 -34t-34.5 -23t-42 -8.5
q-24 0 -43.5 8.5t-34.5 23t-23.5 34t-8.5 41.5q0 24 8.5 43.5t23.5 34.5t34.5 23.5t43.5 8.5q22 0 42 -8.5t34.5 -23.5t23 -34.5t8.5 -43.5zM786 1018q0 -22 -8 -41.5t-23 -34t-34.5 -23t-42.5 -8.5q-22 0 -43 8.5t-35 23t-23 34t-9 41.5q0 24 9 43.5t23 34.5t35 23.5
t43 8.5q23 0 42.5 -8.5t34.5 -23.5t23 -34.5t8 -43.5z" />
    <glyph glyph-name="Amacron" unicode="&#x100;" horiz-adv-x="1132" 
d="M563 794h-5l-130 -405h268zM820 0l-75 213h-364l-77 -213h-224l361 1004h241l370 -1004h-232zM314 1136v146h496v-146h-496z" />
    <glyph glyph-name="amacron" unicode="&#x101;" horiz-adv-x="1000" 
d="M616 404q-43 0 -93.5 -4.5t-94 -20.5t-72.5 -48.5t-29 -87.5q0 -52 26.5 -85.5t81.5 -33.5q50 0 94.5 19.5t86.5 51.5v209zM752 -14q-42 10 -73.5 34.5t-41.5 62.5h-3q-57 -48 -123.5 -74.5t-142.5 -26.5q-57 0 -103 17t-78 49.5t-49.5 78.5t-17.5 103q0 65 22.5 112.5
t61 80.5t89 53t105.5 31.5t111 15t107 3.5v35q0 61 -26.5 87.5t-93.5 26.5q-77 0 -149.5 -22t-138.5 -60l-61 149q90 45 177 68t188 23q87 0 147 -18.5t96.5 -57.5t52.5 -98.5t16 -141.5v-303q0 -38 10.5 -62t45.5 -45zM246 956v146h496v-146h-496z" />
    <glyph glyph-name="Abreve" unicode="&#x102;" horiz-adv-x="1132" 
d="M563 794h-5l-130 -405h268zM820 0l-75 213h-364l-77 -213h-224l361 1004h241l370 -1004h-232zM803 1308q-3 -63 -29.5 -103.5t-63.5 -64t-77.5 -32t-71.5 -8.5q-33 0 -73 8.5t-75.5 31t-60.5 63t-29 105.5h130q1 -14 6 -29.5t17.5 -28.5t33 -21.5t51.5 -8.5q30 0 51 8.5
t34 21t19 28t7 30.5h131v0z" />
    <glyph glyph-name="abreve" unicode="&#x103;" horiz-adv-x="1000" 
d="M616 404q-43 0 -93.5 -4.5t-94 -20.5t-72.5 -48.5t-29 -87.5q0 -52 26.5 -85.5t81.5 -33.5q50 0 94.5 19.5t86.5 51.5v209zM752 -14q-42 10 -73.5 34.5t-41.5 62.5h-3q-57 -48 -123.5 -74.5t-142.5 -26.5q-57 0 -103 17t-78 49.5t-49.5 78.5t-17.5 103q0 65 22.5 112.5
t61 80.5t89 53t105.5 31.5t111 15t107 3.5v35q0 61 -26.5 87.5t-93.5 26.5q-77 0 -149.5 -22t-138.5 -60l-61 149q90 45 177 68t188 23q87 0 147 -18.5t96.5 -57.5t52.5 -98.5t16 -141.5v-303q0 -38 10.5 -62t45.5 -45zM720 1118q-3 -63 -29.5 -103.5t-63.5 -64t-77.5 -32
t-71.5 -8.5q-33 0 -73 8.5t-75.5 31t-60.5 63t-29 105.5h130q1 -14 6 -29.5t17.5 -28.5t33 -21.5t51.5 -8.5q30 0 51 8.5t34 21t19 28t7 30.5h131v0z" />
    <glyph glyph-name="Aogonek" unicode="&#x104;" horiz-adv-x="1132" 
d="M563 794h-5l-130 -405h268zM1028 -297q-23 -16 -57.5 -30.5t-87.5 -14.5q-44 0 -75.5 13t-51.5 35t-30 51.5t-10 62.5q0 34 12 63.5t28.5 53t34 39.5t29.5 24l-75 213h-364l-77 -213h-224l361 1004h241l370 -1004h-105q-21 -15 -39 -30.5t-30.5 -33.5t-20 -40t-7.5 -49
q0 -33 14 -55t49 -22q19 0 34 6.5t34 19.5l47 -93v0z" />
    <glyph glyph-name="aogonek" unicode="&#x105;" horiz-adv-x="1000" 
d="M616 404q-43 0 -93.5 -4.5t-94 -20.5t-72.5 -48.5t-29 -87.5q0 -52 27 -85.5t81 -33.5q50 0 94.5 19.5t86.5 51.5v209zM850 -297q-23 -16 -57.5 -30.5t-87.5 -14.5q-44 0 -75.5 13t-52 35t-30 51.5t-9.5 62.5q0 35 13 65.5t33.5 56t45.5 45.5t49 34q-13 11 -25 28t-16 34
h-3q-57 -48 -124 -74.5t-142 -26.5q-57 0 -103 17t-78.5 49.5t-50 78.5t-17.5 103q0 65 22.5 112.5t61 80.5t89 53t105.5 31.5t111 15t107 3.5v35q0 61 -26.5 87.5t-92.5 26.5q-77 0 -150 -22t-138 -60l-62 149q90 45 177.5 68t188.5 23q87 0 146.5 -18.5t96.5 -57.5
t53 -98.5t16 -141.5v-303q0 -19 2 -34t8 -28t16.5 -24t28.5 -21q-66 -60 -107 -100.5t-63.5 -69t-30 -49t-7.5 -41.5q0 -33 14.5 -55t48.5 -22q19 0 34.5 6.5t33.5 19.5l47 -93v0z" />
    <glyph glyph-name="Cacute" unicode="&#x106;" horiz-adv-x="1066" 
d="M976 140q-157 -157 -362 -157q-124 0 -213.5 38.5t-147.5 108t-85.5 165.5t-27.5 210q0 111 30.5 205t90 162t147.5 106t203 38q108 0 194.5 -40t166.5 -122l-131 -144q-51 62 -104 92.5t-120 30.5q-126 0 -188 -84.5t-62 -244.5q0 -73 13.5 -135t43.5 -107.5t77.5 -71.5
t115.5 -26q71 0 129 31.5t115 91.5l115 -147v0zM611 1103l-123 66l203 166l174 -87z" />
    <glyph glyph-name="cacute" unicode="&#x107;" horiz-adv-x="921" 
d="M741 589q-43 42 -87.5 60t-98.5 18q-57 0 -95 -21.5t-61.5 -57.5t-33 -82t-9.5 -95q0 -52 11 -99.5t34.5 -84t61.5 -58t92 -21.5q61 0 109.5 16.5t99.5 56.5l67 -146q-35 -24 -69 -42t-69 -29t-73.5 -16.5t-81.5 -5.5q-98 0 -172.5 30.5t-124.5 86.5t-75.5 133.5
t-25.5 172.5t26.5 174t78 135.5t127.5 87.5t175 31q83 0 151 -25t133 -76zM528 913l-123 66l203 166l174 -87z" />
    <glyph glyph-name="Ccaron" unicode="&#x10c;" horiz-adv-x="1066" 
d="M976 140q-157 -157 -362 -157q-124 0 -213.5 38.5t-147.5 108t-85.5 165.5t-27.5 210q0 111 30.5 205t90 162t147.5 106t203 38q108 0 194.5 -40t166.5 -122l-131 -144q-51 62 -104 92.5t-120 30.5q-126 0 -188 -84.5t-62 -244.5q0 -73 13.5 -135t43.5 -107.5t77.5 -71.5
t115.5 -26q71 0 129 31.5t115 91.5l115 -147v0zM840 1231l-239 -141l-239 141l73 103l167 -95l167 93z" />
    <glyph glyph-name="ccaron" unicode="&#x10d;" horiz-adv-x="921" 
d="M741 589q-43 42 -87.5 60t-98.5 18q-57 0 -95 -21.5t-61.5 -57.5t-33 -82t-9.5 -95q0 -52 11 -99.5t34.5 -84t61.5 -58t92 -21.5q61 0 109.5 16.5t99.5 56.5l67 -146q-35 -24 -69 -42t-69 -29t-73.5 -16.5t-81.5 -5.5q-98 0 -172.5 30.5t-124.5 86.5t-75.5 133.5
t-25.5 172.5t26.5 174t78 135.5t127.5 87.5t175 31q83 0 151 -25t133 -76zM767 1041l-239 -141l-239 141l73 103l167 -95l167 93z" />
    <glyph glyph-name="Dcaron" unicode="&#x10e;" horiz-adv-x="1150" 
d="M783 506q0 60 -9 119.5t-37 106.5t-78.5 76t-133.5 29q-31 0 -64 -1t-64 -3v-662q31 -1 51 -1h48q69 0 122 15.5t90 54t56 103.5t19 163zM1010 505q0 -127 -33 -221.5t-97 -157.5t-156.5 -94.5t-211.5 -31.5h-332v993q36 4 78 7t85.5 5t87.5 3.5t84 1.5q112 0 203.5 -30
t156.5 -92t100 -157t35 -226zM750 1231l-239 -141l-239 141l73 103l167 -95l167 93z" />
    <glyph glyph-name="dcaron" unicode="&#x10f;" horiz-adv-x="1068" 
d="M1142 850h-130l57 235h204zM680 515q0 81 -41.5 117.5t-114.5 36.5q-57 0 -90 -21.5t-50.5 -57.5t-22.5 -82.5t-5 -96.5q0 -48 6 -96t24 -87t51 -63.5t88 -24.5q45 0 74.5 14.5t47.5 40t25.5 60t7.5 75.5v185zM710 0l-14 99h-6q-38 -60 -94 -88.5t-125 -28.5
q-90 0 -153 37.5t-102.5 98.5t-57.5 138.5t-18 158.5q0 83 18.5 159t58.5 133.5t102.5 91.5t151.5 34q62 0 115 -21.5t88 -72.5h3v346h211v-1085h-178z" />
    <glyph glyph-name="Dcroat" unicode="&#x110;" horiz-adv-x="1150" 
d="M397 432v-261q31 -1 51 -1h48q69 0 122 15.5t90 54t56 103.5t19 163q0 60 -9 119.5t-37 106.5t-78.5 76t-133.5 29q-31 0 -64 -1t-64 -3v-241h172v-160h-172zM1010 505q0 -127 -33 -221.5t-97 -157.5t-156.5 -94.5t-211.5 -31.5h-332v432h-102v160h102v401q36 4 78 7
t85.5 5t87.5 3.5t84 1.5q112 0 203.5 -30t156.5 -92t100 -157t35 -226z" />
    <glyph glyph-name="dcroat" unicode="&#x111;" horiz-adv-x="1068" 
d="M680 515q0 81 -41.5 117.5t-114.5 36.5q-57 0 -90 -21.5t-50.5 -57.5t-22.5 -82.5t-5 -96.5q0 -48 6 -96t24 -87t51 -63.5t88 -24.5q45 0 74.5 14.5t47.5 40t25.5 60t7.5 75.5v185zM710 0l-14 99h-6q-38 -60 -94 -88.5t-125 -28.5q-90 0 -153 37.5t-102.5 98.5
t-57.5 138.5t-18 158.5q0 83 18.5 159t58.5 133.5t102.5 91.5t151.5 34q62 0 115 -21.5t88 -72.5h3v127h-90v134h90v85h211v-85h101v-134h-101v-866h-178z" />
    <glyph glyph-name="Emacron" unicode="&#x112;" horiz-adv-x="970" 
d="M180 0v1000h646v-181h-429v-215h388v-183h-388v-243h443v-178h-660zM256 1121v146h496v-146h-496z" />
    <glyph glyph-name="emacron" unicode="&#x113;" horiz-adv-x="1039" 
d="M704 474q0 42 -9 78.5t-28.5 64t-51.5 43t-78 15.5q-84 0 -132.5 -52.5t-48.5 -148.5h348v0zM899 406v-31q0 -14 -2 -37h-541q2 -94 50.5 -144t151.5 -50q63 0 116 17t114 55l68 -149q-76 -45 -150 -65t-159 -20q-98 0 -173.5 30t-127.5 85.5t-79 134t-27 174.5
q0 111 32 191.5t86 133t126 77.5t152 25q90 0 157.5 -31.5t113.5 -87.5t69 -135t23 -173zM287 956v146h496v-146h-496z" />
    <glyph glyph-name="Ebreve" unicode="&#x114;" horiz-adv-x="970" 
d="M180 0v1000h646v-181h-429v-215h388v-183h-388v-243h443v-178h-660zM737 1298q-3 -63 -29.5 -103.5t-63.5 -64t-77.5 -32t-71.5 -8.5q-33 0 -73 8.5t-75.5 31t-60.5 63t-29 105.5h130q1 -14 6 -29.5t17.5 -28.5t33 -21.5t51.5 -8.5q30 0 51 8.5t34 21t19 28t7 30.5h131v0
z" />
    <glyph glyph-name="ebreve" unicode="&#x115;" horiz-adv-x="1039" 
d="M704 474q0 42 -9 78.5t-28.5 64t-51.5 43t-78 15.5q-84 0 -132.5 -52.5t-48.5 -148.5h348v0zM899 406v-31q0 -14 -2 -37h-541q2 -94 50.5 -144t151.5 -50q63 0 116 17t114 55l68 -149q-76 -45 -150 -65t-159 -20q-98 0 -173.5 30t-127.5 85.5t-79 134t-27 174.5
q0 111 32 191.5t86 133t126 77.5t152 25q90 0 157.5 -31.5t113.5 -87.5t69 -135t23 -173zM766 1118q-3 -63 -29.5 -103.5t-63.5 -64t-77.5 -32t-71.5 -8.5q-33 0 -73 8.5t-75.5 31t-60.5 63t-29 105.5h130q1 -14 6 -29.5t17.5 -28.5t33 -21.5t51.5 -8.5q30 0 51 8.5t34 21
t19 28t7 30.5h131v0z" />
    <glyph glyph-name="Edotaccent" unicode="&#x116;" horiz-adv-x="970" 
d="M180 0v1000h646v-181h-429v-215h388v-183h-388v-243h443v-178h-660zM623 1199q0 -50 -34.5 -79.5t-93.5 -29.5q-60 0 -94.5 29.5t-34.5 79.5t34.5 79.5t94.5 29.5t94 -29.5t34 -79.5z" />
    <glyph glyph-name="edotaccent" unicode="&#x117;" horiz-adv-x="1039" 
d="M704 474q0 42 -9 78.5t-28.5 64t-51.5 43t-78 15.5q-84 0 -132.5 -52.5t-48.5 -148.5h348v0zM899 406v-31q0 -14 -2 -37h-541q2 -94 50.5 -144t151.5 -50q63 0 116 17t114 55l68 -149q-76 -45 -150 -65t-159 -20q-98 0 -173.5 30t-127.5 85.5t-79 134t-27 174.5
q0 111 32 191.5t86 133t126 77.5t152 25q90 0 157.5 -31.5t113.5 -87.5t69 -135t23 -173zM659 1019q0 -50 -34.5 -79.5t-93.5 -29.5q-60 0 -94.5 29.5t-34.5 79.5t34.5 79.5t94.5 29.5t94 -29.5t34 -79.5z" />
    <glyph glyph-name="Eogonek" unicode="&#x118;" horiz-adv-x="970" 
d="M833 -297q-23 -16 -57 -30.5t-88 -14.5q-42 0 -73.5 12t-53.5 33.5t-33 51t-11 65.5q0 35 12 64.5t29 52.5t35.5 39t31.5 24h-445v1000h646v-181h-429v-215h388v-183h-388v-243h443v-178h-88q-43 -32 -70 -69t-27 -84q0 -33 14.5 -55t48.5 -22q19 0 34.5 6.5t33.5 19.5
l47 -93v0z" />
    <glyph glyph-name="eogonek" unicode="&#x119;" horiz-adv-x="1039" 
d="M704 474q0 42 -9 78.5t-28.5 64t-51.5 43t-78 15.5q-84 0 -133.5 -52.5t-49.5 -148.5h350v0zM780 -297q-23 -16 -57.5 -30.5t-88.5 -14.5q-44 0 -75.5 13t-51.5 35t-29.5 51.5t-9.5 62.5q0 29 7.5 53.5t18.5 45t25 36.5t27 27q-97 0 -172.5 30t-127.5 85.5t-79 134
t-27 174.5q0 111 32 191.5t86 133t126 77.5t152 25q90 0 157.5 -31.5t113.5 -87.5t69 -135t23 -173v-31q0 -14 -2 -37h-543q2 -94 51.5 -144t152.5 -50q63 0 116 17t114 55l68 -149q-39 -23 -78.5 -40t-79.5 -27q-42 -32 -69.5 -69t-27.5 -84q0 -33 15 -55t48 -22
q20 0 35 6.5t35 19.5l46 -93v0z" />
    <glyph glyph-name="Ecaron" unicode="&#x11a;" horiz-adv-x="970" 
d="M180 0v1000h646v-181h-429v-215h388v-183h-388v-243h443v-178h-660zM744 1221l-239 -141l-239 141l73 103l167 -95l167 93z" />
    <glyph glyph-name="ecaron" unicode="&#x11b;" horiz-adv-x="1039" 
d="M704 474q0 42 -9 78.5t-28.5 64t-51.5 43t-78 15.5q-84 0 -132.5 -52.5t-48.5 -148.5h348v0zM899 406v-31q0 -14 -2 -37h-541q2 -94 50.5 -144t151.5 -50q63 0 116 17t114 55l68 -149q-76 -45 -150 -65t-159 -20q-98 0 -173.5 30t-127.5 85.5t-79 134t-27 174.5
q0 111 32 191.5t86 133t126 77.5t152 25q90 0 157.5 -31.5t113.5 -87.5t69 -135t23 -173zM770 1041l-239 -141l-239 141l73 103l167 -95l167 93z" />
    <glyph glyph-name="Gbreve" unicode="&#x11e;" horiz-adv-x="1167" 
d="M1027 451q0 -108 -22.5 -194t-72 -146t-128.5 -92.5t-193 -32.5q-104 0 -191 33.5t-149 98.5t-96.5 160.5t-34.5 219.5q0 126 35.5 222.5t98.5 162t149.5 99.5t187.5 34q64 0 116 -13t94.5 -34t77.5 -47.5t64 -54.5l-129 -144q-51 55 -102 82.5t-114 27.5
q-69 0 -116.5 -24.5t-77.5 -68.5t-43.5 -105.5t-13.5 -135.5q0 -73 12 -136.5t40.5 -111t77 -74.5t120.5 -27q105 0 159.5 59.5t54.5 175.5h-220v177h416v-111v0zM845 1308q-3 -63 -29.5 -103.5t-63.5 -64t-77.5 -32t-71.5 -8.5q-33 0 -73 8.5t-75.5 31t-60.5 63t-29 105.5
h130q1 -14 6 -29.5t17.5 -28.5t33 -21.5t51.5 -8.5q30 0 51 8.5t34 21t19 28t7 30.5h131v0z" />
    <glyph glyph-name="gbreve" unicode="&#x11f;" horiz-adv-x="1071" 
d="M680 509q0 78 -40 119t-118 41q-53 0 -85.5 -20t-50.5 -53t-24 -77t-6 -92q0 -44 6.5 -87t24.5 -77t50.5 -55t84.5 -21q47 0 77.5 15.5t48.5 42.5t25 63t7 77v124zM891 23q0 -93 -19.5 -158t-62.5 -106t-111 -59.5t-164 -18.5q-94 0 -177.5 21.5t-164.5 63.5l61 162
q68 -39 133.5 -59t144.5 -20q40 0 68 6.5t46 23t26.5 44.5t8.5 71v133h-3q-41 -55 -89.5 -77.5t-116.5 -22.5q-87 0 -149.5 30t-103 82.5t-59.5 125t-19 157.5q0 82 17 156.5t56 131t102 90t155 33.5q72 0 127 -24t93 -86h3l14 94h184v-794v0zM756 1118q-3 -63 -29.5 -103.5
t-63.5 -64t-77.5 -32t-71.5 -8.5q-33 0 -73 8.5t-75.5 31t-60.5 63t-29 105.5h130q1 -14 6 -29.5t17.5 -28.5t33 -21.5t51.5 -8.5q30 0 51 8.5t34 21t19 28t7 30.5h131v0z" />
    <glyph glyph-name="Gcommaaccent" unicode="&#x122;" horiz-adv-x="1167" 
d="M1027 451q0 -108 -22.5 -194t-72 -146t-128.5 -92.5t-193 -32.5q-104 0 -191 33.5t-149 98.5t-96.5 160.5t-34.5 219.5q0 126 35.5 222.5t98.5 162t149.5 99.5t187.5 34q64 0 116 -13t94.5 -34t77.5 -47.5t64 -54.5l-129 -144q-51 55 -102 82.5t-114 27.5
q-69 0 -116.5 -24.5t-77.5 -68.5t-43.5 -105.5t-13.5 -135.5q0 -73 12 -136.5t40.5 -111t77 -74.5t120.5 -27q105 0 159.5 59.5t54.5 175.5h-220v177h416v-111v0zM606 -363h-135l59 254h211z" />
    <glyph glyph-name="gcommaaccent" unicode="&#x123;" horiz-adv-x="1071" 
d="M680 509q0 78 -40 119t-118 41q-53 0 -85.5 -20t-50.5 -53t-24 -77t-6 -92q0 -44 6.5 -87t24.5 -77t50.5 -55t84.5 -21q47 0 77.5 15.5t48.5 42.5t25 63t7 77v124zM891 23q0 -93 -19.5 -158t-62.5 -106t-111 -59.5t-164 -18.5q-94 0 -177.5 21.5t-164.5 63.5l61 162
q68 -39 133.5 -59t144.5 -20q40 0 68 6.5t46 23t26.5 44.5t8.5 71v133h-3q-41 -55 -89.5 -77.5t-116.5 -22.5q-87 0 -149.5 30t-103 82.5t-59.5 125t-19 157.5q0 82 17 156.5t56 131t102 90t155 33.5q72 0 127 -24t93 -86h3l14 94h184v-794v0zM543 1158h131l-58 -235h-203z
" />
    <glyph glyph-name="Imacron" unicode="&#x12a;" horiz-adv-x="577" 
d="M180 0v1000h217v-1000h-217zM46 1121v146h496v-146h-496z" />
    <glyph glyph-name="imacron" unicode="&#x12b;" horiz-adv-x="556" 
d="M170 0v817h212v-817h-212zM27 945v146h496v-146h-496z" />
    <glyph glyph-name="Ibreve" unicode="&#x12c;" horiz-adv-x="577" 
d="M180 0v1000h217v-1000h-217zM525 1298q-3 -63 -29.5 -103.5t-63.5 -64t-77.5 -32t-71.5 -8.5q-33 0 -73 8.5t-75.5 31t-60.5 63t-29 105.5h130q1 -14 6 -29.5t17.5 -28.5t33 -21.5t51.5 -8.5q30 0 51 8.5t34 21t19 28t7 30.5h131v0z" />
    <glyph glyph-name="ibreve" unicode="&#x12d;" horiz-adv-x="556" 
d="M173 0v817h212v-817h-212zM522 1118q-3 -63 -29.5 -103.5t-63.5 -64t-77.5 -32t-71.5 -8.5q-33 0 -73 8.5t-75.5 31t-60.5 63t-29 105.5h130q1 -14 6 -29.5t17.5 -28.5t33 -21.5t51.5 -8.5q30 0 51 8.5t34 21t19 28t7 30.5h131v0z" />
    <glyph glyph-name="Iogonek" unicode="&#x12e;" horiz-adv-x="577" 
d="M441 -297q-23 -16 -57.5 -30.5t-87.5 -14.5q-44 0 -75.5 13t-52 35t-30 51.5t-9.5 62.5q0 35 11 64.5t27.5 52.5t34 39t31.5 24h-53v1000h217v-1000h-37q-43 -32 -72.5 -69t-29.5 -84q0 -33 16.5 -55t50.5 -22q20 0 35 6t34 20z" />
    <glyph glyph-name="iogonek" unicode="&#x12f;" horiz-adv-x="556" 
d="M426 -297q-23 -16 -57.5 -30.5t-87.5 -14.5q-84 -1 -125.5 46.5t-41.5 115.5q0 35 11 64.5t27.5 52.5t34 39t31.5 24h-45v817h212v-817h-40q-43 -32 -70 -69t-27 -84q0 -33 14 -55t48 -22q20 0 34.5 6t34.5 20zM406 1019q0 -50 -34 -79.5t-94 -29.5q-59 0 -93.5 29.5
t-34.5 79.5t34.5 79.5t93.5 29.5q60 0 94 -29.5t34 -79.5z" />
    <glyph glyph-name="Idotaccent" unicode="&#x130;" horiz-adv-x="577" 
d="M180 0v1000h217v-1000h-217zM416 1199q0 -50 -34.5 -79.5t-93.5 -29.5q-60 0 -94.5 29.5t-34.5 79.5t34.5 79.5t94.5 29.5t94 -29.5t34 -79.5z" />
    <glyph glyph-name="dotlessi" unicode="&#x131;" horiz-adv-x="556" 
d="M173 0v817h212v-817h-212z" />
    <glyph glyph-name="Kcommaaccent" unicode="&#x136;" 
d="M740 0l-269 414l-75 -86l1 -328h-217v1000h217l-1 -417h5l293 417h268l-334 -439l368 -561h-256zM509 -363h-135l59 254h211z" />
    <glyph glyph-name="kcommaaccent" unicode="&#x137;" horiz-adv-x="999" 
d="M673 0l-198 351l-84 -94v-257h-211v1085h211v-593h4l254 325h254l-277 -336l293 -481h-246zM503 -363h-135l59 254h211z" />
    <glyph glyph-name="Lacute" unicode="&#x139;" horiz-adv-x="910" 
d="M180 0v1000h217v-817h393v-183h-610zM294 1093l-123 66l203 166l174 -87z" />
    <glyph glyph-name="lacute" unicode="&#x13a;" horiz-adv-x="630" 
d="M520 0q-29 -5 -67 -7.5t-79 -2.5q-55 0 -92 10t-59.5 31.5t-32.5 57t-10 86.5v910h211v-858q0 -21 3 -33.5t10.5 -18.5t20.5 -8t32 -2h63v-165v0zM281 1157l-123 66l203 166l174 -87z" />
    <glyph glyph-name="Lcommaaccent" unicode="&#x13b;" horiz-adv-x="910" 
d="M180 0v1000h217v-817h393v-183h-610zM470 -363h-135l59 254h211z" />
    <glyph glyph-name="lcommaaccent" unicode="&#x13c;" horiz-adv-x="630" 
d="M520 0q-29 -5 -67 -7.5t-79 -2.5q-55 0 -92 10t-59.5 31.5t-32.5 57t-10 86.5v910h211v-858q0 -21 3 -33.5t10.5 -18.5t20.5 -8t32 -2h63v-165v0zM341 -363h-135l59 254h211z" />
    <glyph glyph-name="Lcaron" unicode="&#x13d;" horiz-adv-x="910" 
d="M180 0v1000h217v-817h393v-183h-610zM703 854h-131l57 235h204z" />
    <glyph glyph-name="lcaron" unicode="&#x13e;" horiz-adv-x="630" 
d="M520 0q-29 -5 -67 -7.5t-79 -2.5q-55 0 -92 10t-59.5 31.5t-32.5 57t-10 86.5v910h211v-858q0 -21 3 -33.5t10.5 -18.5t20.5 -8t32 -2h63v-165v0zM672 854h-131l57 235h204z" />
    <glyph glyph-name="Lslash" unicode="&#x141;" horiz-adv-x="910" 
d="M180 0v402l-93 -58v175l93 57v424h217v-291l234 150v-184l-234 -150v-342h393v-183h-610z" />
    <glyph glyph-name="lslash" unicode="&#x142;" horiz-adv-x="630" 
d="M61 513l119 78v494h211v-375l168 110v-179l-168 -110v-304q0 -21 3 -33.5t10.5 -18.5t20.5 -8t32 -2h63v-165q-29 -5 -67 -7.5t-79 -2.5q-55 0 -92 10t-59.5 31.5t-32.5 57t-10 86.5v237l-119 -78v179z" />
    <glyph glyph-name="Nacute" unicode="&#x143;" horiz-adv-x="1208" 
d="M827 0l-432 631h-3v-631h-212v1000h206l427 -609h3v609h212v-1000h-201zM616 1093l-123 66l203 166l174 -87z" />
    <glyph glyph-name="nacute" unicode="&#x144;" horiz-adv-x="1077" 
d="M686 0v459q0 42 -3.5 78t-17 62.5t-41 41t-74.5 14.5q-82 0 -120.5 -40.5t-38.5 -125.5v-489h-211v817h184l15 -91h3q42 61 100.5 84t132.5 23q82 0 136 -24.5t86.5 -70t46 -110t13.5 -143.5v-485h-211zM575 913l-123 66l203 166l174 -87z" />
    <glyph glyph-name="Ncommaaccent" unicode="&#x145;" horiz-adv-x="1208" 
d="M827 0l-432 631h-3v-631h-212v1000h206l427 -609h3v609h212v-1000h-201zM582 -363h-135l59 254h211z" />
    <glyph glyph-name="ncommaaccent" unicode="&#x146;" horiz-adv-x="1077" 
d="M686 0v459q0 42 -3.5 78t-17 62.5t-41 41t-74.5 14.5q-82 0 -120.5 -40.5t-38.5 -125.5v-489h-211v817h184l15 -91h3q42 61 100.5 84t132.5 23q82 0 136 -24.5t86.5 -70t46 -110t13.5 -143.5v-485h-211zM522 -363h-135l59 254h211z" />
    <glyph glyph-name="Ncaron" unicode="&#x147;" horiz-adv-x="1208" 
d="M827 0l-432 631h-3v-631h-212v1000h206l427 -609h3v609h212v-1000h-201zM834 1221l-239 -141l-239 141l73 103l167 -95l167 93z" />
    <glyph glyph-name="ncaron" unicode="&#x148;" horiz-adv-x="1077" 
d="M686 0v459q0 42 -3.5 78t-17 62.5t-41 41t-74.5 14.5q-82 0 -120.5 -40.5t-38.5 -125.5v-489h-211v817h184l15 -91h3q42 61 100.5 84t132.5 23q82 0 136 -24.5t86.5 -70t46 -110t13.5 -143.5v-485h-211zM805 1041l-239 -141l-239 141l73 103l167 -95l167 93z" />
    <glyph glyph-name="Omacron" unicode="&#x14c;" horiz-adv-x="1232" 
d="M865 501q0 77 -11.5 139.5t-40 106.5t-76 68t-120.5 24q-74 0 -122 -23.5t-76.5 -67.5t-40 -106.5t-11.5 -140.5t11.5 -141.5t40 -107.5t77 -68t122.5 -24q72 0 120 24t76 68.5t39.5 107.5t11.5 141zM1092 501q0 -129 -33.5 -225.5t-95.5 -161t-149.5 -96.5t-196.5 -32
t-197 32t-150.5 96.5t-96 161t-33.5 225.5q0 127 33.5 223t95.5 161t150 98t198 33t198 -33t149.5 -98t94.5 -161t33 -223zM372 1136v146h496v-146h-496z" />
    <glyph glyph-name="omacron" unicode="&#x14d;" 
d="M720 408q0 57 -8 104t-28.5 80.5t-55.5 52t-90 18.5q-54 0 -89.5 -18.5t-56 -52t-28.5 -80.5t-8 -104q0 -60 8.5 -109t29.5 -83t56.5 -52.5t89.5 -18.5q53 0 87.5 18.5t55 52.5t29 83t8.5 109zM936 408q0 -94 -24.5 -172.5t-74 -134.5t-124 -87.5t-175.5 -31.5t-175.5 31
t-124 87.5t-74 134.5t-24.5 173q0 90 23 167.5t71.5 135t124 90t179.5 32.5q99 0 173.5 -30t124.5 -85.5t75 -134t25 -175.5zM290 956v146h496v-146h-496z" />
    <glyph glyph-name="Obreve" unicode="&#x14e;" horiz-adv-x="1232" 
d="M865 501q0 77 -11.5 139.5t-40 106.5t-76 68t-120.5 24q-74 0 -122 -23.5t-76.5 -67.5t-40 -106.5t-11.5 -140.5t11.5 -141.5t40 -107.5t77 -68t122.5 -24q72 0 120 24t76 68.5t39.5 107.5t11.5 141zM1092 501q0 -129 -33.5 -225.5t-95.5 -161t-149.5 -96.5t-196.5 -32
t-197 32t-150.5 96.5t-96 161t-33.5 225.5q0 127 33.5 223t95.5 161t150 98t198 33t198 -33t149.5 -98t94.5 -161t33 -223zM856 1308q-3 -63 -29.5 -103.5t-63.5 -64t-77.5 -32t-71.5 -8.5q-33 0 -73 8.5t-75.5 31t-60.5 63t-29 105.5h130q1 -14 6 -29.5t17.5 -28.5
t33 -21.5t51.5 -8.5q30 0 51 8.5t34 21t19 28t7 30.5h131v0z" />
    <glyph glyph-name="obreve" unicode="&#x14f;" 
d="M720 408q0 57 -8 104t-28.5 80.5t-55.5 52t-90 18.5q-54 0 -89.5 -18.5t-56 -52t-28.5 -80.5t-8 -104q0 -60 8.5 -109t29.5 -83t56.5 -52.5t89.5 -18.5q53 0 87.5 18.5t55 52.5t29 83t8.5 109zM936 408q0 -94 -24.5 -172.5t-74 -134.5t-124 -87.5t-175.5 -31.5t-175.5 31
t-124 87.5t-74 134.5t-24.5 173q0 90 23 167.5t71.5 135t124 90t179.5 32.5q99 0 173.5 -30t124.5 -85.5t75 -134t25 -175.5zM760 1118q-3 -63 -29.5 -103.5t-63.5 -64t-77.5 -32t-71.5 -8.5q-33 0 -73 8.5t-75.5 31t-60.5 63t-29 105.5h130q1 -14 6 -29.5t17.5 -28.5
t33 -21.5t51.5 -8.5q30 0 51 8.5t34 21t19 28t7 30.5h131v0z" />
    <glyph glyph-name="Ohungarumlaut" unicode="&#x150;" horiz-adv-x="1232" 
d="M865 501q0 77 -11.5 139.5t-40 106.5t-76 68t-120.5 24q-74 0 -122 -23.5t-76.5 -67.5t-40 -106.5t-11.5 -140.5t11.5 -141.5t40 -107.5t77 -68t122.5 -24q72 0 120 24t76 68.5t39.5 107.5t11.5 141zM1092 501q0 -129 -33.5 -225.5t-95.5 -161t-149.5 -96.5t-196.5 -32
t-197 32t-150.5 96.5t-96 161t-33.5 225.5q0 127 33.5 223t95.5 161t150 98t198 33t198 -33t149.5 -98t94.5 -161t33 -223zM851 1093l-122 66l202 166l174 -87zM433 1093l-122 66l202 166l174 -87z" />
    <glyph glyph-name="ohungarumlaut" unicode="&#x151;" 
d="M720 408q0 57 -8 104t-28.5 80.5t-55.5 52t-90 18.5q-54 0 -89.5 -18.5t-56 -52t-28.5 -80.5t-8 -104q0 -60 8.5 -109t29.5 -83t56.5 -52.5t89.5 -18.5q53 0 87.5 18.5t55 52.5t29 83t8.5 109zM936 408q0 -94 -24.5 -172.5t-74 -134.5t-124 -87.5t-175.5 -31.5t-175.5 31
t-124 87.5t-74 134.5t-24.5 173q0 90 23 167.5t71.5 135t124 90t179.5 32.5q99 0 173.5 -30t124.5 -85.5t75 -134t25 -175.5zM780 913l-122 66l202 166l174 -87zM362 913l-122 66l202 166l174 -87z" />
    <glyph glyph-name="OE" unicode="&#x152;" horiz-adv-x="1679" 
d="M883 501q0 77 -13 139.5t-43.5 106.5t-80 68t-122.5 24t-123.5 -24t-81.5 -68.5t-44.5 -107t-13.5 -138.5q0 -77 13.5 -140t44.5 -107.5t81 -68.5t122 -24q73 0 122.5 24.5t80.5 69t44.5 107t13.5 139.5zM890 0v94q-19 -24 -48 -44t-64.5 -34t-75.5 -22t-80 -8
q-109 0 -198 32t-152 96.5t-97.5 161t-34.5 225.5q0 127 34 223t97 161t152 98t199 33q81 0 151.5 -27t116.5 -81v92h645v-180h-430v-213h388v-182h-388v-248h444v-177h-659z" />
    <glyph glyph-name="oe" unicode="&#x153;" horiz-adv-x="1599" 
d="M705 397q0 57 -8 102t-28 76.5t-53.5 48t-84.5 16.5q-52 0 -86 -16.5t-54.5 -48t-28.5 -76.5t-8 -102q0 -130 42 -189.5t135 -59.5q91 0 132.5 59.5t41.5 189.5zM1267 468q-3 40 -13 73.5t-30 58.5t-51.5 39t-77.5 14q-84 0 -129.5 -47t-45.5 -138h347v0zM1459 391
q0 -12 -0.5 -27t-2.5 -40h-537q4 -88 54.5 -132.5t144.5 -44.5q59 0 112.5 17t110.5 50l67 -148q-74 -43 -145.5 -63.5t-152.5 -20.5q-98 0 -169.5 30.5t-123.5 88.5q-48 -57 -119 -88t-167 -31t-169.5 29t-122.5 83t-74 131t-25 172q0 91 23.5 167.5t72 131.5t122 85.5
t173.5 30.5q185 0 283 -116q51 60 124 88t155 28q86 0 154 -28.5t115 -82.5t72 -132.5t25 -177.5z" />
    <glyph glyph-name="Racute" unicode="&#x154;" 
d="M710 693q0 45 -13.5 73t-37.5 44.5t-57.5 22.5t-73.5 6q-35 0 -66.5 -1.5t-64.5 -4.5v-283h151q38 0 68 6.5t51 22.5t32 44t11 70zM726 0l-132 342q-8 23 -17 30t-32 7h-148v-379h-217v993q85 8 171 12.5t171 4.5q76 0 149.5 -13t130.5 -47t92 -93t35 -151
q0 -98 -39 -167t-128 -104v-2q6 -2 12 -9t11 -16t9.5 -18l7.5 -15l154 -375h-230zM506 1093l-123 66l203 166l174 -87z" />
    <glyph glyph-name="racute" unicode="&#x155;" horiz-adv-x="761" 
d="M608 645q-49 0 -89 -6.5t-68.5 -24.5t-44 -51t-15.5 -87v-476h-211v817h185l17 -107h2q32 62 83 92.5t140 30.5h54v-188h-53zM398 913l-123 66l203 166l174 -87z" />
    <glyph glyph-name="Rcommaaccent" unicode="&#x156;" 
d="M710 693q0 45 -13.5 73t-37.5 44.5t-57.5 22.5t-73.5 6q-35 0 -66.5 -1.5t-64.5 -4.5v-283h151q38 0 68 6.5t51 22.5t32 44t11 70zM726 0l-132 342q-8 23 -17 30t-32 7h-148v-379h-217v993q85 8 171 12.5t171 4.5q76 0 149.5 -13t130.5 -47t92 -93t35 -151
q0 -98 -39 -167t-128 -104v-2q6 -2 12 -9t11 -16t9.5 -18l7.5 -15l154 -375h-230zM519 -363h-135l59 254h211z" />
    <glyph glyph-name="rcommaaccent" unicode="&#x157;" horiz-adv-x="761" 
d="M608 645q-49 0 -89 -6.5t-68.5 -24.5t-44 -51t-15.5 -87v-476h-211v817h185l17 -107h2q32 62 83 92.5t140 30.5h54v-188h-53zM260 -363h-135l59 254h211z" />
    <glyph glyph-name="Rcaron" unicode="&#x158;" 
d="M710 693q0 45 -13.5 73t-37.5 44.5t-57.5 22.5t-73.5 6q-35 0 -66.5 -1.5t-64.5 -4.5v-283h151q38 0 68 6.5t51 22.5t32 44t11 70zM726 0l-132 342q-8 23 -17 30t-32 7h-148v-379h-217v993q85 8 171 12.5t171 4.5q76 0 149.5 -13t130.5 -47t92 -93t35 -151
q0 -98 -39 -167t-128 -104v-2q6 -2 12 -9t11 -16t9.5 -18l7.5 -15l154 -375h-230zM753 1221l-239 -141l-239 141l73 103l167 -95l167 93z" />
    <glyph glyph-name="rcaron" unicode="&#x159;" horiz-adv-x="761" 
d="M608 645q-49 0 -89 -6.5t-68.5 -24.5t-44 -51t-15.5 -87v-476h-211v817h185l17 -107h2q32 62 83 92.5t140 30.5h54v-188h-53zM642 1041l-239 -141l-239 141l73 103l167 -95l167 93z" />
    <glyph glyph-name="Sacute" unicode="&#x15a;" horiz-adv-x="990" 
d="M860 294q0 -85 -29.5 -144t-80 -95.5t-117.5 -52.5t-141 -16q-56 0 -106 6.5t-96 20t-90.5 34.5t-89.5 50l88 165q66 -46 136 -77t148 -31q28 0 57 5t52.5 17.5t38.5 35.5t15 59q0 33 -19 56t-50 40t-71.5 30.5t-83.5 27.5q-51 17 -101 39t-89.5 56t-64.5 83.5t-25 122.5
q0 78 30.5 132.5t80 89t112.5 50t129 15.5q91 0 170 -22t158 -64l-71 -168q-55 35 -113 57.5t-126 22.5q-31 0 -59 -4t-49 -15.5t-33.5 -30.5t-12.5 -49t19 -50t51 -35t73.5 -27t85.5 -27q50 -16 99 -38t88 -57t63 -86.5t24 -125.5zM499 1103l-123 66l203 166l174 -87z" />
    <glyph glyph-name="sacute" unicode="&#x15b;" horiz-adv-x="882" 
d="M762 240q0 -133 -83 -195.5t-237 -62.5q-91 0 -177.5 23.5t-164.5 71.5l72 150q61 -38 128.5 -64t139.5 -26q59 0 90 18.5t31 68.5q0 24 -16.5 40.5t-44 29t-63 23.5t-74.5 24q-42 13 -84 32t-75.5 48.5t-54 72t-20.5 102.5q0 54 21 98t61 75.5t99 48.5t136 17
q75 0 148 -16t143 -50l-54 -156q-50 28 -104.5 45.5t-112.5 17.5q-63 0 -100 -13.5t-37 -53.5q0 -23 17 -39.5t44.5 -29t63.5 -24t74 -23.5q43 -14 85 -32t75 -47t53.5 -71t20.5 -103zM466 913l-123 66l203 166l174 -87z" />
    <glyph glyph-name="Scedilla" unicode="&#x15e;" horiz-adv-x="990" 
d="M664 -205q0 -31 -10.5 -58t-30.5 -46.5t-49.5 -30.5t-67.5 -11q-42 0 -77.5 11.5t-66.5 31.5l31 71q21 -14 47.5 -22t49.5 -8q11 0 22 3.5t20 10.5t15 18t6 27q0 25 -13.5 41t-55.5 16q-8 0 -21 -2.5t-27 -10.5l-37 26l58 125q-37 1 -71 6q-50 6 -96 19.5t-90.5 34.5
t-89.5 50l88 165q66 -46 136 -77t148 -31q28 0 57 5t52.5 17.5t38.5 35.5t15 59q0 33 -19 56t-50 40t-71.5 30.5t-83.5 27.5q-51 17 -101 39t-89.5 56t-64.5 83.5t-25 122.5q0 78 30.5 132.5t80 89t112.5 50t129 15.5q91 0 170 -22t158 -64l-71 -168q-55 35 -113 57.5
t-126 22.5q-31 0 -59 -4t-49 -15.5t-33.5 -30.5t-12.5 -49t19 -50t51 -35t73.5 -27t85.5 -27q50 -16 99 -38t88 -57t63 -86.5t24 -125.5q0 -85 -29.5 -144t-80 -95.5t-117.5 -52.5q-46 -11 -95 -14l-32 -72l1 -2q9 2 16 3.5t17 1.5q55 0 89.5 -32t34.5 -92z" />
    <glyph glyph-name="Scedilla" unicode="&#xf6c1;" horiz-adv-x="990" 
d="M664 -205q0 -31 -10.5 -58t-30.5 -46.5t-49.5 -30.5t-67.5 -11q-42 0 -77.5 11.5t-66.5 31.5l31 71q21 -14 47.5 -22t49.5 -8q11 0 22 3.5t20 10.5t15 18t6 27q0 25 -13.5 41t-55.5 16q-8 0 -21 -2.5t-27 -10.5l-37 26l58 125q-37 1 -71 6q-50 6 -96 19.5t-90.5 34.5
t-89.5 50l88 165q66 -46 136 -77t148 -31q28 0 57 5t52.5 17.5t38.5 35.5t15 59q0 33 -19 56t-50 40t-71.5 30.5t-83.5 27.5q-51 17 -101 39t-89.5 56t-64.5 83.5t-25 122.5q0 78 30.5 132.5t80 89t112.5 50t129 15.5q91 0 170 -22t158 -64l-71 -168q-55 35 -113 57.5
t-126 22.5q-31 0 -59 -4t-49 -15.5t-33.5 -30.5t-12.5 -49t19 -50t51 -35t73.5 -27t85.5 -27q50 -16 99 -38t88 -57t63 -86.5t24 -125.5q0 -85 -29.5 -144t-80 -95.5t-117.5 -52.5q-46 -11 -95 -14l-32 -72l1 -2q9 2 16 3.5t17 1.5q55 0 89.5 -32t34.5 -92z" />
    <glyph glyph-name="scedilla" unicode="&#x15f;" horiz-adv-x="882" 
d="M605 -205q0 -31 -10.5 -58t-30.5 -46.5t-49.5 -30.5t-67.5 -11q-42 0 -77.5 11.5t-66.5 31.5l31 71q21 -14 47.5 -22t49.5 -8q11 0 22 3.5t20 10.5t15 18t6 27q0 25 -13.5 41t-55.5 16q-8 0 -21 -2.5t-27 -10.5l-37 26l57 122q-68 4 -133 21q-86 24 -164 72l72 150
q61 -38 128.5 -64t139.5 -26q59 0 90 18.5t31 68.5q0 24 -16.5 40.5t-44 29t-63 23.5t-74.5 24q-42 13 -84 32t-75.5 48.5t-54 72t-20.5 102.5q0 54 21 98t61 75.5t99 48.5t136 17q75 0 148 -16t143 -50l-54 -156q-50 28 -104.5 45.5t-112.5 17.5q-63 0 -100 -13.5
t-37 -53.5q0 -23 17 -39.5t44.5 -29t63.5 -24t74 -23.5q43 -14 85 -32t75 -47t53.5 -71t20.5 -103q0 -133 -83 -196q-74 -54 -202 -61l-30 -67l1 -2q9 2 16 3.5t17 1.5q55 0 89.5 -32t34.5 -92z" />
    <glyph glyph-name="scedilla" unicode="&#xf6c2;" horiz-adv-x="882" 
d="M605 -205q0 -31 -10.5 -58t-30.5 -46.5t-49.5 -30.5t-67.5 -11q-42 0 -77.5 11.5t-66.5 31.5l31 71q21 -14 47.5 -22t49.5 -8q11 0 22 3.5t20 10.5t15 18t6 27q0 25 -13.5 41t-55.5 16q-8 0 -21 -2.5t-27 -10.5l-37 26l57 122q-68 4 -133 21q-86 24 -164 72l72 150
q61 -38 128.5 -64t139.5 -26q59 0 90 18.5t31 68.5q0 24 -16.5 40.5t-44 29t-63 23.5t-74.5 24q-42 13 -84 32t-75.5 48.5t-54 72t-20.5 102.5q0 54 21 98t61 75.5t99 48.5t136 17q75 0 148 -16t143 -50l-54 -156q-50 28 -104.5 45.5t-112.5 17.5q-63 0 -100 -13.5
t-37 -53.5q0 -23 17 -39.5t44.5 -29t63.5 -24t74 -23.5q43 -14 85 -32t75 -47t53.5 -71t20.5 -103q0 -133 -83 -196q-74 -54 -202 -61l-30 -67l1 -2q9 2 16 3.5t17 1.5q55 0 89.5 -32t34.5 -92z" />
    <glyph glyph-name="Scaron" unicode="&#x160;" horiz-adv-x="990" 
d="M860 294q0 -85 -29.5 -144t-80 -95.5t-117.5 -52.5t-141 -16q-56 0 -106 6.5t-96 20t-90.5 34.5t-89.5 50l88 165q66 -46 136 -77t148 -31q28 0 57 5t52.5 17.5t38.5 35.5t15 59q0 33 -19 56t-50 40t-71.5 30.5t-83.5 27.5q-51 17 -101 39t-89.5 56t-64.5 83.5t-25 122.5
q0 78 30.5 132.5t80 89t112.5 50t129 15.5q91 0 170 -22t158 -64l-71 -168q-55 35 -113 57.5t-126 22.5q-31 0 -59 -4t-49 -15.5t-33.5 -30.5t-12.5 -49t19 -50t51 -35t73.5 -27t85.5 -27q50 -16 99 -38t88 -57t63 -86.5t24 -125.5zM740 1221l-239 -141l-239 141l73 103
l167 -95l167 93z" />
    <glyph glyph-name="scaron" unicode="&#x161;" horiz-adv-x="882" 
d="M762 240q0 -133 -83 -195.5t-237 -62.5q-91 0 -177.5 23.5t-164.5 71.5l72 150q61 -38 128.5 -64t139.5 -26q59 0 90 18.5t31 68.5q0 24 -16.5 40.5t-44 29t-63 23.5t-74.5 24q-42 13 -84 32t-75.5 48.5t-54 72t-20.5 102.5q0 54 21 98t61 75.5t99 48.5t136 17
q75 0 148 -16t143 -50l-54 -156q-50 28 -104.5 45.5t-112.5 17.5q-63 0 -100 -13.5t-37 -53.5q0 -23 17 -39.5t44.5 -29t63.5 -24t74 -23.5q43 -14 85 -32t75 -47t53.5 -71t20.5 -103zM695 1041l-239 -141l-239 141l73 103l167 -95l167 93z" />
    <glyph glyph-name="Tcommaaccent" unicode="&#x162;" horiz-adv-x="923" 
d="M569 816v-816h-217v816h-262v184h743v-184h-264zM436 -363h-135l59 254h211z" />
    <glyph glyph-name="tcommaaccent" unicode="&#x163;" horiz-adv-x="690" 
d="M580 -3q-40 -5 -71 -7t-62 -2q-78 0 -127.5 13t-77.5 43t-38 78t-9 119v391h-125v170h126v219h210v-219h174v-170h-174v-375q0 -31 3 -49.5t16 -28t39 -12.5t72 -3h44v-167v0zM382 -363h-135l59 254h211z" />
    <glyph glyph-name="Tcaron" unicode="&#x164;" horiz-adv-x="923" 
d="M569 816v-816h-217v816h-262v184h743v-184h-264zM700 1221l-239 -141l-239 141l73 103l167 -95l167 93z" />
    <glyph glyph-name="tcaron" unicode="&#x165;" horiz-adv-x="690" 
d="M580 -3q-40 -5 -71 -7t-62 -2q-78 0 -127.5 13t-77.5 43t-38 78t-9 119v391h-125v170h126v219h210v-219h174v-170h-174v-375q0 -31 3 -49.5t16 -28t39 -12.5t72 -3h44v-167v0zM749 854h-131l57 235h204z" />
    <glyph glyph-name="Umacron" unicode="&#x16a;" horiz-adv-x="1162" 
d="M982 406q0 -99 -20.5 -177.5t-68 -133t-124.5 -83.5t-190 -29q-112 0 -188 28.5t-123 83t-67.5 133t-20.5 178.5v594h217v-564q0 -54 4.5 -103t22.5 -86t54.5 -58.5t100.5 -21.5q65 0 102 21.5t56 58.5t23.5 86t4.5 103v564h217v-594v0zM336 1136v146h496v-146h-496z" />
    <glyph glyph-name="umacron" unicode="&#x16b;" horiz-adv-x="1064" 
d="M695 0l-13 88h-3q-35 -51 -90.5 -79.5t-136.5 -28.5q-67 0 -117.5 16.5t-85 54t-52 99.5t-17.5 152v515h211v-443q0 -48 2.5 -88t15.5 -68.5t40 -44.5t75 -16q45 0 74 11.5t45.5 34t23 55t6.5 74.5v485h211v-817h-189zM284 956v146h496v-146h-496z" />
    <glyph glyph-name="Ubreve" unicode="&#x16c;" horiz-adv-x="1162" 
d="M982 406q0 -99 -20.5 -177.5t-68 -133t-124.5 -83.5t-190 -29q-112 0 -188 28.5t-123 83t-67.5 133t-20.5 178.5v594h217v-564q0 -54 4.5 -103t22.5 -86t54.5 -58.5t100.5 -21.5q65 0 102 21.5t56 58.5t23.5 86t4.5 103v564h217v-594v0zM808 1298q-3 -63 -29.5 -103.5
t-63.5 -64t-77.5 -32t-71.5 -8.5q-33 0 -73 8.5t-75.5 31t-60.5 63t-29 105.5h130q1 -14 6 -29.5t17.5 -28.5t33 -21.5t51.5 -8.5q30 0 51 8.5t34 21t19 28t7 30.5h131v0z" />
    <glyph glyph-name="ubreve" unicode="&#x16d;" horiz-adv-x="1064" 
d="M695 0l-13 88h-3q-35 -51 -90.5 -79.5t-136.5 -28.5q-67 0 -117.5 16.5t-85 54t-52 99.5t-17.5 152v515h211v-443q0 -48 2.5 -88t15.5 -68.5t40 -44.5t75 -16q45 0 74 11.5t45.5 34t23 55t6.5 74.5v485h211v-817h-189zM769 1118q-3 -63 -29.5 -103.5t-63.5 -64t-77.5 -32
t-71.5 -8.5q-33 0 -73 8.5t-75.5 31t-60.5 63t-29 105.5h130q1 -14 6 -29.5t17.5 -28.5t33 -21.5t51.5 -8.5q30 0 51 8.5t34 21t19 28t7 30.5h131v0z" />
    <glyph glyph-name="Uring" unicode="&#x16e;" horiz-adv-x="1162" 
d="M982 406q0 -99 -20.5 -177.5t-68 -133t-124.5 -83.5t-190 -29q-112 0 -188 28.5t-123 83t-67.5 133t-20.5 178.5v594h217v-564q0 -54 4.5 -103t22.5 -86t54.5 -58.5t100.5 -21.5q65 0 102 21.5t56 58.5t23.5 86t4.5 103v564h217v-594v0zM639 1216q0 31 -19.5 51t-48.5 20
q-30 0 -50 -20t-20 -51q0 -30 20 -50t50 -20q29 0 48.5 20t19.5 50zM718 1216q0 -31 -11 -57t-31 -44.5t-47 -28.5t-58 -10q-32 0 -58.5 10.5t-46.5 29t-31 44t-11 56.5q0 32 11 58t31 45t46.5 29t58.5 10q31 0 58 -10t47 -29t31 -45t11 -58z" />
    <glyph glyph-name="uring" unicode="&#x16f;" horiz-adv-x="1064" 
d="M695 0l-13 88h-3q-35 -51 -90.5 -79.5t-136.5 -28.5q-67 0 -117.5 16.5t-85 54t-52 99.5t-17.5 152v515h211v-443q0 -48 2.5 -88t15.5 -68.5t40 -44.5t75 -16q45 0 74 11.5t45.5 34t23 55t6.5 74.5v485h211v-817h-189zM594 1046q0 31 -19.5 51t-48.5 20q-30 0 -50 -20
t-20 -51q0 -30 20 -50t50 -20q29 0 48.5 20t19.5 50zM673 1046q0 -31 -11 -57t-31 -44.5t-47 -28.5t-58 -10q-32 0 -58.5 10.5t-46.5 29t-31 44t-11 56.5q0 32 11 58t31 45t46.5 29t58.5 10q31 0 58 -10t47 -29t31 -45t11 -58z" />
    <glyph glyph-name="Uhungarumlaut" unicode="&#x170;" horiz-adv-x="1162" 
d="M982 406q0 -99 -20.5 -177.5t-68 -133t-124.5 -83.5t-190 -29q-112 0 -188 28.5t-123 83t-67.5 133t-20.5 178.5v594h217v-564q0 -54 4.5 -103t22.5 -86t54.5 -58.5t100.5 -21.5q65 0 102 21.5t56 58.5t23.5 86t4.5 103v564h217v-594v0zM804 1093l-122 66l202 166
l174 -87zM386 1093l-122 66l202 166l174 -87z" />
    <glyph glyph-name="uhungarumlaut" unicode="&#x171;" horiz-adv-x="1064" 
d="M695 0l-13 88h-3q-35 -51 -90.5 -79.5t-136.5 -28.5q-67 0 -117.5 16.5t-85 54t-52 99.5t-17.5 152v515h211v-443q0 -48 2.5 -88t15.5 -68.5t40 -44.5t75 -16q45 0 74 11.5t45.5 34t23 55t6.5 74.5v485h211v-817h-189zM753 913l-122 66l202 166l174 -87zM335 913l-122 66
l202 166l174 -87z" />
    <glyph glyph-name="Uogonek" unicode="&#x172;" horiz-adv-x="1162" 
d="M863 -292q-23 -17 -57 -31t-88 -14q-44 0 -76.5 13t-54.5 35t-32.5 51.5t-10.5 62.5q0 28 8 52.5t20.5 44.5t27 36t28.5 28q-11 0 -23.5 -1.5t-25.5 -1.5q-112 0 -188 28.5t-123 83t-67.5 133t-20.5 178.5v594h217v-564q0 -54 4.5 -103t22.5 -86t54.5 -58.5t100.5 -21.5
q65 0 102 21.5t56 58.5t23.5 86t4.5 103v564h217v-594q0 -132 -37 -227.5t-128 -144.5q-25 -17 -48.5 -38.5t-42 -46t-30 -49.5t-11.5 -48q0 -32 14.5 -54.5t48.5 -22.5q19 0 34.5 6t34.5 19l46 -92v0z" />
    <glyph glyph-name="uogonek" unicode="&#x173;" horiz-adv-x="1064" 
d="M903 -297q-23 -16 -57.5 -30.5t-88.5 -14.5q-44 0 -75 13t-51 35t-29.5 51.5t-9.5 62.5q0 37 11 67t27 52.5t34 37.5t31 23l-13 88h-3q-35 -51 -90.5 -79.5t-136.5 -28.5q-67 0 -117.5 16.5t-85 54t-52 99.5t-17.5 152v515h211v-443q0 -48 2.5 -88t15.5 -68.5t40 -44.5
t75 -16q45 0 74 11.5t45.5 34t23 55t6.5 74.5v485h211v-817h-61q-21 -16 -39 -32t-31 -34t-20.5 -39.5t-7.5 -47.5q0 -33 14.5 -55t47.5 -22q20 0 35 6.5t35 19.5l46 -93v0z" />
    <glyph glyph-name="Ydieresis" unicode="&#x178;" horiz-adv-x="1016" 
d="M615 389v-389h-215v385l-350 615h247l212 -424l222 424h235zM450 1198q0 -22 -8.5 -41.5t-23 -34t-34.5 -23t-42 -8.5q-24 0 -43.5 8.5t-34.5 23t-23.5 34t-8.5 41.5q0 24 8.5 43.5t23.5 34.5t34.5 23.5t43.5 8.5q22 0 42 -8.5t34.5 -23.5t23 -34.5t8.5 -43.5zM811 1198
q0 -22 -8 -41.5t-23 -34t-34.5 -23t-42.5 -8.5q-22 0 -43 8.5t-35 23t-23 34t-9 41.5q0 24 9 43.5t23 34.5t35 23.5t43 8.5q23 0 42.5 -8.5t34.5 -23.5t23 -34.5t8 -43.5z" />
    <glyph glyph-name="Zacute" unicode="&#x179;" horiz-adv-x="977" 
d="M143 0v161l455 655h-432v184h701v-163l-462 -659h475v-178h-737zM529 1093l-123 66l203 166l174 -87z" />
    <glyph glyph-name="zacute" unicode="&#x17a;" horiz-adv-x="846" 
d="M110 0v147l362 498h-357v172h614v-159l-356 -488h363v-170h-626zM421 902l-123 66l203 166l174 -87z" />
    <glyph glyph-name="Zdotaccent" unicode="&#x17b;" horiz-adv-x="977" 
d="M120 0v161l455 655h-432v184h701v-163l-462 -659h475v-178h-737zM622 1199q0 -50 -34.5 -79.5t-93.5 -29.5q-60 0 -94.5 29.5t-34.5 79.5t34.5 79.5t94.5 29.5t94 -29.5t34 -79.5z" />
    <glyph glyph-name="zdotaccent" unicode="&#x17c;" horiz-adv-x="846" 
d="M110 0v147l362 498h-357v172h614v-159l-356 -488h363v-170h-626zM563 1019q0 -50 -34.5 -79.5t-93.5 -29.5q-60 0 -94.5 29.5t-34.5 79.5t34.5 79.5t94.5 29.5t94 -29.5t34 -79.5z" />
    <glyph glyph-name="Zcaron" unicode="&#x17d;" horiz-adv-x="977" 
d="M143 0v161l455 655h-432v184h701v-163l-462 -659h475v-178h-737zM757 1221l-239 -141l-239 141l73 103l167 -95l167 93z" />
    <glyph glyph-name="zcaron" unicode="&#x17e;" horiz-adv-x="846" 
d="M110 0v147l362 498h-357v172h614v-159l-356 -488h363v-170h-626zM681 1041l-239 -141l-239 141l73 103l167 -95l167 93z" />
    <glyph glyph-name="florin" unicode="&#x192;" horiz-adv-x="853" 
d="M747 896q-17 1 -30.5 2.5t-33.5 1.5q-31 0 -51 -5t-32.5 -15t-19 -25t-10.5 -36l-29 -144h153l-30 -170h-151l-104 -528q-14 -69 -36 -119.5t-56.5 -84t-82.5 -49.5t-113 -16q-30 0 -62.5 4t-58.5 13l28 154q20 -7 37.5 -8t43.5 -1t44 11.5t31 34t21.5 54.5t16.5 73
l84 462h-112l31 170h111l30 162q12 63 32.5 104t57 66t91.5 35t135 10q23 0 42.5 -0.5t48.5 -2.5z" />
    <glyph glyph-name="Scommaaccent" unicode="&#x218;" horiz-adv-x="990" 
d="M860 294q0 -85 -29.5 -144t-80 -95.5t-117.5 -52.5t-141 -16q-56 0 -106 6.5t-96 20t-90.5 34.5t-89.5 50l88 165q66 -46 136 -77t148 -31q28 0 57 5t52.5 17.5t38.5 35.5t15 59q0 33 -19 56t-50 40t-71.5 30.5t-83.5 27.5q-51 17 -101 39t-89.5 56t-64.5 83.5t-25 122.5
q0 78 30.5 132.5t80 89t112.5 50t129 15.5q91 0 170 -22t158 -64l-71 -168q-55 35 -113 57.5t-126 22.5q-31 0 -59 -4t-49 -15.5t-33.5 -30.5t-12.5 -49t19 -50t51 -35t73.5 -27t85.5 -27q50 -16 99 -38t88 -57t63 -86.5t24 -125.5zM477 -363h-135l59 254h211z" />
    <glyph glyph-name="scommaaccent" unicode="&#x219;" horiz-adv-x="882" 
d="M762 240q0 -133 -83 -195.5t-237 -62.5q-91 0 -177.5 23.5t-164.5 71.5l72 150q61 -38 128.5 -64t139.5 -26q59 0 90 18.5t31 68.5q0 24 -16.5 40.5t-44 29t-63 23.5t-74.5 24q-42 13 -84 32t-75.5 48.5t-54 72t-20.5 102.5q0 54 21 98t61 75.5t99 48.5t136 17
q75 0 148 -16t143 -50l-54 -156q-50 28 -104.5 45.5t-112.5 17.5q-63 0 -100 -13.5t-37 -53.5q0 -23 17 -39.5t44.5 -29t63.5 -24t74 -23.5q43 -14 85 -32t75 -47t53.5 -71t20.5 -103zM433 -363h-135l59 254h211z" />
    <glyph glyph-name="circumflex" unicode="&#x2c6;" horiz-adv-x="609" 
d="M468 903l-167 92l-167 -95l-73 103l239 141l239 -141z" />
    <glyph glyph-name="caron" unicode="&#x2c7;" horiz-adv-x="609" 
d="M539 1041l-239 -141l-239 141l73 103l167 -95l167 93z" />
    <glyph glyph-name="breve" unicode="&#x2d8;" horiz-adv-x="645" 
d="M566 1118q-3 -63 -29.5 -103.5t-63.5 -64t-77.5 -32t-71.5 -8.5q-33 0 -73 8.5t-75.5 31t-60.5 63t-29 105.5h130q1 -14 6 -29.5t17.5 -28.5t33 -21.5t51.5 -8.5q30 0 51 8.5t34 21t19 28t7 30.5h131v0z" />
    <glyph glyph-name="dotaccent" unicode="&#x2d9;" horiz-adv-x="372" 
d="M315 1019q0 -50 -34.5 -79.5t-93.5 -29.5q-60 0 -94.5 29.5t-34.5 79.5t34.5 79.5t94.5 29.5t94 -29.5t34 -79.5z" />
    <glyph glyph-name="ring" unicode="&#x2da;" horiz-adv-x="522" 
d="M325 1046q0 31 -19.5 51t-48.5 20q-30 0 -50 -20t-20 -51q0 -30 20 -50t50 -20q29 0 48.5 20t19.5 50zM404 1046q0 -31 -11 -57t-31 -44.5t-47 -28.5t-58 -10q-32 0 -58.5 10.5t-46.5 29t-31 44t-11 56.5q0 32 11 58t31 45t46.5 29t58.5 10q31 0 58 -10t47 -29t31 -45
t11 -58z" />
    <glyph glyph-name="ogonek" unicode="&#x2db;" horiz-adv-x="538" 
d="M462 -297q-23 -16 -57.5 -30.5t-87.5 -14.5q-44 0 -75.5 13t-52 35t-30 51.5t-9.5 62.5q0 35 11 64.5t27.5 52.5t34 39t31.5 24h127q-43 -32 -70 -69t-27 -84q0 -33 14 -55t48 -22q20 0 34.5 6.5t34.5 19.5l47 -93v0z" />
    <glyph glyph-name="tilde" unicode="&#x2dc;" horiz-adv-x="634" 
d="M600 1063q-23 -69 -66.5 -106t-97.5 -37q-34 0 -63.5 11.5t-55.5 24.5t-51 24.5t-47 11.5q-27 0 -46 -17t-33 -58l-97 68q32 76 67.5 109.5t93.5 33.5q31 0 60 -11.5t55.5 -25.5t52.5 -25.5t49 -11.5q52 0 81 74z" />
    <glyph glyph-name="hungarumlaut" unicode="&#x2dd;" horiz-adv-x="894" 
d="M623 913l-122 66l202 166l174 -87zM205 913l-122 66l202 166l174 -87z" />
    <glyph glyph-name="endash" unicode="&#x2013;" horiz-adv-x="977" 
d="M140 425v170h697v-170h-697z" />
    <glyph glyph-name="emdash" unicode="&#x2014;" horiz-adv-x="1674" 
d="M140 360v165h1394v-165h-1394z" />
    <glyph glyph-name="quoteleft" unicode="&#x2018;" horiz-adv-x="531" 
d="M320 689h-230l156 360h145z" />
    <glyph glyph-name="quoteright" unicode="&#x2019;" horiz-adv-x="532" 
d="M284 689h-144l71 360h231z" />
    <glyph glyph-name="quotesinglbase" unicode="&#x201a;" horiz-adv-x="522" 
d="M224 -255h-144l71 360h231z" />
    <glyph glyph-name="quotedblleft" unicode="&#x201c;" horiz-adv-x="893" 
d="M320 689h-230l157 360h144zM683 689h-231l157 360h144z" />
    <glyph glyph-name="quotedblright" unicode="&#x201d;" horiz-adv-x="894" 
d="M285 689h-145l70 360h231zM647 689h-144l70 360h231z" />
    <glyph glyph-name="quotedblbase" unicode="&#x201e;" horiz-adv-x="884" 
d="M225 -255h-145l70 360h231zM587 -255h-144l70 360h231z" />
    <glyph glyph-name="dagger" unicode="&#x2020;" horiz-adv-x="738" 
d="M471 676v-392h-204v392h-127v166h127v196h204v-196h127v-166h-127z" />
    <glyph glyph-name="daggerdbl" unicode="&#x2021;" horiz-adv-x="737" 
d="M471 387v-179h-204v179h-127v166h127v147h-127v167h127v171h204v-171h126v-167h-126v-147h126v-166h-126z" />
    <glyph glyph-name="bullet" unicode="&#x2022;" horiz-adv-x="997" 
d="M747 493q0 -52 -19 -97.5t-52.5 -79t-79 -53t-97.5 -19.5t-97.5 19.5t-79 53t-53 79t-19.5 97.5t19.5 97t53 79t79 53.5t97.5 19.5t97.5 -19.5t79 -53.5t52.5 -79t19 -97z" />
    <glyph glyph-name="ellipsis" unicode="&#x2026;" horiz-adv-x="1366" 
d="M1226 86q0 -22 -9 -41t-25.5 -32.5t-38.5 -21.5t-48 -8t-49 7.5t-40 21.5t-27 32.5t-10 41.5q0 22 10 40t26.5 31.5t39 21t48.5 7.5q54 0 88.5 -28t34.5 -72zM807 86q0 -45 -35 -74t-88 -29q-26 0 -48.5 7.5t-39.5 21.5t-26.5 32.5t-9.5 41.5q0 22 9.5 40t26.5 31.5
t39.5 21t48.5 7.5q52 0 87.5 -28t35.5 -72zM387 86q1 -22 -8 -41t-25.5 -32.5t-39 -21.5t-48.5 -8q-27 0 -50 7.5t-40 21.5t-26.5 32.5t-9.5 41.5q0 22 9.5 40t26.5 31.5t40 21t49 7.5q25 0 47.5 -7.5t39 -21t26 -31.5t9.5 -40z" />
    <glyph glyph-name="perthousand" unicode="&#x2030;" horiz-adv-x="2120" 
d="M1836 271q0 34 -3.5 65t-14 55t-30.5 38.5t-54 14.5q-33 0 -53 -14.5t-31 -38.5t-14.5 -55t-3.5 -65t3.5 -65t14.5 -55t31 -38t53 -14t53.5 14t31 38t14 55t3.5 65zM1980 273q0 -137 -60.5 -212t-188.5 -75q-62 0 -108 20.5t-76 58t-44.5 90.5t-14.5 118q0 134 61.5 210
t189.5 76q61 0 106.5 -20.5t75.5 -58t44.5 -90.5t14.5 -117zM1241 271q0 34 -3.5 65t-14.5 55t-31.5 38.5t-54.5 14.5q-33 0 -53 -14.5t-30.5 -38.5t-14 -55t-3.5 -65t3.5 -65t14.5 -55t30.5 -38t52.5 -14q34 0 54.5 14t31.5 38t14.5 55t3.5 65zM1385 273q0 -135 -61.5 -211
t-189.5 -76q-62 0 -107.5 20.5t-75.5 58t-44.5 90.5t-14.5 118q0 67 15.5 120t47 90t79 56.5t110.5 19.5q61 0 106.5 -20.5t75.5 -58t44.5 -90.5t14.5 -117zM526 0h-156l630 1000h156zM487 730q0 33 -3.5 64.5t-14 55.5t-31 38.5t-53.5 14.5t-53 -14.5t-31 -38.5
t-14.5 -55.5t-3.5 -64.5q0 -34 3.5 -65.5t14.5 -55.5t31 -38.5t53 -14.5t53.5 14.5t31 38.5t14 55.5t3.5 65.5zM631 730q0 -135 -60.5 -211.5t-188.5 -76.5q-63 0 -108.5 21t-75.5 58.5t-44 90.5t-14 118q0 135 61 210.5t189 75.5q62 0 107.5 -21t75 -58.5t44 -90
t14.5 -116.5z" />
    <glyph glyph-name="guilsinglleft" unicode="&#x2039;" horiz-adv-x="540" 
d="M287 145l-177 304l177 303l143 -72l-140 -232l140 -232z" />
    <glyph glyph-name="guilsinglright" unicode="&#x203a;" horiz-adv-x="540" 
d="M253 145l-143 71l138 232l-138 232l143 72l177 -303z" />
    <glyph glyph-name="fraction" unicode="&#x2044;" horiz-adv-x="342" 
d="M-158 -60h-133l770 1163h132z" />
    <glyph glyph-name="fraction" unicode="&#x2215;" horiz-adv-x="342" 
d="M-158 -60h-133l770 1163h132z" />
    <glyph glyph-name="zerosuperior" unicode="&#x2070;" horiz-adv-x="725" 
d="M468 802q0 40 -4 74t-15.5 59.5t-32 40t-52.5 14.5q-33 0 -53.5 -14.5t-32.5 -40t-16 -59.5t-4 -74q0 -39 4 -74t16 -61.5t32.5 -41.5t53.5 -15q32 0 52.5 15t32 41.5t15.5 61.5t4 74zM625 803q0 -152 -64.5 -234t-200.5 -82q-64 0 -112.5 22.5t-81.5 64t-49.5 99.5
t-16.5 130q0 151 67 231t201 80q64 0 112 -21.5t80 -62t48.5 -98t16.5 -129.5z" />
    <glyph glyph-name="foursuperior" unicode="&#x2074;" horiz-adv-x="674" 
d="M364 733v234l-153 -234h153zM502 495h-154v120h-241l-32 122l259 369h168v-364h87v-127h-87v-120z" />
    <glyph glyph-name="fivesuperior" unicode="&#x2075;" horiz-adv-x="633" 
d="M533 703q0 -49 -14 -88.5t-43 -67.5t-74 -43t-107 -15q-61 0 -110 16t-95 47l63 104q29 -23 62 -35t76 -12q90 0 90 91q0 86 -87 86q-30 0 -54.5 -10.5t-42.5 -27.5l-94 72l51 284h339v-130h-233l-23 -115h3q19 14 43 23.5t65 9.5q39 0 73 -11t58.5 -34t39 -58.5
t14.5 -85.5z" />
    <glyph glyph-name="sixsuperior" unicode="&#x2076;" horiz-adv-x="662" 
d="M427 703q0 43 -16.5 68.5t-63.5 25.5q-45 0 -64 -26t-19 -69q0 -20 4 -38t14 -32t26 -22t39 -8q46 0 63 29t17 72zM582 703q0 -46 -17.5 -86t-49 -69t-75 -46t-96.5 -17q-63 0 -109 20.5t-76 58t-44.5 90.5t-14.5 118q0 69 15 130.5t48 108t84 74t123 27.5q54 0 97.5 -13
t80.5 -36l-52 -103q-52 35 -132 35q-58 0 -87 -40t-30 -108h1q17 20 47.5 36.5t78.5 16.5q108 0 158 -51.5t50 -145.5z" />
    <glyph glyph-name="sevensuperior" unicode="&#x2077;" horiz-adv-x="599" 
d="M524 981q-44 -33 -77.5 -73.5t-56.5 -94t-35 -122.5t-12 -159v-36h-154v24q0 48 6.5 110t24 125t47.5 121.5t77 99.5h-259v130h423l16 -125v0z" />
    <glyph glyph-name="eightsuperior" unicode="&#x2078;" horiz-adv-x="675" 
d="M422 680q0 43 -20.5 62.5t-63.5 19.5q-85 0 -85 -82t85 -82q45 0 64.5 20.5t19.5 61.5zM409 930q0 32 -16 51.5t-55 19.5q-38 0 -54.5 -19.5t-16.5 -51.5q0 -71 71 -71q40 0 55.5 18t15.5 53zM575 670q0 -40 -13.5 -73.5t-42 -58t-73 -38t-106.5 -13.5q-63 0 -108 13.5
t-74.5 38t-43.5 58t-14 73.5q0 54 23 90t74 57v3q-43 22 -63 53t-20 76q0 42 16 73t45.5 51.5t71 30.5t91.5 10t91 -10t70.5 -30.5t46 -51.5t16.5 -73q0 -45 -20 -76t-63 -53v-3q50 -21 73 -56.5t23 -90.5z" />
    <glyph glyph-name="ninesuperior" unicode="&#x2079;" horiz-adv-x="659" 
d="M231 900q0 -19 4 -36t14 -30t26 -20.5t39 -7.5q44 0 62.5 27t18.5 67q0 20 -4 38t-13.5 31.5t-25 21t-38.5 7.5q-47 0 -65 -28t-18 -70zM80 903q0 45 17 83.5t48 67t74 44.5t96 16q125 0 184.5 -74t59.5 -214q0 -77 -15 -139.5t-47.5 -106.5t-84 -68.5t-123.5 -24.5
q-54 0 -98.5 13t-80.5 36l52 103q26 -16 58.5 -25t74.5 -9q59 0 87.5 43.5t29.5 110.5h-3q-16 -20 -45.5 -36.5t-77.5 -16.5q-109 0 -157.5 52t-48.5 145z" />
    <glyph glyph-name="zeroinferior" unicode="&#x2080;" horiz-adv-x="725" 
d="M468 252q0 40 -4 74.5t-15.5 60t-32 40t-52.5 14.5q-33 0 -53.5 -14.5t-32.5 -40t-16 -60t-4 -74.5q0 -39 4 -74.5t15.5 -62t32 -42t53.5 -15.5q32 0 52.5 15.5t32 42t16 62t4.5 74.5zM625 254q0 -153 -64.5 -235.5t-200.5 -82.5q-64 0 -112.5 22.5t-81.5 64t-49.5 100.5
t-16.5 131q0 149 67 229t201 80q63 0 111 -21.5t80.5 -61.5t49 -97.5t16.5 -128.5z" />
    <glyph glyph-name="oneinferior" unicode="&#x2081;" horiz-adv-x="510" 
d="M375 552v-610h-152v420l-103 -68l-60 110l201 148h114z" />
    <glyph glyph-name="twoinferior" unicode="&#x2082;" horiz-adv-x="635" 
d="M85 61q18 15 46.5 36.5t60.5 46.5t65 52.5t59 55.5t42.5 55.5t16.5 52.5q0 13 -4 26t-13 23t-24.5 16t-39.5 6q-73 0 -143 -66l-71 103q62 49 117.5 71t123.5 22q94 0 151 -47.5t57 -135.5q0 -36 -12.5 -70.5t-41 -71.5t-76.5 -78t-118 -89h254v-127h-427z" />
    <glyph glyph-name="threeinferior" unicode="&#x2083;" horiz-adv-x="646" 
d="M546 126q0 -88 -64.5 -139t-182.5 -51q-64 0 -117.5 19t-101.5 54l65 105q22 -18 41.5 -29.5t38 -17.5t36 -8.5t36.5 -2.5q46 0 73.5 17t27.5 54q0 38 -23.5 52.5t-77.5 14.5h-82v114h69q44 0 69.5 14t25.5 52q0 21 -19 40t-69 19q-35 0 -68.5 -12.5t-65.5 -39.5l-67 100
q32 21 59.5 36t54 24t53.5 13t59 4q96 0 154 -43t58 -124q0 -45 -18 -75.5t-50 -50.5q42 -17 64 -52.5t22 -86.5z" />
    <glyph glyph-name="fourinferior" unicode="&#x2084;" horiz-adv-x="674" 
d="M364 180v234l-153 -234h153zM502 -58h-154v119h-241l-32 122l259 369h168v-362h87v-129h-87v-119z" />
    <glyph glyph-name="fiveinferior" unicode="&#x2085;" horiz-adv-x="633" 
d="M533 150q0 -99 -57 -156.5t-181 -57.5q-61 0 -110 16t-95 47l63 104q29 -23 62 -36t76 -13q90 0 90 93q0 85 -87 85q-30 0 -54.5 -10t-42.5 -27l-94 72l51 285h339v-130h-233l-23 -115l3 -3q19 16 43 25t65 9q39 0 73 -10.5t58.5 -33t39 -58t14.5 -86.5z" />
    <glyph glyph-name="sixinferior" unicode="&#x2086;" horiz-adv-x="662" 
d="M428 153q0 44 -17 69t-63 25q-45 0 -64.5 -25.5t-19.5 -70.5q0 -19 4.5 -37t14.5 -31.5t26 -21.5t39 -8q46 0 63 28.5t17 71.5zM582 153q0 -46 -17 -85.5t-48 -68.5t-75 -45.5t-97 -16.5q-63 0 -109 20.5t-76.5 58t-45 90.5t-14.5 118q0 69 15 130.5t48 108t84 73.5
t123 27q54 0 98.5 -13t79.5 -36l-50 -103q-53 34 -133 34q-59 0 -88 -40t-30 -108h3q16 21 46.5 38t78.5 17q107 0 157 -53t50 -146z" />
    <glyph glyph-name="seveninferior" unicode="&#x2087;" horiz-adv-x="599" 
d="M524 428q-44 -34 -77.5 -75t-56.5 -94.5t-35 -122.5t-12 -159v-35h-154v24q0 49 6.5 111t24 125t47.5 121t77 99h-259v130h423l16 -124v0z" />
    <glyph glyph-name="eightinferior" unicode="&#x2088;" horiz-adv-x="675" 
d="M421 129q0 44 -20 63t-63 19q-42 0 -64.5 -20t-22.5 -61q0 -83 87 -83q83 0 83 82zM409 381q0 30 -16.5 50t-54.5 20t-55.5 -20t-17.5 -50q0 -73 72 -73q40 0 56 18t16 55zM575 120q0 -40 -13.5 -74t-42.5 -58.5t-73.5 -38t-107.5 -13.5q-62 0 -107 13.5t-74 38t-43 58.5
t-14 74q0 54 22.5 89.5t71.5 55.5v5q-42 20 -61 51.5t-19 76.5q0 41 16 72t45.5 51.5t70.5 31t91 10.5t91.5 -10.5t71 -31t46 -51.5t16.5 -72q0 -45 -20 -76.5t-64 -51.5v-5q97 -40 97 -145z" />
    <glyph glyph-name="nineinferior" unicode="&#x2089;" horiz-adv-x="659" 
d="M231 349q0 -38 18 -65t65 -27q44 0 62.5 26.5t18.5 67.5q0 40 -17.5 68t-63.5 28q-47 0 -65 -28t-18 -70zM80 352q0 45 17 83.5t48 67t74 44.5t96 16q125 0 184.5 -74t59.5 -214q0 -76 -15 -138.5t-47.5 -107t-84 -69t-123.5 -24.5q-54 0 -98.5 14t-80.5 36l52 102
q26 -17 58.5 -25.5t74.5 -8.5q29 0 51 11.5t36.5 32.5t22 49t7.5 61h-3q-16 -21 -45.5 -37.5t-77.5 -16.5q-54 0 -93 14t-64 39.5t-37 62.5t-12 82z" />
    <glyph glyph-name="Euro" unicode="&#x20ac;" horiz-adv-x="1117" 
d="M90 334l30 107h88q-1 17 -1 32v33v22q0 12 1 25h-101l31 108h82q15 82 48 147.5t86 111.5t126.5 71t169.5 25q56 0 105.5 -9.5t94.5 -30t87.5 -51.5t86.5 -74l-125 -135q-55 65 -118 94.5t-131 29.5q-94 0 -144.5 -44.5t-69.5 -134.5h376l-32 -108h-358q-1 -11 -1 -23
v-25v-33q0 -15 1 -31h347l-30 -107h-301q9 -40 24 -72.5t40 -56t60.5 -36t83.5 -12.5q146 0 271 125l110 -141q-87 -83 -175.5 -122t-196.5 -39q-102 0 -177 25t-127.5 71t-84 111.5t-46.5 146.5h-130z" />
    <glyph glyph-name="trademark" unicode="&#x2122;" horiz-adv-x="1150" 
d="M368 959v-306h-106v306h-122v90h350v-90h-122zM907 653v213l-114 -164l-117 164v-213h-104v396h94l127 -185l123 185h94v-396h-103z" />
    <glyph glyph-name="onethird" unicode="&#x2153;" horiz-adv-x="1630" 
d="M474 1104v-609h-151v419l-103 -68l-60 108l201 150h113zM451 -60h-133l770 1163h132zM1454 126q0 -88 -64.5 -139t-182.5 -51q-64 0 -117.5 19t-101.5 54l65 105q22 -18 41.5 -29.5t38 -17.5t36 -8.5t36.5 -2.5q46 0 73.5 17t27.5 54q0 38 -23.5 52.5t-77.5 14.5h-82v114
h69q44 0 69.5 14t25.5 52q0 21 -19 40t-69 19q-35 0 -68.5 -12.5t-65.5 -39.5l-67 100q32 21 59.5 36t54 24t53.5 13t59 4q96 0 154 -43t58 -124q0 -45 -18 -75.5t-50 -50.5q42 -17 64 -52.5t22 -86.5z" />
    <glyph glyph-name="twothirds" unicode="&#x2154;" horiz-adv-x="1630" 
d="M129 615q18 15 46 36t60.5 46t65 52t58.5 55t42.5 56t16.5 53q0 13 -4 25t-13 21.5t-24.5 15.5t-39.5 6q-36 0 -71.5 -14.5t-70.5 -49.5l-70 104q30 25 58.5 42t57.5 28t59 16t64 5q95 0 152 -47t57 -135q0 -36 -12 -70.5t-41 -71.5t-77 -78.5t-119 -89.5h254v-125h-426z
M497 -60h-133l770 1163h132zM1501 126q0 -88 -64.5 -139t-182.5 -51q-64 0 -117.5 19t-101.5 54l65 105q22 -18 41.5 -29.5t38 -17.5t36 -8.5t36.5 -2.5q46 0 73.5 17t27.5 54q0 38 -23.5 52.5t-77.5 14.5h-82v114h69q44 0 69.5 14t25.5 52q0 21 -19 40t-69 19
q-35 0 -68.5 -12.5t-65.5 -39.5l-67 100q32 21 59.5 36t54 24t53.5 13t59 4q96 0 154 -43t58 -124q0 -45 -18 -75.5t-50 -50.5q42 -17 64 -52.5t22 -86.5z" />
    <glyph glyph-name="onefifth" unicode="&#x2155;" horiz-adv-x="1630" 
d="M1419 150q0 -99 -57 -156.5t-181 -57.5q-60 0 -109 16t-96 47l64 104q29 -23 61.5 -36t75.5 -13q90 0 90 93q0 85 -87 85q-30 0 -54 -10t-43 -27l-93 72l51 285h338v-130h-234l-22 -115l4 -3q18 16 42 25t65 9q39 0 73 -10.5t59 -33t39 -58t14 -86.5zM421 -58h-133
l769 1162h131zM442 1104v-609h-151v419l-101 -68l-60 108l201 150h111z" />
    <glyph glyph-name="threefifths" unicode="&#x2157;" horiz-adv-x="1630" 
d="M596 676q0 -87 -64.5 -138t-182.5 -51q-64 0 -117.5 18.5t-101.5 53.5l65 104q45 -34 80 -45t73 -11q45 0 72.5 17t27.5 55t-23.5 53.5t-77.5 15.5h-82v114h69q44 0 69.5 15t25.5 52q0 11 -4.5 22t-14.5 19.5t-27 14t-42 5.5q-35 0 -68.5 -12.5t-65.5 -39.5l-67 99
q31 21 58.5 36t54.5 24t54 13t59 4q48 0 87 -11t66.5 -32t43 -52.5t15.5 -71.5q0 -45 -18 -77t-50 -51q42 -17 64 -54t22 -89zM540 -58h-132l769 1162h131zM1539 150q0 -99 -57 -156.5t-181 -57.5q-60 0 -109 16t-95 47l62 104q29 -23 62 -36t76 -13q89 0 89 93q0 85 -87 85
q-30 0 -53.5 -10t-43.5 -27l-92 72l51 285h338v-130h-234l-23 -115l4 -3q19 16 42.5 25t65.5 9q39 0 73 -10.5t59 -33t39 -58t14 -86.5z" />
    <glyph glyph-name="minus" unicode="&#x2212;" horiz-adv-x="960" 
d="M169 321v178h622v-178h-622z" />
    <glyph glyph-name="lessequal" unicode="&#x2264;" horiz-adv-x="1166" 
d="M160 0v143h846v-143h-846zM161 520v162l845 304v-166l-641 -218l641 -218v-168z" />
    <glyph glyph-name="greaterequal" unicode="&#x2265;" horiz-adv-x="1166" 
d="M160 0v143h846v-143h-846zM160 216v168l643 217l-643 219v166l846 -304v-162z" />
    <glyph glyph-name="commaaccent" unicode="&#xf004;" horiz-adv-x="564" 
d="M285 -363h-135l59 254h211z" />
    <glyph glyph-name="commaaccent" unicode="&#xf6c3;" horiz-adv-x="564" 
d="M285 -363h-135l59 254h211z" />
    <glyph glyph-name="commaaccent.1" horiz-adv-x="501" 
d="M245 1158h131l-58 -235h-203z" />
    <glyph glyph-name="caron.1" horiz-adv-x="501" 
d="M261 854h-131l57 235h204z" />
    </font>
</defs>
</svg>
