<?xml version="1.0" standalone="no"?>
<!DOCTYPE svg PUBLIC "-//W3C//DTD SVG 1.1//EN" "http://www.w3.org/Graphics/SVG/1.1/DTD/svg11.dtd" >
<svg xmlns="http://www.w3.org/2000/svg" xmlns:xlink="http://www.w3.org/1999/xlink" version="1.1">
<metadata>
Created by FontForge 20170731 at Sun Oct 20 04:40:13 2002
 By Aleksey,,,
Copyright (c) Terminal Design, Inc, 2002. All rights reserved.
</metadata>
<defs>
<font id="ClearviewHwy-One-W" horiz-adv-x="676" >
  <font-face 
    font-family="ClearviewHwy-1-W"
    font-weight="400"
    font-stretch="normal"
    units-per-em="1448"
    panose-1="2 0 9 4 6 0 0 2 0 4"
    ascent="1158"
    descent="-290"
    x-height="817"
    cap-height="1000"
    bbox="-120 -337 1265 1365"
    underline-thickness="50"
    underline-position="-150"
    unicode-range="U+0020-F6C3"
  />
<missing-glyph horiz-adv-x="599" 
 />
    <glyph glyph-name=".notdef" horiz-adv-x="599" 
 />
    <glyph glyph-name=".null" horiz-adv-x="0" 
 />
    <glyph glyph-name="nonmarkingreturn" horiz-adv-x="375" 
 />
    <glyph glyph-name="space" unicode=" " horiz-adv-x="400" 
 />
    <glyph glyph-name="space" unicode="&#xa0;" horiz-adv-x="400" 
 />
    <glyph glyph-name="exclam" unicode="!" horiz-adv-x="377" 
d="M267 80q0 -45 -22 -71t-56 -26q-32 0 -55.5 26t-23.5 71q0 43 23 68t56 25q34 0 56 -25.5t22 -67.5zM242 294h-105l-18 706h141z" />
    <glyph glyph-name="quotedbl" unicode="&#x22;" horiz-adv-x="557" 
d="M208 732h-81l-27 317h140zM425 732h-80l-27 317h139z" />
    <glyph glyph-name="numbersign" unicode="#" horiz-adv-x="755" 
d="M326 696l-17 -204h122l19 204h-124zM644 696h-97l-20 -204h103l-12 -113h-104l-17 -204h-100l20 204h-118l-18 -204h-95l17 204h-103l13 113h102l16 204h-103l11 111h104l17 193h96l-16 -193h122l18 193h98l-18 -193h95z" />
    <glyph glyph-name="dollar" unicode="$" horiz-adv-x="598" 
d="M508 305q0 -109 -40 -170t-110 -81v-123h-114v122q-16 1 -37.5 6.5t-43 14t-41 19t-32.5 21.5l42 126q35 -38 73 -59t83 -21t70.5 32.5t25.5 80.5q0 59 -13.5 92t-42.5 60l-109 89q-26 21 -48 43t-37.5 48t-24.5 58.5t-9 75.5q0 94 36 150t108 78v117h113v-117
q32 -5 67.5 -15.5t62.5 -28.5l-39 -121q-25 25 -55 39.5t-75 14.5q-41 0 -66.5 -28t-25.5 -79q0 -40 18 -70t50 -56l103 -82q48 -36 79.5 -92.5t31.5 -143.5z" />
    <glyph glyph-name="percent" unicode="%" horiz-adv-x="988" 
d="M794 270q0 38 -2 74.5t-8.5 64.5t-18.5 45t-31 17q-20 0 -31.5 -17t-18 -45t-8.5 -64.5t-2 -74.5t2.5 -74.5t9 -64.5t18 -45t30.5 -17t31 17t18.5 45t8.5 64.5t2 74.5zM878 271q0 -61 -8.5 -113t-26 -90t-44.5 -59.5t-65 -21.5t-65 21.5t-44.5 59.5t-26 90t-8.5 113
q0 62 9 114t27 90t45 59t63 21t63 -21t45 -59t27 -90t9 -114zM361 0h-87l349 1000h89zM316 732q0 39 -2 75.5t-8.5 65t-18.5 46t-31 17.5q-20 0 -32 -17.5t-19 -46t-9 -65t-2 -75.5q0 -38 2 -74t9 -64.5t19 -45.5t32 -17q18 0 30 17t18.5 45t9 64t2.5 75zM400 735
q0 -62 -8.5 -115t-26.5 -91t-45 -59.5t-64 -21.5q-38 0 -65 21.5t-44.5 59.5t-27 89.5t-9.5 116.5q0 62 10 113.5t28 88.5t45 58t63 21q35 0 62 -21t45 -58t27.5 -89t9.5 -113z" />
    <glyph glyph-name="ampersand" unicode="&#x26;" horiz-adv-x="725" 
d="M458 481h-116q-23 0 -41.5 -8t-31.5 -28.5t-20.5 -55t-7.5 -87.5q0 -94 26.5 -147.5t85.5 -53.5q61 0 83 56t22 175v149zM576 481v-157q0 -71 -11 -132.5t-37.5 -106.5t-70 -71t-108.5 -26q-59 0 -102 21.5t-71 61.5t-42 96.5t-14 126.5q0 99 31 166t86 84v4
q-47 26 -70 81t-23 133q0 63 15.5 110.5t43.5 79.5t65.5 48.5t82.5 16.5q32 0 62.5 -6t61.5 -22l-26 -112q-36 23 -88 23q-48 0 -72 -41.5t-24 -108.5q0 -45 10 -73.5t27 -45t40 -23t49 -6.5h67v135h118v-135h79v-121h-79z" />
    <glyph glyph-name="quotesingle" unicode="'" horiz-adv-x="340" 
d="M208 732h-79l-29 317h140z" />
    <glyph glyph-name="parenleft" unicode="(" horiz-adv-x="374" 
d="M161 -200q-20 91 -35.5 175.5t-25.5 167.5t-15 167.5t-5 174.5q0 89 5 172.5t14.5 167t25 168.5t36.5 176l93 -28q-15 -86 -26 -166t-18.5 -159.5t-11.5 -161.5t-4 -170q0 -90 3.5 -170.5t11 -159.5t18.5 -158.5t27 -166.5z" />
    <glyph glyph-name="parenright" unicode=")" horiz-adv-x="374" 
d="M294 485q0 -90 -5 -174.5t-15.5 -167.5t-25.5 -168t-35 -176l-93 30q16 87 27.5 166.5t18.5 158.5t10.5 159.5t3.5 170.5q0 88 -4 170t-11.5 161.5t-18.5 159.5t-26 166l93 28q20 -91 35.5 -176t25.5 -168.5t15 -167t5 -172.5z" />
    <glyph glyph-name="asterisk" unicode="*" horiz-adv-x="515" 
d="M314 829v-9l87 -102l-90 -66l-50 124h-5l-50 -124l-87 64l84 104v9l-123 17l33 110l107 -59l6 7l-23 145h108l-20 -143l2 -7l108 58l34 -110z" />
    <glyph glyph-name="plus" unicode="+" horiz-adv-x="627" 
d="M368 351v-255h-113v255h-175v117h175v250h113v-250h179v-117h-179z" />
    <glyph glyph-name="comma" unicode="," horiz-adv-x="338" 
d="M169 -194h-79l22 351h136z" />
    <glyph glyph-name="hyphen" unicode="-" horiz-adv-x="494" 
d="M120 381v134h254v-134h-254z" />
    <glyph glyph-name="hyphen" unicode="&#xad;" horiz-adv-x="494" 
d="M120 381v134h254v-134h-254z" />
    <glyph glyph-name="period" unicode="." horiz-adv-x="323" 
d="M233 83q0 -45 -20 -72.5t-50 -27.5q-31 0 -52 26.5t-21 73.5q0 45 21 70t52 25q30 0 50 -25.5t20 -69.5z" />
    <glyph glyph-name="slash" unicode="/" horiz-adv-x="545" 
d="M164 -173h-104l318 1258h107z" />
    <glyph glyph-name="zero" unicode="0" horiz-adv-x="712" 
d="M482 499q0 85 -5.5 157t-20 124.5t-39 82t-62.5 29.5t-62 -29.5t-38 -82t-19.5 -124.5t-5.5 -157q0 -84 5.5 -156t19.5 -124.5t38 -82t62 -29.5t62.5 29.5t39 82t20 124.5t5.5 156zM612 505q0 -108 -13.5 -203t-44 -166t-79.5 -112t-120 -41q-70 0 -118.5 41t-79 112
t-44 166t-13.5 203q0 112 15.5 205.5t47 161.5t79.5 106t113 38q67 0 115.5 -38t80 -106t46.5 -161.5t15 -205.5z" />
    <glyph glyph-name="one" unicode="1" horiz-adv-x="455" 
d="M204 0v794h-6l-87 -118l-71 73l172 255h113v-1004h-121z" />
    <glyph glyph-name="two" unicode="2" horiz-adv-x="546" 
d="M67 0l-17 138q74 105 129 193.5t91 164t53.5 139t17.5 117.5q0 61 -20 101t-70 40t-83 -25t-60 -66l-55 102q48 55 98 83.5t113 28.5q91 0 146.5 -66t55.5 -202q0 -68 -19 -136t-56 -143t-91.5 -159t-126.5 -184h292v-126h-398z" />
    <glyph glyph-name="three" unicode="3" horiz-adv-x="567" 
d="M467 287q0 -150 -59 -227t-163 -77q-52 0 -101.5 15t-93.5 47l41 119q34 -26 67 -42.5t74 -16.5q25 0 45.5 10t35 32.5t22.5 58.5t8 88q0 81 -26 126t-80 45h-68v121h23q60 0 98.5 35t38.5 119q0 152 -103 152q-31 0 -60 -15.5t-64 -43.5l-41 113q51 36 94.5 53t94.5 17
q90 0 145 -65t55 -195q0 -78 -24.5 -131t-78.5 -86v-3q65 -23 92.5 -86t27.5 -163z" />
    <glyph glyph-name="four" unicode="4" horiz-adv-x="643" 
d="M351 803l-167 -459h171v459h-4zM479 218v-218h-127v218h-254l-28 116l267 666h142v-656h84v-126h-84z" />
    <glyph glyph-name="five" unicode="5" horiz-adv-x="572" 
d="M482 342q0 -83 -14.5 -149.5t-44 -113t-73 -71.5t-100.5 -25q-46 0 -94.5 17.5t-85.5 55.5l48 105q21 -20 52.5 -38t71.5 -18q31 0 53 16.5t35.5 47t19.5 73t6 93.5q0 110 -24 168t-79 58q-33 0 -61.5 -19t-45.5 -64l-65 63l45 459h318v-131h-214l-27 -237h2q33 45 91 45
q88 0 137 -84t49 -251z" />
    <glyph glyph-name="six" unicode="6" horiz-adv-x="650" 
d="M438 324q0 45 -6 83.5t-18 66t-31 43.5t-45 16q-25 0 -44.5 -15.5t-33.5 -43t-21.5 -66.5t-7.5 -86q0 -46 6.5 -85.5t20 -69t33.5 -46t46 -16.5t45 17t31.5 46.5t18.5 69.5t6 86zM560 327q0 -75 -15.5 -138t-45 -109t-70.5 -71.5t-92 -25.5q-65 0 -110 35t-73.5 98
t-41 149.5t-12.5 188.5q0 279 64.5 420.5t190.5 141.5q43 0 76.5 -10t65.5 -32l-32 -115q-25 18 -50 27.5t-53 9.5q-29 0 -54 -18.5t-44 -60t-29.5 -109t-10.5 -166.5h2q16 47 50 75.5t80 28.5q48 0 86 -22t64 -63t40 -100t14 -134z" />
    <glyph glyph-name="seven" unicode="7" horiz-adv-x="537" 
d="M477 857q-36 -53 -62.5 -102t-45.5 -100.5t-31.5 -109t-19.5 -128.5t-10 -158.5t-3 -198.5v-60h-128v60q0 97 5.5 204.5t24.5 213.5t56.5 205.5t100.5 180.5v5h-304v131h404l13 -143v0z" />
    <glyph glyph-name="eight" unicode="8" 
d="M448 285q0 97 -31 142t-79 45t-79.5 -45t-31.5 -142q0 -87 27 -136.5t84 -49.5q59 0 84.5 49.5t25.5 136.5zM434 742q0 75 -22.5 118.5t-73.5 43.5q-50 0 -73 -43.5t-23 -118.5q0 -71 23.5 -115t71.5 -44q49 0 73 44t24 115zM576 287q0 -77 -17 -134t-48.5 -94.5
t-75 -56.5t-97.5 -19q-53 0 -97 19t-75.5 56.5t-48.5 94.5t-17 134q0 94 24.5 155t83.5 96v3q-24 19 -41 40t-28 47t-16 58t-5 74q0 65 17 113t46.5 80t69.5 47.5t86 15.5q47 0 87.5 -15.5t70 -47.5t46.5 -80t17 -113q0 -42 -5 -74t-16 -58t-27.5 -47t-40.5 -40v-3
q58 -35 82.5 -96t24.5 -155z" />
    <glyph glyph-name="nine" unicode="9" horiz-adv-x="646" 
d="M415 680q0 46 -6 85t-18 67.5t-31 45t-45 16.5q-49 0 -76.5 -58.5t-27.5 -156.5q0 -44 6 -81.5t18.5 -65t31.5 -43t45 -15.5t45.5 16t32 44t19 65.5t6.5 80.5zM546 519q0 -120 -12.5 -219t-42 -169.5t-78.5 -109t-121 -38.5q-40 0 -76 10.5t-74 33.5l36 116
q29 -20 54.5 -30t56.5 -10q72 0 105.5 96t33.5 272h-3q-17 -62 -49.5 -92t-77.5 -30q-47 0 -85.5 25.5t-65.5 69.5t-42 103.5t-15 128.5q0 67 15.5 129t45 108.5t72 74.5t96.5 28q64 0 107.5 -36.5t70 -102t38 -157t11.5 -201.5z" />
    <glyph glyph-name="colon" unicode=":" horiz-adv-x="323" 
d="M233 83q0 -45 -19.5 -72.5t-50.5 -27.5q-32 0 -52.5 26.5t-20.5 73.5q0 45 21 70t52 25t50.5 -25.5t19.5 -69.5zM233 609q0 -44 -19.5 -71.5t-50.5 -27.5q-32 0 -52.5 27t-20.5 72t21 70.5t52 25.5t50.5 -26t19.5 -70z" />
    <glyph glyph-name="semicolon" unicode=";" horiz-adv-x="338" 
d="M169 -194h-79l22 351h136zM234 609q0 -45 -19.5 -72.5t-50.5 -27.5q-32 0 -52.5 27t-20.5 73q0 45 21 70.5t52 25.5t50.5 -26t19.5 -70z" />
    <glyph glyph-name="less" unicode="&#x3c;" horiz-adv-x="719" 
d="M100 330v139l509 330v-133l-408 -265l408 -270v-131z" />
    <glyph glyph-name="equal" unicode="=" horiz-adv-x="531" 
d="M80 181v137h371v-137h-371zM80 451v138h371v-138h-371z" />
    <glyph glyph-name="greater" unicode="&#x3e;" horiz-adv-x="719" 
d="M100 0v131l408 267l-408 268v133l509 -330v-139z" />
    <glyph glyph-name="question" unicode="?" horiz-adv-x="578" 
d="M318 83q0 -45 -19.5 -72.5t-50.5 -27.5q-32 0 -52.5 26.5t-20.5 73.5q0 45 20.5 70t52.5 25q31 0 50.5 -25.5t19.5 -69.5zM478 752q0 -49 -7 -87.5t-19.5 -69t-30 -55t-38.5 -45.5l-45 -47q-12 -12 -18.5 -20.5t-9.5 -18.5t-3.5 -24.5t-0.5 -38.5v-82h-114v112
q0 36 2 58.5t7.5 39t15.5 29.5t27 29l45 39q29 26 47.5 63t18.5 101q0 34 -5.5 63t-17 50.5t-29 33.5t-41.5 12q-65 0 -120 -65l-42 111q45 38 86.5 57t92.5 19q96 0 147.5 -70t51.5 -194z" />
    <glyph glyph-name="at" unicode="@" horiz-adv-x="932" 
d="M537 562q2 23 1 44t-8 36.5t-20 25t-34 9.5q-45 0 -66 -61t-21 -177q0 -61 13.5 -93t44.5 -32q22 0 37 11t24 30.5t13.5 44.5t6.5 54l9 108v0zM802 583q0 -107 -17.5 -176t-44 -109t-57 -55.5t-57.5 -15.5q-11 0 -24 3t-25 11.5t-21 24t-13 39.5h-3q-17 -40 -47 -58.5
t-62 -18.5q-27 0 -50.5 12t-40.5 38.5t-27 69t-10 103.5q0 65 11 122t33 99t53.5 66t73.5 24q30 0 51 -15t28 -40h4l4 50h77l-31 -403q-2 -18 6 -35.5t25 -17.5q16 0 32.5 15t30 49.5t22.5 89.5t9 136q0 82 -15.5 148t-45 112t-71.5 70.5t-96 24.5q-69 0 -125.5 -35.5
t-96.5 -99t-61.5 -150.5t-21.5 -190q0 -109 18 -190.5t51.5 -135.5t81 -81t106.5 -27t106 27.5t86 75.5l30 -68q-23 -28 -50.5 -48t-57.5 -32.5t-60.5 -18.5t-60.5 -6q-67 0 -125.5 26.5t-101.5 86.5t-67.5 157.5t-24.5 238.5q0 134 31.5 235t84 169t119.5 102t139 34
q61 0 115.5 -26t95 -79t64 -134.5t23.5 -193.5z" />
    <glyph glyph-name="A" unicode="A" horiz-adv-x="705" 
d="M355 853h-8l-80 -485h168zM497 0l-45 244h-202l-46 -244h-134l202 1003h160l203 -1003h-138z" />
    <glyph glyph-name="B" unicode="B" horiz-adv-x="689" 
d="M470 288q0 50 -8 83.5t-23.5 53.5t-39.5 28t-57 8q-23 0 -45 -1t-39 -3v-339q21 -2 41 -2.5t42 -0.5q38 0 63 8t39.5 28t20.5 53.5t6 83.5zM448 726q0 75 -25 119.5t-88 44.5q-20 0 -38.5 -2t-37.5 -4v-312q14 -1 34.5 -2t35.5 -1q31 0 53.5 7.5t37 25.5t21.5 48.5
t7 75.5zM599 282q0 -282 -227 -282h-242v994q46 8 93 12.5t112 4.5q52 0 96.5 -15t76 -48t49.5 -84.5t18 -123.5q0 -78 -22.5 -132.5t-76.5 -81.5v-3q35 -9 58.5 -32.5t38 -56.5t20.5 -72.5t6 -79.5z" />
    <glyph glyph-name="C" unicode="C" horiz-adv-x="654" 
d="M594 118q-16 -26 -38 -50.5t-49 -43.5t-59.5 -30t-69.5 -11q-79 0 -132 43t-85.5 115t-46.5 165.5t-14 194.5q0 93 14 185t47 165.5t87.5 119t135.5 45.5q63 0 110 -33.5t92 -96.5l-77 -103q-29 51 -57 78.5t-70 27.5q-41 0 -69 -30t-46 -82.5t-26 -123.5t-8 -152
q0 -37 2 -81t8 -87t16.5 -83.5t27.5 -71.5t41 -49.5t57 -18.5q45 0 78 29t65 82l66 -103v0z" />
    <glyph glyph-name="D" unicode="D" horiz-adv-x="721" 
d="M488 511q0 88 -9 158t-27 119t-48.5 75.5t-73.5 26.5q-17 0 -35 -1t-37 -5v-761q17 -2 33 -2h31q47 0 79 26.5t51 76.5t27.5 122.5t8.5 164.5zM621 504q0 -114 -17 -207t-54 -159t-96 -102t-144 -36h-180v995q41 7 93 11.5t104 4.5q81 0 137 -40t91 -109t50.5 -161
t15.5 -197z" />
    <glyph glyph-name="E" unicode="E" horiz-adv-x="583" 
d="M130 0v1000h354v-124h-226v-291h202v-124h-202v-337h235v-124h-363z" />
    <glyph glyph-name="F" unicode="F" horiz-adv-x="558" 
d="M258 876v-291h196v-124h-196v-461h-128v1000h348v-124h-220z" />
    <glyph glyph-name="G" unicode="G" horiz-adv-x="716" 
d="M616 452q0 -52 -2.5 -107t-10.5 -107t-23.5 -98.5t-42 -81t-66 -55t-94.5 -20.5t-97 22.5t-72.5 60.5t-51.5 89t-33.5 108.5t-17.5 118t-5 117.5q0 58 5.5 118.5t18.5 118t34.5 108.5t53 89t74 60.5t98.5 22.5q60 0 108 -31.5t90 -84.5l-73 -107q-13 20 -26 37.5
t-28 30.5t-33 20.5t-40 7.5q-35 0 -59.5 -20t-41 -53t-26 -74.5t-14.5 -84.5t-6.5 -84t-1.5 -72q0 -37 1 -81t5.5 -88.5t13.5 -85.5t25.5 -73t41 -51t59.5 -19q46 0 70.5 28.5t35 73t12 99.5t1.5 111h-110v124h228v-87v0z" />
    <glyph glyph-name="H" unicode="H" horiz-adv-x="728" 
d="M470 0v460h-212v-460h-128v1000h128v-415h212v415h128v-1000h-128z" />
    <glyph glyph-name="I" unicode="I" horiz-adv-x="388" 
d="M130 0v1000h128v-1000h-128z" />
    <glyph glyph-name="J" unicode="J" horiz-adv-x="513" 
d="M383 224q0 -118 -45 -180t-135 -62q-40 0 -77 13.5t-66 38.5l43 114q22 -19 43 -28.5t44 -9.5q41 0 53 32.5t12 89.5v768h128v-776v0z" />
    <glyph glyph-name="K" unicode="K" horiz-adv-x="673" 
d="M465 0l-148 438l-59 -116v-322h-128v1000h128v-458h6l184 458h144l-188 -437l209 -563h-148z" />
    <glyph glyph-name="L" unicode="L" horiz-adv-x="545" 
d="M130 0v1000h128v-876h207v-124h-335z" />
    <glyph glyph-name="M" unicode="M" horiz-adv-x="824" 
d="M572 0v718h-4l-156 -401l-155 398h-6v-715h-121v1000h131l151 -393l152 393h130v-1000h-122z" />
    <glyph glyph-name="N" unicode="N" horiz-adv-x="770" 
d="M526 0l-271 672h-4v-672h-121v1000h127l260 -670h2v670h121v-1000h-114z" />
    <glyph glyph-name="O" unicode="O" horiz-adv-x="778" 
d="M545 502q0 88 -8 160t-26.5 123t-48.5 79t-74 28q-43 0 -72.5 -28.5t-48 -80t-26.5 -123.5t-8 -158q0 -89 8 -162t26.5 -124.5t49 -80t74.5 -28.5q43 0 72.5 29t47.5 81.5t26 125t8 159.5zM678 501q0 -112 -17.5 -207t-52.5 -164t-89.5 -108t-130.5 -39q-75 0 -129.5 39
t-90 108t-52 164t-16.5 207q0 111 16.5 205.5t51.5 163t89.5 107.5t130.5 39t130.5 -39t89.5 -107.5t52.5 -163t17.5 -205.5z" />
    <glyph glyph-name="P" unicode="P" horiz-adv-x="658" 
d="M450 689q0 105 -23.5 152.5t-86.5 47.5q-20 0 -39.5 -2t-42.5 -6v-391h76q35 0 57.5 11.5t35.5 36t18 62t5 89.5zM578 689q0 -164 -55 -242.5t-178 -78.5h-87v-368h-128v995q25 3 48 6t46.5 5t49 3t54.5 1q61 0 107.5 -17.5t78 -55.5t48 -99.5t16.5 -148.5z" />
    <glyph glyph-name="Q" unicode="Q" horiz-adv-x="776" 
d="M545 502q0 88 -8 160t-26.5 123t-48.5 79t-74 28q-43 0 -72.5 -28.5t-48 -80t-26.5 -123t-8 -158.5q0 -90 8 -163t26.5 -124.5t49 -79t74.5 -27.5q43 0 72.5 27.5t47.5 79t26 124.5t8 163zM676 502q0 -69 -6 -134.5t-20 -122.5t-36.5 -104t-55.5 -81v-2q12 -6 20.5 -16
t17.5 -21t22 -22t35 -19l-45 -120q-33 8 -58 29t-44.5 42.5t-35 38.5t-29.5 17q-5 0 -17.5 -2t-23.5 -2q-78 0 -135 37t-93.5 104.5t-54 163.5t-17.5 214q0 111 16.5 205t52 162.5t90 107.5t129.5 39t129.5 -38.5t90 -107t52 -163t16.5 -205.5z" />
    <glyph glyph-name="R" unicode="R" horiz-adv-x="691" 
d="M458 707q0 33 -4.5 66t-18 59t-37 42t-61.5 16q-20 0 -39.5 -1t-39.5 -5v-353h93q55 0 81 41t26 135zM457 0l-70 355q-6 28 -12.5 42.5t-23.5 14.5h-93v-412h-128v995q29 4 54 7t49.5 4.5t49 2.5t51.5 1q124 0 188 -75.5t64 -219.5q0 -106 -29 -165.5t-79 -88.5v-2
q9 -4 14 -17t9 -30l90 -412h-134z" />
    <glyph glyph-name="S" unicode="S" horiz-adv-x="606" 
d="M516 284q0 -148 -61.5 -224.5t-166.5 -76.5q-71 0 -122 18t-96 56l40 127q38 -35 77.5 -59t90.5 -24q22 0 43 9t37.5 28.5t26.5 50t10 73.5q0 45 -12.5 78t-32.5 58.5t-47 46t-55 39.5q-29 19 -56.5 41t-49.5 52t-35 71t-13 100q0 63 17 112.5t45.5 83.5t67 52t80.5 18
q53 0 98.5 -14t86.5 -49l-30 -124q-33 37 -66 52t-75 15q-45 0 -74 -32.5t-29 -95.5q0 -35 9 -60t24.5 -44.5t36 -35t43.5 -30.5q32 -21 65.5 -46.5t60.5 -61t44.5 -85t17.5 -119.5z" />
    <glyph glyph-name="T" unicode="T" horiz-adv-x="524" 
d="M326 876v-876h-127v876h-149v124h424v-124h-148z" />
    <glyph glyph-name="U" unicode="U" horiz-adv-x="739" 
d="M609 397q0 -102 -10 -179.5t-36.5 -129.5t-73 -78.5t-119.5 -26.5q-72 0 -118.5 26.5t-73.5 78.5t-37.5 129.5t-10.5 179.5v603h128v-643q0 -65 5 -112t17.5 -77.5t34 -45t55.5 -14.5t55.5 14.5t34 45t17 77.5t4.5 112v643h128v-603v0z" />
    <glyph glyph-name="V" unicode="V" horiz-adv-x="672" 
d="M416 0h-165l-181 1000h137l127 -855h1l132 855h135z" />
    <glyph glyph-name="W" unicode="W" horiz-adv-x="961" 
d="M750 0h-154l-115 710h-6l-107 -710h-154l-134 1000h134l78 -822h5l127 822h114l131 -822h3l75 822h134z" />
    <glyph glyph-name="X" unicode="X" horiz-adv-x="624" 
d="M438 0l-123 385h-3l-121 -385h-141l186 519l-167 481h143l107 -363h3l105 363h137l-167 -492l177 -508h-136z" />
    <glyph glyph-name="Y" unicode="Y" horiz-adv-x="618" 
d="M373 381v-381h-128v374l-195 626h136l122 -478l130 478h130z" />
    <glyph glyph-name="Z" unicode="Z" horiz-adv-x="545" 
d="M70 0v120l264 753h-248v127h382v-119l-263 -757h270v-124h-405z" />
    <glyph glyph-name="bracketleft" unicode="[" horiz-adv-x="400" 
d="M90 -181v1334h200v-104h-87v-1127h87v-103h-200z" />
    <glyph glyph-name="backslash" unicode="\" horiz-adv-x="545" 
d="M381 -173h104l-318 1258h-107z" />
    <glyph glyph-name="bracketright" unicode="]" horiz-adv-x="403" 
d="M110 -181v103h89v1127h-89v104h203v-1334h-203z" />
    <glyph glyph-name="asciicircum" unicode="^" horiz-adv-x="582" 
d="M454 786l-166 117l-170 -117l-60 81l227 161l231 -161z" />
    <glyph glyph-name="underscore" unicode="_" horiz-adv-x="504" 
d="M50 -230v107h404v-107h-404z" />
    <glyph glyph-name="grave" unicode="`" horiz-adv-x="382" 
d="M250 899l-180 134l107 82l137 -172z" />
    <glyph glyph-name="a" unicode="a" horiz-adv-x="662" 
d="M409 427q-101 0 -149 -48.5t-48 -143.5q0 -30 4.5 -55t14 -43.5t24.5 -29t36 -10.5q28 0 58.5 13.5t59.5 57.5v259zM482 -10q-29 10 -46.5 34t-19.5 57h-1q-31 -46 -67 -69.5t-87 -23.5q-41 0 -73 17.5t-54 49t-33 76t-11 97.5q0 82 26 139t70.5 92t102 51t120.5 16v97
q0 18 -3.5 35t-12.5 29.5t-24.5 20t-39.5 7.5q-51 0 -94.5 -18.5t-84.5 -48.5l-28 116q51 32 103.5 48.5t111.5 16.5q57 0 94.5 -14.5t60 -44.5t32 -75.5t9.5 -106.5v-417q0 -41 4.5 -65.5t24.5 -41.5z" />
    <glyph glyph-name="b" unicode="b" horiz-adv-x="685" 
d="M459 405q0 70 -4 127.5t-15 98t-31 62.5t-53 22q-50 0 -75.5 -47.5t-25.5 -135.5v-232q0 -38 5 -74t17 -64t31 -44.5t48 -16.5q30 0 49.5 23.5t31.5 64.5t17 96.5t5 119.5zM585 406q0 -76 -9.5 -150.5t-33 -134t-62 -96.5t-95.5 -37q-45 0 -80.5 27.5t-54.5 77.5h-3
l-9 -93h-108v1085h125v-340q23 46 54.5 65t72.5 19q102 0 152.5 -110t50.5 -313z" />
    <glyph glyph-name="c" unicode="c" horiz-adv-x="585" 
d="M458 656q-26 32 -51 45.5t-56 13.5q-42 0 -66.5 -29t-37 -73t-16 -98t-3.5 -103t3.5 -103.5t16.5 -100.5t38.5 -76.5t68.5 -30.5q34 0 61.5 15.5t54.5 41.5l44 -105q-40 -35 -83.5 -50t-93.5 -15q-71 0 -117 36.5t-73 96.5t-37.5 136t-10.5 154q0 76 12 150.5t40.5 134
t76.5 96.5t120 37q45 0 83.5 -15t76.5 -47z" />
    <glyph glyph-name="d" unicode="d" horiz-adv-x="688" 
d="M431 532q0 88 -24.5 135.5t-75.5 47.5q-32 0 -52 -22t-31.5 -62.5t-15.5 -98t-4 -127.5q0 -64 5 -119.5t16.5 -96.5t31.5 -64.5t50 -23.5t49.5 17t31 44t15.5 60.5t4 66.5v243zM444 0l-3 93h-3q-28 -57 -60 -81t-80 -24q-57 0 -95 37t-61 96.5t-32.5 134t-9.5 150.5
q0 204 51.5 313.5t153.5 109.5q42 0 72.5 -19t53.5 -65v340h127v-1085h-114z" />
    <glyph glyph-name="e" unicode="e" horiz-adv-x="661" 
d="M442 462q0 50 -4.5 96t-15.5 81.5t-31 57t-53 21.5q-58 0 -84 -65t-26 -191h214v0zM561 414q0 -10 -1 -25.5t-2 -30.5h-330q0 -126 31.5 -191.5t95.5 -65.5q38 0 71.5 13.5t63.5 42.5l45 -106q-43 -34 -90 -48.5t-98 -14.5q-247 0 -247 420q0 109 17.5 188.5t49 131
t76 76.5t97.5 25q49 0 89.5 -21.5t70 -70.5t45.5 -128.5t16 -194.5z" />
    <glyph glyph-name="f" unicode="f" horiz-adv-x="435" 
d="M375 976q-8 3 -23.5 4t-23.5 1q-38 0 -48 -18.5t-10 -56.5v-99h100v-121h-100v-686h-126v686h-74v121h74v52q0 61 7 105.5t25 73.5t50 42.5t82 13.5q15 0 35.5 -2t31.5 -5v-111v0z" />
    <glyph glyph-name="g" unicode="g" horiz-adv-x="689" 
d="M436 519q0 32 -4.5 67t-16 63.5t-31.5 47t-51 18.5q-30 0 -50 -22.5t-32.5 -62.5t-17.5 -96t-5 -122q0 -37 3 -86.5t13.5 -94.5t30.5 -76.5t55 -31.5q38 0 59 25.5t31.5 62.5t13 78t2.5 72v158zM559 -7q0 -61 -6.5 -117.5t-28.5 -99.5t-64 -69t-113 -26q-60 0 -115 16.5
t-99 42.5l43 122q35 -26 73.5 -39.5t91.5 -13.5q28 0 46 7.5t28.5 25.5t15 47.5t4.5 73.5v138h-4q-20 -47 -53.5 -70.5t-76.5 -23.5q-44 0 -81 23.5t-63.5 72.5t-41.5 124t-15 179q0 77 9 153t32 136t62.5 97t101.5 37q45 0 77 -22.5t54 -71.5h2l6 82h115v-824v0z" />
    <glyph glyph-name="h" unicode="h" horiz-adv-x="698" 
d="M443 0v472q0 46 -0.5 88.5t-8 75t-25 52t-51.5 19.5q-30 0 -50 -14.5t-32 -41.5t-16.5 -64.5t-4.5 -82.5v-504h-125v1085h125v-339q23 48 60 65.5t82 17.5q52 0 85.5 -21t52.5 -63t26 -105.5t7 -149.5v-490h-125z" />
    <glyph glyph-name="i" unicode="i" horiz-adv-x="375" 
d="M265 1027q0 -41 -21 -65.5t-56 -24.5q-37 0 -57.5 24.5t-20.5 65.5q0 40 20.5 64t57.5 24q35 0 56 -24t21 -64zM125 0v817h124v-817h-124z" />
    <glyph glyph-name="j" unicode="j" horiz-adv-x="377" 
d="M251 9q0 -66 -5.5 -125t-24.5 -103t-56.5 -69.5t-101.5 -25.5q-16 0 -31 2t-32 5v124q12 -2 25.5 -2.5t22.5 -0.5q32 0 48 14t23 39.5t7 62.5v83v804h125v-808v0zM267 1027q0 -41 -21 -65.5t-56 -24.5q-37 0 -58 24.5t-21 65.5q0 40 21 64t58 24q35 0 56 -24t21 -64z" />
    <glyph glyph-name="k" unicode="k" horiz-adv-x="630" 
d="M424 0l-114 355l-59 -118l2 -237h-123v1085h125l-1 -643h4l161 375h133l-155 -346l163 -471h-136z" />
    <glyph glyph-name="l" unicode="l" horiz-adv-x="408" 
d="M328 0q-17 -5 -38 -7t-37 -2q-35 0 -58.5 8.5t-37.5 29t-20.5 54.5t-6.5 84v918h125v-885q0 -26 2.5 -42t9 -24t17.5 -10.5t28 -2.5h16v-121v0z" />
    <glyph glyph-name="m" unicode="m" horiz-adv-x="993" 
d="M739 0v499q0 48 -1.5 86.5t-9 65.5t-24 41.5t-46.5 14.5q-28 0 -46.5 -13t-30 -37t-16.5 -58.5t-5 -78.5v-520h-125v499q0 47 -1.5 85.5t-9 65.5t-24 42t-46.5 15q-56 0 -77.5 -49.5t-21.5 -137.5v-520h-125v817h115l5 -80h3q23 48 57 70t82 22q49 0 84.5 -22.5
t55.5 -84.5q14 34 31 55t36.5 32.5t41.5 15.5t46 4q47 0 80.5 -18t54.5 -56.5t31 -99.5t10 -147v-508h-124z" />
    <glyph glyph-name="n" unicode="n" horiz-adv-x="698" 
d="M443 0v493q0 49 -0.5 89t-8 67.5t-25 42.5t-51.5 15q-30 0 -50 -14.5t-32 -41.5t-16.5 -64.5t-4.5 -82.5v-504h-125v817h112l8 -80h1q25 52 61.5 72t84.5 20q52 0 85.5 -20.5t52.5 -62.5t26 -105.5t7 -148.5v-492h-125z" />
    <glyph glyph-name="o" unicode="o" 
d="M448 405q0 54 -2.5 108t-13.5 97.5t-33.5 71t-61.5 27.5t-61 -27.5t-32.5 -71t-13 -97.5t-2.5 -108q0 -69 4 -125t15.5 -95.5t33 -60.5t56.5 -21t56.5 21.5t33.5 60.5t16.5 95t4.5 125zM576 408q0 -100 -15 -178t-44.5 -132t-74 -82t-105.5 -28q-121 0 -179 109.5
t-58 310.5t58 311t179 110t180 -110t59 -311z" />
    <glyph glyph-name="p" unicode="p" horiz-adv-x="685" 
d="M459 406v56q0 33 -2.5 67.5t-8.5 67.5t-18 59.5t-31 42.5t-47 16q-33 0 -52 -18.5t-29.5 -47.5t-13.5 -64t-3 -68v-209q0 -31 3.5 -67.5t14 -67.5t30.5 -51.5t53 -20.5q26 0 43.5 16.5t29 43t18 60t9.5 67.5t3.5 65t0.5 53zM585 408q0 -40 -3.5 -87t-12 -93.5t-23 -90
t-37 -76.5t-53.5 -53t-72 -20q-42 0 -74.5 17t-54.5 64v-377h-125v1125h114l7 -77h2q21 48 54.5 68.5t76.5 20.5t74.5 -20t53.5 -53t36.5 -76t22.5 -90t11 -94t3 -88z" />
    <glyph glyph-name="q" unicode="q" horiz-adv-x="692" 
d="M434 517q0 92 -22.5 145t-76.5 53q-33 0 -54 -21.5t-33 -62t-16 -97.5t-4 -129q0 -60 4.5 -115t16 -97t32 -67t52.5 -25q33 0 53 22.5t30.5 56t14 72t3.5 70.5v195zM518 -337q-30 13 -46.5 35t-24.5 49.5t-10 60t-2 66.5v198h-4q-20 -45 -52 -64.5t-75 -19.5
q-50 0 -88 30t-64 85t-39 132.5t-13 172.5q0 74 9.5 149t32.5 135.5t61.5 98.5t97.5 38q47 0 80 -20.5t53 -68.5h2l8 77h115v-922q0 -34 1 -55.5t5 -35.5t13 -22.5t24 -16.5z" />
    <glyph glyph-name="r" unicode="r" horiz-adv-x="488" 
d="M381 683q-60 0 -93 -39.5t-33 -137.5v-506h-125v817h117l6 -94h1q20 53 52 79.5t80 26.5h32v-146h-37z" />
    <glyph glyph-name="s" unicode="s" horiz-adv-x="562" 
d="M482 225q0 -63 -15.5 -107.5t-43.5 -73.5t-67.5 -42.5t-87.5 -13.5q-58 0 -109 17t-89 49l48 107q13 -12 30.5 -24t36 -22t38 -16t37.5 -6q56 0 80.5 33t24.5 87q0 30 -11.5 53.5t-30.5 43t-42 35.5t-47 33q-26 18 -52 39.5t-47 49.5t-34 63.5t-13 81.5q0 58 17 99
t45.5 67t65.5 38.5t77 12.5q46 0 91 -9.5t81 -32.5l-30 -114q-28 24 -62 35t-69 11q-43 0 -71.5 -27.5t-28.5 -75.5q0 -25 9 -45t24 -37t34 -31t40 -27q29 -18 59.5 -40.5t55 -52.5t40.5 -68.5t16 -89.5z" />
    <glyph glyph-name="t" unicode="t" horiz-adv-x="451" 
d="M369 0q-16 -3 -43 -4.5t-51 -1.5q-44 0 -71 13.5t-41.5 42t-19.5 73t-5 107.5v456h-78v121h84v221h121v-221h106v-121h-106v-495q0 -26 2.5 -41.5t9.5 -24.5t20 -12t34 -3h38v-110v0z" />
    <glyph glyph-name="u" unicode="u" horiz-adv-x="697" 
d="M448 0l-5 81h-1q-29 -53 -67 -73t-86 -20q-45 0 -75.5 17t-49 52.5t-26.5 91t-8 133.5v535h125v-519q0 -38 2.5 -72t11.5 -59.5t25 -41t43 -15.5q26 0 46 10.5t33 33.5t19.5 61t6.5 93v509h125v-817h-119z" />
    <glyph glyph-name="v" unicode="v" horiz-adv-x="612" 
d="M392 0h-165l-157 817h131l107 -702h3l106 702h125z" />
    <glyph glyph-name="w" unicode="w" horiz-adv-x="925" 
d="M725 0h-158l-101 581h-6l-104 -581h-157l-119 817h126l77 -645h6l110 645h129l109 -645h5l78 645h125z" />
    <glyph glyph-name="x" unicode="x" horiz-adv-x="593" 
d="M398 0l-103 330h-3l-104 -330h-128l151 424l-135 393h133l90 -300h3l90 300h126l-136 -389l151 -428h-135z" />
    <glyph glyph-name="y" unicode="y" horiz-adv-x="612" 
d="M365 -69q-11 -56 -25.5 -102t-35 -79t-49.5 -51t-69 -18q-20 0 -39 1t-37 6v125q8 -2 22 -3t25 -1q16 0 27.5 3.5t19.5 13t13.5 25.5t10.5 42l15 76l-173 848h131l107 -674h2l105 674h127z" />
    <glyph glyph-name="z" unicode="z" horiz-adv-x="510" 
d="M80 0v118l220 578h-210v121h334v-131l-213 -565h219v-121h-350z" />
    <glyph glyph-name="braceleft" unicode="{" horiz-adv-x="431" 
d="M269 -184q-36 0 -62.5 8.5t-43 30.5t-24.5 61t-8 101v275q0 55 -9.5 86t-41.5 41v117q30 9 40.5 40.5t10.5 85.5v288q0 62 8 101.5t24.5 62t43 31t62.5 8.5h52v-104h-19q-20 0 -31.5 -4.5t-17.5 -17.5t-8 -37.5t-2 -63.5v-286q0 -31 -1.5 -53.5t-7 -40.5t-14.5 -34
t-24 -34q15 -18 24 -34t14.5 -34t7 -41t1.5 -54v-273q0 -39 2 -63.5t8 -37.5t17.5 -17.5t31.5 -4.5h19v-103h-52z" />
    <glyph glyph-name="bar" unicode="|" horiz-adv-x="327" 
d="M120 -330v1379h87v-1379h-87z" />
    <glyph glyph-name="braceright" unicode="}" horiz-adv-x="432" 
d="M352 419q-32 -10 -41.5 -41t-9.5 -86v-275q0 -62 -8 -101t-25 -61t-42.5 -30.5t-61.5 -8.5h-54v103h19q19 0 31 4.5t18 17.5t8 37.5t2 63.5v273q0 31 1.5 54t7 41t14.5 34t24 34q-15 18 -24 34t-14.5 34t-7 40.5t-1.5 53.5v286q0 39 -2 63.5t-8 37.5t-18 17.5t-31 4.5
h-19v104h54q36 0 61.5 -8.5t42.5 -31t25 -62t8 -101.5v-288q0 -54 10 -85.5t41 -40.5v-117v0z" />
    <glyph glyph-name="asciitilde" unicode="~" horiz-adv-x="640" 
d="M571 929q-20 -57 -57 -87t-85 -30q-29 0 -56 10t-53 22t-51 22t-49 10q-27 0 -42.5 -13t-30.5 -53l-79 46q14 33 28.5 55t31 35.5t36.5 19t46 5.5q28 0 55 -10t52.5 -21.5t50.5 -21.5t50 -10q23 0 41 15t32 50l80 -44v0z" />
    <glyph glyph-name="exclamdown" unicode="&#xa1;" horiz-adv-x="330" 
d="M234 675q0 -43 -19.5 -66.5t-48.5 -23.5t-47.5 24t-18.5 66t18.5 66.5t47.5 24.5t48.5 -24t19.5 -67zM100 -248l18 705h97l19 -705h-134z" />
    <glyph glyph-name="cent" unicode="&#xa2;" horiz-adv-x="572" 
d="M502 181q-32 -26 -60.5 -41t-66.5 -20v-120h-101v123q-52 15 -86 54.5t-53.5 92.5t-27 115t-7.5 123q0 62 8 123t28 112.5t53.5 89t84.5 53.5v115h101v-111q35 -5 61 -19.5t53 -37.5l-41 -124q-25 26 -48 41.5t-58 15.5q-39 0 -61.5 -27t-34.5 -66.5t-15.5 -84.5
t-3.5 -82t4 -82.5t16.5 -85.5t35.5 -67t62 -27q35 0 63 17.5t54 42.5l40 -123v0z" />
    <glyph glyph-name="sterling" unicode="&#xa3;" horiz-adv-x="551" 
d="M90 0v127h13q20 0 32.5 11.5t20 31.5t10.5 48.5t3 63.5q0 48 -5 96.5t-7 96.5h-67v124h55q-4 48 -8 95t-4 95q0 120 49.5 172.5t133.5 52.5q80 0 154 -47l-22 -137q-23 24 -50.5 37.5t-59.5 13.5q-44 0 -61.5 -32t-17.5 -93q0 -38 3 -77.5t7 -79.5h123v-124h-112
q5 -50 10.5 -100t5.5 -101q0 -45 -4 -75.5t-15 -58.5v-3h204v-137h-391z" />
    <glyph glyph-name="currency" unicode="&#xa4;" horiz-adv-x="664" 
d="M60 335l23 100h58q-1 15 -1 31v35v32q0 17 1 32h-72l23 98h57q8 71 26 135t48.5 112.5t74.5 77t106 28.5q63 0 110.5 -33.5t91.5 -96.5l-78 -99q-30 51 -57.5 75t-70.5 24q-56 0 -84.5 -57.5t-39.5 -165.5h232l-22 -98h-217v-64v-33t1 -33h207l-20 -100h-181
q4 -42 12.5 -81.5t23.5 -70.5t37.5 -50t54.5 -19q45 0 78.5 27t65.5 80l66 -103q-16 -26 -38 -50.5t-49 -43.5t-59.5 -30t-69.5 -11q-59 0 -102.5 27.5t-73 75t-47.5 111.5t-26 138h-89z" />
    <glyph glyph-name="yen" unicode="&#xa5;" horiz-adv-x="607" 
d="M426 575h101v-109h-136l-22 -71v-83h158v-111h-158v-201h-128v201h-157v111h157v79l-23 75h-134v109h98l-132 425h127l129 -478l126 478h125z" />
    <glyph glyph-name="brokenbar" unicode="&#xa6;" horiz-adv-x="308" 
d="M110 -330v584h88v-584h-88zM110 466v583h88v-583h-88z" />
    <glyph glyph-name="section" unicode="&#xa7;" horiz-adv-x="550" 
d="M360 438q0 53 -21 75.5t-60 22.5q-40 0 -61.5 -22t-21.5 -76q0 -53 22 -76.5t61 -23.5t60 23t21 77zM460 457q0 -32 -6 -62.5t-19.5 -56t-36 -42.5t-55.5 -22v-3q54 -32 85.5 -90.5t31.5 -124.5q0 -114 -47 -162t-132 -48q-51 0 -94.5 21.5t-84.5 59.5l35 120
q35 -38 69 -59t74 -21q33 0 50.5 17.5t17.5 65.5q0 20 -4.5 35t-14.5 29t-26.5 29.5t-41.5 36.5q-16 13 -31.5 25t-32.5 26q-21 18 -40.5 36.5t-34 41.5t-23.5 53.5t-9 72.5q0 34 7.5 63.5t22.5 52t36.5 36.5t49.5 17v6q-50 29 -78.5 77t-28.5 120q0 52 13.5 91t38 65.5
t57.5 39.5t72 13q40 0 77.5 -10.5t80.5 -37.5l-28 -124q-28 23 -56 35.5t-57 12.5q-31 0 -50.5 -19t-19.5 -61q0 -29 15 -57.5t62 -61.5q18 -12 35.5 -24t34.5 -23q40 -28 63 -71.5t23 -117.5z" />
    <glyph glyph-name="dieresis" unicode="&#xa8;" horiz-adv-x="464" 
d="M204 996q0 -35 -20.5 -60.5t-49.5 -25.5t-49.5 25.5t-20.5 60.5t20.5 60t49.5 25t49.5 -25t20.5 -60zM443 996q0 -35 -20 -60.5t-50 -25.5q-28 0 -49.5 25.5t-21.5 60.5t21.5 60t49.5 25q30 0 50 -25t20 -60z" />
    <glyph glyph-name="copyright" unicode="&#xa9;" horiz-adv-x="1028" 
d="M706 258q-43 -48 -86.5 -69.5t-97.5 -21.5q-60 0 -105.5 24t-75.5 68.5t-45.5 106.5t-15.5 138q0 78 16 139.5t46.5 104.5t75 65.5t100.5 22.5q107 0 185 -91l-52 -82q-59 74 -129 74q-148 0 -148 -235q0 -118 38 -177.5t112 -59.5q38 0 71.5 17.5t67.5 55.5l43 -80v0z
M877 502q0 94 -28.5 176t-77.5 143.5t-115 97t-141 35.5t-141.5 -35.5t-116 -97t-78 -143.5t-28.5 -176t28.5 -176t78 -143.5t116 -97t141.5 -35.5t141 35.5t115 97t77.5 143.5t28.5 176zM928 501q0 -108 -32.5 -202.5t-88.5 -165t-131.5 -111t-160.5 -40.5q-86 0 -162 40.5
t-132 111t-88.5 165t-32.5 202.5q0 107 32.5 201.5t88.5 165t132 111t162 40.5q85 0 160.5 -40.5t131.5 -111t88.5 -165t32.5 -201.5z" />
    <glyph glyph-name="ordfeminine" unicode="&#xaa;" horiz-adv-x="542" 
d="M331 790q-78 -1 -113 -24.5t-35 -69.5q0 -33 14 -51.5t38 -18.5q21 0 44 10.5t52 35.5v118zM391 553q-22 7 -34 19.5t-19 31.5h-1q-27 -25 -58.5 -38.5t-63.5 -13.5q-51 0 -83 37.5t-32 99.5q0 47 16.5 79.5t47 52.5t73 29t94.5 9v10q0 19 -2 32t-8 21t-17.5 12t-31.5 4
q-28 0 -61.5 -10.5t-74.5 -38.5l-27 79q44 29 83.5 42t84.5 13q76 0 107 -39.5t31 -129.5v-175q0 -12 1 -20t3.5 -14t8 -12t14.5 -13z" />
    <glyph glyph-name="guillemotleft" unicode="&#xab;" horiz-adv-x="627" 
d="M193 158l-113 297l113 297l93 -56l-93 -242l93 -241zM425 158l-112 297l112 297l92 -56l-93 -242l93 -241z" />
    <glyph glyph-name="registered" unicode="&#xae;" horiz-adv-x="648" 
d="M328 887h-18q-7 0 -13 -1v-74h35q38 0 38 35q0 22 -9.5 31t-32.5 9zM388 778q3 -8 9.5 -27.5t13.5 -40t12.5 -36.5l5.5 -16h-59l-32 95q-1 9 -9 9h-31v-104h-54v279q23 3 44.5 3.5t39.5 0.5t34.5 -3.5t30 -13.5t21.5 -27.5t8 -45.5q0 -24 -8.5 -43t-25.5 -30zM328 1010
q-38 0 -70.5 -17t-56.5 -46t-37.5 -68t-13.5 -83q0 -45 13.5 -84t37.5 -68t56.5 -45.5t70.5 -16.5q36 0 67.5 16.5t55.5 45.5t37.5 68t13.5 84q0 44 -13.5 83t-37.5 68t-55.5 46t-67.5 17zM327 541q-44 0 -82 20t-66 54.5t-44.5 80.5t-16.5 98q0 53 16.5 99.5t44.5 81
t66 54.5t82 20q43 0 81 -20t66 -54.5t44.5 -81t16.5 -99.5q0 -52 -16.5 -98t-44.5 -80.5t-66 -54.5t-81 -20z" />
    <glyph glyph-name="macron" unicode="&#xaf;" horiz-adv-x="519" 
d="M118 945v102h306v-102h-306z" />
    <glyph glyph-name="macron" unicode="&#x2c9;" horiz-adv-x="519" 
d="M118 945v102h306v-102h-306z" />
    <glyph glyph-name="degree" unicode="&#xb0;" horiz-adv-x="702" 
d="M486 792q0 36 -10.5 67t-29.5 54.5t-44 37t-54 13.5t-53.5 -13.5t-43.5 -37t-29.5 -54.5t-10.5 -67t10.5 -67.5t29.5 -55t43.5 -37t53.5 -13.5t54 13.5t44 37t29.5 55t10.5 67.5zM541 792q0 -50 -15.5 -93.5t-41.5 -76t-61 -51.5t-75 -19q-39 0 -73.5 19t-61 51.5
t-41.5 76t-15 93.5q0 49 15 92.5t41.5 76t61 51.5t73.5 19q40 0 75 -19t61 -51.5t41.5 -76t15.5 -92.5z" />
    <glyph glyph-name="plusminus" unicode="&#xb1;" horiz-adv-x="627" 
d="M80 0v114h467v-114h-467zM368 481v-255h-113v255h-175v117h175v250h113v-250h179v-117h-179z" />
    <glyph glyph-name="twosuperior" unicode="&#xb2;" horiz-adv-x="426" 
d="M73 593q91 123 133 204t42 137q0 35 -14.5 56t-40.5 21q-22 0 -40.5 -13t-41.5 -42l-41 78q28 35 64 56.5t74 21.5q63 0 98 -43t35 -128q0 -38 -11.5 -77.5t-34 -82t-55 -90t-73.5 -102.5h173v-94h-253z" />
    <glyph glyph-name="threesuperior" unicode="&#xb3;" horiz-adv-x="426" 
d="M341 669q0 -85 -40.5 -133.5t-103.5 -48.5q-37 0 -67.5 10.5t-59.5 33.5l31 84q25 -20 46 -28t44 -8q26 0 43 22.5t17 70.5q0 45 -16.5 70t-46.5 25h-44v90h30q35 0 50.5 19.5t15.5 67.5q0 43 -14.5 60t-40.5 17q-18 0 -37 -6t-44 -29l-33 80q37 24 66 36t61 12
q60 0 95.5 -42t35.5 -119q0 -41 -13.5 -77t-40.5 -57q35 -15 50.5 -56t15.5 -94z" />
    <glyph glyph-name="acute" unicode="&#xb4;" horiz-adv-x="382" 
d="M130 904l-63 43l132 168l111 -81z" />
    <glyph glyph-name="mu" unicode="&#xb5;" horiz-adv-x="710" 
d="M448 0l-5 81h-1q-17 -45 -46.5 -69t-69.5 -24q-51 0 -77 36v-294h-119v1087h125v-519q0 -38 2.5 -72t11.5 -59.5t25 -41t43 -15.5q26 0 46 10.5t33 33.5t19.5 61t6.5 93v509h125v-817h-119z" />
    <glyph glyph-name="mu" unicode="&#x3bc;" horiz-adv-x="710" 
d="M448 0l-5 81h-1q-17 -45 -46.5 -69t-69.5 -24q-51 0 -77 36v-294h-119v1087h125v-519q0 -38 2.5 -72t11.5 -59.5t25 -41t43 -15.5q26 0 46 10.5t33 33.5t19.5 61t6.5 93v509h125v-817h-119z" />
    <glyph glyph-name="paragraph" unicode="&#xb6;" horiz-adv-x="639" 
d="M434 0q-80 0 -141 29t-101.5 80t-61 120t-20.5 149q0 78 20.5 146t61 119t101.5 80t141 29h54v-752h-54z" />
    <glyph glyph-name="periodcentered" unicode="&#xb7;" horiz-adv-x="315" 
d="M225 409q0 -21 -5 -40t-14 -33.5t-21.5 -23t-26.5 -8.5t-26.5 8.5t-21.5 23t-14.5 33.5t-5.5 40q0 44 19.5 75t48.5 31t48 -31t19 -75z" />
    <glyph glyph-name="periodcentered" unicode="&#x2219;" horiz-adv-x="315" 
d="M225 409q0 -21 -5 -40t-14 -33.5t-21.5 -23t-26.5 -8.5t-26.5 8.5t-21.5 23t-14.5 33.5t-5.5 40q0 44 19.5 75t48.5 31t48 -31t19 -75z" />
    <glyph glyph-name="cedilla" unicode="&#xb8;" horiz-adv-x="461" 
d="M334 -194q0 -34 -9 -58.5t-23 -40t-33 -22.5t-38 -7q-28 0 -48.5 7.5t-34.5 19.5l26 52q8 -8 21 -13t26 -5q16 0 28.5 13t12.5 50q0 20 -7.5 38.5t-28.5 18.5q-16 0 -32 -9l-26 29l40 121h54l-27 -84l2 -3q4 1 14 1q15 0 29.5 -5.5t26.5 -18.5t19.5 -33.5t7.5 -50.5z" />
    <glyph glyph-name="onesuperior" unicode="&#xb9;" horiz-adv-x="338" 
d="M238 1106v-610h-88v468l-70 -61l-40 76l126 127h72z" />
    <glyph glyph-name="ordmasculine" unicode="&#xba;" horiz-adv-x="542" 
d="M330 796q0 27 -2 53.5t-8 48t-18 35t-32 13.5q-21 0 -33 -13.5t-18 -35.5t-7.5 -49.5t-1.5 -55.5q0 -70 12.5 -110t49.5 -40q34 0 46 42t12 112zM416 790q0 -109 -37 -172t-110 -63q-37 0 -64 17.5t-44.5 49t-26 76.5t-8.5 99q0 110 36 173t111 63q36 0 63 -17.5t45 -49
t26.5 -76.5t8.5 -100z" />
    <glyph glyph-name="guillemotright" unicode="&#xbb;" horiz-adv-x="626" 
d="M201 158l-91 56l93 240l-93 243l91 56l113 -298zM434 158l-92 56l92 240l-92 243l92 56l112 -298z" />
    <glyph glyph-name="onequarter" unicode="&#xbc;" horiz-adv-x="1020" 
d="M790 161v283l-103 -283h103zM870 -58h-90v124h-150l-18 91l151 395h107v-388h48v-98h-48v-124zM337 -58h-73l409 1164h74zM298 1106v-610h-88v468l-70 -61l-40 76l126 127h72z" />
    <glyph glyph-name="onehalf" unicode="&#xbd;" horiz-adv-x="1020" 
d="M337 -58h-73l409 1164h74zM682 40q45 62 78 112.5t54.5 91.5t32 74.5t10.5 62.5q0 35 -14.5 57.5t-40.5 22.5q-22 0 -40.5 -14.5t-41.5 -42.5l-41 77q28 35 64 57.5t73 22.5q63 0 98.5 -43.5t35.5 -128.5q0 -38 -11.5 -77.5t-34 -82.5t-55 -90.5t-73.5 -101.5h172v-95
h-253zM298 1106v-610h-88v468l-70 -61l-40 76l126 127h72z" />
    <glyph glyph-name="threequarters" unicode="&#xbe;" horiz-adv-x="1020" 
d="M799 161v283l-104 -283h104zM877 -58h-89v124h-150l-18 91l152 395h105v-388h49v-98h-49v-124zM344 -58h-73l411 1164h73zM356 669q0 -85 -40 -133.5t-104 -48.5q-37 0 -67.5 10.5t-59.5 33.5l32 84q25 -20 46 -28t44 -8q26 0 43 22.5t17 70.5q0 45 -16.5 70t-46.5 25
h-46v90h30q35 0 50.5 19.5t15.5 67.5q0 43 -14 60t-40 17q-17 0 -36 -6t-44 -29l-33 80q35 24 64.5 36t62.5 12q60 0 95 -42t35 -119q0 -41 -13 -77t-41 -57q35 -15 50.5 -56t15.5 -94z" />
    <glyph glyph-name="questiondown" unicode="&#xbf;" horiz-adv-x="582" 
d="M398 677q0 -43 -19 -66t-50 -23q-28 0 -46.5 23.5t-18.5 65.5t18.5 67t46.5 25q31 0 50 -24t19 -68zM478 -186q-45 -39 -87.5 -57.5t-93.5 -18.5q-95 0 -146 68.5t-51 193.5q0 55 6 94.5t17.5 69t29 52t40.5 45.5l47 43q12 12 18 20.5t9 19t3.5 25t0.5 37.5v84h113v-112
q0 -35 -2 -58.5t-7.5 -40t-15.5 -30t-27 -28.5l-44 -38q-14 -13 -26 -27.5t-20.5 -33.5t-13 -44.5t-4.5 -59.5q0 -70 22 -108.5t69 -38.5q35 0 63 18t63 53l37 -128v0z" />
    <glyph glyph-name="Agrave" unicode="&#xc0;" horiz-adv-x="705" 
d="M365 853h-8l-80 -485h168zM507 0l-45 244h-202l-46 -244h-134l202 1003h160l203 -1003h-138zM361 1079l-180 134l107 82l137 -172z" />
    <glyph glyph-name="Aacute" unicode="&#xc1;" horiz-adv-x="705" 
d="M365 853h-8l-80 -485h168zM507 0l-45 244h-202l-46 -244h-134l202 1003h160l203 -1003h-138zM361 1084l-63 43l132 168l111 -81z" />
    <glyph glyph-name="Acircumflex" unicode="&#xc2;" horiz-adv-x="705" 
d="M365 853h-8l-80 -485h168zM507 0l-45 244h-202l-46 -244h-134l202 1003h160l203 -1003h-138zM471 1080l-112 76l-116 -76l-55 73l171 123l173 -123z" />
    <glyph glyph-name="Atilde" unicode="&#xc3;" horiz-adv-x="705" 
d="M365 853h-8l-80 -485h168zM507 0l-45 244h-202l-46 -244h-134l202 1003h160l203 -1003h-138zM535 1180q-13 -45 -43 -69t-65 -24q-20 0 -37.5 8.5t-33.5 19t-31 19.5t-29 9q-20 0 -34 -10.5t-23 -38.5l-54 53q16 51 42.5 74t63.5 23q21 0 39.5 -8.5t35 -19t31 -19
t28.5 -8.5q19 0 35 10.5t25 37.5z" />
    <glyph glyph-name="Adieresis" unicode="&#xc4;" horiz-adv-x="705" 
d="M365 853h-8l-80 -485h168zM507 0l-45 244h-202l-46 -244h-134l202 1003h160l203 -1003h-138zM313 1176q0 -35 -20.5 -60.5t-49.5 -25.5t-49.5 25.5t-20.5 60.5t20.5 60t49.5 25t49.5 -25t20.5 -60zM552 1176q0 -35 -20 -60.5t-50 -25.5q-28 0 -49.5 25.5t-21.5 60.5
t21.5 60t49.5 25q30 0 50 -25t20 -60z" />
    <glyph glyph-name="Aring" unicode="&#xc5;" horiz-adv-x="700" 
d="M365 853h-8l-80 -485h168zM507 0l-45 244h-202l-46 -244h-134l202 1003h160l203 -1003h-138zM411 1180q0 27 -12.5 42t-35.5 15q-22 0 -36 -15t-14 -42q0 -28 14 -42.5t36 -14.5q23 0 35.5 14.5t12.5 42.5zM462 1180q0 -53 -28.5 -78t-70.5 -25t-71 25t-29 78q0 51 29 76
t71 25t70.5 -25t28.5 -76z" />
    <glyph glyph-name="AE" unicode="&#xc6;" horiz-adv-x="899" 
d="M253 368h194v508h-76zM447 0v244h-221l-63 -244h-133l250 1000h521v-124h-226v-291h201v-124h-201v-337h234v-124h-362z" />
    <glyph glyph-name="Ccedilla" unicode="&#xc7;" horiz-adv-x="654" 
d="M475 -194q0 -34 -9 -58.5t-23 -40t-32 -22.5t-37 -7q-29 0 -49.5 7.5t-34.5 19.5l25 52q20 -18 48 -18q16 0 28.5 13t12.5 50q0 20 -8 38.5t-29 18.5q-9 0 -16 -2t-16 -7l-25 29l35 108q-69 9 -116 54t-75.5 115t-41 159.5t-12.5 185.5q0 93 14 185t47 165.5t87.5 119
t135.5 45.5q63 0 110 -33.5t92 -96.5l-77 -103q-29 51 -57 78.5t-70 27.5q-41 0 -69 -30t-46 -82.5t-26 -123.5t-8 -152q0 -37 2 -81t8 -87t16.5 -83.5t27.5 -71.5t41 -49.5t57 -18.5q45 0 78 29t65 82l66 -103q-15 -24 -35.5 -47t-45.5 -41t-54 -29.5t-62 -14.5l-20 -70
l1 -3q4 1 14 1q15 0 29.5 -5.5t26.5 -18.5t19.5 -33.5t7.5 -50.5z" />
    <glyph glyph-name="Egrave" unicode="&#xc8;" horiz-adv-x="583" 
d="M130 0v1000h354v-124h-226v-291h202v-124h-202v-337h235v-124h-363zM315 1079l-180 134l107 82l137 -172z" />
    <glyph glyph-name="Eacute" unicode="&#xc9;" horiz-adv-x="583" 
d="M130 0v1000h354v-124h-226v-291h202v-124h-202v-337h235v-124h-363zM307 1084l-63 43l132 168l111 -81z" />
    <glyph glyph-name="Ecircumflex" unicode="&#xca;" horiz-adv-x="583" 
d="M130 0v1000h354v-124h-226v-291h202v-124h-202v-337h235v-124h-363zM423 1080l-112 76l-116 -76l-55 73l171 123l173 -123z" />
    <glyph glyph-name="Edieresis" unicode="&#xcb;" horiz-adv-x="583" 
d="M130 0v1000h354v-124h-226v-291h202v-124h-202v-337h235v-124h-363zM261 1176q0 -35 -20.5 -60.5t-49.5 -25.5t-49.5 25.5t-20.5 60.5t20.5 60t49.5 25t49.5 -25t20.5 -60zM500 1176q0 -35 -20 -60.5t-50 -25.5q-28 0 -49.5 25.5t-21.5 60.5t21.5 60t49.5 25q30 0 50 -25
t20 -60z" />
    <glyph glyph-name="Igrave" unicode="&#xcc;" horiz-adv-x="388" 
d="M130 0v1000h128v-1000h-128zM198 1064l-180 134l107 82l137 -172z" />
    <glyph glyph-name="Iacute" unicode="&#xcd;" horiz-adv-x="388" 
d="M130 0v1000h128v-1000h-128zM203 1069l-63 43l132 168l111 -81z" />
    <glyph glyph-name="Icircumflex" unicode="&#xce;" horiz-adv-x="388" 
d="M130 0v1000h128v-1000h-128zM307 1065l-112 76l-116 -76l-55 73l171 123l173 -123z" />
    <glyph glyph-name="Idieresis" unicode="&#xcf;" horiz-adv-x="388" 
d="M130 0v1000h128v-1000h-128zM146 1161q0 -35 -20.5 -60.5t-49.5 -25.5t-49.5 25.5t-20.5 60.5t20.5 60t49.5 25t49.5 -25t20.5 -60zM385 1161q0 -35 -20 -60.5t-50 -25.5q-28 0 -49.5 25.5t-21.5 60.5t21.5 60t49.5 25q30 0 50 -25t20 -60z" />
    <glyph glyph-name="Eth" unicode="&#xd0;" horiz-adv-x="721" 
d="M258 457v-334q17 -2 33 -2h31q47 0 79 26.5t52 76.5t28.5 122.5t8.5 164.5q0 88 -9 158t-28 119t-49.5 75.5t-73.5 26.5q-17 0 -35 -1t-37 -5v-296h94v-131h-94zM621 504q0 -114 -17 -207t-54 -159t-96 -102t-144 -36h-180v457h-52v131h52v407q41 7 93 11.5t104 4.5
q81 0 137 -40t91 -109t50.5 -161t15.5 -197z" />
    <glyph glyph-name="Ntilde" unicode="&#xd1;" horiz-adv-x="770" 
d="M526 0l-271 672h-4v-672h-121v1000h127l260 -670h2v670h121v-1000h-114zM576 1165q-13 -45 -43 -69t-65 -24q-20 0 -37.5 8.5t-33.5 19t-31 19.5t-29 9q-20 0 -34 -10.5t-23 -38.5l-54 53q16 51 42.5 74t63.5 23q21 0 39.5 -8.5t35 -19t31 -19t28.5 -8.5q19 0 35 10.5
t25 37.5z" />
    <glyph glyph-name="Ograve" unicode="&#xd2;" horiz-adv-x="778" 
d="M545 502q0 88 -8 160t-26.5 123t-48.5 79t-74 28q-43 0 -72.5 -28.5t-48 -80t-26.5 -123.5t-8 -158q0 -89 8 -162t26.5 -124.5t49 -80t74.5 -28.5q43 0 72.5 29t47.5 81.5t26 125t8 159.5zM678 501q0 -112 -17.5 -207t-52.5 -164t-89.5 -108t-130.5 -39q-75 0 -129.5 39
t-90 108t-52 164t-16.5 207q0 111 16.5 205.5t51.5 163t89.5 107.5t130.5 39t130.5 -39t89.5 -107.5t52.5 -163t17.5 -205.5zM395 1079l-180 134l107 82l137 -172z" />
    <glyph glyph-name="Oacute" unicode="&#xd3;" horiz-adv-x="778" 
d="M545 502q0 88 -8 160t-26.5 123t-48.5 79t-74 28q-43 0 -72.5 -28.5t-48 -80t-26.5 -123.5t-8 -158q0 -89 8 -162t26.5 -124.5t49 -80t74.5 -28.5q43 0 72.5 29t47.5 81.5t26 125t8 159.5zM678 501q0 -112 -17.5 -207t-52.5 -164t-89.5 -108t-130.5 -39q-75 0 -129.5 39
t-90 108t-52 164t-16.5 207q0 111 16.5 205.5t51.5 163t89.5 107.5t130.5 39t130.5 -39t89.5 -107.5t52.5 -163t17.5 -205.5zM385 1084l-63 43l132 168l111 -81z" />
    <glyph glyph-name="Ocircumflex" unicode="&#xd4;" horiz-adv-x="778" 
d="M545 502q0 88 -8 160t-26.5 123t-48.5 79t-74 28q-43 0 -72.5 -28.5t-48 -80t-26.5 -123.5t-8 -158q0 -89 8 -162t26.5 -124.5t49 -80t74.5 -28.5q43 0 72.5 29t47.5 81.5t26 125t8 159.5zM678 501q0 -112 -17.5 -207t-52.5 -164t-89.5 -108t-130.5 -39q-75 0 -129.5 39
t-90 108t-52 164t-16.5 207q0 111 16.5 205.5t51.5 163t89.5 107.5t130.5 39t130.5 -39t89.5 -107.5t52.5 -163t17.5 -205.5zM517 1080l-112 76l-116 -76l-55 73l171 123l173 -123z" />
    <glyph glyph-name="Otilde" unicode="&#xd5;" horiz-adv-x="778" 
d="M545 502q0 88 -8 160t-26.5 123t-48.5 79t-74 28q-43 0 -72.5 -28.5t-48 -80t-26.5 -123.5t-8 -158q0 -89 8 -162t26.5 -124.5t49 -80t74.5 -28.5q43 0 72.5 29t47.5 81.5t26 125t8 159.5zM678 501q0 -112 -17.5 -207t-52.5 -164t-89.5 -108t-130.5 -39q-75 0 -129.5 39
t-90 108t-52 164t-16.5 207q0 111 16.5 205.5t51.5 163t89.5 107.5t130.5 39t130.5 -39t89.5 -107.5t52.5 -163t17.5 -205.5zM570 1180q-13 -45 -43 -69t-65 -24q-20 0 -37.5 8.5t-33.5 19t-31 19.5t-29 9q-20 0 -34 -10.5t-23 -38.5l-54 53q16 51 42.5 74t63.5 23
q21 0 39.5 -8.5t35 -19t31 -19t28.5 -8.5q19 0 35 10.5t25 37.5z" />
    <glyph glyph-name="Odieresis" unicode="&#xd6;" horiz-adv-x="778" 
d="M545 502q0 88 -8 160t-26.5 123t-48.5 79t-74 28q-43 0 -72.5 -28.5t-48 -80t-26.5 -123.5t-8 -158q0 -89 8 -162t26.5 -124.5t49 -80t74.5 -28.5q43 0 72.5 29t47.5 81.5t26 125t8 159.5zM678 501q0 -112 -17.5 -207t-52.5 -164t-89.5 -108t-130.5 -39q-75 0 -129.5 39
t-90 108t-52 164t-16.5 207q0 111 16.5 205.5t51.5 163t89.5 107.5t130.5 39t130.5 -39t89.5 -107.5t52.5 -163t17.5 -205.5zM332 1176q0 -35 -20.5 -60.5t-49.5 -25.5t-49.5 25.5t-20.5 60.5t20.5 60t49.5 25t49.5 -25t20.5 -60zM571 1176q0 -35 -20 -60.5t-50 -25.5
q-28 0 -49.5 25.5t-21.5 60.5t21.5 60t49.5 25q30 0 50 -25t20 -60z" />
    <glyph glyph-name="multiply" unicode="&#xd7;" horiz-adv-x="762" 
d="M601 574l-142 -176l142 -177l-82 -98l-138 177l-141 -177l-80 98l141 177l-141 176l80 99l141 -177l138 177z" />
    <glyph glyph-name="Oslash" unicode="&#xd8;" horiz-adv-x="778" 
d="M547 502q0 36 -1 69.5t-7 63.5l-269 -425q18 -50 47.5 -76.5t73.5 -26.5q43 0 72.5 29t47.5 81.5t27 125t9 159.5zM233 502q0 -42 1.5 -80t5.5 -71l271 435q-20 51 -49 78.5t-74 27.5q-43 0 -72.5 -28.5t-48 -80t-26.5 -123.5t-8 -158zM678 501q-2 -112 -18.5 -207
t-51.5 -164t-89.5 -108t-130.5 -39q-64 0 -112 28t-83 77l-63 -98l-79 58l92 147q-22 63 -32.5 140.5t-10.5 165.5q0 111 16.5 205.5t51.5 163t89.5 107.5t130.5 39q66 0 114.5 -28.5t83.5 -80.5l66 104l88 -60l-102 -159q20 -62 30 -135.5t10 -155.5z" />
    <glyph glyph-name="Ugrave" unicode="&#xd9;" horiz-adv-x="741" 
d="M609 397q0 -102 -10 -179.5t-36.5 -129.5t-73 -78.5t-119.5 -26.5q-72 0 -118.5 26.5t-73.5 78.5t-37.5 129.5t-10.5 179.5v603h128v-643q0 -65 5 -112t17.5 -77.5t34 -45t55.5 -14.5t55.5 14.5t34 45t17 77.5t4.5 112v643h128v-603v0zM380 1064l-180 134l107 82
l137 -172z" />
    <glyph glyph-name="Uacute" unicode="&#xda;" horiz-adv-x="741" 
d="M609 397q0 -102 -10 -179.5t-36.5 -129.5t-73 -78.5t-119.5 -26.5q-72 0 -118.5 26.5t-73.5 78.5t-37.5 129.5t-10.5 179.5v603h128v-643q0 -65 5 -112t17.5 -77.5t34 -45t55.5 -14.5t55.5 14.5t34 45t17 77.5t4.5 112v643h128v-603v0zM378 1069l-63 43l132 168l111 -81z
" />
    <glyph glyph-name="Ucircumflex" unicode="&#xdb;" horiz-adv-x="741" 
d="M609 397q0 -102 -10 -179.5t-36.5 -129.5t-73 -78.5t-119.5 -26.5q-72 0 -118.5 26.5t-73.5 78.5t-37.5 129.5t-10.5 179.5v603h128v-643q0 -65 5 -112t17.5 -77.5t34 -45t55.5 -14.5t55.5 14.5t34 45t17 77.5t4.5 112v643h128v-603v0zM501 1065l-112 76l-116 -76l-55 73
l171 123l173 -123z" />
    <glyph glyph-name="Udieresis" unicode="&#xdc;" horiz-adv-x="741" 
d="M609 397q0 -102 -10 -179.5t-36.5 -129.5t-73 -78.5t-119.5 -26.5q-72 0 -118.5 26.5t-73.5 78.5t-37.5 129.5t-10.5 179.5v603h128v-643q0 -65 5 -112t17.5 -77.5t34 -45t55.5 -14.5t55.5 14.5t34 45t17 77.5t4.5 112v643h128v-603v0zM319 1161q0 -35 -20.5 -60.5
t-49.5 -25.5t-49.5 25.5t-20.5 60.5t20.5 60t49.5 25t49.5 -25t20.5 -60zM558 1161q0 -35 -20 -60.5t-50 -25.5q-28 0 -49.5 25.5t-21.5 60.5t21.5 60t49.5 25q30 0 50 -25t20 -60z" />
    <glyph glyph-name="Yacute" unicode="&#xdd;" horiz-adv-x="618" 
d="M373 381v-381h-128v374l-195 626h136l122 -478l130 478h130zM311 1069l-63 43l132 168l111 -81z" />
    <glyph glyph-name="Thorn" unicode="&#xde;" horiz-adv-x="658" 
d="M450 531q0 104 -23.5 151.5t-86.5 47.5q-20 0 -39.5 -2t-42.5 -6v-397h76q35 0 57.5 12.5t35.5 38t18 64t5 91.5zM578 531q0 -164 -55 -242.5t-178 -78.5h-87v-210h-128v1000h128v-150q15 1 33 1h37q61 0 107.5 -17.5t78 -55.5t48 -99t16.5 -148z" />
    <glyph glyph-name="germandbls" unicode="&#xdf;" horiz-adv-x="683" 
d="M603 271q0 -134 -53 -202.5t-146 -68.5h-50v117q33 0 58 8.5t41.5 27.5t24.5 50t8 77q0 49 -8.5 87.5t-26.5 70t-45.5 56.5t-64.5 48l-10 86q25 42 42.5 69.5t28.5 50.5t15.5 46.5t4.5 56.5q0 69 -19 101t-58 32q-42 0 -58.5 -27.5t-16.5 -93.5v-863h-126v686h-74v121h74
v40q0 50 9 95t31 78.5t60 53.5t96 20q39 0 74.5 -11.5t62.5 -38.5t43 -71.5t16 -110.5q0 -40 -5 -70.5t-15 -58t-26.5 -54.5t-38.5 -60v-3q39 -32 67.5 -66t47.5 -75t28 -91t9 -113z" />
    <glyph glyph-name="agrave" unicode="&#xe0;" horiz-adv-x="662" 
d="M409 427q-101 0 -149 -48.5t-48 -143.5q0 -30 4.5 -55t14 -43.5t24.5 -29t36 -10.5q28 0 58.5 13.5t59.5 57.5v259zM482 -10q-29 10 -46.5 34t-19.5 57h-1q-31 -46 -67 -69.5t-87 -23.5q-41 0 -73 17.5t-54 49t-33 76t-11 97.5q0 82 26 139t70.5 92t102 51t120.5 16v97
q0 18 -3.5 35t-12.5 29.5t-24.5 20t-39.5 7.5q-51 0 -94.5 -18.5t-84.5 -48.5l-28 116q51 32 103.5 48.5t111.5 16.5q57 0 94.5 -14.5t60 -44.5t32 -75.5t9.5 -106.5v-417q0 -41 4.5 -65.5t24.5 -41.5zM338 919l-180 134l107 82l137 -172z" />
    <glyph glyph-name="aacute" unicode="&#xe1;" horiz-adv-x="662" 
d="M409 427q-101 0 -149 -48.5t-48 -143.5q0 -30 4.5 -55t14 -43.5t24.5 -29t36 -10.5q28 0 58.5 13.5t59.5 57.5v259zM482 -10q-29 10 -46.5 34t-19.5 57h-1q-31 -46 -67 -69.5t-87 -23.5q-41 0 -73 17.5t-54 49t-33 76t-11 97.5q0 82 26 139t70.5 92t102 51t120.5 16v97
q0 18 -3.5 35t-12.5 29.5t-24.5 20t-39.5 7.5q-51 0 -94.5 -18.5t-84.5 -48.5l-28 116q51 32 103.5 48.5t111.5 16.5q57 0 94.5 -14.5t60 -44.5t32 -75.5t9.5 -106.5v-417q0 -41 4.5 -65.5t24.5 -41.5zM310 924l-63 43l132 168l111 -81z" />
    <glyph glyph-name="acircumflex" unicode="&#xe2;" horiz-adv-x="662" 
d="M409 427q-101 0 -149 -48.5t-48 -143.5q0 -30 4.5 -55t14 -43.5t24.5 -29t36 -10.5q28 0 58.5 13.5t59.5 57.5v259zM482 -10q-29 10 -46.5 34t-19.5 57h-1q-31 -46 -67 -69.5t-87 -23.5q-41 0 -73 17.5t-54 49t-33 76t-11 97.5q0 82 26 139t70.5 92t102 51t120.5 16v97
q0 18 -3.5 35t-12.5 29.5t-24.5 20t-39.5 7.5q-51 0 -94.5 -18.5t-84.5 -48.5l-28 116q51 32 103.5 48.5t111.5 16.5q57 0 94.5 -14.5t60 -44.5t32 -75.5t9.5 -106.5v-417q0 -41 4.5 -65.5t24.5 -41.5zM454 920l-112 76l-116 -76l-55 73l171 123l173 -123z" />
    <glyph glyph-name="atilde" unicode="&#xe3;" horiz-adv-x="662" 
d="M409 427q-101 0 -149 -48.5t-48 -143.5q0 -30 4.5 -55t14 -43.5t24.5 -29t36 -10.5q28 0 58.5 13.5t59.5 57.5v259zM482 -10q-29 10 -46.5 34t-19.5 57h-1q-31 -46 -67 -69.5t-87 -23.5q-41 0 -73 17.5t-54 49t-33 76t-11 97.5q0 82 26 139t70.5 92t102 51t120.5 16v97
q0 18 -3.5 35t-12.5 29.5t-24.5 20t-39.5 7.5q-51 0 -94.5 -18.5t-84.5 -48.5l-28 116q51 32 103.5 48.5t111.5 16.5q57 0 94.5 -14.5t60 -44.5t32 -75.5t9.5 -106.5v-417q0 -41 4.5 -65.5t24.5 -41.5zM507 1030q-13 -45 -43 -69t-65 -24q-20 0 -37.5 8.5t-33.5 19t-31 19.5
t-29 9q-20 0 -34 -10.5t-23 -38.5l-54 53q16 51 42.5 74t63.5 23q21 0 39.5 -8.5t35 -19t31 -19t28.5 -8.5q19 0 35 10.5t25 37.5z" />
    <glyph glyph-name="adieresis" unicode="&#xe4;" horiz-adv-x="662" 
d="M409 427q-101 0 -149 -48.5t-48 -143.5q0 -30 4.5 -55t14 -43.5t24.5 -29t36 -10.5q28 0 58.5 13.5t59.5 57.5v259zM482 -10q-29 10 -46.5 34t-19.5 57h-1q-31 -46 -67 -69.5t-87 -23.5q-41 0 -73 17.5t-54 49t-33 76t-11 97.5q0 82 26 139t70.5 92t102 51t120.5 16v97
q0 18 -3.5 35t-12.5 29.5t-24.5 20t-39.5 7.5q-51 0 -94.5 -18.5t-84.5 -48.5l-28 116q51 32 103.5 48.5t111.5 16.5q57 0 94.5 -14.5t60 -44.5t32 -75.5t9.5 -106.5v-417q0 -41 4.5 -65.5t24.5 -41.5zM286 1026q0 -35 -20.5 -60.5t-49.5 -25.5t-49.5 25.5t-20.5 60.5
t20.5 60t49.5 25t49.5 -25t20.5 -60zM525 1026q0 -35 -20 -60.5t-50 -25.5q-28 0 -49.5 25.5t-21.5 60.5t21.5 60t49.5 25q30 0 50 -25t20 -60z" />
    <glyph glyph-name="aring" unicode="&#xe5;" horiz-adv-x="662" 
d="M409 427q-101 0 -149 -48.5t-48 -143.5q0 -30 4.5 -55t14 -43.5t24.5 -29t36 -10.5q28 0 58.5 13.5t59.5 57.5v259zM482 -10q-29 10 -46.5 34t-19.5 57h-1q-31 -46 -67 -69.5t-87 -23.5q-41 0 -73 17.5t-54 49t-33 76t-11 97.5q0 82 26 139t70.5 92t102 51t120.5 16v97
q0 18 -3.5 35t-12.5 29.5t-24.5 20t-39.5 7.5q-51 0 -94.5 -18.5t-84.5 -48.5l-28 116q51 32 103.5 48.5t111.5 16.5q57 0 94.5 -14.5t60 -44.5t32 -75.5t9.5 -106.5v-417q0 -41 4.5 -65.5t24.5 -41.5zM384 1030q0 27 -12.5 42t-35.5 15q-22 0 -36 -15t-14 -42
q0 -28 14 -42.5t36 -14.5q23 0 35.5 14.5t12.5 42.5zM435 1030q0 -53 -28.5 -78t-70.5 -25t-71 25t-29 78q0 51 29 76t71 25t70.5 -25t28.5 -76z" />
    <glyph glyph-name="ae" unicode="&#xe6;" horiz-adv-x="969" 
d="M750 462q0 50 -4 96t-15 81.5t-31 57t-53 21.5q-59 0 -85 -65t-26 -191h214v0zM305 97q14 0 31 5t34.5 15t34 25t29.5 35q-14 60 -19.5 122.5t-5.5 127.5q-101 0 -149 -48.5t-48 -143.5q0 -72 25 -105t68 -33zM869 414q0 -10 -1 -25.5t-2 -30.5h-330q0 -126 31.5 -191.5
t95.5 -65.5q38 0 71 13.5t65 42.5l44 -106q-43 -34 -90 -48.5t-98 -14.5q-116 0 -179 96q-19 -21 -38.5 -38.5t-43.5 -30t-54 -20t-69 -7.5q-43 0 -76.5 17.5t-57 49t-35.5 76t-12 97.5q0 82 26 139t70.5 92t102 51t120.5 16v97q0 18 -3.5 35t-12.5 29.5t-24.5 20t-39.5 7.5
q-51 0 -94.5 -18.5t-84.5 -48.5l-28 116q51 32 103.5 48.5t111.5 16.5q62 0 101 -17t61 -52q60 69 150 69q49 0 89.5 -21.5t69.5 -70.5t45 -128.5t16 -194.5z" />
    <glyph glyph-name="ccedilla" unicode="&#xe7;" horiz-adv-x="585" 
d="M441 -195q0 -35 -9 -59t-23 -40t-33 -23t-38 -7q-28 0 -48.5 8t-34.5 19l25 53q20 -18 48 -18q16 0 28 13t12 49q0 20 -7 38.5t-28 18.5q-19 0 -32 -8l-25 28l37 113q-63 6 -104.5 44.5t-65.5 97t-33.5 131.5t-9.5 148q0 76 12 150.5t40.5 134t76.5 96.5t120 37
q45 0 83.5 -15t76.5 -47l-51 -111q-26 32 -51 45.5t-56 13.5q-42 0 -66.5 -29t-37 -73t-16 -98t-3.5 -103t3.5 -103.5t16.5 -100.5t38.5 -76.5t68.5 -30.5q34 0 61.5 15.5t54.5 41.5l44 -105q-35 -30 -71.5 -44t-76.5 -19l-26 -76l3 -2q4 1 14 1q15 0 29.5 -5.5t26.5 -18.5
t19.5 -33.5t7.5 -50.5z" />
    <glyph glyph-name="egrave" unicode="&#xe8;" horiz-adv-x="661" 
d="M442 462q0 50 -4.5 96t-15.5 81.5t-31 57t-53 21.5q-58 0 -84 -65t-26 -191h214v0zM561 414q0 -10 -1 -25.5t-2 -30.5h-330q0 -126 31.5 -191.5t95.5 -65.5q38 0 71.5 13.5t63.5 42.5l45 -106q-43 -34 -90 -48.5t-98 -14.5q-247 0 -247 420q0 109 17.5 188.5t49 131
t76 76.5t97.5 25q49 0 89.5 -21.5t70 -70.5t45.5 -128.5t16 -194.5zM341 919l-180 134l107 82l137 -172z" />
    <glyph glyph-name="eacute" unicode="&#xe9;" horiz-adv-x="661" 
d="M442 462q0 50 -4.5 96t-15.5 81.5t-31 57t-53 21.5q-58 0 -84 -65t-26 -191h214v0zM561 414q0 -10 -1 -25.5t-2 -30.5h-330q0 -126 31.5 -191.5t95.5 -65.5q38 0 71.5 13.5t63.5 42.5l45 -106q-43 -34 -90 -48.5t-98 -14.5q-247 0 -247 420q0 109 17.5 188.5t49 131
t76 76.5t97.5 25q49 0 89.5 -21.5t70 -70.5t45.5 -128.5t16 -194.5zM340 924l-63 43l132 168l111 -81z" />
    <glyph glyph-name="ecircumflex" unicode="&#xea;" horiz-adv-x="661" 
d="M442 462q0 50 -4.5 96t-15.5 81.5t-31 57t-53 21.5q-58 0 -84 -65t-26 -191h214v0zM561 414q0 -10 -1 -25.5t-2 -30.5h-330q0 -126 31.5 -191.5t95.5 -65.5q38 0 71.5 13.5t63.5 42.5l45 -106q-43 -34 -90 -48.5t-98 -14.5q-247 0 -247 420q0 109 17.5 188.5t49 131
t76 76.5t97.5 25q49 0 89.5 -21.5t70 -70.5t45.5 -128.5t16 -194.5zM450 920l-112 76l-116 -76l-55 73l171 123l173 -123z" />
    <glyph glyph-name="edieresis" unicode="&#xeb;" horiz-adv-x="661" 
d="M442 462q0 50 -4.5 96t-15.5 81.5t-31 57t-53 21.5q-58 0 -84 -65t-26 -191h214v0zM561 414q0 -10 -1 -25.5t-2 -30.5h-330q0 -126 31.5 -191.5t95.5 -65.5q38 0 71.5 13.5t63.5 42.5l45 -106q-43 -34 -90 -48.5t-98 -14.5q-247 0 -247 420q0 109 17.5 188.5t49 131
t76 76.5t97.5 25q49 0 89.5 -21.5t70 -70.5t45.5 -128.5t16 -194.5zM295 1026q0 -35 -20.5 -60.5t-49.5 -25.5t-49.5 25.5t-20.5 60.5t20.5 60t49.5 25t49.5 -25t20.5 -60zM534 1026q0 -35 -20 -60.5t-50 -25.5q-28 0 -49.5 25.5t-21.5 60.5t21.5 60t49.5 25q30 0 50 -25
t20 -60z" />
    <glyph glyph-name="igrave" unicode="&#xec;" horiz-adv-x="375" 
d="M125 0v817h124v-817h-124zM179 919l-180 134l107 82l137 -172z" />
    <glyph glyph-name="iacute" unicode="&#xed;" horiz-adv-x="375" 
d="M125 0v817h124v-817h-124zM197 924l-63 43l132 168l111 -81z" />
    <glyph glyph-name="icircumflex" unicode="&#xee;" horiz-adv-x="375" 
d="M125 0v817h124v-817h-124zM299 920l-112 76l-116 -76l-55 73l171 123l173 -123z" />
    <glyph glyph-name="idieresis" unicode="&#xef;" horiz-adv-x="375" 
d="M125 0v817h124v-817h-124zM140 1026q0 -35 -20.5 -60.5t-49.5 -25.5t-49.5 25.5t-20.5 60.5t20.5 60t49.5 25t49.5 -25t20.5 -60zM379 1026q0 -35 -20 -60.5t-50 -25.5q-28 0 -49.5 25.5t-21.5 60.5t21.5 60t49.5 25q30 0 50 -25t20 -60z" />
    <glyph glyph-name="eth" unicode="&#xf0;" 
d="M274 926l-26 74l96 35q-8 24 -15 47t-14 45l90 35q8 -23 17 -46.5t17 -46.5l96 36l27 -74l-98 -36q23 -69 43.5 -139.5t35.5 -143.5t24 -149t9 -155q0 -200 -59 -310t-180 -110t-179 109.5t-58 310.5t58 311t179 110q17 0 42 -10t38 -33q-10 38 -22.5 82.5t-26.5 91.5z
M448 405q0 54 -2.5 108t-13.5 97.5t-33.5 71t-61.5 27.5t-61 -27.5t-32.5 -71t-13 -97.5t-2.5 -108q0 -69 4 -125t15.5 -95.5t33 -60.5t56.5 -21q34 0 56 21.5t34 60.5t16.5 95t4.5 125z" />
    <glyph glyph-name="ntilde" unicode="&#xf1;" horiz-adv-x="698" 
d="M443 0v493q0 49 -0.5 89t-8 67.5t-25 42.5t-51.5 15q-30 0 -50 -14.5t-32 -41.5t-16.5 -64.5t-4.5 -82.5v-504h-125v817h112l8 -80h1q25 52 61.5 72t84.5 20q52 0 85.5 -20.5t52.5 -62.5t26 -105.5t7 -148.5v-492h-125zM539 1000q-13 -45 -43 -69t-65 -24
q-20 0 -37.5 8.5t-33.5 19t-31 19.5t-29 9q-20 0 -34 -10.5t-23 -38.5l-54 53q16 51 42.5 74t63.5 23q21 0 39.5 -8.5t35 -19t31 -19t28.5 -8.5q19 0 35 10.5t25 37.5z" />
    <glyph glyph-name="ograve" unicode="&#xf2;" 
d="M448 405q0 54 -2.5 108t-13.5 97.5t-33.5 71t-61.5 27.5t-61 -27.5t-32.5 -71t-13 -97.5t-2.5 -108q0 -69 4 -125t15.5 -95.5t33 -60.5t56.5 -21t56.5 21.5t33.5 60.5t16.5 95t4.5 125zM576 408q0 -100 -15 -178t-44.5 -132t-74 -82t-105.5 -28q-121 0 -179 109.5
t-58 310.5t58 311t179 110t180 -110t59 -311zM351 919l-180 134l107 82l137 -172z" />
    <glyph glyph-name="oacute" unicode="&#xf3;" 
d="M448 405q0 54 -2.5 108t-13.5 97.5t-33.5 71t-61.5 27.5t-61 -27.5t-32.5 -71t-13 -97.5t-2.5 -108q0 -69 4 -125t15.5 -95.5t33 -60.5t56.5 -21t56.5 21.5t33.5 60.5t16.5 95t4.5 125zM576 408q0 -100 -15 -178t-44.5 -132t-74 -82t-105.5 -28q-121 0 -179 109.5
t-58 310.5t58 311t179 110t180 -110t59 -311zM331 924l-63 43l132 168l111 -81z" />
    <glyph glyph-name="ocircumflex" unicode="&#xf4;" 
d="M448 405q0 54 -2.5 108t-13.5 97.5t-33.5 71t-61.5 27.5t-61 -27.5t-32.5 -71t-13 -97.5t-2.5 -108q0 -69 4 -125t15.5 -95.5t33 -60.5t56.5 -21t56.5 21.5t33.5 60.5t16.5 95t4.5 125zM576 408q0 -100 -15 -178t-44.5 -132t-74 -82t-105.5 -28q-121 0 -179 109.5
t-58 310.5t58 311t179 110t180 -110t59 -311zM466 920l-112 76l-116 -76l-55 73l171 123l173 -123z" />
    <glyph glyph-name="otilde" unicode="&#xf5;" 
d="M448 405q0 54 -2.5 108t-13.5 97.5t-33.5 71t-61.5 27.5t-61 -27.5t-32.5 -71t-13 -97.5t-2.5 -108q0 -69 4 -125t15.5 -95.5t33 -60.5t56.5 -21t56.5 21.5t33.5 60.5t16.5 95t4.5 125zM576 408q0 -100 -15 -178t-44.5 -132t-74 -82t-105.5 -28q-121 0 -179 109.5
t-58 310.5t58 311t179 110t180 -110t59 -311zM520 1030q-13 -45 -43 -69t-65 -24q-20 0 -37.5 8.5t-33.5 19t-31 19.5t-29 9q-20 0 -34 -10.5t-23 -38.5l-54 53q16 51 42.5 74t63.5 23q21 0 39.5 -8.5t35 -19t31 -19t28.5 -8.5q19 0 35 10.5t25 37.5z" />
    <glyph glyph-name="odieresis" unicode="&#xf6;" 
d="M448 405q0 54 -2.5 108t-13.5 97.5t-33.5 71t-61.5 27.5t-61 -27.5t-32.5 -71t-13 -97.5t-2.5 -108q0 -69 4 -125t15.5 -95.5t33 -60.5t56.5 -21t56.5 21.5t33.5 60.5t16.5 95t4.5 125zM576 408q0 -100 -15 -178t-44.5 -132t-74 -82t-105.5 -28q-121 0 -179 109.5
t-58 310.5t58 311t179 110t180 -110t59 -311zM292 1026q0 -35 -20.5 -60.5t-49.5 -25.5t-49.5 25.5t-20.5 60.5t20.5 60t49.5 25t49.5 -25t20.5 -60zM531 1026q0 -35 -20 -60.5t-50 -25.5q-28 0 -49.5 25.5t-21.5 60.5t21.5 60t49.5 25q30 0 50 -25t20 -60z" />
    <glyph glyph-name="oslash" unicode="&#xf8;" 
d="M228 405v-48q0 -22 2 -42l192 322q-11 32 -31.5 52t-53.5 20q-39 0 -61 -27.5t-32.5 -71t-13 -97.5t-2.5 -108zM448 405q0 28 -0.5 55.5t-2.5 54.5l-198 -329q12 -39 33.5 -61t56.5 -22t56.5 21.5t33.5 60.5t16.5 95t4.5 125zM575 408q0 -100 -14.5 -178t-44 -132
t-74 -82t-105.5 -28q-105 0 -161 81l-44 -73l-68 44l69 114q-33 99 -33 254q0 201 58 311t179 110q98 0 156 -76l42 70l69 -44l-66 -109q20 -51 28.5 -116.5t8.5 -145.5z" />
    <glyph glyph-name="ugrave" unicode="&#xf9;" horiz-adv-x="697" 
d="M448 0l-5 81h-1q-29 -53 -67 -73t-86 -20q-45 0 -75.5 17t-49 52.5t-26.5 91t-8 133.5v535h125v-519q0 -38 2.5 -72t11.5 -59.5t25 -41t43 -15.5q26 0 46 10.5t33 33.5t19.5 61t6.5 93v509h125v-817h-119zM341 919l-180 134l107 82l137 -172z" />
    <glyph glyph-name="uacute" unicode="&#xfa;" horiz-adv-x="697" 
d="M448 0l-5 81h-1q-29 -53 -67 -73t-86 -20q-45 0 -75.5 17t-49 52.5t-26.5 91t-8 133.5v535h125v-519q0 -38 2.5 -72t11.5 -59.5t25 -41t43 -15.5q26 0 46 10.5t33 33.5t19.5 61t6.5 93v509h125v-817h-119zM340 924l-63 43l132 168l111 -81z" />
    <glyph glyph-name="ucircumflex" unicode="&#xfb;" horiz-adv-x="697" 
d="M448 0l-5 81h-1q-29 -53 -67 -73t-86 -20q-45 0 -75.5 17t-49 52.5t-26.5 91t-8 133.5v535h125v-519q0 -38 2.5 -72t11.5 -59.5t25 -41t43 -15.5q26 0 46 10.5t33 33.5t19.5 61t6.5 93v509h125v-817h-119zM473 920l-112 76l-116 -76l-55 73l171 123l173 -123z" />
    <glyph glyph-name="udieresis" unicode="&#xfc;" horiz-adv-x="697" 
d="M448 0l-5 81h-1q-29 -53 -67 -73t-86 -20q-45 0 -75.5 17t-49 52.5t-26.5 91t-8 133.5v535h125v-519q0 -38 2.5 -72t11.5 -59.5t25 -41t43 -15.5q26 0 46 10.5t33 33.5t19.5 61t6.5 93v509h125v-817h-119zM299 1026q0 -35 -20.5 -60.5t-49.5 -25.5t-49.5 25.5t-20.5 60.5
t20.5 60t49.5 25t49.5 -25t20.5 -60zM538 1026q0 -35 -20 -60.5t-50 -25.5q-28 0 -49.5 25.5t-21.5 60.5t21.5 60t49.5 25q30 0 50 -25t20 -60z" />
    <glyph glyph-name="yacute" unicode="&#xfd;" horiz-adv-x="612" 
d="M365 -69q-11 -56 -25.5 -102t-35 -79t-49.5 -51t-69 -18q-20 0 -39 1t-37 6v125q8 -2 22 -3t25 -1q16 0 27.5 3.5t19.5 13t13.5 25.5t10.5 42l15 76l-173 848h131l107 -674h2l105 674h127zM308 924l-63 43l132 168l111 -81z" />
    <glyph glyph-name="thorn" unicode="&#xfe;" horiz-adv-x="685" 
d="M459 406v56q0 33 -2.5 67.5t-8.5 67.5t-18 59.5t-31 42.5t-47 16q-33 0 -52 -18.5t-29.5 -47.5t-13.5 -64t-3 -68v-209q0 -31 3.5 -67.5t14 -67.5t30.5 -51.5t53 -20.5q26 0 43.5 16.5t29 43t18 60t9.5 67.5t3.5 65t0.5 53zM585 408q0 -40 -3.5 -87t-12 -93.5t-23 -90
t-37 -76.5t-53.5 -53t-72 -20q-42 0 -74.5 17t-54.5 64v-377h-125v1411h120v-363h3q21 48 54.5 68.5t76.5 20.5t74.5 -20t53.5 -53t36.5 -76t22.5 -90t11 -94t3 -88z" />
    <glyph glyph-name="ydieresis" unicode="&#xff;" horiz-adv-x="612" 
d="M365 -69q-11 -56 -25.5 -102t-35 -79t-49.5 -51t-69 -18q-20 0 -39 1t-37 6v125q8 -2 22 -3t25 -1q16 0 27.5 3.5t19.5 13t13.5 25.5t10.5 42l15 76l-173 848h131l107 -674h2l105 674h127zM258 1026q0 -35 -20.5 -60.5t-49.5 -25.5t-49.5 25.5t-20.5 60.5t20.5 60
t49.5 25t49.5 -25t20.5 -60zM497 1026q0 -35 -20 -60.5t-50 -25.5q-28 0 -49.5 25.5t-21.5 60.5t21.5 60t49.5 25q30 0 50 -25t20 -60z" />
    <glyph glyph-name="Amacron" unicode="&#x100;" horiz-adv-x="705" 
d="M365 853h-8l-80 -485h168zM507 0l-45 244h-202l-46 -244h-134l202 1003h160l203 -1003h-138zM206 1105v102h306v-102h-306z" />
    <glyph glyph-name="amacron" unicode="&#x101;" horiz-adv-x="662" 
d="M409 427q-101 0 -149 -48.5t-48 -143.5q0 -30 4.5 -55t14 -43.5t24.5 -29t36 -10.5q28 0 58.5 13.5t59.5 57.5v259zM482 -10q-29 10 -46.5 34t-19.5 57h-1q-31 -46 -67 -69.5t-87 -23.5q-41 0 -73 17.5t-54 49t-33 76t-11 97.5q0 82 26 139t70.5 92t102 51t120.5 16v97
q0 18 -3.5 35t-12.5 29.5t-24.5 20t-39.5 7.5q-51 0 -94.5 -18.5t-84.5 -48.5l-28 116q51 32 103.5 48.5t111.5 16.5q57 0 94.5 -14.5t60 -44.5t32 -75.5t9.5 -106.5v-417q0 -41 4.5 -65.5t24.5 -41.5zM189 965v102h306v-102h-306z" />
    <glyph glyph-name="Abreve" unicode="&#x102;" horiz-adv-x="705" 
d="M365 853h-8l-80 -485h168zM507 0l-45 244h-202l-46 -244h-134l202 1003h160l203 -1003h-138zM522 1247q0 -51 -16.5 -83.5t-41 -51t-52.5 -25.5t-51 -7q-21 0 -49 7t-53 25.5t-42 51t-17 83.5h85q0 -35 20 -56t56 -21q37 0 57 19.5t20 57.5h84v0z" />
    <glyph glyph-name="abreve" unicode="&#x103;" horiz-adv-x="662" 
d="M409 427q-101 0 -149 -48.5t-48 -143.5q0 -30 4.5 -55t14 -43.5t24.5 -29t36 -10.5q28 0 58.5 13.5t59.5 57.5v259zM482 -10q-29 10 -46.5 34t-19.5 57h-1q-31 -46 -67 -69.5t-87 -23.5q-41 0 -73 17.5t-54 49t-33 76t-11 97.5q0 82 26 139t70.5 92t102 51t120.5 16v97
q0 18 -3.5 35t-12.5 29.5t-24.5 20t-39.5 7.5q-51 0 -94.5 -18.5t-84.5 -48.5l-28 116q51 32 103.5 48.5t111.5 16.5q57 0 94.5 -14.5t60 -44.5t32 -75.5t9.5 -106.5v-417q0 -41 4.5 -65.5t24.5 -41.5zM493 1087q0 -51 -16.5 -83.5t-41 -51t-52.5 -25.5t-51 -7q-21 0 -49 7
t-53 25.5t-42 51t-17 83.5h85q0 -35 20 -56t56 -21q37 0 57 19.5t20 57.5h84v0z" />
    <glyph glyph-name="Aogonek" unicode="&#x104;" horiz-adv-x="705" 
d="M355 853h-8l-80 -485h168zM592 0q-19 -16 -38.5 -32.5t-35.5 -35.5t-26 -41.5t-10 -50.5q0 -21 5.5 -35t14 -22t19 -11t20.5 -3q20 0 33.5 6.5t26.5 13.5l28 -71q-15 -10 -43.5 -20t-63.5 -10q-56 0 -92 34t-36 97q0 43 15.5 74t36.5 53t43 35t36 19h-28l-45 244h-202
l-46 -244h-134l202 1003h160l203 -1003h-43z" />
    <glyph glyph-name="aogonek" unicode="&#x105;" horiz-adv-x="662" 
d="M409 427q-101 0 -149 -48.5t-48 -143.5q0 -30 4.5 -55t14 -43.5t24.5 -29t36 -10.5q28 0 58.5 13.5t59.5 57.5v259zM261 -12q-41 0 -73 17.5t-54 49t-33 76t-11 97.5q0 82 26 139t70.5 92t102 51t120.5 16v97q0 18 -3.5 35t-12.5 29.5t-24.5 20t-39.5 7.5
q-51 0 -94.5 -18.5t-84.5 -48.5l-28 116q51 32 103.5 48.5t111.5 16.5q57 0 94.5 -14.5t60 -44.5t32 -75.5t9.5 -106.5v-417q0 -41 4.5 -65.5t24.5 -41.5q-38 -32 -63 -59.5t-40 -52.5t-21 -47t-6 -42q0 -40 18.5 -54t38.5 -14t34 6t26 13l29 -71q-14 -10 -43.5 -20
t-62.5 -10q-57 0 -92 32t-35 94q0 32 11 60t26.5 51t31.5 40t26 27q-21 24 -24 64h-1q-31 -46 -67 -69.5t-87 -23.5z" />
    <glyph glyph-name="Cacute" unicode="&#x106;" horiz-adv-x="654" 
d="M594 118q-16 -26 -38 -50.5t-49 -43.5t-59.5 -30t-69.5 -11q-79 0 -132 43t-85.5 115t-46.5 165.5t-14 194.5q0 93 14 185t47 165.5t87.5 119t135.5 45.5q63 0 110 -33.5t92 -96.5l-77 -103q-29 51 -57 78.5t-70 27.5q-41 0 -69 -30t-46 -82.5t-26 -123.5t-8 -152
q0 -37 2 -81t8 -87t16.5 -83.5t27.5 -71.5t41 -49.5t57 -18.5q45 0 78 29t65 82l66 -103v0zM388 1084l-63 43l132 168l111 -81z" />
    <glyph glyph-name="cacute" unicode="&#x107;" horiz-adv-x="585" 
d="M458 656q-26 32 -51 45.5t-56 13.5q-42 0 -66.5 -29t-37 -73t-16 -98t-3.5 -103t3.5 -103.5t16.5 -100.5t38.5 -76.5t68.5 -30.5q34 0 61.5 15.5t54.5 41.5l44 -105q-40 -35 -83.5 -50t-93.5 -15q-71 0 -117 36.5t-73 96.5t-37.5 136t-10.5 154q0 76 12 150.5t40.5 134
t76.5 96.5t120 37q45 0 83.5 -15t76.5 -47zM357 924l-63 43l132 168l111 -81z" />
    <glyph glyph-name="Ccaron" unicode="&#x10c;" horiz-adv-x="654" 
d="M594 118q-16 -26 -38 -50.5t-49 -43.5t-59.5 -30t-69.5 -11q-79 0 -132 43t-85.5 115t-46.5 165.5t-14 194.5q0 93 14 185t47 165.5t87.5 119t135.5 45.5q63 0 110 -33.5t92 -96.5l-77 -103q-29 51 -57 78.5t-70 27.5q-41 0 -69 -30t-46 -82.5t-26 -123.5t-8 -152
q0 -37 2 -81t8 -87t16.5 -83.5t27.5 -71.5t41 -49.5t57 -18.5q45 0 78 29t65 82l66 -103v0zM273 1283l112 -76l116 76l55 -73l-171 -123l-173 123z" />
    <glyph glyph-name="ccaron" unicode="&#x10d;" horiz-adv-x="585" 
d="M458 656q-26 32 -51 45.5t-56 13.5q-42 0 -66.5 -29t-37 -73t-16 -98t-3.5 -103t3.5 -103.5t16.5 -100.5t38.5 -76.5t68.5 -30.5q34 0 61.5 15.5t54.5 41.5l44 -105q-40 -35 -83.5 -50t-93.5 -15q-71 0 -117 36.5t-73 96.5t-37.5 136t-10.5 154q0 76 12 150.5t40.5 134
t76.5 96.5t120 37q45 0 83.5 -15t76.5 -47zM233 1113l112 -76l116 76l55 -73l-171 -123l-173 123z" />
    <glyph glyph-name="Dcaron" unicode="&#x10e;" horiz-adv-x="721" 
d="M488 511q0 88 -9 158t-27 119t-48.5 75.5t-73.5 26.5q-17 0 -35 -1t-37 -5v-761q17 -2 33 -2h31q47 0 79 26.5t51 76.5t27.5 122.5t8.5 164.5zM621 504q0 -114 -17 -207t-54 -159t-96 -102t-144 -36h-180v995q41 7 93 11.5t104 4.5q81 0 137 -40t91 -109t50.5 -161
t15.5 -197zM208 1283l112 -76l116 76l55 -73l-171 -123l-173 123z" />
    <glyph glyph-name="dcaron" unicode="&#x10f;" horiz-adv-x="688" 
d="M431 532q0 88 -24.5 135.5t-75.5 47.5q-32 0 -52 -22t-31.5 -62.5t-15.5 -98t-4 -127.5q0 -64 5 -119.5t16.5 -96.5t31.5 -64.5t50 -23.5t49.5 17t31 44t15.5 60.5t4 66.5v243zM444 0l-3 93h-3q-28 -57 -60 -81t-80 -24q-57 0 -95 37t-61 96.5t-32.5 134t-9.5 150.5
q0 204 51.5 313.5t153.5 109.5q42 0 72.5 -19t53.5 -65v340h127v-1085h-114zM723 842h-72l16 243h121z" />
    <glyph glyph-name="Dcroat" unicode="&#x110;" horiz-adv-x="721" 
d="M258 457v-334q17 -2 33 -2h31q47 0 79 26.5t52 76.5t28.5 122.5t8.5 164.5q0 88 -9 158t-28 119t-49.5 75.5t-73.5 26.5q-17 0 -35 -1t-37 -5v-296h94v-131h-94zM621 504q0 -114 -17 -207t-54 -159t-96 -102t-144 -36h-180v457h-52v131h52v407q41 7 93 11.5t104 4.5
q81 0 137 -40t91 -109t50.5 -161t15.5 -197z" />
    <glyph glyph-name="dcroat" unicode="&#x111;" horiz-adv-x="688" 
d="M431 532q0 88 -24.5 135.5t-75.5 47.5q-32 0 -52 -22t-31.5 -62.5t-15.5 -98t-4 -127.5q0 -64 5 -119.5t16.5 -96.5t31.5 -64.5t50 -23.5t49.5 17t31 44t15.5 60.5t4 66.5v243zM444 0l-3 93h-3q-28 -57 -60 -81t-80 -24q-57 0 -95 37t-61 96.5t-32.5 134t-9.5 150.5
q0 204 51.5 313.5t153.5 109.5q42 0 72.5 -19t53.5 -65v161h-77v92h77v87h127v-87h67v-92h-67v-906h-114z" />
    <glyph glyph-name="Emacron" unicode="&#x112;" horiz-adv-x="583" 
d="M130 0v1000h354v-124h-226v-291h202v-124h-202v-337h235v-124h-363zM146 1105v102h306v-102h-306z" />
    <glyph glyph-name="emacron" unicode="&#x113;" horiz-adv-x="661" 
d="M442 462q0 50 -4.5 96t-15.5 81.5t-31 57t-53 21.5q-58 0 -84 -65t-26 -191h214v0zM561 414q0 -10 -1 -25.5t-2 -30.5h-330q0 -126 31.5 -191.5t95.5 -65.5q38 0 71.5 13.5t63.5 42.5l45 -106q-43 -34 -90 -48.5t-98 -14.5q-247 0 -247 420q0 109 17.5 188.5t49 131
t76 76.5t97.5 25q49 0 89.5 -21.5t70 -70.5t45.5 -128.5t16 -194.5zM182 945v102h306v-102h-306z" />
    <glyph glyph-name="Ebreve" unicode="&#x114;" horiz-adv-x="583" 
d="M130 0v1000h354v-124h-226v-291h202v-124h-202v-337h235v-124h-363zM475 1247q0 -51 -16.5 -83.5t-41 -51t-52.5 -25.5t-51 -7q-21 0 -49 7t-53 25.5t-42 51t-17 83.5h85q0 -35 20 -56t56 -21q37 0 57 19.5t20 57.5h84v0z" />
    <glyph glyph-name="ebreve" unicode="&#x115;" horiz-adv-x="661" 
d="M442 462q0 50 -4.5 96t-15.5 81.5t-31 57t-53 21.5q-58 0 -84 -65t-26 -191h214v0zM561 414q0 -10 -1 -25.5t-2 -30.5h-330q0 -126 31.5 -191.5t95.5 -65.5q38 0 71.5 13.5t63.5 42.5l45 -106q-43 -34 -90 -48.5t-98 -14.5q-247 0 -247 420q0 109 17.5 188.5t49 131
t76 76.5t97.5 25q49 0 89.5 -21.5t70 -70.5t45.5 -128.5t16 -194.5zM502 1087q0 -51 -16.5 -83.5t-41 -51t-52.5 -25.5t-51 -7q-21 0 -49 7t-53 25.5t-42 51t-17 83.5h85q0 -35 20 -56t56 -21q37 0 57 19.5t20 57.5h84v0z" />
    <glyph glyph-name="Edotaccent" unicode="&#x116;" horiz-adv-x="583" 
d="M130 0v1000h354v-124h-226v-291h202v-124h-202v-337h235v-124h-363zM396 1187q0 -41 -20.5 -65.5t-55.5 -24.5q-37 0 -57.5 24.5t-20.5 65.5q0 40 20.5 64t57.5 24q35 0 55.5 -24t20.5 -64z" />
    <glyph glyph-name="edotaccent" unicode="&#x117;" horiz-adv-x="661" 
d="M442 462q0 50 -4.5 96t-15.5 81.5t-31 57t-53 21.5q-58 0 -84 -65t-26 -191h214v0zM561 414q0 -10 -1 -25.5t-2 -30.5h-330q0 -126 31.5 -191.5t95.5 -65.5q38 0 71.5 13.5t63.5 42.5l45 -106q-43 -34 -90 -48.5t-98 -14.5q-247 0 -247 420q0 109 17.5 188.5t49 131
t76 76.5t97.5 25q49 0 89.5 -21.5t70 -70.5t45.5 -128.5t16 -194.5zM422 1027q0 -41 -20.5 -65.5t-55.5 -24.5q-37 0 -57.5 24.5t-20.5 65.5q0 40 20.5 64t57.5 24q35 0 55.5 -24t20.5 -64z" />
    <glyph glyph-name="Eogonek" unicode="&#x118;" horiz-adv-x="583" 
d="M447 0q-19 -16 -38.5 -32t-35.5 -34.5t-26 -40.5t-10 -50q0 -21 5.5 -35t14.5 -22t19.5 -11t20.5 -3q20 0 34 6.5t26 13.5l27 -77q-14 -10 -43.5 -20t-62.5 -10q-57 0 -93.5 36t-36.5 102q0 37 13.5 67t32.5 52.5t39.5 37t34.5 20.5h-238v1000h354v-127h-226v-285h202
v-131h-202v-333h235v-124h-46z" />
    <glyph glyph-name="eogonek" unicode="&#x119;" horiz-adv-x="661" 
d="M442 462q0 50 -4.5 96t-15.5 81.5t-31 57t-53 21.5q-58 0 -84 -65t-26 -191h214v0zM492 21q-21 -14 -41.5 -30.5t-36.5 -36t-26 -43.5t-10 -54q0 -22 5.5 -36.5t14.5 -23t19.5 -12t21.5 -3.5q20 0 34.5 6t27.5 14l30 -73q-17 -12 -46.5 -21.5t-64.5 -9.5q-60 0 -95 35.5
t-35 108.5q0 51 22 88.5t51 57.5h-16q-247 0 -247 420q0 109 17.5 188.5t49 131t76 76.5t97.5 25q49 0 89.5 -21.5t70 -70.5t45.5 -128.5t16 -194.5q0 -10 -1 -25.5t-2 -30.5h-330q0 -126 31.5 -191.5t95.5 -65.5q38 0 71.5 13.5t63.5 42.5l45 -106q-11 -9 -22 -16t-21 -14z
" />
    <glyph glyph-name="Ecaron" unicode="&#x11a;" horiz-adv-x="583" 
d="M130 0v1000h354v-124h-226v-291h202v-124h-202v-337h235v-124h-363zM197 1283l112 -76l116 76l55 -73l-171 -123l-173 123z" />
    <glyph glyph-name="ecaron" unicode="&#x11b;" horiz-adv-x="661" 
d="M442 462q0 50 -4.5 96t-15.5 81.5t-31 57t-53 21.5q-58 0 -84 -65t-26 -191h214v0zM561 414q0 -10 -1 -25.5t-2 -30.5h-330q0 -126 31.5 -191.5t95.5 -65.5q38 0 71.5 13.5t63.5 42.5l45 -106q-43 -34 -90 -48.5t-98 -14.5q-247 0 -247 420q0 109 17.5 188.5t49 131
t76 76.5t97.5 25q49 0 89.5 -21.5t70 -70.5t45.5 -128.5t16 -194.5zM224 1113l112 -76l116 76l55 -73l-171 -123l-173 123z" />
    <glyph glyph-name="Gbreve" unicode="&#x11e;" horiz-adv-x="716" 
d="M616 452q0 -52 -2.5 -107t-10.5 -107t-23.5 -98.5t-42 -81t-66 -55t-94.5 -20.5t-97 22.5t-72.5 60.5t-51.5 89t-33.5 108.5t-17.5 118t-5 117.5q0 58 5.5 118.5t18.5 118t34.5 108.5t53 89t74 60.5t98.5 22.5q60 0 108 -31.5t90 -84.5l-73 -107q-13 20 -26 37.5
t-28 30.5t-33 20.5t-40 7.5q-35 0 -59.5 -20t-41 -53t-26 -74.5t-14.5 -84.5t-6.5 -84t-1.5 -72q0 -37 1 -81t5.5 -88.5t13.5 -85.5t25.5 -73t41 -51t59.5 -19q46 0 70.5 28.5t35 73t12 99.5t1.5 111h-110v124h228v-87v0zM539 1247q0 -51 -16.5 -83.5t-41 -51t-52.5 -25.5
t-51 -7q-21 0 -49 7t-53 25.5t-42 51t-17 83.5h85q0 -35 20 -56t56 -21q37 0 57 19.5t20 57.5h84v0z" />
    <glyph glyph-name="gbreve" unicode="&#x11f;" horiz-adv-x="689" 
d="M436 519q0 32 -4.5 67t-16 63.5t-31.5 47t-51 18.5q-30 0 -50 -22.5t-32.5 -62.5t-17.5 -96t-5 -122q0 -37 3 -86.5t13.5 -94.5t30.5 -76.5t55 -31.5q38 0 59 25.5t31.5 62.5t13 78t2.5 72v158zM559 -7q0 -61 -6.5 -117.5t-28.5 -99.5t-64 -69t-113 -26q-60 0 -115 16.5
t-99 42.5l43 122q35 -26 73.5 -39.5t91.5 -13.5q28 0 46 7.5t28.5 25.5t15 47.5t4.5 73.5v138h-4q-20 -47 -53.5 -70.5t-76.5 -23.5q-44 0 -81 23.5t-63.5 72.5t-41.5 124t-15 179q0 77 9 153t32 136t62.5 97t101.5 37q45 0 77 -22.5t54 -71.5h2l6 82h115v-824v0zM510 1067
q0 -51 -16.5 -83.5t-41 -51t-52.5 -25.5t-51 -7q-21 0 -49 7t-53 25.5t-42 51t-17 83.5h85q0 -35 20 -56t56 -21q37 0 57 19.5t20 57.5h84v0z" />
    <glyph glyph-name="Gcommaaccent" unicode="&#x122;" horiz-adv-x="716" 
d="M616 452q0 -52 -2.5 -107t-10.5 -107t-23.5 -98.5t-42 -81t-66 -55t-94.5 -20.5t-97 22.5t-72.5 60.5t-51.5 89t-33.5 108.5t-17.5 118t-5 117.5q0 58 5.5 118.5t18.5 118t34.5 108.5t53 89t74 60.5t98.5 22.5q60 0 108 -31.5t90 -84.5l-73 -107q-13 20 -26 37.5
t-28 30.5t-33 20.5t-40 7.5q-35 0 -59.5 -20t-41 -53t-26 -74.5t-14.5 -84.5t-6.5 -84t-1.5 -72q0 -37 1 -81t5.5 -88.5t13.5 -85.5t25.5 -73t41 -51t59.5 -19q46 0 70.5 28.5t35 73t12 99.5t1.5 111h-110v124h228v-87v0zM383 -317h-72l16 244h121z" />
    <glyph glyph-name="gcommaaccent" unicode="&#x123;" horiz-adv-x="689" 
d="M436 519q0 32 -4.5 67t-16 63.5t-31.5 47t-51 18.5q-30 0 -50 -22.5t-32.5 -62.5t-17.5 -96t-5 -122q0 -37 3 -86.5t13.5 -94.5t30.5 -76.5t55 -31.5q38 0 59 25.5t31.5 62.5t13 78t2.5 72v158zM559 -7q0 -61 -6.5 -117.5t-28.5 -99.5t-64 -69t-113 -26q-60 0 -115 16.5
t-99 42.5l43 122q35 -26 73.5 -39.5t91.5 -13.5q28 0 46 7.5t28.5 25.5t15 47.5t4.5 73.5v138h-4q-20 -47 -53.5 -70.5t-76.5 -23.5q-44 0 -81 23.5t-63.5 72.5t-41.5 124t-15 179q0 77 9 153t32 136t62.5 97t101.5 37q45 0 77 -22.5t54 -71.5h2l6 82h115v-824v0zM363 1133
h76l-17 -204h-127z" />
    <glyph glyph-name="Imacron" unicode="&#x12a;" horiz-adv-x="388" 
d="M130 0v1000h128v-1000h-128zM42 1105v102h306v-102h-306z" />
    <glyph glyph-name="imacron" unicode="&#x12b;" horiz-adv-x="375" 
d="M125 0v817h124v-817h-124zM33 965v102h306v-102h-306z" />
    <glyph glyph-name="Ibreve" unicode="&#x12c;" horiz-adv-x="388" 
d="M130 0v1000h128v-1000h-128zM358 1247q0 -51 -16.5 -83.5t-41 -51t-52.5 -25.5t-51 -7q-21 0 -49 7t-53 25.5t-42 51t-17 83.5h85q0 -35 20 -56t56 -21q37 0 57 19.5t20 57.5h84v0z" />
    <glyph glyph-name="ibreve" unicode="&#x12d;" horiz-adv-x="375" 
d="M125 0v817h124v-817h-124zM350 1067q0 -51 -16.5 -83.5t-41 -51t-52.5 -25.5t-51 -7q-21 0 -49 7t-53 25.5t-42 51t-17 83.5h85q0 -35 20 -56t56 -21q37 0 57 19.5t20 57.5h84v0z" />
    <glyph glyph-name="Iogonek" unicode="&#x12e;" horiz-adv-x="390" 
d="M234 0q-19 -16 -37 -32t-32.5 -34.5t-23.5 -40.5t-9 -50q0 -43 17 -58.5t34 -15.5q20 0 34 6.5t26 13.5l28 -71q-15 -10 -43.5 -20t-63.5 -10q-51 0 -84.5 34t-33.5 100q0 37 13.5 67t33 52.5t40.5 37.5t35 21h-38v1000h130v-1000h-26z" />
    <glyph glyph-name="iogonek" unicode="&#x12f;" horiz-adv-x="375" 
d="M265 1027q0 -41 -21 -65.5t-56 -24.5q-37 0 -57.5 24.5t-20.5 65.5q0 40 20.5 64t57.5 24q35 0 56 -24t21 -64zM225 0q-18 -16 -37.5 -32t-35.5 -34.5t-26 -40.5t-10 -50q0 -21 5.5 -35.5t14 -23t19 -12t20.5 -3.5q20 0 33.5 6.5t26.5 13.5l28 -71q-15 -10 -43.5 -20
t-63.5 -10q-56 0 -90.5 34t-34.5 100q0 37 15 67t35.5 52.5t42 37.5t35.5 21h-34v817h124v-817h-24z" />
    <glyph glyph-name="Idotaccent" unicode="&#x130;" horiz-adv-x="388" 
d="M130 0v1000h128v-1000h-128zM279 1197q0 -41 -20.5 -65.5t-55.5 -24.5q-37 0 -57.5 24.5t-20.5 65.5q0 40 20.5 64t57.5 24q35 0 55.5 -24t20.5 -64z" />
    <glyph glyph-name="dotlessi" unicode="&#x131;" horiz-adv-x="375" 
d="M125 0v817h124v-817h-124z" />
    <glyph glyph-name="Kcommaaccent" unicode="&#x136;" horiz-adv-x="673" 
d="M465 0l-148 438l-59 -116v-322h-128v1000h128v-458h6l184 458h144l-188 -437l209 -563h-148zM364 -317h-72l16 244h121z" />
    <glyph glyph-name="kcommaaccent" unicode="&#x137;" horiz-adv-x="630" 
d="M424 0l-114 355l-59 -118l2 -237h-123v1085h125l-1 -643h4l161 375h133l-155 -346l163 -471h-136zM333 -317h-72l16 244h121z" />
    <glyph glyph-name="Lacute" unicode="&#x139;" horiz-adv-x="545" 
d="M130 0v1000h128v-876h207v-124h-335zM207 1069l-63 43l132 168l111 -81z" />
    <glyph glyph-name="lacute" unicode="&#x13a;" horiz-adv-x="408" 
d="M328 0q-17 -5 -38 -7t-37 -2q-35 0 -58.5 8.5t-37.5 29t-20.5 54.5t-6.5 84v918h125v-885q0 -26 2.5 -42t9 -24t17.5 -10.5t28 -2.5h16v-121v0zM194 1154l-63 43l132 168l111 -81z" />
    <glyph glyph-name="Lcommaaccent" unicode="&#x13b;" horiz-adv-x="545" 
d="M130 0v1000h128v-876h207v-124h-335zM306 -317h-72l16 244h121z" />
    <glyph glyph-name="lcommaaccent" unicode="&#x13c;" horiz-adv-x="408" 
d="M328 0q-17 -5 -38 -7t-37 -2q-35 0 -58.5 8.5t-37.5 29t-20.5 54.5t-6.5 84v918h125v-885q0 -26 2.5 -42t9 -24t17.5 -10.5t28 -2.5h16v-121v0zM244 -317h-72l16 244h121z" />
    <glyph glyph-name="Lcaron" unicode="&#x13d;" horiz-adv-x="545" 
d="M130 0v1000h128v-876h207v-124h-335zM467 842h-72l16 243h121z" />
    <glyph glyph-name="lcaron" unicode="&#x13e;" horiz-adv-x="408" 
d="M328 0q-17 -5 -38 -7t-37 -2q-35 0 -58.5 8.5t-37.5 29t-20.5 54.5t-6.5 84v918h125v-885q0 -26 2.5 -42t9 -24t17.5 -10.5t28 -2.5h16v-121v0zM427 842h-72l16 243h121z" />
    <glyph glyph-name="Lslash" unicode="&#x141;" horiz-adv-x="545" 
d="M130 0v433l-77 -57v141l77 57v426h128v-342l126 99v-147l-126 -98v-388h207v-124h-335z" />
    <glyph glyph-name="lslash" unicode="&#x142;" horiz-adv-x="408" 
d="M255 575v-375q0 -26 2.5 -42t9 -24t17.5 -10.5t28 -2.5h16v-121q-17 -5 -38 -7t-37 -2q-35 0 -58.5 8.5t-37.5 29t-20.5 54.5t-6.5 84v318l-67 -58v141l67 58v459h125v-369l116 101v-141z" />
    <glyph glyph-name="Nacute" unicode="&#x143;" horiz-adv-x="770" 
d="M526 0l-271 672h-4v-672h-121v1000h127l260 -670h2v670h121v-1000h-114zM392 1084l-63 43l132 168l111 -81z" />
    <glyph glyph-name="nacute" unicode="&#x144;" horiz-adv-x="698" 
d="M443 0v493q0 49 -0.5 89t-8 67.5t-25 42.5t-51.5 15q-30 0 -50 -14.5t-32 -41.5t-16.5 -64.5t-4.5 -82.5v-504h-125v817h112l8 -80h1q25 52 61.5 72t84.5 20q52 0 85.5 -20.5t52.5 -62.5t26 -105.5t7 -148.5v-492h-125zM378 924l-63 43l132 168l111 -81z" />
    <glyph glyph-name="Ncommaaccent" unicode="&#x145;" horiz-adv-x="770" 
d="M526 0l-271 672h-4v-672h-121v1000h127l260 -670h2v670h121v-1000h-114zM393 -317h-72l16 244h121z" />
    <glyph glyph-name="ncommaaccent" unicode="&#x146;" horiz-adv-x="698" 
d="M443 0v493q0 49 -0.5 89t-8 67.5t-25 42.5t-51.5 15q-30 0 -50 -14.5t-32 -41.5t-16.5 -64.5t-4.5 -82.5v-504h-125v817h112l8 -80h1q25 52 61.5 72t84.5 20q52 0 85.5 -20.5t52.5 -62.5t26 -105.5t7 -148.5v-492h-125zM353 -317h-72l16 244h121z" />
    <glyph glyph-name="Ncaron" unicode="&#x147;" horiz-adv-x="770" 
d="M526 0l-271 672h-4v-672h-121v1000h127l260 -670h2v670h121v-1000h-114zM269 1283l112 -76l116 76l55 -73l-171 -123l-173 123z" />
    <glyph glyph-name="ncaron" unicode="&#x148;" horiz-adv-x="698" 
d="M443 0v493q0 49 -0.5 89t-8 67.5t-25 42.5t-51.5 15q-30 0 -50 -14.5t-32 -41.5t-16.5 -64.5t-4.5 -82.5v-504h-125v817h112l8 -80h1q25 52 61.5 72t84.5 20q52 0 85.5 -20.5t52.5 -62.5t26 -105.5t7 -148.5v-492h-125zM255 1113l112 -76l116 76l55 -73l-171 -123
l-173 123z" />
    <glyph glyph-name="Omacron" unicode="&#x14c;" horiz-adv-x="778" 
d="M545 502q0 88 -8 160t-26.5 123t-48.5 79t-74 28q-43 0 -72.5 -28.5t-48 -80t-26.5 -123.5t-8 -158q0 -89 8 -162t26.5 -124.5t49 -80t74.5 -28.5q43 0 72.5 29t47.5 81.5t26 125t8 159.5zM678 501q0 -112 -17.5 -207t-52.5 -164t-89.5 -108t-130.5 -39q-75 0 -129.5 39
t-90 108t-52 164t-16.5 207q0 111 16.5 205.5t51.5 163t89.5 107.5t130.5 39t130.5 -39t89.5 -107.5t52.5 -163t17.5 -205.5zM230 1125v102h306v-102h-306z" />
    <glyph glyph-name="omacron" unicode="&#x14d;" 
d="M448 405q0 54 -2.5 108t-13.5 97.5t-33.5 71t-61.5 27.5t-61 -27.5t-32.5 -71t-13 -97.5t-2.5 -108q0 -69 4 -125t15.5 -95.5t33 -60.5t56.5 -21t56.5 21.5t33.5 60.5t16.5 95t4.5 125zM576 408q0 -100 -15 -178t-44.5 -132t-74 -82t-105.5 -28q-121 0 -179 109.5
t-58 310.5t58 311t179 110t180 -110t59 -311zM185 965v102h306v-102h-306z" />
    <glyph glyph-name="Obreve" unicode="&#x14e;" horiz-adv-x="778" 
d="M545 502q0 88 -8 160t-26.5 123t-48.5 79t-74 28q-43 0 -72.5 -28.5t-48 -80t-26.5 -123.5t-8 -158q0 -89 8 -162t26.5 -124.5t49 -80t74.5 -28.5q43 0 72.5 29t47.5 81.5t26 125t8 159.5zM678 501q0 -112 -17.5 -207t-52.5 -164t-89.5 -108t-130.5 -39q-75 0 -129.5 39
t-90 108t-52 164t-16.5 207q0 111 16.5 205.5t51.5 163t89.5 107.5t130.5 39t130.5 -39t89.5 -107.5t52.5 -163t17.5 -205.5zM549 1247q0 -51 -16.5 -83.5t-41 -51t-52.5 -25.5t-51 -7q-21 0 -49 7t-53 25.5t-42 51t-17 83.5h85q0 -35 20 -56t56 -21q37 0 57 19.5t20 57.5
h84v0z" />
    <glyph glyph-name="obreve" unicode="&#x14f;" 
d="M448 405q0 54 -2.5 108t-13.5 97.5t-33.5 71t-61.5 27.5t-61 -27.5t-32.5 -71t-13 -97.5t-2.5 -108q0 -69 4 -125t15.5 -95.5t33 -60.5t56.5 -21t56.5 21.5t33.5 60.5t16.5 95t4.5 125zM576 408q0 -100 -15 -178t-44.5 -132t-74 -82t-105.5 -28q-121 0 -179 109.5
t-58 310.5t58 311t179 110t180 -110t59 -311zM502 1087q0 -51 -16.5 -83.5t-41 -51t-52.5 -25.5t-51 -7q-21 0 -49 7t-53 25.5t-42 51t-17 83.5h85q0 -35 20 -56t56 -21q37 0 57 19.5t20 57.5h84v0z" />
    <glyph glyph-name="Ohungarumlaut" unicode="&#x150;" horiz-adv-x="778" 
d="M545 502q0 88 -8 160t-26.5 123t-48.5 79t-74 28q-43 0 -72.5 -28.5t-48 -80t-26.5 -123.5t-8 -158q0 -89 8 -162t26.5 -124.5t49 -80t74.5 -28.5q43 0 72.5 29t47.5 81.5t26 125t8 159.5zM678 501q0 -112 -17.5 -207t-52.5 -164t-89.5 -108t-130.5 -39q-75 0 -129.5 39
t-90 108t-52 164t-16.5 207q0 111 16.5 205.5t51.5 163t89.5 107.5t130.5 39t130.5 -39t89.5 -107.5t52.5 -163t17.5 -205.5zM549 1084l-62 43l136 153l106 -66zM277 1084l-63 43l137 153l106 -66z" />
    <glyph glyph-name="ohungarumlaut" unicode="&#x151;" 
d="M448 405q0 54 -2.5 108t-13.5 97.5t-33.5 71t-61.5 27.5t-61 -27.5t-32.5 -71t-13 -97.5t-2.5 -108q0 -69 4 -125t15.5 -95.5t33 -60.5t56.5 -21t56.5 21.5t33.5 60.5t16.5 95t4.5 125zM576 408q0 -100 -15 -178t-44.5 -132t-74 -82t-105.5 -28q-121 0 -179 109.5
t-58 310.5t58 311t179 110t180 -110t59 -311zM489 924l-62 43l136 153l106 -66zM217 924l-63 43l137 153l106 -66z" />
    <glyph glyph-name="OE" unicode="&#x152;" horiz-adv-x="1000" 
d="M547 0v45q-14 -13 -29 -23q-54 -39 -130 -39q-75 0 -129.5 39t-90 108t-52 164t-16.5 207q0 111 16.5 205.5t51.5 163t89.5 107.5t130.5 39t130 -39q15 -11 29 -24v47h354v-124h-226v-291h202v-124h-202v-337h235v-124h-363zM538 662q-9 72 -27.5 123t-48.5 79t-74 28
q-43 0 -72.5 -28.5t-48 -80t-26.5 -123.5t-8 -158q0 -89 8 -162t26.5 -124.5t49 -80t74.5 -28.5q43 0 72.5 29t47.5 81.5t27 124.5q7 62 9 134v52q-2 73 -9 134z" />
    <glyph glyph-name="oe" unicode="&#x153;" horiz-adv-x="1009" 
d="M790 462q0 50 -4.5 96t-15.5 81.5t-31 57t-53 21.5q-59 0 -85 -65t-26 -191h215v0zM448 406q0 54 -2.5 108t-13.5 97.5t-33.5 70.5t-61.5 27t-61 -27.5t-32.5 -71t-13 -97.5t-2.5 -108q0 -69 4 -125t15.5 -95.5t33 -60.5t56.5 -21t56.5 21.5t33.5 61.5t16.5 96t4.5 124z
M909 414q0 -10 -1 -25.5t-2 -30.5h-331q0 -126 32 -191.5t96 -65.5q37 0 70.5 13.5t64.5 42.5l45 -106q-43 -34 -90.5 -48.5t-98.5 -14.5q-69 0 -113.5 33.5t-69.5 101.5q-20 -61 -63 -98t-111 -37q-121 0 -179 109.5t-58 310.5t58 311t179 110q68 0 109.5 -36t64.5 -104
q51 140 177 140q49 0 89.5 -21.5t70 -70.5t45.5 -128.5t16 -194.5z" />
    <glyph glyph-name="Racute" unicode="&#x154;" horiz-adv-x="691" 
d="M458 707q0 33 -4.5 66t-18 59t-37 42t-61.5 16q-20 0 -39.5 -1t-39.5 -5v-353h93q55 0 81 41t26 135zM457 0l-70 355q-6 28 -12.5 42.5t-23.5 14.5h-93v-412h-128v995q29 4 54 7t49.5 4.5t49 2.5t51.5 1q124 0 188 -75.5t64 -219.5q0 -106 -29 -165.5t-79 -88.5v-2
q9 -4 14 -17t9 -30l90 -412h-134zM332 1084l-63 43l132 168l111 -81z" />
    <glyph glyph-name="racute" unicode="&#x155;" horiz-adv-x="488" 
d="M381 683q-60 0 -93 -39.5t-33 -137.5v-506h-125v817h117l6 -94h1q20 53 52 79.5t80 26.5h32v-146h-37zM260 924l-63 43l132 168l111 -81z" />
    <glyph glyph-name="Rcommaaccent" unicode="&#x156;" horiz-adv-x="691" 
d="M458 707q0 33 -4.5 66t-18 59t-37 42t-61.5 16q-20 0 -39.5 -1t-39.5 -5v-353h93q55 0 81 41t26 135zM457 0l-70 355q-6 28 -12.5 42.5t-23.5 14.5h-93v-412h-128v995q29 4 54 7t49.5 4.5t49 2.5t51.5 1q124 0 188 -75.5t64 -219.5q0 -106 -29 -165.5t-79 -88.5v-2
q9 -4 14 -17t9 -30l90 -412h-134zM352 -317h-72l16 244h121z" />
    <glyph glyph-name="rcommaaccent" unicode="&#x157;" horiz-adv-x="488" 
d="M381 683q-60 0 -93 -39.5t-33 -137.5v-506h-125v817h117l6 -94h1q20 53 52 79.5t80 26.5h32v-146h-37zM190 -317h-72l16 244h121z" />
    <glyph glyph-name="Rcaron" unicode="&#x158;" horiz-adv-x="691" 
d="M458 707q0 33 -4.5 66t-18 59t-37 42t-61.5 16q-20 0 -39.5 -1t-39.5 -5v-353h93q55 0 81 41t26 135zM457 0l-70 355q-6 28 -12.5 42.5t-23.5 14.5h-93v-412h-128v995q29 4 54 7t49.5 4.5t49 2.5t51.5 1q124 0 188 -75.5t64 -219.5q0 -106 -29 -165.5t-79 -88.5v-2
q9 -4 14 -17t9 -30l90 -412h-134zM217 1283l112 -76l116 76l55 -73l-171 -123l-173 123z" />
    <glyph glyph-name="rcaron" unicode="&#x159;" horiz-adv-x="488" 
d="M381 683q-60 0 -93 -39.5t-33 -137.5v-506h-125v817h117l6 -94h1q20 53 52 79.5t80 26.5h32v-146h-37zM162 1113l112 -76l116 76l55 -73l-171 -123l-173 123z" />
    <glyph glyph-name="Sacute" unicode="&#x15a;" horiz-adv-x="606" 
d="M516 284q0 -148 -61.5 -224.5t-166.5 -76.5q-71 0 -122 18t-96 56l40 127q38 -35 77.5 -59t90.5 -24q22 0 43 9t37.5 28.5t26.5 50t10 73.5q0 45 -12.5 78t-32.5 58.5t-47 46t-55 39.5q-29 19 -56.5 41t-49.5 52t-35 71t-13 100q0 63 17 112.5t45.5 83.5t67 52t80.5 18
q53 0 98.5 -14t86.5 -49l-30 -124q-33 37 -66 52t-75 15q-45 0 -74 -32.5t-29 -95.5q0 -35 9 -60t24.5 -44.5t36 -35t43.5 -30.5q32 -21 65.5 -46.5t60.5 -61t44.5 -85t17.5 -119.5zM322 1084l-63 43l132 168l111 -81z" />
    <glyph glyph-name="sacute" unicode="&#x15b;" horiz-adv-x="562" 
d="M482 225q0 -63 -15.5 -107.5t-43.5 -73.5t-67.5 -42.5t-87.5 -13.5q-58 0 -109 17t-89 49l48 107q13 -12 30.5 -24t36 -22t38 -16t37.5 -6q56 0 80.5 33t24.5 87q0 30 -11.5 53.5t-30.5 43t-42 35.5t-47 33q-26 18 -52 39.5t-47 49.5t-34 63.5t-13 81.5q0 58 17 99
t45.5 67t65.5 38.5t77 12.5q46 0 91 -9.5t81 -32.5l-30 -114q-28 24 -62 35t-69 11q-43 0 -71.5 -27.5t-28.5 -75.5q0 -25 9 -45t24 -37t34 -31t40 -27q29 -18 59.5 -40.5t55 -52.5t40.5 -68.5t16 -89.5zM301 924l-63 43l132 168l111 -81z" />
    <glyph glyph-name="Scedilla" unicode="&#x15e;" horiz-adv-x="606" 
d="M394 -194q0 -34 -9 -58.5t-23.5 -40t-32.5 -22.5t-37 -7q-29 0 -49.5 7.5t-34.5 19.5l26 52q8 -8 21 -13t26 -5q16 0 28.5 13t12.5 50q0 20 -7.5 38.5t-29.5 18.5q-15 0 -31 -9l-26 29l34 107q-61 2 -106 19.5t-86 51.5l40 127q38 -35 77.5 -59t90.5 -24q22 0 43 9
t37.5 28.5t26.5 50t10 73.5q0 45 -12.5 78t-32.5 58.5t-47 46t-55 39.5q-29 19 -56.5 41t-49.5 52t-35 71t-13 100q0 63 17 112.5t45.5 83.5t67 52t80.5 18q53 0 98.5 -14t86.5 -49l-30 -124q-33 37 -66 52t-75 15q-45 0 -74 -32.5t-29 -95.5q0 -35 9 -60t24.5 -44.5t36 -35
t43.5 -30.5q32 -21 65.5 -46.5t60.5 -61t44.5 -85t17.5 -119.5q0 -139 -53 -213.5t-148 -84.5l-20 -70l2 -3q4 1 14 1q15 0 30 -5.5t26.5 -18.5t19 -33.5t7.5 -50.5z" />
    <glyph glyph-name="scedilla" unicode="&#x15f;" horiz-adv-x="562" 
d="M373 -194q0 -34 -9 -58.5t-23.5 -40t-32.5 -22.5t-37 -7q-29 0 -49 7.5t-35 19.5l26 52q8 -8 21 -13t26 -5q16 0 28.5 13t12.5 50q0 20 -7.5 38.5t-28.5 18.5q-16 0 -32 -9l-25 29l35 111q-50 3 -95 19.5t-78 44.5l48 107q13 -12 30.5 -24t36 -22t38 -16t37.5 -6
q56 0 80.5 33t24.5 87q0 30 -11.5 53.5t-30.5 43t-42 35.5t-47 33q-26 18 -52 39.5t-47 49.5t-34 63.5t-13 81.5q0 58 17 99t45.5 67t65.5 38.5t77 12.5q46 0 91 -9.5t81 -32.5l-30 -114q-28 24 -62 35t-69 11q-43 0 -71.5 -27.5t-28.5 -75.5q0 -25 9 -45t24 -37t34 -31
t40 -27q29 -18 59.5 -40.5t55 -52.5t40.5 -68.5t16 -89.5q0 -115 -49.5 -171t-134.5 -64l-24 -74l1 -3q5 1 15 1q15 0 30 -5.5t26.5 -18.5t19 -33.5t7.5 -50.5z" />
    <glyph glyph-name="Scaron" unicode="&#x160;" horiz-adv-x="606" 
d="M516 284q0 -148 -61.5 -224.5t-166.5 -76.5q-71 0 -122 18t-96 56l40 127q38 -35 77.5 -59t90.5 -24q22 0 43 9t37.5 28.5t26.5 50t10 73.5q0 45 -12.5 78t-32.5 58.5t-47 46t-55 39.5q-29 19 -56.5 41t-49.5 52t-35 71t-13 100q0 63 17 112.5t45.5 83.5t67 52t80.5 18
q53 0 98.5 -14t86.5 -49l-30 -124q-33 37 -66 52t-75 15q-45 0 -74 -32.5t-29 -95.5q0 -35 9 -60t24.5 -44.5t36 -35t43.5 -30.5q32 -21 65.5 -46.5t60.5 -61t44.5 -85t17.5 -119.5zM205 1283l112 -76l116 76l55 -73l-171 -123l-173 123z" />
    <glyph glyph-name="scaron" unicode="&#x161;" horiz-adv-x="562" 
d="M482 225q0 -63 -15.5 -107.5t-43.5 -73.5t-67.5 -42.5t-87.5 -13.5q-58 0 -109 17t-89 49l48 107q13 -12 30.5 -24t36 -22t38 -16t37.5 -6q56 0 80.5 33t24.5 87q0 30 -11.5 53.5t-30.5 43t-42 35.5t-47 33q-26 18 -52 39.5t-47 49.5t-34 63.5t-13 81.5q0 58 17 99
t45.5 67t65.5 38.5t77 12.5q46 0 91 -9.5t81 -32.5l-30 -114q-28 24 -62 35t-69 11q-43 0 -71.5 -27.5t-28.5 -75.5q0 -25 9 -45t24 -37t34 -31t40 -27q29 -18 59.5 -40.5t55 -52.5t40.5 -68.5t16 -89.5zM187 1113l112 -76l116 76l55 -73l-171 -123l-173 123z" />
    <glyph glyph-name="Tcommaaccent" unicode="&#x162;" horiz-adv-x="524" 
d="M326 876v-876h-127v876h-149v124h424v-124h-148zM259 -317h-72l16 244h121z" />
    <glyph glyph-name="tcommaaccent" unicode="&#x163;" horiz-adv-x="451" 
d="M369 0q-16 -3 -43 -4.5t-51 -1.5q-44 0 -71 13.5t-41.5 42t-19.5 73t-5 107.5v456h-78v121h84v221h121v-221h106v-121h-106v-495q0 -26 2.5 -41.5t9.5 -24.5t20 -12t34 -3h38v-110v0zM267 -317h-72l16 244h121z" />
    <glyph glyph-name="Tcaron" unicode="&#x164;" horiz-adv-x="524" 
d="M326 876v-876h-127v876h-149v124h424v-124h-148zM151 1283l112 -76l116 76l55 -73l-171 -123l-173 123z" />
    <glyph glyph-name="tcaron" unicode="&#x165;" horiz-adv-x="451" 
d="M369 0q-16 -3 -43 -4.5t-51 -1.5q-44 0 -71 13.5t-41.5 42t-19.5 73t-5 107.5v456h-78v121h84v221h121v-221h106v-121h-106v-495q0 -26 2.5 -41.5t9.5 -24.5t20 -12t34 -3h38v-110v0zM487 842h-72l16 243h121z" />
    <glyph glyph-name="Umacron" unicode="&#x16a;" horiz-adv-x="741" 
d="M609 397q0 -102 -10 -179.5t-36.5 -129.5t-73 -78.5t-119.5 -26.5q-72 0 -118.5 26.5t-73.5 78.5t-37.5 129.5t-10.5 179.5v603h128v-643q0 -65 5 -112t17.5 -77.5t34 -45t55.5 -14.5t55.5 14.5t34 45t17 77.5t4.5 112v643h128v-603v0zM212 1115v102h306v-102h-306z" />
    <glyph glyph-name="umacron" unicode="&#x16b;" horiz-adv-x="697" 
d="M448 0l-5 81h-1q-29 -53 -67 -73t-86 -20q-45 0 -75.5 17t-49 52.5t-26.5 91t-8 133.5v535h125v-519q0 -38 2.5 -72t11.5 -59.5t25 -41t43 -15.5q26 0 46 10.5t33 33.5t19.5 61t6.5 93v509h125v-817h-119zM195 965v102h306v-102h-306z" />
    <glyph glyph-name="Ubreve" unicode="&#x16c;" horiz-adv-x="741" 
d="M609 397q0 -102 -10 -179.5t-36.5 -129.5t-73 -78.5t-119.5 -26.5q-72 0 -118.5 26.5t-73.5 78.5t-37.5 129.5t-10.5 179.5v603h128v-643q0 -65 5 -112t17.5 -77.5t34 -45t55.5 -14.5t55.5 14.5t34 45t17 77.5t4.5 112v643h128v-603v0zM533 1248q0 -51 -16.5 -83.5
t-41 -51t-52.5 -25.5t-51 -7q-21 0 -49 7t-53 25.5t-42 51t-17 83.5h85q0 -35 20 -56t56 -21q37 0 57 19.5t20 57.5h84v0z" />
    <glyph glyph-name="ubreve" unicode="&#x16d;" horiz-adv-x="697" 
d="M448 0l-5 81h-1q-29 -53 -67 -73t-86 -20q-45 0 -75.5 17t-49 52.5t-26.5 91t-8 133.5v535h125v-519q0 -38 2.5 -72t11.5 -59.5t25 -41t43 -15.5q26 0 46 10.5t33 33.5t19.5 61t6.5 93v509h125v-817h-119zM507 1087q0 -51 -16.5 -83.5t-41 -51t-52.5 -25.5t-51 -7
q-21 0 -49 7t-53 25.5t-42 51t-17 83.5h85q0 -35 20 -56t56 -21q37 0 57 19.5t20 57.5h84v0z" />
    <glyph glyph-name="Uring" unicode="&#x16e;" horiz-adv-x="741" 
d="M609 397q0 -102 -10 -179.5t-36.5 -129.5t-73 -78.5t-119.5 -26.5q-72 0 -118.5 26.5t-73.5 78.5t-37.5 129.5t-10.5 179.5v603h128v-643q0 -65 5 -112t17.5 -77.5t34 -45t55.5 -14.5t55.5 14.5t34 45t17 77.5t4.5 112v643h128v-603v0zM420 1180q0 27 -12.5 42t-35.5 15
q-22 0 -36 -15t-14 -42q0 -28 14 -42.5t36 -14.5q23 0 35.5 14.5t12.5 42.5zM471 1180q0 -53 -28.5 -78t-70.5 -25t-71 25t-29 78q0 51 29 76t71 25t70.5 -25t28.5 -76z" />
    <glyph glyph-name="uring" unicode="&#x16f;" horiz-adv-x="697" 
d="M448 0l-5 81h-1q-29 -53 -67 -73t-86 -20q-45 0 -75.5 17t-49 52.5t-26.5 91t-8 133.5v535h125v-519q0 -38 2.5 -72t11.5 -59.5t25 -41t43 -15.5q26 0 46 10.5t33 33.5t19.5 61t6.5 93v509h125v-817h-119zM392 1030q0 27 -12.5 42t-35.5 15q-22 0 -36 -15t-14 -42
q0 -28 14 -42.5t36 -14.5q23 0 35.5 14.5t12.5 42.5zM443 1030q0 -53 -28.5 -78t-70.5 -25t-71 25t-29 78q0 51 29 76t71 25t70.5 -25t28.5 -76z" />
    <glyph glyph-name="Uhungarumlaut" unicode="&#x170;" horiz-adv-x="741" 
d="M609 397q0 -102 -10 -179.5t-36.5 -129.5t-73 -78.5t-119.5 -26.5q-72 0 -118.5 26.5t-73.5 78.5t-37.5 129.5t-10.5 179.5v603h128v-643q0 -65 5 -112t17.5 -77.5t34 -45t55.5 -14.5t55.5 14.5t34 45t17 77.5t4.5 112v643h128v-603v0zM510 1084l-62 43l136 153l106 -66z
M238 1084l-63 43l137 153l106 -66z" />
    <glyph glyph-name="uhungarumlaut" unicode="&#x171;" horiz-adv-x="697" 
d="M448 0l-5 81h-1q-29 -53 -67 -73t-86 -20q-45 0 -75.5 17t-49 52.5t-26.5 91t-8 133.5v535h125v-519q0 -38 2.5 -72t11.5 -59.5t25 -41t43 -15.5q26 0 46 10.5t33 33.5t19.5 61t6.5 93v509h125v-817h-119zM496 924l-62 43l136 153l106 -66zM224 924l-63 43l137 153
l106 -66z" />
    <glyph glyph-name="Uogonek" unicode="&#x172;" horiz-adv-x="741" 
d="M611 397q0 -145 -21 -238t-82 -138q-18 -15 -36.5 -30.5t-33.5 -33.5t-24 -39.5t-9 -48.5q0 -21 5.5 -35.5t13.5 -23t18.5 -12t20.5 -3.5q20 0 33.5 6t26.5 13l29 -71q-15 -10 -44.5 -20t-62.5 -10q-57 0 -91.5 34t-34.5 100q0 45 18.5 79t41.5 57h-8q-72 0 -118.5 26.5
t-73.5 78.5t-38 129.5t-11 179.5v603h129v-640q0 -65 5 -112t17.5 -77.5t34 -45t55.5 -14.5t55.5 14.5t34 45t17 77.5t4.5 112v640h129v-603v0z" />
    <glyph glyph-name="uogonek" unicode="&#x173;" horiz-adv-x="697" 
d="M526 0l-36 -32t-31.5 -34.5t-21.5 -40.5t-8 -50q0 -32 12.5 -53t32.5 -21q23 0 35 6t25 14l29 -71q-15 -10 -44.5 -20t-62.5 -10q-29 0 -50 11t-35 30t-21 43t-7 50q0 34 13.5 64t32 53t38.5 39t32 22h-11l-5 81h-1q-29 -53 -67 -73t-86 -20q-45 0 -75.5 17t-49 52.5
t-26.5 91t-8 133.5v535h126v-519q0 -38 2.5 -72t11 -59.5t24.5 -41t43 -15.5q26 0 46 10.5t33 33.5t19.5 61t6.5 93v509h125v-817h-41z" />
    <glyph glyph-name="Ydieresis" unicode="&#x178;" horiz-adv-x="618" 
d="M373 381v-381h-128v374l-195 626h136l122 -478l130 478h130zM262 1161q0 -35 -20.5 -60.5t-49.5 -25.5t-49.5 25.5t-20.5 60.5t20.5 60t49.5 25t49.5 -25t20.5 -60zM501 1161q0 -35 -20 -60.5t-50 -25.5q-28 0 -49.5 25.5t-21.5 60.5t21.5 60t49.5 25q30 0 50 -25t20 -60
z" />
    <glyph glyph-name="Zacute" unicode="&#x179;" horiz-adv-x="545" 
d="M70 0v120l264 753h-248v127h382v-119l-263 -757h270v-124h-405zM291 1084l-63 43l132 168l111 -81z" />
    <glyph glyph-name="zacute" unicode="&#x17a;" horiz-adv-x="510" 
d="M80 0v118l220 578h-210v121h334v-131l-213 -565h219v-121h-350zM258 924l-63 43l132 168l111 -81z" />
    <glyph glyph-name="Zdotaccent" unicode="&#x17b;" horiz-adv-x="545" 
d="M70 0v120l264 753h-248v127h382v-119l-263 -757h270v-124h-405zM363 1197q0 -41 -20.5 -65.5t-55.5 -24.5q-37 0 -57.5 24.5t-20.5 65.5q0 40 20.5 64t57.5 24q35 0 55.5 -24t20.5 -64z" />
    <glyph glyph-name="zdotaccent" unicode="&#x17c;" horiz-adv-x="510" 
d="M80 0v118l220 578h-210v121h334v-131l-213 -565h219v-121h-350zM341 1027q0 -41 -20.5 -65.5t-55.5 -24.5q-37 0 -57.5 24.5t-20.5 65.5q0 40 20.5 64t57.5 24q35 0 55.5 -24t20.5 -64z" />
    <glyph glyph-name="Zcaron" unicode="&#x17d;" horiz-adv-x="545" 
d="M70 0v120l264 753h-248v127h382v-119l-263 -757h270v-124h-405zM181 1268l112 -76l116 76l55 -73l-171 -123l-173 123z" />
    <glyph glyph-name="zcaron" unicode="&#x17e;" horiz-adv-x="510" 
d="M80 0v118l220 578h-210v121h334v-131l-213 -565h219v-121h-350zM168 1113l112 -76l116 76l55 -73l-171 -123l-173 123z" />
    <glyph glyph-name="florin" unicode="&#x192;" horiz-adv-x="589" 
d="M512 938q-20 3 -33 3q-38 0 -50.5 -15t-17.5 -50l-32 -190h90l-18 -127h-90l-97 -631q-9 -61 -22.5 -102t-35 -66t-55 -36t-83.5 -11q-8 0 -19.5 1t-28.5 2l18 117q7 -1 15.5 -2t13.5 -1q20 0 33 5t21 17t13 31t10 47l97 629h-73l22 127h71l23 151q9 61 22 102.5t35 67
t55 36.5t82 11q8 0 23 -1.5t28 -3.5z" />
    <glyph glyph-name="Scommaaccent" unicode="&#x218;" horiz-adv-x="606" 
d="M516 284q0 -148 -61.5 -224.5t-166.5 -76.5q-71 0 -122 18t-96 56l40 127q38 -35 77.5 -59t90.5 -24q22 0 43 9t37.5 28.5t26.5 50t10 73.5q0 45 -12.5 78t-32.5 58.5t-47 46t-55 39.5q-29 19 -56.5 41t-49.5 52t-35 71t-13 100q0 63 17 112.5t45.5 83.5t67 52t80.5 18
q53 0 98.5 -14t86.5 -49l-30 -124q-33 37 -66 52t-75 15q-45 0 -74 -32.5t-29 -95.5q0 -35 9 -60t24.5 -44.5t36 -35t43.5 -30.5q32 -21 65.5 -46.5t60.5 -61t44.5 -85t17.5 -119.5zM280 -317h-72l16 244h121z" />
    <glyph glyph-name="scommaaccent" unicode="&#x219;" horiz-adv-x="562" 
d="M482 225q0 -63 -15.5 -107.5t-43.5 -73.5t-67.5 -42.5t-87.5 -13.5q-58 0 -109 17t-89 49l48 107q13 -12 30.5 -24t36 -22t38 -16t37.5 -6q56 0 80.5 33t24.5 87q0 30 -11.5 53.5t-30.5 43t-42 35.5t-47 33q-26 18 -52 39.5t-47 49.5t-34 63.5t-13 81.5q0 58 17 99
t45.5 67t65.5 38.5t77 12.5q46 0 91 -9.5t81 -32.5l-30 -114q-28 24 -62 35t-69 11q-43 0 -71.5 -27.5t-28.5 -75.5q0 -25 9 -45t24 -37t34 -31t40 -27q29 -18 59.5 -40.5t55 -52.5t40.5 -68.5t16 -89.5zM278 -317h-72l16 244h121z" />
    <glyph glyph-name="circumflex" unicode="&#x2c6;" horiz-adv-x="442" 
d="M343 900l-112 76l-116 -76l-55 73l171 123l173 -123z" />
    <glyph glyph-name="caron" unicode="&#x2c7;" horiz-adv-x="442" 
d="M115 1103l112 -76l116 76l55 -73l-171 -123l-173 123z" />
    <glyph glyph-name="breve" unicode="&#x2d8;" horiz-adv-x="467" 
d="M392 1067q0 -51 -16.5 -83.5t-41 -51t-52.5 -25.5t-51 -7q-21 0 -49 7t-53 25.5t-42 51t-17 83.5h85q0 -35 20 -56t56 -21q37 0 57 19.5t20 57.5h84v0z" />
    <glyph glyph-name="dotaccent" unicode="&#x2d9;" horiz-adv-x="251" 
d="M201 1027q0 -41 -20.5 -65.5t-55.5 -24.5q-37 0 -57.5 24.5t-20.5 65.5q0 40 20.5 64t57.5 24q35 0 55.5 -24t20.5 -64z" />
    <glyph glyph-name="ring" unicode="&#x2da;" horiz-adv-x="327" 
d="M211 1000q0 27 -12.5 42t-35.5 15q-22 0 -36 -15t-14 -42q0 -28 14 -42.5t36 -14.5q23 0 35.5 14.5t12.5 42.5zM262 1000q0 -53 -28.5 -78t-70.5 -25t-71 25t-29 78q0 51 29 76t71 25t70.5 -25t28.5 -76z" />
    <glyph glyph-name="ogonek" unicode="&#x2db;" horiz-adv-x="425" 
d="M318 0q-18 -16 -37 -32t-35 -34.5t-26 -40.5t-10 -50q0 -21 5.5 -35.5t13.5 -23t18.5 -12t20.5 -3.5q20 0 33.5 6.5t26.5 13.5l28 -71q-14 -10 -43 -20t-63 -10q-57 0 -91.5 34t-34.5 100q0 37 15 67t35.5 52.5t42.5 37.5t36 21h65v0z" />
    <glyph glyph-name="tilde" unicode="&#x2dc;" horiz-adv-x="461" 
d="M402 1000q-13 -45 -43 -69t-65 -24q-20 0 -37.5 8.5t-33.5 19t-31 19.5t-29 9q-20 0 -34 -10.5t-23 -38.5l-54 53q16 51 42.5 74t63.5 23q21 0 39.5 -8.5t35 -19t31 -19t28.5 -8.5q19 0 35 10.5t25 37.5z" />
    <glyph glyph-name="hungarumlaut" unicode="&#x2dd;" horiz-adv-x="657" 
d="M402 904l-62 43l136 153l106 -66zM130 904l-63 43l137 153l106 -66z" />
    <glyph glyph-name="endash" unicode="&#x2013;" horiz-adv-x="636" 
d="M124 448v132h390v-132h-390z" />
    <glyph glyph-name="emdash" unicode="&#x2014;" horiz-adv-x="1021" 
d="M121 365v133h779v-133h-779z" />
    <glyph glyph-name="quoteleft" unicode="&#x2018;" horiz-adv-x="303" 
d="M182 746h-132l81 303h72z" />
    <glyph glyph-name="quoteright" unicode="&#x2019;" horiz-adv-x="304" 
d="M172 745h-72l22 304h132z" />
    <glyph glyph-name="quotesinglbase" unicode="&#x201a;" horiz-adv-x="304" 
d="M122 -199h-72l22 304h132z" />
    <glyph glyph-name="quotedblleft" unicode="&#x201c;" horiz-adv-x="491" 
d="M172 745h-132l80 304h73zM370 745h-132l80 304h73z" />
    <glyph glyph-name="quotedblright" unicode="&#x201d;" horiz-adv-x="504" 
d="M175 745h-75l24 304h131zM372 745h-73l23 304h132z" />
    <glyph glyph-name="quotedblbase" unicode="&#x201e;" horiz-adv-x="504" 
d="M125 -199h-75l24 304h131zM322 -199h-73l23 304h132z" />
    <glyph glyph-name="dagger" unicode="&#x2020;" horiz-adv-x="424" 
d="M269 733v-439h-116v439h-63v120h63v196h116v-196h65v-120h-65z" />
    <glyph glyph-name="daggerdbl" unicode="&#x2021;" horiz-adv-x="424" 
d="M270 461v-167h-116v167h-64v119h64v183h-64v120h66v166h114v-166h64v-120h-64v-183h64v-119h-64z" />
    <glyph glyph-name="bullet" unicode="&#x2022;" horiz-adv-x="772" 
d="M568 493q0 -50 -15 -92.5t-40.5 -74.5t-60 -50t-74.5 -18q-39 0 -73.5 18t-60 50t-40 74.5t-14.5 92.5q0 49 14.5 92.5t40 75t60 50t73.5 18.5q40 0 74.5 -18.5t60 -50t40.5 -75t15 -92.5z" />
    <glyph glyph-name="ellipsis" unicode="&#x2026;" horiz-adv-x="827" 
d="M737 83q0 -45 -19.5 -71.5t-51.5 -28.5q-30 0 -51 26t-21 72q0 45 20 70.5t52 25.5q31 1 51 -24.5t20 -69.5zM485 83q0 -45 -20 -71.5t-51 -28.5q-31 0 -51 26t-20 72q0 45 20 70.5t51 25.5q30 1 50 -24.5t21 -69.5zM232 83q1 -45 -19 -71.5t-50 -28.5q-32 0 -52.5 26
t-20.5 72q0 45 20.5 70.5t52.5 25.5q29 1 49 -24.5t20 -69.5z" />
    <glyph glyph-name="perthousand" unicode="&#x2030;" horiz-adv-x="1331" 
d="M1183 270q0 38 -2 73t-9 61.5t-19 42.5t-32 16q-19 0 -31 -16t-18.5 -42.5t-8.5 -61.5t-2 -73t2.5 -73t9 -61.5t18 -42t30.5 -15.5q20 0 32 15.5t19 42t9 61.5t2 73zM1265 271q0 -61 -8 -113t-25.5 -90t-44.5 -59.5t-64 -21.5t-64 21.5t-45 59.5t-26.5 90t-8.5 113
q0 62 9 114t27 90t45 59t63 21q35 0 61.5 -21t44.5 -59t27 -90t9 -114zM794 270q0 38 -2 73t-8.5 61.5t-18.5 42.5t-31 16q-20 0 -31.5 -16t-18.5 -42.5t-9 -61.5t-2 -73t2 -73t9 -61.5t18.5 -42t31.5 -15.5q19 0 30.5 15.5t18 42t9 61.5t2.5 73zM878 271q0 -61 -8.5 -113
t-26 -90t-45 -59.5t-64.5 -21.5q-38 0 -65 21.5t-44.5 59.5t-26 90t-8.5 113q0 62 9 114t27 90t45 59t63 21q35 0 62 -21t45 -59t27.5 -90t9.5 -114zM362 0h-87l349 1000h87zM316 732q0 39 -2 73.5t-8.5 61t-18.5 42t-31 15.5q-20 0 -32 -15.5t-19 -42t-9 -61t-2 -73.5
q0 -38 2 -72.5t9 -61t19 -42t32 -15.5q18 0 30 15.5t18.5 41.5t9 60.5t2.5 73.5zM400 735q0 -62 -8.5 -115t-26.5 -91t-45 -59.5t-64 -21.5q-38 0 -65 21.5t-44.5 59.5t-27 91t-9.5 115q0 61 10 113t28 89t45 58t63 21q35 0 62 -21t45 -58t27.5 -89t9.5 -113z" />
    <glyph glyph-name="guilsinglleft" unicode="&#x2039;" horiz-adv-x="396" 
d="M193 158l-113 297l113 298l93 -56l-93 -243l93 -240z" />
    <glyph glyph-name="guilsinglright" unicode="&#x203a;" horiz-adv-x="394" 
d="M202 158l-92 56l92 240l-92 243l92 56l112 -298z" />
    <glyph glyph-name="fraction" unicode="&#x2044;" horiz-adv-x="261" 
d="M-43 -60h-77l425 1205h76z" />
    <glyph glyph-name="fraction" unicode="&#x2215;" horiz-adv-x="261" 
d="M-43 -60h-77l425 1205h76z" />
    <glyph glyph-name="zerosuperior" unicode="&#x2070;" horiz-adv-x="501" 
d="M318 800q0 46 -3 86.5t-10.5 70.5t-20.5 47t-33 17q-21 0 -34.5 -17t-21.5 -47t-11 -70.5t-3 -86.5t3 -86t11 -70t21.5 -47t33.5 -17t33.5 17t21 47t10.5 70t3 86zM408 802q0 -73 -9 -131.5t-28 -99t-49 -62.5t-71 -22q-42 0 -71.5 23t-49 64.5t-28.5 99.5t-9 128t10 128
t29.5 98.5t49 63t68.5 22.5t69 -22t49.5 -62.5t29.5 -98t10 -129.5z" />
    <glyph glyph-name="foursuperior" unicode="&#x2074;" horiz-adv-x="438" 
d="M234 718v279l-104 -279h104zM312 498h-89v125h-150l-18 90l152 393h105v-386h49v-97h-49v-125z" />
    <glyph glyph-name="fivesuperior" unicode="&#x2075;" horiz-adv-x="428" 
d="M342 700q0 -101 -38.5 -158t-109.5 -57q-37 0 -68 14.5t-49 31.5l33 81q16 -15 35 -26t42 -11q36 0 51 30t15 91q0 66 -14.5 95t-48.5 29q-17 0 -32.5 -12.5t-23.5 -29.5l-49 41l28 285h211v-97h-141l-16 -121h1q10 8 22.5 13t29.5 5q55 0 88.5 -48t33.5 -156z" />
    <glyph glyph-name="sixsuperior" unicode="&#x2076;" horiz-adv-x="462" 
d="M307 693q0 56 -14.5 85t-45.5 29q-67 0 -67 -115q0 -24 3.5 -45t11.5 -36.5t20 -25t30 -9.5q32 0 47 33t15 84zM392 696q0 -47 -11 -85.5t-31 -66t-47 -42.5t-58 -15q-80 0 -120 73.5t-40 212.5q0 175 46 258t124 83q32 0 60.5 -11t46.5 -22l-22 -86q-15 11 -35.5 18.5
t-44.5 7.5q-18 0 -33.5 -8.5t-27.5 -30.5t-18.5 -60.5t-6.5 -98.5h1q9 29 31.5 49t58.5 20q62 0 94.5 -49.5t32.5 -146.5z" />
    <glyph glyph-name="sevensuperior" unicode="&#x2077;" horiz-adv-x="412" 
d="M351 1011q-28 -33 -49.5 -74t-36.5 -97.5t-22.5 -132t-7.5 -175.5v-36h-90v36q0 59 5 123.5t18 127.5t36.5 121.5t60.5 104.5h-195v97h270l11 -95v0z" />
    <glyph glyph-name="eightsuperior" unicode="&#x2078;" horiz-adv-x="479" 
d="M304 672q0 57 -17.5 78.5t-46.5 21.5q-32 0 -49 -21.5t-17 -78.5q0 -47 15.5 -75t50.5 -28t49.5 28t14.5 75zM295 944q0 43 -12 66t-43 23q-32 0 -44.5 -23t-12.5 -66q0 -42 12.5 -66t42.5 -24t43.5 24t13.5 66zM394 667q0 -46 -12 -80t-32.5 -56t-48.5 -33t-61 -11
q-67 0 -111 44t-44 136q0 55 15.5 93.5t52.5 59.5v3q-30 25 -43 55t-13 78q0 38 11.5 67.5t31 49.5t45 30.5t53.5 10.5t54 -10.5t46 -30.5t31.5 -49.5t11.5 -67.5q0 -48 -12.5 -78t-41.5 -55v-3q34 -21 50.5 -58.5t16.5 -94.5z" />
    <glyph glyph-name="ninesuperior" unicode="&#x2079;" horiz-adv-x="464" 
d="M157 907q0 -57 14 -86t46 -29q31 0 49 29.5t18 86.5q0 23 -3.5 44t-12 37t-21 25.5t-30.5 9.5q-32 0 -46 -33t-14 -84zM70 906q0 46 11 84.5t31 66t46.5 42.5t58.5 15q81 0 121 -74t40 -213q0 -88 -12 -152t-34.5 -106t-54 -62t-70.5 -20q-31 0 -59.5 11t-46.5 22l23 85
q15 -11 34.5 -18t45.5 -7q18 0 33.5 8t27 29.5t18.5 60t7 98.5h-2q-8 -29 -30.5 -49t-59.5 -20q-63 0 -95.5 50t-32.5 149z" />
    <glyph glyph-name="zeroinferior" unicode="&#x2080;" horiz-adv-x="499" 
d="M317 248q0 48 -3 88.5t-10.5 70t-20.5 46t-33 16.5t-33.5 -17t-21.5 -46.5t-11.5 -70t-3.5 -87.5q0 -46 3.5 -86t11.5 -69.5t21.5 -46.5t33.5 -17t33 17t20.5 46.5t10.5 69.5t3 86zM407 252q0 -73 -9 -131.5t-28.5 -99.5t-49 -63t-70.5 -22q-42 0 -71.5 23t-48.5 64.5
t-28 99.5t-9 129t9.5 128.5t29 98t49 62.5t69.5 22q39 0 68.5 -21.5t49 -62t29.5 -98t10 -129.5z" />
    <glyph glyph-name="oneinferior" unicode="&#x2081;" horiz-adv-x="338" 
d="M238 552v-610h-88v469l-70 -62l-40 75l126 128h72z" />
    <glyph glyph-name="twoinferior" unicode="&#x2082;" horiz-adv-x="426" 
d="M73 40q45 62 78 112.5t54.5 91.5t32 74.5t10.5 62.5q0 35 -14.5 57.5t-40.5 22.5q-22 0 -40.5 -14.5t-41.5 -42.5l-41 77q28 35 64 57.5t74 22.5q63 0 98 -43.5t35 -128.5q0 -38 -11.5 -77.5t-34 -82.5t-55 -90.5t-73.5 -101.5h173v-95h-253z" />
    <glyph glyph-name="threeinferior" unicode="&#x2083;" horiz-adv-x="426" 
d="M341 117q0 -85 -40.5 -133t-103.5 -48q-37 0 -67.5 10t-59.5 33l31 84q25 -20 46 -28t44 -8q26 0 44 22.5t18 70.5q0 46 -17.5 71t-47.5 25h-43v89h29q35 0 49.5 20.5t14.5 66.5q0 43 -13.5 61t-39.5 18q-17 0 -36 -6.5t-45 -28.5l-31 78q36 26 64.5 37.5t60.5 11.5
q60 0 96.5 -42t36.5 -119q0 -40 -14 -77t-42 -57q35 -15 50.5 -56.5t15.5 -94.5z" />
    <glyph glyph-name="fourinferior" unicode="&#x2084;" horiz-adv-x="438" 
d="M234 161v283l-104 -283h104zM312 -58h-89v124h-150l-18 91l152 395h105v-388h49v-98h-49v-124z" />
    <glyph glyph-name="fiveinferior" unicode="&#x2085;" horiz-adv-x="428" 
d="M342 150q0 -100 -38.5 -157t-109.5 -57q-37 0 -68 14.5t-49 31.5l33 79q16 -14 35 -24.5t42 -10.5q36 0 51 30t15 91q0 66 -14.5 94.5t-48.5 28.5q-17 0 -32.5 -11.5t-23.5 -28.5l-49 40l28 285h211v-98h-141l-16 -122h1q19 19 52 19q55 0 88.5 -48t33.5 -156z" />
    <glyph glyph-name="sixinferior" unicode="&#x2086;" horiz-adv-x="465" 
d="M308 143q0 56 -13 85.5t-45 29.5q-34 0 -51.5 -30t-17.5 -87q0 -23 4 -44t12 -36.5t20.5 -25t29.5 -9.5q32 0 46.5 33t14.5 84zM395 144q0 -47 -11.5 -85t-31 -65.5t-47 -42.5t-58.5 -15q-81 0 -121.5 73t-40.5 212q0 175 47.5 258t125.5 83q31 0 59.5 -11t47.5 -22
l-23 -85q-14 11 -34.5 18t-43.5 7q-18 0 -34.5 -8t-28.5 -29.5t-19 -59.5t-7 -99h2q8 29 31.5 49t58.5 20q61 0 94.5 -50t33.5 -148z" />
    <glyph glyph-name="seveninferior" unicode="&#x2087;" horiz-adv-x="412" 
d="M351 457q-28 -32 -49.5 -73t-36.5 -98t-22.5 -132.5t-7.5 -176.5v-35h-90v35q0 60 5 125t18 128t36.5 120.5t60.5 103.5h-195v98h270l11 -95v0z" />
    <glyph glyph-name="eightinferior" unicode="&#x2088;" horiz-adv-x="479" 
d="M304 120q0 60 -17.5 82t-46.5 22q-32 0 -49 -22.5t-17 -81.5q0 -45 15.5 -73.5t50.5 -28.5t49.5 28.5t14.5 73.5zM295 395q0 42 -12 64.5t-43 22.5q-32 0 -44.5 -22.5t-12.5 -64.5q0 -43 12.5 -68t42.5 -25t43.5 25t13.5 68zM394 117q0 -46 -12 -80t-32.5 -56.5
t-48.5 -33.5t-61 -11q-67 0 -111 44.5t-44 136.5q0 54 15.5 92.5t52.5 61.5v2q-30 24 -43 54.5t-13 78.5q0 38 11.5 67.5t31 49.5t45 30t53.5 10t54 -10t46 -30t31.5 -49.5t11.5 -67.5q0 -47 -12.5 -78t-41.5 -55v-2q34 -23 50.5 -59.5t16.5 -94.5z" />
    <glyph glyph-name="nineinferior" unicode="&#x2089;" horiz-adv-x="464" 
d="M157 355q0 -55 14 -84.5t46 -29.5q31 0 49 29t18 87q0 23 -3.5 44.5t-12 37.5t-21 25.5t-30.5 9.5q-32 0 -46 -33.5t-14 -85.5zM70 354q0 46 11 84.5t31 66.5t46.5 43t58.5 15q81 0 121 -74t40 -214q0 -174 -46.5 -256.5t-124.5 -82.5q-31 0 -59.5 10.5t-46.5 22.5l23 87
q15 -12 34.5 -19.5t45.5 -7.5q18 0 33.5 8t27 30t18.5 60.5t7 99.5h-2q-8 -30 -30.5 -50.5t-59.5 -20.5q-63 0 -95.5 50.5t-32.5 147.5z" />
    <glyph glyph-name="Euro" unicode="&#x20ac;" horiz-adv-x="664" 
d="M60 335l23 100h58q-1 15 -1 31v35v32q0 17 1 32h-72l23 98h57q8 71 26 135t48.5 112.5t74.5 77t106 28.5q63 0 110.5 -33.5t91.5 -96.5l-78 -99q-30 51 -57.5 75t-70.5 24q-56 0 -84.5 -57.5t-39.5 -165.5h232l-22 -98h-217v-64v-33t1 -33h207l-20 -100h-181
q4 -42 12.5 -81.5t23.5 -70.5t37.5 -50t54.5 -19q45 0 78.5 27t65.5 80l66 -103q-16 -26 -38 -50.5t-49 -43.5t-59.5 -30t-69.5 -11q-59 0 -102.5 27.5t-73 75t-47.5 111.5t-26 138h-89z" />
    <glyph glyph-name="trademark" unicode="&#x2122;" horiz-adv-x="844" 
d="M267 977v-300h-70v300h-69v72h207v-72h-68zM622 677v231l-76 -156l-75 155l1 -230h-67v372h66l75 -152l76 152h65v-372h-65z" />
    <glyph glyph-name="onethird" unicode="&#x2153;" horiz-adv-x="1020" 
d="M298 1106v-610h-88v468l-70 -61l-40 76l126 127h72zM339 -60h-77l425 1205h76zM950 117q0 -85 -40.5 -133t-103.5 -48q-37 0 -67.5 10t-59.5 33l31 84q25 -20 46 -28t44 -8q26 0 44 22.5t18 70.5q0 46 -17.5 71t-47.5 25h-43v89h29q35 0 49.5 20.5t14.5 66.5
q0 43 -13.5 61t-39.5 18q-17 0 -36 -6.5t-45 -28.5l-31 78q36 26 64.5 37.5t60.5 11.5q60 0 96.5 -42t36.5 -119q0 -40 -14 -77t-42 -57q35 -15 50.5 -56.5t15.5 -94.5z" />
    <glyph glyph-name="twothirds" unicode="&#x2154;" horiz-adv-x="1020" 
d="M77 593q91 123 133 204t42 137q0 35 -14.5 56t-40.5 21q-22 0 -40.5 -13t-41.5 -42l-41 78q28 35 64 56.5t74 21.5q63 0 98 -43t35 -128q0 -38 -11.5 -77.5t-34 -82t-55 -90t-73.5 -102.5h173v-94h-253zM345 -60h-77l425 1205h76zM940 117q0 -85 -40.5 -133t-103.5 -48
q-37 0 -67.5 10t-59.5 33l31 84q25 -20 46 -28t44 -8q26 0 44 22.5t18 70.5q0 46 -17.5 71t-47.5 25h-43v89h29q35 0 49.5 20.5t14.5 66.5q0 43 -13.5 61t-39.5 18q-17 0 -36 -6.5t-45 -28.5l-31 78q36 26 64.5 37.5t60.5 11.5q60 0 96.5 -42t36.5 -119q0 -40 -14 -77
t-42 -57q35 -15 50.5 -56.5t15.5 -94.5z" />
    <glyph glyph-name="onefifth" unicode="&#x2155;" horiz-adv-x="1031" 
d="M947 150q0 -100 -38.5 -157t-109.5 -57q-38 0 -68.5 14.5t-48.5 31.5l33 79q16 -14 34 -24.5t41 -10.5q37 0 52 30t15 91q0 66 -14.5 94.5t-49.5 28.5q-16 0 -32 -11.5t-22 -28.5l-50 40l28 285h210v-98h-141l-14 -122h1q18 19 51 19q55 0 89 -48t34 -156zM337 -58h-73
l409 1164h74zM298 1106v-610h-88v468l-70 -61l-40 76l126 127h72z" />
    <glyph glyph-name="threefifths" unicode="&#x2157;" horiz-adv-x="1039" 
d="M356 669q0 -85 -40 -133.5t-104 -48.5q-37 0 -67.5 10.5t-59.5 33.5l32 84q25 -20 46 -28t44 -8q26 0 43 22.5t17 70.5q0 45 -16.5 70t-46.5 25h-46v90h30q35 0 50.5 19.5t15.5 67.5q0 43 -14 60t-40 17q-17 0 -36 -6t-44 -29l-33 80q35 24 64.5 36t62.5 12q60 0 95 -42
t35 -119q0 -41 -13 -77t-41 -57q35 -15 50.5 -56t15.5 -94zM954 150q0 -100 -38.5 -157t-109.5 -57q-38 0 -68.5 14.5t-48.5 31.5l33 79q16 -14 35 -24.5t42 -10.5q35 0 50 30t15 91q0 66 -14.5 94.5t-47.5 28.5q-17 0 -33 -11.5t-23 -28.5l-50 40l29 285h209v-98h-141
l-14 -122h1q18 19 52 19q54 0 88 -48t34 -156zM344 -58h-73l411 1164h73z" />
    <glyph glyph-name="minus" unicode="&#x2212;" horiz-adv-x="531" 
d="M80 338v137h371v-137h-371z" />
    <glyph glyph-name="lessequal" unicode="&#x2264;" horiz-adv-x="887" 
d="M128 0v118h622v-118h-622zM130 531v138l622 311v-133l-502 -248l502 -248v-134z" />
    <glyph glyph-name="greaterequal" unicode="&#x2265;" horiz-adv-x="869" 
d="M117 0v118h622v-118h-622zM115 217v134l502 248l-502 248v133l624 -311v-138z" />
    <glyph glyph-name="commaaccent" unicode="&#xf6c3;" horiz-adv-x="327" 
d="M166 -317h-72l16 244h121z" />
    <glyph glyph-name="nonbreakingspace" horiz-adv-x="400" 
 />
    <glyph glyph-name="caron.1" horiz-adv-x="327" 
d="M166 842h-72l16 243h121z" />
    <glyph glyph-name="commaaccent.1" horiz-adv-x="327" 
d="M168 1133h76l-17 -204h-127z" />
    </font>
</defs>
</svg>
