<?xml version="1.0" encoding="UTF-8" standalone="no"?>
<!-- Created with Inkscape (http://www.inkscape.org/) -->
<svg xmlns:svg="http://www.w3.org/2000/svg" xmlns="http://www.w3.org/2000/svg" version="1.0" width="600" height="600" id="svg2">
  <defs id="defs4"/>
  <g id="layer1">
    <path d="" id="path7"/>
    <path d="" style="fill:white" id="path1446"/>
    <path d="" style="fill:none;stroke:black;stroke-width:0.99826401;stroke-miterlimit:4;stroke-opacity:1" id="path1315"/>
    <g id="g6578">
      <path d="M 50,-3.8191672e-014 C 22.3,-3.8191672e-014 -2.8378992e-017,22.3 -2.8378992e-017,50 L -2.8378992e-017,438.88889 L 600,438.88889 L 600,50 C 600,22.3 577.7,-3.8191672e-014 550,-3.8191672e-014 L 50,-3.8191672e-014 z " style="opacity:1;fill:white;fill-opacity:1;stroke:none;stroke-width:1;stroke-linecap:square;stroke-miterlimit:3.863693;stroke-dasharray:none;stroke-opacity:1" id="rect3020"/>
      <path d="M -2.8378992e-017,400 L -2.8378992e-017,550 C -2.8378992e-017,577.7 22.3,600 50,600 L 550,600 C 577.7,600 600,577.7 600,550 L 600,400 L -2.8378992e-017,400 z " style="opacity:1;fill:#003882;fill-opacity:1;stroke:none;stroke-width:1;stroke-linecap:square;stroke-miterlimit:3.863693;stroke-dasharray:none;stroke-opacity:1" id="rect1937"/>
      <rect width="599" height="599" rx="49.916664" ry="49.916664" x="0.49999899" y="0.50001359" style="opacity:1;fill:none;fill-opacity:1;stroke:black;stroke-width:0.99999797;stroke-linecap:square;stroke-miterlimit:3.863693;stroke-dasharray:none;stroke-opacity:1" id="rect3018"/>
      <path d="M 239.91801,362.5 L 210.3621,278.32783 L 116.78889,278.32783 L 87.232981,362.5 L 36.634032,362.5 L 140.07288,62.500016 L 187.07811,62.500016 L 290.51696,362.5 L 239.91801,362.5 z M 164.24505,145.784 L 133.35004,229.96983 L 193.35003,229.96983 L 164.24505,145.784 z M 512.76701,362.5 L 483.2111,278.32783 L 389.63789,278.32783 L 360.08198,362.5 L 309.48303,362.5 L 412.92188,62.500016 L 459.92711,62.500016 L 563.36596,362.5 L 512.76701,362.5 z M 437.09405,145.784 L 406.19904,229.96983 L 466.19903,229.96983 L 437.09405,145.784 z " style="font-size:447.75219727px;font-style:normal;font-variant:normal;font-weight:bold;font-stretch:normal;text-align:start;line-height:125%;writing-mode:lr-tb;text-anchor:start;fill:#003882;fill-opacity:1;stroke:none;stroke-width:1px;stroke-linecap:butt;stroke-linejoin:miter;stroke-opacity:1;font-family:Franklin Gothic Demi" id="text6568"/>
      <path d="M 129.40889,536.20386 L 129.40889,504.64852 L 103.04132,504.64852 L 103.04132,536.20386 L 91.584036,536.20386 L 91.584036,463.79609 L 103.04132,463.79609 L 103.04132,492.97687 L 129.40889,492.97687 L 129.40889,463.79609 L 140.86617,463.79609 L 140.86617,536.20386 L 129.40889,536.20386 z M 158.07188,536.20386 L 158.07188,463.79609 L 169.74353,463.79609 L 169.74353,536.20386 L 158.07188,536.20386 z M 234.75717,514.58871 C 234.75711,517.90433 234.18051,520.94894 233.02737,523.72255 C 231.87411,526.49618 230.28887,528.90977 228.27164,530.96332 C 226.25431,533.01689 223.84072,534.61972 221.03086,535.77182 C 218.22092,536.92392 215.15927,537.49997 211.84591,537.49997 C 206.37119,537.49997 201.94087,536.43747 198.55494,534.31245 C 195.16896,532.18744 192.39424,528.8559 190.23076,524.31784 C 188.71807,521.07481 187.54782,517.34587 186.72003,513.13099 C 185.89223,508.91617 185.47833,504.57489 185.47833,500.10716 C 185.47833,497.22694 185.67621,494.36372 186.07197,491.5175 C 186.46773,488.67136 187.00805,485.96975 187.69295,483.41264 C 188.37782,480.85564 189.22431,478.47833 190.23241,476.2807 C 191.24049,474.08319 192.35686,472.19178 193.58154,470.60648 C 195.74282,467.93956 198.35484,465.92173 201.41761,464.55298 C 204.48033,463.18438 208.06416,462.50005 212.16911,462.49997 C 217.71852,462.50005 222.25823,463.74284 225.78824,466.22837 C 229.31815,468.71404 232.3078,472.80301 234.75717,478.49531 L 223.84076,482.819 C 222.32803,479.64857 220.68947,477.41472 218.92508,476.11745 C 217.16061,474.82029 214.90862,474.17168 212.16911,474.17162 C 209.21627,474.17168 206.74936,474.85602 204.76838,476.22463 C 202.78735,477.59336 201.18452,479.89922 199.95989,483.1422 C 199.02323,485.30355 198.32076,487.91502 197.85246,490.97662 C 197.38412,494.03832 197.14997,497.08182 197.14998,500.10716 C 197.14997,503.99884 197.45613,507.70965 198.06848,511.23958 C 198.68079,514.76957 199.56301,517.68776 200.71513,519.99415 C 202.94896,523.88361 206.26345,525.82833 210.65863,525.82832 C 214.33257,525.82833 217.35794,524.78397 219.73474,522.69522 C 222.11146,520.60649 223.29985,517.90433 223.29989,514.58871 L 223.29989,511.56444 L 210.11775,511.56444 L 210.11775,500.10716 L 234.75717,500.10716 L 234.75717,514.58871 L 234.75717,514.58871 z M 288.3465,536.20386 L 288.3465,504.64852 L 261.97892,504.64852 L 261.97892,536.20386 L 250.52164,536.20386 L 250.52164,463.79609 L 261.97892,463.79609 L 261.97892,492.97687 L 288.3465,492.97687 L 288.3465,463.79609 L 299.80378,463.79609 L 299.80378,536.20386 L 288.3465,536.20386 z M 364.23697,536.20386 L 354.07911,536.20386 L 342.62183,489.73492 L 331.49105,536.20386 L 321.33319,536.20386 L 310.63445,463.79609 L 322.3061,463.79609 L 327.9259,501.94745 L 337.11086,463.79609 L 348.24163,463.79609 L 357.64425,501.94745 L 363.26406,463.79609 L 374.93571,463.79609 L 364.23697,536.20386 z M 428.29747,536.20386 L 421.16388,515.88813 L 398.57912,515.88813 L 391.44553,536.20386 L 379.233,536.20386 L 404.19893,463.79609 L 415.54407,463.79609 L 440.50999,536.20386 L 428.29747,536.20386 z M 410.0331,483.89745 L 402.57631,504.21648 L 417.05786,504.21648 L 410.0331,483.89745 z M 483.23571,504.64852 L 483.23571,536.20386 L 471.78173,536.20386 L 471.78173,504.64852 L 446.38377,463.79609 L 460.11008,463.79609 L 477.40153,491.78628 L 494.90736,463.79609 L 508.416,463.79609 L 483.23571,504.64852 z " style="font-size:108.06912994px;font-style:normal;font-variant:normal;font-weight:bold;font-stretch:normal;text-align:start;line-height:125%;writing-mode:lr-tb;text-anchor:start;fill:white;fill-opacity:1;stroke:none;stroke-width:1px;stroke-linecap:butt;stroke-linejoin:miter;stroke-opacity:1;font-family:Franklin Gothic Demi" id="text6572"/>
    </g>
  </g>
</svg>