<?xml version="1.0" encoding="UTF-8" standalone="no"?><!DOCTYPE svg PUBLIC "-//W3C//DTD SVG 1.1//EN" "http://www.w3.org/Graphics/SVG/1.1/DTD/svg11.dtd"><svg width="100%" height="100%" viewBox="0 0 1962 1803" version="1.1" xmlns="http://www.w3.org/2000/svg" xmlns:xlink="http://www.w3.org/1999/xlink" xml:space="preserve" xmlns:serif="http://www.serif.com/" style="fill-rule:evenodd;clip-rule:evenodd;stroke-linejoin:round;stroke-miterlimit:2;"><path d="M1021.29,878.946l226.109,-235.91l-146.875,-68.811c-0,0 -154.868,67.37 -322.267,249.111c-148.108,160.796 -260.082,153.377 -381.485,170.079c-151.613,20.857 -277.16,42.874 -388.178,188.156c-107.666,-482.931 832.097,-561.922 832.097,-561.922l115.619,-73.75c0,-0 -411.745,-41.039 -617.876,-7.016c-206.132,34.022 -82.529,-140.162 19.796,-134.492c102.326,5.671 891.167,22.46 1064.25,172.295c12.447,10.775 15.984,-46.731 15.984,-46.731c-260.649,-84.464 -489.928,-203.036 -679.72,-364.538l-180.009,-2.722c-0,0 87.574,-174.034 506.141,-162.109c428.88,12.219 480.789,418.227 485.026,555.922c12.15,127.232 309.806,150.254 382.721,161.709c4.235,63.374 8.432,171.985 8.432,171.985l-560.987,-227.279l-249.923,249.03l-128.853,-33.007Z" style="fill:#009c00;"/><circle cx="956.308" cy="1336.51" r="466.167" style="fill:#ff9000;"/></svg>