<?xml version="1.0" standalone="no"?>
<!DOCTYPE svg PUBLIC "-//W3C//DTD SVG 1.1//EN" "http://www.w3.org/Graphics/SVG/1.1/DTD/svg11.dtd" >
<svg xmlns="http://www.w3.org/2000/svg" xmlns:xlink="http://www.w3.org/1999/xlink" version="1.1">
<metadata>
Created by FontForge 20170731 at Sat Sep 18 13:37:02 2010
 By Aleksey,,,
2009
</metadata>
<defs>
<font id="HighwayGothicWide" horiz-adv-x="495" >
  <font-face 
    font-family="Highway Gothic Wide"
    font-weight="400"
    font-stretch="normal"
    units-per-em="1000"
    panose-1="0 0 4 0 0 0 0 0 0 0"
    ascent="800"
    descent="-200"
    x-height="486"
    cap-height="670"
    bbox="-58 -243 1049 865"
    underline-thickness="20"
    underline-position="-163"
    unicode-range="U+0020-2122"
  />
<missing-glyph horiz-adv-x="500" 
d="M63 0v800h375v-800h-375zM125 63h250v675h-250v-675z" />
    <glyph glyph-name=".notdef" horiz-adv-x="500" 
d="M63 0v800h375v-800h-375zM125 63h250v675h-250v-675z" />
    <glyph glyph-name=".null" horiz-adv-x="0" 
 />
    <glyph glyph-name="nonmarkingreturn" horiz-adv-x="0" 
 />
    <glyph glyph-name="space" unicode=" " horiz-adv-x="255" 
 />
    <glyph glyph-name="space" unicode="&#xa0;" horiz-adv-x="255" 
 />
    <glyph glyph-name="exclam" unicode="!" horiz-adv-x="245" 
d="M189 670v-251l-33 -239h-66l-35 239v251h134zM189 54q0 -27 -20 -46.5t-48 -19.5q-27 0 -46.5 20t-19.5 46q0 28 19.5 48t46.5 20q28 0 48 -20t20 -48z" />
    <glyph glyph-name="quotedbl" unicode="&#x22;" 
d="M417 670l-18 -268h-90l-21 268h129zM208 670l-21 -268h-87l-21 268h129z" />
    <glyph glyph-name="numbersign" unicode="#" horiz-adv-x="660" 
d="M618 489l-14 -97h-103l-17 -103h106l-14 -96h-106l-31 -193h-112l33 193h-106l-31 -193h-108l31 193h-106l14 96h106l16 103h-103l14 97h103l29 181h108l-29 -181h109l28 181h108l-28 -181h103zM390 392h-106l-14 -103h106z" />
    <glyph glyph-name="dollar" unicode="$" horiz-adv-x="625" 
d="M367 752v-114h-108v114h108zM367 -1v-114h-108v114h108zM576 195q-1 -89 -82.5 -148t-178.5 -59q-164 0 -267 138l100 68q69 -76 163 -81q63 0 104.5 25t41.5 62q3 33 -30 58.5t-133 47.5q-133 28 -179.5 75t-47.5 110q-2 73 62.5 129.5t167.5 56.5q163 -8 250 -127
l-95 -63q-55 64 -155 72q-108 0 -108 -68q1 -27 27.5 -44.5t91.5 -29.5q152 -29 209.5 -85t58.5 -137z" />
    <glyph glyph-name="percent" unicode="%" horiz-adv-x="475" 
d="M434 98h-36q1 25 -17.5 43t-44.5 18t-44.5 -17.5t-18.5 -43.5q0 -25 18.5 -43.5t44.5 -18.5t44.5 18.5t17.5 43.5h36q0 -40 -29 -69t-69 -29t-68.5 29t-28.5 69q0 41 28 69t69 28q39 0 68.5 -28.5t29.5 -68.5zM233 573h-36q1 25 -17.5 43t-44.5 18t-44.5 -17.5
t-18.5 -43.5q0 -25 18.5 -43.5t44.5 -18.5t44.5 18.5t17.5 43.5h36q0 -40 -29 -69t-69 -29t-68.5 29t-28.5 69q0 41 28 69t69 28q39 0 68.5 -28.5t29.5 -68.5zM451 670l-383 -670h-44l384 670h43z" />
    <glyph glyph-name="ampersand" unicode="&#x26;" horiz-adv-x="615" 
d="M355 533q-40 52 -91 52q-25 0 -40.5 -16t-15.5 -40q0 -22 10.5 -40t30.5 -50l143 -192q14 45 14 82h100q-8 -99 -49 -169l123 -160h-133l-53 70q-42 -47 -78.5 -65.5t-87.5 -18.5q-85 0 -139 55t-54 142q0 69 34.5 123.5t79.5 94.5q-41 56 -41 125q0 67 44 110t112 43
q99 0 165 -87zM333 153l-125 156q-61 -48 -65 -123q0 -39 26 -68t63 -29q55 0 101 64z" />
    <glyph glyph-name="quotesingle" unicode="'" horiz-adv-x="295" 
d="M212 670l-21 -268h-87l-21 268h129z" />
    <glyph glyph-name="parenleft" unicode="(" horiz-adv-x="285" 
d="M244 -77h-87q-115 162 -115 385q0 218 115 380h87q-38 -61 -61 -106q-54 -115 -54 -277q0 -144 59 -279q16 -36 56 -103z" />
    <glyph glyph-name="parenright" unicode=")" horiz-adv-x="285" 
d="M42 -77q40 67 56 103q59 135 59 279q0 162 -54 277q-23 45 -61 106h87q115 -162 115 -380q0 -223 -115 -385h-87v0z" />
    <glyph glyph-name="asterisk" unicode="*" horiz-adv-x="475" 
d="M421 496l-108 -23l77 -71l-89 -68l-62 92l-60 -90l-92 63l74 74l-107 25l31 104l108 -39l-14 107h122l-15 -110l104 39z" />
    <glyph glyph-name="plus" unicode="+" horiz-adv-x="475" 
d="M449 282h-154v-153h-116v153h-153v120h153v150h116v-150h154v-120z" />
    <glyph glyph-name="comma" unicode="," horiz-adv-x="235" 
d="M184 54q-1 -54 -31.5 -102t-88.5 -64v21q47 24 59 79h-7q-27 0 -46.5 20t-19.5 46q0 28 19.5 48t46.5 20q28 0 48 -20t20 -48z" />
    <glyph glyph-name="comma" unicode="&#x201a;" horiz-adv-x="235" 
d="M184 54q-1 -54 -31.5 -102t-88.5 -64v21q47 24 59 79h-7q-27 0 -46.5 20t-19.5 46q0 28 19.5 48t46.5 20q28 0 48 -20t20 -48z" />
    <glyph glyph-name="hyphen" unicode="-" horiz-adv-x="275" 
d="M248 282h-222v120h222v-120z" />
    <glyph glyph-name="hyphen" unicode="&#x2010;" horiz-adv-x="275" 
d="M248 282h-222v120h222v-120z" />
    <glyph glyph-name="hyphen" unicode="&#xad;" horiz-adv-x="275" 
d="M248 282h-222v120h222v-120z" />
    <glyph glyph-name="period" unicode="." horiz-adv-x="235" 
d="M184 54q0 -27 -20 -46.5t-48 -19.5q-27 0 -46.5 20t-19.5 46q0 28 19.5 48t46.5 20q28 0 48 -20t20 -48z" />
    <glyph glyph-name="slash" unicode="/" horiz-adv-x="575" 
d="M575 670l-462 -670h-113l457 670h118z" />
    <glyph glyph-name="zero" unicode="0" horiz-adv-x="675" 
d="M618 338q0 -157 -75.5 -253.5t-201.5 -96.5q-138 0 -216 111q-68 96 -68 237q0 160 76 252.5t208 92.5q124 0 200.5 -94.5t76.5 -248.5zM499 336q0 106 -41.5 166t-116.5 60q-76 0 -119 -60t-43 -166q0 -107 43 -167.5t119 -60.5q86 0 126 75q32 59 32 153z" />
    <glyph glyph-name="one" unicode="1" horiz-adv-x="355" 
d="M278 0h-118v501h-84v101q73 15 106 68h96v-670z" />
    <glyph glyph-name="two" unicode="2" horiz-adv-x="635" 
d="M587 0h-540q20 263 274 370q66 27 108 52.5t39 59.5q0 33 -33 55.5t-103 23.5q-105 -3 -186 -84l-97 78q121 124 280 126q118 0 188 -58.5t70 -140.5q-1 -71 -38 -112.5t-141 -86.5q-165 -79 -197 -163h376v-120z" />
    <glyph glyph-name="three" unicode="3" horiz-adv-x="635" 
d="M585 209q0 -93 -76 -157t-189 -64q-163 2 -270 117l90 90q77 -81 187 -85q62 0 100.5 26t38.5 68q-2 49 -36 74t-74 27h-41v120h37q30 0 55.5 19t25.5 47q0 31 -33 51t-85 20q-86 0 -152 -56l-81 81q96 94 240 94q101 0 167 -53t66 -135q0 -85 -56 -125q87 -56 86 -159z
" />
    <glyph glyph-name="four" unicode="4" horiz-adv-x="715" 
d="M663 136h-99v-136h-118v136h-395v107l399 427h114v-426h99v-108zM446 244v258l-241 -258h241z" />
    <glyph glyph-name="five" unicode="5" horiz-adv-x="635" 
d="M587 230q0 -105 -79 -173.5t-203 -68.5q-135 0 -258 75l63 101q93 -53 195 -55q77 -1 122 34.5t45 87.5q2 55 -41 88.5t-111 34.5q-72 -1 -144 -31l-104 30l17 317h447v-119h-335l-6 -98q60 18 129 19q115 0 189 -68.5t74 -173.5z" />
    <glyph glyph-name="six" unicode="6" horiz-adv-x="635" 
d="M588 195q0 -90 -71.5 -148.5t-184.5 -58.5q-120 0 -202 68.5t-82 192.5q2 165 130.5 297t315.5 135v-113q-209 -33 -294 -193q62 22 137 22q109 0 180 -57t71 -145zM469 194q0 39 -39 62.5t-102 23.5q-68 0 -104.5 -20.5t-35.5 -57.5q-3 -39 37 -65.5t103 -26.5t102 23.5
t39 60.5z" />
    <glyph glyph-name="seven" unicode="7" horiz-adv-x="635" 
d="M588 553q-194 -267 -207 -553h-127q22 294 187 552h-394v118h541v-117z" />
    <glyph glyph-name="eight" unicode="8" horiz-adv-x="634" 
d="M587 214q-1 -106 -71 -166t-199 -60q-123 0 -196.5 61.5t-73.5 164.5q1 111 78 158q-57 47 -57 126q0 83 69 133t180 50q113 0 181 -50t68 -133q2 -78 -56 -124q75 -47 77 -160zM446 503q0 68 -130 70q-128 -2 -128 -70q0 -70 130 -72q128 2 128 72zM468 211
q1 102 -151 104q-149 -1 -150 -104q0 -105 151 -110q146 3 150 110z" />
    <glyph glyph-name="nine" unicode="9" horiz-adv-x="635" 
d="M48 474q0 90 71.5 148.5t184.5 58.5q120 0 202 -68.5t82 -192.5q-2 -165 -130.5 -297t-315.5 -135v113q209 33 294 193q-62 -22 -137 -22q-109 0 -180 57t-71 145zM167 475q0 -39 39 -62.5t102 -23.5q68 0 104.5 20.5t35.5 57.5q3 39 -37 65.5t-103 26.5t-102 -23.5
t-39 -60.5z" />
    <glyph glyph-name="colon" unicode=":" horiz-adv-x="235" 
d="M184 432q0 -27 -20 -46.5t-48 -19.5q-27 0 -46.5 19.5t-19.5 46.5q0 28 19.5 48t46.5 20q28 0 48 -20t20 -48zM184 54q0 -27 -20 -46.5t-48 -19.5q-27 0 -46.5 20t-19.5 46q0 28 19.5 48t46.5 20q28 0 48 -20t20 -48z" />
    <glyph glyph-name="semicolon" unicode=";" horiz-adv-x="235" 
d="M184 432q0 -27 -20 -46.5t-48 -19.5q-27 0 -46.5 19.5t-19.5 46.5q0 28 19.5 48t46.5 20q28 0 48 -20t20 -48zM184 54q-1 -54 -31.5 -102t-88.5 -64v21q47 24 59 79h-7q-27 0 -46.5 20t-19.5 46q0 28 19.5 48t46.5 20q28 0 48 -20t20 -48z" />
    <glyph glyph-name="less" unicode="&#x3c;" horiz-adv-x="584" 
d="M55 313v82l474 200v-87l-376 -154l376 -156v-88z" />
    <glyph glyph-name="equal" unicode="=" horiz-adv-x="475" 
d="M456 376h-435v120h435v-120zM456 183h-435v120h435v-120z" />
    <glyph glyph-name="greater" unicode="&#x3e;" horiz-adv-x="584" 
d="M55 110v88l376 156l-376 154v87l474 -200v-82z" />
    <glyph glyph-name="question" unicode="?" horiz-adv-x="525" 
d="M334 54q0 -27 -20 -46.5t-48 -19.5q-27 0 -46.5 20t-19.5 46q0 28 19.5 48t46.5 20q28 0 48 -20t20 -48zM489 498q0 -72 -70 -154q-72 -78 -91 -163h-113q9 100 85 189q69 78 69 123q0 32 -26 51.5t-70 19.5q-77 -2 -139 -76l-97 68q81 122 241 128q94 0 152.5 -52
t58.5 -134z" />
    <glyph glyph-name="at" unicode="@" horiz-adv-x="705" 
d="M500 245q-2 -30 25 -30q32 0 62 52.5t30 111.5q0 103 -68 167t-177 64q-117 0 -196.5 -81.5t-79.5 -200.5q0 -118 74.5 -195t201.5 -77q107 0 191 36l19 -71q-87 -35 -207 -35q-157 0 -255.5 91t-98.5 252q0 148 100 250t244 102q140 0 229 -84t89 -214
q0 -92 -48.5 -162.5t-113.5 -70.5q-58 -1 -85 45q-42 -25 -98 -25q-66 0 -100.5 32t-34.5 82q0 52 38 87t97 35q40 0 76 -11q2 44 -59 44q-47 0 -91 -23l-35 70q67 35 126 35q145 0 145 -140v-136zM414 268v48q-41 11 -76 11q-21 0 -36 -11t-15 -27t17.5 -27.5t41.5 -11.5
q36 0 68 18z" />
    <glyph glyph-name="A" unicode="A" horiz-adv-x="735" 
d="M710 0h-130l-65 157h-292l-66 -157h-131l282 670h122zM463 277l-94 226l-94 -226h188z" />
    <glyph glyph-name="B" unicode="B" horiz-adv-x="675" 
d="M608 197q0 -51 -27.5 -97.5t-73.5 -71.5q-51 -28 -103 -28h-336v670h312q74 0 116 -24q91 -51 91 -153q0 -100 -69 -140q89 -43 90 -156zM467 484q0 30 -16.5 47t-45.5 19h-215v-134h215q31 2 46.5 20t15.5 48zM489 204q0 39 -22.5 65t-61.5 27h-215v-176h215
q39 -1 61.5 23t22.5 61z" />
    <glyph glyph-name="C" unicode="C" horiz-adv-x="675" 
d="M609 136q-93 -148 -259 -148q-131 0 -207.5 95t-76.5 253q0 159 76 252t208 93q167 0 259 -148l-109 -54q-52 80 -150 83q-76 -2 -119 -67.5t-43 -156.5q0 -108 44.5 -167.5t119.5 -59.5q100 1 145 81z" />
    <glyph glyph-name="D" unicode="D" horiz-adv-x="675" 
d="M606 336q0 -206 -162 -296q-73 -40 -158 -40h-216v670h216q86 0 160 -43q160 -91 160 -291zM486 336q0 133 -99 188q-46 26 -101 26h-94v-430h94q49 0 96 26q104 56 104 190z" />
    <glyph glyph-name="E" unicode="E" horiz-adv-x="645" 
d="M573 0h-500v670h489v-120h-367v-125h200v-122h-200v-183h378v-120z" />
    <glyph glyph-name="F" unicode="F" horiz-adv-x="645" 
d="M573 550h-378v-136h209v-123h-209v-291h-122v670h500v-120z" />
    <glyph glyph-name="G" unicode="G" horiz-adv-x="675" 
d="M355 334h254v-87q0 -109 -77.5 -184t-188.5 -75q-138 0 -213 109q-64 94 -64 239q0 154 76 249.5t201 95.5q173 0 251 -139l-112 -56q-53 76 -139 76q-70 0 -113.5 -63.5t-43.5 -162.5q0 -96 32 -154q40 -74 125 -74q49 0 89 30t52 76h-129v120z" />
    <glyph glyph-name="H" unicode="H" horiz-adv-x="675" 
d="M608 0h-119v294l-301 -3v-291h-120v670h120v-259h301v259h119v-670z" />
    <glyph glyph-name="I" unicode="I" horiz-adv-x="295" 
d="M207 0h-120v670h120v-670z" />
    <glyph glyph-name="J" unicode="J" horiz-adv-x="655" 
d="M593 244q-2 -107 -68.5 -181.5t-187.5 -74.5q-101 0 -172.5 59.5t-103.5 156.5l118 38q50 -131 160 -134q57 0 95.5 44t38.5 118v400h120v-426z" />
    <glyph glyph-name="K" unicode="K" horiz-adv-x="665" 
d="M610 0h-137l-171 348l-127 -160v-188h-120v670h120v-285l237 285h155l-178 -219z" />
    <glyph glyph-name="L" unicode="L" horiz-adv-x="645" 
d="M573 0h-500v670h122v-550h378v-120z" />
    <glyph glyph-name="M" unicode="M" horiz-adv-x="795" 
d="M711 0h-117v409l-197 -409l-196 409v-409h-117v670h117l196 -398l197 398h117v-670z" />
    <glyph glyph-name="N" unicode="N" horiz-adv-x="675" 
d="M608 0h-103l-320 452v-452h-117v670h117l308 -447v447h115v-670z" />
    <glyph glyph-name="O" unicode="O" horiz-adv-x="675" 
d="M618 338q0 -157 -75.5 -253.5t-201.5 -96.5q-138 0 -216 111q-68 96 -68 237q0 160 76 252.5t208 92.5q124 0 200.5 -94.5t76.5 -248.5zM499 336q0 106 -41.5 166t-116.5 60q-76 0 -119 -60t-43 -166q0 -107 43 -167.5t119 -60.5q86 0 126 75q32 59 32 153z" />
    <glyph glyph-name="P" unicode="P" horiz-adv-x="665" 
d="M381 263h-192v-263h-120v670h308q66 0 115 -28q103 -60 103 -177q0 -126 -103 -181q-49 -21 -111 -21zM475 465q0 39 -26 62t-70 23h-190v-167h190q44 0 70 22.5t26 59.5z" />
    <glyph glyph-name="Q" unicode="Q" horiz-adv-x="696" 
d="M628 338q-3 -153 -71 -256l62 -88l-95 -72l-57 82q-61 -17 -116 -16q-138 0 -211 103.5t-73 244.5q0 160 76 252.5t208 92.5q124 0 200.5 -94.5t76.5 -248.5zM509 336q0 106 -41.5 166t-116.5 60q-76 0 -119 -60t-43 -166q0 -107 43 -167.5t119 -60.5q27 -1 50 10l-68 97
l91 72l58 -84q28 50 27 133z" />
    <glyph glyph-name="R" unicode="R" horiz-adv-x="675" 
d="M607 0h-134l-108 263h-178v-263h-120v670h308q66 0 115 -28q103 -60 103 -177q0 -119 -108 -178zM473 465q0 39 -26 62t-70 23h-190v-167h190q44 0 70 22.5t26 59.5z" />
    <glyph glyph-name="S" unicode="S" horiz-adv-x="625" 
d="M576 195q-1 -89 -69.5 -148t-191.5 -59q-164 0 -267 138l100 68q68 -89 171 -91q64 -1 100.5 25t37.5 69q3 36 -29 59t-130 46q-137 32 -183.5 79t-47.5 110q-2 73 62.5 129.5t167.5 56.5q163 -8 250 -127l-95 -63q-55 64 -155 72q-54 0 -82 -20t-26 -45q-1 -28 30 -46
t89 -29q140 -26 203.5 -84.5t64.5 -139.5z" />
    <glyph glyph-name="T" unicode="T" horiz-adv-x="595" 
d="M549 552h-193v-552h-117v552h-193v118h503v-118z" />
    <glyph glyph-name="U" unicode="U" horiz-adv-x="675" 
d="M608 270q0 -123 -76 -202.5t-194 -79.5t-194 79.5t-76 202.5v400h120v-400q0 -51 21 -87q44 -73 129 -73q86 0 129 73q22 36 22 87v400h119v-400z" />
    <glyph glyph-name="V" unicode="V" horiz-adv-x="675" 
d="M650 670l-249 -670h-129l-247 670h129l183 -489l184 489h129z" />
    <glyph glyph-name="W" unicode="W" horiz-adv-x="765" 
d="M737 670l-120 -670h-127l-108 449l-106 -449h-127l-122 670h124l73 -433l99 433h120l103 -433l68 433h123z" />
    <glyph glyph-name="X" unicode="X" horiz-adv-x="675" 
d="M627 0h-141l-150 237l-148 -237h-141l219 352l-200 318h143l127 -205l127 205h143l-197 -318z" />
    <glyph glyph-name="Y" unicode="Y" horiz-adv-x="735" 
d="M710 670l-282 -397v-273h-120v273l-282 397h148l195 -273l193 273h148z" />
    <glyph glyph-name="Z" unicode="Z" horiz-adv-x="625" 
d="M575 0h-526v136l381 416h-360v118h505v-137l-378 -413h378v-120z" />
    <glyph glyph-name="bracketleft" unicode="[" horiz-adv-x="275" 
d="M38 692h198v-73h-128v-709h128v-73h-198v855z" />
    <glyph glyph-name="backslash" unicode="\" horiz-adv-x="575" 
d="M118 670l457 -670h-113l-462 670h118z" />
    <glyph glyph-name="bracketright" unicode="]" horiz-adv-x="275" 
d="M236 -163h-198v73h128v709h-128v73h198v-855z" />
    <glyph glyph-name="asciicircum" unicode="^" horiz-adv-x="475" 
d="M120 337h-91l173 391h71l173 -391h-89l-120 291z" />
    <glyph glyph-name="underscore" unicode="_" horiz-adv-x="556" 
d="M-15 -199v64h582v-64h-582z" />
    <glyph glyph-name="grave" unicode="`" horiz-adv-x="245" 
d="M145 533l-122 137h130l69 -137h-77z" />
    <glyph glyph-name="a" unicode="a" 
d="M452 0h-113v21q-53 -30 -120 -30q-86 0 -131 48.5t-45 122.5q0 76 53.5 118t134.5 42q55 0 107 -15q-2 76 -83 81q-60 1 -118 -35l-56 89q90 59 176 59q83 0 139 -57t56 -148v-296zM339 119v82q-58 16 -102 16q-41 0 -64 -18t-23 -43q0 -26 22 -45t62 -19q45 0 105 27z
" />
    <glyph glyph-name="b" unicode="b" horiz-adv-x="515" 
d="M463 242q0 -101 -50.5 -177.5t-151.5 -77.5q-52 1 -89 35v-22h-120v621l120 60v-213q36 29 93 30q93 0 145.5 -78.5t52.5 -177.5zM354 244q0 61 -26.5 99t-74.5 38q-53 -3 -81 -46v-186q24 -41 79 -43q46 0 74.5 39.5t28.5 98.5z" />
    <glyph glyph-name="c" unicode="c" horiz-adv-x="474" 
d="M444 80q-74 -92 -181 -92q-101 0 -167 72.5t-66 183.5t66 184t167 73q107 0 181 -92l-71 -71q-47 44 -108 47q-53 0 -86.5 -39.5t-33.5 -101.5q0 -61 33.5 -101t86.5 -40q61 5 101 55z" />
    <glyph glyph-name="d" unicode="d" horiz-adv-x="515" 
d="M52 242q0 99 52.5 177.5t145.5 78.5q57 -1 93 -30v153l120 60v-681h-120v22q-37 -34 -89 -35q-101 1 -151.5 77.5t-50.5 177.5zM161 244q0 -59 28.5 -98.5t74.5 -39.5q55 2 79 43v186q-28 43 -81 46q-48 0 -74.5 -38t-26.5 -99z" />
    <glyph glyph-name="e" unicode="e" 
d="M456 207h-299q4 -52 34.5 -80t62.5 -28q41 0 81 38l74 -74q-63 -75 -155 -75q-90 0 -152.5 73.5t-62.5 180.5q0 106 61 180t149 74q104 -1 155 -80t52 -174v-35zM338 301q-2 39 -27.5 64t-58.5 24q-37 1 -63.5 -25.5t-27.5 -62.5h177z" />
    <glyph glyph-name="f" unicode="f" horiz-adv-x="303" 
d="M279 371h-73v-371h-118v371h-63v115h63v62q0 53 30 87.5t90 34.5q33 0 71 -16v-98q-19 6 -40 7q-34 0 -33 -37v-40h73v-115z" />
    <glyph glyph-name="g" unicode="g" horiz-adv-x="515" 
d="M52 242q0 99 52.5 177.5t145.5 78.5q54 0 93 -30v21h120v-489q-1 -97 -65.5 -160.5t-146.5 -81.5l-27 114q107 28 119 128v22q-37 -34 -89 -35q-101 1 -151.5 77.5t-50.5 177.5zM161 244q0 -59 28.5 -98.5t74.5 -39.5q55 2 79 43v186q-28 43 -81 46q-48 0 -74.5 -38
t-26.5 -99z" />
    <glyph glyph-name="h" unicode="h" 
d="M42 625l113 56v-233q45 45 119 45q79 0 128.5 -54.5t50.5 -141.5v-297h-120v291q0 39 -23.5 64t-63.5 25q-36 0 -63.5 -26.5t-27.5 -60.5v-293h-113v625z" />
    <glyph glyph-name="i" unicode="i" horiz-adv-x="245" 
d="M183 623q0 -26 -18 -44t-42 -18q-26 0 -43 17t-17 45q0 24 17.5 41t42.5 17q24 0 42 -17t18 -41zM183 489v-489h-120v489h120z" />
    <glyph glyph-name="j" unicode="j" horiz-adv-x="245" 
d="M183 623q0 -26 -18 -44t-42 -18q-26 0 -43 17t-17 45q0 24 17.5 41t42.5 17q24 0 42 -17t18 -41zM183 489v-489q-13 -159 -152 -243l-55 98q76 52 87 145v489h120z" />
    <glyph glyph-name="k" unicode="k" horiz-adv-x="475" 
d="M439 0h-120l-96 233l-66 -90v-143h-120v620l120 61v-361l129 166h148l-129 -155z" />
    <glyph glyph-name="l" unicode="l" horiz-adv-x="245" 
d="M182 0h-120v621l120 60v-681z" />
    <glyph glyph-name="m" unicode="m" horiz-adv-x="785" 
d="M739 0h-120v291q0 41 -22.5 65.5t-61.5 24.5q-35 0 -60 -25.5t-25 -59.5v-296h-115v291q0 39 -26 64.5t-63 25.5q-35 0 -57.5 -25t-22.5 -62v-294h-120v489h120v-40q38 43 118 44q80 -3 125 -68q45 67 138 68q92 -2 142 -63t50 -133v-297z" />
    <glyph glyph-name="n" unicode="n" 
d="M42 486h113v-38q45 45 119 45q79 0 128.5 -54.5t50.5 -141.5v-297h-120v291q0 39 -23.5 64t-63.5 25q-36 0 -63.5 -26.5t-27.5 -60.5v-293h-113v486z" />
    <glyph glyph-name="o" unicode="o" 
d="M462 244q0 -106 -62.5 -181t-151.5 -75q-90 0 -152 75t-62 181q0 107 62 182t152 75q89 0 151.5 -75t62.5 -182zM346 244q0 60 -27 98.5t-70 38.5q-45 0 -72 -39t-27 -98t27 -98.5t72 -39.5q43 0 70 39.5t27 98.5z" />
    <glyph glyph-name="p" unicode="p" horiz-adv-x="515" 
d="M463 242q0 -101 -50.5 -177.5t-151.5 -77.5q-52 1 -89 35v-203l-120 -61v731h120v-21q36 29 93 30q93 0 145.5 -78.5t52.5 -177.5zM354 244q0 61 -26.5 99t-74.5 38q-53 -3 -81 -46v-186q24 -41 79 -43q46 0 74.5 39.5t28.5 98.5z" />
    <glyph glyph-name="q" unicode="q" horiz-adv-x="515" 
d="M52 242q0 99 52.5 177.5t145.5 78.5q57 -1 93 -30v21h120v-671l-120 -60v264q-37 -34 -89 -35q-101 1 -151.5 77.5t-50.5 177.5zM161 244q0 -59 28.5 -98.5t74.5 -39.5q55 2 79 43v186q-28 43 -81 46q-48 0 -74.5 -38t-26.5 -99z" />
    <glyph glyph-name="r" unicode="r" horiz-adv-x="385" 
d="M375 467l-37 -114q-28 32 -72 31q-84 1 -85 -97v-287h-120v489h120v-29q36 41 91 41q59 0 103 -34z" />
    <glyph glyph-name="s" unicode="s" horiz-adv-x="475" 
d="M446 139q-1 -66 -56 -107.5t-144 -42.5q-119 2 -218 58l54 104q85 -49 161 -50q49 0 67.5 12t18.5 33q0 22 -18 33t-73 21q-110 19 -148.5 58.5t-37.5 84.5q-1 64 50 109.5t138 45.5q98 0 188 -53l-49 -97q-62 35 -136 39q-44 -1 -59 -10.5t-15 -25.5q-1 -16 14.5 -24
t59.5 -14q104 -13 153 -56.5t50 -117.5z" />
    <glyph glyph-name="t" unicode="t" horiz-adv-x="385" 
d="M344 127l-35 -126q-30 -12 -66 -13q-57 0 -89.5 43.5t-32.5 107.5v235h-80v112h80v134l122 61v-195h101v-112h-101v-229q3 -46 43 -45q28 -2 58 27z" />
    <glyph glyph-name="u" unicode="u" 
d="M453 0h-113v38q-45 -45 -119 -45q-79 0 -128.5 54.5t-50.5 141.5v297h120v-291q0 -39 23.5 -64t63.5 -25q36 0 63.5 26.5t27.5 60.5v293h113v-486z" />
    <glyph glyph-name="v" unicode="v" horiz-adv-x="505" 
d="M490 489l-174 -489h-127l-174 489h120l117 -332l118 332h120z" />
    <glyph glyph-name="w" unicode="w" horiz-adv-x="665" 
d="M652 489l-136 -489h-115l-68 296l-68 -296h-116l-136 489h118l76 -266l62 266h127l67 -266l72 266h117z" />
    <glyph glyph-name="x" unicode="x" 
d="M492 0h-134l-111 169l-108 -169h-136l179 275l-139 214h136l68 -108l71 108h134l-136 -214z" />
    <glyph glyph-name="y" unicode="y" horiz-adv-x="545" 
d="M530 489l-276 -731h-123l93 242l-209 489h122l144 -336l127 336h122z" />
    <glyph glyph-name="z" unicode="z" horiz-adv-x="475" 
d="M450 0h-425v106l240 265h-228v118h413v-107l-255 -267h255v-115z" />
    <glyph glyph-name="braceleft" unicode="{" horiz-adv-x="335" 
d="M26 299q76 2 93 73q7 34 8 115q0 37 3 108q11 106 91 128q17 5 60 5h28v-77h-16q-54 0 -70 -23q-14 -19 -14 -77q0 -129 -5 -161q-8 -51 -29.5 -80t-67.5 -51q65 -27 87 -90q15 -44 15 -130q0 -96 2 -113q5 -37 25 -50q17 -10 57 -10h16v-76h-28q-47 0 -69 7
q-66 24 -79 100q-3 24 -3 102t-6 116q-9 61 -37 84q-24 19 -61 20v80z" />
    <glyph glyph-name="bar" unicode="|" horiz-adv-x="205" 
d="M77 -210v938h50v-938h-50z" />
    <glyph glyph-name="braceright" unicode="}" horiz-adv-x="335" 
d="M309 219q-37 -1 -61 -20q-28 -23 -37 -84q-6 -38 -6 -116t-3 -102q-13 -76 -79 -100q-22 -7 -69 -7h-28v76h16q40 0 57 10q20 13 25 50q2 17 2 113q0 86 15 130q22 63 87 90q-46 22 -67.5 51t-29.5 80q-5 32 -5 161q0 58 -14 77q-16 23 -70 23h-16v77h28q43 0 60 -5
q80 -22 91 -128q3 -71 3 -108q1 -81 8 -115q17 -71 93 -73v-80z" />
    <glyph glyph-name="asciitilde" unicode="~" horiz-adv-x="584" 
d="M42 272v100q52 59 136 59q53 0 154 -43q54 -23 84 -23q65 0 126 67v-103q-59 -56 -135 -56q-52 0 -141 40q-58 25 -96 25q-59 0 -128 -66z" />
    <glyph glyph-name="exclamdown" unicode="&#xa1;" horiz-adv-x="245" 
d="M55 -12v251l35 239h66l33 -239v-251h-134zM189 604q0 -28 -20 -48t-48 -20q-27 0 -46.5 20t-19.5 48q0 26 19.5 46t46.5 20q28 0 48 -19.5t20 -46.5z" />
    <glyph glyph-name="cent.001" unicode="&#xa2;" horiz-adv-x="474" 
d="M444 167q-74 -92 -181 -92q-101 0 -167 72.5t-66 183.5t66 184t167 73q107 0 181 -92l-71 -71q-47 44 -108 47q-53 0 -86.5 -39.5t-33.5 -101.5q0 -61 33.5 -101t86.5 -40q61 5 101 55zM230 0v670h65v-670h-65z" />
    <glyph glyph-name="sterling" unicode="&#xa3;" horiz-adv-x="595" 
d="M95 407h50v66q1 82 55 139t154 58q121 -5 192 -102l-93 -61q-32 55 -101 57q-45 -3 -69.5 -31.5t-25.5 -61.5v-64h151v-99h-151v-71q-5 -74 -49 -117h339v-120h-500v119h10q76 44 88 135v54h-50v99z" />
    <glyph glyph-name="currency" unicode="&#xa4;" horiz-adv-x="555" 
d="M105 469l-68 67l56 58l68 -68q52 35 116 35t116 -35l67 68l57 -58l-68 -67q35 -53 35 -115q0 -61 -35 -115l68 -66l-57 -58l-67 68q-52 -36 -116 -36t-116 36l-68 -68l-56 58l68 66q-35 54 -35 115q0 62 35 115zM150 354q0 -52 37 -89t89 -37q53 0 90 37t37 89
q0 53 -37 90t-90 37q-52 0 -89 -37t-37 -90z" />
    <glyph glyph-name="yen" unicode="&#xa5;" horiz-adv-x="735" 
d="M712 153h-687v120h687v-120zM710 670l-282 -397v-273h-120v273l-282 397h148l195 -273l193 273h148z" />
    <glyph glyph-name="brokenbar" unicode="&#xa6;" horiz-adv-x="205" 
d="M128 728v-386h-50v386h50zM128 176v-386h-50v386h50z" />
    <glyph glyph-name="section" unicode="&#xa7;" horiz-adv-x="475" 
d="M446 113q-1 -66 -56 -107.5t-144 -42.5q-119 2 -218 58l54 104q85 -49 161 -50q49 0 67.5 12t18.5 33q0 22 -18 33t-73 21q-110 19 -148.5 58.5t-37.5 84.5q-2 72 56 106q-57 35 -56 101q-1 64 50 109.5t138 45.5q98 0 188 -53l-49 -97q-62 35 -136 39q-44 -1 -59 -10.5
t-15 -25.5q-1 -16 14.5 -24t59.5 -14q104 -13 153 -56.5t48 -110.5q-2 -67 -54 -93q57 -42 56 -121zM297 269q32 16 33 49t-26 45t-100 29q-34 -18 -35 -56q-1 -29 23.5 -40t104.5 -27z" />
    <glyph glyph-name="dieresis" unicode="&#xa8;" horiz-adv-x="455" 
d="M408 602q0 -27 -20 -46.5t-48 -19.5q-27 0 -46.5 20t-19.5 46q0 28 19.5 48t46.5 20q28 0 48 -20t20 -48zM181 602q0 -27 -20 -46.5t-48 -19.5q-27 0 -46.5 20t-19.5 46q0 28 19.5 48t46.5 20q28 0 48 -20t20 -48z" />
    <glyph glyph-name="exclamdown.001" unicode="&#xa9;" horiz-adv-x="745" 
d="M372 681q91 0 172.5 -46t124.5 -125q47 -82 47 -173t-46.5 -172.5t-127.5 -126t-170 -44.5q-92 0 -173 46.5t-126 127t-45 169.5q0 93 47.5 175t129 125.5t167.5 43.5zM372 625q-76 0 -143 -39t-105 -105q-38 -69 -38 -144q0 -77 39 -144t106.5 -105t140.5 -38
q76 0 143.5 39.5t105 106.5t37.5 141q0 78 -39.5 146t-107.5 105t-139 37zM482 282l56 -17q-14 -59 -58.5 -92t-107.5 -33q-85 0 -134 56q-46 53 -46 140q0 125 88 172q41 22 96 22q124 0 155 -107l-54 -13q-28 70 -103 70q-59 0 -91 -44q-29 -39 -29 -101q0 -61 27 -99
q30 -42 89 -42q41 0 72 24t40 64z" />
    <glyph glyph-name="cent" unicode="&#xaa;" horiz-adv-x="345" 
d="M303 351h-74v14q-33 -19 -77 -19q-55 0 -83 31.5t-28 81.5t33.5 77.5t84.5 27.5q37 0 69 -10q-1 51 -52 54q-40 1 -76 -23l-36 59q58 37 113 37q52 0 89 -36.5t37 -97.5v-196zM229 430v54q-36 11 -66 11q-26 0 -40.5 -12t-14.5 -29t14 -29.5t39 -12.5q30 0 68 18z" />
    <glyph glyph-name="guillemotleft" unicode="&#xab;" horiz-adv-x="515" 
d="M261 501l-116 -205l116 -205h-117l-117 205l117 205h117zM488 501l-116 -205l116 -205h-117l-117 205l117 205h117z" />
    <glyph glyph-name="logicalnot" unicode="&#xac;" horiz-adv-x="555" 
d="M527 120h-120v162h-380v120h500v-282z" />
    <glyph glyph-name="registered" unicode="&#xae;" horiz-adv-x="705" 
d="M353 681q89 0 167.5 -44.5t120.5 -121.5q44 -80 44 -167q0 -89 -44.5 -168t-122.5 -122t-165 -43q-90 0 -168 45t-121.5 123.5t-43.5 164.5q0 90 46 169t124.5 121.5t162.5 42.5zM353 620q-72 0 -135.5 -36.5t-99.5 -99.5q-35 -67 -35 -137q0 -74 36.5 -138.5t100.5 -100
t133 -35.5q73 0 137 37t100.5 101.5t36.5 135.5q0 73 -38.5 138.5t-102.5 100t-133 34.5zM207 164v358h123q51 0 75 -5q41 -9 62 -39q16 -25 16 -53q0 -42 -26 -71q-22 -29 -66 -34l117 -156h-64l-119 152h-61v-152h-57zM264 366h71q39 -1 56 8q33 12 31 46q0 34 -34 48
q-15 6 -58 6h-66v-108z" />
    <glyph glyph-name="macron" unicode="&#xaf;" horiz-adv-x="355" 
d="M17 649h320v-53h-320v53z" />
    <glyph glyph-name="degree" unicode="&#xb0;" horiz-adv-x="375" 
d="M52 535q0 56 38 95q39 40 95 40q58 0 98 -39t40 -96t-40 -96q-41 -40 -98 -40q-56 0 -94 39q-39 40 -39 97zM103 535q0 -35 24 -59q25 -24 58 -24q35 0 59 24q25 25 25 59t-24 58q-25 24 -60 24q-33 0 -57 -24q-25 -24 -25 -58z" />
    <glyph glyph-name="plusminus" unicode="&#xb1;" horiz-adv-x="475" 
d="M449 82h-423v120h423v-120zM449 390h-154v-153h-116v153h-153v120h153v150h116v-150h154v-120z" />
    <glyph glyph-name="twosuperior" unicode="&#xb2;" horiz-adv-x="415" 
d="M374 281h-332q11 155 167 218q41 16 66.5 31t23.5 35q0 19 -20 32t-63 14q-64 -2 -114 -49l-60 45q75 73 172 74q73 0 116.5 -34t43.5 -82q-1 -42 -24 -66.5t-87 -50.5q-102 -47 -121 -96h232v-71z" />
    <glyph glyph-name="threesuperior" unicode="&#xb3;" horiz-adv-x="415" 
d="M374 409q0 -54 -47.5 -91t-117.5 -37q-102 2 -167 68l52 52q50 -47 119 -49q38 0 62.5 15t24.5 39q-2 28 -23 42.5t-46 15.5h-25v71h22q19 0 35 11t16 27q0 18 -20.5 29.5t-52.5 11.5q-53 0 -98 -33l-47 47q59 53 149 53q63 0 103.5 -30t40.5 -77q0 -49 -46 -71
q66 -34 66 -94z" />
    <glyph glyph-name="acute" unicode="&#xb4;" horiz-adv-x="245" 
d="M23 533l69 137h130l-122 -137h-77z" />
    <glyph glyph-name="mu" unicode="&#xb5;" 
d="M453 0l-113 -57v95q-45 -45 -97 -45q-47 0 -81 42v-130l-120 -60v641h120v-291q0 -39 23.5 -64t63.5 -25q36 0 63.5 26.5t27.5 60.5v293h113v-486z" />
    <glyph glyph-name="paragraph" unicode="&#xb6;" horiz-adv-x="375" 
d="M142 0v375q-55 3 -89 41q-34 39 -34 104q0 74 41 114q38 36 103 36h194v-62h-45v-608h-52v608h-68v-608h-50z" />
    <glyph glyph-name="periodcentered" unicode="&#xb7;" horiz-adv-x="235" 
d="M184 432q0 -27 -20 -46.5t-48 -19.5q-27 0 -46.5 19.5t-19.5 46.5q0 28 19.5 48t46.5 20q28 0 48 -20t20 -48z" />
    <glyph glyph-name="cedilla" unicode="&#xb8;" horiz-adv-x="295" 
d="M28 -176v54q33 -9 63.5 -13.5t53.5 -4.5q19 0 28 7.5t9 23.5q0 12 -12 18t-40 6h-14h-10v85h50v-32h9q47 0 74 -20t27 -58q0 -43 -29 -65t-84 -22q-25 0 -56 5.5t-69 15.5z" />
    <glyph glyph-name="onesuperior" unicode="&#xb9;" horiz-adv-x="265" 
d="M196 270h-75v301h-51v60q45 9 66 39h60v-400z" />
    <glyph glyph-name="ordmasculine" unicode="&#xba;" horiz-adv-x="345" 
d="M320 514q0 -70 -44 -119t-104 -49q-62 0 -104.5 49t-42.5 119t42.5 118.5t104.5 48.5q60 0 104 -48.5t44 -118.5zM247 514q0 39 -21 64t-52 25q-35 0 -55 -25.5t-20 -63.5q0 -39 20 -64.5t55 -25.5q31 0 52 25.5t21 64.5z" />
    <glyph glyph-name="guillemotright" unicode="&#xbb;" horiz-adv-x="515" 
d="M371 501l117 -205l-117 -205h-117l116 205l-116 205h117zM144 501l117 -205l-117 -205h-117l116 205l-116 205h117z" />
    <glyph glyph-name="onequarter" unicode="&#xbc;" horiz-adv-x="1015" 
d="M948 89h-65v-89h-77v89h-257v69l259 277h75v-276h65v-70zM806 159v167l-156 -167h156zM203 0l472 682h60l-468 -682h-64zM198 247h-77v328h-53v65q47 10 68 42h62v-435z" />
    <glyph glyph-name="onehalf" unicode="&#xbd;" horiz-adv-x="1125" 
d="M218 0l472 682h60l-468 -682h-64zM206 247h-77v328h-53v65q47 10 68 42h62v-435zM1049 0h-363q14 168 184 237q44 17 72.5 33.5t26.5 37.5q0 21 -22.5 35.5t-68.5 15.5q-71 -2 -125 -54l-65 50q81 79 188 80q79 0 126 -37t47 -90q-1 -45 -26 -71.5t-94 -55.5
q-111 -50 -133 -104h253v-77z" />
    <glyph glyph-name="threequarters" unicode="&#xbe;" horiz-adv-x="1055" 
d="M1006 89h-65v-89h-77v89h-257v69l259 277h75v-276h65v-70zM864 159v167l-156 -167h156zM387 386q0 -58 -48 -98.5t-121 -40.5q-102 2 -170 74l56 56q49 -50 119 -53q39 0 63.5 16.5t24.5 42.5q-2 31 -23 46.5t-47 16.5h-25v76h23q19 0 35.5 12t16.5 29q0 20 -21.5 32.5
t-53.5 12.5q-55 0 -98 -35l-50 50q61 59 152 59q64 0 106 -33t42 -85q0 -53 -46 -80q66 -33 65 -98zM275 0l472 682h60l-468 -682h-64z" />
    <glyph glyph-name="questiondown" unicode="&#xbf;" horiz-adv-x="525" 
d="M192 618q0 27 20 46.5t48 19.5q27 0 46.5 -20t19.5 -46q0 -28 -19.5 -48t-46.5 -20q-28 0 -48 20t-20 48zM37 174q0 72 70 154q72 78 91 163h113q-9 -100 -85 -189q-69 -78 -69 -123q0 -32 26 -51.5t70 -19.5q77 2 139 76l97 -68q-81 -122 -241 -128q-94 0 -152.5 52
t-58.5 134z" />
    <glyph glyph-name="Agrave" unicode="&#xc0;" horiz-adv-x="735" 
d="M710 0h-130l-65 157h-292l-66 -157h-131l282 670h122zM463 277l-94 226l-94 -226h188zM391 699l-122 137h130l69 -137h-77z" />
    <glyph glyph-name="Aacute" unicode="&#xc1;" horiz-adv-x="735" 
d="M710 0h-130l-65 157h-292l-66 -157h-131l282 670h122zM463 277l-94 226l-94 -226h188zM269 699l69 137h130l-122 -137h-77z" />
    <glyph glyph-name="Acircumflex" unicode="&#xc2;" horiz-adv-x="735" 
d="M710 0h-130l-65 157h-292l-66 -157h-131l282 670h122zM463 277l-94 226l-94 -226h188zM443 700l-75 75l-75 -75h-78l97 137h112l98 -137h-79z" />
    <glyph glyph-name="Atilde" unicode="&#xc3;" horiz-adv-x="735" 
d="M710 0h-130l-65 157h-292l-66 -157h-131l282 670h122zM463 277l-94 226l-94 -226h188zM528 823q-3 -61 -35.5 -90.5t-72.5 -28.5q-12 1 -18 2t-16 4l-54 18q-8 2 -13.5 3t-16.5 1q-14 0 -24.5 -9.5t-17.5 -29.5h-52q3 59 31 88t67 29q12 -1 17 -2l15 -3l58 -19
q10 -2 15 -2.5t16 -0.5q15 1 26 11t14 29h61z" />
    <glyph glyph-name="Adieresis" unicode="&#xc4;" horiz-adv-x="735" 
d="M710 0h-130l-65 157h-292l-66 -157h-131l282 670h122zM463 277l-94 226l-94 -226h188zM321 776q0 -27 -20 -46.5t-48 -19.5q-27 0 -46.5 20t-19.5 46q0 28 19.5 48t46.5 20q28 0 48 -20t20 -48zM548 776q0 -27 -20 -46.5t-48 -19.5q-27 0 -46.5 20t-19.5 46q0 28 19.5 48
t46.5 20q28 0 48 -20t20 -48z" />
    <glyph glyph-name="Aring" unicode="&#xc5;" horiz-adv-x="735" 
d="M710 0h-130l-65 157h-292l-66 -157h-131l282 670h122zM463 277l-94 226l-94 -226h188zM466 768h-36q1 25 -17.5 43t-44.5 18t-44.5 -17.5t-18.5 -43.5q0 -25 18.5 -43.5t44.5 -18.5t44.5 18.5t17.5 43.5h36q0 -40 -29 -69t-69 -29t-68.5 29t-28.5 69q0 41 28 69t69 28
q39 0 68.5 -28.5t29.5 -68.5z" />
    <glyph glyph-name="AE" unicode="&#xc6;" horiz-adv-x="1075" 
d="M522 157h-244l-109 -157h-144l447 670h539v-120h-367v-125h200v-122h-200v-183h378v-120h-500v522l-172 -245h172v-120z" />
    <glyph glyph-name="Ccedilla" unicode="&#xc7;" horiz-adv-x="675" 
d="M609 136q-93 -148 -259 -148q-131 0 -207.5 95t-76.5 253q0 159 76 252t208 93q167 0 259 -148l-109 -54q-52 80 -150 83q-76 -2 -119 -67.5t-43 -156.5q0 -108 44.5 -167.5t119.5 -59.5q100 1 145 81zM247 -176v54q33 -9 63.5 -13.5t53.5 -4.5q19 0 28 7.5t9 23.5
q0 12 -12 18t-40 6h-14h-10v85h50v-32h9q47 0 74 -20t27 -58q0 -43 -29 -65t-84 -22q-25 0 -56 5.5t-69 15.5z" />
    <glyph glyph-name="Egrave" unicode="&#xc8;" horiz-adv-x="645" 
d="M345 699l-122 137h130l69 -137h-77zM573 0h-500v670h489v-120h-367v-125h200v-122h-200v-183h378v-120z" />
    <glyph glyph-name="Eacute" unicode="&#xc9;" horiz-adv-x="645" 
d="M573 0h-500v670h489v-120h-367v-125h200v-122h-200v-183h378v-120zM223 699l69 137h130l-122 -137h-77z" />
    <glyph glyph-name="Ecircumflex" unicode="&#xca;" horiz-adv-x="645" 
d="M397 700l-75 75l-75 -75h-78l97 137h112l98 -137h-79zM573 0h-500v670h489v-120h-367v-125h200v-122h-200v-183h378v-120z" />
    <glyph glyph-name="Edieresis" unicode="&#xcb;" horiz-adv-x="645" 
d="M142 776q0 28 20 48t48 20q27 0 46.5 -20t19.5 -48q0 -26 -19.5 -46t-46.5 -20q-28 0 -48 19.5t-20 46.5zM503 776q0 -27 -20 -46.5t-48 -19.5q-27 0 -46.5 20t-19.5 46q0 28 19.5 48t46.5 20q28 0 48 -20t20 -48zM573 0h-500v670h489v-120h-367v-125h200v-122h-200v-183
h378v-120z" />
    <glyph glyph-name="Igrave" unicode="&#xcc;" horiz-adv-x="295" 
d="M170 699l-122 137h130l69 -137h-77zM207 0h-120v670h120v-670z" />
    <glyph glyph-name="Iacute" unicode="&#xcd;" horiz-adv-x="295" 
d="M48 699l69 137h130l-122 -137h-77zM207 0h-120v670h120v-670z" />
    <glyph glyph-name="Icircumflex" unicode="&#xce;" horiz-adv-x="295" 
d="M222 700l-75 75l-75 -75h-78l97 137h112l98 -137h-79zM207 0h-120v670h120v-670z" />
    <glyph glyph-name="Idieresis" unicode="&#xcf;" horiz-adv-x="295" 
d="M-33 776q0 28 20 48t48 20q27 0 46.5 -20t19.5 -48q0 -26 -19.5 -46t-46.5 -20q-28 0 -48 19.5t-20 46.5zM328 776q0 -27 -20 -46.5t-48 -19.5q-27 0 -46.5 20t-19.5 46q0 28 19.5 48t46.5 20q28 0 48 -20t20 -48zM207 0h-120v670h120v-670z" />
    <glyph glyph-name="Eth" unicode="&#xd0;" horiz-adv-x="685" 
d="M639 336q0 -206 -162 -296q-73 -40 -158 -40h-216v670h216q86 0 160 -43q160 -91 160 -291zM519 336q0 133 -99 188q-46 26 -101 26h-94v-430h94q49 0 96 26q104 56 104 190zM321 282h-276v120h276v-120z" />
    <glyph glyph-name="Ntilde" unicode="&#xd1;" horiz-adv-x="675" 
d="M498 823q-3 -61 -35.5 -90.5t-72.5 -28.5q-12 1 -18 2t-16 4l-54 18q-8 2 -13.5 3t-16.5 1q-14 0 -24.5 -9.5t-17.5 -29.5h-52q3 59 31 88t67 29q12 -1 17 -2l15 -3l58 -19q10 -2 15 -2.5t16 -0.5q15 1 26 11t14 29h61zM608 0h-103l-320 452v-452h-117v670h117l308 -447
v447h115v-670z" />
    <glyph glyph-name="Ograve" unicode="&#xd2;" horiz-adv-x="675" 
d="M618 338q0 -157 -75.5 -253.5t-201.5 -96.5q-138 0 -216 111q-68 96 -68 237q0 160 76 252.5t208 92.5q124 0 200.5 -94.5t76.5 -248.5zM499 336q0 106 -41.5 166t-116.5 60q-76 0 -119 -60t-43 -166q0 -107 43 -167.5t119 -60.5q86 0 126 75q32 59 32 153zM360 699
l-122 137h130l69 -137h-77z" />
    <glyph glyph-name="Oacute" unicode="&#xd3;" horiz-adv-x="675" 
d="M618 338q0 -157 -75.5 -253.5t-201.5 -96.5q-138 0 -216 111q-68 96 -68 237q0 160 76 252.5t208 92.5q124 0 200.5 -94.5t76.5 -248.5zM499 336q0 106 -41.5 166t-116.5 60q-76 0 -119 -60t-43 -166q0 -107 43 -167.5t119 -60.5q86 0 126 75q32 59 32 153zM238 699
l69 137h130l-122 -137h-77z" />
    <glyph glyph-name="Ocircumflex" unicode="&#xd4;" horiz-adv-x="675" 
d="M618 338q0 -157 -75.5 -253.5t-201.5 -96.5q-138 0 -216 111q-68 96 -68 237q0 160 76 252.5t208 92.5q124 0 200.5 -94.5t76.5 -248.5zM499 336q0 106 -41.5 166t-116.5 60q-76 0 -119 -60t-43 -166q0 -107 43 -167.5t119 -60.5q86 0 126 75q32 59 32 153zM412 700
l-75 75l-75 -75h-78l97 137h112l98 -137h-79z" />
    <glyph glyph-name="Otilde" unicode="&#xd5;" horiz-adv-x="675" 
d="M497 823q-3 -61 -35.5 -90.5t-72.5 -28.5q-12 1 -18 2t-16 4l-54 18q-8 2 -13.5 3t-16.5 1q-14 0 -24.5 -9.5t-17.5 -29.5h-52q3 59 31 88t67 29q12 -1 17 -2l15 -3l58 -19q10 -2 15 -2.5t16 -0.5q15 1 26 11t14 29h61zM618 338q0 -157 -75.5 -253.5t-201.5 -96.5
q-138 0 -216 111q-68 96 -68 237q0 160 76 252.5t208 92.5q124 0 200.5 -94.5t76.5 -248.5zM499 336q0 106 -41.5 166t-116.5 60q-76 0 -119 -60t-43 -166q0 -107 43 -167.5t119 -60.5q86 0 126 75q32 59 32 153z" />
    <glyph glyph-name="Odieresis" unicode="&#xd6;" horiz-adv-x="675" 
d="M157 776q0 28 20 48t48 20q27 0 46.5 -20t19.5 -48q0 -26 -19.5 -46t-46.5 -20q-28 0 -48 19.5t-20 46.5zM518 776q0 -27 -20 -46.5t-48 -19.5q-27 0 -46.5 20t-19.5 46q0 28 19.5 48t46.5 20q28 0 48 -20t20 -48zM618 338q0 -157 -75.5 -253.5t-201.5 -96.5
q-138 0 -216 111q-68 96 -68 237q0 160 76 252.5t208 92.5q124 0 200.5 -94.5t76.5 -248.5zM499 336q0 106 -41.5 166t-116.5 60q-76 0 -119 -60t-43 -166q0 -107 43 -167.5t119 -60.5q86 0 126 75q32 59 32 153z" />
    <glyph glyph-name="multiply" unicode="&#xd7;" horiz-adv-x="584" 
d="M79 200l153 154l-153 153l60 59l153 -153l153 153l58 -59l-152 -153l153 -153l-59 -60l-153 153l-154 -153z" />
    <glyph glyph-name="Oslash" unicode="&#xd8;" horiz-adv-x="675" 
d="M640 681l-494 -693h-105l486 693h113zM618 338q0 -157 -75.5 -253.5t-201.5 -96.5q-138 0 -216 111q-68 96 -68 237q0 160 76 252.5t208 92.5q124 0 200.5 -94.5t76.5 -248.5zM499 336q0 106 -41.5 166t-116.5 60q-76 0 -119 -60t-43 -166q0 -107 43 -167.5t119 -60.5
q86 0 126 75q32 59 32 153z" />
    <glyph glyph-name="Ugrave" unicode="&#xd9;" horiz-adv-x="675" 
d="M608 270q0 -123 -76 -202.5t-194 -79.5t-194 79.5t-76 202.5v400h120v-400q0 -51 21 -87q44 -73 129 -73q86 0 129 73q22 36 22 87v400h119v-400zM360 699l-122 137h130l69 -137h-77z" />
    <glyph glyph-name="Uacute" unicode="&#xda;" horiz-adv-x="675" 
d="M238 699l69 137h130l-122 -137h-77zM608 270q0 -123 -76 -202.5t-194 -79.5t-194 79.5t-76 202.5v400h120v-400q0 -51 21 -87q44 -73 129 -73q86 0 129 73q22 36 22 87v400h119v-400z" />
    <glyph glyph-name="Ucircumflex" unicode="&#xdb;" horiz-adv-x="675" 
d="M412 700l-75 75l-75 -75h-78l97 137h112l98 -137h-79zM608 270q0 -123 -76 -202.5t-194 -79.5t-194 79.5t-76 202.5v400h120v-400q0 -51 21 -87q44 -73 129 -73q86 0 129 73q22 36 22 87v400h119v-400z" />
    <glyph glyph-name="Udieresis" unicode="&#xdc;" horiz-adv-x="675" 
d="M608 270q0 -123 -76 -202.5t-194 -79.5t-194 79.5t-76 202.5v400h120v-400q0 -51 21 -87q44 -73 129 -73q86 0 129 73q22 36 22 87v400h119v-400zM157 776q0 28 20 48t48 20q27 0 46.5 -20t19.5 -48q0 -26 -19.5 -46t-46.5 -20q-28 0 -48 19.5t-20 46.5zM518 776
q0 -27 -20 -46.5t-48 -19.5q-27 0 -46.5 20t-19.5 46q0 28 19.5 48t46.5 20q28 0 48 -20t20 -48z" />
    <glyph glyph-name="Yacute" unicode="&#xdd;" horiz-adv-x="735" 
d="M710 670l-282 -397v-273h-120v273l-282 397h148l195 -273l193 273h148zM269 699l69 137h130l-122 -137h-77z" />
    <glyph glyph-name="Thorn" unicode="&#xde;" horiz-adv-x="665" 
d="M381 549h-192v121h-120v-670h120v142h188q66 0 115 28q103 60 103 177q0 126 -103 181q-49 21 -111 21zM475 347q0 -39 -26 -62t-70 -23h-190v167h190q44 0 70 -22.5t26 -59.5z" />
    <glyph glyph-name="germandbls" unicode="&#xdf;" horiz-adv-x="605" 
d="M554 209q0 -93 -76 -157t-189 -64h-54v122h61q62 0 100.5 26t38.5 68q-2 49 -36 74t-74 27h-90v120h86q30 0 55.5 19t25.5 47q0 31 -33 51t-85 20q-47 -2 -77.5 -31t-30.5 -71v-553l-125 -62v615q4 99 74 160t166 61q101 0 167 -53t66 -135q0 -85 -56 -125
q87 -56 86 -159z" />
    <glyph glyph-name="agrave" unicode="&#xe0;" 
d="M452 0h-113v21q-53 -30 -120 -30q-86 0 -131 48.5t-45 122.5q0 76 53.5 118t134.5 42q55 0 107 -15q-2 76 -83 81q-60 1 -118 -35l-56 89q90 59 176 59q83 0 139 -57t56 -148v-296zM339 119v82q-58 16 -102 16q-41 0 -64 -18t-23 -43q0 -26 22 -45t62 -19q45 0 105 27z
M270 523l-122 137h130l69 -137h-77z" />
    <glyph glyph-name="aacute" unicode="&#xe1;" 
d="M452 0h-113v21q-53 -30 -120 -30q-86 0 -131 48.5t-45 122.5q0 76 53.5 118t134.5 42q55 0 107 -15q-2 76 -83 81q-60 1 -118 -35l-56 89q90 59 176 59q83 0 139 -57t56 -148v-296zM339 119v82q-58 16 -102 16q-41 0 -64 -18t-23 -43q0 -26 22 -45t62 -19q45 0 105 27z
M148 523l69 137h130l-122 -137h-77z" />
    <glyph glyph-name="acircumflex" unicode="&#xe2;" 
d="M452 0h-113v21q-53 -30 -120 -30q-86 0 -131 48.5t-45 122.5q0 76 53.5 118t134.5 42q55 0 107 -15q-2 76 -83 81q-60 1 -118 -35l-56 89q90 59 176 59q83 0 139 -57t56 -148v-296zM339 119v82q-58 16 -102 16q-41 0 -64 -18t-23 -43q0 -26 22 -45t62 -19q45 0 105 27z
M322 527l-75 75l-75 -75h-78l97 137h112l98 -137h-79z" />
    <glyph glyph-name="atilde" unicode="&#xe3;" 
d="M452 0h-113v21q-53 -30 -120 -30q-86 0 -131 48.5t-45 122.5q0 76 53.5 118t134.5 42q55 0 107 -15q-2 76 -83 81q-60 1 -118 -35l-56 89q90 59 176 59q83 0 139 -57t56 -148v-296zM339 119v82q-58 16 -102 16q-41 0 -64 -18t-23 -43q0 -26 22 -45t62 -19q45 0 105 27z
M407 662q-3 -61 -35.5 -90.5t-72.5 -28.5q-12 1 -18 2t-16 4l-54 18q-8 2 -13.5 3t-16.5 1q-14 0 -24.5 -9.5t-17.5 -29.5h-52q3 59 31 88t67 29q12 -1 17 -2l15 -3l58 -19q10 -2 15 -2.5t16 -0.5q15 1 26 11t14 29h61z" />
    <glyph glyph-name="adieresis" unicode="&#xe4;" 
d="M452 0h-113v21q-53 -30 -120 -30q-86 0 -131 48.5t-45 122.5q0 76 53.5 118t134.5 42q55 0 107 -15q-2 76 -83 81q-60 1 -118 -35l-56 89q90 59 176 59q83 0 139 -57t56 -148v-296zM339 119v82q-58 16 -102 16q-41 0 -64 -18t-23 -43q0 -26 22 -45t62 -19q45 0 105 27z
M201 592q0 -27 -20 -46.5t-48 -19.5q-27 0 -46.5 20t-19.5 46q0 28 19.5 48t46.5 20q28 0 48 -20t20 -48zM428 592q0 -27 -20 -46.5t-48 -19.5q-27 0 -46.5 20t-19.5 46q0 28 19.5 48t46.5 20q28 0 48 -20t20 -48z" />
    <glyph glyph-name="aring" unicode="&#xe5;" 
d="M345 620h-36q1 25 -17.5 43t-44.5 18t-44.5 -17.5t-18.5 -43.5q0 -25 18.5 -43.5t44.5 -18.5t44.5 18.5t17.5 43.5h36q0 -40 -29 -69t-69 -29t-68.5 29t-28.5 69q0 41 28 69t69 28q39 0 68.5 -28.5t29.5 -68.5zM452 0h-113v21q-53 -30 -120 -30q-86 0 -131 48.5
t-45 122.5q0 76 53.5 118t134.5 42q55 0 107 -15q-2 76 -83 81q-60 1 -118 -35l-56 89q90 59 176 59q83 0 139 -57t56 -148v-296zM339 119v82q-58 16 -102 16q-41 0 -64 -18t-23 -43q0 -26 22 -45t62 -19q45 0 105 27z" />
    <glyph glyph-name="ae" unicode="&#xe6;" horiz-adv-x="795" 
d="M449 107q-78 -119 -233 -116q-86 0 -131 48.5t-45 122.5q0 76 53.5 118t134.5 42q55 0 107 -15q-2 76 -83 81q-60 1 -118 -35l-56 89q90 59 176 59q83 0 139 -57t56 -148v-189zM336 119v82q-58 16 -102 16q-41 0 -64 -18t-23 -43q0 -26 22 -45t62 -19q45 0 105 27z
M755 212h-299q4 -52 34.5 -80t62.5 -28q41 0 81 38l74 -74q-63 -75 -155 -75q-90 0 -152.5 73.5t-62.5 180.5q0 106 61 180t149 74q104 -1 155 -80t52 -174v-35zM632 302q-2 39 -27.5 64t-58.5 24q-37 1 -63.5 -25.5t-27.5 -62.5h177z" />
    <glyph glyph-name="ccedilla" unicode="&#xe7;" horiz-adv-x="474" 
d="M444 80q-74 -92 -181 -92q-101 0 -167 72.5t-66 183.5t66 184t167 73q107 0 181 -92l-71 -71q-47 44 -108 47q-53 0 -86.5 -39.5t-33.5 -101.5q0 -61 33.5 -101t86.5 -40q61 5 101 55zM160 -176v54q33 -9 63.5 -13.5t53.5 -4.5q19 0 28 7.5t9 23.5q0 12 -12 18t-40 6h-14
h-10v85h50v-32h9q47 0 74 -20t27 -58q0 -43 -29 -65t-84 -22q-25 0 -56 5.5t-69 15.5z" />
    <glyph glyph-name="egrave" unicode="&#xe8;" 
d="M456 207h-299q4 -52 34.5 -80t62.5 -28q41 0 81 38l74 -74q-63 -75 -155 -75q-90 0 -152.5 73.5t-62.5 180.5q0 106 61 180t149 74q104 -1 155 -80t52 -174v-35zM338 301q-2 39 -27.5 64t-58.5 24q-37 1 -63.5 -25.5t-27.5 -62.5h177zM270 523l-122 137h130l69 -137h-77z
" />
    <glyph glyph-name="eacute" unicode="&#xe9;" 
d="M456 207h-299q4 -52 34.5 -80t62.5 -28q41 0 81 38l74 -74q-63 -75 -155 -75q-90 0 -152.5 73.5t-62.5 180.5q0 106 61 180t149 74q104 -1 155 -80t52 -174v-35zM338 301q-2 39 -27.5 64t-58.5 24q-37 1 -63.5 -25.5t-27.5 -62.5h177zM148 523l69 137h130l-122 -137h-77z
" />
    <glyph glyph-name="ecircumflex" unicode="&#xea;" 
d="M456 207h-299q4 -52 34.5 -80t62.5 -28q41 0 81 38l74 -74q-63 -75 -155 -75q-90 0 -152.5 73.5t-62.5 180.5q0 106 61 180t149 74q104 -1 155 -80t52 -174v-35zM338 301q-2 39 -27.5 64t-58.5 24q-37 1 -63.5 -25.5t-27.5 -62.5h177zM322 527l-75 75l-75 -75h-78l97 137
h112l98 -137h-79z" />
    <glyph glyph-name="edieresis" unicode="&#xeb;" 
d="M456 207h-299q4 -52 34.5 -80t62.5 -28q41 0 81 38l74 -74q-63 -75 -155 -75q-90 0 -152.5 73.5t-62.5 180.5q0 106 61 180t149 74q104 -1 155 -80t52 -174v-35zM338 301q-2 39 -27.5 64t-58.5 24q-37 1 -63.5 -25.5t-27.5 -62.5h177zM201 592q0 -27 -20 -46.5t-48 -19.5
q-27 0 -46.5 20t-19.5 46q0 28 19.5 48t46.5 20q28 0 48 -20t20 -48zM428 592q0 -27 -20 -46.5t-48 -19.5q-27 0 -46.5 20t-19.5 46q0 28 19.5 48t46.5 20q28 0 48 -20t20 -48z" />
    <glyph glyph-name="igrave" unicode="&#xec;" horiz-adv-x="245" 
d="M145 523l-122 137h130l69 -137h-77zM183 489v-489h-120v489h120z" />
    <glyph glyph-name="iacute" unicode="&#xed;" horiz-adv-x="245" 
d="M23 523l69 137h130l-122 -137h-77zM183 489v-489h-120v489h120z" />
    <glyph glyph-name="icircumflex" unicode="&#xee;" horiz-adv-x="245" 
d="M197 527l-75 75l-75 -75h-78l97 137h112l98 -137h-79zM183 489v-489h-120v489h120z" />
    <glyph glyph-name="idieresis" unicode="&#xef;" horiz-adv-x="245" 
d="M76 592q0 -27 -20 -46.5t-48 -19.5q-27 0 -46.5 20t-19.5 46q0 28 19.5 48t46.5 20q28 0 48 -20t20 -48zM303 592q0 -27 -20 -46.5t-48 -19.5q-27 0 -46.5 20t-19.5 46q0 28 19.5 48t46.5 20q28 0 48 -20t20 -48zM183 489v-489h-120v489h120z" />
    <glyph glyph-name="eth" unicode="&#xf0;" 
d="M467 224q-1 -88 -58 -162t-161 -74q-94 0 -157 72.5t-62 163.5q0 95 56 160t132 69q27 0 56 -5q-47 81 -175 139l47 94q142 -54 232 -175.5t90 -281.5zM245 96q51 1 77 37.5t26 85.5q0 51 -28.5 87t-74.5 36q-49 0 -75 -36.5t-26 -86.5q0 -51 26 -87t75 -36zM55 518
l322 160l39 -79l-321 -161z" />
    <glyph glyph-name="ntilde" unicode="&#xf1;" 
d="M407 662q-3 -61 -35.5 -90.5t-72.5 -28.5q-12 1 -18 2t-16 4l-54 18q-8 2 -13.5 3t-16.5 1q-14 0 -24.5 -9.5t-17.5 -29.5h-52q3 59 31 88t67 29q12 -1 17 -2l15 -3l58 -19q10 -2 15 -2.5t16 -0.5q15 1 26 11t14 29h61zM42 486h113v-38q45 45 119 45q79 0 128.5 -54.5
t50.5 -141.5v-297h-120v291q0 39 -23.5 64t-63.5 25q-36 0 -63.5 -26.5t-27.5 -60.5v-293h-113v486z" />
    <glyph glyph-name="ograve" unicode="&#xf2;" 
d="M462 244q0 -106 -62.5 -181t-151.5 -75q-90 0 -152 75t-62 181q0 107 62 182t152 75q89 0 151.5 -75t62.5 -182zM346 244q0 60 -27 98.5t-70 38.5q-45 0 -72 -39t-27 -98t27 -98.5t72 -39.5q43 0 70 39.5t27 98.5zM270 523l-122 137h130l69 -137h-77z" />
    <glyph glyph-name="oacute" unicode="&#xf3;" 
d="M462 244q0 -106 -62.5 -181t-151.5 -75q-90 0 -152 75t-62 181q0 107 62 182t152 75q89 0 151.5 -75t62.5 -182zM346 244q0 60 -27 98.5t-70 38.5q-45 0 -72 -39t-27 -98t27 -98.5t72 -39.5q43 0 70 39.5t27 98.5zM148 523l69 137h130l-122 -137h-77z" />
    <glyph glyph-name="ocircumflex" unicode="&#xf4;" 
d="M462 244q0 -106 -62.5 -181t-151.5 -75q-90 0 -152 75t-62 181q0 107 62 182t152 75q89 0 151.5 -75t62.5 -182zM346 244q0 60 -27 98.5t-70 38.5q-45 0 -72 -39t-27 -98t27 -98.5t72 -39.5q43 0 70 39.5t27 98.5zM322 527l-75 75l-75 -75h-78l97 137h112l98 -137h-79z
" />
    <glyph glyph-name="otilde" unicode="&#xf5;" 
d="M462 244q0 -106 -62.5 -181t-151.5 -75q-90 0 -152 75t-62 181q0 107 62 182t152 75q89 0 151.5 -75t62.5 -182zM346 244q0 60 -27 98.5t-70 38.5q-45 0 -72 -39t-27 -98t27 -98.5t72 -39.5q43 0 70 39.5t27 98.5zM407 662q-3 -61 -35.5 -90.5t-72.5 -28.5q-12 1 -18 2
t-16 4l-54 18q-8 2 -13.5 3t-16.5 1q-14 0 -24.5 -9.5t-17.5 -29.5h-52q3 59 31 88t67 29q12 -1 17 -2l15 -3l58 -19q10 -2 15 -2.5t16 -0.5q15 1 26 11t14 29h61z" />
    <glyph glyph-name="odieresis" unicode="&#xf6;" 
d="M462 244q0 -106 -62.5 -181t-151.5 -75q-90 0 -152 75t-62 181q0 107 62 182t152 75q89 0 151.5 -75t62.5 -182zM346 244q0 60 -27 98.5t-70 38.5q-45 0 -72 -39t-27 -98t27 -98.5t72 -39.5q43 0 70 39.5t27 98.5zM201 592q0 -27 -20 -46.5t-48 -19.5q-27 0 -46.5 20
t-19.5 46q0 28 19.5 48t46.5 20q28 0 48 -20t20 -48zM428 592q0 -27 -20 -46.5t-48 -19.5q-27 0 -46.5 20t-19.5 46q0 28 19.5 48t46.5 20q28 0 48 -20t20 -48z" />
    <glyph glyph-name="divide" unicode="&#xf7;" horiz-adv-x="575" 
d="M288 284q22 0 39.5 -17t17.5 -41t-17.5 -41t-39.5 -17q-25 0 -42 17t-17 41t17 41t42 17zM58 415h460v-76h-460v76zM288 584q22 0 39.5 -16.5t17.5 -40.5t-17.5 -41t-39.5 -17q-25 0 -42 17t-17 41t17 40.5t42 16.5z" />
    <glyph glyph-name="oslash" unicode="&#xf8;" 
d="M485 501l-372 -513h-102l373 513h101zM346 244q0 60 -27 98.5t-70 38.5q-45 0 -72 -39t-27 -98t27 -98.5t72 -39.5q43 0 70 39.5t27 98.5zM462 244q0 -106 -62.5 -181t-151.5 -75q-90 0 -152 75t-62 181q0 107 62 182t152 75q89 0 151.5 -75t62.5 -182z" />
    <glyph glyph-name="ugrave" unicode="&#xf9;" 
d="M453 0h-113v38q-45 -45 -119 -45q-79 0 -128.5 54.5t-50.5 141.5v297h120v-291q0 -39 23.5 -64t63.5 -25q36 0 63.5 26.5t27.5 60.5v293h113v-486zM270 523l-122 137h130l69 -137h-77z" />
    <glyph glyph-name="uacute" unicode="&#xfa;" 
d="M148 523l69 137h130l-122 -137h-77zM453 0h-113v38q-45 -45 -119 -45q-79 0 -128.5 54.5t-50.5 141.5v297h120v-291q0 -39 23.5 -64t63.5 -25q36 0 63.5 26.5t27.5 60.5v293h113v-486z" />
    <glyph glyph-name="ucircumflex" unicode="&#xfb;" 
d="M322 527l-75 75l-75 -75h-78l97 137h112l98 -137h-79zM453 0h-113v38q-45 -45 -119 -45q-79 0 -128.5 54.5t-50.5 141.5v297h120v-291q0 -39 23.5 -64t63.5 -25q36 0 63.5 26.5t27.5 60.5v293h113v-486z" />
    <glyph glyph-name="udieresis" unicode="&#xfc;" 
d="M201 592q0 -27 -20 -46.5t-48 -19.5q-27 0 -46.5 20t-19.5 46q0 28 19.5 48t46.5 20q28 0 48 -20t20 -48zM428 592q0 -27 -20 -46.5t-48 -19.5q-27 0 -46.5 20t-19.5 46q0 28 19.5 48t46.5 20q28 0 48 -20t20 -48zM453 0h-113v38q-45 -45 -119 -45q-79 0 -128.5 54.5
t-50.5 141.5v297h120v-291q0 -39 23.5 -64t63.5 -25q36 0 63.5 26.5t27.5 60.5v293h113v-486z" />
    <glyph glyph-name="yacute" unicode="&#xfd;" horiz-adv-x="545" 
d="M173 523l69 137h130l-122 -137h-77zM530 489l-276 -731h-123l93 242l-209 489h122l144 -336l127 336h122z" />
    <glyph glyph-name="thorn" unicode="&#xfe;" horiz-adv-x="515" 
d="M463 242q0 -101 -50.5 -177.5t-151.5 -77.5q-52 1 -89 35v-203l-120 -61v863l120 60v-213q36 29 93 30q93 0 145.5 -78.5t52.5 -177.5zM354 244q0 61 -26.5 99t-74.5 38q-53 -3 -81 -46v-186q24 -41 79 -43q46 0 74.5 39.5t28.5 98.5z" />
    <glyph glyph-name="ydieresis" unicode="&#xff;" horiz-adv-x="545" 
d="M226 592q0 -27 -20 -46.5t-48 -19.5q-27 0 -46.5 20t-19.5 46q0 28 19.5 48t46.5 20q28 0 48 -20t20 -48zM453 592q0 -27 -20 -46.5t-48 -19.5q-27 0 -46.5 20t-19.5 46q0 28 19.5 48t46.5 20q28 0 48 -20t20 -48zM530 489l-276 -731h-123l93 242l-209 489h122l144 -336
l127 336h122z" />
    <glyph glyph-name="OE" unicode="&#x152;" horiz-adv-x="1055" 
d="M618 338q0 -157 -75.5 -253.5t-201.5 -96.5q-138 0 -216 111q-68 96 -68 237q0 160 76 252.5t208 92.5q124 0 200.5 -94.5t76.5 -248.5zM499 336q0 106 -41.5 166t-116.5 60q-76 0 -119 -60t-43 -166q0 -107 43 -167.5t119 -60.5q86 0 126 75q32 59 32 153zM999 0h-500
v670h489v-120h-367v-125h200v-122h-200v-183h378v-120z" />
    <glyph glyph-name="oe" unicode="&#x153;" horiz-adv-x="795" 
d="M464 244q0 -106 -62.5 -181t-151.5 -75q-90 0 -152 75t-62 181q0 107 62 182t152 75q89 0 151.5 -75t62.5 -182zM348 244q0 60 -27 98.5t-70 38.5q-45 0 -72 -39t-27 -98t27 -98.5t72 -39.5q43 0 70 39.5t27 98.5zM759 207h-299q4 -52 34.5 -80t62.5 -28q41 0 81 38
l74 -74q-63 -75 -155 -75q-90 0 -152.5 73.5t-62.5 180.5q0 106 61 180t149 74q104 -1 155 -80t52 -174v-35zM641 301q-2 39 -27.5 64t-58.5 24q-37 1 -63.5 -25.5t-27.5 -62.5h177z" />
    <glyph glyph-name="Scaron" unicode="&#x160;" horiz-adv-x="625" 
d="M466 836l-98 -137h-112l-97 137h78l75 -75l75 75h79zM576 195q-1 -89 -69.5 -148t-191.5 -59q-164 0 -267 138l100 68q68 -89 171 -91q64 -1 100.5 25t37.5 69q3 36 -29 59t-130 46q-137 32 -183.5 79t-47.5 110q-2 73 62.5 129.5t167.5 56.5q163 -8 250 -127l-95 -63
q-55 64 -155 72q-54 0 -82 -20t-26 -45q-1 -28 30 -46t89 -29q140 -26 203.5 -84.5t64.5 -139.5z" />
    <glyph glyph-name="scaron" unicode="&#x161;" horiz-adv-x="475" 
d="M391 664l-98 -137h-112l-97 137h78l75 -75l75 75h79zM446 139q-1 -66 -56 -107.5t-144 -42.5q-119 2 -218 58l54 104q85 -49 161 -50q49 0 67.5 12t18.5 33q0 22 -18 33t-73 21q-110 19 -148.5 58.5t-37.5 84.5q-1 64 50 109.5t138 45.5q98 0 188 -53l-49 -97
q-62 35 -136 39q-44 -1 -59 -10.5t-15 -25.5q-1 -16 14.5 -24t59.5 -14q104 -13 153 -56.5t50 -117.5z" />
    <glyph glyph-name="Ydieresis" unicode="&#x178;" horiz-adv-x="735" 
d="M548 776q0 -27 -20 -46.5t-48 -19.5q-27 0 -46.5 20t-19.5 46q0 28 19.5 48t46.5 20q28 0 48 -20t20 -48zM321 776q0 -27 -20 -46.5t-48 -19.5q-27 0 -46.5 20t-19.5 46q0 28 19.5 48t46.5 20q28 0 48 -20t20 -48zM710 670l-282 -397v-273h-120v273l-282 397h148
l195 -273l193 273h148z" />
    <glyph glyph-name="Zcaron" unicode="&#x17d;" horiz-adv-x="625" 
d="M575 0h-526v136l381 416h-360v118h505v-137l-378 -413h378v-120zM466 836l-98 -137h-112l-97 137h78l75 -75l75 75h79z" />
    <glyph glyph-name="zcaron" unicode="&#x17e;" horiz-adv-x="475" 
d="M450 0h-425v106l240 265h-228v118h413v-107l-255 -267h255v-115zM391 664l-98 -137h-112l-97 137h78l75 -75l75 75h79z" />
    <glyph glyph-name="florin" unicode="&#x192;" horiz-adv-x="303" 
d="M279 371h-73v-554l-118 -59v613h-63v115h63v62q0 53 30 87.5t90 34.5q33 0 71 -16v-98q-19 6 -40 7q-34 0 -33 -37v-40h73v-115z" />
    <glyph glyph-name="circumflex" unicode="&#x2c6;" horiz-adv-x="345" 
d="M247 533l-75 75l-75 -75h-78l97 137h112l98 -137h-79z" />
    <glyph glyph-name="tilde" unicode="&#x2dc;" horiz-adv-x="355" 
d="M338 670q-3 -61 -35.5 -90.5t-72.5 -28.5q-12 1 -18 2t-16 4l-54 18q-8 2 -13.5 3t-16.5 1q-14 0 -24.5 -9.5t-17.5 -29.5h-52q3 59 31 88t67 29q12 -1 17 -2l15 -3l58 -19q10 -2 15 -2.5t16 -0.5q15 1 26 11t14 29h61z" />
    <glyph glyph-name="endash" unicode="&#x2013;" horiz-adv-x="555" 
d="M527 282h-500v120h500v-120z" />
    <glyph glyph-name="emdash" unicode="&#x2014;" horiz-adv-x="1055" 
d="M1027 282h-1000v120h1000v-120z" />
    <glyph glyph-name="quoteleft" unicode="&#x2018;" horiz-adv-x="235" 
d="M50 504q1 54 31.5 102t88.5 64v-21q-47 -24 -59 -79h7q27 0 46.5 -20t19.5 -46q0 -28 -19.5 -48t-46.5 -20q-28 0 -48 20t-20 48z" />
    <glyph glyph-name="quoteright" unicode="&#x2019;" horiz-adv-x="235" 
d="M184 602q-1 -54 -31.5 -102t-88.5 -64v21q47 24 59 79h-7q-27 0 -46.5 20t-19.5 46q0 28 19.5 48t46.5 20q28 0 48 -20t20 -48z" />
    <glyph glyph-name="quotedblleft" unicode="&#x201c;" horiz-adv-x="445" 
d="M49 504q1 54 31.5 102t88.5 64v-21q-47 -24 -59 -79h7q27 0 46.5 -20t19.5 -46q0 -28 -19.5 -48t-46.5 -20q-28 0 -48 20t-20 48zM263 504q1 54 31.5 102t88.5 64v-21q-47 -24 -59 -79h7q27 0 46.5 -20t19.5 -46q0 -28 -19.5 -48t-46.5 -20q-28 0 -48 20t-20 48z" />
    <glyph glyph-name="quotedblright" unicode="&#x201d;" horiz-adv-x="445" 
d="M397 602q-1 -54 -31.5 -102t-88.5 -64v21q47 24 59 79h-7q-27 0 -46.5 20t-19.5 46q0 28 19.5 48t46.5 20q28 0 48 -20t20 -48zM183 602q-1 -54 -31.5 -102t-88.5 -64v21q47 24 59 79h-7q-27 0 -46.5 20t-19.5 46q0 28 19.5 48t46.5 20q28 0 48 -20t20 -48z" />
    <glyph glyph-name="quotedblbase" unicode="&#x201e;" horiz-adv-x="445" 
d="M397 54q-1 -54 -31.5 -102t-88.5 -64v21q47 24 59 79h-7q-27 0 -46.5 20t-19.5 46q0 28 19.5 48t46.5 20q28 0 48 -20t20 -48zM183 54q-1 -54 -31.5 -102t-88.5 -64v21q47 24 59 79h-7q-27 0 -46.5 20t-19.5 46q0 28 19.5 48t46.5 20q28 0 48 -20t20 -48z" />
    <glyph glyph-name="dagger" unicode="&#x2020;" horiz-adv-x="455" 
d="M245 445v-553h-39v553h-168v45h168v201h39v-201h171v-45h-171z" />
    <glyph glyph-name="daggerdbl" unicode="&#x2021;" horiz-adv-x="455" 
d="M245 445v-303h171v-46h-171v-204h-39v204h-168v45h168v304h-168v45h168v201h39v-201h171v-45h-171z" />
    <glyph glyph-name="bullet" unicode="&#x2022;" horiz-adv-x="625" 
d="M565 303q0 -107 -73.5 -180t-179.5 -73q-105 0 -178.5 74t-73.5 179q0 106 73 179t179 73q105 0 179 -73t74 -179z" />
    <glyph glyph-name="ellipsis" unicode="&#x2026;" horiz-adv-x="805" 
d="M469 54q0 -27 -20 -46.5t-48 -19.5q-27 0 -46.5 20t-19.5 46q0 28 19.5 48t46.5 20q28 0 48 -20t20 -48zM755 54q0 -27 -20 -46.5t-48 -19.5q-27 0 -46.5 20t-19.5 46q0 28 19.5 48t46.5 20q28 0 48 -20t20 -48zM184 54q0 -27 -20 -46.5t-48 -19.5q-27 0 -46.5 20
t-19.5 46q0 28 19.5 48t46.5 20q28 0 48 -20t20 -48z" />
    <glyph glyph-name="perthousand" unicode="&#x2030;" horiz-adv-x="705" 
d="M675 98h-36q1 25 -17.5 43t-44.5 18t-44.5 -17.5t-18.5 -43.5q0 -25 18.5 -43.5t44.5 -18.5t44.5 18.5t17.5 43.5h36q0 -40 -29 -69t-69 -29t-68.5 29t-28.5 69q0 41 28 69t69 28q39 0 68.5 -28.5t29.5 -68.5zM238 573h-36q1 25 -17.5 43t-44.5 18t-44.5 -17.5
t-18.5 -43.5q0 -25 18.5 -43.5t44.5 -18.5t44.5 18.5t17.5 43.5h36q0 -40 -29 -69t-69 -29t-68.5 29t-28.5 69q0 41 28 69t69 28q39 0 68.5 -28.5t29.5 -68.5zM456 670l-383 -670h-44l384 670h43zM439 98h-36q1 25 -17.5 43t-44.5 18t-44.5 -17.5t-18.5 -43.5
q0 -25 18.5 -43.5t44.5 -18.5t44.5 18.5t17.5 43.5h36q0 -40 -29 -69t-69 -29t-68.5 29t-28.5 69q0 41 28 69t69 28q39 0 68.5 -28.5t29.5 -68.5z" />
    <glyph glyph-name="guilsinglleft" unicode="&#x2039;" horiz-adv-x="275" 
d="M255 501l-116 -205l116 -205h-117l-117 205l117 205h117z" />
    <glyph glyph-name="guilsinglright" unicode="&#x203a;" horiz-adv-x="275" 
d="M138 501l117 -205l-117 -205h-117l116 205l-116 205h117z" />
    <glyph glyph-name="Euro" unicode="&#x20ac;" horiz-adv-x="675" 
d="M394 366h-343v59h343v-59zM394 247h-343v59h343v-59zM624 136q-93 -148 -259 -148q-131 0 -207.5 95t-76.5 253q0 159 76 252t208 93q167 0 259 -148l-109 -54q-52 80 -150 83q-76 -2 -119 -67.5t-43 -156.5q0 -108 44.5 -167.5t119.5 -59.5q100 1 145 81z" />
    <glyph glyph-name="trademark" unicode="&#x2122;" horiz-adv-x="735" 
d="M292 602h-94v-277h-67v277h-94v68h255v-68zM697 325h-72v187l-96 -187l-99 187v-187h-71v345h71l99 -189l96 189h72v-345z" />
    <glyph glyph-name="NULL" horiz-adv-x="0" 
 />
  </font>
</defs>
</svg>
