<?xml version="1.0" standalone="no"?>
<!DOCTYPE svg PUBLIC "-//W3C//DTD SVG 1.1//EN" "http://www.w3.org/Graphics/SVG/1.1/DTD/svg11.dtd" >
<svg xmlns="http://www.w3.org/2000/svg">
<metadata></metadata>
<defs>
<font id="roadgeek_2005_old_parksRg" horiz-adv-x="1169" >
<font-face units-per-em="2048" ascent="1638" descent="-410" />
<missing-glyph horiz-adv-x="569" />
<glyph horiz-adv-x="0" />
<glyph horiz-adv-x="682" />
<glyph unicode=" "  horiz-adv-x="569" />
<glyph unicode="&#x09;" horiz-adv-x="569" />
<glyph unicode="&#xa0;" horiz-adv-x="569" />
<glyph unicode="!" horiz-adv-x="583" d="M115 1212q0 87 49 140t133 53q76 0 122 -51.5t46 -139.5v-18q-2 -9 -3 -29t-3 -32l-92 -715h-146l-100 719q0 1 -3 30t-3 43zM121 156q0 69 50.5 121.5t123.5 52.5v4q73 -9 123.5 -58.5t50.5 -119.5q0 -74 -51 -122t-123 -48q-75 0 -124.5 49t-49.5 121z" />
<glyph unicode="&#x22;" horiz-adv-x="868" d="M94 1366h295l-49 -549h-197zM479 1366h295l-51 -549h-195z" />
<glyph unicode="#" horiz-adv-x="1228" d="M12 373l37 239h207l27 170h-205l37 238h204l58 346h268l-55 -346h174l55 346h273l-56 -346h205l-37 -238h-205l-26 -170h207l-37 -239h-207l-59 -373h-275l62 373h-175l-59 -373h-270l59 373h-207zM526 612h174l27 170h-174z" />
<glyph unicode="$" d="M88 303q0 73 50 124.5t124 51.5q60 0 100.5 -41.5t40.5 -109.5q0 -46 -23.5 -75.5t-74.5 -53.5q48 -36 94.5 -49t128.5 -13q142 0 215.5 49.5t73.5 143.5q0 80 -90 130.5t-221 67.5l-25 7q-62 13 -111 28.5t-103.5 46.5t-90.5 71t-60 103.5t-24 143.5q0 176 107 285 t301 137v168h147v-164q188 -12 290.5 -96t102.5 -224q0 -71 -44.5 -118.5t-110.5 -47.5q-65 0 -108.5 38.5t-43.5 105.5q0 44 20 73.5t62 55.5q-102 57 -217 57q-127 0 -198.5 -49t-71.5 -135q0 -30 77 -85t187 -119t220.5 -132.5t187.5 -142.5t77 -132 q0 -173 -114.5 -282.5t-315.5 -134.5v-201h-147v201q-180 0 -296 86.5t-116 230.5z" />
<glyph unicode="%" horiz-adv-x="1492" d="M68 1006v8v12q0 60 5 106t21 93t43 77.5t74 50t111 19.5q125 0 184 -83.5t59 -266.5q0 -50 -2.5 -86t-10 -80.5t-25 -75t-44 -58t-70 -41t-100.5 -13.5q-63 0 -109 21t-71.5 52.5t-40.5 79t-19.5 90t-4.5 95.5zM242 1028l4 -129q0 -63 18.5 -96t50.5 -33q67 0 74 121v151 q0 141 -15 189.5t-61 48.5q-69 0 -69 -117zM303 0l756 1366h137l-756 -1366h-137zM928 334v2v8q0 60 4.5 105t20 93t42.5 78.5t74.5 50t112.5 19.5q125 0 184 -83.5t59 -266.5v-6q0 -43 -1 -71.5t-6.5 -68.5t-15 -66t-28 -54.5t-44.5 -45t-66 -27.5t-90 -11q-64 0 -111 20.5 t-72.5 51t-40 79t-18.5 91.5t-4 102zM1102 346l2 -129q0 -62 20.5 -95.5t49.5 -33.5q38 0 55 31t20 88v153q0 142 -15 190t-60 48q-67 0 -70 -119z" />
<glyph unicode="&#x26;" horiz-adv-x="1687" d="M68 375q0 158 104 248q108 95 234 147q-8 16 -25 51t-25 53q-3 8 -8 25t-8 25q-6 14 -10 47q-4 20 -4 33v32q0 136 102 224q111 88 262 88q132 0 217 -82q86 -83 86 -211q0 -94 -63 -172q-67 -79 -195 -142q44 -70 133 -190q63 -84 156 -174l18 24q2 2 9 12.5t12 16.5 q38 54 51 98q21 50 21 82q0 33 -21 45q-23 13 -74 13l-49 4v168h590v-168h-43q-12 -2 -40.5 -6t-41.5 -7q-30 -3 -57 -30q-23 -23 -43 -56q-7 -11 -14.5 -24t-19 -32.5t-19.5 -33.5q-21 -38 -33 -57q-1 -2 -13.5 -21t-17.5 -28q-3 -4 -8 -12.5t-8 -12.5q-10 -10 -19 -22 q-10 -16 -37 -43l-12 -13q-4 -4 -4 -6l-6 -6q28 -33 74 -57q51 -19 84 -19q69 0 96 58q31 53 31 178v55h176l-2 -26v-21v-16q-3 -158 -70 -295q-63 -131 -266 -131q-94 0 -176 24q-74 23 -146 82q-85 -63 -178 -90q-113 -24 -223 -24q-212 0 -342 110q-135 114 -135 285z M354 438q0 -115 88 -200q86 -86 201 -86q56 0 94 14q26 8 78 45q-90 86 -178 201q-87 113 -156 221v4q-64 -40 -96 -86q-31 -57 -31 -113zM567 1057q0 -9 4 -25q6 -28 11 -37q1 -9 14 -39q41 -74 53 -92v4q83 41 119 88q37 49 37 111q0 60 -33 96q-27 37 -86 37 q-51 0 -86 -35q-33 -33 -33 -84v-24z" />
<glyph unicode="'" horiz-adv-x="583" d="M143 1366h295l-49 -549h-196z" />
<glyph unicode="(" horiz-adv-x="747" d="M98 475q0 395 150 629q147 231 459 317v4v-159q-8 -6 -48 -29q-4 -3 -17 -11.5t-21 -11.5q-8 -7 -27 -22t-27 -23q-27 -27 -43 -53q-1 -1 -3 -4t-3 -4q-4 -4 -4 -8q-53 -86 -80 -242q-26 -150 -26 -360q0 -363 67 -545q71 -182 232 -234v-161q-309 83 -457 311 q-152 228 -152 606z" />
<glyph unicode=")" horiz-adv-x="747" d="M41 -281q165 55 229 234q70 174 70 545q0 192 -29 360q-27 156 -80 242q-1 1 -3 4t-3 4q0 1 -1 3t-1 3q-2 0 -2 4q-8 13 -43 53q-33 33 -90 66q-21 12 -47 25v163q316 -96 459 -321q149 -237 149 -629q0 -379 -151 -606q-147 -227 -457 -311v161z" />
<glyph unicode="*" horiz-adv-x="944" d="M94 1092v4q0 37 31 80q33 36 74 36q37 0 65 -22q26 -16 55 -45q3 -3 7.5 -8.5t7.5 -8.5q1 -3 6 -7t6 -7q10 -13 29 -24q3 -1 8 -5.5t8 -5.5q6 -2 19 -2q6 0 10 4q4 12 4 17v8v4q-2 0 -2 4q-1 10 -14 39q-1 2 -5.5 9.5t-5.5 11.5q-3 3 -6 9.5t-6 10.5q-12 19 -27 53 q-12 27 -12 60q0 44 35 69q37 29 86 29q55 0 92 -29q33 -26 33 -73q0 -32 -12 -56q-1 -4 -6.5 -12t-6.5 -12q-3 -4 -7 -12.5t-7 -12.5v-2l-4 -4q-4 -15 -12 -23q-3 -10 -13 -24q-10 -20 -10 -49q0 -13 2 -19q6 -6 12 -6h4q3 0 5 2q21 3 43 25l45 45q16 16 26 24q4 3 29 23 q36 22 68 22q45 0 71 -36q31 -34 31 -89q0 -51 -33 -77q-37 -29 -88 -29q-53 0 -67 2t-33 8h-8q-7 0 -13 6h-6q-6 0 -8 2h-10q-21 0 -27 -6q-8 -3 -8 -14q0 -15 10 -25q3 -1 7 -5t7 -5q3 -3 8.5 -6t8.5 -6q2 -1 6.5 -3.5t7.5 -2.5q5 -5 14 -8q5 -3 16.5 -8.5t16.5 -8.5 q41 -23 68 -47q33 -26 33 -68q0 -43 -41 -81q-38 -35 -90 -35q-48 0 -82 51q-33 65 -41 153q-3 27 -11 37q-4 15 -20 15q-6 0 -16 -13q0 -2 -5 -14t-6 -20q-15 -109 -49 -158t-88 -49q-49 0 -86 37q-35 35 -35 88v8q0 2 2 4v6q3 16 15 31q4 4 14.5 13.5t15.5 14.5 q29 27 95 54q16 9 26 12q3 1 6 4t6 4q5 0 11 6l12 13q0 3 2 7t2 7q0 9 -10 12q-6 6 -25 6h-16q-8 -2 -19 -2q-5 -1 -16 -3t-16 -3q-3 0 -8.5 -1t-8.5 -1q-16 -4 -18 -4q-3 0 -8 -1t-8 -1h-19q-55 0 -92 29q-31 31 -31 80z" />
<glyph unicode="+" d="M188 580v204h289v308h213v-308h291v-204h-291v-308h-213v308h-289z" />
<glyph unicode="," horiz-adv-x="583" d="M92 139q0 70 53 117t129 47q88 0 146 -70q59 -71 59 -172q0 -147 -102 -258q-104 -113 -250 -125v123q89 16 141 74q55 55 58 125q-20 0 -50 -10h-16q-6 0 -8 -2h-8q-72 0 -111 39q-41 41 -41 112z" />
<glyph unicode="-" horiz-adv-x="595" d="M20 371v256h555v-256h-555z" />
<glyph unicode="." horiz-adv-x="555" d="M102 156q0 71 52 123q51 51 122 51v4q75 -10 123 -55q52 -55 52 -123q0 -71 -52 -123q-50 -47 -123 -47q-75 0 -122 47q-52 49 -52 123z" />
<glyph unicode="/" horiz-adv-x="808" d="M41 -410l469 1776h258l-469 -1776h-258z" />
<glyph unicode="0" d="M94 682v4q0 347 117 510q122 162 377 162q248 0 368 -156q119 -155 119 -487v-39q-2 -14 -2 -43q0 -7 -1 -21.5t-1 -21.5q-4 -32 -4 -45q-1 -8 -2.5 -21t-2.5 -24t-1 -21q-1 -6 -4 -27t-4 -34q-10 -70 -17 -105q-38 -167 -155 -250q-119 -83 -308 -83q-246 0 -362 167 q-117 177 -117 535zM418 655q0 -209 12 -303q12 -92 45 -147q15 -27 44.5 -43.5t62.5 -16.5q73 0 112 54q36 50 45 178q4 43 9 168q4 102 4 139q0 287 -35 397q-37 107 -129 107q-98 0 -133 -103q-34 -101 -37 -405v4v-29z" />
<glyph unicode="1" d="M217 0v170h139q6 -2 17 -2q44 0 69 18q25 22 25 74v664h-250v172q0 -4 4 -4h4q6 0 8 2h11q140 15 211 63q75 53 114 182l207 4v-1079q0 -56 25 -78q23 -20 86 -20l149 4v-170h-819z" />
<glyph unicode="2" d="M61 975q0 111 76 209q71 96 193 139q57 17 110 25q68 10 131 10q214 0 340 -111q131 -110 131 -289q0 -210 -124 -299q-135 -97 -277 -153l-6 -4q-4 -4 -8 -4q-4 -4 -13 -4q-9 -4 -28.5 -12.5t-28.5 -12.5q-15 -8 -57 -27q-78 -40 -105 -59q-24 -17 -37 -25 q-4 -3 -12.5 -9t-11.5 -9q-13 -13 -25 -33q-3 -6 -7.5 -22.5t-6.5 -22.5q43 26 63 35q29 13 58 16q4 0 10 2h10q7 0 13 2h10q49 0 90 -12l45 -12l45 -12q8 -3 23 -7.5t22 -7.5q22 -3 43 -12q39 -10 92 -10q47 0 74 37q27 42 27 104v84h159v-131q0 -178 -67 -268 q-66 -90 -193 -90q-74 0 -141 20q-52 12 -131 43q-103 40 -115 45q-58 23 -96 23q-46 0 -62 -25q-15 -24 -18 -86h-178v14v15q-2 2 -2 8v6v10q0 73 18 176q23 92 53 142q43 74 111 125q43 32 148 100q10 10 18 12q10 10 18 13q109 62 185 135q80 71 80 190q0 101 -68 160 q-64 61 -174 61q-91 0 -137 -30q-55 -28 -70 -88q15 3 27 6q6 0 8 2h8q61 0 98 -43q41 -41 41 -107t-51 -114q-51 -45 -133 -45q-89 0 -141 61q-54 63 -54 166z" />
<glyph unicode="3" d="M70 309q0 93 59 152q58 61 143 61q66 0 115 -49t49 -119q0 -36 -10 -63t-33 -47q-9 -10 -14 -11q-1 -3 -6.5 -6.5t-7.5 -5.5q-3 -1 -8.5 -5t-8.5 -5q-3 -3 -9 -6t-9 -6q8 -4 18 -12t14 -11q5 -5 15.5 -9.5t13.5 -6.5q25 -11 41 -13q14 -2 53 -2q111 0 179 68 q63 72 63 188q0 139 -90 174q-85 33 -207 33v4v170q4 -4 6 -4h17q99 0 186 35q86 35 86 158q0 92 -63 155q-62 62 -164 62q-21 0 -49 -4q-30 -4 -39 -8q-3 -1 -6 -2.5t-5.5 -3t-3.5 -1.5q-3 -1 -7 -4t-7 -4q-24 -14 -31 -20q3 -1 7.5 -4t7.5 -4q1 -1 6 -4.5t6 -4.5 q2 -1 5.5 -3.5t6.5 -2.5q1 -1 5 -4t5 -4l23 -23q13 -13 16 -24q13 -26 13 -64q0 -68 -48 -116q-48 -45 -122 -45q-84 0 -134 53q-51 57 -51 145q0 144 131 232q134 90 338 90q209 0 346 -96q136 -95 136 -246q0 -108 -62 -185q-65 -80 -176 -118q134 -37 195 -115 q69 -81 69 -201q0 -184 -151 -305q-147 -112 -396 -112q-209 0 -331 88q-125 88 -125 241z" />
<glyph unicode="4" d="M98 358v199l578 786h252v-802h170v-183h-170v-94q0 -57 24 -78q23 -20 86 -20l60 4v-170h-674v170h94q6 -2 17 -2q44 0 69 18q25 22 25 74v98h-531zM305 541h324v450z" />
<glyph unicode="5" d="M109 307q0 103 51 154q51 57 143 57q70 0 117 -47q45 -48 45 -121q0 -46 -27 -88q-24 -37 -82 -61q4 -3 17.5 -10.5t19.5 -10.5q5 -3 15.5 -7t15.5 -7q5 -1 18 -4.5t21 -3.5q14 -2 47 -2q113 0 174 73t61 220q0 132 -59 206q-62 74 -166 74q-63 0 -98 -18 q-40 -15 -66 -56l-192 15l57 688l47 12q88 -31 228 -57q90 -14 112 -15q70 -4 111 -4q87 0 139 9q59 9 109 32q4 3 14 8l14 7q5 3 15.5 8t15.5 8l55 -41q-6 -10 -32 -47q-5 -7 -16.5 -19.5t-16.5 -19.5q-78 -84 -172 -133q-94 -43 -234 -43q-17 0 -36 1t-42 2.5t-36 2.5 q-19 3 -57.5 8t-57.5 8l-25 -215q14 3 38 10.5t34 10.5q59 15 66 16l49 6q16 0 26 2h29q221 0 356 -120q136 -124 136 -324q0 -215 -148 -354q-146 -137 -371 -137q-204 0 -335 88q-127 89 -127 239z" />
<glyph unicode="6" d="M82 602q0 297 113 526q114 230 460 230q178 0 281 -74q104 -71 104 -197q0 -77 -47 -124q-50 -50 -123 -50q-75 0 -120 39q-45 36 -45 105q0 38 14 61q1 2 8 11.5t12 15.5q28 28 35 33q-16 4 -22 6q-5 0 -17 4q-6 0 -8 2h-31q-151 0 -223 -96q-71 -95 -74 -308v5 q30 12 66 32q5 3 15.5 7.5t15.5 7.5q3 1 13 5t15 5q14 5 56 10q36 4 61 4q204 0 315 -117q117 -111 117 -315q0 -198 -137 -326q-136 -124 -350 -124q-253 0 -377 153q-127 157 -127 469zM406 428v4q0 -143 47 -213q47 -74 129 -74t123 74q45 71 45 209q0 116 -45 184 q-47 72 -117 72q-85 0 -133 -68q-49 -64 -49 -188z" />
<glyph unicode="7" d="M137 813v530h170v-67q9 5 27.5 18.5t27.5 18.5q9 7 56 28q24 10 43 13q28 4 47 4q53 0 98 -19q18 -6 52 -22t42 -19q8 -4 95 -41q56 -18 98 -18q47 0 47 70v6q0 6 2 8v16l174 4q0 -194 -59 -321q-59 -128 -133 -242q-2 -7 -13 -18q-4 -4 -4 -8q-1 -1 -3 -4.5t-3 -4.5 q-79 -130 -147 -272q-68 -155 -68 -377v-35q0 -12 2 -14v-16q0 -11 4 -31h-313v16q-2 6 -2 17v37v22q0 256 78 397q86 140 184 250l37 37q27 27 37 41q41 41 94 111q48 60 88 133q-36 -18 -43 -21t-19.5 -7t-19.5 -7q-5 -1 -19 -4.5t-22 -3.5q-14 -2 -43 -2q-50 0 -84 10 q-20 4 -78 23q-23 9 -47 12q-24 9 -45 12q-15 0 -31 4q-12 0 -14 2h-16q-61 0 -82 -30q-25 -28 -25 -101v-135h-170z" />
<glyph unicode="8" d="M86 354q0 80 27 138q22 48 96 108q3 3 8 7t8 7q3 1 9.5 6.5t9.5 6.5q16 9 43 26v4q-13 5 -47 29q-14 10 -37 33q-55 52 -80 106q-23 56 -23 133q0 179 136 291q136 109 362 109q189 0 311 -90q121 -89 121 -234q0 -76 -26 -139q-32 -63 -95 -107q-6 -2 -16 -12 q-9 -2 -19 -12q-3 -1 -9 -5t-9 -5q-3 -3 -9 -6.5t-9 -6.5q121 -53 182 -135q61 -85 61 -198q0 -195 -139 -316q-136 -112 -373 -112q-241 0 -358 94q-125 98 -125 280zM309 360q0 -106 72 -163q70 -58 203 -58q107 0 168 47q67 44 67 119q0 73 -67 123q-55 45 -150 88 q-27 14 -86 33q-20 6 -72 24v5q-32 -23 -61 -52q-31 -35 -41 -51q-33 -47 -33 -115zM346 1034q0 -32 12 -53q11 -23 48 -45q3 -1 9 -5t9 -5q4 -3 11 -6.5t11 -6.5q9 -5 29.5 -13t26.5 -11q14 -3 28 -12q14 -3 31 -13q6 -2 12 -8q12 -4 17 -4q27 -15 88 -37v4q65 38 102 90 q33 47 33 101q0 79 -65 129q-64 49 -168 49q-113 0 -170 -43q-64 -40 -64 -111z" />
<glyph unicode="9" d="M96 907q0 198 135 324q136 127 349 127q243 0 372 -166q133 -165 133 -467q0 -360 -147 -553q-144 -192 -418 -192q-177 0 -278 69q-105 76 -105 193q0 71 49 120q50 50 123 50q72 0 109 -43q45 -39 45 -105q0 -26 -8 -45q-1 -8 -23 -39q-6 -6 -6 -10l-8 -8 q-3 -3 -9.5 -8.5t-9.5 -8.5q8 -1 19.5 -5t15.5 -5q16 -4 29 -4h20q135 0 205 102q73 106 76 312v4q-34 -27 -51 -35q-13 -3 -25 -12q-6 -1 -14.5 -4t-11.5 -4q-5 -3 -18.5 -7.5t-18.5 -7.5q-7 -1 -19.5 -4t-19.5 -4q-75 -6 -80 -6q-196 0 -305 127q-105 136 -105 315z M410 918v4q0 -133 49 -209t131 -76q76 0 125 68q47 71 47 192q0 139 -49 215q-51 76 -133 76q-78 0 -125 -74q-45 -71 -45 -196z" />
<glyph unicode=":" horiz-adv-x="555" d="M102 156q0 71 52 123q51 51 122 51v4q75 -10 123 -55q52 -55 52 -123q0 -71 -52 -123q-50 -47 -123 -47q-75 0 -122 47q-52 49 -52 123zM102 811q0 71 52 123q51 51 122 51v4q75 -10 123 -55q52 -55 52 -123q0 -71 -52 -123q-51 -51 -123 -51q-74 0 -122 51 q-52 49 -52 123z" />
<glyph unicode=";" horiz-adv-x="583" d="M92 139q0 70 53 117t129 47q88 0 146 -70q59 -71 59 -172q0 -147 -102 -258q-104 -113 -250 -125v123q89 16 141 74q55 55 58 125q-20 0 -50 -10h-16q-6 0 -8 -2h-8q-72 0 -111 39q-41 41 -41 112zM92 811q0 72 51 123t123 51v4q75 -10 123 -55q51 -54 51 -123 q0 -72 -51 -123t-123 -51q-75 0 -123 51q-51 48 -51 123z" />
<glyph unicode="&#x3c;" horiz-adv-x="1024" d="M68 571v224l886 452v-264l-606 -301l606 -301v-262z" />
<glyph unicode="=" d="M188 412v198h793v-198h-793zM188 754v198h793v-198h-793z" />
<glyph unicode="&#x3e;" horiz-adv-x="1024" d="M68 119v264l606 301l-606 301v262l886 -452v-224z" />
<glyph unicode="?" horiz-adv-x="1120" d="M55 1018q0 178 138 280q137 107 370 107q213 0 344 -107q131 -101 131 -276q0 -127 -65 -201q-60 -68 -142 -131q-1 -1 -5 -4t-5 -4q-3 -1 -6 -4t-6 -4q-16 -12 -21 -17q-61 -45 -114 -104q-49 -52 -49 -135v4h-185q-2 2 -2 16v17v6q0 83 43 151q69 96 94 125q0 1 5 6 l4 5q0 2 4 6l4 4q63 79 84 112q37 58 37 131q0 96 -70 154q-65 59 -178 59q-94 0 -143 -32q-55 -28 -64 -92q4 0 6 2h12q76 0 117 -41q43 -37 43 -111q0 -68 -53 -115q-56 -43 -135 -43t-139 66q-54 73 -54 170zM358 156q0 71 52 123q51 51 122 51v4q75 -10 123 -55 q52 -55 52 -123q0 -71 -52 -123q-50 -47 -123 -47q-75 0 -122 47q-52 49 -52 123z" />
<glyph unicode="@" horiz-adv-x="1501" d="M61 682q0 292 211 500q214 211 508 211q286 0 473 -172q187 -175 187 -437q0 -186 -103 -331q-102 -144 -237 -144q-50 0 -103 31q-47 40 -57 80q-39 -59 -111 -94q-60 -35 -145 -35q-123 0 -209 92q-84 93 -84 231q0 170 109 291q111 123 262 123h20q35 -2 99 -33 q48 -26 73 -65l15 80h184l-76 -392q-2 -13 -5 -27.5t-4.5 -23t-2.5 -14.5q-2 -10 -2 -29q0 -28 12 -49q13 -16 35 -16q48 0 86 53q34 51 55 117q18 70 19 82q8 36 8 63q0 206 -133 330q-135 123 -359 123q-223 0 -385 -162q-161 -161 -161 -385q0 -261 151 -406 q149 -143 408 -143h37q5 0 17 1t17 1q14 0 39.5 3t30.5 3q58 9 111 21q53 11 118 33l43 -162q-70 -27 -198 -45q-126 -17 -221 -17q-327 0 -531 195q-201 198 -201 518zM602 621q0 -65 37 -105q36 -39 94 -39q72 0 113 53q42 47 55 117q0 3 1 7.5t1 7.5q2 2 2 12q0 8 2 14 v19q-3 56 -39 92q-37 37 -90 37q-70 0 -125 -64q-51 -63 -51 -151z" />
<glyph unicode="A" horiz-adv-x="1722" d="M35 0v172q2 -2 10 -2h10q66 0 109 16q43 19 82 99q15 36 16 37l4 8t4 10q1 3 4.5 8t4.5 8q0 4 2 6q1 0 1.5 2.5t1.5 5.5t3 5q3 4 6 11t6 11q1 2 5 10.5t5 12.5q10 17 21 47l360 899h311l426 -981q2 -5 4.5 -12t4 -11t4.5 -8q1 -5 5 -14t5 -12q3 -4 6 -12.5t6 -12.5 q1 -4 5.5 -10.5t5.5 -9.5q37 -65 75 -88q47 -27 140 -27v-168h-758v172h71q6 -2 13 -2h10q96 0 96 51q0 23 -8 47q-3 7 -6 16t-6.5 20.5t-5.5 17.5q-1 3 -4.5 8t-4.5 8l-4 8t-4 10q-16 36 -16 37q-1 3 -5.5 15t-8.5 18v4h-510q-1 -4 -4 -9.5t-3 -8.5q-1 -4 -4 -10.5t-4 -8.5 q-4 -19 -12 -33q-1 -4 -5 -12t-5 -12q-4 -4 -4 -10q-3 -10 -10.5 -31t-10.5 -31q-1 -5 -2.5 -15t-2.5 -18t-1 -14q0 -32 23 -41q19 -8 92 -8l59 4v-172h-608zM602 606h367l-193 451z" />
<glyph unicode="B" horiz-adv-x="1591" d="M74 0v168h106q6 -2 15 -2q51 0 71 20q25 22 25 74v840q0 47 -25 69q-26 23 -86 23l-106 4v170h925q234 -9 353 -92q121 -89 121 -258q0 -106 -66 -178q-65 -71 -211 -123v4q141 -39 219 -111q94 -76 94 -221q0 -186 -133 -289q-127 -98 -368 -98h-934zM629 168h250 q2 -2 8 -2h8q122 0 182 51q64 61 64 172q0 109 -64 164q-61 55 -184 55l-264 4v-444zM629 788h227q6 -2 18 -2q124 0 181 45q61 49 61 156t-59 154q-57 45 -197 45l-231 4v-402z" />
<glyph unicode="C" horiz-adv-x="1546" d="M82 664q0 327 201 534t520 207q72 0 147 -14t129 -43q7 -3 66 -39q12 -7 33.5 -23t33.5 -24l45 118h164v-561h-198q-12 177 -111 279t-260 102q-184 0 -293 -139q-108 -134 -108 -377q0 -256 102 -391q108 -135 297 -135q159 0 258 96q97 93 133 283l209 4 q-34 -285 -207 -435q-171 -149 -452 -149q-309 0 -508 199q-201 201 -201 508z" />
<glyph unicode="D" horiz-adv-x="1685" d="M76 0v168h106q6 -2 15 -2q51 0 71 20q25 22 25 74v840q0 47 -25 69q-26 23 -86 23l-106 4v170h905q299 -9 457 -176q166 -169 166 -481q0 -321 -183 -516q-181 -193 -487 -193h-858zM631 176h174q6 -2 14 -2h12q101 0 168 23q69 23 119 86q60 71 88 178q29 110 29 254 q0 219 -92 342q-86 129 -322 129l-190 4v-1014z" />
<glyph unicode="E" horiz-adv-x="1599" d="M74 0v168h106q6 -2 15 -2q51 0 71 20q25 22 25 74v840q0 47 -25 69q-26 23 -86 23l-106 4v170h1399v-535h-183q-13 171 -57 261q-46 94 -244 94l-360 4v-397h139q2 -2 8 -2h6q84 0 109 32q33 33 33 127v76h184v-651h-184v82q0 99 -31 123q-23 30 -125 30l-139 4v-438h387 q2 -2 6 -2h4q138 0 199 94q65 95 65 314l183 4v-586h-1399z" />
<glyph unicode="F" horiz-adv-x="1484" d="M76 0v168h106q6 -2 15 -2q51 0 71 20q25 22 25 74v840q0 47 -25 69q-26 23 -86 23l-106 4v170h1362v-537h-195q0 151 -41 254t-225 103l-346 4v-393h133q6 -2 16 -2q76 0 99 26q28 28 28 123v74h183v-645h-183v80q0 101 -28 129q-25 32 -117 32l-131 4v-354q0 -57 24 -78 q23 -20 88 -20l144 4v-170h-811z" />
<glyph unicode="G" horiz-adv-x="1701" d="M82 668q0 335 199 534q197 203 528 203q84 0 168 -23q84 -21 156 -65q4 -1 11 -6t11 -6q3 -3 10.5 -8l10.5 -7q19 -11 43 -28l43 118h161v-551h-184q-15 167 -125 271q-109 100 -272 100q-181 0 -287 -141q-104 -141 -104 -391q0 -247 102 -379q101 -131 295 -131 q123 0 199 49q79 47 79 125v114q0 49 -24 70q-26 23 -86 23l-113 4v170h752v-170q-140 -10 -162 -17q-37 -12 -37 -84v-442h-194l-43 121q-9 -10 -26 -24t-22 -19q-9 -6 -25.5 -18.5t-19.5 -14.5q-62 -40 -159 -65q-84 -23 -185 -23q-318 0 -508 193q-192 195 -192 518z" />
<glyph unicode="H" horiz-adv-x="1804" d="M74 0v168h106q6 -2 15 -2q51 0 71 20q25 22 25 74v840q0 47 -25 69q-26 23 -86 23l-106 4v170h753v-170h-88q-66 -10 -86 -27q-24 -21 -24 -73v-293h545v297q0 47 -25 69q-26 23 -86 23l-88 4v170h754v-170h-107q-66 -10 -86 -27q-25 -22 -25 -73v-832q0 -56 25 -78 q22 -22 86 -22l107 4v-168h-754v168h88q6 -2 14 -2q52 0 72 20q25 22 25 74v356h-545v-352q0 -57 24 -78q22 -22 86 -22l88 4v-168h-753z" />
<glyph unicode="I" horiz-adv-x="903" d="M76 0v168h106q6 -2 15 -2q51 0 71 20q25 22 25 74v840q0 47 -25 69q-26 23 -86 23l-106 4v170h753v-170h-88q-66 -10 -86 -27q-24 -21 -24 -73v-832q0 -57 24 -78q22 -22 86 -22l88 4v-168h-753z" />
<glyph unicode="J" horiz-adv-x="1073" d="M0 258q0 83 53 145q59 62 129 62q87 0 133 -43q50 -41 50 -119q0 -48 -21 -82q-29 -37 -78 -57q-6 -6 -12 -6q-4 0 -8 -3t-6 -3v4q6 -17 12 -17q14 -14 35 -18q28 -4 53 -4q95 0 121 47q26 50 26 209v729q0 48 -24 69t-86 21l-137 4v170h772v-170h-74q-71 -10 -88 -25 q-25 -22 -25 -73v-721q0 -103 -20 -170q-15 -66 -64 -115q-64 -67 -149 -98q-87 -37 -191 -37q-179 0 -292 80q-109 81 -109 221z" />
<glyph unicode="K" horiz-adv-x="1710" d="M76 0v168h106q6 -2 15 -2q51 0 71 20q25 22 25 74v840q0 47 -25 69q-26 23 -86 23l-106 4v170h753v-170h-88q-66 -10 -86 -27q-24 -21 -24 -73v-371l459 373q18 7 29 24t11 33q0 19 -14 23q-11 8 -47 8l-125 4v176h727v-176q-16 -2 -59 -6.5t-62 -7.5q-39 -7 -92 -31 q-52 -29 -139 -103l-229 -190l356 -539q7 -17 18 -28q1 -1 5.5 -6.5t5.5 -6.5q11 -11 12 -14q7 -9 20.5 -23.5t18.5 -21.5q18 -17 30 -25q18 -14 37 -14q14 -2 56 -2l43 4v-176h-748v176h78q6 -2 18 -2q15 0 39 6q19 8 19 31q0 20 -8 33l-19 30q-3 11 -12 19q-1 3 -5 8t-5 8 l-224 336l-194 -160v-221q0 -57 24 -78q22 -22 86 -22l88 4v-168h-753z" />
<glyph unicode="L" horiz-adv-x="1452" d="M74 0v168h106q6 -2 15 -2q51 0 71 20q25 22 25 74v840q0 47 -25 69q-26 23 -86 23l-106 4v170h788v-170h-123q-66 -10 -86 -27q-24 -21 -24 -73v-920h282h27q189 0 236 119q46 121 49 301l194 4v-600h-1343z" />
<glyph unicode="M" horiz-adv-x="2136" d="M63 0v168h107q6 -2 14 -2q52 0 72 20q25 22 25 74v840q0 47 -25 69q-26 23 -86 23l-107 4v170h670l340 -838l346 838h643v-170h-106q-66 -10 -86 -27q-25 -22 -25 -73v-832q0 -56 25 -78q22 -22 86 -22l106 4v-168h-772v168h107q6 -2 14 -2q52 0 72 20q24 21 24 74v778 l-434 -1038h-153l-424 1053v-789q0 -57 24 -78q22 -22 86 -22l96 4v-168h-639z" />
<glyph unicode="N" horiz-adv-x="1775" d="M76 0v168h106q6 -2 15 -2q51 0 71 20q25 22 25 74v840q0 47 -25 69q-26 23 -86 23l-106 4v170h563l670 -938v672q0 47 -25 69q-26 23 -86 23l-96 4v170h612v-170h-80q-66 -10 -86 -27q-24 -21 -24 -73v-1096h-330l-686 958v-694q0 -57 24 -78q22 -22 86 -22l107 4v-168 h-649z" />
<glyph unicode="O" horiz-adv-x="1689" d="M82 674v4q0 335 207 530q206 197 559 197q340 0 549 -197q211 -199 211 -512q0 -353 -205 -546q-196 -193 -569 -193q-347 0 -549 190q-203 197 -203 527zM451 684v4q0 -271 100 -412q101 -145 287 -145q187 0 290 139q105 140 105 400q0 263 -100 411q-103 148 -283 148 q-186 0 -295 -146q-104 -147 -104 -399z" />
<glyph unicode="P" horiz-adv-x="1470" d="M76 0v168h106q6 -2 15 -2q51 0 71 20q25 22 25 74v840q0 47 -25 69q-26 23 -86 23l-106 4v170h901q237 -9 352 -104q121 -100 121 -289q0 -190 -127 -285q-125 -94 -387 -94l-305 4v-334q0 -57 24 -78q23 -20 86 -20l129 4v-170h-794zM631 774h170q6 -2 16 -2 q136 0 207 47q72 47 72 158t-72 162q-71 47 -242 47l-151 4v-416z" />
<glyph unicode="Q" horiz-adv-x="1728" d="M82 680q0 333 209 530q210 195 567 195q339 0 541 -199q205 -196 205 -526q0 -200 -74 -348q-70 -142 -234 -266q14 -22 29 -41q18 -23 29 -25q29 -25 69 -25q62 0 90 48q29 53 29 163v4h187q-15 -211 -99 -325q-84 -113 -223 -113q-101 0 -184 62q-81 61 -131 172 q-91 -19 -125 -23l-68 -6q-13 0 -36 -1t-34 -1q-345 0 -546 192q-201 198 -201 533zM451 674q0 -120 22 -207q21 -94 70 -176q10 24 18 37q3 5 9.5 16t9.5 16q49 78 98 103q53 29 135 29q97 0 174 -50q85 -51 156 -151v4q44 61 69 160q23 103 23 223q0 256 -105 399 q-104 150 -278 150q-188 0 -297 -146q-104 -147 -104 -407zM657 174q33 -23 82 -35q41 -10 111 -10h33q8 0 28 4q3 0 33 6l16.5 5.5t22.5 5.5v4q-48 80 -93 119.5t-97 39.5q-62 0 -97.5 -37.5t-38.5 -101.5z" />
<glyph unicode="R" horiz-adv-x="1667" d="M76 0v168h106q6 -2 15 -2q51 0 71 20q25 22 25 74v840q0 47 -25 69q-26 23 -86 23l-106 4v170h991q198 -9 303 -92q107 -88 107 -250q0 -120 -76 -205q-74 -77 -225 -112q106 -39 155 -91q47 -53 47 -139v-215q0 -6 2 -12v-25q0 -29 13 -55q13 -25 47 -25q28 0 45 31 q14 40 14 96v119h162v-115q0 -165 -74 -239t-229 -74q-141 0 -228 62q-77 62 -86 186l-12 231q-3 110 -43 150q-37 37 -145 37l-213 4v-369q0 -57 24 -78q22 -22 86 -22l107 4v-168h-772zM631 809h239q2 -2 9 -2h8q115 0 174 47q61 49 61 152q0 98 -63 139q-62 41 -215 41 l-213 4v-381z" />
<glyph unicode="S" horiz-adv-x="1341" d="M82 0v508h192q3 -14 9.5 -39.5t7.5 -34.5q1 -4 4 -13t4 -13q0 -3 6 -21q8 -18 12 -35q10 -17 17 -26q1 -3 4 -7.5t4 -7.5q1 -1 2 -2.5t2 -2.5t2 -1q1 -1 3 -4t3 -4q49 -64 152 -111q105 -43 211 -43q112 0 186 50t74 126q0 54 -23 84q-22 32 -96 56q-10 3 -35 9.5 t-37 10.5q-15 3 -45.5 11t-44.5 12l-207 53q-169 33 -288 113q-115 77 -115 280q0 211 150 334t405 123q126 0 221 -33q88 -25 178 -102l31 96h160v-492h-191q-2 0 -2 5v10q0 1 -3 17t-3 24q-1 5 -4 16.5t-4 16.5q-1 15 -20 57q-2 5 -13 20q-1 3 -2.5 5.5t-2.5 4.5t-1 3 q-2 6 -8 12q-46 65 -131 113t-172 51h-12h-11q-121 0 -200 -51q-76 -49 -76 -131q0 -90 94 -127q96 -38 227 -62q30 -3 66 -12q30 -6 35 -6q5 -1 17 -4.5t17 -4.5q177 -39 312 -120q143 -82 143 -295q0 -221 -145 -342q-151 -117 -416 -117h-31q-6 2 -10 2q-103 3 -213 41 q-105 35 -184 106l-43 -106h-162z" />
<glyph unicode="T" horiz-adv-x="1394" d="M41 829v537h1313v-537h-189q0 9 2 11v26q0 164 -61 240q-61 82 -180 82h-6h-21q-6 -2 -16 -2h-15v4v-926q0 -56 25 -78q23 -20 86 -20l131 4v-170h-825v170h135q6 -2 16 -2q45 0 70 18q24 21 24 74v930q-201 -9 -245 -90q-49 -85 -58 -275z" />
<glyph unicode="U" horiz-adv-x="1611" d="M27 1198v168h753v-168h-106q-66 -10 -86 -27q-25 -22 -25 -73v-617q0 -157 78 -241q76 -82 225 -82q117 0 193 49q80 48 100 131q7 26 10 70q5 63 5 88v606q0 47 -25 69q-26 23 -86 23l-88 4v168h594v-168h-66q-70 -10 -90 -27q-24 -21 -24 -73v-617q0 -288 -148 -409 q-148 -115 -430 -115q-240 0 -416 92q-170 93 -170 375v678q0 48 -24 69q-26 23 -86 23z" />
<glyph unicode="V" horiz-adv-x="1560" d="M0 1186v180h768v-176h-98q-66 -11 -72 -14q-20 -11 -20 -37q0 -13 2 -19l6 -18q0 -4 2 -4v-4q0 -5 4 -9l4 -12q0 -4 2 -4q0 -1 1 -3t1 -3l272 -715l267 684q18 42 20 55q6 14 6 35q0 33 -20 47q-17 17 -64 17l-106 4v176h606v-176q-117 -9 -151 -43t-56 -98 q-4 -12 -4 -19l-6 -18q-6 -18 -6 -19q-1 -5 -4 -11.5t-4 -8.5l-389 -973h-308l-420 1032q-13 22 -22 47q-4 7 -11 20.5t-10 18.5q-26 45 -67 58q-45 10 -123 10z" />
<glyph unicode="W" horiz-adv-x="2140" d="M0 1186v180h666v-176h-76q-58 -11 -64 -14q-16 -13 -16 -39q0 -15 2 -23q1 -4 16 -47l209 -633l230 633q-7 7 -9 16l-3.5 10.5t-2.5 10.5q-13 33 -39 59q-23 23 -77 23l-56 4v176h713v-176h-74q-77 -11 -86 -16q-20 -11 -20 -44q0 -14 2 -24q3 -15 12 -39l215 -633 l213 637q8 13 12 33q5 25 5 26q0 35 -19 46q-17 10 -88 10l-57 4v176h532v-176h-26q-52 -12 -58 -16q-19 -11 -41 -50q-7 -12 -18 -41q-15 -30 -21 -53l-368 -1030h-262l-263 770l-276 -770h-268l-363 1034q-4 13 -12 23q-4 12 -4 14q-4 4 -4 12q-27 59 -54 78 q-28 25 -102 25z" />
<glyph unicode="X" horiz-adv-x="1566" d="M27 0v176q6 -2 16 -2q48 0 88 16q49 26 78 52q5 4 31 30q13 18 32 37l316 350l-336 433q-3 2 -14.5 13t-16.5 17q-5 5 -14.5 14t-13.5 13q-41 29 -72 31q-25 6 -94 6v180h786v-176h-113q-8 -3 -22.5 -5t-18.5 -5q-14 -3 -14 -19q0 -3 2.5 -11.5t3.5 -12.5q11 -19 21 -31 l166 -213l202 217q19 14 21 23q8 11 8 22q0 13 -14 23q-11 8 -35 8l-98 4v176h622v-176h-53q-2 -1 -53 -8q-15 -2 -41 -13q-9 -2 -25 -14q-20 -16 -26 -22q-39 -35 -68 -68l-311 -326l340 -426q11 -22 28 -39q15 -19 29 -30q26 -28 76 -54q49 -18 104 -18v-172h-782v176h102 q6 -2 19 -2q8 0 32 6q19 8 19 31q0 12 -6 20q-6 6 -6 11q-1 1 -4.5 5t-4.5 5t-4.5 3.5t-5.5 4.5t-2 6l-182 238l-191 -219l-4 -9q-1 -1 -3 -4t-3 -4l-12 -12q-2 -6 -12 -16l-5 -7q-4 -4 -4 -8q-6 -6 -6 -12v-8q0 -19 10 -27q24 -6 50 -6l100 4v-176h-612z" />
<glyph unicode="Y" horiz-adv-x="1509" d="M0 1186v180h793v-176h-105q-51 -11 -57 -14q-19 -11 -19 -27q0 -9 4 -21q13 -17 13 -18q1 -1 3 -4t3 -4q0 -2 4 -6l219 -316l203 334q11 11 14 23q4 16 4 20q0 20 -12 23q-8 6 -47 6l-100 4v176h589v-176h-39q-7 -2 -47 -8q-17 -3 -37 -15q-22 -13 -57 -59 q-5 -7 -20 -30.5t-32 -48.5l-34 -50l-285 -442v-273q0 -56 25 -78q23 -20 86 -20l127 4v-170h-813v170h127q6 -2 16 -2q45 0 70 18q25 22 25 74v277l-392 538q-1 1 -3 2t-4 3t-3 5q-1 1 -4 5.5t-4 5.5q-6 8 -18 20q-34 43 -82 55q-51 15 -111 15z" />
<glyph unicode="Z" horiz-adv-x="1337" d="M49 0v166l803 1024h-295q-191 -9 -229 -76q-40 -70 -49 -201q-3 -3 -3 -10v-8q0 -3 -1 -9t-1 -9q-2 -8 -2 -21q0 -15 -4 -43l-176 4v549h1184v-166l-807 -1034h291h33q201 0 249 98q48 105 60 316l174 4v-584h-1227z" />
<glyph unicode="[" horiz-adv-x="745" d="M160 -410v1803h489v-170h-213v-1467h213v-166h-489z" />
<glyph unicode="\" horiz-adv-x="808" d="M41 1366h258l469 -1776h-258z" />
<glyph unicode="]" horiz-adv-x="745" d="M98 -244h211v1467h-211v170h490v-1803h-490v166z" />
<glyph unicode="^" horiz-adv-x="1024" d="M10 684l328 688h350l328 -688h-279l-223 475l-225 -475h-279z" />
<glyph unicode="_" horiz-adv-x="1024" d="M0 -94h1024v-240h-1024v240z" />
<glyph unicode="`" horiz-adv-x="1024" d="M295 1380q0 35 49 35l264 4l123 -327h-151l-230 217q-22 17 -41 41q-14 20 -14 30z" />
<glyph unicode="a" horiz-adv-x="1206" d="M53 231q0 155 94 207q84 52 211 82q5 1 16.5 4t16.5 4q3 0 19 4q3 0 8 1.5t8 1.5q86 19 164 49q72 35 72 110q0 77 -60 119q-59 41 -170 41h-24q-8 -2 -21 -2q-15 0 -31 -4q-6 0 -10 -4q-2 0 -3.5 -0.5t-2.5 -1t-2.5 -1t-3.5 -1.5q-4 -4 -12 -4q-4 -4 -13 -7 q41 -13 72 -47q25 -28 25 -67q0 -69 -44 -107q-39 -39 -112 -39q-69 0 -115 52q-45 48 -45 129q0 122 107 186q104 68 301 68q246 0 356 -78q107 -76 107 -256v-451q0 -44 8 -57q9 -15 32 -15q25 0 37 21q11 26 11 72v120h137v-116q0 -142 -64 -215q-64 -64 -194 -64 q-104 0 -166 35q-56 25 -94 109q-64 -76 -142 -109q-78 -35 -176 -35q-135 0 -217 70q-80 74 -80 196zM358 266q0 -44 31 -84q38 -30 86 -30q76 0 127 45q55 47 55 104v156q-14 -11 -24 -13q-4 -4 -10 -4q-12 -4 -13 -4q-4 -1 -12 -4t-12 -4q-4 -4 -11 -4l-12 -4 q-16 -3 -28 -12q-5 -1 -15.5 -4.5t-15.5 -4.5h-2l-2 -2h-4q-48 -14 -97 -39q-41 -24 -41 -92z" />
<glyph unicode="b" horiz-adv-x="1298" d="M55 1198v166h461v-502q3 1 21 19l18 18q5 5 19 16t20 17q51 38 102 53q62 16 129 16q220 0 308 -155q95 -151 98 -340v-33q0 -237 -121 -373q-117 -135 -324 -135q-108 0 -192 41q-85 52 -127 131l-53 -137h-201v1106q0 52 -16 68q-14 20 -58 20zM512 471v4 q0 -166 51 -246q49 -84 146 -84q95 0 147 88q51 88 51 250q0 151 -49 236q-51 88 -133 88q-98 0 -158 -88q-55 -90 -55 -248z" />
<glyph unicode="c" horiz-adv-x="1116" d="M68 487q0 239 145 375q145 139 391 139q180 0 295 -86t115 -223q0 -78 -45 -123t-119 -45q-68 0 -115 41q-43 43 -43 105q0 22 2 32q1 5 5.5 15.5t5.5 13.5q16 27 22 33q12 15 37 37q-9 4 -24.5 11.5t-22.5 10.5q-17 10 -37 13h-16q-7 0 -9 2h-10q-114 0 -186 -97 q-68 -100 -68 -258q0 -161 62 -256q64 -92 172 -92q86 0 151 68q64 73 72 174v4h201q-15 -194 -144 -305q-123 -111 -323 -111q-247 0 -379 135q-135 138 -135 387z" />
<glyph unicode="d" horiz-adv-x="1302" d="M68 467q0 237 120 383q121 151 308 151q50 0 104 -14q4 -1 45 -16q47 -26 88 -62q7 -7 22 -23t23 -24v244q0 52 -16 68q-14 20 -57 20l-89 4v166h474v-1106q0 -54 16 -76q14 -20 57 -20l82 4v-166h-442v113q-68 -87 -141 -113q-78 -35 -183 -35q-190 0 -299 135 q-112 136 -112 367zM391 461v4q0 -166 49 -248t148 -82q90 0 151 92q60 97 60 240q0 162 -54 250q-53 86 -147 86q-95 0 -152 -92q-55 -93 -55 -250z" />
<glyph unicode="e" horiz-adv-x="1153" d="M68 496q0 227 139 366q145 139 371 139q235 0 372 -137q135 -138 135 -383v-12l-2 -4v-19v5h-704q12 -161 74 -238q61 -76 176 -76q92 0 153 49q66 53 92 148l197 4q-21 -172 -145 -275q-125 -98 -314 -98q-264 0 -405 135q-139 136 -139 396zM381 602l391 4 q0 85 -49 158q-50 74 -148 74q-89 0 -139 -62q-46 -57 -55 -174z" />
<glyph unicode="f" horiz-adv-x="796" d="M61 0v166h86q6 -2 11 -2q29 0 47 18q16 22 16 72v555h-160v168h160v12q0 10 2 12q0 111 13 168q13 53 45 91l8 8q0 2 4 6l4 4q50 53 111 76q79 30 133 32q1 0 10 3h10h23q116 0 178 -56q67 -50 67 -147q0 -63 -36 -99t-93 -36q-41 0 -71 30q-29 37 -29 82v15q0 10 2 12 l6 24q3 4 8 16t9 19q-1 4 -13 8q-3 0 -8 5h-10q-43 0 -62 -43q-18 -49 -18 -138v-104h238v-168h-228v-551q0 -52 17 -76q14 -20 57 -20l121 4v-166h-658z" />
<glyph unicode="g" horiz-adv-x="1275" d="M47 -225q0 48 31 88q27 34 106 63q-65 21 -100 62q-33 36 -33 108q0 82 41 123q34 39 101 80q1 1 4 3t4 3q4 0 8 4q11 11 20 13q-78 47 -112 114q-35 69 -35 180q0 182 127 285t350 103q63 0 113 -9q56 -10 98 -28q32 -13 96 -52v5q4 2 13 10q10 10 12 16q50 50 90 68 q44 20 109 20q78 0 129 -45q51 -48 51 -117q0 -62 -37 -102q-38 -41 -94 -41q-43 0 -80 29q-33 33 -33 71v23q0 3 2.5 10t3.5 10q1 2 5 9.5t5 11.5q3 3 9 10.5t10 11.5q-1 1 -6 3t-8 2q-5 0 -5 2h-6h-4q-26 0 -53 -17q-31 -17 -49 -47q50 -53 63 -104q19 -48 19 -133 q0 -173 -125 -277q-126 -102 -342 -102q-71 0 -123 8q-29 4 -105 29q-29 -16 -41 -31t-12 -41q0 -34 29 -57q31 -17 88 -17h4h6l2 2h2l416 15q0 -5 4 -5h4h6q2 2 4 2h17q135 0 235 -43q107 -40 107 -196q0 -162 -123 -227q-129 -68 -266 -82q-65 -9 -129 -9q-44 0 -62 -2 h-55q-280 0 -391 43q-115 41 -115 144zM274 -178q0 -55 68 -80q79 -27 215 -27q188 0 272 23q80 23 80 82q0 48 -49 69q-56 17 -198 17h-330q-32 -18 -43 -37q-15 -21 -15 -47zM377 627v4q0 -125 45 -193q46 -69 123 -69q73 0 119 69q47 71 47 185q0 113 -47 184 q-46 70 -121 70q-76 0 -121 -68q-45 -62 -45 -182z" />
<glyph unicode="h" horiz-adv-x="1382" d="M61 0v166h86q6 -2 11 -2q29 0 47 18q16 22 16 72v854q0 50 -16 66q-14 20 -58 20l-86 4v168h463v-514q73 79 147.5 115.5t176.5 36.5q178 0 252 -86t74 -254v-406q0 -54 16 -76q14 -20 59 -20l84 4v-166h-598v166h62q6 -2 10 -2q29 0 47 18q16 22 16 72v367q0 98 -36 143 q-38 47 -119 47q-101 0 -146 -62t-45 -198v-293q0 -52 17 -76q14 -20 59 -20l53 4v-166h-592z" />
<glyph unicode="i" horiz-adv-x="733" d="M61 0v166h89q6 -2 10 -2q29 0 47 18q16 22 16 72v465q0 49 -16 65q-15 21 -57 21l-89 4v168h465v-719q0 -52 17 -76q14 -20 57 -20l86 4v-166h-625zM190 1239q0 72 52 121q49 49 120 49v4q78 -10 121 -53q52 -52 52 -121q0 -71 -52 -123q-49 -49 -121 -49t-120 51 q-52 49 -52 121z" />
<glyph unicode="j" horiz-adv-x="696" d="M-78 -209q0 60 41 107q43 43 94 43q53 0 88 -35q35 -38 35 -94q0 -37 -18 -58q-16 -26 -45 -39l2 -2v-2l2 -2v-2q11 -14 16 -16q12 -4 27 -4q45 0 61 39q17 42 17 145v848q0 50 -17 67q-15 21 -57 21l-117 4v166h496v-1049q0 -174 -92 -270q-88 -98 -256 -98 q-133 0 -203 61q-74 62 -74 170zM205 1239q0 72 49 121t121 49v4q78 -10 121 -53q51 -51 51 -121t-51 -121q-49 -49 -121 -49t-121 49t-49 121z" />
<glyph unicode="k" horiz-adv-x="1357" d="M61 0v166h86q6 -2 13 -2q29 0 47 18q16 22 16 72v854q0 50 -16 66q-14 20 -60 20l-86 4v168h465v-819l273 201l2 -3q1 0 2 2t2 3l4 4l10 10q0 4 4 8q0 4 2 6v6q0 14 -10 17q-12 4 -39 4l-94 4v168h629v-168q-115 -10 -152 -18q-45 -10 -98 -41q-39 -22 -74 -54 q-9 -7 -39.5 -31.5t-52.5 -39.5l268 -373q0 -6 2 -6v-2q0 -4 4 -4q1 -1 3.5 -4.5t3.5 -4.5t3 -4t3 -4q13 -21 37 -45q25 -18 51 -18l41 4v-164h-590v166h51q6 -2 14 -2q15 0 27 4q12 9 12 20v7q-2 0 -2 4q0 1 -1 3t-1 3q-4 0 -4 4q-4 4 -4 6v4l-2 2l-160 230l-125 -95v-98 q0 -74 27 -86q23 -10 82 -10v-162h-574z" />
<glyph unicode="l" horiz-adv-x="737" d="M61 0v166h86q6 -2 13 -2q29 0 47 18q16 22 16 72v854q0 50 -16 66q-14 20 -60 20l-86 4v168h465v-1108q0 -52 17 -76q14 -20 55 -20l92 4v-166h-629z" />
<glyph unicode="m" horiz-adv-x="1992" d="M61 0v166h86q6 -2 11 -2q29 0 47 18q16 22 16 72v465q0 49 -16 65q-15 21 -58 21l-86 4v168h445l-6 -121q16 12 43 34.5t39 31.5q7 4 19.5 12t19.5 12q6 5 20.5 12.5t15.5 8.5q24 14 80 26q36 8 92 8q103 0 177 -38q70 -37 120 -121q0 2 11 12q1 1 4 5t4 5q16 16 20 19 q74 67 138 92q76 26 170 26q132 0 219 -75q84 -75 84 -195v-473q0 -54 16 -76q14 -20 59 -20l86 4v-166h-583v166q6 -2 12 -2h10q45 0 68 10q29 13 29 80v387q0 96 -33 135q-27 41 -111 41q-88 0 -135 -59q-45 -57 -45 -174v-326q0 -54 16 -76q14 -20 60 -20l47 4v-166h-549 v166q10 -2 29 -2q44 0 63 8q31 11 31 82v387q0 94 -33 133q-32 43 -106 43q-93 0 -138 -57t-45 -176v-326q0 -52 17 -76q14 -20 57 -20l49 4v-166h-586z" />
<glyph unicode="n" horiz-adv-x="1378" d="M68 0v166h82q6 -2 10 -2q29 0 47 18q16 22 16 72v465q0 49 -16 65q-15 21 -57 21l-82 4v168h438v-150l65 66q13 13 33 29q4 4 15.5 11.5t15.5 10.5q39 29 96 43q58 14 115 14q150 0 237 -75q86 -77 86 -213v-455q0 -52 17 -76q14 -20 59 -20l86 4v-166h-594v166h56 q6 -2 10 -2q29 0 47 18q16 22 16 72v362q0 101 -35 148q-33 45 -112 45q-101 0 -148 -59q-45 -60 -45 -187v-305q0 -52 17 -76q14 -20 57 -20l51 4v-166h-583z" />
<glyph unicode="o" horiz-adv-x="1218" d="M68 489v5q9 233 151 372q144 135 391 135q253 0 398 -139q143 -137 143 -383q0 -233 -147 -377q-146 -137 -392 -137q-259 0 -399 131q-145 133 -145 393zM391 492v4q0 -178 55 -277q58 -94 162 -94q110 0 162 94q57 92 57 275q0 160 -59 249q-59 95 -158 95 q-103 0 -161 -93q-58 -88 -58 -253z" />
<glyph unicode="p" horiz-adv-x="1300" d="M61 -246h82q45 0 60 21q16 16 16 71v873q0 51 -16 67q-15 21 -60 21l-82 4v166h461l-6 -119q67 73 137 109q73 37 174 37q195 0 299 -134q105 -128 105 -376q0 -244 -111 -388q-112 -139 -301 -139q-89 0 -168 27q-65 21 -129 88v-236q0 -47 17 -71q15 -21 57 -21h98 v-166h-633v166zM518 436q0 -20 2 -28q0 -11 4 -31q9 -87 49 -156q39 -71 140 -71q95 0 144.5 87t49.5 259q0 148 -47 231q-50 84 -133 84q-102 0 -154 -82q-52 -76 -55 -237v4v-60z" />
<glyph unicode="q" horiz-adv-x="1290" d="M68 475q0 233 116 383q122 146 314 146q91 0 161 -37q76 -40 125 -109l-6 119h457v-166h-82q-47 -10 -57 -25q-15 -15 -15 -71v-869q0 -56 15 -71q15 -21 57 -21h82v-166h-629v166h99q42 0 57 21q16 22 16 71v240q-52 -70 -119 -90q-69 -29 -159 -29q-209 0 -320 131 q-112 130 -112 377zM391 475v4q0 -174 51 -254q49 -82 154 -82q89 0 139 90q49 88 49 250q0 141 -51 232q-54 88 -135 88q-101 0 -154 -86t-53 -242z" />
<glyph unicode="r" horiz-adv-x="1017" d="M61 0v166h93q6 -2 10 -2q29 0 47 18q16 22 16 72v465q0 49 -16 65q-15 21 -57 21l-93 4v168h469l-10 -146q11 12 33.5 38t32.5 36q27 34 57 51q41 25 64 31q31 8 73 8q94 0 148 -63q55 -61 55 -166q0 -79 -47 -129q-46 -49 -121 -49q-63 0 -104 41q-41 47 -41 104v17 q0 6 4 18q3 24 14 37q10 17 33 47q-80 0 -121 -66q-39 -62 -55 -143q-15 -69 -15 -145v-240q0 -52 17 -76q14 -20 57 -20l117 4v-166h-660z" />
<glyph unicode="s" horiz-adv-x="1052" d="M68 0v369h155q41 -127 117 -185q73 -59 209 -59q73 0 115 25q43 22 43 69q0 56 -62 80q-89 35 -147 45q-26 9 -56 12q-31 10 -55 13q-119 27 -219 92q-100 60 -100 217q0 150 104 237q109 86 293 86q101 0 174 -24q86 -28 143 -80l19 78h145v-344h-164q-38 100 -112 153 q-76 56 -185 56q-60 0 -108 -25q-41 -24 -41 -61q0 -55 57 -78q59 -24 144 -39q35 -4 59 -12q1 0 14 -3.5t19 -3.5q2 0 13 -3.5t17 -4.5q123 -28 222 -96q102 -65 102 -233q0 -153 -106 -234q-101 -82 -293 -82q-104 0 -168 19q-73 17 -131 61q-1 1 -5.5 4t-5.5 4q-3 1 -6 4 t-6 4q-13 10 -20 19l-19 -80h-155z" />
<glyph unicode="t" horiz-adv-x="804" d="M12 803v151q139 26 205 125q59 95 59 240l185 4v-352h248v-168h-248v-565q0 -60 12 -84q11 -23 47 -23q34 0 49 27q17 27 17 88v160h137v-183q0 -132 -68 -194q-67 -64 -198 -64q-143 0 -224 62q-75 63 -75 192v584h-146z" />
<glyph unicode="u" horiz-adv-x="1372" d="M61 809v168h457v-604q0 -126 33 -170q33 -45 121 -45q93 0 133 61q45 60 45 184v314q0 51 -16 67q-15 21 -58 21l-86 4v168h463v-719q0 -54 16 -76q14 -20 58 -20l90 4v-166h-467v135q-23 -33 -43 -53q-7 -7 -20.5 -19.5t-20.5 -19.5q-61 -47 -107 -59q-47 -19 -127 -19 q-154 0 -237 74q-80 77 -80 223v455q0 51 -16 67q-15 21 -58 21z" />
<glyph unicode="v" horiz-adv-x="1181" d="M14 809v168h613v-168h-78q-9 -2 -21 -4t-19 -3.5t-11 -4.5q-15 -9 -15 -29q0 -12 2 -20q2 -6 13 -33l157 -416l179 434v-2l2 2v2q0 4 4 8l6 19q4 12 4 20q0 16 -10 19q-12 4 -37 4l-78 4v168h457v-168h-45q-9 -2 -27.5 -5.5t-26.5 -6.5q-17 -3 -32 -33q-2 -7 -13 -21 q-3 -14 -12 -28l-301 -715h-270l-291 733q-4 4 -6 10q-1 1 -3 5.5t-3 5.5q-1 4 -4.5 11l-4.5 9q-13 22 -24 25q-8 6 -31 6z" />
<glyph unicode="w" horiz-adv-x="1767" d="M29 813v164h579v-164h-78q-6 -2 -16.5 -4.5t-14 -4t-8 -4.5t-5.5 -8t-1 -14q0 -3 7 -24v-4q0 -1 1 -3.5t1 -3.5q0 -4 2 -4v-4l137 -418l151 420q2 3 9 23q0 3 2 7t2 7v4q0 17 -11 21q-8 6 -38 6l-58 4v168h561v-168h-69q-8 -3 -20 -6.5t-16.5 -5.5t-8.5 -7.5t-4 -15.5v-8 q0 -1 1 -4t1 -4t1.5 -4t3.5 -9t3 -12l137 -416l147 420q3 3 6 11l3 8q0 4 2 6v8q0 17 -13 27q-11 8 -41 8l-55 4v168h426v-168h-45q-54 -10 -72 -39q-25 -36 -39 -74v-4l-2 -4v-2l-2 -2q0 -4 -3 -8t-3 -6q-4 -4 -4 -13l-244 -657h-260l-186 551l-205 -551h-254l-252 739h-2 q-2 2 -2 4v5q-2 0 -2 4q-1 5 -6 13.5t-6 12.5q-2 3 -4.5 7.5t-4.5 7.5t-5 4q-12 12 -35 12z" />
<glyph unicode="x" horiz-adv-x="1277" d="M27 0v166q8 -2 24 -2q59 0 109 26q2 1 8 4.5t10 4.5q3 3 8.5 7t8.5 7q7 4 38 35l236 223l-229 264q-5 5 -17 16t-16 15q-4 3 -13.5 11t-13.5 11q-3 1 -8 4.5t-8 4.5q-36 8 -66 8l-55 4v168h637v-168h-70q-4 -3 -9 -4.5t-10 -2t-7 -1.5q-9 -3 -9 -15q0 -6 17 -30 q7 -7 19.5 -21.5t19.5 -21.5q0 -1 3.5 -4.5t4.5 -3.5q13 -17 18 -21q3 -3 8.5 -9t8.5 -9q20 -14 24 -27l133 125q3 0 11 8l4 12q0 12 -8 15q-6 6 -31 6l-45 4v168h487v-168h-55q-18 -6 -45 -6q-22 -5 -27 -6q-4 -1 -13.5 -9t-16.5 -12q-3 -3 -22 -17.5t-32 -27.5l-231 -203 l268 -307q25 -35 51 -47q27 -12 68 -12l55 4v-166h-639v166h70q2 -2 8 -2q2 -2 8 -2q11 0 15 4q10 10 10 16q0 1 -23 31q-8 9 -24.5 29.5t-24.5 29.5q-2 0 -2 2h-2v5q-8 8 -21 23t-20 22q-6 8 -16.5 18.5t-12.5 13.5q-14 -14 -30 -28q-4 -4 -12.5 -11.5t-12.5 -11.5 q-10 -8 -26 -24q-1 -1 -4.5 -3.5t-4.5 -3.5l-4 -6q-6 -6 -17 -16.5t-19.5 -19t-14.5 -15.5q-20 -23 -20 -35q0 -6 10 -14q24 -6 26 -6l72 4v-166h-491z" />
<glyph unicode="y" horiz-adv-x="1196" d="M14 811v166h623v-166h-84q-9 -2 -19.5 -3.5t-16.5 -2.5t-9 -4q-12 -3 -12 -25q0 -6 2 -12q0 -1 1 -4l2.5 -7.5l2.5 -7.5l178 -432l182 426l6 19q4 12 4 18q0 22 -10 25q-8 6 -39 6l-77 4v166h448v-166h-39q-8 -3 -24 -5t-21 -5q-14 -3 -27 -25q-3 -4 -8 -12t-8 -12 q0 -1 -3 -7t-3 -10q-1 -3 -4 -9t-4 -9l-387 -869q-72 -160 -150 -221q-73 -67 -199 -67q-134 0 -219 63q-77 65 -77 178q0 78 49 136q50 53 125 53q61 0 100 -39q43 -37 43 -98q0 -53 -29 -82q-23 -30 -94 -45l6 -7q0 -2 4 -6q0 -1 1 -2.5t3 -2.5t4 -2.5t3 -2.5q9 -9 22 -12 q16 -4 35 -4q41 0 70 16q5 3 30 23q3 4 13 14t16 18q20 26 45 74q21 41 51 109l-348 798q-1 1 -4 5.5t-4 5.5l-4 12q-15 28 -37 37q-13 8 -62 8z" />
<glyph unicode="z" horiz-adv-x="1103" d="M57 0v156l582 653h-170q-136 -9 -168 -49q-36 -45 -45 -215l-160 4v428h955v-133l-596 -678h184q6 -2 14 -2q150 0 185 72q36 71 36 219l177 4v-459h-994z" />
<glyph unicode="{" horiz-adv-x="1024" d="M244 385v229q73 9 88 50q21 38 24 102v321q0 161 72 224q67 67 240 67h20q6 -2 19 -2h47q2 -2 6 -2h26q2 -2 13 -2h26v-229h-43q-105 -9 -131 -25q-28 -22 -28 -96v-272q0 -85 -17 -138q-15 -50 -59 -88q-1 -1 -5 -4t-5 -4q-9 -8 -13 -10l-24 -19v5q72 -54 96 -105 q27 -59 27 -158v-247q0 -111 32 -125q31 -19 129 -19h17q2 2 10 2h14v-235h-32q-23 0 -33 -2h-35q-10 0 -16 -2h-17q-167 0 -250 57q-86 53 -86 238v317q0 75 -26 119q-24 41 -86 53z" />
<glyph unicode="|" horiz-adv-x="1024" d="M379 -342v1706h266v-1706h-266z" />
<glyph unicode="}" horiz-adv-x="1024" d="M199 -160h8h12q2 -2 4 -2h10h9q103 0 129 23q23 20 32 112v7v251q0 81 15 131q17 57 82 107l24 18v5q-69 40 -96 98q-25 61 -25 155v256v3q-10 100 -32 114q-24 21 -131 21l-41 4v233q6 -4 20 -4h12q15 0 35 4h33q10 0 16 2h17q167 0 250 -57q86 -53 86 -238v-313 q0 -88 24 -129q23 -38 88 -51v-221q-68 -20 -88 -56q-16 -39 -24 -104v-313q0 -162 -72 -228q-67 -67 -240 -67h-59q-6 2 -18 2h-21q-8 2 -20 2h-39v235z" />
<glyph unicode="~" horiz-adv-x="1366" d="M184 1243q48 111 111 195q65 86 201 86q15 0 51 -4q21 -3 49 -13q8 -3 24.5 -8t24.5 -8t24 -8t23 -8q0 -5 4 -5h4l2 -2q6 -2 39.5 -13.5t51.5 -16.5q46 -15 94 -15q31 0 55 9q23 9 45 34q9 12 21 27q3 3 6 7t6 7q1 4 5 10.5t5 10.5l152 -84q-49 -107 -123 -193t-203 -86 q-19 0 -47 4q-21 3 -49 13q-18 5 -49 17.5t-45 17.5q-5 2 -15.5 5t-18.5 6t-14 7q-8 3 -23.5 8t-23.5 8q-53 17 -92 17q-34 0 -53 -8q-16 -6 -41 -31q-14 -14 -27 -37l-28 -49v4z" />
<glyph unicode="&#xa1;" horiz-adv-x="583" d="M117 -203q0 4 1 11t1 10q0 13 4 41l100 719h146l92 -719q4 -28 4 -41t2 -21v-18q0 -91 -45 -139q-49 -52 -123 -52q-82 0 -133 54q-49 52 -49 137v18zM123 834q0 71 51 122q52 52 123 52v4q74 -9 123 -56q51 -54 51 -122q0 -72 -51 -123q-52 -52 -123 -52q-74 0 -123 52 q-51 48 -51 123z" />
<glyph unicode="&#xa2;" d="M94 686q0 208 121 338q123 135 338 162v190h147v-190q166 -22 248 -99q92 -74 92 -194q0 -84 -45 -129q-44 -47 -125 -47q-71 0 -110 39t-39 108q0 39 16 68q12 28 49 57q-15 9 -24 12q-1 1 -5 3.5t-5 3.5q-7 0 -11 4q-10 6 -30 6q-13 0 -19 2h-20q-118 0 -187 -92 q-67 -92 -67 -256t61 -258q64 -92 174 -92q100 0 148 69q48 73 71 152q0 10 2 12q0 5 3 8q2 4 2 6l196 4q-9 -167 -110 -280q-104 -116 -265 -143v-173h-147v177q-221 12 -342 151q-117 142 -117 381z" />
<glyph unicode="&#xa3;" d="M113 170q2 1 9 5t11 5q3 3 9.5 7.5t9.5 7.5q10 10 18 16q3 1 16 14q68 65 93 121q30 53 30 133v10v11q-4 16 -4 24q-1 5 -3 16.5t-3 14.5l-186 4v164h114q-31 42 -57 108q-23 56 -23 123q0 180 144 291q147 113 371 113q193 0 315 -94q123 -88 123 -240q0 -85 -51 -145 q-51 -54 -136 -54q-63 0 -104 41q-39 45 -39 111q0 52 27 76q30 30 63 43q4 0 8 4q4 2 6 4q3 1 8.5 4t8.5 4q-9 9 -25 21q-2 2 -9.5 8.5t-10.5 7.5q-12 9 -25 12q-6 1 -14.5 4t-11.5 4q-21 7 -68 7q-116 0 -186 -58q-68 -62 -68 -160q0 -42 12 -88q8 -29 29 -84 q8 -13 12 -34q10 -16 13 -33v4h284v-164h-256q-3 -93 -45 -166q-52 -83 -100 -131q-6 -6 -6 -8l-25 -25q17 7 45 18t37 15q10 6 31 10l28 7q9 0 15 2h14q11 0 17 2h18q26 0 68 -11q29 -10 67 -20q6 -2 28.5 -10.5t35.5 -12.5q29 -10 69 -10q41 0 64 23q22 22 22 65v96h160 v-22v-33q-2 -6 -2 -16v-29q-3 -119 -45 -225q-39 -98 -205 -98q-63 0 -129 16q-39 6 -115 33q-5 1 -15 4t-15 4q-14 8 -29 12q-15 6 -41 10q-21 8 -43 11q-7 1 -20.5 4t-20.5 4q-8 0 -22 1t-21 1q-56 0 -117 -25q-49 -22 -110 -71z" />
<glyph unicode="&#xa4;" horiz-adv-x="1366" d="M41 1268l145 145l213 -213q12 3 27 12q8 2 25 15q12 9 26 12q11 9 25 12q59 19 90 25q41 8 98 8q46 0 82 -8q12 -1 80 -21q9 -4 28.5 -12t28.5 -12q54 -30 58 -33l211 213l143 -143l-209 -209q7 -14 23.5 -43t21.5 -43q12 -22 29 -74q1 -6 4.5 -18t3.5 -13 q10 -55 10 -100q0 -57 -6 -82q-1 -5 -4 -18.5t-4 -18.5q-3 -7 -6 -19.5t-6 -19.5q-1 -5 -6.5 -14.5t-6.5 -13.5q-3 -5 -7 -15.5t-7 -15.5q-29 -52 -35 -62l211 -206l-143 -146l-211 211q-11 -11 -33 -24q-2 -1 -13 -7t-16 -10q-66 -34 -110 -43q-53 -12 -117 -12 q-26 0 -72 4q-33 3 -65 14q-5 1 -17.5 5.5t-17.5 5.5q-7 3 -18.5 8t-18.5 8q-66 37 -78 45l-211 -205l-143 144l211 211q-46 58 -68 131q-22 65 -22 145q0 57 8 98t31 92q6 14 22 46q10 14 13 24q3 3 8.5 11.5t7.5 11.5zM406 768q0 -118 81 -199q82 -82 197 -82t197 82 t82 199q0 115 -82 197t-197 82v4q-121 -10 -197 -86q-81 -81 -81 -197z" />
<glyph unicode="&#xa5;" d="M-80 1343h639v-149q-78 -11 -115 -27q-30 -17 -30 -57q0 -22 8 -43q9 -24 29 -57l182 -326l145 283q19 33 43 86q10 20 15 45v12q0 46 -31 59q-23 18 -109 21v153h549v-149q-109 -12 -158 -70q-54 -63 -88 -139l-24 -55q-1 -4 -6 -13.5t-6 -13.5q-3 -4 -7.5 -14.5 t-7.5 -14.5l223 5v-166h-309l-63 -129h372v-168h-430v-115q0 -93 25 -115q23 -20 127 -20l53 4v-170h-708v170h73q0 -4 4 -4h4h9q79 3 98 22q16 22 16 109v119h-430v168h373l-74 129h-299v166h205q-1 1 -2.5 3.5t-4 7t-5.5 7.5q-1 3 -3 6t-3 6q-1 1 -3 5.5t-3 5.5 q-5 5 -5 10q-1 1 -3 5t-3 5q-4 4 -4 10q-1 1 -3 5.5t-3 5.5q-40 82 -96 149q-50 68 -152 80z" />
<glyph unicode="&#xa7;" d="M98 489q0 106 52 185q48 76 145 117q-57 47 -94 112q-31 67 -31 137q0 157 127 260q128 105 321 105q167 0 277 -72q109 -71 109 -180q0 -73 -46 -119q-43 -43 -118 -43q-58 0 -95 37q-36 36 -36 90q0 5 6 35q2 3 7.5 15t10.5 18l6 6v2q1 1 3 4t3 4q3 4 5 6q1 3 4 8.5 t4 8.5v4q-4 0 -7 1t-7 2.5t-7 2.5q-3 0 -8.5 2.5t-7.5 3.5q-5 2 -15.5 5t-15.5 5q-20 4 -33 4q-12 0 -18 2h-18q-98 0 -158 -45q-62 -41 -62 -108q0 -70 70 -107q61 -32 166 -69q8 -3 24.5 -8.5t24.5 -8.5q9 -3 27 -8t26 -8q118 -39 230 -113q106 -69 106 -215 q0 -84 -39 -151q-39 -61 -127 -125q-8 -2 -18 -12q-5 -5 -8 -5q-7 -2 -11 -6q1 -1 4.5 -3t4.5 -3q4 -4 6 -4q75 -56 98 -106q31 -47 31 -134q0 -173 -135 -284t-351 -111q-173 0 -286 78q-113 76 -113 197q0 80 49 120q50 50 121 50q61 0 98 -37q39 -39 39 -97q0 -12 -4 -32 q-7 -27 -8 -29q-2 -3 -9 -13t-11 -16q-3 -3 -8 -9.5t-11 -12.5t-12 -10q3 -1 7 -4.5t7 -4.5q1 -1 6 -4t6 -4q3 -1 6.5 -3t6.5 -3q1 -1 5 -3t5 -3q3 -1 37 -8q28 -4 43 -4q116 0 192 49q78 50 78 125q0 49 -26 86q-24 35 -101 63q-48 18 -51 19q-8 3 -28 8.5t-33 9.5 q-6 1 -16.5 4t-12.5 4q-5 1 -15.5 4t-15.5 4q-20 4 -29 11q-5 1 -15 5t-15 5q-120 38 -219 108q-99 71 -99 213zM315 578q0 -48 33 -84q33 -39 88 -64q4 -1 10 -3.5t14 -6.5t13 -6q2 -1 45 -17q19 -4 33 -12l18 -6q3 -1 8.5 -3t8.5 -3q43 -14 73 -21q33 -8 66 -8q49 0 90 41 q39 48 39 96q0 43 -29 80q-25 33 -88 60q-146 63 -192 75q-59 21 -94 21q-53 0 -89 -33q-37 -34 -45 -88v4q-2 -6 -2 -14v-8z" />
<glyph unicode="&#xa8;" horiz-adv-x="1024" d="M160 1237q0 52 37 92q39 39 92 39v4q56 -10 92 -43q39 -42 39 -92q0 -53 -39 -92q-40 -37 -92 -37q-55 0 -92 37t-37 92zM604 1237q0 52 37 92q39 39 92 39v4q57 -10 90 -43q39 -42 39 -92q0 -53 -39 -92q-37 -37 -90 -37q-55 0 -92 37t-37 92z" />
<glyph unicode="&#xa9;" horiz-adv-x="1583" d="M70 680q0 301 213 514q214 211 516 211v4q298 -9 506 -217q211 -214 211 -512t-211 -512q-211 -211 -506 -211q-307 0 -516 209q-213 210 -213 514zM225 680q0 -243 168 -414q169 -172 404 -172q234 0 397 172q166 169 166 414q0 243 -166 412q-163 172 -397 172v4 q-241 -9 -406 -174q-166 -175 -166 -414zM379 670q0 190 115 305q119 119 301 119q45 0 94 -11q9 -1 43 -14q38 -16 41 -18q2 -1 24 -17q4 -3 29 -18l25 63h104v-325h-127q0 87 -57 147q-55 64 -148 64q-101 0 -161 -76q-60 -75 -60 -207q0 -143 57 -215q59 -74 164 -74 q103 0 150 62q45 60 67 151l134 4l-3 -8q-15 -160 -120 -248q-101 -88 -263 -88q-173 0 -294 115q-115 115 -115 289z" />
<glyph unicode="&#xaa;" horiz-adv-x="780" d="M94 975q0 72 47 98q54 30 109 43q4 0 16 4q7 0 19 4q39 7 84 25q34 12 34 51q0 28 -26 51q-24 21 -66 21h-10q-6 -2 -10 -2h-10q-6 -2 -11 -2h-4q-2 -2 -6 -2h-10q1 -1 3.5 -5t4.5 -6t6 -2q1 -1 4 -5t4 -5q0 -3 3 -6t4 -6q8 -11 8 -27q0 -33 -25 -55q-24 -21 -57 -21 q-42 0 -66 27q-26 23 -26 66q0 63 57 100q58 37 158 37q131 0 184 -41q57 -39 57 -131v-223q0 -21 2 -27q6 -6 13 -6q12 0 14 10q4 12 4 31v67h84v-63q0 -79 -35 -117q-32 -35 -104 -35q-47 0 -86 17q-37 22 -49 53q-23 -30 -70 -51q-51 -19 -90 -19q-78 0 -117 39 q-41 38 -41 113zM109 604v117h563v-117h-563zM262 983q0 -49 53 -49q37 0 60 20q26 23 26 47v70q-3 -8 -8 -8h-4l-4 -2q-1 0 -5 -1t-5 -1q-12 -4 -13 -4q-17 -4 -75 -29q-25 -16 -25 -43z" />
<glyph unicode="&#xab;" horiz-adv-x="956" d="M76 494q0 26 10 49q15 30 33 53l196 250h170l-131 -246q-1 -2 -2 -4.5t-1.5 -3.5t-0.5 -2v-2l-2 -2q-15 -27 -26 -60q-11 -25 -11 -43q0 -29 11 -51q14 -29 26 -45q0 -4 4 -8q0 -2 4 -6l129 -221h-170l-194 241l-12 13q-1 3 -5.5 9.5t-5.5 10.5q-1 3 -5 8.5t-5 9.5 q-1 3 -3 8.5t-3 8.5q-1 6 -3.5 16.5t-2.5 16.5zM438 494q0 20 13 49q17 34 34 53l193 250h170l-131 -246q-5 -13 -16 -35.5t-15 -34.5q-10 -22 -10 -47q0 -31 10 -49q8 -25 27 -47q0 -4 4 -8q0 -2 4 -6l127 -221h-170l-193 241h-2q-8 0 -8 10q-4 0 -4 5q-17 24 -25 45 q-8 19 -8 41z" />
<glyph unicode="&#xad;" horiz-adv-x="595" d="M20 371v256h555v-256h-555z" />
<glyph unicode="&#xae;" horiz-adv-x="1583" d="M70 680q0 301 213 514q214 211 516 211v4q298 -9 506 -217q211 -214 211 -512t-211 -512q-211 -211 -506 -211q-307 0 -516 209q-213 210 -213 514zM225 680q0 -243 168 -414q169 -172 404 -172q234 0 397 172q166 169 166 414q0 243 -166 412q-163 172 -397 172v4 q-241 -9 -406 -174q-166 -175 -166 -414zM395 295v108h39q6 -2 15 -2t30 7q13 10 13 36v474q0 22 -13 32q-15 11 -45 11l-39 4v108h490q119 -9 176 -55q63 -54 63 -146q0 -74 -37 -108q-45 -42 -94 -62l-4 -2q-2 -2 -6 -2q-4 -4 -8 -4l2 2q0 -6 14 -14q12 -3 33 -20 q18 -18 31 -39q14 -28 14 -58v-108q0 -24 6 -54q10 -16 21 -16q17 0 20 16q8 13 8 50v73h105v-69q0 -99 -45 -144q-43 -43 -133 -43q-135 0 -160 68q-28 74 -31 170v8q-2 2 -2 8v21q-3 67 -22 80q-14 20 -78 20l-60 4v-200q0 -33 11 -41q12 -9 45 -9l41 4v-108h-400z M698 760h74q2 -2 8 -2h6q63 0 91 22q32 22 32 82q0 53 -35 74q-33 20 -116 20l-60 5v-201z" />
<glyph unicode="&#xb0;" horiz-adv-x="1024" d="M305 1296q0 86 60 146q61 61 149 61v4q89 -9 145 -65q62 -62 62 -146q0 -87 -62 -149q-60 -60 -145 -60q-87 0 -149 62q-60 60 -60 147zM414 1296q0 -35 28 -71q37 -29 72 -29q41 0 70 29q28 36 28 71q0 42 -28 70q-29 29 -70 29v4q-42 -9 -72 -33q-28 -28 -28 -70z" />
<glyph unicode="&#xb1;" horiz-adv-x="1024" d="M115 137v213h792v-213h-792zM115 717v205h288v307h213v-307h291v-205h-291v-307h-213v307h-288z" />
<glyph unicode="&#xb4;" horiz-adv-x="1024" d="M295 1092l125 327h262l37 -14q12 -9 12 -25q0 -8 -14 -32q-18 -23 -41 -43l-230 -213h-151z" />
<glyph unicode="&#xb5;" horiz-adv-x="1177" d="M129 -354v1337h264v-500q0 -141 49 -211q51 -67 152 -67q95 0 143 69q47 71 47 213v496h265v-983h-265v115q-36 -73 -82 -107q-58 -28 -110 -28q-60 0 -113 24q-40 24 -86 96v-454h-264z" />
<glyph unicode="&#xb6;" horiz-adv-x="1366" d="M57 1001q0 214 146 287q148 74 327 74l687 4v-205h-150v-1349h-225v1349h-170v-1349h-226v845q-2 -2 -12 -2q-151 0 -264 84q-113 85 -113 262z" />
<glyph unicode="&#xb8;" horiz-adv-x="1024" d="M276 -389l41 92q64 -21 80 -22q37 -9 66 -9q45 0 67 19q25 16 25 49q0 22 -23 45q-29 18 -59 18h-4h-18q-3 0 -7.5 -1t-7.5 -1q-5 0 -18 -3.5t-21 -4.5l-39 39l113 168h119l-76 -119q27 6 35 6h6h18q77 0 125 -39q50 -41 50 -100q0 -85 -70 -137q-68 -53 -174 -53 q-26 0 -58 4q-27 3 -51 6q-22 2 -57 18q-36 16 -62 25z" />
<glyph unicode="&#xba;" horiz-adv-x="753" d="M94 1096v4q9 126 80 188q73 70 205 70t207 -72q73 -70 73 -196q0 -119 -77 -193t-203 -74q-133 0 -209 70t-76 203zM109 604v117h538v-117h-538zM272 1096v4q0 -88 27 -135q23 -45 78 -45q52 0 78 45q26 50 26 131q0 79 -28 121q-26 45 -76 45t-76 -45q-29 -43 -29 -121z " />
<glyph unicode="&#xbb;" horiz-adv-x="956" d="M109 152l129 225v-2q2 0 3 2t2 5t3 5q12 21 24 45q13 26 13 51q0 10 -11 43q-1 3 -10.5 26t-15.5 34q-4 0 -4 4v4l-2 2l-131 250h170l196 -246q25 -41 33 -57q10 -30 10 -49q0 -22 -8 -41q-5 -15 -27 -50q-2 -2 -5 -7t-5 -7l-194 -237h-170zM471 152l129 225v-2q2 0 3 2 t2 5t3 5l2 2q2 4 11 20t12.5 23.5t7.5 22t4 28.5q0 13 -10 43q-25 57 -27 60v2l-2 2v4l-2 2l-133 250h172l195 -246q20 -32 32 -57q11 -33 11 -49q0 -17 -7 -33q-1 -3 -3 -8.5t-3 -8.5q-1 -4 -4 -10l-4 -8q-3 -11 -12 -20q-2 -7 -12 -17l-193 -237h-172z" />
<glyph unicode="&#xbf;" horiz-adv-x="1120" d="M55 -29q0 122 64 195q54 61 143 133q1 1 21 16q3 1 6 4.5t6 4.5q1 1 5 4t5 4q68 52 115 102q49 58 49 137v4h184q0 -10 2 -16v-24v-7q0 -91 -43 -151q-40 -63 -92 -125q-1 -1 -4 -5t-4 -5l-8 -9q-34 -36 -84 -114q-37 -61 -37 -129q0 -90 68 -152q71 -59 178 -59 q93 0 143 33q54 25 64 90h-9q-4 0 -4 -2h-4h-2q-72 0 -119 41q-41 41 -41 108q0 75 52 115q49 43 137 43q86 0 137 -68q55 -61 55 -164q0 -177 -139 -280q-137 -107 -369 -107q-213 0 -344 107q-131 101 -131 276zM387 834q0 71 51 122q52 52 123 52v4q74 -9 123 -56 q51 -54 51 -122q0 -72 -51 -123q-52 -52 -123 -52q-74 0 -123 52q-51 48 -51 123z" />
<glyph unicode="&#xc0;" horiz-adv-x="1722" d="M35 0v172q2 -2 10 -2h10q66 0 109 16q43 19 82 99q15 36 16 37l4 8t4 10q1 3 4.5 8t4.5 8q0 4 2 6q1 0 1.5 2.5t1.5 5.5t3 5q3 4 6 11t6 11q1 2 5 10.5t5 12.5q10 17 21 47l360 899h311l426 -981q2 -5 4.5 -12t4 -11t4.5 -8q1 -5 5 -14t5 -12q3 -4 6 -12.5t6 -12.5 q1 -4 5.5 -10.5t5.5 -9.5q37 -65 75 -88q47 -27 140 -27v-168h-758v172h71q6 -2 13 -2h10q96 0 96 51q0 23 -8 47q-3 7 -6 16t-6.5 20.5t-5.5 17.5q-1 3 -4.5 8t-4.5 8l-4 8t-4 10q-16 36 -16 37q-1 3 -5.5 15t-8.5 18v4h-510q-1 -4 -4 -9.5t-3 -8.5q-1 -4 -4 -10.5t-4 -8.5 q-4 -19 -12 -33q-1 -4 -5 -12t-5 -12q-4 -4 -4 -10q-3 -10 -10.5 -31t-10.5 -31q-1 -5 -2.5 -15t-2.5 -18t-1 -14q0 -32 23 -41q19 -8 92 -8l59 4v-172h-608zM602 606h367l-193 451zM643 1769q0 35 49 35l264 4l123 -327h-151l-230 217q-22 17 -41 41q-14 20 -14 30z" />
<glyph unicode="&#xc1;" horiz-adv-x="1722" d="M35 0v172q2 -2 10 -2h10q66 0 109 16q43 19 82 99q15 36 16 37l4 8t4 10q1 3 4.5 8t4.5 8q0 4 2 6q1 0 1.5 2.5t1.5 5.5t3 5q3 4 6 11t6 11q1 2 5 10.5t5 12.5q10 17 21 47l360 899h311l426 -981q2 -5 4.5 -12t4 -11t4.5 -8q1 -5 5 -14t5 -12q3 -4 6 -12.5t6 -12.5 q1 -4 5.5 -10.5t5.5 -9.5q37 -65 75 -88q47 -27 140 -27v-168h-758v172h71q6 -2 13 -2h10q96 0 96 51q0 23 -8 47q-3 7 -6 16t-6.5 20.5t-5.5 17.5q-1 3 -4.5 8t-4.5 8l-4 8t-4 10q-16 36 -16 37q-1 3 -5.5 15t-8.5 18v4h-510q-1 -4 -4 -9.5t-3 -8.5q-1 -4 -4 -10.5t-4 -8.5 q-4 -19 -12 -33q-1 -4 -5 -12t-5 -12q-4 -4 -4 -10q-3 -10 -10.5 -31t-10.5 -31q-1 -5 -2.5 -15t-2.5 -18t-1 -14q0 -32 23 -41q19 -8 92 -8l59 4v-172h-608zM602 606h367l-193 451zM643 1481l125 327h262l37 -14q12 -9 12 -25q0 -7 -14 -32q-18 -23 -41 -43l-230 -213h-151 z" />
<glyph unicode="&#xc2;" horiz-adv-x="1722" d="M35 0v172q2 -2 10 -2h10q66 0 109 16q43 19 82 99q15 36 16 37l4 8t4 10q1 3 4.5 8t4.5 8q0 4 2 6q1 0 1.5 2.5t1.5 5.5t3 5q3 4 6 11t6 11q1 2 5 10.5t5 12.5q10 17 21 47l360 899h311l426 -981q2 -5 4.5 -12t4 -11t4.5 -8q1 -5 5 -14t5 -12q3 -4 6 -12.5t6 -12.5 q1 -4 5.5 -10.5t5.5 -9.5q37 -65 75 -88q47 -27 140 -27v-168h-758v172h71q6 -2 13 -2h10q96 0 96 51q0 23 -8 47q-3 7 -6 16t-6.5 20.5t-5.5 17.5q-1 3 -4.5 8t-4.5 8l-4 8t-4 10q-16 36 -16 37q-1 3 -5.5 15t-8.5 18v4h-510q-1 -4 -4 -9.5t-3 -8.5q-1 -4 -4 -10.5t-4 -8.5 q-4 -19 -12 -33q-1 -4 -5 -12t-5 -12q-4 -4 -4 -10q-3 -10 -10.5 -31t-10.5 -31q-1 -5 -2.5 -15t-2.5 -18t-1 -14q0 -32 23 -41q19 -8 92 -8l59 4v-172h-608zM522 1481l211 325h258l207 -325h-240l-131 186l-129 -186h-176zM602 606h367l-193 451z" />
<glyph unicode="&#xc3;" horiz-adv-x="1722" d="M35 0v172q2 -2 10 -2h10q66 0 109 16q43 19 82 99q15 36 16 37l4 8t4 10q1 3 4.5 8t4.5 8q0 4 2 6q1 0 1.5 2.5t1.5 5.5t3 5q3 4 6 11t6 11q1 2 5 10.5t5 12.5q10 17 21 47l360 899h311l426 -981q2 -5 4.5 -12t4 -11t4.5 -8q1 -5 5 -14t5 -12q3 -4 6 -12.5t6 -12.5 q1 -4 5.5 -10.5t5.5 -9.5q37 -65 75 -88q47 -27 140 -27v-168h-758v172h71q6 -2 13 -2h10q96 0 96 51q0 23 -8 47q-3 7 -6 16t-6.5 20.5t-5.5 17.5q-1 3 -4.5 8t-4.5 8l-4 8t-4 10q-16 36 -16 37q-1 3 -5.5 15t-8.5 18v4h-510q-1 -4 -4 -9.5t-3 -8.5q-1 -4 -4 -10.5t-4 -8.5 q-4 -19 -12 -33q-1 -4 -5 -12t-5 -12q-4 -4 -4 -10q-3 -10 -10.5 -31t-10.5 -31q-1 -5 -2.5 -15t-2.5 -18t-1 -14q0 -32 23 -41q19 -8 92 -8l59 4v-172h-608zM438 1509q22 135 82 197q59 65 166 65q42 0 92 -16q15 -5 44.5 -15.5t45.5 -15.5q21 -9 45 -18q7 -3 21.5 -8.5 t21.5 -8.5q23 -10 43 -10q28 -4 41 -4q45 0 60 21q23 23 26 71l156 4q-15 -134 -82 -204q-63 -72 -168 -72q-53 0 -96 14q-19 5 -50 17t-42 16q-16 5 -44.5 15.5t-43.5 15.5q-47 14 -80 14q-42 0 -62 -20q-21 -15 -24 -62v4h-152zM602 606h367l-193 451z" />
<glyph unicode="&#xc4;" horiz-adv-x="1722" d="M35 0v172q2 -2 10 -2h10q66 0 109 16q43 19 82 99q15 36 16 37l4 8t4 10q1 3 4.5 8t4.5 8q0 4 2 6q1 0 1.5 2.5t1.5 5.5t3 5q3 4 6 11t6 11q1 2 5 10.5t5 12.5q10 17 21 47l360 899h311l426 -981q2 -5 4.5 -12t4 -11t4.5 -8q1 -5 5 -14t5 -12q3 -4 6 -12.5t6 -12.5 q1 -4 5.5 -10.5t5.5 -9.5q37 -65 75 -88q47 -27 140 -27v-168h-758v172h71q6 -2 13 -2h10q96 0 96 51q0 23 -8 47q-3 7 -6 16t-6.5 20.5t-5.5 17.5q-1 3 -4.5 8t-4.5 8l-4 8t-4 10q-16 36 -16 37q-1 3 -5.5 15t-8.5 18v4h-510q-1 -4 -4 -9.5t-3 -8.5q-1 -4 -4 -10.5t-4 -8.5 q-4 -19 -12 -33q-1 -4 -5 -12t-5 -12q-4 -4 -4 -10q-3 -10 -10.5 -31t-10.5 -31q-1 -5 -2.5 -15t-2.5 -18t-1 -14q0 -32 23 -41q19 -8 92 -8l59 4v-172h-608zM510 1626q0 52 37 92q39 39 92 39v4q56 -10 92 -43q39 -42 39 -92q0 -53 -39 -92q-40 -37 -92 -37q-55 0 -92 37 t-37 92zM602 606h367l-193 451zM954 1626q0 52 37 92q39 39 92 39v4q57 -10 90 -43q39 -42 39 -92q0 -53 -39 -92q-37 -37 -90 -37q-55 0 -92 37t-37 92z" />
<glyph unicode="&#xc5;" horiz-adv-x="1722" d="M35 0v172q2 -2 10 -2h10q66 0 109 16q43 19 82 99q15 36 16 37l4 8t4 10q1 3 4.5 8t4.5 8q0 4 2 6q1 0 1.5 2.5t1.5 5.5t3 5q3 4 6 11t6 11q1 2 5 10.5t5 12.5q10 17 21 47l360 899h311l426 -981q2 -5 4.5 -12t4 -11t4.5 -8q1 -5 5 -14t5 -12q3 -4 6 -12.5t6 -12.5 q1 -4 5.5 -10.5t5.5 -9.5q37 -65 75 -88q47 -27 140 -27v-168h-758v172h71q6 -2 13 -2h10q96 0 96 51q0 23 -8 47q-3 7 -6 16t-6.5 20.5t-5.5 17.5q-1 3 -4.5 8t-4.5 8l-4 8t-4 10q-16 36 -16 37q-1 3 -5.5 15t-8.5 18v4h-510q-1 -4 -4 -9.5t-3 -8.5q-1 -4 -4 -10.5t-4 -8.5 q-4 -19 -12 -33q-1 -4 -5 -12t-5 -12q-4 -4 -4 -10q-3 -10 -10.5 -31t-10.5 -31q-1 -5 -2.5 -15t-2.5 -18t-1 -14q0 -32 23 -41q19 -8 92 -8l59 4v-172h-608zM602 606h367l-193 451zM653 1685q0 86 60 146q61 61 149 61v4q89 -9 145 -65q62 -62 62 -146q0 -87 -62 -149 q-60 -60 -145 -60q-87 0 -149 62q-60 60 -60 147zM762 1685q0 -35 28 -71q37 -29 72 -29q41 0 70 29q28 36 28 71q0 42 -28 70q-29 29 -70 29v4q-42 -9 -72 -33q-28 -28 -28 -70z" />
<glyph unicode="&#xc6;" horiz-adv-x="2263" d="M12 0v172q6 -2 13 -2q56 0 84 25q33 23 61 65q3 3 9.5 14.5t10.5 16.5q10 17 23 33l487 772q17 22 19 28q6 8 6 21q0 23 -18 33q-17 10 -60 10l-135 4v174h1634v-532h-184v24q-2 8 -2 31q-5 54 -8 67q-2 32 -23 97q-13 42 -43 75q-26 33 -84 46q-52 12 -153 12l-287 4 v-391h100q2 -2 8 -2h7q62 0 86 24q28 28 28 99v110h185v-655h-185v94q0 75 -28 111q-27 34 -99 34l-102 4v-442h285h28q193 0 240 107q47 112 47 301l184 4v-588h-1339v168h106q6 -2 15 -2q51 0 71 20q25 22 25 74v262h-442l-142 -229q-26 -49 -28 -55q-9 -15 -9 -29 q0 -22 19 -33q19 -8 67 -8l107 4v-172h-584zM692 698h332v492h-25z" />
<glyph unicode="&#xc7;" horiz-adv-x="1546" d="M82 664q0 327 201 534t520 207q72 0 147 -14t129 -43q7 -3 66 -39q12 -7 33.5 -23t33.5 -24l45 118h164v-561h-198q-12 177 -111 279t-260 102q-184 0 -293 -139q-108 -134 -108 -377q0 -256 102 -391q108 -135 297 -135q159 0 258 96q97 93 133 283l209 4 q-34 -285 -207 -435q-171 -149 -452 -149q-309 0 -508 199q-201 201 -201 508zM536 -389l41 92q64 -21 80 -22q37 -9 66 -9q45 0 67 19q25 16 25 49q0 22 -23 45q-29 18 -59 18h-4h-18q-3 0 -7.5 -1t-7.5 -1q-5 0 -18 -3.5t-21 -4.5l-39 39l113 168h119l-76 -119q27 6 35 6 h6h18q77 0 125 -39q50 -41 50 -100q0 -85 -70 -137q-68 -53 -174 -53q-26 0 -58 4q-27 3 -51 6q-22 2 -57 18q-36 16 -62 25z" />
<glyph unicode="&#xc8;" horiz-adv-x="1599" d="M74 0v168h106q6 -2 15 -2q51 0 71 20q25 22 25 74v840q0 47 -25 69q-26 23 -86 23l-106 4v170h1399v-535h-183q-13 171 -57 261q-46 94 -244 94l-360 4v-397h139q2 -2 8 -2h6q84 0 109 32q33 33 33 127v76h184v-651h-184v82q0 99 -31 123q-23 30 -125 30l-139 4v-438h387 q2 -2 6 -2h4q138 0 199 94q65 95 65 314l183 4v-586h-1399zM582 1769q0 35 49 35l264 4l123 -327h-151l-230 217q-22 17 -41 41q-14 20 -14 30z" />
<glyph unicode="&#xc9;" horiz-adv-x="1599" d="M74 0v168h106q6 -2 15 -2q51 0 71 20q25 22 25 74v840q0 47 -25 69q-26 23 -86 23l-106 4v170h1399v-535h-183q-13 171 -57 261q-46 94 -244 94l-360 4v-397h139q2 -2 8 -2h6q84 0 109 32q33 33 33 127v76h184v-651h-184v82q0 99 -31 123q-23 30 -125 30l-139 4v-438h387 q2 -2 6 -2h4q138 0 199 94q65 95 65 314l183 4v-586h-1399zM582 1481l125 327h262l37 -14q12 -9 12 -25q0 -7 -14 -32q-18 -23 -41 -43l-230 -213h-151z" />
<glyph unicode="&#xca;" horiz-adv-x="1599" d="M74 0v168h106q6 -2 15 -2q51 0 71 20q25 22 25 74v840q0 47 -25 69q-26 23 -86 23l-106 4v170h1399v-535h-183q-13 171 -57 261q-46 94 -244 94l-360 4v-397h139q2 -2 8 -2h6q84 0 109 32q33 33 33 127v76h184v-651h-184v82q0 99 -31 123q-23 30 -125 30l-139 4v-438h387 q2 -2 6 -2h4q138 0 199 94q65 95 65 314l183 4v-586h-1399zM461 1481l211 325h258l207 -325h-240l-131 186l-129 -186h-176z" />
<glyph unicode="&#xcb;" horiz-adv-x="1599" d="M74 0v168h106q6 -2 15 -2q51 0 71 20q25 22 25 74v840q0 47 -25 69q-26 23 -86 23l-106 4v170h1399v-535h-183q-13 171 -57 261q-46 94 -244 94l-360 4v-397h139q2 -2 8 -2h6q84 0 109 32q33 33 33 127v76h184v-651h-184v82q0 99 -31 123q-23 30 -125 30l-139 4v-438h387 q2 -2 6 -2h4q138 0 199 94q65 95 65 314l183 4v-586h-1399zM449 1626q0 52 37 92q39 39 92 39v4q56 -10 92 -43q39 -42 39 -92q0 -53 -39 -92q-40 -37 -92 -37q-55 0 -92 37t-37 92zM893 1626q0 52 37 92q39 39 92 39v4q57 -10 90 -43q39 -42 39 -92q0 -53 -39 -92 q-37 -37 -90 -37q-55 0 -92 37t-37 92z" />
<glyph unicode="&#xcc;" horiz-adv-x="903" d="M76 0v168h106q6 -2 15 -2q51 0 71 20q25 22 25 74v840q0 47 -25 69q-26 23 -86 23l-106 4v170h753v-170h-88q-66 -10 -86 -27q-24 -21 -24 -73v-832q0 -57 24 -78q22 -22 86 -22l88 4v-168h-753zM234 1769q0 35 49 35l264 4l123 -327h-151l-230 217q-22 17 -41 41 q-14 20 -14 30z" />
<glyph unicode="&#xcd;" horiz-adv-x="903" d="M76 0v168h106q6 -2 15 -2q51 0 71 20q25 22 25 74v840q0 47 -25 69q-26 23 -86 23l-106 4v170h753v-170h-88q-66 -10 -86 -27q-24 -21 -24 -73v-832q0 -57 24 -78q22 -22 86 -22l88 4v-168h-753zM234 1481l125 327h262l37 -14q12 -9 12 -25q0 -7 -14 -32q-18 -23 -41 -43 l-230 -213h-151z" />
<glyph unicode="&#xce;" horiz-adv-x="903" d="M76 0v168h106q6 -2 15 -2q51 0 71 20q25 22 25 74v840q0 47 -25 69q-26 23 -86 23l-106 4v170h753v-170h-88q-66 -10 -86 -27q-24 -21 -24 -73v-832q0 -57 24 -78q22 -22 86 -22l88 4v-168h-753zM115 1481l211 325h258l207 -325h-240l-131 186l-129 -186h-176z" />
<glyph unicode="&#xcf;" horiz-adv-x="903" d="M76 0v168h106q6 -2 15 -2q51 0 71 20q25 22 25 74v840q0 47 -25 69q-26 23 -86 23l-106 4v170h753v-170h-88q-66 -10 -86 -27q-24 -21 -24 -73v-832q0 -57 24 -78q22 -22 86 -22l88 4v-168h-753zM101 1626q0 52 37 92q39 39 92 39v4q56 -10 92 -43q39 -42 39 -92 q0 -53 -39 -92q-40 -37 -92 -37q-55 0 -92 37t-37 92zM545 1626q0 52 37 92q39 39 92 39v4q57 -10 90 -43q39 -42 39 -92q0 -53 -39 -92q-37 -37 -90 -37q-55 0 -92 37t-37 92z" />
<glyph unicode="&#xd1;" horiz-adv-x="1775" d="M76 0v168h106q6 -2 15 -2q51 0 71 20q25 22 25 74v840q0 47 -25 69q-26 23 -86 23l-106 4v170h563l670 -938v672q0 47 -25 69q-26 23 -86 23l-96 4v170h612v-170h-80q-66 -10 -86 -27q-24 -21 -24 -73v-1096h-330l-686 958v-694q0 -57 24 -78q22 -22 86 -22l107 4v-168 h-649zM465 1509q22 135 82 197q59 65 166 65q42 0 92 -16q15 -5 44.5 -15.5t45.5 -15.5q21 -9 45 -18q7 -3 21.5 -8.5t21.5 -8.5q23 -10 43 -10q28 -4 41 -4q45 0 60 21q23 23 26 71l156 4q-15 -134 -82 -204q-63 -72 -168 -72q-53 0 -96 14q-19 5 -50 17t-42 16 q-16 5 -44 15.5t-44 15.5q-47 14 -80 14q-42 0 -62 -20q-21 -15 -24 -62v4h-152z" />
<glyph unicode="&#xd2;" horiz-adv-x="1689" d="M82 674v4q0 335 207 530q206 197 559 197q340 0 549 -197q211 -199 211 -512q0 -353 -205 -546q-196 -193 -569 -193q-347 0 -549 190q-203 197 -203 527zM451 684v4q0 -271 100 -412q101 -145 287 -145q187 0 290 139q105 140 105 400q0 263 -100 411q-103 148 -283 148 q-186 0 -295 -146q-104 -147 -104 -399zM627 1769q0 35 49 35l264 4l123 -327h-151l-230 217q-22 17 -41 41q-14 20 -14 30z" />
<glyph unicode="&#xd3;" horiz-adv-x="1689" d="M82 674v4q0 335 207 530q206 197 559 197q340 0 549 -197q211 -199 211 -512q0 -353 -205 -546q-196 -193 -569 -193q-347 0 -549 190q-203 197 -203 527zM451 684v4q0 -271 100 -412q101 -145 287 -145q187 0 290 139q105 140 105 400q0 263 -100 411q-103 148 -283 148 q-186 0 -295 -146q-104 -147 -104 -399zM627 1481l125 327h262l37 -14q12 -9 12 -25q0 -7 -14 -32q-18 -23 -41 -43l-230 -213h-151z" />
<glyph unicode="&#xd4;" horiz-adv-x="1689" d="M82 674v4q0 335 207 530q206 197 559 197q340 0 549 -197q211 -199 211 -512q0 -353 -205 -546q-196 -193 -569 -193q-347 0 -549 190q-203 197 -203 527zM451 684v4q0 -271 100 -412q101 -145 287 -145q187 0 290 139q105 140 105 400q0 263 -100 411q-103 148 -283 148 q-186 0 -295 -146q-104 -147 -104 -399zM506 1481l211 325h258l207 -325h-240l-131 186l-129 -186h-176z" />
<glyph unicode="&#xd5;" horiz-adv-x="1689" d="M82 674v4q0 335 207 530q206 197 559 197q340 0 549 -197q211 -199 211 -512q0 -353 -205 -546q-196 -193 -569 -193q-347 0 -549 190q-203 197 -203 527zM422 1509q22 135 82 197q59 65 166 65q42 0 92 -16q16 -5 45.5 -15.5t44.5 -15.5q21 -9 45 -18q7 -3 21.5 -8.5 t21.5 -8.5q23 -10 43 -10q28 -4 41 -4q45 0 60 21q23 23 26 71l156 4q-15 -134 -82 -204q-63 -72 -168 -72q-53 0 -96 14q-19 5 -50 17t-42 16q-15 5 -44 15.5t-44 15.5q-47 14 -80 14q-42 0 -62 -20q-21 -15 -24 -62v4h-152zM451 684v4q0 -271 100 -412q101 -145 287 -145 q187 0 290 139q105 140 105 400q0 263 -100 411q-103 148 -283 148q-186 0 -295 -146q-104 -147 -104 -399z" />
<glyph unicode="&#xd6;" horiz-adv-x="1689" d="M82 674v4q0 335 207 530q206 197 559 197q340 0 549 -197q211 -199 211 -512q0 -353 -205 -546q-196 -193 -569 -193q-347 0 -549 190q-203 197 -203 527zM451 684v4q0 -271 100 -412q101 -145 287 -145q187 0 290 139q105 140 105 400q0 263 -100 411q-103 148 -283 148 q-186 0 -295 -146q-104 -147 -104 -399zM494 1626q0 52 37 92q39 39 92 39v4q56 -10 92 -43q39 -42 39 -92q0 -53 -39 -92q-40 -37 -92 -37q-55 0 -92 37t-37 92zM938 1626q0 52 37 92q39 39 92 39v4q57 -10 90 -43q39 -42 39 -92q0 -53 -39 -92q-37 -37 -90 -37 q-55 0 -92 37t-37 92z" />
<glyph unicode="&#xd8;" horiz-adv-x="1689" d="M82 674v4q0 335 207 530q206 197 559 197q340 0 549 -197q211 -199 211 -512q0 -353 -205 -546q-196 -193 -569 -193q-347 0 -549 190q-203 197 -203 527zM451 684v4q0 -271 100 -412q101 -145 287 -145q187 0 290 139q105 140 105 400q0 263 -100 411q-103 148 -283 148 q-186 0 -295 -146q-104 -147 -104 -399zM481 -410l469 1776h258l-469 -1776h-258z" />
<glyph unicode="&#xd9;" horiz-adv-x="1611" d="M27 1198v168h753v-168h-106q-66 -10 -86 -27q-25 -22 -25 -73v-617q0 -157 78 -241q76 -82 225 -82q117 0 193 49q80 48 100 131q7 26 10 70q5 63 5 88v606q0 47 -25 69q-26 23 -86 23l-88 4v168h594v-168h-66q-70 -10 -90 -27q-24 -21 -24 -73v-617q0 -288 -148 -409 q-148 -115 -430 -115q-240 0 -416 92q-170 93 -170 375v678q0 48 -24 69q-26 23 -86 23zM588 1769q0 35 49 35l264 4l123 -327h-151l-230 217q-22 17 -41 41q-14 20 -14 30z" />
<glyph unicode="&#xda;" horiz-adv-x="1611" d="M27 1198v168h753v-168h-106q-66 -10 -86 -27q-25 -22 -25 -73v-617q0 -157 78 -241q76 -82 225 -82q117 0 193 49q80 48 100 131q7 26 10 70q5 63 5 88v606q0 47 -25 69q-26 23 -86 23l-88 4v168h594v-168h-66q-70 -10 -90 -27q-24 -21 -24 -73v-617q0 -288 -148 -409 q-148 -115 -430 -115q-240 0 -416 92q-170 93 -170 375v678q0 48 -24 69q-26 23 -86 23zM588 1481l125 327h262l37 -14q12 -9 12 -25q0 -7 -14 -32q-18 -23 -41 -43l-230 -213h-151z" />
<glyph unicode="&#xdb;" horiz-adv-x="1611" d="M27 1198v168h753v-168h-106q-66 -10 -86 -27q-25 -22 -25 -73v-617q0 -157 78 -241q76 -82 225 -82q117 0 193 49q80 48 100 131q7 26 10 70q5 63 5 88v606q0 47 -25 69q-26 23 -86 23l-88 4v168h594v-168h-66q-70 -10 -90 -27q-24 -21 -24 -73v-617q0 -288 -148 -409 q-148 -115 -430 -115q-240 0 -416 92q-170 93 -170 375v678q0 48 -24 69q-26 23 -86 23zM467 1481l211 325h258l207 -325h-240l-131 186l-129 -186h-176z" />
<glyph unicode="&#xdc;" horiz-adv-x="1611" d="M27 1198v168h753v-168h-106q-66 -10 -86 -27q-25 -22 -25 -73v-617q0 -157 78 -241q76 -82 225 -82q117 0 193 49q80 48 100 131q7 26 10 70q5 63 5 88v606q0 47 -25 69q-26 23 -86 23l-88 4v168h594v-168h-66q-70 -10 -90 -27q-24 -21 -24 -73v-617q0 -288 -148 -409 q-148 -115 -430 -115q-240 0 -416 92q-170 93 -170 375v678q0 48 -24 69q-26 23 -86 23zM455 1626q0 52 37 92q39 39 92 39v4q56 -10 92 -43q39 -42 39 -92q0 -53 -39 -92q-40 -37 -92 -37q-55 0 -92 37t-37 92zM899 1626q0 52 37 92q39 39 92 39v4q57 -10 90 -43 q39 -42 39 -92q0 -53 -39 -92q-37 -37 -90 -37q-55 0 -92 37t-37 92z" />
<glyph unicode="&#xdd;" horiz-adv-x="1509" d="M0 1186v180h793v-176h-105q-51 -11 -57 -14q-19 -11 -19 -27q0 -9 4 -21q13 -17 13 -18q1 -1 3 -4t3 -4q0 -2 4 -6l219 -316l203 334q11 11 14 23q4 16 4 20q0 20 -12 23q-8 6 -47 6l-100 4v176h589v-176h-39q-7 -2 -47 -8q-17 -3 -37 -15q-22 -13 -57 -59 q-5 -7 -20 -30.5t-32 -48.5l-34 -50l-285 -442v-273q0 -56 25 -78q23 -20 86 -20l127 4v-170h-813v170h127q6 -2 16 -2q45 0 70 18q25 22 25 74v277l-392 538q-1 1 -3 2t-4 3t-3 5q-1 1 -4 5.5t-4 5.5q-6 8 -18 20q-34 43 -82 55q-51 15 -111 15zM537 1481l125 327h262 l37 -14q12 -9 12 -25q0 -7 -14 -32q-18 -23 -41 -43l-230 -213h-151z" />
<glyph unicode="&#xdf;" horiz-adv-x="1286" d="M68 0v166h75q6 -2 11 -2q29 0 47 18q16 22 16 72v776q0 166 133 266q138 101 359 101q181 0 311 -88q125 -87 125 -215q0 -101 -55 -162q-53 -65 -175 -103q149 -48 222 -143q80 -96 80 -254q0 -208 -99 -340q-98 -125 -260 -125q-117 0 -192 62q-66 63 -66 184v135h150 v-100q0 -67 12 -94t43 -27q39 0 61 68q21 70 21 198q0 79 -17 166q-13 71 -41 115q-25 36 -63 47q-47 14 -117 14l-35 4v162q2 -2 9 -2h8q77 0 143 29q66 35 66 139q0 76 -43 119q-41 47 -111 47q-101 0 -133 -55q-33 -50 -33 -205v-973h-452z" />
<glyph unicode="&#xe0;" horiz-adv-x="1206" d="M53 231q0 155 94 207q84 52 211 82q5 1 16.5 4t16.5 4q3 0 19 4q3 0 8 1.5t8 1.5q86 19 164 49q72 35 72 110q0 77 -60 119q-59 41 -170 41h-24q-8 -2 -21 -2q-15 0 -31 -4q-6 0 -10 -4q-2 0 -3.5 -0.5t-2.5 -1t-2.5 -1t-3.5 -1.5q-4 -4 -12 -4q-4 -4 -13 -7 q41 -13 72 -47q25 -28 25 -67q0 -69 -44 -107q-39 -39 -112 -39q-69 0 -115 52q-45 48 -45 129q0 122 107 186q104 68 301 68q246 0 356 -78q107 -76 107 -256v-451q0 -44 8 -57q9 -15 32 -15q25 0 37 21q11 26 11 72v120h137v-116q0 -142 -64 -215q-64 -64 -194 -64 q-104 0 -166 35q-56 25 -94 109q-64 -76 -142 -109q-78 -35 -176 -35q-135 0 -217 70q-80 74 -80 196zM358 266q0 -44 31 -84q38 -30 86 -30q76 0 127 45q55 47 55 104v156q-14 -11 -24 -13q-4 -4 -10 -4q-12 -4 -13 -4q-4 -1 -12 -4t-12 -4q-4 -4 -11 -4l-12 -4 q-16 -3 -28 -12q-5 -1 -15.5 -4.5t-15.5 -4.5h-2l-2 -2h-4q-48 -14 -97 -39q-41 -24 -41 -92zM385 1380q0 35 49 35l264 4l123 -327h-151l-230 217q-22 17 -41 41q-14 20 -14 30z" />
<glyph unicode="&#xe1;" horiz-adv-x="1206" d="M53 231q0 155 94 207q84 52 211 82q5 1 16.5 4t16.5 4q3 0 19 4q3 0 8 1.5t8 1.5q86 19 164 49q72 35 72 110q0 77 -60 119q-59 41 -170 41h-24q-8 -2 -21 -2q-15 0 -31 -4q-6 0 -10 -4q-2 0 -3.5 -0.5t-2.5 -1t-2.5 -1t-3.5 -1.5q-4 -4 -12 -4q-4 -4 -13 -7 q41 -13 72 -47q25 -28 25 -67q0 -69 -44 -107q-39 -39 -112 -39q-69 0 -115 52q-45 48 -45 129q0 122 107 186q104 68 301 68q246 0 356 -78q107 -76 107 -256v-451q0 -44 8 -57q9 -15 32 -15q25 0 37 21q11 26 11 72v120h137v-116q0 -142 -64 -215q-64 -64 -194 -64 q-104 0 -166 35q-56 25 -94 109q-64 -76 -142 -109q-78 -35 -176 -35q-135 0 -217 70q-80 74 -80 196zM358 266q0 -44 31 -84q38 -30 86 -30q76 0 127 45q55 47 55 104v156q-14 -11 -24 -13q-4 -4 -10 -4q-12 -4 -13 -4q-4 -1 -12 -4t-12 -4q-4 -4 -11 -4l-12 -4 q-16 -3 -28 -12q-5 -1 -15.5 -4.5t-15.5 -4.5h-2l-2 -2h-4q-48 -14 -97 -39q-41 -24 -41 -92zM385 1092l125 327h262l37 -14q12 -9 12 -25q0 -8 -14 -32q-18 -23 -41 -43l-230 -213h-151z" />
<glyph unicode="&#xe2;" horiz-adv-x="1206" d="M53 231q0 155 94 207q84 52 211 82q5 1 16.5 4t16.5 4q3 0 19 4q3 0 8 1.5t8 1.5q86 19 164 49q72 35 72 110q0 77 -60 119q-59 41 -170 41h-24q-8 -2 -21 -2q-15 0 -31 -4q-6 0 -10 -4q-2 0 -3.5 -0.5t-2.5 -1t-2.5 -1t-3.5 -1.5q-4 -4 -12 -4q-4 -4 -13 -7 q41 -13 72 -47q25 -28 25 -67q0 -69 -44 -107q-39 -39 -112 -39q-69 0 -115 52q-45 48 -45 129q0 122 107 186q104 68 301 68q246 0 356 -78q107 -76 107 -256v-451q0 -44 8 -57q9 -15 32 -15q25 0 37 21q11 26 11 72v120h137v-116q0 -142 -64 -215q-64 -64 -194 -64 q-104 0 -166 35q-56 25 -94 109q-64 -76 -142 -109q-78 -35 -176 -35q-135 0 -217 70q-80 74 -80 196zM264 1092l211 325h258l207 -325h-240l-131 186l-129 -186h-176zM358 266q0 -44 31 -84q38 -30 86 -30q76 0 127 45q55 47 55 104v156q-14 -11 -24 -13q-4 -4 -10 -4 q-12 -4 -13 -4q-4 -1 -12 -4t-12 -4q-4 -4 -11 -4l-12 -4q-16 -3 -28 -12q-5 -1 -15.5 -4.5t-15.5 -4.5h-2l-2 -2h-4q-48 -14 -97 -39q-41 -24 -41 -92z" />
<glyph unicode="&#xe3;" horiz-adv-x="1206" d="M53 231q0 155 94 207q84 52 211 82q5 1 16.5 4t16.5 4q3 0 19 4q3 0 8 1.5t8 1.5q86 19 164 49q72 35 72 110q0 77 -60 119q-59 41 -170 41h-24q-8 -2 -21 -2q-15 0 -31 -4q-6 0 -10 -4q-2 0 -3.5 -0.5t-2.5 -1t-2.5 -1t-3.5 -1.5q-4 -4 -12 -4q-4 -4 -13 -7 q41 -13 72 -47q25 -28 25 -67q0 -69 -44 -107q-39 -39 -112 -39q-69 0 -115 52q-45 48 -45 129q0 122 107 186q104 68 301 68q246 0 356 -78q107 -76 107 -256v-451q0 -44 8 -57q9 -15 32 -15q25 0 37 21q11 26 11 72v120h137v-116q0 -142 -64 -215q-64 -64 -194 -64 q-104 0 -166 35q-56 25 -94 109q-64 -76 -142 -109q-78 -35 -176 -35q-135 0 -217 70q-80 74 -80 196zM180 1120q22 135 82 197q59 65 166 65q42 0 92 -16q15 -5 45 -15.5t45 -15.5q21 -9 45 -18q7 -3 21.5 -8.5t21.5 -8.5q23 -10 43 -10q28 -4 41 -4q45 0 60 21 q23 23 26 71l156 4q-15 -134 -82 -204q-63 -72 -168 -72q-53 0 -96 14q-19 5 -50 17t-42 16q-15 5 -43.5 15.5t-44.5 15.5q-47 14 -80 14q-42 0 -62 -20q-21 -15 -24 -62v4h-152zM358 266q0 -44 31 -84q38 -30 86 -30q76 0 127 45q55 47 55 104v156q-14 -11 -24 -13 q-4 -4 -10 -4q-12 -4 -13 -4q-4 -1 -12 -4t-12 -4q-4 -4 -11 -4l-12 -4q-16 -3 -28 -12q-5 -1 -15.5 -4.5t-15.5 -4.5h-2l-2 -2h-4q-48 -14 -97 -39q-41 -24 -41 -92z" />
<glyph unicode="&#xe4;" horiz-adv-x="1206" d="M53 231q0 155 94 207q84 52 211 82q5 1 16.5 4t16.5 4q3 0 19 4q3 0 8 1.5t8 1.5q86 19 164 49q72 35 72 110q0 77 -60 119q-59 41 -170 41h-24q-8 -2 -21 -2q-15 0 -31 -4q-6 0 -10 -4q-2 0 -3.5 -0.5t-2.5 -1t-2.5 -1t-3.5 -1.5q-4 -4 -12 -4q-4 -4 -13 -7 q41 -13 72 -47q25 -28 25 -67q0 -69 -44 -107q-39 -39 -112 -39q-69 0 -115 52q-45 48 -45 129q0 122 107 186q104 68 301 68q246 0 356 -78q107 -76 107 -256v-451q0 -44 8 -57q9 -15 32 -15q25 0 37 21q11 26 11 72v120h137v-116q0 -142 -64 -215q-64 -64 -194 -64 q-104 0 -166 35q-56 25 -94 109q-64 -76 -142 -109q-78 -35 -176 -35q-135 0 -217 70q-80 74 -80 196zM252 1237q0 52 37 92q39 39 92 39v4q56 -10 92 -43q39 -42 39 -92q0 -53 -39 -92q-40 -37 -92 -37q-55 0 -92 37t-37 92zM358 266q0 -44 31 -84q38 -30 86 -30 q76 0 127 45q55 47 55 104v156q-14 -11 -24 -13q-4 -4 -10 -4q-12 -4 -13 -4q-4 -1 -12 -4t-12 -4q-4 -4 -11 -4l-12 -4q-16 -3 -28 -12q-5 -1 -15.5 -4.5t-15.5 -4.5h-2l-2 -2h-4q-48 -14 -97 -39q-41 -24 -41 -92zM696 1237q0 52 37 92q39 39 92 39v4q57 -10 90 -43 q39 -42 39 -92q0 -53 -39 -92q-37 -37 -90 -37q-55 0 -92 37t-37 92z" />
<glyph unicode="&#xe5;" horiz-adv-x="1206" d="M53 231q0 155 94 207q84 52 211 82q5 1 16.5 4t16.5 4q3 0 19 4q3 0 8 1.5t8 1.5q86 19 164 49q72 35 72 110q0 77 -60 119q-59 41 -170 41h-24q-8 -2 -21 -2q-15 0 -31 -4q-6 0 -10 -4q-2 0 -3.5 -0.5t-2.5 -1t-2.5 -1t-3.5 -1.5q-4 -4 -12 -4q-4 -4 -13 -7 q41 -13 72 -47q25 -28 25 -67q0 -69 -44 -107q-39 -39 -112 -39q-69 0 -115 52q-45 48 -45 129q0 122 107 186q104 68 301 68q246 0 356 -78q107 -76 107 -256v-451q0 -44 8 -57q9 -15 32 -15q25 0 37 21q11 26 11 72v120h137v-116q0 -142 -64 -215q-64 -64 -194 -64 q-104 0 -166 35q-56 25 -94 109q-64 -76 -142 -109q-78 -35 -176 -35q-135 0 -217 70q-80 74 -80 196zM358 266q0 -44 31 -84q38 -30 86 -30q76 0 127 45q55 47 55 104v156q-14 -11 -24 -13q-4 -4 -10 -4q-12 -4 -13 -4q-4 -1 -12 -4t-12 -4q-4 -4 -11 -4l-12 -4 q-16 -3 -28 -12q-5 -1 -15.5 -4.5t-15.5 -4.5h-2l-2 -2h-4q-48 -14 -97 -39q-41 -24 -41 -92zM395 1296q0 86 60 146q61 61 149 61v4q89 -9 145 -65q62 -62 62 -146q0 -87 -62 -149q-60 -60 -145 -60q-87 0 -149 62q-60 60 -60 147zM504 1296q0 -35 28 -71q37 -29 72 -29 q41 0 70 29q28 36 28 71q0 42 -28 70q-29 29 -70 29v4q-42 -9 -72 -33q-28 -28 -28 -70z" />
<glyph unicode="&#xe6;" horiz-adv-x="1720" d="M55 225q0 159 99 217q100 59 219 86q7 1 37 7q8 1 21 4t15 4q87 18 170 49q74 35 74 110q0 76 -57 115q-49 43 -158 43h-20q-6 -2 -17 -2h-14q-6 -2 -14 -2l-31 -6q-12 -4 -19 -4q-12 -4 -20 -6q5 -5 21 -19t22 -22q10 -10 25 -35q4 -4 4 -12q4 -12 4 -15q0 -1 1 -6t1 -6 q2 -6 2 -14q0 -58 -43 -93q-39 -36 -105 -36q-74 0 -118 47q-45 45 -45 123q0 120 110 184q107 68 303 68q106 0 191 -21q83 -21 157 -68q18 14 56 31q26 13 53 25q47 21 96 24q50 9 115 9q115 0 205 -41q89 -38 157 -119q72 -87 86 -191q15 -128 15 -211v4h-692 q3 -146 71 -233q74 -80 193 -80q79 0 129 47q49 43 92 152l207 4q-48 -186 -168 -281q-122 -90 -307 -90q-125 0 -240 43q-109 50 -188 156q-64 -99 -170 -150q-107 -49 -226 -49q-132 0 -219 68q-80 74 -80 192zM358 256q0 -45 33 -78q40 -31 86 -31q87 0 148 58 q59 59 59 143v109q-54 -28 -61 -31q-5 -2 -19 -6.5t-20 -7.5q-4 -4 -9 -4h-6l-4 -2q-3 -3 -6 -3h-4l-4 -2q-12 -4 -19 -4q-12 -4 -18 -4l-4 -2h-4q-49 -13 -103 -37q-45 -23 -45 -98zM961 610l389 4v11q-2 6 -2 14v14q-2 2 -2 15q-13 74 -56 123q-39 57 -119 57 q-96 0 -149 -62q-52 -61 -61 -176z" />
<glyph unicode="&#xe7;" horiz-adv-x="1116" d="M68 487q0 239 145 375q145 139 391 139q180 0 295 -86t115 -223q0 -78 -45 -123t-119 -45q-68 0 -115 41q-43 43 -43 105q0 22 2 32q1 5 5.5 15.5t5.5 13.5q16 27 22 33q12 15 37 37q-9 4 -24.5 11.5t-22.5 10.5q-17 10 -37 13h-16q-7 0 -9 2h-10q-114 0 -186 -97 q-68 -100 -68 -258q0 -161 62 -256q64 -92 172 -92q86 0 151 68q64 73 72 174v4h201q-15 -194 -144 -305q-123 -111 -323 -111q-247 0 -379 135q-135 138 -135 387zM321 -389l41 92q64 -21 80 -22q37 -9 66 -9q45 0 67 19q25 16 25 49q0 22 -23 45q-29 18 -59 18h-4h-18 q-3 0 -7.5 -1t-7.5 -1q-5 0 -18 -3.5t-21 -4.5l-39 39l113 168h119l-76 -119q27 6 35 6h6h18q77 0 125 -39q50 -41 50 -100q0 -85 -70 -137q-68 -53 -174 -53q-26 0 -58 4q-27 3 -51 6q-22 2 -57 18q-36 16 -62 25z" />
<glyph unicode="&#xe8;" horiz-adv-x="1153" d="M68 496q0 227 139 366q145 139 371 139q235 0 372 -137q135 -138 135 -383v-12l-2 -4v-19v5h-704q12 -161 74 -238q61 -76 176 -76q92 0 153 49q66 53 92 148l197 4q-21 -172 -145 -275q-125 -98 -314 -98q-264 0 -405 135q-139 136 -139 396zM358 1380q0 35 49 35l264 4 l123 -327h-151l-230 217q-22 17 -41 41q-14 20 -14 30zM381 602l391 4q0 85 -49 158q-50 74 -148 74q-89 0 -139 -62q-46 -57 -55 -174z" />
<glyph unicode="&#xe9;" horiz-adv-x="1153" d="M68 496q0 227 139 366q145 139 371 139q235 0 372 -137q135 -138 135 -383v-12l-2 -4v-19v5h-704q12 -161 74 -238q61 -76 176 -76q92 0 153 49q66 53 92 148l197 4q-21 -172 -145 -275q-125 -98 -314 -98q-264 0 -405 135q-139 136 -139 396zM358 1092l125 327h262 l37 -14q12 -9 12 -25q0 -8 -14 -32q-18 -23 -41 -43l-230 -213h-151zM381 602l391 4q0 85 -49 158q-50 74 -148 74q-89 0 -139 -62q-46 -57 -55 -174z" />
<glyph unicode="&#xea;" horiz-adv-x="1153" d="M68 496q0 227 139 366q145 139 371 139q235 0 372 -137q135 -138 135 -383v-12l-2 -4v-19v5h-704q12 -161 74 -238q61 -76 176 -76q92 0 153 49q66 53 92 148l197 4q-21 -172 -145 -275q-125 -98 -314 -98q-264 0 -405 135q-139 136 -139 396zM237 1092l211 325h258 l207 -325h-240l-131 186l-129 -186h-176zM381 602l391 4q0 85 -49 158q-50 74 -148 74q-89 0 -139 -62q-46 -57 -55 -174z" />
<glyph unicode="&#xeb;" horiz-adv-x="1153" d="M68 496q0 227 139 366q145 139 371 139q235 0 372 -137q135 -138 135 -383v-12l-2 -4v-19v5h-704q12 -161 74 -238q61 -76 176 -76q92 0 153 49q66 53 92 148l197 4q-21 -172 -145 -275q-125 -98 -314 -98q-264 0 -405 135q-139 136 -139 396zM226 1237q0 52 37 92 q39 39 92 39v4q56 -10 92 -43q39 -42 39 -92q0 -53 -39 -92q-40 -37 -92 -37q-55 0 -92 37t-37 92zM381 602l391 4q0 85 -49 158q-50 74 -148 74q-89 0 -139 -62q-46 -57 -55 -174zM670 1237q0 52 37 92q39 39 92 39v4q57 -10 90 -43q39 -42 39 -92q0 -53 -39 -92 q-37 -37 -90 -37q-55 0 -92 37t-37 92z" />
<glyph unicode="&#xec;" horiz-adv-x="733" d="M61 0v166h89q6 -2 10 -2q29 0 47 18q16 22 16 72v465q0 49 -16 65q-15 21 -57 21l-89 4v168h465v-719q0 -52 17 -76q14 -20 57 -20l86 4v-166h-625zM150 1380q0 35 49 35l264 4l123 -327h-151l-230 217q-22 17 -41 41q-14 20 -14 30z" />
<glyph unicode="&#xed;" horiz-adv-x="733" d="M61 0v166h89q6 -2 10 -2q29 0 47 18q16 22 16 72v465q0 49 -16 65q-15 21 -57 21l-89 4v168h465v-719q0 -52 17 -76q14 -20 57 -20l86 4v-166h-625zM150 1092l125 327h262l37 -14q12 -9 12 -25q0 -8 -14 -32q-18 -23 -41 -43l-230 -213h-151z" />
<glyph unicode="&#xee;" horiz-adv-x="733" d="M29 1092l211 325h258l207 -325h-240l-131 186l-129 -186h-176zM61 0v166h89q6 -2 10 -2q29 0 47 18q16 22 16 72v465q0 49 -16 65q-15 21 -57 21l-89 4v168h465v-719q0 -52 17 -76q14 -20 57 -20l86 4v-166h-625z" />
<glyph unicode="&#xef;" horiz-adv-x="733" d="M17 1237q0 52 37 92q39 39 92 39v4q56 -10 92 -43q39 -42 39 -92q0 -53 -39 -92q-40 -37 -92 -37q-55 0 -92 37t-37 92zM61 0v166h89q6 -2 10 -2q29 0 47 18q16 22 16 72v465q0 49 -16 65q-15 21 -57 21l-89 4v168h465v-719q0 -52 17 -76q14 -20 57 -20l86 4v-166h-625z M461 1237q0 52 37 92q39 39 92 39v4q57 -10 90 -43q39 -42 39 -92q0 -53 -39 -92q-37 -37 -90 -37q-55 0 -92 37t-37 92z" />
<glyph unicode="&#xf1;" horiz-adv-x="1378" d="M68 0v166h82q6 -2 10 -2q29 0 47 18q16 22 16 72v465q0 49 -16 65q-15 21 -57 21l-82 4v168h438v-150l65 66q13 13 33 29q4 4 15.5 11.5t15.5 10.5q39 29 96 43q58 14 115 14q150 0 237 -75q86 -77 86 -213v-455q0 -52 17 -76q14 -20 59 -20l86 4v-166h-594v166h56 q6 -2 10 -2q29 0 47 18q16 22 16 72v362q0 101 -35 148q-33 45 -112 45q-101 0 -148 -59q-45 -60 -45 -187v-305q0 -52 17 -76q14 -20 57 -20l51 4v-166h-583zM266 1120q22 135 82 197q59 65 166 65q42 0 92 -16q15 -5 45 -15.5t45 -15.5q21 -9 45 -18q7 -3 21.5 -8.5 t21.5 -8.5q23 -10 43 -10q28 -4 41 -4q45 0 60 21q23 23 26 71l156 4q-15 -134 -82 -204q-63 -72 -168 -72q-53 0 -96 14q-19 5 -50 17t-42 16q-15 5 -44 15.5t-44 15.5q-47 14 -80 14q-42 0 -62 -20q-21 -15 -24 -62v4h-152z" />
<glyph unicode="&#xf2;" horiz-adv-x="1218" d="M68 489v5q9 233 151 372q144 135 391 135q253 0 398 -139q143 -137 143 -383q0 -233 -147 -377q-146 -137 -392 -137q-259 0 -399 131q-145 133 -145 393zM391 492v4q0 -178 55 -277q58 -94 162 -94q110 0 162 94q57 92 57 275q0 160 -59 249q-59 95 -158 95 q-103 0 -161 -93q-58 -88 -58 -253zM391 1380q0 35 49 35l264 4l123 -327h-151l-230 217q-22 17 -41 41q-14 20 -14 30z" />
<glyph unicode="&#xf3;" horiz-adv-x="1218" d="M68 489v5q9 233 151 372q144 135 391 135q253 0 398 -139q143 -137 143 -383q0 -233 -147 -377q-146 -137 -392 -137q-259 0 -399 131q-145 133 -145 393zM391 492v4q0 -178 55 -277q58 -94 162 -94q110 0 162 94q57 92 57 275q0 160 -59 249q-59 95 -158 95 q-103 0 -161 -93q-58 -88 -58 -253zM391 1092l125 327h262l37 -14q12 -9 12 -25q0 -8 -14 -32q-18 -23 -41 -43l-230 -213h-151z" />
<glyph unicode="&#xf4;" horiz-adv-x="1218" d="M68 489v5q9 233 151 372q144 135 391 135q253 0 398 -139q143 -137 143 -383q0 -233 -147 -377q-146 -137 -392 -137q-259 0 -399 131q-145 133 -145 393zM270 1092l211 325h258l207 -325h-240l-131 186l-129 -186h-176zM391 492v4q0 -178 55 -277q58 -94 162 -94 q110 0 162 94q57 92 57 275q0 160 -59 249q-59 95 -158 95q-103 0 -161 -93q-58 -88 -58 -253z" />
<glyph unicode="&#xf5;" horiz-adv-x="1218" d="M68 489v5q9 233 151 372q144 135 391 135q253 0 398 -139q143 -137 143 -383q0 -233 -147 -377q-146 -137 -392 -137q-259 0 -399 131q-145 133 -145 393zM186 1120q22 135 82 197q59 65 166 65q42 0 92 -16q15 -5 44.5 -15.5t45.5 -15.5q21 -9 45 -18q7 -3 21.5 -8.5 t21.5 -8.5q23 -10 43 -10q28 -4 41 -4q45 0 60 21q23 23 26 71l156 4q-15 -134 -82 -204q-63 -72 -168 -72q-53 0 -96 14q-19 5 -50 17t-42 16q-16 5 -44 15.5t-44 15.5q-47 14 -80 14q-42 0 -62 -20q-21 -15 -24 -62v4h-152zM391 492v4q0 -178 55 -277q58 -94 162 -94 q110 0 162 94q57 92 57 275q0 160 -59 249q-59 95 -158 95q-103 0 -161 -93q-58 -88 -58 -253z" />
<glyph unicode="&#xf6;" horiz-adv-x="1218" d="M68 489v5q9 233 151 372q144 135 391 135q253 0 398 -139q143 -137 143 -383q0 -233 -147 -377q-146 -137 -392 -137q-259 0 -399 131q-145 133 -145 393zM258 1237q0 52 37 92q39 39 92 39v4q56 -10 92 -43q39 -42 39 -92q0 -53 -39 -92q-40 -37 -92 -37q-55 0 -92 37 t-37 92zM391 492v4q0 -178 55 -277q58 -94 162 -94q110 0 162 94q57 92 57 275q0 160 -59 249q-59 95 -158 95q-103 0 -161 -93q-58 -88 -58 -253zM702 1237q0 52 37 92q39 39 92 39v4q57 -10 90 -43q39 -42 39 -92q0 -53 -39 -92q-37 -37 -90 -37q-55 0 -92 37t-37 92z" />
<glyph unicode="&#xf8;" horiz-adv-x="1218" d="M68 489v5q9 233 151 372q144 135 391 135q253 0 398 -139q143 -137 143 -383q0 -233 -147 -377q-146 -137 -392 -137q-259 0 -399 131q-145 133 -145 393zM246 -410l469 1776h258l-469 -1776h-258zM391 492v4q0 -178 55 -277q58 -94 162 -94q110 0 162 94q57 92 57 275 q0 160 -59 249q-59 95 -158 95q-103 0 -161 -93q-58 -88 -58 -253z" />
<glyph unicode="&#xf9;" horiz-adv-x="1372" d="M61 809v168h457v-604q0 -126 33 -170q33 -45 121 -45q93 0 133 61q45 60 45 184v314q0 51 -16 67q-15 21 -58 21l-86 4v168h463v-719q0 -54 16 -76q14 -20 58 -20l90 4v-166h-467v135q-23 -33 -43 -53q-7 -7 -20.5 -19.5t-20.5 -19.5q-61 -47 -107 -59q-47 -19 -127 -19 q-154 0 -237 74q-80 77 -80 223v455q0 51 -16 67q-15 21 -58 21zM467 1380q0 35 49 35l264 4l123 -327h-151l-230 217q-22 17 -41 41q-14 20 -14 30z" />
<glyph unicode="&#xfa;" horiz-adv-x="1372" d="M61 809v168h457v-604q0 -126 33 -170q33 -45 121 -45q93 0 133 61q45 60 45 184v314q0 51 -16 67q-15 21 -58 21l-86 4v168h463v-719q0 -54 16 -76q14 -20 58 -20l90 4v-166h-467v135q-23 -33 -43 -53q-7 -7 -20.5 -19.5t-20.5 -19.5q-61 -47 -107 -59q-47 -19 -127 -19 q-154 0 -237 74q-80 77 -80 223v455q0 51 -16 67q-15 21 -58 21zM467 1092l125 327h262l37 -14q12 -9 12 -25q0 -8 -14 -32q-18 -23 -41 -43l-230 -213h-151z" />
<glyph unicode="&#xfb;" horiz-adv-x="1372" d="M61 809v168h457v-604q0 -126 33 -170q33 -45 121 -45q93 0 133 61q45 60 45 184v314q0 51 -16 67q-15 21 -58 21l-86 4v168h463v-719q0 -54 16 -76q14 -20 58 -20l90 4v-166h-467v135q-23 -33 -43 -53q-7 -7 -20.5 -19.5t-20.5 -19.5q-61 -47 -107 -59q-47 -19 -127 -19 q-154 0 -237 74q-80 77 -80 223v455q0 51 -16 67q-15 21 -58 21zM348 1092l211 325h258l207 -325h-240l-131 186l-129 -186h-176z" />
<glyph unicode="&#xfc;" horiz-adv-x="1372" d="M61 809v168h457v-604q0 -126 33 -170q33 -45 121 -45q93 0 133 61q45 60 45 184v314q0 51 -16 67q-15 21 -58 21l-86 4v168h463v-719q0 -54 16 -76q14 -20 58 -20l90 4v-166h-467v135q-23 -33 -43 -53q-7 -7 -20.5 -19.5t-20.5 -19.5q-61 -47 -107 -59q-47 -19 -127 -19 q-154 0 -237 74q-80 77 -80 223v455q0 51 -16 67q-15 21 -58 21zM334 1237q0 52 37 92q39 39 92 39v4q56 -10 92 -43q39 -42 39 -92q0 -53 -39 -92q-40 -37 -92 -37q-55 0 -92 37t-37 92zM778 1237q0 52 37 92q39 39 92 39v4q57 -10 90 -43q39 -42 39 -92q0 -53 -39 -92 q-37 -37 -90 -37q-55 0 -92 37t-37 92z" />
<glyph unicode="&#xfd;" horiz-adv-x="1196" d="M14 811v166h623v-166h-84q-9 -2 -19.5 -3.5t-16.5 -2.5t-9 -4q-12 -3 -12 -25q0 -6 2 -12q0 -1 1 -4l2.5 -7.5l2.5 -7.5l178 -432l182 426l6 19q4 12 4 18q0 22 -10 25q-8 6 -39 6l-77 4v166h448v-166h-39q-8 -3 -24 -5t-21 -5q-14 -3 -27 -25q-3 -4 -8 -12t-8 -12 q0 -1 -3 -7t-3 -10q-1 -3 -4 -9t-4 -9l-387 -869q-72 -160 -150 -221q-73 -67 -199 -67q-134 0 -219 63q-77 65 -77 178q0 78 49 136q50 53 125 53q61 0 100 -39q43 -37 43 -98q0 -53 -29 -82q-23 -30 -94 -45l6 -7q0 -2 4 -6q0 -1 1 -2.5t3 -2.5t4 -2.5t3 -2.5q9 -9 22 -12 q16 -4 35 -4q41 0 70 16q5 3 30 23q3 4 13 14t16 18q20 26 45 74q21 41 51 109l-348 798q-1 1 -4 5.5t-4 5.5l-4 12q-15 28 -37 37q-13 8 -62 8zM379 1092l125 327h262l37 -14q12 -9 12 -25q0 -8 -14 -32q-18 -23 -41 -43l-230 -213h-151z" />
<glyph unicode="&#xff;" horiz-adv-x="1196" d="M14 811v166h623v-166h-84q-9 -2 -19.5 -3.5t-16.5 -2.5t-9 -4q-12 -3 -12 -25q0 -6 2 -12q0 -1 1 -4l2.5 -7.5l2.5 -7.5l178 -432l182 426l6 19q4 12 4 18q0 22 -10 25q-8 6 -39 6l-77 4v166h448v-166h-39q-8 -3 -24 -5t-21 -5q-14 -3 -27 -25q-3 -4 -8 -12t-8 -12 q0 -1 -3 -7t-3 -10q-1 -3 -4 -9t-4 -9l-387 -869q-72 -160 -150 -221q-73 -67 -199 -67q-134 0 -219 63q-77 65 -77 178q0 78 49 136q50 53 125 53q61 0 100 -39q43 -37 43 -98q0 -53 -29 -82q-23 -30 -94 -45l6 -7q0 -2 4 -6q0 -1 1 -2.5t3 -2.5t4 -2.5t3 -2.5q9 -9 22 -12 q16 -4 35 -4q41 0 70 16q5 3 30 23q3 4 13 14t16 18q20 26 45 74q21 41 51 109l-348 798q-1 1 -4 5.5t-4 5.5l-4 12q-15 28 -37 37q-13 8 -62 8zM246 1237q0 52 37 92q39 39 92 39v4q56 -10 92 -43q39 -42 39 -92q0 -53 -39 -92q-40 -37 -92 -37q-55 0 -92 37t-37 92z M690 1237q0 52 37 92q39 39 92 39v4q57 -10 90 -43q39 -42 39 -92q0 -53 -39 -92q-37 -37 -90 -37q-55 0 -92 37t-37 92z" />
<glyph unicode="&#x152;" horiz-adv-x="2283" d="M82 666q0 321 205 520q206 200 536 200q26 0 80 -4q12 -1 38 -4t40 -4q12 -1 38 -4t40 -4q54 -4 80 -4l1030 4v-535h-195q-3 152 -37 252q-38 103 -229 103l-317 4v-393h104q6 -2 12 -2q56 0 78 28q25 36 25 113v94h188v-655h-188v92q0 83 -25 111q-22 32 -88 32l-106 4 v-438h301h26q168 0 213 98q45 99 45 271v16q-2 2 -2 8v17h183v-586h-1018q-28 0 -90 -4q-12 -1 -40.5 -4t-45.5 -4q-16 -1 -45.5 -4t-45.5 -4q-7 0 -21.5 -1.5t-21.5 -1.5q-16 -2 -45 -2q-313 0 -508 189q-194 191 -194 502zM436 678q0 -251 107 -397q108 -150 284 -150 q70 0 131 25q58 24 93 71v875q-56 59 -99 80q-57 26 -121 26q-167 0 -282 -151q-113 -149 -113 -379z" />
<glyph unicode="&#x153;" horiz-adv-x="1859" d="M70 477q0 244 141 385q142 142 389 142q113 0 213 -35q107 -41 156 -95q72 72 149 99q74 31 189 31q262 0 374 -160q111 -159 111 -402v4h-702q9 -152 75 -231q64 -76 185 -76q85 0 135 47q54 43 90 146l205 4q-37 -179 -156 -277q-119 -94 -295 -94q-123 0 -219 35 q-92 28 -154 102q-65 -71 -149 -102q-90 -35 -203 -35q-251 0 -393 133q-141 138 -141 379zM393 477v4q0 -165 56 -266q59 -90 161 -90t154 94q55 89 55 268q0 132 -20 193q-20 68 -70 115q-3 3 -9 7t-9 7q-4 1 -11 6t-10 6q-39 17 -41 17h-16q-4 0 -6 2h-6q-111 0 -170 -90 q-58 -88 -58 -273zM1098 608l385 4q-3 98 -56 164q-52 64 -131 64q-96 0 -147 -72q-51 -68 -51 -160z" />
<glyph unicode="&#x178;" horiz-adv-x="1509" d="M0 1186v180h793v-176h-105q-51 -11 -57 -14q-19 -11 -19 -27q0 -9 4 -21q13 -17 13 -18q1 -1 3 -4t3 -4q0 -2 4 -6l219 -316l203 334q11 11 14 23q4 16 4 20q0 20 -12 23q-8 6 -47 6l-100 4v176h589v-176h-39q-7 -2 -47 -8q-17 -3 -37 -15q-22 -13 -57 -59 q-5 -7 -20 -30.5t-32 -48.5l-34 -50l-285 -442v-273q0 -56 25 -78q23 -20 86 -20l127 4v-170h-813v170h127q6 -2 16 -2q45 0 70 18q25 22 25 74v277l-392 538q-1 1 -3 2t-4 3t-3 5q-1 1 -4 5.5t-4 5.5q-6 8 -18 20q-34 43 -82 55q-51 15 -111 15zM404 1626q0 52 37 92 q39 39 92 39v4q56 -10 92 -43q39 -42 39 -92q0 -53 -39 -92q-40 -37 -92 -37q-55 0 -92 37t-37 92zM848 1626q0 52 37 92q39 39 92 39v4q57 -10 90 -43q39 -42 39 -92q0 -53 -39 -92q-37 -37 -90 -37q-55 0 -92 37t-37 92z" />
<glyph unicode="&#x2c6;" horiz-adv-x="1024" d="M90 1120q22 135 82 197q59 65 166 65q42 0 92 -16q15 -5 44.5 -15.5t45.5 -15.5q21 -9 45 -18q7 -3 21.5 -8.5t21.5 -8.5q23 -10 43 -10q28 -4 41 -4q45 0 60 21q23 23 26 71l156 4q-15 -134 -82 -204q-63 -72 -168 -72q-53 0 -96 14q-19 5 -50 17t-42 16q-16 5 -44 15.5 t-44 15.5q-47 14 -80 14q-42 0 -62 -20q-21 -15 -24 -62v4h-152z" />
<glyph unicode="&#x2dc;" horiz-adv-x="1024" d="M174 1092l211 325h258l207 -325h-240l-131 186l-129 -186h-176z" />
<glyph unicode="&#x2000;" horiz-adv-x="948" />
<glyph unicode="&#x2001;" horiz-adv-x="1896" />
<glyph unicode="&#x2002;" horiz-adv-x="948" />
<glyph unicode="&#x2003;" horiz-adv-x="1896" />
<glyph unicode="&#x2004;" horiz-adv-x="632" />
<glyph unicode="&#x2005;" horiz-adv-x="474" />
<glyph unicode="&#x2006;" horiz-adv-x="316" />
<glyph unicode="&#x2007;" horiz-adv-x="316" />
<glyph unicode="&#x2008;" horiz-adv-x="237" />
<glyph unicode="&#x2009;" horiz-adv-x="379" />
<glyph unicode="&#x200a;" horiz-adv-x="105" />
<glyph unicode="&#x2010;" horiz-adv-x="595" d="M20 371v256h555v-256h-555z" />
<glyph unicode="&#x2011;" horiz-adv-x="595" d="M20 371v256h555v-256h-555z" />
<glyph unicode="&#x2012;" horiz-adv-x="595" d="M20 371v256h555v-256h-555z" />
<glyph unicode="&#x2013;" d="M90 371v256h985v-256h-985z" />
<glyph unicode="&#x2014;" horiz-adv-x="1556" d="M20 371v256h1516v-256h-1516z" />
<glyph unicode="&#x2018;" horiz-adv-x="546" d="M102 1024q0 152 88 250q87 97 259 135v4v-121q-3 -8 -9 -8h-4l-4 -2q-58 -24 -123 -76q-55 -52 -55 -127q27 11 33 13q2 0 14 4q1 0 6 1t6 1q4 0 6 2h23q67 0 104 -43q39 -42 39 -115q0 -68 -51 -119q-50 -47 -127 -47q-85 0 -147 68q-58 70 -58 180z" />
<glyph unicode="&#x2019;" horiz-adv-x="546" d="M61 1241q0 68 52 117q50 47 127 47q95 0 147 -70q57 -63 57 -178q0 -151 -90 -252q-88 -99 -256 -133v4v123q2 -2 8 -2q5 0 9 4q70 24 123 74q55 44 55 127q-18 -8 -35 -12q-2 0 -11 -3.5t-14 -3.5q-2 -2 -12 -2h-14q-64 0 -107 43q-39 45 -39 117z" />
<glyph unicode="&#x201c;" horiz-adv-x="1044" d="M102 1024q0 152 88 250q87 97 259 135v4v-121q-3 -8 -9 -8h-4l-4 -2q-58 -24 -123 -76q-55 -52 -55 -127q27 11 33 13q2 0 14 4q1 0 6 1t6 1q4 0 6 2h23q67 0 104 -43q39 -42 39 -115q0 -68 -51 -119q-50 -47 -127 -47q-85 0 -147 68q-58 70 -58 180zM600 1024 q0 152 88 250q87 97 258 135v4v-121q-3 -8 -8 -8h-4l-4 -2q-66 -27 -123 -76q-55 -52 -55 -127q5 2 11.5 5t10.5 5t8 3q3 0 15 4q1 0 6 1t6 1q6 0 8 2h23q67 0 104 -43q39 -42 39 -115q0 -68 -51 -119q-50 -47 -127 -47q-88 0 -150 68q-55 74 -55 180z" />
<glyph unicode="&#x201d;" horiz-adv-x="1044" d="M61 1241q0 68 52 117q50 47 127 47q95 0 147 -70q57 -63 57 -178q0 -151 -90 -252q-88 -99 -256 -133v4v123q0 -4 2 -4l2 2h2q64 22 129 74q60 51 60 131q-11 -6 -33 -12q-3 -1 -11 -4t-11 -3q-6 -2 -17 -2h-14q-64 0 -107 43q-39 45 -39 117zM559 1241q0 69 51 117 q50 47 127 47q90 0 148 -70q57 -63 57 -178q0 -151 -90 -252q-88 -99 -256 -133v4v123q2 -2 8 -2q4 0 8 4q70 24 123 74q56 45 56 127q-11 -6 -33 -12q-2 0 -11 -3.5t-14 -3.5q-6 -2 -16 -2h-15q-61 0 -104 43q-39 45 -39 117z" />
<glyph unicode="&#x201e;" horiz-adv-x="1044" d="M61 143q0 68 52 117q50 47 127 47q96 0 147 -69q57 -63 57 -179q0 -144 -90 -245q-88 -99 -256 -136v123h2v2h4q66 25 129 76q60 51 60 125q-16 -4 -21 -4q-2 0 -14 -4q-16 -4 -25 -4q-4 0 -6 -2h-6h-14q-68 0 -107 39q-39 45 -39 114zM559 143q0 69 51 117q50 47 127 47 q91 0 148 -69q57 -63 57 -179q0 -144 -90 -245q-88 -99 -256 -136v123q4 4 8 4h4q0 2 4 2q70 27 123 74q56 47 56 123q-16 -4 -21 -4q-2 0 -14 -4q-16 -4 -25 -4q-6 0 -6 -2h-8h-15q-65 0 -104 39q-39 45 -39 114z" />
<glyph unicode="&#x2022;" horiz-adv-x="1228" d="M406 582v4q0 78 57 135t139 57q84 0 141 -57q60 -60 60 -139q0 -80 -60 -140q-57 -57 -141 -57q-82 0 -139 57t-57 140z" />
<glyph unicode="&#x2026;" horiz-adv-x="1665" d="M102 156q0 71 52 123q51 51 122 51v4q75 -10 123 -55q52 -55 52 -123q0 -71 -52 -123q-50 -47 -123 -47q-75 0 -122 47q-52 49 -52 123zM657 156q0 71 52 123q51 51 122 51v4q75 -10 123 -55q52 -55 52 -123q0 -71 -52 -123q-50 -47 -123 -47q-75 0 -122 47 q-52 49 -52 123zM1212 156q0 71 52 123q51 51 122 51v4q75 -10 123 -55q52 -55 52 -123q0 -71 -52 -123q-50 -47 -123 -47q-75 0 -122 47q-52 49 -52 123z" />
<glyph unicode="&#x202f;" horiz-adv-x="379" />
<glyph unicode="&#x2039;" horiz-adv-x="593" d="M76 494q0 26 10 49q15 30 33 53l196 250h170l-131 -246q-1 -2 -2 -4.5t-1.5 -3.5t-0.5 -2v-2l-2 -2q-15 -27 -26 -60q-11 -25 -11 -43q0 -29 11 -51q14 -29 26 -45q0 -4 4 -8q0 -2 4 -6l129 -221h-170l-194 241l-12 13q-1 3 -5.5 9.5t-5.5 10.5q-1 3 -5 8.5t-5 9.5 q-1 3 -3 8.5t-3 8.5q-1 6 -3.5 16.5t-2.5 16.5z" />
<glyph unicode="&#x203a;" horiz-adv-x="593" d="M109 152l129 225v-2q2 0 3 2t2 5t3 5q12 21 24 45q13 26 13 51q0 10 -11 43q-1 3 -10.5 26t-15.5 34q-4 0 -4 4v4l-2 2l-131 250h170l196 -246q25 -41 33 -57q10 -30 10 -49q0 -22 -8 -41q-5 -15 -27 -50q-2 -2 -5 -7t-5 -7l-194 -237h-170z" />
<glyph unicode="&#x205f;" horiz-adv-x="474" />
<glyph unicode="&#x2122;" horiz-adv-x="2117" d="M18 1053v313h801v-313h-127l2 6v22q0 86 -35 127q-32 43 -104 43h-18q-2 -2 -9 -2v4v-510q0 -31 13 -41q10 -10 47 -10l86 4v-108h-508v108h86q2 -2 8 -2h8q23 0 31 8q12 9 12 37v514h-24q-97 -9 -119 -63q-25 -61 -25 -141zM868 588v108h70q2 -2 8 -2h8q23 0 31 8 q12 9 12 37v471q0 24 -12 33q-13 10 -47 10l-70 4v109h414l199 -459l202 459h398v-109h-72q-43 -11 -47 -14q-12 -9 -12 -37v-463q0 -32 12 -41q10 -10 47 -10l72 4v-108h-477v108h71q2 -2 8 -2h9q22 0 30 8q13 10 13 37v406l-250 -557h-101l-243 563v-408q0 -32 12 -41 q10 -10 47 -10l64 4v-108h-396z" />
<glyph unicode="&#x25fc;" horiz-adv-x="972" d="M0 0v973h973v-973h-973z" />
<glyph unicode="&#xfb01;" horiz-adv-x="1529" d="M61 0v166h86q6 -2 11 -2q29 0 47 18q16 22 16 72v555h-160v168h160v12q0 10 2 12q0 111 13 168q13 53 45 91l8 8q0 2 4 6l4 4q50 53 111 76q79 30 133 32q1 0 10 3h10h23q116 0 178 -56q67 -50 67 -147q0 -63 -36 -99t-93 -36q-41 0 -71 30q-29 37 -29 82v15q0 10 2 12 l6 24q3 4 8 16t9 19q-1 4 -13 8q-3 0 -8 5h-10q-43 0 -62 -43q-18 -49 -18 -138v-104h238v-168h-228v-551q0 -52 17 -76q14 -20 57 -20l121 4v-166h-658zM858 0v166h88q6 -2 10 -2q30 0 48 18q16 22 16 72v465q0 49 -16 65q-15 21 -58 21l-88 4v168h465v-719q0 -54 16 -76 q14 -20 58 -20l86 4v-166h-625zM987 1239q0 73 51 121q49 49 121 49v4q78 -10 121 -53q51 -51 51 -121q0 -72 -51 -123q-49 -49 -121 -49q-73 0 -121 51q-51 48 -51 121z" />
<glyph unicode="&#xfb02;" horiz-adv-x="1533" d="M61 0v166h86q6 -2 11 -2q29 0 47 18q16 22 16 72v555h-160v168h160v12q0 10 2 12q0 111 13 168q13 53 45 91l8 8q0 2 4 6l4 4q50 53 111 76q79 30 133 32q1 0 10 3h10h23q116 0 178 -56q67 -50 67 -147q0 -63 -36 -99t-93 -36q-41 0 -71 30q-29 37 -29 82v15q0 10 2 12 l6 24q3 4 8 16t9 19q-1 4 -13 8q-3 0 -8 5h-10q-43 0 -62 -43q-18 -49 -18 -138v-104h238v-168h-228v-551q0 -52 17 -76q14 -20 57 -20l121 4v-166h-658zM858 0v166h86q6 -2 12 -2q30 0 48 18q16 22 16 72v854q0 50 -16 66q-14 20 -60 20l-86 4v168h465v-1108q0 -54 16 -76 q14 -20 56 -20l92 4v-166h-629z" />
<glyph unicode="&#xfb03;" horiz-adv-x="2326" d="M61 0v166h86q6 -2 11 -2q29 0 47 18q16 22 16 72v555h-160v168h160v12q0 10 2 12q0 111 13 168q13 53 45 91l8 8q0 2 4 6l4 4q50 53 111 76q79 30 133 32q1 0 10 3h10h23q116 0 178 -56q67 -50 67 -147q0 -63 -36 -99t-93 -36q-41 0 -71 30q-29 37 -29 82v15q0 10 2 12 l6 24q3 4 8 16t9 19q-1 4 -13 8q-3 0 -8 5h-10q-43 0 -62 -43q-18 -49 -18 -138v-104h238v-168h-228v-551q0 -52 17 -76q14 -20 57 -20l121 4v-166h-658zM858 0v166h86q6 -2 10 -2q29 0 47 18q17 24 17 72v555h-160v168h160v12q0 10 2 12q0 115 12 168q13 53 45 91l8 8 q0 1 5 6l4 4q51 54 110 76q79 30 133 32q2 0 11 3h10h22q117 0 179 -56q67 -50 67 -147q0 -62 -37 -99q-36 -36 -92 -36q-42 0 -72 30q-28 36 -28 82v15q0 10 2 12l6 24q3 4 7.5 16t8.5 19q-1 5 -12 8q-3 0 -8 5h-10q-43 0 -62 -43q-18 -49 -18 -138v-104h237v-168h-227 v-551q0 -54 16 -76q14 -20 58 -20l121 4v-166h-658zM1655 0v166h88q6 -2 10 -2q29 0 47 18q17 24 17 72v465q0 48 -17 65q-15 21 -57 21l-88 4v168h465v-719q0 -54 16 -76q14 -20 57 -20l86 4v-166h-624zM1784 1239q0 73 51 121q49 49 121 49v4q78 -10 121 -53 q51 -51 51 -121q0 -72 -51 -123q-49 -49 -121 -49q-73 0 -121 51q-51 48 -51 121z" />
<glyph unicode="&#xfb04;" horiz-adv-x="2330" d="M61 0v166h86q6 -2 11 -2q29 0 47 18q16 22 16 72v555h-160v168h160v12q0 10 2 12q0 111 13 168q13 53 45 91l8 8q0 2 4 6l4 4q50 53 111 76q79 30 133 32q1 0 10 3h10h23q116 0 178 -56q67 -50 67 -147q0 -63 -36 -99t-93 -36q-41 0 -71 30q-29 37 -29 82v15q0 10 2 12 l6 24q3 4 8 16t9 19q-1 4 -13 8q-3 0 -8 5h-10q-43 0 -62 -43q-18 -49 -18 -138v-104h238v-168h-228v-551q0 -52 17 -76q14 -20 57 -20l121 4v-166h-658zM858 0v166h86q6 -2 10 -2q29 0 47 18q17 24 17 72v555h-160v168h160v12q0 10 2 12q0 115 12 168q13 53 45 91l8 8 q0 1 5 6l4 4q51 54 110 76q79 30 133 32q2 0 11 3h10h22q117 0 179 -56q67 -50 67 -147q0 -62 -37 -99q-36 -36 -92 -36q-42 0 -72 30q-28 36 -28 82v15q0 10 2 12l6 24q3 4 7.5 16t8.5 19q-1 5 -12 8q-3 0 -8 5h-10q-43 0 -62 -43q-18 -49 -18 -138v-104h237v-168h-227 v-551q0 -54 16 -76q14 -20 58 -20l121 4v-166h-658zM1655 0v166h86q6 -2 12 -2q29 0 47 18q17 24 17 72v854q0 49 -17 66q-14 20 -59 20l-86 4v168h465v-1108q0 -54 16 -76q14 -20 55 -20l93 4v-166h-629z" />
</font>
</defs>
</svg>
