<?xml version="1.0" standalone="no"?>
<!DOCTYPE svg PUBLIC "-//W3C//DTD SVG 1.1//EN" "http://www.w3.org/Graphics/SVG/1.1/DTD/svg11.dtd" >
<svg xmlns="http://www.w3.org/2000/svg">
<metadata></metadata>
<defs>
<font id="roadgeek_2005_arrows_1regular" horiz-adv-x="1122" >
<font-face units-per-em="2048" ascent="1638" descent="-410" />
<missing-glyph horiz-adv-x="1837" />
<glyph horiz-adv-x="0" />
<glyph horiz-adv-x="0" />
<glyph horiz-adv-x="682" />
<glyph unicode="&#xd;" horiz-adv-x="1837" />
<glyph unicode=" "  horiz-adv-x="1837" />
<glyph unicode="&#x09;" horiz-adv-x="1837" />
<glyph unicode="&#xa0;" horiz-adv-x="1837" />
<glyph unicode="!" horiz-adv-x="1204" d="M0 0h252v512q2 4 18 20h426v-8q-2 -8 -10 -30t-12.5 -36.5t-10 -35.5t-8.5 -37q-1 -24 15 -38.5t39 -14.5q21 0 32 8l455 311q8 5 8 13q0 7 -8 12l-455 311q-13 8 -32 8q-22 0 -38 -15.5t-16 -37.5q0 2 8 -25.5t20 -69t17 -59.5h-663q-1 -1 -7.5 -5t-8.5 -6t-7.5 -6.5 t-7.5 -8t-4 -8t-2 -9.5v-745z" />
<glyph unicode="&#x22;" horiz-adv-x="747" d="M0 0v397q0 47 29.5 80t76.5 49h287q8 0 22.5 11.5t14.5 19.5v205l-82 -25h-37q-18 0 -18 35l2 14l221 324q10 0 12 -4l213 -311q4 -6 4 -13q0 -18 -1.5 -27t-10 -13t-14.5 -4.5t-27 -0.5l-84 25v-316q0 -42 -41.5 -81t-83.5 -39h-250q-10 0 -22 -16.5t-12 -26.5v-283 h-199z" />
<glyph unicode="#" horiz-adv-x="1363" d="M0 203v254h856l-41 133q-3 40 11 54.5t51 14.5q10 0 16 -4l467 -319l4 -4q1 -2 -1 -5q-2 -1 -3 -3l-467 -320q-6 -4 -16 -4q-33 0 -47.5 11t-14.5 42v17l41 133h-856z" />
<glyph unicode="$" horiz-adv-x="1079" d="M0 180v8l612 537l-125 78q-20 11 -20 43q0 18 8 34t25 17l579 66l-141 -553q-9 -37 -51 -37q-34 0 -43 20l-62 135l-602 -520q-8 -8 -16 -8q2 -12 -52 50q-18 21 -57 67q-53 63 -55 63z" />
<glyph unicode="%" horiz-adv-x="663" d="M2 494q0 -20 8 -31l316 -459q1 -4 12 -4l319 467q5 7 5 14q0 34 -14 52.5t-48 15.5l-141 -43v403h-254v-401h-6q-35 11 -89 26t-59 15q-24 0 -36.5 -15.5t-12.5 -39.5z" />
<glyph unicode="&#x26;" horiz-adv-x="1077" d="M0 649q0 16 8 27l266 389q5 8 13 8h4l270 -393q8 -13 8 -21v-10q0 -21 -12 -34t-33 -13h-4q-1 0 -7.5 2t-8.5 2q-8 2 -53.5 16.5t-53.5 16.5v-246h244l-35 115v12q0 49 43 49q18 0 31 -8l393 -270l4 -4v-4q0 -1 -8 -9l-389 -266q-10 -8 -21 -8h-10q-20 0 -31.5 12.5 t-11.5 32.5v16q2 7 14.5 45.5t14.5 45.5q0 1 2 8t2 8v6h-461v465h-6q-8 -2 -53 -16.5t-53 -16.5q-1 0 -8.5 -2t-8.5 -2h-4q-19 0 -32 14t-13 33z" />
<glyph unicode="'" horiz-adv-x="747" d="M2 770q0 -13 2 -20t11 -10t14.5 -3h25.5l84 25v-316q0 -42 41.5 -81t83.5 -39h250q10 0 22.5 -16.5t12.5 -26.5v-283h199v397q0 47 -29.5 80t-77.5 49h-287q-8 0 -22.5 11.5t-14.5 19.5v205l82 -25h37q3 0 9 6.5t8 10.5q2 12 2 18l-2 14l-222 324q-10 0 -12 -4l-213 -311 q-4 -6 -4 -13v-12z" />
<glyph unicode="(" horiz-adv-x="1007" d="M0 881q0 16 8 28l250 357l8 8h4l4 -4l254 -361q9 -13 9 -26q0 -19 -11 -31t-30 -12h-9l-114 32v-233h233l-33 111v12q0 41 39 41q20 0 31 -8l356 -250q1 -1 3 -2.5l4 -3t2 -2.5v-5l-369 -258q-12 -8 -25 -8q-20 0 -30.5 12.5t-10.5 32.5v13l31 106h-233v-430h-205v874 l-117 -34h-8q-18 0 -29.5 11.5t-11.5 29.5z" />
<glyph unicode=")" horiz-adv-x="839" d="M0 0h190v287q0 7 19 86q20 84 94.5 154t159.5 91l20 -118q5 -21 39 -21q21 0 27 8l291 353v2q0 4 -9 7t-12 3l-422 111q-45 3 -45 -41v-13l49 -102q-132 -48 -228 -134.5t-140 -209.5q-33 -92 -33 -131v-332z" />
<glyph unicode="*" horiz-adv-x="1273" d="M0 705l164 -451q12 -29 43 -29t46 26.5t22.5 66t15.5 51.5l516 -369h289v614q22 -3 64.5 -19.5t68.5 -16.5q18 0 31.5 13.5t13.5 31.5q0 17 -8 28l-267 389q-6 9 -12 9q-5 0 -8 -5l-266 -389q-8 -11 -8 -30q0 -21 12 -34t33 -13h4q1 0 7.5 2t8.5 2q8 2 53.5 16t53.5 16 v-393l-447 320l-8 8q10 13 39 30t50 36.5t21 43.5q0 33 -32 46q-263 10 -500 10v-10z" />
<glyph unicode="+" horiz-adv-x="1099" d="M0 1094q0 -20 20 -33h46q6 1 39.5 6t39.5 6v-1073h183q0 130 4 188q9 194 128 342.5t306 219.5l4 -9l25 -98q6 -20 32 -20q23 0 37 20l234 336q2 4 2 6q0 3 -0.5 4.5t-2.5 2.5t-4 1.5t-5.5 1t-6.5 0.5l-393 70h-12q-16 0 -26.5 -9t-10.5 -26t12 -35q3 -5 22.5 -36.5 t22.5 -36.5q-196 -74 -364 -250v401q6 -1 41 -6t41 -6h13h11h8t7 1t5.5 3t6.5 5t6 7v17q0 21 -8 32l-221 344q-11 0 -13 -4l-217 -340q-12 -16 -12 -32z" />
<glyph unicode="," horiz-adv-x="1421" d="M0 135v2v2l8 8l193 123q12 9 20 9q21 0 21 -25q0 -20 -13 -57h957q0 9 -3 27.5t-3 27.5v14q9 13 20 13q9 0 21 -9l192 -123l8 -8v-4l-4 -4l-205 -131h-10q-20 0 -22 8q0 41 12 74h-963q0 -10 6.5 -29.5t6.5 -29.5v-15q-2 -8 -15 -8h-18l-205 131z" />
<glyph unicode="-" d="M0 715l475 -88q45 -7 45 -47q0 -29 -25.5 -45t-58.5 -28t-43 -28l170 -170l172 172l-104 56q-25 14 -25 43q0 13 8 26.5t21 16.5l487 92v-23l-86 -463q-5 -32 -45 -32q-30 0 -41 20l-57 107l-330 -326l-330 326l-61 -115q-6 -12 -37 -12q-39 0 -45 36z" />
<glyph unicode="." horiz-adv-x="978" d="M0 45q0 -16 20 -30.5t37 -14.5h861q12 0 20 4q16 5 28.5 20.5t12.5 32.5v1839q0 16 -15.5 35t-29.5 19h-889q-13 0 -29 -16t-16 -29v-1860zM12 53v1848q0 9 14 22.5t23 13.5h877q14 0 27.5 -16.5t13.5 -32.5v-1827q0 -13 -12.5 -27.5t-24.5 -17.5q-8 -4 -21 -4h-839 q-18 0 -38 11.5t-20 29.5zM25 53q-1 -3 20 -24h885q6 2 8 4q16 12 16 28v1827q0 12 -8.5 24.5t-19.5 12.5h-877q-6 0 -15 -9t-9 -15v-1848zM61 66v659h852v-659h-852zM94 1360v508h766v-1057h-477v205l-14 16zM135 1458q0 -27 33 -24q3 0 22.5 5t22.5 7h4q0 -33 12 -49 l392 -467v-70h110v750q35 -13 57 -13q15 0 21 4.5t6 18.5v8q0 4 -4 10l-123 181l-12 12h-4l-4 -4l-131 -193q-5 -10 -5 -12q0 -18 13 -25q37 0 73 13v-496l-278 332q30 -12 53 -12q25 0 25 24q0 11 -4 17l-127 184q-8 8 -17 8l-127 -184q-8 -12 -8 -25z" />
<glyph unicode="/" horiz-adv-x="901" d="M0 0v614q0 31 40.5 68t70.5 37h376v10q-2 9 -10.5 33.5t-13 42.5t-4.5 35t3 23.5t17 17.5h21h12q10 0 16 -4l365 -250q8 -8 8 -17l-377 -258q-6 -4 -22 -4q-43 0 -43 47v15l30 102h-247q-10 0 -24.5 -11.5t-14.5 -21.5v-479h-203z" />
<glyph unicode="0" horiz-adv-x="839" d="M0 840v2q0 4 8.5 7t11.5 3l422 111q45 3 45 -41v-13l-49 -102q132 -48 228.5 -134.5t140.5 -209.5q33 -92 33 -131v-332h-191v287q0 11 -18 86q-20 84 -94.5 154t-159.5 91l-21 -118q-5 -21 -39 -21q-20 0 -26 8z" />
<glyph unicode="1" horiz-adv-x="1204" d="M0 664q0 7 8 12l455 311q13 8 33 8q22 0 37.5 -15.5t15.5 -37.5q0 -12 -4 -20q-3 -10 -20.5 -67t-20.5 -67h663q1 -1 7.5 -5t8.5 -6t7.5 -6.5t7.5 -8t4 -8t2 -9.5v-745h-252v512q-2 4 -18 20h-426v-8q2 -8 10 -30t12.5 -36.5t10 -35.5t8.5 -37q0 -24 -15.5 -38.5 t-37.5 -14.5t-33 8l-455 311q-8 5 -8 13z" />
<glyph unicode="2" horiz-adv-x="774" d="M0 950q2 4 4 4h4l545 -102q49 -9 49 -53q0 -13 -0.5 -19t-5.5 -13.5t-14 -12.5l-129 -68l305 -313q0 -1 8 -17t8 -20v-336h-252v238q0 3 -5.5 14t-8.5 14l-240 236l-67 -129q-11 -21 -45 -21q-45 0 -50 29z" />
<glyph unicode="3" horiz-adv-x="1363" d="M0 328l4 -4l467 -320q6 -4 14 -4h15q49 0 49 53v17l-41 133h856v254h-856l41 133v16q0 53 -49 53h-15q-8 0 -14 -4l-467 -319q-4 -2 -4 -8z" />
<glyph unicode="4" horiz-adv-x="1079" d="M0 963l141 -553q9 -37 52 -37q34 0 43 20l61 135h8l594 -520q6 -8 21 -8q3 2 10.5 9.5t9.5 10.5l139 160v8l-612 537l125 78q20 11 20 43q0 48 -32 51l-541 66h-39z" />
<glyph unicode="5" horiz-adv-x="663" d="M2 416q0 19 8 30l316 459q2 4 12 4l319 -467q5 -8 5 -16v-12q0 -24 -13.5 -39t-38.5 -15h-10l-141 43v-403h-254v401h-6q-9 -3 -59.5 -18t-59.5 -18q-18 -5 -29 -5q-24 0 -36.5 15.5t-12.5 40.5z" />
<glyph unicode="6" horiz-adv-x="1044" d="M0 1040l88 -475q7 -45 47 -45q29 0 39 17l59 112l420 -420q-4 -4 -20 -12q-6 -3 -43 -22.5t-43 -22.5q-14 -11 -17.5 -17.5t-3.5 -23.5q0 -40 29 -45l463 -86h26l-92 487q-3 12 -16.5 20.5t-26.5 8.5q-31 0 -51 -41q-3 -6 -22.5 -43t-22.5 -43h-4l-414 414v4 q14 14 46.5 26.5t54.5 27.5t22 42q0 42 -37 47z" />
<glyph unicode="7" horiz-adv-x="1077" d="M0 283q0 -1 8 -9l389 -266q11 -8 31 -8t31.5 12.5t11.5 32.5v16q-2 7 -14.5 45.5t-14.5 45.5q0 1 -2 8t-2 8v6h461v465h6q8 -2 53.5 -16.5t53.5 -16.5q1 0 8 -2t8 -2q20 -1 34.5 13t14.5 34q0 16 -8 27l-266 389q-8 8 -17 8l-270 -393q-8 -11 -8 -31q0 -21 12 -34t33 -13 h4q1 0 7.5 2t8.5 2q8 2 53.5 16.5t53.5 16.5v-246h-244l35 115v12q0 49 -43 49q-18 0 -31 -8l-393 -270q-4 -2 -4 -8z" />
<glyph unicode="8" horiz-adv-x="1273" d="M0 705l164 -451q12 -29 43 -29t46 26.5t22.5 66t15.5 51.5l516 -369h289v614q22 -3 64.5 -19.5t68.5 -16.5q18 0 31.5 13.5t13.5 31.5q0 17 -8 28l-267 389q-6 9 -12 9q-5 0 -8 -5l-266 -389q-8 -11 -8 -30q0 -21 12 -34t33 -13h4q1 0 7.5 2t8.5 2q8 2 53.5 16t53.5 16 v-393l-447 320l-8 8q10 13 39 30t50 36.5t21 43.5q0 33 -32 46q-263 10 -500 10v-10z" />
<glyph unicode="9" horiz-adv-x="1007" d="M0 532l369 -258q12 -8 24 -8q20 0 30.5 12.5t10.5 32.5v13l-31 106h234v-430h205v874l116 -34h9q18 0 29.5 11.5t11.5 29.5q0 15 -9 28l-249 357q-8 8 -9 8h-4l-4 -4l-254 -361q-8 -12 -8 -26q0 -19 11 -31t30 -12h8l115 32v-233h-234l33 111v12q0 41 -39 41 q-19 0 -30 -8l-357 -250l-8 -8v-5z" />
<glyph unicode=":" horiz-adv-x="757" d="M0 0v250q0 78 26.5 144t86.5 124t102 90t126 87q10 7 15 10q4 2 4 8q-8 16 -33 31t-45 31.5t-20 39.5q0 15 9.5 28t23.5 13h188q21 0 138 -2t137 -2v-8q0 -9 -8 -25l-152 -385q-7 -17 -15.5 -22.5t-27.5 -5.5q-32 0 -39 20l-33 106q-3 5 -8 5l-184 -127q-38 -26 -65 -80 t-27 -101v-229h-199z" />
<glyph unicode=";" horiz-adv-x="757" d="M0 844q0 -9 8 -25l152 -385q7 -17 15.5 -22.5t27.5 -5.5q32 0 39 20l32 106q2 5 9 5l184 -127q38 -26 65 -80t27 -101v-229h199v250q0 78 -26 143t-87.5 124.5t-100.5 89t-127 87.5q-11 7 -16 11q-4 2 -4 8q8 16 33.5 31t45.5 31.5t20 39.5q0 15 -9.5 28t-23.5 13h-189 q-20 0 -137 -2t-137 -2v-8z" />
<glyph unicode="&#x3c;" horiz-adv-x="1150" d="M0 147v5l217 139q6 4 14 4q14 0 23 -12v-19q0 -9 -2 -27.5t-2 -27.5h643q0 10 -2 29.5t-2 29.5q0 27 22 27q10 0 23 -8l217 -140l-229 -147q-33 -3 -33 23q0 12 2 32.5t2 30.5h-643q0 -9 2 -27.5t2 -27.5q0 -16 -3.5 -23.5t-17.5 -7.5q-12 0 -24 8l-205 131q-4 2 -4 8z " />
<glyph unicode="=" horiz-adv-x="1099" d="M0 985q0 3 0.5 4.5t2.5 2.5t3.5 1.5t5 1t6.5 0.5l394 70h12q16 0 26.5 -9t10.5 -26t-12 -35q-3 -5 -23 -36.5t-23 -36.5q198 -75 365 -250v401q-6 -1 -41 -6t-41 -6h-13h-11.5h-8.5t-7 1t-5.5 3t-6 5t-5.5 7v17q0 21 8 32l221 344q10 0 12 -4l217 -340q13 -17 13 -32 q0 -19 -21 -33h-45q-6 1 -40 6t-40 6v-1073h-182q0 130 -4 188q-9 194 -128 342.5t-306 219.5l-4 -9l-25 -98q-6 -20 -33 -20q-22 0 -36 20l-234 336q-2 4 -2 6z" />
<glyph unicode="&#x3e;" horiz-adv-x="978" d="M0 57v1839q0 16 15.5 35t29.5 19h889q14 0 29.5 -16t15.5 -29v-1860q0 -16 -20 -30.5t-37 -14.5h-861q-12 0 -20 4q-16 5 -28.5 20.5t-12.5 32.5zM12 61q0 -13 12.5 -27.5t24.5 -17.5q8 -4 21 -4h839q18 0 38 11.5t20 29.5v1848q0 9 -14 22.5t-23 13.5h-877 q-14 0 -27.5 -16.5t-13.5 -32.5v-1827zM25 61v1827q0 12 8.5 24.5t19.5 12.5h877q6 0 15 -9t9 -15v-1848q-2 -6 -4 -8l-16 -16h-885q-6 2 -8 4q-16 12 -16 28zM66 66h852v659h-852v-659zM119 811h477v205l14 16l275 328v508h-766v-1057zM164 1620v8q0 4 4 10l123 181l12 12 h4l4 -4l131 -193q4 -10 4 -12q0 -19 -12 -25q-40 0 -74 13v-496l279 332q-30 -12 -53 -12q-25 0 -25 24q0 11 4 17l127 184q5 8 17 8l127 -184q8 -12 8 -25q0 -27 -33 -24q-3 0 -22.5 5t-22.5 7h-4q0 -33 -12 -49l-392 -467v-70h-110v750q-35 -13 -58 -13q-15 0 -20.5 4.5 t-5.5 18.5z" />
<glyph unicode="?" horiz-adv-x="901" d="M0 610l377 -258q6 -4 22 -4q43 0 43 47v15l-30 102h247q10 0 24.5 -11.5t14.5 -21.5v-479h203v614q0 31 -40 68t-70 37h-377v10q2 9 10.5 33.5t13 42.5t4.5 35t-3 23.5t-17 17.5h-21h-14q-8 0 -14 -4l-365 -250q-8 -6 -8 -17z" />
<glyph unicode="@" horiz-adv-x="774" d="M0 0h252v238q0 3 5.5 14t8.5 14l240 236l67 -129q11 -21 45 -21q45 0 50 29l106 569q-2 4 -4 4h-4l-545 -102q-49 -9 -49 -53q0 -35 21 -45l129 -68l-306 -313q-16 -24 -16 -37v-336z" />
<glyph unicode="A" horiz-adv-x="1458" d="M0 877q0 -12 4 -17l180 -270q8 -13 14 -17t19 -4q17 0 28 15.5t13.5 34t6 34t7.5 15.5q17 0 56 -29q40 -29 72 -82t32 -98v-459h152v979h4q14 0 40 -4t40 -4h20q12 3 12 24v13q0 6 -4 12l-180 283l-8 8h-4l-189 -295q0 -1 -2 -6t-2 -6q-3 -23 17 -33h20q15 0 42 4t40 4 v-221q-17 6 -48 26t-46 27v8q3 4 18.5 29t18.5 29q8 12 8 24q0 29 -35 29h-14zM877 229h149v246q0 51 39.5 108.5t85.5 84.5q30 15 33 16h2q5 0 8.5 -24.5t13 -49t29.5 -24.5q24 0 29 8l192 287q0 9 -8 12l-332 53h-10q-31 0 -31 -31q0 -17 22.5 -44t22.5 -42v-2 q-183 -89 -233 -266q-12 -60 -12 -65v-267z" />
<glyph unicode="B" horiz-adv-x="761" d="M0 377l8 -8l438 -254l-65 -66q-4 -4 -4 -18q0 -9 6 -20t14 -11h66l299 25v12l-152 315q-3 8 -26 8q-20 0 -32 -16t-14.5 -35t-5 -35t-6.5 -16h-2q-6 4 -8 4l-418 242q-8 8 -16 8h-4q-2 0 -5 -3t-3 -5q-5 -8 -33 -57.5t-33 -57.5l-4 -8v-4z" />
<glyph unicode="C" horiz-adv-x="1425" d="M0 39h1270v-31q0 -8 14 -8h14l115 86q12 9 12 16t-4 9q-8 6 -57 43t-57 43q-10 8 -19 8q-18 0 -18 -8v-35h-1270v-123z" />
<glyph unicode="D" horiz-adv-x="1589" d="M0 770q0 -13 1 -19t6 -12t16 -6q0 -1 13 1t28 4.5t18 2.5h6v-741h119v741h10q3 0 26.5 -4t26.5 -4q12 -1 18.5 6t6.5 19v8q0 6 -4 12l-139 217h-9zM459 758q0 -11 9 -18.5t19 -6.5q3 0 27 4t27 4h6v-741h117q2 99 8.5 163.5t27 136t61.5 132t107 121.5q28 28 62 45h2h2 q2 -4 14.5 -26.5t14.5 -26.5q9 -13 20 -13q20 0 29 25l98 229v11q-6 0 -39 -1t-39 -1q-62 0 -201 -9q-14 -5 -14 -22l2 -10l45 -54q-86 -60 -131 -110q-8 -9 -29.5 -38t-35.5 -40v229q12 0 33 -4t32 -4q9 0 17 8t8 17q0 8 -4 16l-140 217q-2 4 -8 4l-4 -4l-139 -217 q-4 -8 -4 -16zM1147 160h117v200q0 33 42 88.5t74 55.5h4l17 -62q4 -12 22 -12q16 0 27 16l139 209v4q0 9 -4 9l-258 41h-2q-11 -1 -19 -9q-10 -10 -8 -20q4 -21 33 -57v-2q0 -4 -13 -12.5t-31 -18.5t-21 -12q-48 -38 -83.5 -94.5t-35.5 -110.5v-213z" />
<glyph unicode="E" horiz-adv-x="1363" d="M0 1004q0 -19 6.5 -26t24.5 -7q14 0 42.5 3t43.5 3v-977h151v979h11q13 0 38 -4t39 -4q33 0 33 30q0 10 -8 23l-180 283q-2 4 -13 4l-188 -295v-12zM782 254h150v242q0 56 38.5 113.5t90.5 86.5q22 11 24 13h5q8 0 12 -15.5t5.5 -34t12 -34t29.5 -15.5h10l21 21l184 274 v13l-332 53h-14q-18 0 -24.5 -7t-6.5 -26v-12l41 -66v-8q-96 -42 -171 -137.5t-75 -194.5v-266z" />
<glyph unicode="F" horiz-adv-x="491" d="M0 201l106 -62q5 -3 5 -12q-6 -6 -50 -61q-12 -15 -12 -31q0 -17 10.5 -26t26.5 -9h12q47 2 137 6t157 7l67 3l33 4l-189 365q-6 12 -29 12q-16 0 -28 -12.5t-17.5 -25t-12 -35t-7.5 -25.5q-1 -6 -3 -7t-9 -1q-6 4 -43 24.5t-43 24.5q-2 1 -12.5 6t-12.5 6q-1 -1 -4 -6 t-4 -6l-78 -135v-4z" />
<glyph unicode="G" horiz-adv-x="1030" d="M2 989q0 -43 45 -43h16l113 35v-207q0 -3 4 -23t10.5 -48.5t8.5 -38.5q9 -40 28 -78l160 -320q4 -4 12 -37q15 -60 15 -61v-168h215v197q0 83 -45 168l-160 319q-29 60 -29 115v182l111 -35h16q45 0 45 43v12q0 9 -4 15l-270 393q-2 4 -8 4q-7 0 -9 -4l-266 -389 q-8 -11 -8 -31zM612 1274q0 -207 58 -422q24 -90 53 -156q1 -2 6.5 -9.5t5.5 -12.5v-2q30 -41 90 -41q40 0 54 12q42 36 57 90q94 294 94 510v27l-4 4h-414z" />
<glyph unicode="H" horiz-adv-x="786" d="M0 147v3v2l4 4l418 241l-82 82q-4 4 -4 21q0 37 47 37h18l385 -31v-6l-176 -369l-16 -16h-37q-9 0 -17.5 19.5t-13.5 41.5l-10 44l-4 22l-8 -4l-406 -234l-8 -4h-2q-8 0 -41.5 58t-46.5 89z" />
<glyph unicode="I" horiz-adv-x="1482" d="M0 868l193 -286q9 -13 18 -13q33 0 39 21q14 42 20 78h4q6 0 14 -4t14 -7.5t15.5 -10t10.5 -7.5q36 -25 70 -77t34 -91v-258h150v672q0 16 -21 82q-57 155 -225 237v4q3 4 18.5 29t18.5 29q8 14 8 26q0 31 -31 31h-6l-332 -53q-1 0 -6 -2t-6 -2v-4q0 -1 2 -4.5t2 -4.5 l193 -286q6 -9 22 -9q12 0 19 6t9.5 11.5t6.5 19.5q1 2 4.5 16.5t7 28t4.5 17.5l4 4q23 -11 33 -17q47 -27 85 -80t38 -104v-102q-49 34 -94 53v4q3 5 20.5 33t20.5 33q4 4 4 10v8q0 31 -33 31h-12l-332 -53q-4 -3 -4 -5v-4zM782 995q0 -20 13 -24h20q15 0 42 4t42 4v-979 h152v459q0 8 14 57q12 41 60.5 96.5t84.5 55.5q4 0 7.5 -16t6.5 -34.5t13 -34.5t27 -16q11 0 15.5 3t14.5 16l185 274q0 1 2 4t2 4v4l-4 5l-332 53h-12q-33 0 -33 -31q0 -17 22.5 -44t22.5 -42v-2q-15 -7 -46 -27t-48 -26v221h4q6 -1 41 -6t41 -6q28 0 28 30q0 17 -8 31 l-176 275q-2 4 -8 4t-8 -4l-181 -283q-4 -6 -4 -12v-13z" />
<glyph unicode="J" horiz-adv-x="860" d="M0 129v168h496q0 18 -6.5 51t-6.5 49q0 13 9.5 23t23.5 10q13 0 25 -8l319 -205v-4l-4 -4l-319 -205q-6 -4 -11 -4h-8q-35 0 -35 33q0 16 6.5 47.5t6.5 48.5h-496z" />
<glyph unicode="K" horiz-adv-x="1826" d="M0 61q0 -18 19.5 -39.5t37.5 -21.5h1708q11 2 13 4q20 8 34.5 26.5t14.5 39.5v471q0 22 -18 45.5t-40 23.5h-1712q-18 0 -37.5 -21t-19.5 -40v-488zM12 57v496q0 15 21 32t37 17h1687q18 0 38 -18t20 -35v-488q0 -14 -15.5 -29t-30.5 -20q-8 -4 -16 -4h-1679 q-19 0 -40.5 15.5t-21.5 33.5zM25 70q0 -14 13.5 -29.5t27.5 -15.5h1695q1 0 17 8l16 16l4 8v496q0 9 -12 21t-21 12h-1704q-11 0 -23.5 -15t-12.5 -26v-475zM164 178v254h1165q0 16 -7 44t-7 44q0 12 8 20.5t20 8.5q7 0 13 -4l356 -242l-356 -237q-5 -5 -13 -5q-12 0 -20 9 t-8 20q0 16 7 44t7 44h-1165z" />
<glyph unicode="L" horiz-adv-x="1445" d="M0 418q0 11 4 12l209 143q5 5 12 5h11q22 0 22 -25q0 -11 -5 -33t-5 -35h854v-127h-316v-137h414v4q-1 3 -8 29t-8 29v6q0 13 10 20.5t23 5.5q8 0 16 -8l209 -143q4 -2 4 -8q0 -2 -3.5 -5.5t-4.5 -3.5l-205 -139q-13 -8 -23 -8t-18 8t-8 19v6q1 3 8 28.5t8 28.5v4h-352 q-27 0 -45 -23t-21 -51h-120v76h-322v123h317q0 10 1 29t1 28q0 45 -32 72q-16 8 -17 8h-364q0 -12 6 -33t6 -32q0 -27 -25 -27l-12 2z" />
<glyph unicode="M" horiz-adv-x="1171" d="M0 311q0 17 12 21v30h-12v31q0 2 4.5 5.5t9.5 7t6 4.5h50l4 -9h28l4 9h50l4 -9h33l4 9h49l8 -9h29l8 9h49l4 -9h33l4 9h49l4 -9h33l4 9h49l8 -9v50l-4 -9h-53l-4 9h-33l-4 -9h-49l-4 9h-33l-4 -9h-53l-4 9h-29l-4 -9h-53l-4 9h-33l-4 -9h-50l-4 9h-28l-4 -9h-54 q-1 7 -8.5 12.5t-7.5 16.5q0 17 12 21v28q-12 4 -12 21q0 11 7.5 16t8.5 12h54l4 -8h28l4 8h50l4 -8h33l4 8h49l8 -8h29l4 8h53l4 -8h33l4 8h49l4 -8h33l4 8h53l4 -8v62q0 9 -13.5 22.5t-22.5 13.5h-279q0 -9 6 -26.5t6 -26.5q0 -24 -22 -24q-10 0 -23 8l-176 119q-4 2 -4 8 t4 8l180 119q4 4 11 4h10q20 0 20 -23q0 -10 -5 -28.5t-5 -28.5h678v-106h-250v-101l4 8h53l5 -8h32l4 8h50l4 -8h32l4 8h50l8 -8h29l4 8h53l4 -8h33l4 8h49l4 -8h29l4 8h53q0 -5 3.5 -8.5t8.5 -3.5v-33l-8 -4v-28l8 -5v-32q-4 0 -8 -4t-4 -9h-53l-4 9h-29l-4 -9h-49l-4 9 h-33l-4 -9h-53l-4 9h-29l-4 -9h-54l-4 9h-32l-4 -9h-50l-4 9h-32l-5 -9h-53l-4 9v-50l4 9h53l5 -9h32l4 9h50l4 -9h32l4 9h50l8 -9h29l8 9h49l4 -9h33l4 9h49l4 -9h29l4 9h49q7 -10 16 -13v-32l-8 -5v-28l8 -4v-33q-5 -1 -9 -8.5t-7 -7.5h-51v12h-33v-12h-53v12h-35 q-4 -12 -8 -12h-45q-2 0 -4 3t-3 6l-1 3h-29q-4 -12 -8 -12h-52v12h-36v-12h-54v12h-34q-5 -12 -9 -12h-45q-2 0 -4 3t-3 6l-1 3v-103h315q0 9 -6 27t-6 27q0 24 21 24h8q6 0 12 -4l180 -123q4 -2 4 -8t-4 -8l-180 -119q-6 -4 -12 -4h-8q-21 0 -21 25q0 9 6 26.5t6 26.5 h-282q-13 0 -22 -14.5t-13.5 -29t-5.5 -14.5h-105v60h-251v106h249v105q-4 -12 -8 -12h-51v12h-37v-12h-53v12h-37v-12h-51q-2 0 -4 3t-3 6l-1 3h-29q-4 -12 -8 -12h-51v12h-37v-12h-54v12h-32v-12h-52q-4 0 -12 13.5t-8 18.5zM74 332h28v28h-28v-28zM74 492h28v28h-28v-28z M160 332h33v28h-33v-28zM160 492h33v28h-33v-28zM254 332h29v28h-29v-28zM254 492h29v28h-29v-28zM344 332h33v28h-33v-28zM344 492h33v28h-33v-28zM434 332h33v28h-33v-28zM434 492h33v28h-33v-28zM526 346q0 -14 2 -14q2 8 2 14q0 4 -1 9l-1 5q-2 0 -2 -14zM526 506 q0 -14 2 -14q2 8 2 14q0 4 -1 9l-1 5q-2 0 -2 -14zM641 346q0 -14 2 -14q2 8 2 14q0 4 -1 9l-1 5q-2 0 -2 -14zM641 506q0 -14 2 -14q2 8 2 14q0 4 -1 9l-1 5q-2 0 -2 -14zM705 332h32v28h-32v-28zM705 492h32v28h-32v-28zM795 332h32v28h-32v-28zM795 492h32v28h-32v-28z M889 332h29v28h-29v-28zM889 492h29v28h-29v-28zM979 332h33v28h-33v-28zM979 492h33v28h-33v-28zM1069 332h29v28h-29v-28zM1069 492h29v28h-29v-28z" />
<glyph unicode="N" horiz-adv-x="966" d="M0 283h8q125 36 244 36q199 0 383 -102q11 -4 45 -29q2 0 5 -3t3 -5l-131 -45q-25 -11 -25 -35q0 -12 7 -22.5t18 -11.5l389 -66h8q13 0 13 6v2l-111 393q-4 19 -33 19q-31 0 -37 -27l-28 -131h-4q-266 230 -594 230h-62q-1 0 -73 -9q-2 0 -11 -2t-10 -2l-4 -4v-192z" />
<glyph unicode="O" horiz-adv-x="1654" d="M0 791q7 -18 49 -115t49 -115q5 -13 10.5 -18.5t18.5 -5.5q17 0 20 8l29 57q49 -19 123 -102q49 -55 79.5 -112.5t44.5 -124.5t18 -122t5 -141h117v741h8q9 0 28 -2t28 -2q24 0 24 21v8q0 6 -4 12l-139 217q-11 0 -16 -8l-136 -213q-4 -10 -4 -12q-1 -14 7 -19.5t22 -5.5 q10 0 30.5 2t30.5 2v-229q-70 111 -192 188v5q0 4 8 12q2 3 16.5 18.5t16.5 18.5q0 31 -17 37q-20 1 -133 4t-133 4q-8 0 -8 -8zM856 389l2 -199h109l6 7v180q0 18 10 53q24 112 91 210.5t163 154.5l29 -58q5 -8 20 -8q20 0 25 12l98 230q0 1 2 6t2 6v4l-4 4 q-14 -1 -130.5 -4t-135.5 -4q-21 -3 -21 -25q0 -9 5.5 -19t11.5 -16t15.5 -14.5t12.5 -11.5q-10 -15 -40.5 -35.5t-36.5 -25.5q-180 -163 -226 -394q-8 -48 -8 -53zM1208 193h117v188q0 38 42 97t77 59q4 0 7 -18.5t11 -37t25 -18.5q15 0 20 8l144 213q0 1 2 4t2 4v4 q-1 0 -6.5 2t-6.5 2l-229 37h-16q-12 0 -16.5 -0.5t-10 -3t-6.5 -9.5t0 -19l33 -54q-2 -4 -4 -4q-185 -106 -185 -262v-192z" />
<glyph unicode="P" horiz-adv-x="409" d="M0 45l152 156l-152 155l49 50l156 -152l155 152h5q1 0 17.5 -16t23.5 -25l4 -9l-152 -155l152 -156l-50 -49l-155 151l-156 -151z" />
<glyph unicode="Q" horiz-adv-x="1486" d="M0 1001q0 -13 8.5 -21.5t22.5 -8.5q15 0 90 12v-983h151v225q0 11 19 103q24 126 99.5 240t182.5 194q17 17 41 29l9 4q4 -2 4 -4l37 -74q5 -12 26 -12t35 32l123 287q4 10 4 25h-49q-21 -1 -145 -4.5t-146 -4.5q-37 0 -37 -32v-11q0 -6 4 -10l58 -61l-5 -4 q-116 -83 -196 -172q-6 -6 -57 -74l-5 -4v311q6 -1 39 -6t39 -6h8q14 0 22.5 9t8.5 24l-2 12l-188 295q-11 0 -13 -4l-184 -287q-4 -6 -4 -19zM905 229h150v250q0 60 53 127.5t109 81.5q6 -36 20 -78q6 -24 33 -24q17 0 24 12l193 287v10l-324 51h-41q-7 0 -11.5 -9 t-4.5 -17q0 -13 4 -19q3 -5 20.5 -32.5t20.5 -32.5v-2q0 -3 -21.5 -16t-46.5 -28t-30 -20q-148 -140 -148 -270v-271z" />
<glyph unicode="R" horiz-adv-x="1566" d="M2 758q0 -21 23 -21q11 0 32 2t33 2v-741h119v741h8q10 0 28 -2t27 -2q15 0 20 6t5 21v10l-139 217q-2 4 -13 4l-139 -217q-4 -6 -4 -12v-8zM530 766v-5q0 -13 13 -20h20q10 0 30 2t30 2v-741h118v741h7q3 0 26.5 -4t26.5 -4q28 -3 28 25q0 12 -8 24l-135 209q-2 4 -8 4 l-4 -4l-139 -217q0 -1 -2.5 -6t-2.5 -6zM1124 197h117v196q0 31 24 65.5t52 57.5q28 21 33 21h12l4.5 -18t7.5 -27.5t8 -20.5l4 -4h31l150 221v12l-254 41h-7q-18 -1 -22 -5q-4 -6 -4 -31q2 -3 12.5 -20.5t12.5 -20.5l4 -9v-4q-77 -39 -131 -105.5t-54 -144.5v-204z" />
<glyph unicode="S" horiz-adv-x="1667" d="M0 700q59 -141 86 -200q7 -17 23 -17q8 0 14 4t11 12.5t7.5 13.5t6.5 17l4 11h2q4 0 43 -29q62 -51 100.5 -104t57 -118t24 -122.5t6.5 -147.5l6 -20v14h98v650q10 0 29.5 -2.5t28.5 -2.5q22 0 22 25l-4 12l-123 193q-10 0 -12 -4l-123 -193v-10q0 -23 21 -23 q9 0 26.5 2.5t26.5 2.5v-193q-2 3 -14.5 18.5t-14.5 18.5l-78 78q-17 17 -53 41q-4 2 -4 8q1 1 6.5 6t10 9.5t9.5 11t8 12.5t3 12q0 17 -16 23q-80 4 -238 4v-13zM676 682q0 -9 5.5 -16t14.5 -7q10 0 30 2.5t30 2.5v-648h100q1 81 7 137.5t22.5 121t52 119t90.5 102.5 q17 17 53 41l9 4q2 0 15 -29t32 -29q14 0 26 29l82 193v8q-157 0 -237 -4q-20 -9 -17 -33l37 -41v-4l-4 -4q-94 -70 -164 -160v197q10 0 29.5 -2.5t28.5 -2.5t14.5 7t5.5 16q0 10 -8 23l-119 184h-8l-119 -184q-8 -13 -8 -23zM1278 160h98q0 105 4 151q3 74 66 127 q3 3 24 17q1 0 4.5 2t4.5 2h2h2q4 -6 4 -8q1 -3 6 -22.5t6 -22.5q9 -13 21 -13q16 0 24 17l119 176q4 8 4 16l-229 37h-3q-9 1 -15 -5q-8 -6 -7 -18q0 -7 2.5 -14.5t5 -11.5t9 -13t8.5 -12v-8q-62 -25 -111 -86.5t-49 -126.5v-184z" />
<glyph unicode="T" horiz-adv-x="1597" d="M0 479v13q21 4 29 4q20 1 120.5 8t116.5 8h17q36 0 36 -29q0 -12 -4 -16l-57 -57v-4q111 -115 111 -201v-205h-113v184q0 30 -19.5 64.5t-43.5 54.5q-1 -5 -8.5 -35t-8.5 -35q-7 -24 -31 -24q-20 0 -26 16zM643 594q0 12 8 24l131 205q2 4 9 4l4 -4l131 -205q8 -12 8 -24 q0 -21 -25 -21q-10 0 -31.5 2.5t-31.5 2.5v-578h-115v578h-8q-9 0 -27.5 -2.5t-27.5 -2.5q-25 0 -25 21zM1229 0v205q0 87 110 201v4l-57 57q-4 4 -4 16q0 29 37 29h16q16 -1 117 -8t121 -8l28 -4v-13l-118 -254q-6 -16 -27 -16q-24 0 -31 24q-1 5 -8 35t-8 35 q-25 -20 -44.5 -55t-19.5 -64v-184h-112z" />
<glyph unicode="U" horiz-adv-x="1517" d="M0 889q0 -25 14 -29h17q14 0 38.5 4t36.5 4v-868h136v868q44 -8 71 -8q20 0 27 7t6 30l-168 262q-11 0 -16 -8l-160 -250q-2 -10 -2 -12zM580 330q0 -18 1 -53t1 -52h133q1 111 8 185t29 157.5t68 154.5t120 138q13 13 45 37l41 29h4l33 -66q5 -12 24 -12q22 0 33 29 q8 19 55.5 128.5t55.5 129.5q0 1 2 6t2 6v6q-157 0 -324 -10q-12 -4 -12 -21v-20q3 -3 18.5 -20.5t18.5 -20.5q1 -1 6 -8.5t6 -8.5v-4q-148 -92 -242 -246t-118 -331q-8 -57 -8 -133zM997 225h138v238q0 6 14 41q13 34 52.5 78.5t68.5 44.5h2l4 -4l20 -70q3 -12 23 -12h8 q12 0 14 4l177 262q-3 4 -5 4q-1 0 -6 2t-6 2l-282 45q-16 0 -23.5 -1t-12.5 -7t-5 -18t7 -26t20 -31t14 -19q-95 -48 -158.5 -130.5t-63.5 -181.5v-221z" />
<glyph unicode="V" horiz-adv-x="1425" d="M0 68h1270q-21 -38 -21 -52q0 -16 22 -16h7l143 90l4 4v2v2q0 2 -3.5 5t-4.5 3q-10 6 -65.5 41t-65.5 41q-8 5 -10 5h-10h-13q-4 -4 -4 -17q0 -9 7.5 -24t7.5 -23h-1264v-61z" />
<glyph unicode="W" horiz-adv-x="1605" d="M0 643l127 -270q5 -13 25 -13q21 0 28 21q1 5 8.5 32.5t8.5 32.5l4 5q19 -15 39 -48t20 -55v-196h113v213q0 49 -33.5 101t-77.5 91v4l62 62q2 8 2 10q0 14 -9.5 22.5t-23.5 8.5h-10zM573 741q0 -27 29 -24q28 0 60 8v-725h112q1 88 6 145.5t21 123t48.5 122t84.5 113.5 q60 65 102 82l29 -58q4 -8 20 -8q4 0 8 2t7 4.5t6 7.5t4.5 8t4 8.5t3.5 6.5q6 15 43 100t43 101q0 1 2 6t2 6v6q-134 0 -266 -6q-18 -5 -18 -27l2 -10l41 -45v-4l-4 -4q-45 -35 -70 -56t-58 -55t-57 -69v225q32 -8 58 -8q28 -3 28 24q0 9 -4 17l-131 205l-8 8h-4l-8 -8 l-131 -205q-5 -10 -5 -17zM1233 152h117v200q0 45 59 99q0 -1 2 -4.5t2 -4.5q1 -5 8.5 -32.5t8.5 -32.5q14 -17 28 -17q16 0 21 9l123 258q0 1 2 6t2 6v4l-279 21h-12q-29 0 -29 -29v-8q0 -9 4 -13l58 -53v-4q-115 -107 -115 -217v-188z" />
<glyph unicode="X" horiz-adv-x="1513" d="M2 100v6q0 12 21 25q12 6 73.5 41t73.5 41h10h4q11 0 11 -4v-33h1126q-4 10 -4 23q0 14 4 14h20l164 -90q8 -4 8 -14q0 -13 -4 -15l-172 -94q-4 -1 -7 -1q-13 0 -13 15q0 7 4 27h-1126v-37q0 -4 -9 -4h-4h-8l-168 94q-4 2 -4 6z" />
<glyph unicode="Y" horiz-adv-x="1589" d="M0 1090q0 -3 111 -259q1 -2 2.5 -5.5t2 -5t2 -4.5t2.5 -4t2.5 -3.5t3 -3.5t3.5 -2.5t4 -2t4.5 -1t5.5 -0.5q20 0 25 12l33 66h4q1 0 4 -2.5t4 -2.5q225 -162 283 -401q4 -16 11 -56t7 -46v-369h135v348q0 4 15 98q20 104 76 200t137 169q2 2 13.5 11t25 19.5t18.5 14.5 q2 1 12 8.5t12 8.5h3h2l4 -5l28 -61q5 -12 25 -12q22 0 33 28q8 19 55 129t55 129q0 1 2 6.5t2 6.5v6q-146 0 -323 -10q-13 -4 -13 -21v-20q3 -3 18.5 -20.5t18.5 -20.5q1 -1 6.5 -8.5t6.5 -8.5v-4q-193 -126 -295 -340l-4 -4q-84 165 -201 271q-2 2 -28.5 22.5t-33.5 26.5 q-2 1 -10.5 7t-15 11.5t-10.5 9.5q3 3 20.5 22.5t20.5 22.5q9 11 10.5 14t1.5 13q0 22 -17 27q-173 10 -319 10v-14zM1073 188h133v226q0 12 15 49q13 36 53 81.5t72 45.5q5 0 7.5 -13.5t4.5 -29.5t12 -29.5t29 -13.5h3q12 0 19 12l168 250q0 9 -8 12l-283 45h-32 q-13 0 -13 -20v-21q1 -2 9.5 -15t16 -25.5t11.5 -20.5l-4 -4q-6 -3 -20.5 -10t-22.5 -11.5t-19.5 -12t-19.5 -15.5q-53 -49 -92 -110.5t-39 -119.5v-250z" />
<glyph unicode="Z" horiz-adv-x="753" d="M0 59h582v-55q0 -4 24 -4l148 94v12l-148 95q-24 0 -24 -4v-56h-582v-82z" />
<glyph unicode="[" horiz-adv-x="784" d="M2 684q0 -12 4 -16l17 -17h36l95 29h8q12 -179 106 -246l279 -201q14 -10 26.5 -29.5t12.5 -35.5v-168h198v184q0 51 -25 107t-65 86l-291 213q-23 17 -28.5 36t-5.5 54q20 0 59 -14.5t61 -14.5q41 0 41 41v8q0 7 -4 13l-250 364q-5 8 -12 8q-6 0 -8 -4l-254 -372v-15 v-10z" />
<glyph unicode="\" horiz-adv-x="1482" d="M0 332l471 -324q13 -8 33 -8q24 0 36.5 14.5t12.5 38.5v17l-45 141h975v250h-971v6q0 1 2 8t2 8q3 9 18.5 59.5t18.5 59.5v19q0 51 -51 51h-10q-13 0 -17 -4l-475 -328v-8z" />
<glyph unicode="]" horiz-adv-x="591" d="M0 649q0 61 30.5 114t84.5 85q13 8 46.5 17t52.5 23t19 42v12q-1 0 -8 -2t-8 -2q-8 -2 -53 -16.5t-53 -16.5q-45 -3 -45 41v12q0 7 4 13l249 364q2 4 9 4t12 -8l242 -352q8 -13 8 -23v-30q-11 -14 -19 -17.5t-30 -3.5l-111 33h-8q-3 -107 -62 -176q-29 -34 -73 -53 q-9 -4 -29.5 -9t-33.5 -9t-24.5 -15.5t-11.5 -28.5q0 -32 25 -41l160 -49q66 -21 104.5 -83.5t38.5 -133.5q0 -95 -49 -147l-37 -37q-6 -6 -28 -16t-37 -22t-15 -28v-90h-182v127q0 21 12 45q27 59 58 86q8 7 34.5 21.5t43 29.5t16.5 31q0 11 -9.5 24.5t-19.5 16.5l-160 49 q-67 21 -105 83.5t-38 135.5z" />
<glyph unicode="^" horiz-adv-x="1044" d="M0 0l92 487q3 12 16.5 20.5t26.5 8.5q31 0 51 -41q3 -6 22.5 -43t22.5 -43h5l413 414v4q-14 14 -46.5 26.5t-54.5 27.5t-22 42q0 42 37 47l481 90l-88 -475q-7 -45 -47 -45q-29 0 -39 17l-59 112l-420 -420q3 -3 21 -12q6 -3 43 -22.5t43 -22.5q14 -11 17 -17.5t3 -23.5 q0 -40 -29 -45l-462 -86h-27z" />
<glyph unicode="_" d="M0 -2l475 88q45 7 45 47q0 29 -25.5 44.5t-58.5 27.5t-43 28l170 170l172 -172l-104 -55q-25 -14 -25 -43q0 -13 8 -26.5t21 -16.5l487 -92v22l-86 463q-5 33 -45 33q-30 0 -41 -20l-57 -107l-330 326l-330 -326l-61 115q-6 12 -37 12q-39 0 -45 -37z" />
<glyph unicode="`" horiz-adv-x="1396" d="M0 332v4l467 319q6 4 14 4h15q23 0 38 -12.5t15 -36.5v-4q0 -9 -8 -33q-2 -8 -16.5 -53t-16.5 -53v-8h381l-41 131v16q0 53 51 53q24 0 35 -8l459 -315q4 -2 4 -8l-4 -4l-467 -320q-6 -4 -17 -4h-12q-49 0 -49 53v17l41 131h-381v-8q3 -9 18.5 -59.5t18.5 -59.5 q0 -1 2 -10t2 -11v-4q0 -24 -15.5 -36.5t-39.5 -12.5h-13q-8 0 -14 4l-459 315q-8 5 -8 13z" />
<glyph unicode="a" horiz-adv-x="1458" d="M0 881q0 7 1 9t7 3l332 53h10q31 0 31 -31q0 -17 -22.5 -44t-22.5 -42v-2q183 -89 233 -266q0 -2 4 -17.5t6.5 -29t2.5 -18.5v-267h-150v246q0 51 -39.5 108.5t-85.5 84.5q-30 15 -33 16h-2q-5 0 -8.5 -24.5t-13 -49t-29.5 -24.5q-23 0 -28 8zM758 995v13q0 6 4 12 l180 283l8 8h4l189 -295q0 -1 2 -6t2 -6q0 -23 -17 -33h-20q-15 0 -42 4t-40 4v-221q17 6 48 26t46 27v8q-3 4 -18.5 29t-18.5 29q-8 12 -8 24q0 29 35 29h14l332 -53q0 -9 -4 -17l-180 -270q-8 -13 -14 -17t-19 -4q-17 0 -28 15.5t-13.5 34t-6 34t-7.5 15.5q-17 0 -56 -29 q-40 -29 -72 -82t-32 -98v-459h-152v979h-4q-14 0 -40 -4t-39 -4h-21q-12 3 -12 24z" />
<glyph unicode="b" horiz-adv-x="761" d="M0 25v12l152 315q3 8 26 8q20 0 32 -16t14.5 -35t5 -35t6.5 -16h2q6 4 8 4l418 242q8 8 16 8h4q2 0 5 -3t3 -5q5 -8 33 -57.5t33 -57.5l4 -8v-4l-8 -8l-439 -254l66 -66q4 -4 4 -18q0 -9 -6 -20t-14 -11h-66z" />
<glyph unicode="c" horiz-adv-x="1425" d="M0 102q0 7 4 9q8 6 57.5 43t57.5 43q10 8 18 8q19 0 19 -8v-35h1269v-123h-1269v-31q0 -8 -15 -8h-14l-115 86q-12 9 -12 16z" />
<glyph unicode="d" horiz-adv-x="1589" d="M0 655v4q0 9 4 9l258 41q11 1 20.5 -9t8.5 -20q-4 -21 -33 -57v-2q0 -4 13.5 -12.5t31.5 -18.5t21 -12q48 -38 83 -94t35 -111v-213h-116v200q0 33 -42.5 88.5t-74.5 55.5h-4l-17 -62q-4 -12 -22 -12q-16 0 -27 16zM479 786v11q6 0 39 -1t39 -1q61 0 201 -9q14 -5 14 -22 l-2 -10l-45 -54q86 -60 131 -110q7 -8 29.5 -37.5t36.5 -40.5v229q-12 0 -33 -4t-33 -4q-9 0 -17 8t-8 17q0 6 5 16l139 217q2 4 8 4l4 -4l139 -217q4 -8 4 -16q0 -11 -9 -18.5t-19 -6.5q-3 0 -26.5 4t-26.5 4h-7v-741h-116q-2 99 -9 163.5t-27.5 136t-61.5 132t-107 121.5 q-28 28 -62 45h-2h-2q-2 -4 -14 -26.5t-14 -26.5q-9 -13 -21 -13q-19 0 -28 25zM1294 758v8q0 6 4 12l140 217h8l143 -225q0 -37 -22 -37q0 -1 -13 1t-28.5 4.5t-18.5 2.5h-6v-741h-119v741h-10q-3 0 -26.5 -4t-26.5 -4h-4q-21 0 -21 25z" />
<glyph unicode="e" horiz-adv-x="1363" d="M0 905v13l332 53h14q18 0 24.5 -7t6.5 -26v-12l-41 -66v-8q96 -42 171 -137.5t75 -194.5v-266h-150v242q0 56 -38.5 113.5t-90.5 86.5q-22 11 -24 13h-5q-8 0 -12 -15.5t-5.5 -34t-12 -34t-29.5 -15.5h-10l-21 21zM975 1001q0 10 8 23l180 283q2 4 13 4l188 -295v-12 q0 -19 -6.5 -26t-24.5 -7q-15 0 -43 3t-43 3v-977h-151v979h-11q-13 0 -38 -4t-39 -4q-33 0 -33 30z" />
<glyph unicode="f" horiz-adv-x="491" d="M0 20l188 365q6 12 29 12q16 0 28.5 -13t17.5 -25t12 -34.5t8 -25.5q1 -6 3 -7t9 -1q6 4 43 24.5t43 24.5q2 1 12.5 6t12.5 6q1 -1 4 -6t4 -6l78 -135v-4l-107 -62q-4 -1 -4 -12q1 -1 49 -61q12 -15 12 -31q0 -17 -10 -26t-26 -9h-13q-47 2 -136.5 6t-156.5 7l-67 3z" />
<glyph unicode="g" horiz-adv-x="1030" d="M0 1243v27l4 4h414q0 -207 -58 -422q-24 -90 -53 -156q-1 -2 -6.5 -9.5t-5.5 -12.5v-2q-30 -41 -90 -41q-39 0 -53 12q-43 37 -58 90q-94 294 -94 510zM401 0v197q0 83 45 168l160 319q29 60 29 115v182l-111 -35h-16q-45 0 -45 43v12q0 9 4 15l270 393q2 4 8 4q7 0 9 -4 l266 -389q8 -11 8 -31q0 -43 -45 -43h-16l-113 35v-207q0 -3 -4 -23t-10.5 -48.5t-8.5 -38.5q-9 -40 -28 -78l-160 -320q-4 -4 -12 -37q-15 -60 -15 -61v-168h-215z" />
<glyph unicode="h" horiz-adv-x="786" d="M0 500l176 -369l17 -16h36q9 0 17.5 19.5t13.5 41.5l10 44l4 22l9 -4l405 -234l8 -4h2q8 0 41.5 58t46.5 89v3v2l-4 4l-417 241l81 82q5 5 5 21q0 37 -48 37h-18l-385 -31v-6z" />
<glyph unicode="i" horiz-adv-x="1482" d="M0 868v4l4 5l332 53h12q33 0 33 -31q0 -17 -22.5 -44t-22.5 -42v-2q15 -7 46 -27t48 -26v221h-4q-6 -1 -41 -6t-41 -6q-29 0 -29 30q0 15 9 31l176 275q2 4 8 4t8 -4l180 -283q4 -6 4 -12v-13q0 -21 -12 -24h-20q-14 0 -42 4t-42 4v-979h-152v459q0 8 -14 57 q-12 41 -60.5 96.5t-85.5 55.5q-4 0 -7.5 -16t-6 -34.5t-12.5 -34.5t-27 -16q-12 0 -17 3t-14 16l-184 274q0 1 -2 4t-2 4zM901 213v672q0 16 21 82q57 155 225 237v4q-3 4 -18.5 29t-18.5 29q-8 14 -8 26q0 31 31 31h6l331 -53q1 0 6.5 -2t6.5 -2v-4q0 -1 -2 -4.5t-2 -4.5 l-193 -286q-6 -9 -22 -9q-12 0 -19 6t-9.5 11.5t-6.5 19.5q0 2 -8 29t-9 33l-4 4q-22 -11 -32 -17q-47 -27 -85 -80t-38 -104v-102q49 34 94 53v4q-3 5 -20.5 33t-20.5 33q-4 4 -4 10v8q0 31 33 31h12l332 -53q4 -3 4 -5v-4l-193 -286q-9 -13 -18 -13q-35 0 -39 21 q-16 48 -21 78h-4q-6 0 -14 -3.5t-13.5 -7.5t-14.5 -10.5t-11 -7.5q-36 -25 -70 -77t-34 -91v-258h-150z" />
<glyph unicode="j" horiz-adv-x="860" d="M0 213l4 -4l320 -205q4 -4 10 -4h8q35 0 35 33q0 16 -6 47.5t-6 48.5h495v168h-495q0 18 6 51t6 49q0 13 -9.5 23t-23.5 10q-13 0 -25 -8l-319 -205v-4z" />
<glyph unicode="k" horiz-adv-x="1826" d="M0 70v471q0 22 17.5 45.5t39.5 23.5h1712q19 0 38.5 -21t19.5 -40v-488q0 -18 -20 -39.5t-38 -21.5h-1708q-10 2 -12 4q-20 8 -34.5 26.5t-14.5 39.5zM12 61q0 -14 15 -29t30 -20q8 -4 17 -4h1679q19 0 40.5 15.5t21.5 33.5v496q0 15 -21 32t-37 17h-1687q-18 0 -38 -18 t-20 -35v-488zM29 57v496q0 9 11.5 21t20.5 12h1704q11 0 24 -15t13 -26v-475q0 -14 -13.5 -29.5t-27.5 -15.5h-1695q-1 0 -17 8l-16 16zM115 303l356 -237q5 -5 12 -5q12 0 20.5 9t8.5 20q0 16 -7 44t-7 44h1165v254h-1165q0 16 7 44t7 44q0 12 -8.5 20.5t-20.5 8.5 q-6 0 -12 -4z" />
<glyph unicode="l" horiz-adv-x="1445" d="M0 422v4l4 4l209 143q5 5 10 5h10q15 0 20 -6t5 -21q0 -11 -6 -31.5t-6 -32.5h360q22 0 37 22.5t21 47.5h120v-72h322v-123h-320v-141h414q0 11 -6 33t-6 33v16q9 12 24 12q11 0 17 -4l213 -147q4 -2 4 -8q0 -2 -3.5 -5.5t-4.5 -3.5l-205 -139q-13 -8 -23 -8 q-13 0 -22 12v15q0 13 6 34.5t6 32.5h-356q-11 0 -22 -7.5t-18.5 -18.5t-13 -22t-8.5 -18l-4 -8h-116v76h-322v123h317v45q0 28 -3.5 46t-18 34t-41.5 16h-346q0 -11 5 -32.5t5 -34.5v-14q-10 -13 -25 -13q-10 0 -16 4l-209 144z" />
<glyph unicode="m" horiz-adv-x="1175" d="M0 717v4l4 4l180 119q4 4 11 4h10q27 0 24 -29q-1 -4 -8 -24.5t-8 -24.5h322v57h106v-59h256v-102h-254v-103l4 -2q4 4 4 8h49l5 -8h32l4 8h54l4 -8h28l4 8h54l4 -8h33l4 8h49l4 -8h33l4 8h53l4 -8h25l4 8h53q0 -12 16 -12v-35h-12v-33h12v-34q-5 0 -10.5 -3.5t-5.5 -9.5 h-53l-4 9h-25l-4 -9h-53l-4 9h-33l-4 -9h-49l-4 9h-33l-4 -9h-54l-4 9h-28l-4 -9h-54l-4 9h-32l-5 -9h-49q0 9 -4 9l-4 -2v-46l4 -2q4 4 4 9h49l5 -9h32l4 9h54l4 -9h28l9 9h49l4 -9h33l4 9h49l4 -9h33l4 9h53l4 -9q8 -2 10 -2q21 0 23 11h49q0 -6 5.5 -9.5t10.5 -3.5v-35 h-12v-32h12v-35q-16 0 -16 -12h-53l-4 8h-25l-4 -8h-53l-4 8h-33l-4 -8h-49l-4 8h-33l-4 -8h-54l-4 8h-28l-4 -8h-54l-4 8h-32l-5 -8h-49q0 8 -4 8l-4 -2v-101h320q-1 4 -8.5 25t-8.5 25q-3 28 27 28h10l188 -127q5 -3 5 -8q0 -1 -3.5 -4.5t-5.5 -3.5l-180 -119 q-8 -4 -16 -4q-9 0 -17 8t-8 17v4q1 2 8.5 24.5t8.5 24.5v4h-271q-36 0 -53 -57h-104v59h-256v102h253v103l-4 2q-4 -6 -4 -8h-49l-4 8h-33l-4 -8h-53l-4 8h-29l-4 -8h-53l-4 8h-33l-4 -8h-53l-4 8h-29l-4 -8h-54l-4 8h-24l-4 -8h-54q0 12 -16 12v35h12v32h-12v35 q5 0 10.5 3.5t5.5 9.5h50q2 -11 22 -11l10 2l4 9h54l4 -9h29l8 9h49l4 -9h33l4 9h49l8 -9h29l4 9h53l4 -9h33l4 9h49q0 -1 2 -4.5t2 -4.5l4 2v46l-4 2q-4 -7 -4 -9h-49l-4 9h-33l-4 -9h-53l-4 9h-29l-4 -9h-53l-4 9h-33l-4 -9h-53l-4 9h-29l-4 -9h-54l-4 9h-24l-4 -9h-54 q0 6 -5.5 9.5t-10.5 3.5v34h12v33h-12v35q16 0 16 12h50q2 -10 22 -10l10 2l4 8h54l4 -8h29l8 8h49l4 -8h33l4 8h49l8 -8h29l4 8h53l4 -8h33l4 8h49q0 -1 2 -4t2 -4l4 2v55q0 12 -16.5 29t-28.5 17h-274v-5q1 -2 8 -24.5t8 -24.5q1 -12 -8 -21t-20 -7l-13 4l-180 123z M78 332h24v28h-24v-28zM78 492h24v28h-24v-28zM164 332h29v28h-29v-28zM164 492h29v28h-29v-28zM254 332h33v28h-33v-28zM254 492h33v28h-33v-28zM348 332h29v28h-29v-28zM348 492h29v28h-29v-28zM438 332h33v28h-33v-28zM438 492h33v28h-33v-28zM528 332h4v28h-4v-28z M528 492h4v28h-4v-28zM643 332h4v28h-4v-28zM643 492h4v28h-4v-28zM705 332h32v28h-32v-28zM705 492h32v28h-32v-28zM799 332h28v28h-28v-28zM799 492h28v28h-28v-28zM889 332h33v28h-33v-28zM889 492h33v28h-33v-28zM979 332h33v28h-33v-28zM979 492h33v28h-33v-28z M1073 332h25v28h-25v-28zM1073 492h25v28h-25v-28z" />
<glyph unicode="n" horiz-adv-x="966" d="M0 6v2l111 393q4 19 32 19q31 0 37 -27l29 -131h4q266 230 594 230h61q2 0 74 -9q2 0 11 -2t10 -2l4 -4v-192h-9q-125 36 -243 36q-199 0 -383 -102q-11 -4 -45 -29q-1 0 -4.5 -3t-3.5 -5l131 -45q24 -10 24 -35q0 -12 -6.5 -22.5t-17.5 -11.5l-390 -66h-8q-12 0 -12 6z " />
<glyph unicode="o" horiz-adv-x="1654" d="M0 692v4q1 0 6 2t6 2l230 37h16q12 0 16.5 -0.5t10 -3t6.5 -9.5t0 -19l-33 -54q2 -4 4 -4q184 -105 184 -262v-192h-116v188q0 38 -42 97t-77 59q-4 0 -7 -18.5t-11 -37t-25 -18.5q-16 0 -21 8l-143 213q0 1 -2 4t-2 4zM242 983v4l4 4q14 -1 130.5 -4t135.5 -4 q20 -3 20 -25q0 -9 -5.5 -19t-11.5 -16t-15.5 -14.5t-12.5 -11.5q10 -15 41 -35.5t37 -25.5q180 -163 226 -394q8 -48 8 -53l-2 -199h-109l-6 7v180q0 18 -10 53q-24 112 -91 210.5t-163 154.5l-29 -58q-5 -8 -20 -8h-4.5h-4.5t-3.5 0.5t-4 1t-3 2t-3 3.5t-2.5 5l-98 230 q0 1 -2 6t-2 6zM1004 758v8q0 6 4 12l139 217q8 0 16 -8l135 -213q5 -10 5 -12q0 -25 -29 -25q-10 0 -31 2t-31 2v-229q70 110 193 188v5q0 4 -8 12q-2 3 -16.5 18.5t-16.5 18.5q0 31 16 37q20 1 133.5 4t133.5 4q8 0 8 -8q-7 -18 -49.5 -115.5t-49.5 -114.5 q-5 -14 -10.5 -19t-17.5 -5q-18 0 -21 8l-28 57q-49 -19 -123 -102q-49 -55 -79.5 -112.5t-44.5 -124.5t-18.5 -122.5t-5.5 -140.5h-116v741h-9q-9 0 -27.5 -2t-27.5 -2q-24 0 -24 21z" />
<glyph unicode="p" horiz-adv-x="1183" d="M0 537q2 4 4 4q8 8 16 8l283 98h8q14 0 22.5 -9t8.5 -24l-2 -12l-41 -65v-5l4 -4q122 -32 199 -85t125 -156q28 -62 28 -103v-184h-129v152q0 8 -14 57q-18 62 -68 107t-116 65q-2 1 -16.5 4.5t-28 7t-17.5 4.5h-4v-82q0 -28 -33 -28q-18 0 -24 8l-193 225zM528 774v172 h127q1 -49 2 -77t6 -70.5t16 -69.5t28.5 -58t47 -53.5t68.5 -39.5q78 -29 103 -29v94q0 9 10.5 15t19.5 6q16 0 39 -29l189 -221v-8l-303 -107h-7q-13 0 -21.5 9.5t-8.5 23.5q0 8 4 16q2 3 10.5 18t16 27.5t10.5 16.5v8q-126 34 -203.5 87t-124.5 159q-29 68 -29 110z" />
<glyph unicode="q" horiz-adv-x="1486" d="M0 885v10l324 51h41q7 0 11.5 -9t4.5 -17q0 -13 -4 -19q-3 -5 -20.5 -32.5t-20.5 -32.5v-2q0 -3 21.5 -16t46.5 -28t30 -20q148 -140 148 -270v-271h-150v250q0 60 -53 127.5t-109 81.5q-6 -36 -20 -78q-6 -24 -33 -24q-17 0 -24 12zM635 1049h49q22 -1 145.5 -4.5 t145.5 -4.5q37 0 37 -32v-11q0 -6 -4 -10l-58 -61l4 -4q119 -85 197 -172q6 -6 57 -74l4 -4v311q-6 -1 -38.5 -6t-38.5 -6h-9q-14 0 -22 9t-8 24l2 12l188 295q10 0 12 -4l185 -287q4 -6 4 -19t-8.5 -21.5t-22.5 -8.5q-15 0 -90 12v-983h-152v225q0 16 -18 103 q-24 126 -100 240t-183 194q-17 17 -41 29l-8 4q-4 -2 -4 -4l-37 -74q-5 -12 -26 -12t-35 32l-123 287q-4 10 -4 25z" />
<glyph unicode="r" horiz-adv-x="1566" d="M0 688v12l254 41q24 1 28.5 -4.5t4.5 -31.5q-2 -3 -12.5 -20.5t-12.5 -20.5l-4 -9v-4q77 -39 130.5 -105.5t53.5 -144.5v-204h-116v196q0 31 -24 65.5t-52 57.5q-28 21 -33 21h-12q-1 -3 -4.5 -17.5t-8 -28t-8.5 -20.5l-4 -4h-30zM737 762q0 12 8 24l136 209q2 4 8 4 l4 -4l139 -217q0 -1 2 -6t2 -6q3 -15 -12 -25h-20q-10 0 -30 2t-30 2v-741h-119v741h-6q-3 0 -26.5 -4t-26.5 -4q-13 -1 -21 6t-8 19zM1270 764v10l139 217q2 4 12 4l140 -217q4 -6 4 -12v-8q0 -21 -23 -21q-12 0 -33 2t-32 2v-741h-119v741h-8q-10 0 -28.5 -2t-27.5 -2 q-15 0 -19.5 5.5t-4.5 21.5z" />
<glyph unicode="s" horiz-adv-x="1667" d="M0 602l229 37h4q9 0 15 -7t6 -16q0 -7 -2.5 -14.5t-5 -11.5t-9 -13t-8.5 -12v-8q62 -25 111 -86.5t49 -126.5v-184h-98q0 105 -4 151q-3 74 -66 127q-3 3 -24 17q-1 0 -4.5 2t-4.5 2h-2h-2q-4 -6 -4 -8q-1 -3 -6 -22.5t-6 -22.5q-9 -13 -21 -13q-15 0 -24 17l-119 176 q-4 5 -4 16zM422 705v8q157 0 237 -4q17 -7 17 -33l-37 -41v-4l4 -4q94 -70 164 -160v197q-10 0 -29 -2.5t-28 -2.5t-15 7t-6 16q0 10 8 23l119 184h8l119 -184q8 -13 8 -23q0 -9 -5.5 -16t-14.5 -7q-10 0 -30 2.5t-30 2.5v-648h-100q-1 81 -7 137.5t-22.5 121t-52 119 t-90.5 102.5q-17 17 -53 41l-8 4q-2 0 -15.5 -29t-32.5 -29q-14 0 -26 29zM1098 684l4 12l123 193q10 0 12 -4l123 -193v-10q0 -23 -21 -23q-9 0 -26.5 2.5t-26.5 2.5v-193q2 3 14.5 18.5t14.5 18.5q5 6 21.5 22.5t35.5 35t21 20.5q17 17 53 41q4 2 4 8q-1 1 -6.5 6t-10 9.5 t-9.5 11t-8 12.5t-3 12q0 16 17 23q80 4 237 4v-13q-59 -141 -86 -200q-7 -17 -22 -17q-8 0 -14 4t-11 12.5t-7.5 13.5t-6.5 17l-4 11h-3q-4 0 -43 -29q-62 -51 -100.5 -104t-57 -118t-24 -122.5t-6.5 -147.5l-6 -20v14h-98v650q-10 0 -29.5 -2.5t-28.5 -2.5q-22 0 -22 25z " />
<glyph unicode="t" horiz-adv-x="1597" d="M0 479v13q21 4 29 4q20 1 120.5 8t116.5 8h17q36 0 36 -29q0 -12 -4 -16l-57 -57v-4q111 -115 111 -201v-205h-113v184q0 30 -19.5 64.5t-43.5 54.5q-1 -5 -8.5 -35t-8.5 -35q-7 -24 -31 -24q-20 0 -26 16zM643 594q0 12 8 24l131 205q2 4 9 4l4 -4l131 -205q8 -12 8 -24 q0 -21 -25 -21q-10 0 -31.5 2.5t-31.5 2.5v-578h-115v578h-8q-9 0 -27.5 -2.5t-27.5 -2.5q-25 0 -25 21zM1229 0v205q0 87 110 201v4l-57 57q-4 4 -4 16q0 29 37 29h16q16 -1 117 -8t121 -8l28 -4v-13l-118 -254q-6 -16 -27 -16q-24 0 -31 24q-1 5 -8 35t-8 35 q-25 -20 -44.5 -55t-19.5 -64v-184h-112z" />
<glyph unicode="u" horiz-adv-x="1517" d="M0 807q2 4 4 4q1 0 6 2t6 2l283 45q15 0 22.5 -1t13 -7t5.5 -18t-7 -26t-20 -31t-14 -19q95 -48 158 -130.5t63 -181.5v-221h-137v238q0 6 -14 41q-13 34 -52.5 78.5t-68.5 44.5h-2l-4 -4l-21 -70q-3 -12 -22 -12h-9q-12 0 -14 4zM283 1147v6q156 0 323 -10q12 -5 12 -21 v-20q-3 -3 -18 -20.5t-18 -20.5q-1 -1 -6.5 -8.5t-6.5 -8.5v-4q148 -92 242.5 -246t118.5 -331q6 -43 6 -133v-105h-133q-1 111 -8 185t-29 157.5t-68 154.5t-120 138q-10 10 -46 37l-40 29h-5l-32 -66q-5 -12 -25 -12q-22 0 -33 29q-8 19 -55 128.5t-55 129.5q0 1 -2 6 t-2 6zM1171 889v8l168 262q9 0 17 -8l160 -250q2 -10 2 -12q0 -25 -15 -29h-16q-14 0 -39 4t-37 4v-868h-135v868q-44 -8 -72 -8q-18 0 -25.5 5.5t-7.5 23.5z" />
<glyph unicode="v" horiz-adv-x="1425" d="M0 94v2v2q0 2 3 5t5 3q10 6 65.5 41t65.5 41q5 5 11 5h10h12q4 -4 4 -17q0 -9 -7 -24t-7 -23h1263v-61h-1269q20 -36 20 -52t-22 -16h-7l-143 90z" />
<glyph unicode="w" horiz-adv-x="1605" d="M0 639v4l279 21h12q28 0 28 -29v-8q0 -9 -4 -13l-57 -53v-4q115 -107 115 -217v-188h-117v200q0 45 -59 99q0 -1 -2 -4.5t-2 -4.5q-1 -5 -8.5 -32.5t-8.5 -32.5q-14 -17 -29 -17t-20 9l-123 258q0 1 -2 6t-2 6zM397 770v6q135 0 267 -6q18 -5 18 -27l-2 -10l-41 -45v-4 l4 -4q43 -34 69 -56t58.5 -55.5t56.5 -68.5v225q-32 -8 -57 -8q-29 -3 -29 24q0 9 4 17l132 205l8 8h4l8 -8l131 -205q4 -8 4 -17q0 -27 -28 -24q-28 0 -60 8v-725h-113q-1 88 -6 145.5t-20.5 123t-48 122t-84.5 113.5q-60 64 -103 82l-28 -58q-4 -8 -21 -8q-4 0 -8 2 t-7 4.5t-6 7.5t-4.5 8t-4 8.5t-3.5 6.5q-6 15 -43 100t-43 101q0 1 -2 6t-2 6zM1233 152v213q0 49 33 101.5t77 90.5v4l-61 62q-2 8 -2 10q0 14 9.5 22.5t23.5 8.5h10l283 -21l-127 -270q-5 -13 -25 -13q-22 0 -29 21q-1 5 -8 32.5t-8 32.5l-4 5q-19 -15 -39 -48t-20 -55 v-196h-113z" />
<glyph unicode="x" horiz-adv-x="753" d="M0 98v2v2q0 2 3.5 5.5t4.5 3.5q9 6 63.5 41t63.5 41q12 8 25 8q16 0 16 -17q0 -7 -2 -20.5t-2 -20.5h410q0 7 -2 21.5t-2 21.5q0 15 16 15q12 0 24 -8q9 -6 63.5 -41t63.5 -41q1 0 5 -3.5t4 -5.5v-4l-4 -4l-148 -94h-5q-19 0 -19 20q0 9 4 37h-410q4 -28 4 -37 q0 -20 -19 -20h-5l-148 94z" />
<glyph unicode="y" horiz-adv-x="1589" d="M0 766q0 8 1 9t7 3l283 45h33q12 0 12 -20v-21q-1 -2 -9.5 -15t-16 -25.5t-11.5 -20.5l4 -4q6 -3 20.5 -10t22.5 -11.5t19.5 -12t19.5 -15.5q53 -49 92 -110.5t39 -119.5v-250h-133v226q0 14 -14 49q-13 36 -53 81.5t-72 45.5q-6 0 -8 -21.5t-12 -43t-34 -21.5 q-14 0 -17 5q-2 2 -5 7zM422 1098v6q146 0 323 -10q13 -5 13 -21v-20q-3 -3 -18.5 -20.5t-18.5 -20.5q-1 -1 -6 -8.5t-6 -8.5v-4q193 -126 295 -340l4 -4q85 167 200 271q2 2 28.5 22.5t33.5 26.5q2 2 10.5 7.5t15.5 11t11 9.5q-3 3 -20.5 22.5t-20.5 22.5q-2 2 -4.5 5 t-3.5 4t-2.5 3t-1.5 3t-0.5 3t-0.5 4v5q0 22 17 27q173 10 319 10v-14q0 -6 -110 -259l-6.5 -13t-5.5 -9t-9 -8t-12 -2q-20 0 -25 12l-32 66h-5q-1 0 -4 -2.5t-4 -2.5q-223 -161 -282 -401q-4 -17 -11.5 -56.5t-7.5 -45.5v-369h-135v348q0 10 -14 98q-20 104 -76 200 t-137 169q-2 2 -27 21t-31 24q-2 1 -12 8.5t-12 8.5h-2h-2l-4 -5l-29 -61q-5 -12 -25 -12q-21 0 -32 28q-8 20 -55.5 129.5t-55.5 128.5q0 1 -2 6.5t-2 6.5z" />
<glyph unicode="z" horiz-adv-x="753" d="M0 94v12l147 95q25 0 25 -4v-56h582v-82h-582v-55q0 -4 -25 -4z" />
<glyph unicode="{" horiz-adv-x="784" d="M0 0v184q0 51 25 107t65 86l291 213q23 17 29 36.5t6 53.5q-20 0 -59.5 -14.5t-61.5 -14.5q-41 0 -41 41v8q0 7 4 13l250 364q5 8 12 8q6 0 8 -4l254 -372v-15v-10q0 -12 -4 -16l-16 -17h-37l-94 29h-8q-12 -178 -107 -246l-278 -201q-14 -10 -26.5 -29.5t-12.5 -35.5 v-168h-199z" />
<glyph unicode="|" horiz-adv-x="1482" d="M0 211v250h971v6q0 1 -2 8t-2 8q-3 9 -18.5 59.5t-18.5 59.5v19q0 51 51 51h10q11 0 17 -4l475 -328v-8l-471 -324q-13 -8 -33 -8q-24 0 -36.5 14.5t-12.5 38.5v17l45 141h-975z" />
<glyph unicode="}" horiz-adv-x="1552" d="M0 336v4l475 328q6 4 25 4q25 0 39 -14.5t14 -39.5q0 -12 -4 -24q-3 -10 -20.5 -65.5t-20.5 -65.5h539l-43 139v14q0 56 51 56q19 0 30 -8l463 -320q4 -2 4 -8q0 -8 -12 -17l-459 -315q-6 -4 -16 -4h-10q-51 0 -51 53v17l43 135h-535q0 -27 20.5 -77t20.5 -77 q0 -24 -15 -37.5t-40 -13.5q-20 0 -31 8l-459 316q-8 5 -8 12z" />
<glyph unicode="~" horiz-adv-x="1218" d="M2 461v8q0 8 4 10l266 217q11 9 23 9q27 0 27 -27v-10l-35 -127h649l-37 131v8q0 25 27 25q11 0 22 -9l262 -213q9 -7 9 -37q0 -1 -3.5 -4t-8 -7t-5.5 -5l-262 -213h-29q-12 0 -12 25v8l35 127h-242v-377h-160v377h-245l35 -123v-12q0 -25 -23 -25h-10q-9 0 -13 4 l-262 213q-12 10 -12 27z" />
<glyph unicode="&#xad;" d="M0 715l475 -88q45 -7 45 -47q0 -29 -25.5 -45t-58.5 -28t-43 -28l170 -170l172 172l-104 56q-25 14 -25 43q0 13 8 26.5t21 16.5l487 92v-23l-86 -463q-5 -32 -45 -32q-30 0 -41 20l-57 107l-330 -326l-330 326l-61 -115q-6 -12 -37 -12q-39 0 -45 36z" />
<glyph unicode="&#x2000;" horiz-adv-x="975" />
<glyph unicode="&#x2001;" horiz-adv-x="1950" />
<glyph unicode="&#x2002;" horiz-adv-x="975" />
<glyph unicode="&#x2003;" horiz-adv-x="1950" />
<glyph unicode="&#x2004;" horiz-adv-x="650" />
<glyph unicode="&#x2005;" horiz-adv-x="487" />
<glyph unicode="&#x2006;" horiz-adv-x="325" />
<glyph unicode="&#x2007;" horiz-adv-x="325" />
<glyph unicode="&#x2008;" horiz-adv-x="243" />
<glyph unicode="&#x2009;" horiz-adv-x="390" />
<glyph unicode="&#x200a;" horiz-adv-x="108" />
<glyph unicode="&#x2010;" d="M0 715l475 -88q45 -7 45 -47q0 -29 -25.5 -45t-58.5 -28t-43 -28l170 -170l172 172l-104 56q-25 14 -25 43q0 13 8 26.5t21 16.5l487 92v-23l-86 -463q-5 -32 -45 -32q-30 0 -41 20l-57 107l-330 -326l-330 326l-61 -115q-6 -12 -37 -12q-39 0 -45 36z" />
<glyph unicode="&#x2011;" d="M0 715l475 -88q45 -7 45 -47q0 -29 -25.5 -45t-58.5 -28t-43 -28l170 -170l172 172l-104 56q-25 14 -25 43q0 13 8 26.5t21 16.5l487 92v-23l-86 -463q-5 -32 -45 -32q-30 0 -41 20l-57 107l-330 -326l-330 326l-61 -115q-6 -12 -37 -12q-39 0 -45 36z" />
<glyph unicode="&#x2012;" d="M0 715l475 -88q45 -7 45 -47q0 -29 -25.5 -45t-58.5 -28t-43 -28l170 -170l172 172l-104 56q-25 14 -25 43q0 13 8 26.5t21 16.5l487 92v-23l-86 -463q-5 -32 -45 -32q-30 0 -41 20l-57 107l-330 -326l-330 326l-61 -115q-6 -12 -37 -12q-39 0 -45 36z" />
<glyph unicode="&#x2013;" horiz-adv-x="1024" d="M0 715l434 -88q41 -7 41 -47q0 -29 -23.5 -45t-53.5 -28t-39 -28l155 -170l157 172l-95 56q-23 14 -23 43q0 13 7.5 26.5t19.5 16.5l444 92v-23l-78 -463q-5 -32 -42 -32q-27 0 -37 20l-52 107l-301 -326l-301 326l-56 -115q-5 -12 -34 -12q-35 0 -41 36z" />
<glyph unicode="&#x2014;" horiz-adv-x="2048" d="M0 715l867 -88q82 -7 82 -47q0 -29 -46.5 -45t-106.5 -28t-79 -28l311 -170l314 172l-190 56q-46 14 -46 43q0 13 14.5 26.5t38.5 16.5l889 92v-23l-157 -463q-9 -32 -82 -32q-55 0 -75 20l-104 107l-602 -326l-603 326l-111 -115q-11 -12 -68 -12q-71 0 -82 36z" />
<glyph unicode="&#x202f;" horiz-adv-x="390" />
<glyph unicode="&#x205f;" horiz-adv-x="487" />
<glyph unicode="&#x25fc;" horiz-adv-x="204" d="M0 0v205h205v-205h-205z" />
</font>
</defs>
</svg>
