<?xml version="1.0" standalone="no"?>
<!DOCTYPE svg PUBLIC "-//W3C//DTD SVG 1.1//EN" "http://www.w3.org/Graphics/SVG/1.1/DTD/svg11.dtd" >
<svg xmlns="http://www.w3.org/2000/svg" xmlns:xlink="http://www.w3.org/1999/xlink" version="1.1">
<metadata>
Created by FontForge 20170731 at Thu Apr  7 11:45:49 2005
 By Aleksey,,,
Copyright (c) Michael D. Adams, 2005. All rights reserved.
</metadata>
<defs>
<font id="Roadgeek2005SeriesF" horiz-adv-x="642" >
  <font-face 
    font-family="Roadgeek 2005 Series F"
    font-weight="400"
    font-stretch="normal"
    units-per-em="1000"
    panose-1="2 0 0 0 0 0 0 0 0 0"
    ascent="800"
    descent="-200"
    x-height="489"
    cap-height="670"
    bbox="-65 -311 1531 1044"
    underline-thickness="20"
    underline-position="-163"
    unicode-range="U+0005-2122"
  />
<missing-glyph horiz-adv-x="329" 
 />
    <glyph glyph-name=".notdef" horiz-adv-x="329" 
 />
    <glyph glyph-name=".null" horiz-adv-x="0" 
 />
    <glyph glyph-name="nonmarkingreturn" horiz-adv-x="333" 
 />
    <glyph glyph-name="breve" horiz-adv-x="553" 
d="M483 723q-12 -73 -66.5 -113.5t-141.5 -40.5t-140 40.5t-66 113.5h93q21 -63 115 -63q95 0 116 63h90z" />
    <glyph glyph-name="dotaccent" horiz-adv-x="553" 
d="M362 643q0 -29 -25.5 -51.5t-60.5 -22.5t-61 22.5t-26 51.5q0 31 26 53t61 22t60.5 -22t25.5 -53z" />
    <glyph glyph-name="ring" horiz-adv-x="553" 
d="M426 697q0 -56 -42.5 -92t-107.5 -36q-64 0 -106.5 36t-42.5 92q0 55 42.5 92t106.5 37q65 0 107.5 -37t42.5 -92zM342 697q0 24 -19 40.5t-47 16.5q-27 0 -46 -16.5t-19 -40.5t19 -41t46 -17q28 0 47 17t19 41z" />
    <glyph glyph-name="hungarumlaut" unicode="&#xa;" horiz-adv-x="553" 
d="M569 723l-161 -154h-130l96 154h195zM325 723l-161 -154h-128l96 154h193z" />
    <glyph glyph-name="ogonek" horiz-adv-x="553" 
d="M419 -140q-68 -45 -140 -45q-110 0 -110 80q0 56 85 105h66q-57 -56 -57 -95q0 -29 39 -29q41 0 88 23z" />
    <glyph glyph-name="caron" horiz-adv-x="553" 
d="M488 723l-134 -154h-155l-135 154h102l111 -72l111 72h100z" />
    <glyph glyph-name="dotlessi" unicode="&#xd;" horiz-adv-x="292" 
d="M82 0v487h130v-487h-130z" />
    <glyph glyph-name="fraction" horiz-adv-x="715" 
d="M134 0h-134l581 1006h134z" />
    <glyph glyph-name="fi" horiz-adv-x="623" 
d="M223 371v-371h-129v371h-73v116h73v73q0 63 35 92.5t111 29.5q17 0 35 -1.5t35 -3.5v-106q-17 2 -25 2.5t-17 0.5q-26 0 -35.5 -12t-9.5 -33v-42h87v-116h-87zM543 618q0 -26 -20 -46t-46 -20q-29 0 -47.5 19t-18.5 47q0 27 19.5 45.5t46.5 18.5q26 0 46 -18.5t20 -45.5z
M413 0v487h130v-487h-130z" />
    <glyph glyph-name="fl" horiz-adv-x="618" 
d="M223 371v-371h-129v371h-73v116h73v73q0 63 35 92.5t111 29.5q17 0 35 -1.5t35 -3.5v-106q-17 2 -25 2.5t-17 0.5q-26 0 -35.5 -12t-9.5 -33v-42h87v-116h-87zM411 0v632l127 50v-682h-127z" />
    <glyph glyph-name="Lslash" horiz-adv-x="696" 
d="M94 0v670h127v-543h449v-127h-576zM49 284q-8 -6 -16 -4t-12.5 8t-4 14t8.5 14l257 185q8 6 16 4t12.5 -8t4 -14t-8.5 -14l-257 -185v0z" />
    <glyph glyph-name="lslash" horiz-adv-x="287" 
d="M80 0v632l127 50v-682h-127zM43 289q-8 -7 -16 -5.5t-13 7t-5 13.5t8 15l231 191q8 7 16 5.5t13 -7t5 -13.5t-8 -15l-231 -191v0z" />
    <glyph glyph-name="Zcaron" horiz-adv-x="722" 
d="M47 0v127l442 416h-421v127h607v-127l-442 -416h442v-127h-628zM573 904l-134 -154h-155l-135 154h102l111 -72l111 72h100z" />
    <glyph glyph-name="zcaron" horiz-adv-x="576" 
d="M33 0v106l298 265h-282v118h494v-96l-310 -278h310v-115h-510zM500 723l-134 -154h-155l-135 154h102l111 -72l111 72h100z" />
    <glyph glyph-name="space" unicode=" " horiz-adv-x="241" 
 />
    <glyph glyph-name="exclam" unicode="!" horiz-adv-x="315" 
d="M202 176h-87l-21 334v160h127v-160zM223 52q0 -29 -18.5 -47.5t-44.5 -18.5q-29 0 -47.5 18.5t-18.5 47.5q0 26 18.5 44.5t47.5 18.5q26 0 44.5 -18.5t18.5 -44.5z" />
    <glyph glyph-name="quotedbl" unicode="&#x22;" horiz-adv-x="527" 
d="M411 400h-84l-21 270h127zM200 400h-85l-21 270h125z" />
    <glyph glyph-name="numbersign" unicode="#" horiz-adv-x="611" 
d="M583 390h-103l-15 -98h104l-14 -102h-106l-31 -190h-119l32 190h-98l-31 -190h-115l31 190h-104l14 102h106l14 98h-103l16 104h104l28 176h115l-31 -176h101l31 176h115l-28 -176h103zM263 390l-14 -98h99l16 98h-101z" />
    <glyph glyph-name="dollar" unicode="$" horiz-adv-x="759" 
d="M694 190q0 -87 -64 -137.5t-179 -61.5v-111h-124v113q-76 5 -137.5 28.5t-123.5 67.5l73 104q30 -20 59 -34.5t59.5 -23.5t64 -13t73.5 -4q85 0 129.5 19t44.5 58q0 21 -17.5 40.5t-46.5 30.5q-24 8 -59 16.5t-100 20.5q-38 8 -67 15.5t-51 16.5t-38.5 19.5t-29.5 23.5
q-52 53 -52 118q0 106 113 153q23 11 50 17.5t53 10.5v108h130q-1 -31 -1 -55q0 -20 -0.5 -37t1.5 -16q50 -7 98.5 -26t98.5 -49l-68 -106q-51 32 -99 44t-110 12q-71 0 -105 -12.5t-34 -41.5q0 -22 19.5 -35.5t46.5 -21.5t55 -11.5t44 -6.5q58 -11 110.5 -26.5t84.5 -32.5
q46 -25 72.5 -72t26.5 -102z" />
    <glyph glyph-name="percent" unicode="%" horiz-adv-x="1104" 
d="M1063 198q0 -94 -58.5 -151.5t-147.5 -57.5t-145.5 56t-56.5 151q0 96 56.5 153t147.5 57q93 0 148.5 -56.5t55.5 -151.5zM856 670l-475 -670h-133l474 670h134zM450 473q0 -94 -58 -151.5t-147 -57.5q-90 0 -146.5 56t-56.5 151q0 96 56.5 153t148.5 57q93 0 148 -56.5
t55 -151.5zM939 196q0 121 -81 121q-80 0 -80 -119q0 -120 81 -120q80 0 80 118zM326 471q0 121 -80 121q-81 0 -81 -119q0 -121 82 -121q79 0 79 119z" />
    <glyph glyph-name="ampersand" unicode="&#x26;" horiz-adv-x="860" 
d="M644 0l-49 49q-1 0 -18 -9.5t-48 -21t-75.5 -21t-100.5 -9.5q-66 0 -119.5 13t-90.5 38t-57 61t-20 83q0 32 9.5 59t31 51t55.5 47t82 46q-63 55 -63 141q0 71 51.5 113t138.5 42q46 0 83 -11.5t63 -32.5t40 -50.5t14 -65.5q0 -23 -6 -43t-20 -38.5t-36 -37.5t-55 -39
l150 -143q15 14 23.5 27t13.5 23q5 11 8 21l127 2q-3 -19 -14 -43q-9 -20 -26 -48.5t-45 -61.5l144 -141h-191zM444 515q0 23 -17 36t-49 13q-68 0 -68 -42q0 -28 38 -59l30 -26l40 33q14 11 20 21.5t6 23.5zM320 308q-69 -35 -98 -63t-29 -57q0 -41 41.5 -63t108.5 -22
q38 1 67.5 6.5t49.5 11.5t30.5 11.5t10.5 6.5z" />
    <glyph glyph-name="quotesingle" unicode="'" horiz-adv-x="314" 
d="M251 670l-39 -313h-110l-39 313h188z" />
    <glyph glyph-name="parenleft" unicode="(" horiz-adv-x="313" 
d="M292 670q-42 -78 -70.5 -159.5t-28.5 -171.5q0 -42 7.5 -86t21 -88t31.5 -86t39 -79h-125q-43 78 -72 163t-29 176q0 71 21.5 153t74.5 178h130v0z" />
    <glyph glyph-name="parenright" unicode=")" horiz-adv-x="313" 
d="M247 339q0 -91 -29.5 -176t-71.5 -163h-125q20 37 38 79t31.5 86t21.5 88t8 86q0 90 -29 171.5t-70 159.5h129q54 -96 75.5 -178t21.5 -153z" />
    <glyph glyph-name="asterisk" unicode="*" horiz-adv-x="463" 
d="M416 496q-25 -7 -48 -13.5t-48 -9.5q20 -13 32 -29.5t34 -41.5q-23 -16 -39.5 -28.5t-28.5 -20.5q-14 -10 -24 -17q0 -1 -7.5 8.5t-17.5 22.5t-20 26.5t-14 22.5q-5 -9 -15 -22.5t-20.5 -26t-18.5 -22t-9 -9.5l-92 64q11 15 22 29q9 12 19.5 24t19.5 20q-23 3 -47 10.5
t-47 14.5l31 104q26 -8 52.5 -13t48.5 -18q-8 27 -7.5 48t0.5 51h122q0 -25 -1 -50.5t-6 -50.5q17 12 40 17t56 13l33 -103v0z" />
    <glyph glyph-name="plus" unicode="+" horiz-adv-x="487" 
d="M306 280v-151h-127v151h-153v127h153v145h127v-145h155v-127h-155z" />
    <glyph glyph-name="comma" unicode="," horiz-adv-x="183" 
d="M158 45q0 -35 -17 -66t-40 -52l-40 19q5 5 11 12t11 15q5 9 11 18q-19 0 -34 6q-13 5 -23.5 18t-10.5 37q0 26 17.5 43.5t43.5 17.5q32 0 51.5 -20t19.5 -48z" />
    <glyph glyph-name="hyphen" unicode="-" horiz-adv-x="289" 
d="M26 176v125h237v-125h-237z" />
    <glyph glyph-name="period" unicode="." horiz-adv-x="223" 
d="M176 52q0 -29 -18.5 -47.5t-44.5 -18.5q-29 0 -47.5 18.5t-18.5 44.5q0 29 18.5 47.5t44.5 18.5q29 0 47.5 -18.5t18.5 -44.5z" />
    <glyph glyph-name="slash" unicode="/" horiz-adv-x="520" 
d="M515 756l-360 -842h-151l360 842h151z" />
    <glyph glyph-name="zero" unicode="0" horiz-adv-x="780" 
d="M715 339q0 -76 -23.5 -140.5t-66.5 -112t-103 -74t-132 -26.5t-132 26.5t-102.5 73.5t-66 111t-23.5 139t23.5 138.5t66 109.5t102.5 72t132 26q74 0 134 -26t102.5 -72t65.5 -109t23 -136zM588 336q0 49 -14.5 89t-40.5 68.5t-62.5 43.5t-80.5 15t-80 -15.5t-62 -44
t-40.5 -68.5t-14.5 -88q0 -49 14.5 -90t40.5 -70.5t62 -46t80 -16.5t80.5 16.5t62.5 46.5t40.5 71t14.5 89z" />
    <glyph glyph-name="one" unicode="1" horiz-adv-x="409" 
d="M188 0v491h-94v94q45 2 78 25t47 60h96v-670h-127z" />
    <glyph glyph-name="two" unicode="2" horiz-adv-x="759" 
d="M78 0q-4 75 15 130.5t52.5 96t77.5 68.5t90.5 49t91 36.5t79.5 30.5t56 33t20 43t-22.5 41t-56 23t-77.5 5.5t-85.5 -11.5t-81 -28t-63.5 -44l-87 96q69 49 140 75.5t137.5 34t125 -2.5t102.5 -33.5t70 -60t27 -81.5q2 -56 -20.5 -94.5t-60 -66.5t-85 -48t-95.5 -38
q-33 -12 -65.5 -24.5t-60.5 -27.5t-48 -33t-28 -42h468v-127h-616z" />
    <glyph glyph-name="three" unicode="3" horiz-adv-x="759" 
d="M694 207q0 -50 -25 -94.5t-67 -74.5q-35 -23 -87.5 -36.5t-112.5 -13.5q-78 0 -152 20.5t-128 59.5q-16 10 -26.5 20t-29.5 30l87 89q50 -48 110 -70t132 -22q83 0 128.5 25t45.5 72q0 23 -13 44.5t-34 32.5q-13 8 -29 10t-37 2h-73v127h73q73 0 73 54q0 20 -11 32.5
t-34 23.5q-17 8 -43.5 11t-52.5 3q-54 0 -106.5 -16t-98.5 -49l-75 98q62 48 135 72.5t145 24.5q58 0 107 -14.5t84 -41t55 -62t20 -77.5q0 -35 -13 -63.5t-39 -56.5q46 -29 69 -69.5t23 -90.5z" />
    <glyph glyph-name="four" unicode="4" horiz-adv-x="802" 
d="M625 127v-127h-124v127h-475v122l475 421h124v-421h83v-122h-83zM501 508l-296 -259h296v259z" />
    <glyph glyph-name="five" unicode="5" horiz-adv-x="759" 
d="M694 230q0 -58 -28.5 -110.5t-80.5 -84.5q-35 -21 -87 -34t-112 -13q-89 0 -165.5 13.5t-154.5 43.5l49 117q34 -12 66 -20.5t65 -14t67.5 -7.5t72.5 -2q57 0 94.5 10.5t60.5 31.5q28 31 28 70q0 29 -13.5 49.5t-43.5 37.5q-24 13 -56 19.5t-66 6.5q-35 0 -79.5 -6
t-101.5 -22l-122 21l19 334h526v-127h-409l-4 -99q37 14 82.5 20t84.5 6q72 0 133.5 -20.5t105.5 -61.5q35 -32 52 -70t17 -88z" />
    <glyph glyph-name="six" unicode="6" horiz-adv-x="762" 
d="M696 202q0 -63 -30.5 -104t-77 -65.5t-103 -34.5t-107.5 -10q-149 0 -230.5 69t-81.5 223q0 84 32 157t87 127.5t128.5 86t156.5 31.5q29 0 53 -4t58 -15l-36 -122q-25 7 -40 9t-35 2q-37 0 -73.5 -9.5t-69 -26.5t-59 -42t-42.5 -56q-4 -7 -8 -15t-11 -25q42 17 91 23
t97 6q68 0 123.5 -15t95 -42t61 -64.5t21.5 -83.5zM569 197q0 39 -48 63t-135 24q-41 0 -76 -6.5t-60.5 -17.5t-40 -27.5t-14.5 -35.5q0 -18 15 -33t40.5 -25t59.5 -15.5t73 -5.5q87 0 136.5 21t49.5 58z" />
    <glyph glyph-name="seven" unicode="7" horiz-adv-x="682" 
d="M656 543q-24 -21 -41.5 -38t-31.5 -32.5t-26.5 -32t-25.5 -36.5q-60 -91 -91 -191.5t-31 -212.5h-125q0 155 47 288t146 255h-451v127h630v-127v0z" />
    <glyph glyph-name="eight" unicode="8" horiz-adv-x="762" 
d="M696 212q0 -60 -34.5 -112.5t-90.5 -80.5q-28 -14 -78.5 -22.5t-114.5 -8.5q-86 0 -140 12t-92 42q-39 30 -59.5 72t-20.5 93q0 24 4 43.5t14 38.5t25.5 38t38.5 40q-29 32 -40.5 59.5t-11.5 64.5q0 44 20 79.5t57 60t89 38t116 13.5t116.5 -13.5t90.5 -38.5t59 -61
t21 -80q0 -68 -51 -122q35 -30 58.5 -68.5t23.5 -86.5zM541 491q0 32 -42 46.5t-118 14.5q-81 0 -120.5 -14.5t-39.5 -46.5q0 -61 157 -61q80 0 121.5 14.5t41.5 46.5zM571 212q0 42 -52.5 66.5t-137.5 24.5q-91 0 -141 -25t-50 -71q0 -41 53 -65t138 -24q22 0 54.5 3
t62.5 13t51.5 28.5t21.5 49.5z" />
    <glyph glyph-name="nine" unicode="9" horiz-adv-x="762" 
d="M696 386q0 -84 -32.5 -157t-88 -127t-128.5 -85t-155 -31q-30 0 -54 2.5t-59 13.5l37 123q23 -8 39.5 -12.5t36.5 -4.5q36 0 72 10t68 29t58.5 44.5t43.5 57.5q5 8 9 15t9 23q-41 -14 -89.5 -21t-98.5 -7q-67 0 -122 14.5t-94 41.5t-60.5 64.5t-21.5 83.5q0 63 30.5 104
t77 65.5t102.5 34.5t107 10q74 0 132.5 -16.5t98.5 -52t61 -90.5t21 -132zM557 470q0 18 -13.5 32.5t-38 25t-57.5 16.5t-72 6q-87 0 -135 -21.5t-48 -60.5t48 -60.5t135 -21.5q81 0 131 21.5t50 62.5z" />
    <glyph glyph-name="colon" unicode=":" horiz-adv-x="183" 
d="M155 364q0 -26 -18.5 -45.5t-44.5 -19.5q-29 0 -47.5 19.5t-18.5 45.5q0 27 18.5 46.5t47.5 19.5q26 0 44.5 -19.5t18.5 -46.5zM155 52q0 -29 -18.5 -47.5t-44.5 -18.5q-29 0 -47.5 18.5t-18.5 44.5q0 29 18.5 47.5t47.5 18.5q26 0 44.5 -18.5t18.5 -47.5v3z" />
    <glyph glyph-name="semicolon" unicode=";" horiz-adv-x="183" 
d="M158 45q0 -35 -17 -66t-40 -52l-40 19q5 5 11 12t11 15q5 9 11 18q-19 0 -34 6q-13 5 -23.5 18t-10.5 37q0 26 17.5 43.5t43.5 17.5q32 0 51.5 -20t19.5 -48zM138 364q0 -26 -18.5 -45.5t-44.5 -19.5q-29 0 -47.5 19.5t-18.5 45.5q0 27 18.5 46.5t47.5 19.5
q26 0 44.5 -19.5t18.5 -46.5z" />
    <glyph glyph-name="less" unicode="&#x3c;" horiz-adv-x="497" 
d="M429 27l-366 257v90l366 258v-165l-207 -137l207 -138v-165z" />
    <glyph glyph-name="equal" unicode="=" horiz-adv-x="487" 
d="M26 376v127h435v-127h-435zM26 181v127h435v-127h-435z" />
    <glyph glyph-name="greater" unicode="&#x3e;" horiz-adv-x="497" 
d="M435 284l-367 -257v164l207 137l-207 138v166l367 -258v-90z" />
    <glyph glyph-name="question" unicode="?" horiz-adv-x="696" 
d="M630 482q0 -78 -63 -132q-11 -8 -21.5 -16t-21.5 -17l-44 -30q-19 -12 -30.5 -22.5t-18 -22t-8.5 -26t-2 -35.5h-120q1 36 5 59.5t16 42.5t35.5 38.5t63.5 47.5q47 31 64.5 54t17.5 50q0 37 -40.5 59.5t-109.5 22.5q-157 0 -160 -129h-127q1 33 4 58.5t9.5 46t17 37.5
t25.5 34q74 80 233 80q63 0 113.5 -14t86.5 -40t55.5 -63t19.5 -83zM299 54q0 25 18.5 43t44.5 18q25 0 43 -18t18 -43q0 -26 -18 -44.5t-43 -18.5q-26 0 -44.5 18.5t-18.5 44.5z" />
    <glyph glyph-name="at" unicode="@" horiz-adv-x="806" 
d="M738 381q0 -46 -13.5 -89t-37.5 -76.5t-56 -54t-69 -20.5q-50 0 -75 40q-23 -23 -52 -35t-61 -12q-34 0 -62 13t-48.5 36.5t-31.5 55t-11 67.5q0 42 14.5 80t40 67.5t59.5 46.5t74 17q54 0 89 -35l5 23h99l-40 -216q-7 -32 -7 -40q0 -12 4 -16.5t8 -4.5q12 0 26 11.5
t25.5 32t19.5 47.5t8 59q0 47 -16 86t-46 67t-72 43.5t-94 15.5q-57 0 -103.5 -19t-80 -53t-51.5 -81t-18 -103q0 -55 18 -102t52 -82q67 -70 188 -70q51 0 99.5 10t105.5 35l26 -92q-59 -25 -115 -36t-116 -11q-153 0 -254 96q-50 48 -76.5 113.5t-26.5 140.5
q0 77 26 140.5t72.5 109.5t110 71t139.5 25q70 0 129.5 -22.5t103 -62t67.5 -95t24 -121.5zM470 348q0 32 -15.5 49t-40.5 17q-16 0 -31.5 -8.5t-27.5 -22.5t-19 -33.5t-7 -41.5q0 -35 17 -54t42 -19q16 0 30.5 8t26 23t18.5 35.5t7 46.5z" />
    <glyph glyph-name="A" unicode="A" horiz-adv-x="813" 
d="M646 0l-68 146h-341l-70 -146h-141l317 670h127l318 -670h-142zM407 508l-111 -233h221z" />
    <glyph glyph-name="B" unicode="B" horiz-adv-x="790" 
d="M724 205q0 -50 -15.5 -88t-42.5 -64t-64 -39.5t-80 -13.5h-428v670h411q40 0 74 -13.5t59 -37t39 -56.5t14 -72q0 -20 -3.5 -40.5t-11.5 -39t-20 -33t-28 -23.5q46 -20 71 -60.5t25 -89.5zM564 491q0 23 -17 37.5t-58 14.5h-268v-125h268q44 0 59.5 21.5t15.5 51.5z
M595 205q0 44 -24.5 65.5t-79.5 21.5h-270v-165h268q60 0 84 21.5t22 56.5z" />
    <glyph glyph-name="C" unicode="C" horiz-adv-x="743" 
d="M696 139q-13 -18 -23.5 -30.5t-20.5 -22.5t-20.5 -18t-22.5 -16q-43 -30 -94.5 -47t-103.5 -17q-71 0 -134 27t-110 74t-74 110t-27 135q0 73 27.5 136.5t74.5 110.5t111 74t137 27q43 0 80.5 -8.5t71.5 -26.5t65.5 -46t62.5 -67l-104 -73q-38 48 -82 69.5t-99 21.5
q-46 0 -85.5 -17t-69 -46t-46.5 -68.5t-17 -84.5q0 -46 17 -85.5t46.5 -69t69 -46.5t85.5 -17q39 0 75 13t66 36l17.5 17.5t22.5 24.5l104 -70v0z" />
    <glyph glyph-name="D" unicode="D" horiz-adv-x="790" 
d="M724 336q0 -70 -26.5 -131t-72 -106.5t-106.5 -72t-131 -26.5h-294v670h294q70 0 131 -26.5t106.5 -71.5t72 -106t26.5 -130zM595 336q0 42 -16 80t-44 66t-66 44.5t-81 16.5h-167v-416h167q43 0 81 16.5t66 45t44 66.5t16 81z" />
    <glyph glyph-name="E" unicode="E" horiz-adv-x="703" 
d="M94 0v670h534v-127h-407v-122h235v-129h-235v-165h416v-127h-543z" />
    <glyph glyph-name="F" unicode="F" horiz-adv-x="703" 
d="M221 543v-122h249v-129h-249v-292h-127v670h543v-127h-416z" />
    <glyph glyph-name="G" unicode="G" horiz-adv-x="759" 
d="M694 292q0 -63 -23.5 -118t-65 -96.5t-97.5 -65.5t-120 -24q-67 0 -130 27t-108 77q-41 44 -62.5 106.5t-21.5 135.5q0 78 25 142t70 109.5t107.5 71t138.5 25.5q102 0 178 -52q27 -17 47 -37.5t50 -58.5l-106 -73q-35 50 -75 70.5t-97 20.5q-97 0 -154 -59t-57 -162
q0 -47 14 -86.5t39.5 -67.5t61.5 -43.5t80 -15.5q41 0 77.5 15.5t61.5 45.5q8 11 16 23t17 35h-151v130h285v-75v0z" />
    <glyph glyph-name="H" unicode="H" horiz-adv-x="816" 
d="M597 0v292h-376v-292h-127v670h127v-249h376v249h125v-670h-125z" />
    <glyph glyph-name="I" unicode="I" horiz-adv-x="315" 
d="M94 0v670h127q1 -188 1 -335v-123v-107.5t-0.5 -76l-0.5 -28.5h-127z" />
    <glyph glyph-name="J" unicode="J" horiz-adv-x="675" 
d="M581 289q0 -94 -38 -160q-18 -33 -45 -59t-59.5 -44t-69 -28t-73.5 -10q-48 0 -91.5 15.5t-79 44.5t-61 70t-38.5 91l122 26q13 -55 54.5 -86t96.5 -31q33 0 61.5 12t49.5 34.5t32.5 53.5t11.5 69v383h127v-381v0z" />
    <glyph glyph-name="K" unicode="K" horiz-adv-x="748" 
d="M576 0l-205 343l-150 -155v-188h-127v670h127v-296l280 296h171l-211 -230l261 -440h-146z" />
    <glyph glyph-name="L" unicode="L" horiz-adv-x="696" 
d="M94 0v670h127v-543h449v-127h-576z" />
    <glyph glyph-name="M" unicode="M" horiz-adv-x="912" 
d="M691 0v397l-242 -397l-230 397v-397h-125v670h118l237 -421l249 421h120v-670h-127z" />
    <glyph glyph-name="N" unicode="N" horiz-adv-x="818" 
d="M597 0l-376 463v-463h-127v670h125l376 -468v468h129v-670h-127z" />
    <glyph glyph-name="O" unicode="O" horiz-adv-x="832" 
d="M766 339q0 -72 -28 -136t-75.5 -112t-111 -75.5t-135.5 -27.5q-71 0 -134.5 27.5t-111.5 75t-76 111t-28 134.5q0 73 27 136.5t74 110t111 73t138 26.5q70 0 133.5 -27.5t111.5 -74.5t76.5 -109.5t28.5 -131.5zM639 336q0 45 -17.5 84.5t-48 68.5t-71 46t-86.5 17
t-86.5 -16.5t-71 -45.5t-48 -67.5t-17.5 -83.5q0 -46 17.5 -86.5t48 -70.5t71 -47t86.5 -17t86.5 17t71 47t48 70.5t17.5 86.5v-3z" />
    <glyph glyph-name="P" unicode="P" horiz-adv-x="790" 
d="M724 461q0 -43 -16.5 -81t-45 -66.5t-66.5 -45t-81 -16.5h-294v-252h-127v670h421q43 0 81 -16.5t66.5 -45t45 -66.5t16.5 -81zM595 461q0 33 -23 57.5t-57 24.5h-294v-165h294q34 0 57 24.5t23 58.5z" />
    <glyph glyph-name="Q" unicode="Q" horiz-adv-x="835" 
d="M769 336q0 -75 -28 -140.5t-83 -113.5l38 -58l-108 -71l-38 61q-34 -16 -64.5 -21t-69.5 -5q-72 0 -136 27.5t-111.5 75t-75 111t-27.5 134.5q0 72 27.5 135t75 110t111.5 74t136 27q73 0 137.5 -27t112.5 -74t75.5 -110t27.5 -135zM642 336q0 45 -17.5 84.5t-48.5 68.5
t-72 46t-88 17q-46 0 -86.5 -17t-71 -46t-48 -68.5t-17.5 -84.5q0 -46 17.5 -85.5t48 -69t71 -46.5t86.5 -17q20 0 32 -0.5t32 4.5l-59 94l108 68l59 -91q28 28 41 65t13 78z" />
    <glyph glyph-name="R" unicode="R" horiz-adv-x="790" 
d="M576 0l-148 252h-207v-252h-127v670h409q44 0 83 -16.5t67.5 -45t45 -66.5t16.5 -81q0 -68 -39 -121.5t-105 -76.5l153 -263h-148zM588 461q0 16 -6.5 31t-18 26.5t-27 18t-33.5 6.5h-282v-165h282q18 0 33.5 6.5t27 18t18 26.5t6.5 32z" />
    <glyph glyph-name="S" unicode="S" horiz-adv-x="759" 
d="M694 190q0 -96 -77 -149t-217 -53q-51 0 -95.5 5.5t-85 17.5t-78 31.5t-75.5 46.5l73 104q30 -20 59 -34.5t59.5 -23.5t64 -13t73.5 -4q85 0 129.5 19t44.5 58q0 21 -17.5 40.5t-46.5 30.5q-24 8 -59 16.5t-100 20.5q-38 8 -67 15.5t-51 16.5t-38.5 19.5t-29.5 23.5
q-52 53 -52 118q0 106 113 153q35 16 77.5 24.5t84.5 8.5q71 0 136 -19.5t132 -60.5l-68 -106q-51 32 -99 44t-110 12q-71 0 -105 -12.5t-34 -41.5q0 -22 19.5 -35.5t46.5 -21.5t55 -11.5t44 -6.5q58 -11 110.5 -26.5t84.5 -32.5q46 -25 72.5 -72t26.5 -102z" />
    <glyph glyph-name="T" unicode="T" horiz-adv-x="628" 
d="M383 543v-543h-127v543h-230v127h576v-127h-219z" />
    <glyph glyph-name="U" unicode="U" horiz-adv-x="816" 
d="M722 317q0 -51 -9.5 -93.5t-30.5 -80.5q-43 -71 -116 -113t-157 -42q-41 0 -81.5 11t-76 31t-65.5 49t-50 64q-21 39 -31.5 81t-10.5 93v353h127v-353q0 -35 6.5 -60t19.5 -48q25 -42 68.5 -66.5t93.5 -24.5t93.5 24.5t66.5 66.5q14 23 20 48t6 60v353h127v-353v0z" />
    <glyph glyph-name="V" unicode="V" horiz-adv-x="752" 
d="M454 0h-155l-273 670h136l214 -515l209 515h141z" />
    <glyph glyph-name="W" unicode="W" horiz-adv-x="835" 
d="M668 0h-137l-115 418l-115 -418h-134l-141 670h129l87 -409l113 409h125l112 -409l87 409h130z" />
    <glyph glyph-name="X" unicode="X" horiz-adv-x="733" 
d="M550 0l-183 242l-184 -242h-157l261 348l-240 322h158l162 -214l162 214h157l-239 -322l261 -348h-158z" />
    <glyph glyph-name="Y" unicode="Y" horiz-adv-x="813" 
d="M470 270v-270h-127v270l-317 400h162l219 -275l218 275h163z" />
    <glyph glyph-name="Z" unicode="Z" horiz-adv-x="722" 
d="M47 0v127l442 416h-421v127h607v-127l-442 -416h442v-127h-628z" />
    <glyph glyph-name="bracketleft" unicode="[" horiz-adv-x="459" 
d="M389 -105h-284v775h284v-105h-134v-565h134v-105z" />
    <glyph glyph-name="backslash" unicode="\" horiz-adv-x="520" 
d="M515 -86h-151l-360 842h151z" />
    <glyph glyph-name="bracketright" unicode="]" horiz-adv-x="459" 
d="M354 -105h-285v105h135v565h-135v105h285v-775z" />
    <glyph glyph-name="asciicircum" unicode="^" horiz-adv-x="639" 
d="M587 366h-157l-112 178l-111 -178h-156l207 304h122z" />
    <glyph glyph-name="underscore" unicode="_" horiz-adv-x="553" 
d="M553 -179h-553v110h553v-110z" />
    <glyph glyph-name="grave" unicode="`" horiz-adv-x="553" 
d="M400 569h-130l-159 154h193z" />
    <glyph glyph-name="a" unicode="a" 
d="M421 0v21q-4 -2 -6 -2.5t-4.5 -1t-7 -1.5t-13.5 -4q-32 -11 -61 -16t-59 -5q-48 0 -87.5 12t-68 33.5t-44.5 51.5t-16 65q0 37 18 68.5t49.5 54t74.5 35.5t93 13q29 0 66 -3.5t80 -14.5q-2 49 -30 65.5t-83 16.5q-21 0 -44 -4t-45 -10t-43 -13.5t-37 -14.5l-54 105
q58 25 111 37.5t112 12.5q240 0 240 -205v-296h-141zM435 200q-12 5 -35.5 10.5t-52 9t-58 3.5t-53.5 -6t-39.5 -19t-15.5 -36q0 -26 15 -39.5t38.5 -18t52.5 -2.5t57 7.5t52.5 12t38.5 10.5v68z" />
    <glyph glyph-name="b" unicode="b" horiz-adv-x="665" 
d="M611 244q0 -54 -20.5 -100t-55.5 -80t-83.5 -53.5t-103.5 -19.5q-18 0 -38.5 3t-40 7.5t-35.5 11t-25 13.5q-1 0 -1 -4v-9q0 -6 1 -13h-129v637l129 45v-219q30 18 64.5 25.5t72.5 7.5q56 0 104.5 -19.5t84 -53.5t56 -80t20.5 -99zM484 244q0 37 -14 63.5t-37 42.5
t-52 22t-59.5 3t-60 -15t-52.5 -31v-169q34 -32 81 -42.5t90 0t73.5 42t30.5 84.5z" />
    <glyph glyph-name="c" unicode="c" horiz-adv-x="557" 
d="M524 80q-35 -41 -88 -65t-116 -24q-56 0 -104.5 19.5t-84.5 54t-56.5 80.5t-20.5 99t20.5 99t56.5 80t84.5 53.5t104.5 19.5q62 0 114.5 -23t87.5 -64q1 0 1 1l-1 1l-78 -103q-21 30 -54 49t-70 19q-27 0 -51.5 -9.5t-43.5 -27t-30.5 -42t-11.5 -53.5q0 -30 11.5 -54
t30.5 -41t43.5 -26.5t51.5 -9.5q33 0 65 14t52 42l87 -89v0z" />
    <glyph glyph-name="d" unicode="d" horiz-adv-x="665" 
d="M458 0v13q0 5 -0.5 9t-1.5 4q-9 -6 -25 -12.5t-35 -11.5t-39.5 -8t-36.5 -3q-57 0 -105.5 19.5t-84 53.5t-56 80t-20.5 100q0 53 21 99t57 80t85 53.5t105 19.5q37 0 70.5 -7.5t63.5 -25.5v169l129 50v-682h-127zM456 329q-35 29 -82 40.5t-90 2t-73 -40.5t-30 -87
q0 -53 30.5 -84.5t73.5 -42t90.5 0t80.5 42.5v169v0z" />
    <glyph glyph-name="e" unicode="e" 
d="M186 207q6 -22 19.5 -40.5t31 -31.5t38.5 -20t42 -7q12 0 27 3t29.5 8t27.5 11t22 13l97 -87q-45 -33 -92.5 -50.5t-107.5 -17.5q-56 0 -104.5 20t-84.5 55t-56.5 81.5t-20.5 99.5t20.5 99t56.5 80t84.5 53.5t104.5 19.5t104 -17.5t83.5 -53.5t56.5 -90.5t24 -127.5h-402
zM442 301q-5 18 -17.5 32t-29.5 23.5t-36.5 14.5t-38.5 5q-30 0 -53.5 -7.5t-40 -18.5t-27 -24t-13.5 -23h256v-2z" />
    <glyph glyph-name="f" unicode="f" horiz-adv-x="331" 
d="M223 371v-371h-129v371h-73v116h73v73q0 63 35 92.5t111 29.5q17 0 35 -1.5t35 -3.5v-106q-17 2 -25 2.5t-17 0.5q-26 0 -35.5 -12t-9.5 -33v-42h87v-116h-87z" />
    <glyph glyph-name="g" unicode="g" horiz-adv-x="635" 
d="M555 5q0 -61 -17.5 -104.5t-49.5 -74t-76.5 -52t-98.5 -37.5l-57 108q19 3 48 14.5t56.5 29.5t47.5 42t20 53v49q-26 -25 -61.5 -33.5t-82.5 -8.5q-56 -1 -98.5 18.5t-72 54t-44.5 80.5t-15 98t14.5 98.5t44 81.5t73 55.5t101.5 20.5q48 0 86.5 -13.5t54.5 -26.5v31h127
v-484v0zM428 329q-29 29 -71.5 41.5t-81.5 4t-66.5 -40.5t-27.5 -92q0 -56 26 -86t64 -38.5t81 1.5t76 36v174z" />
    <glyph glyph-name="h" unicode="h" horiz-adv-x="658" 
d="M451 0v270q0 36 -10 59t-26.5 35.5t-38.5 17t-47 4.5q-22 0 -44 -4t-39 -16.5t-28 -36.5t-11 -63v-266h-127v637l127 45v-233q25 23 69 36t86 13q48 0 87.5 -10.5t68 -33t44.5 -56.5t16 -81v-317h-127z" />
    <glyph glyph-name="i" unicode="i" horiz-adv-x="292" 
d="M212 618q0 -26 -20 -46t-46 -20q-29 0 -47.5 19t-18.5 47q0 27 19.5 45.5t46.5 18.5q26 0 46 -18.5t20 -45.5zM82 0v487h130v-487h-130z" />
    <glyph glyph-name="j" unicode="j" horiz-adv-x="299" 
d="M219 618q0 -26 -20 -46t-46 -20q-29 0 -47.5 19t-18.5 47q0 27 18.5 45.5t47.5 18.5q26 0 46 -18.5t20 -45.5zM216 16q0 -37 -3 -64t-9.5 -48t-18 -37.5t-27.5 -31.5q-29 -24 -66 -36t-85 -15v113q27 1 43 8t24.5 20.5t10.5 35.5t2 55v473h129v-473v0z" />
    <glyph glyph-name="k" unicode="k" horiz-adv-x="567" 
d="M407 0l-115 233l-85 -90v-143h-127v637l127 45v-362l157 167h177l-153 -156l160 -331h-141z" />
    <glyph glyph-name="l" unicode="l" horiz-adv-x="287" 
d="M80 0v632l127 50v-682h-127z" />
    <glyph glyph-name="m" unicode="m" horiz-adv-x="947" 
d="M741 0v292q0 41 -27 65t-72 24q-22 0 -41.5 -7t-33.5 -18.5t-22.5 -27t-8.5 -32.5v-296h-125v292q0 19 -8.5 35.5t-22.5 28.5t-33 18.5t-41 6.5q-45 0 -72 -25t-27 -62v-294h-127v489h127v-31q12 11 47.5 25.5t98.5 14.5q46 0 79.5 -9.5t65.5 -39.5q29 25 73 37t92 12
t85.5 -12t64 -33.5t40.5 -51.5t14 -65v-336h-126z" />
    <glyph glyph-name="n" unicode="n" horiz-adv-x="658" 
d="M451 0v268q0 36 -10 58t-26.5 34.5t-38.5 16.5t-47 4q-22 0 -44 -3.5t-39 -15.5t-28 -35.5t-11 -63.5v-263h-127v489h127v-31q12 12 30 19t39 11.5t43 6t43 1.5q48 0 87.5 -10.5t68 -32t44.5 -55.5t16 -81v-317h-127z" />
    <glyph glyph-name="o" unicode="o" 
d="M588 244q0 -54 -21 -100t-57 -80t-85 -53.5t-105 -19.5t-104.5 19.5t-84.5 54t-56.5 80.5t-20.5 99t20.5 99t56.5 80t84.5 53.5t104.5 19.5t105 -19.5t85 -53.5t57 -80t21 -99zM458 244q0 29 -11.5 53.5t-31 42t-44.5 27t-51 9.5q-27 0 -51.5 -9.5t-43.5 -27t-30.5 -42
t-11.5 -53.5q0 -30 11.5 -54t30.5 -41t43.5 -26.5t51.5 -9.5q26 0 51 9.5t44.5 27t31 41.5t11.5 53z" />
    <glyph glyph-name="p" unicode="p" horiz-adv-x="665" 
d="M611 244q0 -54 -20.5 -100t-56 -80t-84 -53.5t-104.5 -19.5q-77 0 -137 33v-179l-129 -45v687h129v-26q7 5 20.5 11t31 11.5t38.5 9t42 3.5q64 1 114.5 -18.5t85 -53.5t52.5 -80.5t18 -99.5zM484 242q0 36 -14 62t-36.5 42.5t-51.5 23.5t-59.5 5t-60.5 -14t-53 -32v-171
q23 -19 53 -30t60.5 -13.5t59.5 3.5t51.5 21.5t36.5 41t14 61.5z" />
    <glyph glyph-name="q" unicode="q" horiz-adv-x="665" 
d="M585 -153l-129 -47v224q-60 -33 -134 -33q-56 0 -105 19.5t-85 53.5t-57 80t-21 100q0 53 18 99.5t52.5 80.5t85 53.5t114.5 18.5q45 0 81.5 -12t50.5 -23v26h129v-640zM456 334q-45 28 -93.5 36.5t-89 -2.5t-66.5 -42.5t-26 -83.5q0 -54 29.5 -84.5t72.5 -40.5t90.5 1
t82.5 40v176z" />
    <glyph glyph-name="r" unicode="r" horiz-adv-x="433" 
d="M374 346q-26 28 -64 28q-27 0 -46.5 -11.5t-31.5 -30t-17.5 -42t-5.5 -46.5v-244h-129v489h129v-35q18 20 48.5 31t62.5 11q28 0 49 -6t42 -22z" />
    <glyph glyph-name="s" unicode="s" horiz-adv-x="585" 
d="M538 136q0 -69 -63 -107t-176 -38q-77 0 -137 10.5t-115 33.5l54 106q36 -10 70 -18q29 -7 62 -12t59 -5q54 0 88 9t34 26q0 10 -6 17t-19.5 12.5t-36 11t-56.5 13.5q-67 14 -107.5 28.5t-63.5 30.5q-30 20 -47 48t-17 60q0 64 61 100t167 36q59 0 113.5 -11.5
t114.5 -37.5l-54 -106q1 0 -13.5 5.5t-39 13t-55.5 14.5t-63 10q-47 3 -74.5 -5.5t-29.5 -25.5q0 -18 26 -27.5t89 -21.5q122 -23 178.5 -62.5t56.5 -107.5z" />
    <glyph glyph-name="t" unicode="t" horiz-adv-x="364" 
d="M317 14q-21 -12 -42.5 -19t-44.5 -7q-58 0 -93.5 41t-35.5 110v235h-80v113h80v150l127 45v-195h103v-113h-103v-184q0 -72 56 -72q18 0 28 5.5t27 19.5z" />
    <glyph glyph-name="u" unicode="u" horiz-adv-x="658" 
d="M449 0v26q-12 -11 -29 -17.5t-37.5 -10.5t-43 -5.5t-43.5 -1.5q-48 0 -87.5 10.5t-68 33t-44.5 56.5t-16 81v317h127v-270q0 -37 10 -60t26.5 -35.5t38.5 -16.5t47 -4q22 0 43.5 3.5t38.5 15.5t27.5 35.5t10.5 63.5v268h129v-489h-129z" />
    <glyph glyph-name="v" unicode="v" horiz-adv-x="588" 
d="M367 0h-146l-207 489h139l141 -331l148 331h134z" />
    <glyph glyph-name="w" unicode="w" horiz-adv-x="795" 
d="M618 0h-138l-83 296l-80 -296h-138l-165 489h132l98 -282l78 282h153l77 -284l94 284h137z" />
    <glyph glyph-name="x" unicode="x" horiz-adv-x="614" 
d="M440 0l-132 169l-132 -169h-162l212 275l-165 214h162l85 -108l82 108h162l-164 -214l211 -275h-159z" />
    <glyph glyph-name="y" unicode="y" horiz-adv-x="644" 
d="M327 -186h-148l84 186l-249 489h146l174 -336l153 336h143z" />
    <glyph glyph-name="z" unicode="z" horiz-adv-x="576" 
d="M33 0v106l298 265h-282v118h494v-96l-310 -278h310v-115h-510z" />
    <glyph glyph-name="braceleft" unicode="{" horiz-adv-x="508" 
d="M450 -105q-294 0 -294 202v68q0 66 -65 66h-25v107h25q65 0 65 66v69q0 202 294 202v-87q-81 -7 -109.5 -35t-28.5 -90v-29q0 -74 -26 -107q-22 -28 -79 -43q57 -14 79 -43q26 -32 26 -106v-29q0 -61 28 -88q29 -29 110 -36v-87z" />
    <glyph glyph-name="bar" unicode="|" horiz-adv-x="315" 
d="M227 -177h-139v943h139v-943z" />
    <glyph glyph-name="braceright" unicode="}" horiz-adv-x="508" 
d="M442 232h-24q-66 0 -66 -66v-69q0 -202 -294 -202v87q82 7 111 36q28 27 28 88v30q0 74 25 106q23 29 80 43q-57 15 -80 43q-25 33 -25 107v28q0 62 -28.5 90t-110.5 35v87q294 0 294 -202v-68q0 -66 66 -66h24v-107z" />
    <glyph glyph-name="asciitilde" unicode="~" horiz-adv-x="621" 
d="M574 406q-65 -145 -168 -145q-52 0 -107 33q-63 38 -86 38t-36.5 -12t-39.5 -56l-90 40q65 145 169 145q50 0 106 -33q63 -38 86 -38t36.5 12t39.5 56z" />
    <glyph glyph-name="exclamdown" unicode="&#xa1;" horiz-adv-x="315" 
d="M114 480h87l21 -334v-160h-127v160zM93 604q0 29 18.5 47.5t44.5 18.5q29 0 47.5 -18.5t18.5 -47.5q0 -26 -18.5 -44.5t-47.5 -18.5q-26 0 -44.5 18.5t-18.5 44.5z" />
    <glyph glyph-name="cent" unicode="&#xa2;" horiz-adv-x="590" 
d="M557 193q-16 -27 -37.5 -48t-46 -36t-49.5 -24t-48 -12v-115h-124v117q-40 4 -76 27t-63 59.5t-43 86t-16 107.5q0 56 15.5 105t42 85.5t62.5 59t78 25.5v96h124v-94q54 -5 100.5 -35.5t80.5 -81.5l-103 -54q-10 14 -20.5 25.5t-26 20t-37 13t-53.5 4.5
q-37 0 -63.5 -13.5t-43.5 -36.5t-24.5 -54t-6.5 -65q1 -33 9 -64.5t25 -56t44.5 -39t66.5 -14.5q32 0 50.5 4.5t31.5 12.5t23 19.5t25 26.5l103 -51v0z" />
    <glyph glyph-name="sterling" unicode="&#xa3;" horiz-adv-x="741" 
d="M689 590l-92 -99q-77 60 -191 60q-112 0 -112 -65q0 -25 28 -67q24 -36 30 -52h169v-109h-159q-6 -74 -73 -143h385v-115h-577v98q94 66 107 160h-107v109h87q-10 16 -28 43q-31 52 -31 94q0 85 74 131t209 46q164 0 281 -91z" />
    <glyph glyph-name="currency" unicode="&#xa4;" horiz-adv-x="582" 
d="M90 423l-67 59l85 80l69 -61q28 13 55.5 19t56.5 6t57 -6t55 -19l68 60l86 -76l-68 -60q15 -23 22 -47.5t7 -50.5q0 -25 -7 -49.5t-22 -48.5l69 -60l-86 -76l-69 61q-26 -13 -53.5 -19.5t-58.5 -6.5q-28 0 -55.5 6.5t-54.5 18.5l-67 -59l-86 76l66 59q-14 24 -21.5 48.5
t-7.5 49.5q0 26 7 50t20 46zM186 327q0 -38 30.5 -64.5t72.5 -26.5q43 0 73.5 26.5t30.5 64.5t-30.5 64.5t-73.5 26.5t-73 -26.5t-30 -64.5z" />
    <glyph glyph-name="yen" unicode="&#xa5;" horiz-adv-x="756" 
d="M732 670l-279 -410v-47h179v-113h-179v-100h-149v100h-180v113h180v44l-279 413h177l102 -159q58 -90 75 -131q24 52 76 131l101 159h176z" />
    <glyph glyph-name="brokenbar" unicode="&#xa6;" horiz-adv-x="293" 
d="M90 315v355h114v-355h-114zM90 -194v356h114v-356h-114z" />
    <glyph glyph-name="section" unicode="&#xa7;" horiz-adv-x="774" 
d="M713 240q0 -103 -122 -158q22 -31 22 -83q0 -69 -58 -111q-62 -45 -172 -45q-135 0 -237 65l76 92q77 -47 171 -47q77 0 77 45q0 22 -33 37q-28 13 -148 47t-169 75q-60 47 -60 126q0 104 121 158q-21 33 -21 84q0 68 60 112t170 44q136 0 238 -66l-76 -91
q-78 46 -172 46q-77 0 -77 -45q0 -22 34 -37q27 -12 149 -47q118 -33 169 -74q58 -47 58 -127zM565 231q0 36 -48 61q-28 14 -106 37q-88 26 -132 44q-70 -26 -70 -80q0 -36 48 -61q27 -15 105 -38q89 -26 132 -44q71 26 71 81z" />
    <glyph glyph-name="dieresis" unicode="&#xa8;" horiz-adv-x="553" 
d="M482 643q0 -29 -25.5 -51.5t-59.5 -22.5q-35 0 -61.5 22.5t-26.5 51.5q0 31 26.5 53t61.5 22q34 0 59.5 -22t25.5 -53zM244 643q0 -29 -26.5 -51.5t-61.5 -22.5q-33 0 -59.5 22.5t-26.5 51.5q0 31 26 53t60 22q36 0 62 -22t26 -53z" />
    <glyph glyph-name="copyright" unicode="&#xa9;" horiz-adv-x="924" 
d="M861 335q0 -147 -114.5 -246.5t-283.5 -99.5q-171 0 -285.5 99.5t-114.5 246.5t114.5 246.5t285.5 99.5q169 0 283.5 -99.5t114.5 -246.5zM790 335q0 122 -94 203t-233 81q-141 0 -235 -81t-94 -203t94 -203t235 -81q139 0 233 81t94 203zM628 449l-87 -42q-28 42 -74 42
q-87 0 -87 -112q0 -111 88 -111q44 0 79 49l78 -46q-57 -86 -159 -86q-86 0 -138 52.5t-52 141.5q0 85 54 140t138 55q112 0 160 -83z" />
    <glyph glyph-name="ordfeminine" unicode="&#xaa;" horiz-adv-x="527" 
d="M459 264h-120v30q-42 -37 -109 -37q-72 0 -121 35q-55 39 -55 109q0 65 55 101q52 34 137 34q55 0 93 -16v20q0 53 -71 53t-129 -27l-47 74q86 41 176 41q87 0 139 -38t52 -105v-274zM339 384v52q-34 17 -89 17q-75 0 -75 -52q0 -56 75 -56q58 0 89 39z" />
    <glyph glyph-name="guillemotleft" unicode="&#xab;" horiz-adv-x="694" 
d="M650 0h-158l-180 251l180 251h158l-175 -250zM371 0h-158l-179 251l179 251h158l-174 -250z" />
    <glyph glyph-name="logicalnot" unicode="&#xac;" horiz-adv-x="612" 
d="M436 169v198h-393v116h525v-314h-132z" />
    <glyph glyph-name="minus" unicode="&#xad;" horiz-adv-x="685" 
d="M625 286h-565v123h565v-123z" />
    <glyph glyph-name="registered" unicode="&#xae;" horiz-adv-x="924" 
d="M861 335q0 -147 -114.5 -246.5t-283.5 -99.5q-171 0 -285.5 99.5t-114.5 246.5t114.5 246.5t285.5 99.5q169 0 283.5 -99.5t114.5 -246.5zM790 335q0 122 -94 203t-233 81q-141 0 -235 -81t-94 -203t94 -203t235 -81q139 0 233 81t94 203zM652 412q0 -82 -86 -111
l84 -148h-104l-79 138h-75v-138h-91v377h202q66 0 106 -28q43 -32 43 -90zM559 410q0 48 -63 48h-104v-97h104q63 0 63 49z" />
    <glyph glyph-name="macron" unicode="&#xaf;" horiz-adv-x="611" 
d="M483 559h-355v96h355v-96z" />
    <glyph glyph-name="degree" unicode="&#xb0;" horiz-adv-x="419" 
d="M44 527q0 59 48 101t115 42q68 0 115.5 -42t47.5 -101q0 -60 -47.5 -102t-115.5 -42q-67 0 -115 42t-48 102zM129 527q0 -29 23 -49t55 -20t55 20t23 49q0 28 -23 48t-55 20t-55 -20t-23 -48z" />
    <glyph glyph-name="plusminus" unicode="&#xb1;" horiz-adv-x="575" 
d="M222 160v171h-196v118h196v172h131v-172h197v-118h-197v-171h-131zM26 0v118h524v-118h-524z" />
    <glyph glyph-name="twosuperior" unicode="&#xb2;" horiz-adv-x="349" 
d="M323 398v-71h-310q5 38 27.5 68t99.5 84q58 40 70 53q16 17 16 34t-13 27t-39 10t-38.5 -11t-15.5 -41l-97 7q8 53 38 77q41 32 116 32q71 0 108.5 -29t37.5 -68q0 -24 -11.5 -46t-37.5 -45q-13 -12 -69 -50q-30 -21 -42 -31h160z" />
    <glyph glyph-name="threesuperior" unicode="&#xb3;" horiz-adv-x="349" 
d="M20 425l95 9q4 -25 18.5 -36.5t38.5 -11.5q25 0 40.5 13.5t15.5 34.5q0 19 -14.5 32t-38.5 13q-15 0 -46 -7l12 65q26 0 41 5t21.5 13t6.5 18q0 13 -10.5 21.5t-31.5 8.5t-34 -10.5t-17 -33.5l-91 11q13 47 38 66q39 31 106 31q64 0 101 -28t37 -64q0 -17 -11 -31
q-14 -20 -39 -34q34 -10 52 -31t18 -49q0 -43 -43 -76t-113 -33q-66 0 -105 28.5t-47 75.5z" />
    <glyph glyph-name="acute" unicode="&#xb4;" horiz-adv-x="553" 
d="M442 723l-160 -154h-129l96 154h193z" />
    <glyph glyph-name="mu" unicode="&#xb5;" horiz-adv-x="603" 
d="M57 477h142v-216q0 -93 22 -127q27 -44 80 -44q29 0 54.5 16.5t37.5 45t12 108.5v217h146v-477h-134v58q-16 -26 -29.5 -38.5t-37 -22t-42.5 -9.5q-37 0 -65 18q-20 13 -44 52v-241h-142v660z" />
    <glyph glyph-name="paragraph" unicode="&#xb6;" horiz-adv-x="800" 
d="M702 -177h-127v746h-70v-746h-126v427h-76q-106 0 -177 54q-75 59 -75 156t76 155q70 55 176 55h399v-847z" />
    <glyph glyph-name="periodcentered" unicode="&#xb7;" horiz-adv-x="332" 
d="M283 336q0 -35 -35.5 -60.5t-79.5 -25.5q-48 0 -81.5 25.5t-33.5 60.5t33.5 60.5t81.5 25.5q44 0 79.5 -25.5t35.5 -60.5z" />
    <glyph glyph-name="periodcentered" unicode="&#x2219;" horiz-adv-x="332" 
d="M283 336q0 -35 -35.5 -60.5t-79.5 -25.5q-48 0 -81.5 25.5t-33.5 60.5t33.5 60.5t81.5 25.5q44 0 79.5 -25.5t35.5 -60.5z" />
    <glyph glyph-name="cedilla" unicode="&#xb8;" horiz-adv-x="553" 
d="M417 -101q0 -84 -132 -84q-81 0 -144 35l22 36q50 -23 98 -23q61 0 61 33q0 25 -35 25q-18 0 -32 -7l-40 13l30 108h61l-19 -75q16 7 44 7q86 0 86 -68z" />
    <glyph glyph-name="onesuperior" unicode="&#xb9;" horiz-adv-x="349" 
d="M253 327h-97v230q-48 -29 -109 -44v70q48 12 87 39q28 19 40 45h79v-340z" />
    <glyph glyph-name="ordmasculine" unicode="&#xba;" horiz-adv-x="543" 
d="M484 468q0 -93 -60.5 -152t-153.5 -59q-92 0 -152 59t-60 152t60 153t152 60q93 0 153.5 -60t60.5 -153zM359 468q0 49 -23 79t-66 30q-87 0 -87 -109q0 -108 87 -108q43 0 66 31.5t23 76.5z" />
    <glyph glyph-name="guillemotright" unicode="&#xbb;" horiz-adv-x="694" 
d="M668 251l-181 -251h-157l174 252l-174 250h157zM389 251l-180 -251h-158l175 252l-175 250h158z" />
    <glyph glyph-name="onequarter" unicode="&#xbc;" horiz-adv-x="1175" 
d="M188 345v491h-94v94q45 2 78 25t47 60h96v-670h-127zM684 756l-360 -842h-151l360 842h151zM998 -184v-127h-124v127h-475v122l475 421h124v-421h83v-122h-83zM874 197l-296 -259h296v259z" />
    <glyph glyph-name="onehalf" unicode="&#xbd;" horiz-adv-x="1263" 
d="M188 329v491h-94v94q45 2 78 25t47 60h96v-670h-127zM698 756l-360 -842h-151l360 842h151zM582 -245q-4 75 15 130.5t52.5 96t77.5 68.5t90.5 49t91 36.5t79.5 30.5t56 33t20 43t-22.5 41t-56 23t-77.5 5.5t-85.5 -11.5t-81 -28t-63.5 -44l-87 96q69 49 140 75.5
t137.5 34t125 -2.5t102.5 -33.5t70 -60t27 -81.5q2 -56 -20.5 -94.5t-60 -66.5t-85 -48t-95.5 -38q-33 -12 -65.5 -24.5t-60.5 -27.5t-48 -33t-28 -42h468v-127h-616z" />
    <glyph glyph-name="threequarters" unicode="&#xbe;" horiz-adv-x="1507" 
d="M694 569q0 -50 -25 -94.5t-67 -74.5q-35 -23 -87.5 -36.5t-112.5 -13.5q-78 0 -152 20.5t-128 59.5q-16 10 -26.5 20t-29.5 30l87 89q50 -48 110 -70t132 -22q83 0 128.5 25t45.5 72q0 23 -13 44.5t-34 32.5q-13 8 -29 10t-37 2h-73v127h73q73 0 73 54q0 20 -11 32.5
t-34 23.5q-17 8 -43.5 11t-52.5 3q-54 0 -106.5 -16t-98.5 -49l-75 98q62 48 135 72.5t145 24.5q58 0 107 -14.5t84 -41t55 -62t20 -77.5q0 -35 -13 -63.5t-39 -56.5q46 -29 69 -69.5t23 -90.5zM1006 756l-360 -842h-151l360 842h151zM1330 -117v-127h-124v127h-475v122
l475 421h124v-421h83v-122h-83zM1206 264l-296 -259h296v259z" />
    <glyph glyph-name="questiondown" unicode="&#xbf;" horiz-adv-x="696" 
d="M66 190q0 78 63 132q11 8 21.5 16t21.5 17l44 30q19 12 30.5 22.5t18 22t8.5 26t2 35.5h120q-1 -36 -5 -59.5t-16 -42.5t-35.5 -38.5t-63.5 -47.5q-47 -32 -64.5 -54.5t-17.5 -49.5q0 -37 40.5 -59.5t109.5 -22.5q157 0 160 129h127q-1 -33 -4 -58.5t-9.5 -46t-17 -37.5
t-25.5 -34q-74 -80 -233 -80q-63 0 -113.5 14t-86.5 40t-55.5 63t-19.5 83zM397 618q0 -25 -18.5 -43t-44.5 -18q-25 0 -43 18t-18 43q0 26 18 44.5t43 18.5q26 0 44.5 -18.5t18.5 -44.5z" />
    <glyph glyph-name="Agrave" unicode="&#xc0;" horiz-adv-x="813" 
d="M646 0l-68 146h-341l-70 -146h-141l317 670h127l318 -670h-142zM407 508l-111 -233h221zM551 750h-130l-159 154h193z" />
    <glyph glyph-name="Aacute" unicode="&#xc1;" horiz-adv-x="813" 
d="M646 0l-68 146h-341l-70 -146h-141l317 670h127l318 -670h-142zM407 508l-111 -233h221zM551 904l-160 -154h-129l96 154h193z" />
    <glyph glyph-name="Acircumflex" unicode="&#xc2;" horiz-adv-x="813" 
d="M646 0l-68 146h-341l-70 -146h-141l317 670h127l318 -670h-142zM407 508l-111 -233h221zM618 750h-103l-110 72l-111 -72h-100l135 154h155z" />
    <glyph glyph-name="Atilde" unicode="&#xc3;" horiz-adv-x="813" 
d="M646 0l-68 146h-341l-70 -146h-141l317 670h127l318 -670h-142zM407 508l-111 -233h221zM623 885q0 -63 -34.5 -100t-92.5 -37q-52 0 -111 29q-39 19 -58 19q-29 0 -38 -46h-99q0 64 35 101t92 37q52 0 112 -29q39 -19 58 -19q28 0 37 45h99z" />
    <glyph glyph-name="Adieresis" unicode="&#xc4;" horiz-adv-x="813" 
d="M646 0l-68 146h-341l-70 -146h-141l317 670h127l318 -670h-142zM407 508l-111 -233h221zM612 824q0 -29 -25.5 -51.5t-59.5 -22.5q-35 0 -61.5 22.5t-26.5 51.5q0 31 26.5 53t61.5 22q34 0 59.5 -22t25.5 -53zM374 824q0 -29 -26.5 -51.5t-61.5 -22.5q-33 0 -59.5 22.5
t-26.5 51.5q0 31 26 53t60 22q36 0 62 -22t26 -53z" />
    <glyph glyph-name="Aring" unicode="&#xc5;" horiz-adv-x="813" 
d="M646 0l-68 146h-341l-70 -146h-141l317 670h127l318 -670h-142zM407 508l-111 -233h221zM556 878q0 -56 -42.5 -92t-107.5 -36q-64 0 -106.5 36t-42.5 92q0 55 42.5 92t106.5 37q65 0 107.5 -37t42.5 -92zM472 878q0 24 -19 40.5t-47 16.5q-27 0 -46 -16.5t-19 -40.5
t19 -41t46 -17q28 0 47 17t19 41z" />
    <glyph glyph-name="AE" unicode="&#xc6;" horiz-adv-x="1147" 
d="M1083 0h-525v120h-276l-90 -120h-176l519 670h531v-128h-361v-121h200v-126h-200v-167h378v-128zM560 500q-27 -45 -90 -129l-100 -134h188v123q0 21 1 74.5t1 65.5z" />
    <glyph glyph-name="Ccedilla" unicode="&#xc7;" horiz-adv-x="743" 
d="M696 139q-13 -18 -23.5 -30.5t-20.5 -22.5t-20.5 -18t-22.5 -16q-43 -30 -94.5 -47t-103.5 -17q-71 0 -134 27t-110 74t-74 110t-27 135q0 73 27.5 136.5t74.5 110.5t111 74t137 27q43 0 80.5 -8.5t71.5 -26.5t65.5 -46t62.5 -67l-104 -73q-38 48 -82 69.5t-99 21.5
q-46 0 -85.5 -17t-69 -46t-46.5 -68.5t-17 -84.5q0 -46 17 -85.5t46.5 -69t69 -46.5t85.5 -17q39 0 75 13t66 36l17.5 17.5t22.5 24.5l104 -70v0zM509 -101q0 -84 -132 -84q-81 0 -144 35l22 36q50 -23 98 -23q61 0 61 33q0 25 -35 25q-18 0 -32 -7l-40 13l30 108h61
l-19 -75q16 7 44 7q86 0 86 -68z" />
    <glyph glyph-name="Egrave" unicode="&#xc8;" horiz-adv-x="703" 
d="M94 0v670h534v-127h-407v-122h235v-129h-235v-165h416v-127h-543zM496 750h-130l-159 154h193z" />
    <glyph glyph-name="Eacute" unicode="&#xc9;" horiz-adv-x="703" 
d="M94 0v670h534v-127h-407v-122h235v-129h-235v-165h416v-127h-543zM496 904l-160 -154h-129l96 154h193z" />
    <glyph glyph-name="Ecircumflex" unicode="&#xca;" horiz-adv-x="703" 
d="M94 0v670h534v-127h-407v-122h235v-129h-235v-165h416v-127h-543zM563 750h-103l-110 72l-111 -72h-100l135 154h155z" />
    <glyph glyph-name="Edieresis" unicode="&#xcb;" horiz-adv-x="703" 
d="M94 0v670h534v-127h-407v-122h235v-129h-235v-165h416v-127h-543zM557 824q0 -29 -25.5 -51.5t-59.5 -22.5q-35 0 -61.5 22.5t-26.5 51.5q0 31 26.5 53t61.5 22q34 0 59.5 -22t25.5 -53zM319 824q0 -29 -26.5 -51.5t-61.5 -22.5q-33 0 -59.5 22.5t-26.5 51.5q0 31 26 53
t60 22q36 0 62 -22t26 -53z" />
    <glyph glyph-name="Igrave" unicode="&#xcc;" horiz-adv-x="315" 
d="M94 0v670h127q1 -188 1 -335v-123v-107.5t-0.5 -76l-0.5 -28.5h-127zM303 750h-130l-159 154h193z" />
    <glyph glyph-name="Iacute" unicode="&#xcd;" horiz-adv-x="315" 
d="M94 0v670h127q1 -188 1 -335v-123v-107.5t-0.5 -76l-0.5 -28.5h-127zM303 904l-160 -154h-129l96 154h193z" />
    <glyph glyph-name="Icircumflex" unicode="&#xce;" horiz-adv-x="315" 
d="M94 0v670h127q1 -188 1 -335v-123v-107.5t-0.5 -76l-0.5 -28.5h-127zM371 750h-103l-110 72l-111 -72h-100l135 154h155z" />
    <glyph glyph-name="Idieresis" unicode="&#xcf;" horiz-adv-x="315" 
d="M94 0v670h127q1 -188 1 -335v-123v-107.5t-0.5 -76l-0.5 -28.5h-127zM365 824q0 -29 -25.5 -51.5t-59.5 -22.5q-35 0 -61.5 22.5t-26.5 51.5q0 31 26.5 53t61.5 22q34 0 59.5 -22t25.5 -53zM127 824q0 -29 -26.5 -51.5t-61.5 -22.5q-33 0 -59.5 22.5t-26.5 51.5
q0 31 26 53t60 22q36 0 62 -22t26 -53z" />
    <glyph glyph-name="Eth" unicode="&#xd0;" horiz-adv-x="756" 
d="M76 659h276q95 0 144 -13q67 -18 114 -62t71 -107t24 -156q0 -81 -26.5 -146.5t-77.5 -108.5q-40 -33 -106 -52q-50 -14 -135 -14h-284v288h-78v83h78v288zM227 547v-176h161v-83h-161v-177h114q75 0 108 11q44 13 67 49q32 51 32 155q0 74 -13.5 114.5t-40 65
t-68.5 34.5q-33 7 -130 7h-69z" />
    <glyph glyph-name="Ntilde" unicode="&#xd1;" horiz-adv-x="818" 
d="M597 0l-376 463v-463h-127v670h125l376 -468v468h129v-670h-127zM625 885q0 -63 -34.5 -100t-92.5 -37q-52 0 -111 29q-39 19 -58 19q-29 0 -38 -46h-99q0 64 35 101t92 37q52 0 112 -29q39 -19 58 -19q28 0 37 45h99z" />
    <glyph glyph-name="Ograve" unicode="&#xd2;" horiz-adv-x="832" 
d="M766 339q0 -72 -28 -136t-75.5 -112t-111 -75.5t-135.5 -27.5q-71 0 -134.5 27.5t-111.5 75t-76 111t-28 134.5q0 73 27 136.5t74 110t111 73t138 26.5q70 0 133.5 -27.5t111.5 -74.5t76.5 -109.5t28.5 -131.5zM639 336q0 45 -17.5 84.5t-48 68.5t-71 46t-86.5 17
t-86.5 -16.5t-71 -45.5t-48 -67.5t-17.5 -83.5q0 -46 17.5 -86.5t48 -70.5t71 -47t86.5 -17t86.5 17t71 47t48 70.5t17.5 86.5v-3zM560 750h-130l-159 154h193z" />
    <glyph glyph-name="Oacute" unicode="&#xd3;" horiz-adv-x="832" 
d="M766 339q0 -72 -28 -136t-75.5 -112t-111 -75.5t-135.5 -27.5q-71 0 -134.5 27.5t-111.5 75t-76 111t-28 134.5q0 73 27 136.5t74 110t111 73t138 26.5q70 0 133.5 -27.5t111.5 -74.5t76.5 -109.5t28.5 -131.5zM639 336q0 45 -17.5 84.5t-48 68.5t-71 46t-86.5 17
t-86.5 -16.5t-71 -45.5t-48 -67.5t-17.5 -83.5q0 -46 17.5 -86.5t48 -70.5t71 -47t86.5 -17t86.5 17t71 47t48 70.5t17.5 86.5v-3zM560 904l-160 -154h-129l96 154h193z" />
    <glyph glyph-name="Ocircumflex" unicode="&#xd4;" horiz-adv-x="832" 
d="M766 339q0 -72 -28 -136t-75.5 -112t-111 -75.5t-135.5 -27.5q-71 0 -134.5 27.5t-111.5 75t-76 111t-28 134.5q0 73 27 136.5t74 110t111 73t138 26.5q70 0 133.5 -27.5t111.5 -74.5t76.5 -109.5t28.5 -131.5zM639 336q0 45 -17.5 84.5t-48 68.5t-71 46t-86.5 17
t-86.5 -16.5t-71 -45.5t-48 -67.5t-17.5 -83.5q0 -46 17.5 -86.5t48 -70.5t71 -47t86.5 -17t86.5 17t71 47t48 70.5t17.5 86.5v-3zM628 750h-103l-110 72l-111 -72h-100l135 154h155z" />
    <glyph glyph-name="Otilde" unicode="&#xd5;" horiz-adv-x="832" 
d="M766 339q0 -72 -28 -136t-75.5 -112t-111 -75.5t-135.5 -27.5q-71 0 -134.5 27.5t-111.5 75t-76 111t-28 134.5q0 73 27 136.5t74 110t111 73t138 26.5q70 0 133.5 -27.5t111.5 -74.5t76.5 -109.5t28.5 -131.5zM639 336q0 45 -17.5 84.5t-48 68.5t-71 46t-86.5 17
t-86.5 -16.5t-71 -45.5t-48 -67.5t-17.5 -83.5q0 -46 17.5 -86.5t48 -70.5t71 -47t86.5 -17t86.5 17t71 47t48 70.5t17.5 86.5v-3zM632 885q0 -63 -34.5 -100t-92.5 -37q-52 0 -111 29q-39 19 -58 19q-29 0 -38 -46h-99q0 64 35 101t92 37q52 0 112 -29q39 -19 58 -19
q28 0 37 45h99z" />
    <glyph glyph-name="Odieresis" unicode="&#xd6;" horiz-adv-x="832" 
d="M766 339q0 -72 -28 -136t-75.5 -112t-111 -75.5t-135.5 -27.5q-71 0 -134.5 27.5t-111.5 75t-76 111t-28 134.5q0 73 27 136.5t74 110t111 73t138 26.5q70 0 133.5 -27.5t111.5 -74.5t76.5 -109.5t28.5 -131.5zM639 336q0 45 -17.5 84.5t-48 68.5t-71 46t-86.5 17
t-86.5 -16.5t-71 -45.5t-48 -67.5t-17.5 -83.5q0 -46 17.5 -86.5t48 -70.5t71 -47t86.5 -17t86.5 17t71 47t48 70.5t17.5 86.5v-3zM622 824q0 -29 -25.5 -51.5t-59.5 -22.5q-35 0 -61.5 22.5t-26.5 51.5q0 31 26.5 53t61.5 22q34 0 59.5 -22t25.5 -53zM384 824
q0 -29 -26.5 -51.5t-61.5 -22.5q-33 0 -59.5 22.5t-26.5 51.5q0 31 26 53t60 22q36 0 62 -22t26 -53z" />
    <glyph glyph-name="multiply" unicode="&#xd7;" horiz-adv-x="612" 
d="M57 189l154 135l-155 137l95 83l155 -136l155 136l92 -82l-154 -136l156 -137l-95 -83l-156 137l-155 -136z" />
    <glyph glyph-name="Oslash" unicode="&#xd8;" horiz-adv-x="832" 
d="M766 339q0 -72 -28 -136t-75.5 -112t-111 -75.5t-135.5 -27.5q-71 0 -134.5 27.5t-111.5 75t-76 111t-28 134.5q0 73 27 136.5t74 110t111 73t138 26.5q70 0 133.5 -27.5t111.5 -74.5t76.5 -109.5t28.5 -131.5zM639 336q0 45 -17.5 84.5t-48 68.5t-71 46t-86.5 17
t-86.5 -16.5t-71 -45.5t-48 -67.5t-17.5 -83.5q0 -46 17.5 -86.5t48 -70.5t71 -47t86.5 -17t86.5 17t71 47t48 70.5t17.5 86.5v-3zM99 -14q-8 -8 -16 -7t-13 6t-6 13t7 16l670 670q7 7 15.5 6.5t13.5 -5.5t5.5 -13.5t-6.5 -15.5l-670 -670v0z" />
    <glyph glyph-name="Ugrave" unicode="&#xd9;" horiz-adv-x="816" 
d="M722 317q0 -51 -9.5 -93.5t-30.5 -80.5q-43 -71 -116 -113t-157 -42q-41 0 -81.5 11t-76 31t-65.5 49t-50 64q-21 39 -31.5 81t-10.5 93v353h127v-353q0 -35 6.5 -60t19.5 -48q25 -42 68.5 -66.5t93.5 -24.5t93.5 24.5t66.5 66.5q14 23 20 48t6 60v353h127v-353v0z
M552 750h-130l-159 154h193z" />
    <glyph glyph-name="Uacute" unicode="&#xda;" horiz-adv-x="816" 
d="M722 317q0 -51 -9.5 -93.5t-30.5 -80.5q-43 -71 -116 -113t-157 -42q-41 0 -81.5 11t-76 31t-65.5 49t-50 64q-21 39 -31.5 81t-10.5 93v353h127v-353q0 -35 6.5 -60t19.5 -48q25 -42 68.5 -66.5t93.5 -24.5t93.5 24.5t66.5 66.5q14 23 20 48t6 60v353h127v-353v0z
M552 904l-160 -154h-129l96 154h193z" />
    <glyph glyph-name="Ucircumflex" unicode="&#xdb;" horiz-adv-x="816" 
d="M722 317q0 -51 -9.5 -93.5t-30.5 -80.5q-43 -71 -116 -113t-157 -42q-41 0 -81.5 11t-76 31t-65.5 49t-50 64q-21 39 -31.5 81t-10.5 93v353h127v-353q0 -35 6.5 -60t19.5 -48q25 -42 68.5 -66.5t93.5 -24.5t93.5 24.5t66.5 66.5q14 23 20 48t6 60v353h127v-353v0z
M620 750h-103l-110 72l-111 -72h-100l135 154h155z" />
    <glyph glyph-name="Udieresis" unicode="&#xdc;" horiz-adv-x="816" 
d="M722 317q0 -51 -9.5 -93.5t-30.5 -80.5q-43 -71 -116 -113t-157 -42q-41 0 -81.5 11t-76 31t-65.5 49t-50 64q-21 39 -31.5 81t-10.5 93v353h127v-353q0 -35 6.5 -60t19.5 -48q25 -42 68.5 -66.5t93.5 -24.5t93.5 24.5t66.5 66.5q14 23 20 48t6 60v353h127v-353v0z
M614 824q0 -29 -25.5 -51.5t-59.5 -22.5q-35 0 -61.5 22.5t-26.5 51.5q0 31 26.5 53t61.5 22q34 0 59.5 -22t25.5 -53zM376 824q0 -29 -26.5 -51.5t-61.5 -22.5q-33 0 -59.5 22.5t-26.5 51.5q0 31 26 53t60 22q36 0 62 -22t26 -53z" />
    <glyph glyph-name="Yacute" unicode="&#xdd;" horiz-adv-x="813" 
d="M470 270v-270h-127v270l-317 400h162l219 -275l218 275h163zM551 904l-160 -154h-129l96 154h193z" />
    <glyph glyph-name="Thorn" unicode="&#xde;" horiz-adv-x="698" 
d="M76 0v659h152v-124h91q138 0 181 -10q64 -15 107 -65t43 -128q0 -61 -25 -102t-63.5 -65t-78.5 -31q-54 -10 -157 -10h-98v-124h-152zM228 423v-187h82q85 0 108 5q32 7 54 29.5t22 60.5q0 31 -17.5 53.5t-42.5 30.5t-133 8h-73z" />
    <glyph glyph-name="germandbls" unicode="&#xdf;" horiz-adv-x="648" 
d="M603 212q0 -212 -268 -212h-24v120h20q118 0 118 92q0 107 -132 107h-6v115h5q73 0 73 69q0 67 -83 67q-46 0 -62.5 -19t-16.5 -59v-611l-153 -66v684q0 196 234 196q102 0 167 -45q69 -49 69 -132q0 -103 -103 -133q162 -28 162 -173z" />
    <glyph glyph-name="agrave" unicode="&#xe0;" 
d="M421 0v21q-4 -2 -6 -2.5t-4.5 -1t-7 -1.5t-13.5 -4q-32 -11 -61 -16t-59 -5q-48 0 -87.5 12t-68 33.5t-44.5 51.5t-16 65q0 37 18 68.5t49.5 54t74.5 35.5t93 13q29 0 66 -3.5t80 -14.5q-2 49 -30 65.5t-83 16.5q-21 0 -44 -4t-45 -10t-43 -13.5t-37 -14.5l-54 105
q58 25 111 37.5t112 12.5q240 0 240 -205v-296h-141zM435 200q-12 5 -35.5 10.5t-52 9t-58 3.5t-53.5 -6t-39.5 -19t-15.5 -36q0 -26 15 -39.5t38.5 -18t52.5 -2.5t57 7.5t52.5 12t38.5 10.5v68zM465 569h-130l-159 154h193z" />
    <glyph glyph-name="aacute" unicode="&#xe1;" 
d="M421 0v21q-4 -2 -6 -2.5t-4.5 -1t-7 -1.5t-13.5 -4q-32 -11 -61 -16t-59 -5q-48 0 -87.5 12t-68 33.5t-44.5 51.5t-16 65q0 37 18 68.5t49.5 54t74.5 35.5t93 13q29 0 66 -3.5t80 -14.5q-2 49 -30 65.5t-83 16.5q-21 0 -44 -4t-45 -10t-43 -13.5t-37 -14.5l-54 105
q58 25 111 37.5t112 12.5q240 0 240 -205v-296h-141zM435 200q-12 5 -35.5 10.5t-52 9t-58 3.5t-53.5 -6t-39.5 -19t-15.5 -36q0 -26 15 -39.5t38.5 -18t52.5 -2.5t57 7.5t52.5 12t38.5 10.5v68zM465 723l-160 -154h-129l96 154h193z" />
    <glyph glyph-name="acircumflex" unicode="&#xe2;" 
d="M421 0v21q-4 -2 -6 -2.5t-4.5 -1t-7 -1.5t-13.5 -4q-32 -11 -61 -16t-59 -5q-48 0 -87.5 12t-68 33.5t-44.5 51.5t-16 65q0 37 18 68.5t49.5 54t74.5 35.5t93 13q29 0 66 -3.5t80 -14.5q-2 49 -30 65.5t-83 16.5q-21 0 -44 -4t-45 -10t-43 -13.5t-37 -14.5l-54 105
q58 25 111 37.5t112 12.5q240 0 240 -205v-296h-141zM435 200q-12 5 -35.5 10.5t-52 9t-58 3.5t-53.5 -6t-39.5 -19t-15.5 -36q0 -26 15 -39.5t38.5 -18t52.5 -2.5t57 7.5t52.5 12t38.5 10.5v68zM533 569h-103l-110 72l-111 -72h-100l135 154h155z" />
    <glyph glyph-name="atilde" unicode="&#xe3;" 
d="M421 0v21q-4 -2 -6 -2.5t-4.5 -1t-7 -1.5t-13.5 -4q-32 -11 -61 -16t-59 -5q-48 0 -87.5 12t-68 33.5t-44.5 51.5t-16 65q0 37 18 68.5t49.5 54t74.5 35.5t93 13q29 0 66 -3.5t80 -14.5q-2 49 -30 65.5t-83 16.5q-21 0 -44 -4t-45 -10t-43 -13.5t-37 -14.5l-54 105
q58 25 111 37.5t112 12.5q240 0 240 -205v-296h-141zM435 200q-12 5 -35.5 10.5t-52 9t-58 3.5t-53.5 -6t-39.5 -19t-15.5 -36q0 -26 15 -39.5t38.5 -18t52.5 -2.5t57 7.5t52.5 12t38.5 10.5v68zM537 704q0 -63 -34.5 -100t-92.5 -37q-52 0 -111 29q-39 19 -58 19
q-29 0 -38 -46h-99q0 64 35 101t92 37q52 0 112 -29q39 -19 58 -19q28 0 37 45h99z" />
    <glyph glyph-name="adieresis" unicode="&#xe4;" 
d="M421 0v21q-4 -2 -6 -2.5t-4.5 -1t-7 -1.5t-13.5 -4q-32 -11 -61 -16t-59 -5q-48 0 -87.5 12t-68 33.5t-44.5 51.5t-16 65q0 37 18 68.5t49.5 54t74.5 35.5t93 13q29 0 66 -3.5t80 -14.5q-2 49 -30 65.5t-83 16.5q-21 0 -44 -4t-45 -10t-43 -13.5t-37 -14.5l-54 105
q58 25 111 37.5t112 12.5q240 0 240 -205v-296h-141zM435 200q-12 5 -35.5 10.5t-52 9t-58 3.5t-53.5 -6t-39.5 -19t-15.5 -36q0 -26 15 -39.5t38.5 -18t52.5 -2.5t57 7.5t52.5 12t38.5 10.5v68zM527 643q0 -29 -25.5 -51.5t-59.5 -22.5q-35 0 -61.5 22.5t-26.5 51.5
q0 31 26.5 53t61.5 22q34 0 59.5 -22t25.5 -53zM289 643q0 -29 -26.5 -51.5t-61.5 -22.5q-33 0 -59.5 22.5t-26.5 51.5q0 31 26 53t60 22q36 0 62 -22t26 -53z" />
    <glyph glyph-name="aring" unicode="&#xe5;" 
d="M421 0v21q-4 -2 -6 -2.5t-4.5 -1t-7 -1.5t-13.5 -4q-32 -11 -61 -16t-59 -5q-48 0 -87.5 12t-68 33.5t-44.5 51.5t-16 65q0 37 18 68.5t49.5 54t74.5 35.5t93 13q29 0 66 -3.5t80 -14.5q-2 49 -30 65.5t-83 16.5q-21 0 -44 -4t-45 -10t-43 -13.5t-37 -14.5l-54 105
q58 25 111 37.5t112 12.5q240 0 240 -205v-296h-141zM435 200q-12 5 -35.5 10.5t-52 9t-58 3.5t-53.5 -6t-39.5 -19t-15.5 -36q0 -26 15 -39.5t38.5 -18t52.5 -2.5t57 7.5t52.5 12t38.5 10.5v68zM470 697q0 -56 -42.5 -92t-107.5 -36q-64 0 -106.5 36t-42.5 92q0 55 42.5 92
t106.5 37q65 0 107.5 -37t42.5 -92zM386 697q0 24 -19 40.5t-47 16.5q-27 0 -46 -16.5t-19 -40.5t19 -41t46 -17q28 0 47 17t19 41z" />
    <glyph glyph-name="ae" unicode="&#xe6;" horiz-adv-x="932" 
d="M884 251q0 -23 -2 -42h-347q4 -48 40 -73q33 -22 80 -22q63 0 99 35l109 -78q-35 -38 -92 -60t-116 -22q-130 0 -204 77q-79 -77 -188 -77q-89 0 -149 44q-67 49 -67 135q0 81 68 126q63 41 167 41q65 0 111 -20v25q0 28 -21 46t-61 18q-88 0 -159 -34l-59 92
q101 51 218 51q114 0 174 -58q62 58 155 58q113 0 180 -78q64 -72 64 -184zM736 308q-3 38 -28 62q-29 28 -76 28q-40 0 -65 -25.5t-30 -64.5h199zM393 147v64q-38 21 -106 21q-88 0 -88 -64q0 -67 88 -67q75 0 106 46z" />
    <glyph glyph-name="ccedilla" unicode="&#xe7;" horiz-adv-x="557" 
d="M524 80q-35 -41 -88 -65t-116 -24q-56 0 -104.5 19.5t-84.5 54t-56.5 80.5t-20.5 99t20.5 99t56.5 80t84.5 53.5t104.5 19.5q62 0 114.5 -23t87.5 -64q1 0 1 1l-1 1l-78 -103q-21 30 -54 49t-70 19q-27 0 -51.5 -9.5t-43.5 -27t-30.5 -42t-11.5 -53.5q0 -30 11.5 -54
t30.5 -41t43.5 -26.5t51.5 -9.5q33 0 65 14t52 42l87 -89v0zM417 -101q0 -84 -132 -84q-81 0 -144 35l22 36q50 -23 98 -23q61 0 61 33q0 25 -35 25q-18 0 -32 -7l-40 13l30 108h61l-19 -75q16 7 44 7q86 0 86 -68z" />
    <glyph glyph-name="egrave" unicode="&#xe8;" 
d="M186 207q6 -22 19.5 -40.5t31 -31.5t38.5 -20t42 -7q12 0 27 3t29.5 8t27.5 11t22 13l97 -87q-45 -33 -92.5 -50.5t-107.5 -17.5q-56 0 -104.5 20t-84.5 55t-56.5 81.5t-20.5 99.5t20.5 99t56.5 80t84.5 53.5t104.5 19.5t104 -17.5t83.5 -53.5t56.5 -90.5t24 -127.5h-402
zM442 301q-5 18 -17.5 32t-29.5 23.5t-36.5 14.5t-38.5 5q-30 0 -53.5 -7.5t-40 -18.5t-27 -24t-13.5 -23h256v-2zM465 569h-130l-159 154h193z" />
    <glyph glyph-name="eacute" unicode="&#xe9;" 
d="M186 207q6 -22 19.5 -40.5t31 -31.5t38.5 -20t42 -7q12 0 27 3t29.5 8t27.5 11t22 13l97 -87q-45 -33 -92.5 -50.5t-107.5 -17.5q-56 0 -104.5 20t-84.5 55t-56.5 81.5t-20.5 99.5t20.5 99t56.5 80t84.5 53.5t104.5 19.5t104 -17.5t83.5 -53.5t56.5 -90.5t24 -127.5h-402
zM442 301q-5 18 -17.5 32t-29.5 23.5t-36.5 14.5t-38.5 5q-30 0 -53.5 -7.5t-40 -18.5t-27 -24t-13.5 -23h256v-2zM465 723l-160 -154h-129l96 154h193z" />
    <glyph glyph-name="ecircumflex" unicode="&#xea;" 
d="M186 207q6 -22 19.5 -40.5t31 -31.5t38.5 -20t42 -7q12 0 27 3t29.5 8t27.5 11t22 13l97 -87q-45 -33 -92.5 -50.5t-107.5 -17.5q-56 0 -104.5 20t-84.5 55t-56.5 81.5t-20.5 99.5t20.5 99t56.5 80t84.5 53.5t104.5 19.5t104 -17.5t83.5 -53.5t56.5 -90.5t24 -127.5h-402
zM442 301q-5 18 -17.5 32t-29.5 23.5t-36.5 14.5t-38.5 5q-30 0 -53.5 -7.5t-40 -18.5t-27 -24t-13.5 -23h256v-2zM533 569h-103l-110 72l-111 -72h-100l135 154h155z" />
    <glyph glyph-name="edieresis" unicode="&#xeb;" 
d="M186 207q6 -22 19.5 -40.5t31 -31.5t38.5 -20t42 -7q12 0 27 3t29.5 8t27.5 11t22 13l97 -87q-45 -33 -92.5 -50.5t-107.5 -17.5q-56 0 -104.5 20t-84.5 55t-56.5 81.5t-20.5 99.5t20.5 99t56.5 80t84.5 53.5t104.5 19.5t104 -17.5t83.5 -53.5t56.5 -90.5t24 -127.5h-402
zM442 301q-5 18 -17.5 32t-29.5 23.5t-36.5 14.5t-38.5 5q-30 0 -53.5 -7.5t-40 -18.5t-27 -24t-13.5 -23h256v-2zM527 643q0 -29 -25.5 -51.5t-59.5 -22.5q-35 0 -61.5 22.5t-26.5 51.5q0 31 26.5 53t61.5 22q34 0 59.5 -22t25.5 -53zM289 643q0 -29 -26.5 -51.5
t-61.5 -22.5q-33 0 -59.5 22.5t-26.5 51.5q0 31 26 53t60 22q36 0 62 -22t26 -53z" />
    <glyph glyph-name="igrave" unicode="&#xec;" horiz-adv-x="292" 
d="M82 0v487h130v-487h-130zM292 569h-130l-159 154h193z" />
    <glyph glyph-name="iacute" unicode="&#xed;" horiz-adv-x="292" 
d="M82 0v487h130v-487h-130zM292 723l-160 -154h-129l96 154h193z" />
    <glyph glyph-name="icircumflex" unicode="&#xee;" horiz-adv-x="292" 
d="M82 0v487h130v-487h-130zM359 569h-103l-110 72l-111 -72h-100l135 154h155z" />
    <glyph glyph-name="idieresis" unicode="&#xef;" horiz-adv-x="292" 
d="M82 0v487h130v-487h-130zM353 643q0 -29 -25.5 -51.5t-59.5 -22.5q-35 0 -61.5 22.5t-26.5 51.5q0 31 26.5 53t61.5 22q34 0 59.5 -22t25.5 -53zM115 643q0 -29 -26.5 -51.5t-61.5 -22.5q-33 0 -59.5 22.5t-26.5 51.5q0 31 26 53t60 22q36 0 62 -22t26 -53z" />
    <glyph glyph-name="eth" unicode="&#xf0;" horiz-adv-x="640" 
d="M170 659h150q29 -20 55 -40l93 40l23 -44l-74 -30q98 -87 141 -174.5t43 -165.5q0 -116 -79 -186t-203 -70q-121 0 -199 70t-78 181q0 109 83 179q69 58 156 58q27 0 55 -7q21 -5 58 -24q-20 32 -33 49.5t-41 48.5l-128 -54l-22 43l111 47q-51 41 -111 79zM192 238
q0 -71 37 -108.5t91 -37.5q55 0 93 37.5t38 104.5t-39 105.5t-93 38.5q-53 0 -90 -36.5t-37 -103.5z" />
    <glyph glyph-name="ntilde" unicode="&#xf1;" horiz-adv-x="658" 
d="M451 0v268q0 36 -10 58t-26.5 34.5t-38.5 16.5t-47 4q-22 0 -44 -3.5t-39 -15.5t-28 -35.5t-11 -63.5v-263h-127v489h127v-31q12 12 30 19t39 11.5t43 6t43 1.5q48 0 87.5 -10.5t68 -32t44.5 -55.5t16 -81v-317h-127zM545 704q0 -63 -34.5 -100t-92.5 -37q-52 0 -111 29
q-39 19 -58 19q-29 0 -38 -46h-99q0 64 35 101t92 37q52 0 112 -29q39 -19 58 -19q28 0 37 45h99z" />
    <glyph glyph-name="ograve" unicode="&#xf2;" 
d="M588 244q0 -54 -21 -100t-57 -80t-85 -53.5t-105 -19.5t-104.5 19.5t-84.5 54t-56.5 80.5t-20.5 99t20.5 99t56.5 80t84.5 53.5t104.5 19.5t105 -19.5t85 -53.5t57 -80t21 -99zM458 244q0 29 -11.5 53.5t-31 42t-44.5 27t-51 9.5q-27 0 -51.5 -9.5t-43.5 -27t-30.5 -42
t-11.5 -53.5q0 -30 11.5 -54t30.5 -41t43.5 -26.5t51.5 -9.5q26 0 51 9.5t44.5 27t31 41.5t11.5 53zM465 569h-130l-159 154h193z" />
    <glyph glyph-name="oacute" unicode="&#xf3;" 
d="M588 244q0 -54 -21 -100t-57 -80t-85 -53.5t-105 -19.5t-104.5 19.5t-84.5 54t-56.5 80.5t-20.5 99t20.5 99t56.5 80t84.5 53.5t104.5 19.5t105 -19.5t85 -53.5t57 -80t21 -99zM458 244q0 29 -11.5 53.5t-31 42t-44.5 27t-51 9.5q-27 0 -51.5 -9.5t-43.5 -27t-30.5 -42
t-11.5 -53.5q0 -30 11.5 -54t30.5 -41t43.5 -26.5t51.5 -9.5q26 0 51 9.5t44.5 27t31 41.5t11.5 53zM465 723l-160 -154h-129l96 154h193z" />
    <glyph glyph-name="ocircumflex" unicode="&#xf4;" 
d="M588 244q0 -54 -21 -100t-57 -80t-85 -53.5t-105 -19.5t-104.5 19.5t-84.5 54t-56.5 80.5t-20.5 99t20.5 99t56.5 80t84.5 53.5t104.5 19.5t105 -19.5t85 -53.5t57 -80t21 -99zM458 244q0 29 -11.5 53.5t-31 42t-44.5 27t-51 9.5q-27 0 -51.5 -9.5t-43.5 -27t-30.5 -42
t-11.5 -53.5q0 -30 11.5 -54t30.5 -41t43.5 -26.5t51.5 -9.5q26 0 51 9.5t44.5 27t31 41.5t11.5 53zM533 569h-103l-110 72l-111 -72h-100l135 154h155z" />
    <glyph glyph-name="otilde" unicode="&#xf5;" 
d="M588 244q0 -54 -21 -100t-57 -80t-85 -53.5t-105 -19.5t-104.5 19.5t-84.5 54t-56.5 80.5t-20.5 99t20.5 99t56.5 80t84.5 53.5t104.5 19.5t105 -19.5t85 -53.5t57 -80t21 -99zM458 244q0 29 -11.5 53.5t-31 42t-44.5 27t-51 9.5q-27 0 -51.5 -9.5t-43.5 -27t-30.5 -42
t-11.5 -53.5q0 -30 11.5 -54t30.5 -41t43.5 -26.5t51.5 -9.5q26 0 51 9.5t44.5 27t31 41.5t11.5 53zM537 704q0 -63 -34.5 -100t-92.5 -37q-52 0 -111 29q-39 19 -58 19q-29 0 -38 -46h-99q0 64 35 101t92 37q52 0 112 -29q39 -19 58 -19q28 0 37 45h99z" />
    <glyph glyph-name="odieresis" unicode="&#xf6;" 
d="M588 244q0 -54 -21 -100t-57 -80t-85 -53.5t-105 -19.5t-104.5 19.5t-84.5 54t-56.5 80.5t-20.5 99t20.5 99t56.5 80t84.5 53.5t104.5 19.5t105 -19.5t85 -53.5t57 -80t21 -99zM458 244q0 29 -11.5 53.5t-31 42t-44.5 27t-51 9.5q-27 0 -51.5 -9.5t-43.5 -27t-30.5 -42
t-11.5 -53.5q0 -30 11.5 -54t30.5 -41t43.5 -26.5t51.5 -9.5q26 0 51 9.5t44.5 27t31 41.5t11.5 53zM527 643q0 -29 -25.5 -51.5t-59.5 -22.5q-35 0 -61.5 22.5t-26.5 51.5q0 31 26.5 53t61.5 22q34 0 59.5 -22t25.5 -53zM289 643q0 -29 -26.5 -51.5t-61.5 -22.5
q-33 0 -59.5 22.5t-26.5 51.5q0 31 26 53t60 22q36 0 62 -22t26 -53z" />
    <glyph glyph-name="divide" unicode="&#xf7;" horiz-adv-x="575" 
d="M215 441v126h144v-126h-144zM25 266v118h524v-118h-524zM215 83v126h144v-126h-144z" />
    <glyph glyph-name="oslash" unicode="&#xf8;" 
d="M588 244q0 -54 -21 -100t-57 -80t-85 -53.5t-105 -19.5t-104.5 19.5t-84.5 54t-56.5 80.5t-20.5 99t20.5 99t56.5 80t84.5 53.5t104.5 19.5t105 -19.5t85 -53.5t57 -80t21 -99zM458 244q0 29 -11.5 53.5t-31 42t-44.5 27t-51 9.5q-27 0 -51.5 -9.5t-43.5 -27t-30.5 -42
t-11.5 -53.5q0 -30 11.5 -54t30.5 -41t43.5 -26.5t51.5 -9.5q26 0 51 9.5t44.5 27t31 41.5t11.5 53zM75 -11q-8 -7 -16 -6t-13 6.5t-6 14t7 15.5l524 489q7 7 15.5 6t13.5 -6.5t5.5 -14t-6.5 -15.5l-524 -489v0z" />
    <glyph glyph-name="ugrave" unicode="&#xf9;" horiz-adv-x="658" 
d="M449 0v26q-12 -11 -29 -17.5t-37.5 -10.5t-43 -5.5t-43.5 -1.5q-48 0 -87.5 10.5t-68 33t-44.5 56.5t-16 81v317h127v-270q0 -37 10 -60t26.5 -35.5t38.5 -16.5t47 -4q22 0 43.5 3.5t38.5 15.5t27.5 35.5t10.5 63.5v268h129v-489h-129zM473 569h-130l-159 154h193z" />
    <glyph glyph-name="uacute" unicode="&#xfa;" horiz-adv-x="658" 
d="M449 0v26q-12 -11 -29 -17.5t-37.5 -10.5t-43 -5.5t-43.5 -1.5q-48 0 -87.5 10.5t-68 33t-44.5 56.5t-16 81v317h127v-270q0 -37 10 -60t26.5 -35.5t38.5 -16.5t47 -4q22 0 43.5 3.5t38.5 15.5t27.5 35.5t10.5 63.5v268h129v-489h-129zM473 723l-160 -154h-129l96 154
h193z" />
    <glyph glyph-name="ucircumflex" unicode="&#xfb;" horiz-adv-x="658" 
d="M449 0v26q-12 -11 -29 -17.5t-37.5 -10.5t-43 -5.5t-43.5 -1.5q-48 0 -87.5 10.5t-68 33t-44.5 56.5t-16 81v317h127v-270q0 -37 10 -60t26.5 -35.5t38.5 -16.5t47 -4q22 0 43.5 3.5t38.5 15.5t27.5 35.5t10.5 63.5v268h129v-489h-129zM541 569h-103l-110 72l-111 -72
h-100l135 154h155z" />
    <glyph glyph-name="udieresis" unicode="&#xfc;" horiz-adv-x="658" 
d="M449 0v26q-12 -11 -29 -17.5t-37.5 -10.5t-43 -5.5t-43.5 -1.5q-48 0 -87.5 10.5t-68 33t-44.5 56.5t-16 81v317h127v-270q0 -37 10 -60t26.5 -35.5t38.5 -16.5t47 -4q22 0 43.5 3.5t38.5 15.5t27.5 35.5t10.5 63.5v268h129v-489h-129zM535 643q0 -29 -25.5 -51.5
t-59.5 -22.5q-35 0 -61.5 22.5t-26.5 51.5q0 31 26.5 53t61.5 22q34 0 59.5 -22t25.5 -53zM297 643q0 -29 -26.5 -51.5t-61.5 -22.5q-33 0 -59.5 22.5t-26.5 51.5q0 31 26 53t60 22q36 0 62 -22t26 -53z" />
    <glyph glyph-name="yacute" unicode="&#xfd;" horiz-adv-x="644" 
d="M327 -186h-148l84 186l-249 489h146l174 -336l153 336h143zM466 723l-160 -154h-129l96 154h193z" />
    <glyph glyph-name="thorn" unicode="&#xfe;" horiz-adv-x="640" 
d="M71 659h144v-237q42 37 77.5 51.5t81.5 14.5q95 0 161 -65t66 -182q0 -119 -66.5 -185.5t-161.5 -66.5q-45 0 -81.5 16t-76.5 54v-241h-144v841zM214 249q0 -74 26 -110q38 -50 100 -50q47 0 80.5 35.5t33.5 112.5q0 82 -33.5 118t-86.5 36q-52 0 -86 -35t-34 -107z" />
    <glyph glyph-name="ydieresis" unicode="&#xff;" horiz-adv-x="644" 
d="M327 -186h-148l84 186l-249 489h146l174 -336l153 336h143zM528 643q0 -29 -25.5 -51.5t-59.5 -22.5q-35 0 -61.5 22.5t-26.5 51.5q0 31 26.5 53t61.5 22q34 0 59.5 -22t25.5 -53zM290 643q0 -29 -26.5 -51.5t-61.5 -22.5q-33 0 -59.5 22.5t-26.5 51.5q0 31 26 53t60 22
q36 0 62 -22t26 -53z" />
    <glyph glyph-name="OE" unicode="&#x152;" horiz-adv-x="1166" 
d="M1101 0h-521v60q-60 -71 -186 -71q-155 0 -247 97q-89 94 -89 249t90.5 250.5t245.5 95.5q123 0 186 -71v60h505v-131h-372v-116h211v-130h-211v-162h388v-131zM571 335q0 96 -41 151q-46 61 -136 61q-89 0 -135 -61q-41 -55 -41 -151t41 -151q46 -61 135 -61
q90 0 136 61q41 55 41 151z" />
    <glyph glyph-name="oe" unicode="&#x153;" horiz-adv-x="951" 
d="M903 251q0 -23 -2 -42h-347q4 -48 40 -73q33 -22 79 -22q64 0 100 35l107 -78q-33 -38 -90 -60t-117 -22q-123 0 -190 72q-56 -72 -177 -72q-114 0 -187.5 73.5t-73.5 188.5t73.5 188.5t187.5 73.5q120 0 178 -74q69 74 175 74q113 0 180 -78q64 -72 64 -184zM755 308
q-3 38 -28 62q-29 28 -76 28q-40 0 -65 -25.5t-30 -64.5h199zM415 251q0 60 -27.5 97.5t-81.5 37.5q-52 0 -79.5 -37t-27.5 -98t27 -96q28 -38 80 -38q53 0 82 41q27 36 27 93z" />
    <glyph glyph-name="Scaron" unicode="&#x160;" horiz-adv-x="759" 
d="M694 190q0 -96 -77 -149t-217 -53q-51 0 -95.5 5.5t-85 17.5t-78 31.5t-75.5 46.5l73 104q30 -20 59 -34.5t59.5 -23.5t64 -13t73.5 -4q85 0 129.5 19t44.5 58q0 21 -17.5 40.5t-46.5 30.5q-24 8 -59 16.5t-100 20.5q-38 8 -67 15.5t-51 16.5t-38.5 19.5t-29.5 23.5
q-52 53 -52 118q0 106 113 153q35 16 77.5 24.5t84.5 8.5q71 0 136 -19.5t132 -60.5l-68 -106q-51 32 -99 44t-110 12q-71 0 -105 -12.5t-34 -41.5q0 -22 19.5 -35.5t46.5 -21.5t55 -11.5t44 -6.5q58 -11 110.5 -26.5t84.5 -32.5q46 -25 72.5 -72t26.5 -102zM591 904
l-134 -154h-155l-135 154h102l111 -72l111 72h100z" />
    <glyph glyph-name="scaron" unicode="&#x161;" horiz-adv-x="585" 
d="M538 136q0 -69 -63 -107t-176 -38q-77 0 -137 10.5t-115 33.5l54 106q36 -10 70 -18q29 -7 62 -12t59 -5q54 0 88 9t34 26q0 10 -6 17t-19.5 12.5t-36 11t-56.5 13.5q-67 14 -107.5 28.5t-63.5 30.5q-30 20 -47 48t-17 60q0 64 61 100t167 36q59 0 113.5 -11.5
t114.5 -37.5l-54 -106q1 0 -13.5 5.5t-39 13t-55.5 14.5t-63 10q-47 3 -74.5 -5.5t-29.5 -25.5q0 -18 26 -27.5t89 -21.5q122 -23 178.5 -62.5t56.5 -107.5zM504 723l-134 -154h-155l-135 154h102l111 -72l111 72h100z" />
    <glyph glyph-name="Ydieresis" unicode="&#x178;" horiz-adv-x="813" 
d="M470 270v-270h-127v270l-317 400h162l219 -275l218 275h163zM612 824q0 -29 -25.5 -51.5t-59.5 -22.5q-35 0 -61.5 22.5t-26.5 51.5q0 31 26.5 53t61.5 22q34 0 59.5 -22t25.5 -53zM374 824q0 -29 -26.5 -51.5t-61.5 -22.5q-33 0 -59.5 22.5t-26.5 51.5q0 31 26 53t60 22
q36 0 62 -22t26 -53z" />
    <glyph glyph-name="florin" unicode="&#x192;" horiz-adv-x="461" 
d="M392 563q-24 10 -52 10q-57 0 -57 -40v-31h98v-121h-98v-500l-152 -66v566h-71v121h71v46q0 133 165 133q57 0 96 -15v-103z" />
    <glyph glyph-name="circumflex" unicode="&#x2c6;" horiz-adv-x="553" 
d="M488 569h-103l-110 72l-111 -72h-100l135 154h155z" />
    <glyph glyph-name="tilde" unicode="&#x2dc;" horiz-adv-x="553" 
d="M496 704q0 -63 -34.5 -100t-92.5 -37q-52 0 -111 29q-39 19 -58 19q-29 0 -38 -46h-99q0 64 35 101t92 37q52 0 112 -29q39 -19 58 -19q28 0 37 45h99z" />
    <glyph glyph-name="endash" unicode="&#x2013;" horiz-adv-x="553" 
d="M501 286h-441v123h441v-123z" />
    <glyph glyph-name="emdash" unicode="&#x2014;" horiz-adv-x="685" 
d="M625 286h-565v123h565v-123z" />
    <glyph glyph-name="quoteleft" unicode="&#x2018;" horiz-adv-x="311" 
d="M244 670l-16 -269h-180l91 269h105z" />
    <glyph glyph-name="quoteright" unicode="&#x2019;" horiz-adv-x="311" 
d="M263 670l-91 -269h-105l16 269h180z" />
    <glyph glyph-name="quotesinglbase" unicode="&#x201a;" horiz-adv-x="311" 
d="M263 162l-91 -269h-105l16 269h180z" />
    <glyph glyph-name="quotedblleft" unicode="&#x201c;" horiz-adv-x="599" 
d="M532 670l-16 -269h-180l91 269h105zM244 670l-16 -269h-180l91 269h105z" />
    <glyph glyph-name="quotedblright" unicode="&#x201d;" horiz-adv-x="599" 
d="M552 670l-91 -269h-105l15 269h181zM263 670l-91 -269h-105l16 269h180z" />
    <glyph glyph-name="quotedblbase" unicode="&#x201e;" horiz-adv-x="599" 
d="M552 162l-91 -269h-105l15 269h181zM263 162l-91 -269h-105l16 269h180z" />
    <glyph glyph-name="bullet" unicode="&#x2022;" horiz-adv-x="542" 
d="M469 350q0 -72 -57 -122t-142 -50q-83 0 -140.5 50t-57.5 122q0 73 57.5 124t140.5 51q85 0 142 -51t57 -124z" />
    <glyph glyph-name="ellipsis" unicode="&#x2026;" horiz-adv-x="902" 
d="M856 79q0 -36 -31.5 -63t-72.5 -27q-43 0 -73.5 27t-30.5 63q0 37 30.5 63.5t73.5 26.5q41 0 72.5 -26.5t31.5 -63.5zM555 79q0 -36 -31 -63t-73 -27t-73 27t-31 63q0 37 31 63.5t73 26.5t73 -26.5t31 -63.5zM255 79q0 -36 -31.5 -63t-72.5 -27q-43 0 -73.5 27t-30.5 63
q0 37 30.5 63.5t73.5 26.5q41 0 72.5 -26.5t31.5 -63.5z" />
    <glyph glyph-name="perthousand" unicode="&#x2030;" horiz-adv-x="1564" 
d="M1531 198q0 -94 -58.5 -151.5t-147.5 -57.5t-145.5 56t-56.5 151q0 96 56.5 153t147.5 57q93 0 148.5 -56.5t55.5 -151.5zM1063 198q0 -94 -58.5 -151.5t-147.5 -57.5t-145.5 56t-56.5 151q0 96 56.5 153t147.5 57q93 0 148.5 -56.5t55.5 -151.5zM856 670l-475 -670h-133
l474 670h134zM450 473q0 -94 -58 -151.5t-147 -57.5q-90 0 -146.5 56t-56.5 151q0 96 56.5 153t148.5 57q93 0 148 -56.5t55 -151.5zM1407 196q0 121 -81 121q-79 0 -79 -119q0 -120 80 -120t80 118zM939 196q0 121 -81 121q-80 0 -80 -119q0 -120 81 -120q80 0 80 118z
M326 471q0 121 -80 121q-81 0 -81 -119q0 -121 82 -121q79 0 79 119z" />
    <glyph glyph-name="guilsinglleft" unicode="&#x2039;" horiz-adv-x="416" 
d="M371 0h-158l-179 251l179 251h158l-174 -250z" />
    <glyph glyph-name="guilsinglright" unicode="&#x203a;" horiz-adv-x="416" 
d="M382 252l-180 -252h-157l174 251l-174 251h157z" />
    <glyph glyph-name="Euro" unicode="&#x20ac;" horiz-adv-x="582" 
d="M550 643l-31 -125q-43 38 -126 38q-84 0 -135 -52q-29 -30 -42 -74h281l-16 -70h-275v-27q0 -15 1 -32h260l-17 -70h-233q13 -48 40 -76q51 -53 133 -53q98 0 156 53v-137q-66 -29 -155 -29q-149 0 -245 90q-66 61 -87 152h-75l16 70h50v23q0 20 1 36h-67l16 70h61
q21 89 85 149q97 91 254 91q86 0 150 -27z" />
    <glyph glyph-name="trademark" unicode="&#x2122;" horiz-adv-x="917" 
d="M873 293h-99v187q0 6 0.5 20.5t0.5 21.5q-1 -6 -19 -37l-114 -204l-111 204q-5 9 -19 36q2 -27 2 -41v-187h-98v377h104l93 -163q14 -23 32 -62q6 18 30 62l93 163h105v-377zM343 592h-108v-299h-105v299h-109v78h322v-78z" />
    <glyph glyph-name="arrowleft" horiz-adv-x="1098" 
d="M1025 125h-300l60 -198q1 -9 1 -14q0 -13 -5 -26.5t-16 -21.5t-22 -11.5t-20 -3.5q-14 0 -26 6q-2 1 -5 3l-619 416l619 415q6 4 9 4q13 5 23 5q15 0 22 -2.5t18.5 -10.5t16.5 -22t5 -27v-9q0 -2 -1 -4l-60 -199h300v-300z" />
    <glyph glyph-name="arrowup" horiz-adv-x="997" 
d="M915 33q3 -6 5 -9q4 -11 4 -24q0 -10 -2.5 -18.5t-11 -20.5t-22 -17.5t-25.5 -5.5h-11q-1 0 -4 1l-199 61v-300h-300v300l-199 -61q-9 -1 -14 -1q-14 0 -26.5 4.5t-22.5 18.5q-7 9 -10.5 20t-3.5 19q0 14 7 28q0 2 3 5l416 619z" />
    <glyph glyph-name="arrowright" horiz-adv-x="1098" 
d="M1025 275l-619 -416q-6 -3 -9 -4q-13 -5 -23 -5q-11 0 -19 2.5t-20 11.5q-13 9 -18 22.5t-5 27.5v9q0 2 1 4l60 198h-300v300h300l-60 199q-1 9 -1 14q0 15 5 27.5t16.5 20.5t21 10.5t19.5 2.5q14 0 26 -5q2 -1 6 -4z" />
    <glyph glyph-name="arrowdown" horiz-adv-x="997" 
d="M915 367l-416 -619l-416 619q-3 6 -5 9q-5 11 -5 24q0 10 3 18.5t11.5 20.5t22.5 17.5t26 5.5h10q2 0 4 -1l199 -61v300h300v-300l199 61q9 1 15 1q13 0 25.5 -4.5t22.5 -18.5q6 -9 9.5 -20t3.5 -19q0 -14 -6 -28q-1 -2 -3 -5z" />
  </font>
</defs>
</svg>
