<?xml version="1.0" encoding="UTF-8"?>
<svg xmlns="http://www.w3.org/2000/svg" width="30" height="36" viewBox="0 0 30 36" role="img" aria-labelledby="title source">
  <title id="title">FDOT Florida&#x27;s Turnpike marker, 30 by 36 inches</title>
  <metadata id="source">FDOT FY 2026-27 Standard Plans, Index 700-102, Special Sign Details, sheets 15-16 of 21. Current plan set with 2026 errata incorporated.</metadata>
  <rect width="30" height="36" rx="1.5" fill="#005f4d"/>
  <rect x="0.375" y="0.375" width="29.25" height="35.25" rx="1.125" fill="none" stroke="#ffffff" stroke-width="0.75"/>
  <path d="M4.3975 7.982L4.3975 5.5551L5.0989 5.5551L5.0989 4.9079L4.3975 4.9079L4.3975 3.6404L5.6655 3.6404L5.6655 2.9933L3.75 2.9933L3.75 7.982Z" fill="#ffffff" fill-rule="evenodd"/>
  <path d="M8.2554 7.982L8.2554 7.3888L7.0144 7.3888L7.0144 2.9933L6.3399 2.9933L6.3399 7.982Z" fill="#ffffff" fill-rule="evenodd"/>
  <path d="M9.955 8.0899C9.4964 8.0899 9.0917 7.7663 9.0108 7.3079C8.741 6.1214 8.741 4.8809 9.0108 3.6944C9.0917 3.236 9.4964 2.9124 9.955 2.9124C10.4137 2.9124 10.8183 3.236 10.8993 3.6944C11.1691 4.8809 11.1691 6.1214 10.8993 7.3079C10.8723 7.5236 10.7374 7.7124 10.5755 7.8742C10.3867 8.009 10.1709 8.0899 9.955 8.0899L9.955 7.4157C10.1169 7.4157 10.2518 7.3079 10.2788 7.173C10.5216 6.0674 10.5216 4.9348 10.2788 3.8292C10.2518 3.6674 10.1169 3.5596 9.955 3.5596C9.7932 3.5596 9.6583 3.6674 9.6313 3.8292C9.3885 4.9348 9.3885 6.0674 9.6313 7.173C9.6583 7.227 9.6853 7.3079 9.7392 7.3618C9.8201 7.4157 9.8741 7.4157 9.955 7.4157L9.955 8.0899Z" fill="#ffffff" fill-rule="evenodd"/>
  <path d="M12.7068 5.636L12.7068 4.9888L13.0845 4.9888C13.3004 4.9888 13.4622 4.8539 13.5162 4.6382C13.5701 4.4225 13.5701 4.2067 13.5162 3.991C13.4622 3.7753 13.3004 3.6404 13.0845 3.6404L12.7068 3.6404L12.7068 7.982L12.0594 7.982L12.0594 2.9933L13.0845 2.9933C13.5971 2.9933 14.0288 3.3438 14.1637 3.8292C14.2176 4.1528 14.2176 4.4764 14.1637 4.8C14.0827 5.0427 13.9209 5.2854 13.705 5.4472L14.2176 7.982L13.5432 7.982L13.0845 5.636L12.7068 5.636Z" fill="#ffffff" fill-rule="evenodd"/>
  <path d="M15 7.982L15 2.9933L15.6475 2.9933L15.6475 7.982Z" fill="#ffffff" fill-rule="evenodd"/>
  <path d="M17.6978 7.3348L17.4011 7.3348L17.4011 7.982L17.6978 7.982C18.2374 7.982 18.696 7.6045 18.777 7.0652C18.9389 6.0135 18.9389 4.9618 18.777 3.9101C18.696 3.3708 18.2374 2.9933 17.6978 2.9933L16.7536 2.9933L16.7536 7.982L17.4011 7.982L17.4011 3.6404L17.6978 3.6404C17.9137 3.6404 18.1025 3.8022 18.1295 4.018C18.2914 4.9888 18.2914 5.9865 18.1295 6.9573C18.1025 7.173 17.9137 7.3348 17.6978 7.3348Z" fill="#ffffff" fill-rule="evenodd"/>
  <path d="M20.8004 6.0135L21.0971 6.0135L20.8004 4.6382L20.5306 6.0135L20.8004 6.0135L20.8004 6.6607L20.3957 6.6607L20.1259 7.982L19.4514 7.982L20.4766 2.9933L21.1241 2.9933L22.1493 7.982L21.5018 7.982L21.232 6.6607L20.8004 6.6607L20.8004 6.0135Z" fill="#ffffff" fill-rule="evenodd"/>
  <path d="M22.8777 4.9888L23.3094 4.9888L23.4712 2.9933L22.7158 2.9933Z" fill="#ffffff" fill-rule="evenodd"/>
  <path d="M26.223 7.0382C26.223 6.2292 25.8993 5.4742 25.3327 4.9348C25.036 4.6652 24.9011 4.2876 24.9011 3.9101C24.9281 3.7213 25.0899 3.5596 25.2788 3.5596C25.4676 3.5865 25.6025 3.7213 25.6025 3.9101L25.6025 4.0989L26.25 4.0989L26.25 3.9101C26.25 3.3708 25.8183 2.9393 25.2788 2.9124C24.7392 2.9124 24.2806 3.3169 24.2536 3.8831C24.2266 4.4494 24.4424 5.0157 24.8741 5.4202C25.3058 5.8247 25.5486 6.418 25.5486 7.0382C25.5486 7.2539 25.3867 7.4157 25.1709 7.4157C24.9281 7.4157 24.7662 7.2539 24.7662 7.0382L24.7662 6.7416L24.1187 6.7416L24.1187 7.0382C24.1187 7.2809 24.1996 7.5506 24.4155 7.7663C24.6313 7.982 24.9011 8.0899 25.1709 8.0899C25.4406 8.0899 25.7104 7.9551 25.8993 7.7663C26.0881 7.5775 26.223 7.3079 26.223 7.0382Z" fill="#ffffff" fill-rule="evenodd"/>
  <path d="M6.1241 11.1101L5.5036 11.1101L5.5036 15.4786L4.8561 15.4786L4.8561 11.1101L4.2356 11.1101L4.2356 10.4899L6.1241 10.4899Z" fill="#ffffff" fill-rule="evenodd"/>
  <path d="M8.9838 14.5079L8.9838 10.4899L8.3363 10.4899L8.3363 14.5079C8.3363 14.6157 8.2824 14.7236 8.2014 14.8045C8.1205 14.8854 8.0126 14.9393 7.9047 14.9393C7.7968 14.9393 7.6888 14.8854 7.6079 14.8045C7.527 14.7236 7.473 14.6157 7.473 14.5079L7.473 10.4899L6.8255 10.4899L6.8255 14.5079C6.8255 14.7775 6.9335 15.0472 7.1493 15.2629C7.3381 15.4517 7.6079 15.5865 7.9047 15.5865C8.1745 15.5865 8.4442 15.4787 8.6601 15.2629C8.8759 15.0472 8.9838 14.7506 8.9838 14.5079Z" fill="#ffffff" fill-rule="evenodd"/>
  <path d="M10.7374 13.1326L10.7374 12.4854L11.1151 12.4854C11.304 12.4854 11.4928 12.3506 11.5468 12.1348C11.6007 11.9191 11.6007 11.7034 11.5468 11.4876C11.4928 11.2719 11.304 11.1371 11.1151 11.1371L10.7374 11.1371L10.7374 15.4786L10.0899 15.4786L10.0899 10.4899L11.1151 10.4899C11.6277 10.4899 12.0594 10.8404 12.1673 11.3528C12.2482 11.6494 12.2482 11.973 12.1673 12.2966C12.1133 12.5663 11.9514 12.782 11.7356 12.9438L12.2212 15.4786L11.5737 15.4786L11.1151 13.1326L10.7374 13.1326Z" fill="#ffffff" fill-rule="evenodd"/>
  <path d="M14.6223 15.4786L15.1888 15.4786L15.1888 10.4899L14.5414 10.4899L14.5414 13.0517L13.705 10.4899L13.0306 10.4899L13.0306 15.4786L13.6781 15.4786L13.6781 12.5124L14.6223 15.4786Z" fill="#ffffff" fill-rule="evenodd"/>
  <path d="M16.9424 13.2944L17.2932 13.2944C17.536 13.2944 17.7788 13.2135 17.9946 13.0517C18.1835 12.8899 18.3183 12.6742 18.3723 12.4315C18.4532 12.0809 18.4532 11.7034 18.3723 11.3528C18.2644 10.8405 17.8058 10.4899 17.2932 10.4899L16.268 10.4899L16.268 15.4787L16.9424 15.4787L16.9424 11.1371L17.2932 11.1371C17.509 11.1371 17.6978 11.2719 17.7248 11.4876C17.8058 11.7573 17.8058 12.027 17.7248 12.2966C17.6978 12.4854 17.509 12.6472 17.2932 12.6472L16.9424 12.6472L16.9424 13.2944Z" fill="#ffffff" fill-rule="evenodd"/>
  <path d="M19.1277 15.4786L19.1277 10.4899L19.7752 10.4899L19.7752 15.4786Z" fill="#ffffff" fill-rule="evenodd"/>
  <path d="M21.5288 15.4786L21.5288 13.618L21.7716 13.1326L22.4191 15.4786L23.0935 15.4786L22.2032 12.2157L23.0126 10.4899L22.2842 10.4899L21.5288 12.0809L21.5288 10.4899L20.8813 10.4899L20.8813 15.4786Z" fill="#ffffff" fill-rule="evenodd"/>
  <path d="M25.7374 10.4899L25.7374 11.1371L24.5234 11.1371L24.5234 12.4045L25.3058 12.4045L25.3058 13.0517L24.5234 13.0517L24.5234 14.8315L25.7914 14.8315L25.7914 15.4786L23.8759 15.4786L23.8759 10.4899Z" fill="#ffffff" fill-rule="evenodd"/>
  <path d="M20.6115 21.5191L20.6115 21.4921C20.5576 21.3843 20.5036 21.1685 20.4496 20.9528L20.4227 20.818L20.2878 20.1708L20.2338 19.9281L20.2608 19.8472C20.2608 19.8202 20.2608 19.8202 20.2338 19.7933C20.2338 19.7663 20.2338 19.7663 20.2338 19.7393L20.2068 19.6854L20.2338 19.6315L20.2068 19.6045L20.1799 19.6045L20.1799 19.5775L20.1259 19.5506L20.1799 19.4966L20.1529 19.4427L20.1529 19.3618L20.1529 19.2539L20.1799 19.0382L20.1259 19.0382L20.0719 19.0382L20.0719 19.0112L20.045 19.0112L20.018 19.0112L19.991 19.0112L19.964 19.0112L19.964 19.0382L19.937 19.0382L19.9101 19.0382L19.8831 19.0382L19.8831 19.0112L19.8561 19.0112L19.8291 19.0112L19.8022 19.0112L19.8022 18.9843L19.8022 19.0112L19.7752 19.0382L19.7752 19.0112L19.7482 19.0112L19.7482 18.9843L19.7212 18.9843L19.6942 18.9843L19.6942 18.9573L19.6673 18.9573L19.6673 18.9303L19.6403 18.9303L19.6133 18.9573L19.6403 18.9573L19.6133 18.9573L19.5863 18.9573L19.5594 18.9573L19.5324 18.9573L19.5054 18.9303L19.5054 18.9034L19.4784 18.9034L19.4514 18.8764L19.4245 18.8764L19.4245 18.9034L19.3975 18.9034L19.3975 18.8764L19.3975 18.8494L19.3705 18.8494L19.3435 18.8225L19.3435 18.8494L19.3165 18.8494L19.2896 18.8494L19.2896 18.8225L19.2626 18.8225L19.2086 18.8225L19.1817 18.8225L19.1817 18.7955L19.1817 18.7685L19.1547 18.7685L19.1547 18.7416L19.1277 18.7416L19.1277 18.7685L19.1007 18.7685L19.0737 18.7416L19.0468 18.7416L19.0198 18.7685L19.0198 18.7955L19.0198 18.8225L18.9928 18.8225L18.9928 18.8494L18.9658 18.8494L18.9388 18.8494L18.9119 18.8225L18.8849 18.8225L18.8849 18.8494L18.8849 18.8764L18.9119 18.8764L18.9119 18.9034L18.8849 18.9034L18.8849 18.9303L18.8579 18.9303L18.8579 18.9034L18.8579 18.9303L18.8579 18.9573L18.8309 18.9843L18.8579 18.9843L18.8579 19.0112L18.8579 19.0382L18.8309 19.0382L18.8309 19.0652L18.8579 19.0652L18.8309 19.0652L18.8309 19.0921L18.8309 19.1191L18.8309 19.1461L18.8579 19.173L18.8579 19.2L18.8579 19.227L18.8579 19.2539L18.8849 19.2539L18.8849 19.2809L18.9119 19.2809L18.9119 19.3348L18.9119 19.3888L18.9119 19.4157L18.9119 19.4427L18.8849 19.4427L18.9119 19.4697L18.9119 19.4966L18.9119 19.5236L18.9119 19.5506L18.9119 19.5775L18.9119 19.6045L18.8849 19.6045L18.8849 19.6315L18.8849 19.6584L18.8579 19.6854L18.8579 19.7393L18.8579 19.7663L18.8579 19.8202L18.8579 19.8472L18.8309 19.8742L18.804 19.8742L18.723 19.8742L18.723 19.8472L18.696 19.8472L18.6691 19.8742L18.6691 19.8472L18.6421 19.8742L18.6151 19.8742L18.5881 19.8742L18.5611 19.8742L18.5611 19.8472L18.5342 19.8472L18.5342 19.8202L18.5072 19.7933L18.4802 19.7663L18.4802 19.7393L18.4802 19.7124L18.4802 19.6584L18.4802 19.6315L18.4802 19.6045L18.4802 19.5775L18.5072 19.5775L18.4802 19.5506L18.4802 19.5236L18.4532 19.5236L18.4263 19.4966L18.4263 19.4697L18.4263 19.4427L18.4263 19.4157L18.4263 19.3888L18.4263 19.3618L18.3453 19.3618L17.8867 19.3348L17.536 19.3079L17.1583 19.2809L16.6996 19.2539L16.3489 19.227L15.9982 19.227L15.4586 19.2L15.4047 19.2L15.1079 19.173L15.027 19.173L14.6223 19.1461L14.3795 19.1191L13.9478 19.1191L13.6241 19.0921L13.2734 19.0652L13.0036 19.0652L12.8147 19.0382L12.7878 19.0652L12.7608 19.0112L12.7338 18.9843L12.7338 18.9573L12.7068 18.9573L12.6799 18.9573L12.6799 18.9303L12.6799 18.9034L12.6799 18.8764L12.6529 18.8494L12.6529 18.8225L12.6259 18.7685L12.6529 18.7416L12.6529 18.7146L12.6259 18.6876L12.6529 18.6607L12.6259 18.6337L12.5989 18.5798L12.5989 18.5528L12.5719 18.5258L12.545 18.4989L12.545 18.4719L12.545 18.4449L12.545 18.418L12.518 18.418L12.491 18.418L12.491 18.391L12.491 18.3371L12.1133 18.3371L11.8165 18.3371L11.5198 18.3371L11.277 18.3371L10.9802 18.3371L10.7374 18.3371L10.5755 18.3371L10.2788 18.3371L10.1709 18.3101L9.7932 18.3101L9.4694 18.3101L9.2266 18.3101L9.0647 18.3101L8.795 18.3101L8.5522 18.2831L8.1745 18.2831L7.9586 18.2831L7.7428 18.2831L7.5809 18.2562L7.3921 18.2562L7.2032 18.2562L6.9335 18.2562L6.9604 18.2831L6.9604 18.3101L6.9604 18.3371L6.9604 18.364L6.9335 18.418L6.9065 18.4449L6.8795 18.5258L6.8525 18.5528L6.8525 18.5798L6.8795 18.6067L6.8795 18.6337L6.9874 18.7146L6.9874 18.7416L7.0414 18.7685L7.0414 18.7955L7.0414 18.8225L7.0683 18.8494L7.0683 18.8764L7.0953 18.9034L7.1223 18.9034L7.1223 18.9303L7.1493 18.9573L7.1763 18.9573L7.2032 18.9843L7.2572 19.0112L7.2842 19.0382L7.3111 19.0382L7.3381 19.0652L7.3381 19.0921L7.3651 19.1191L7.3651 19.173L7.3111 19.3079L7.3111 19.3348L7.2842 19.3618L7.2572 19.3888L7.2302 19.4157L7.2302 19.4427L7.2572 19.4966L7.2572 19.5236L7.2572 19.5506L7.2842 19.5775L7.3381 19.6045L7.3651 19.6315L7.3921 19.6315L7.3921 19.6584L7.3111 19.7124L7.2842 19.7124L7.2572 19.7124L7.2572 19.7393L7.2572 19.7663L7.2572 19.7933L7.2032 19.8202L7.2302 19.8472L7.2032 19.8742L7.2032 19.9011L7.1763 19.9011L7.1223 19.9011L7.0953 19.9011L7.0953 19.9281L7.0953 19.9551L7.1223 19.9551L7.1493 19.9551L7.2032 19.9551L7.1763 19.982L7.1493 19.982L7.1223 20.009L7.0683 20.009L7.0683 20.036L7.7428 19.9281L8.6331 19.7933L8.687 19.7933L8.714 19.7663L8.9568 19.7933L9.0378 19.7933L9.6313 19.8472L10.3327 20.1169L10.7104 20.3326L11.0342 20.5214L11.1421 20.6292L11.1691 20.6562L11.304 20.791L11.4388 20.9258L11.4928 20.9258L11.6007 20.9528L11.6547 21.0067L11.7086 21.0876L11.7356 21.1685L11.7626 21.1955L11.7896 21.1955L11.7896 21.2764L11.8165 21.2764L11.8165 21.3034L11.8165 21.4112L11.7896 21.6L11.8435 21.6L11.9514 21.6L11.9784 21.6L11.9245 21.6L12.2482 21.4921L12.3291 21.4921L12.4101 21.5191L12.491 21.5191L12.518 21.4921L12.491 21.4652L12.5989 21.4382L12.6529 21.3843L12.7338 21.3303L12.7338 21.3034L12.7878 21.3034L12.7878 21.3303L12.7608 21.3303L12.7068 21.4652L12.7068 21.4921L12.7338 21.4921L12.7338 21.4652L12.8417 21.4112L12.8687 21.4112L12.8957 21.3843L12.9227 21.3843L13.0036 21.3303L13.0576 21.3034L13.1385 21.2494L13.1655 21.2225L13.2194 21.2225L13.2194 21.1955L13.2464 21.1955L13.3543 21.1146L13.3813 21.0876L13.4892 21.0337L13.5162 21.0337L13.5432 21.0067L13.5701 21.0337L13.6781 20.9798L13.705 20.9798L13.8399 21.0337L13.8669 21.0607L13.8399 21.0607L13.705 21.0337L13.732 21.0337L13.8399 21.0876L13.8939 21.0607L13.9209 21.0337L13.9209 20.9528L13.9209 20.9258L13.8939 20.9528L13.9209 20.8719L13.8939 20.8719L13.8669 20.8449L13.8669 20.818L13.8669 20.791L13.8399 20.791L13.8399 20.818L13.8399 20.8449L13.8129 20.791L13.8129 20.7101L13.8399 20.7371L13.8399 20.764L13.8669 20.764L13.8669 20.7371L13.8669 20.6562L13.9478 20.6292L13.9748 20.6292L14.0018 20.6562L14.0288 20.6562L14.0558 20.6562L14.0558 20.5483L14.1097 20.5483L14.1097 20.5753L14.1906 20.5753L14.1906 20.6023L14.2176 20.5753L14.1906 20.5483L14.2176 20.4944L14.2176 20.5214L14.2446 20.5753L14.2716 20.5753L14.2716 20.6023L14.2446 20.6023L14.2716 20.6292L14.3795 20.5753L14.5953 20.5483L14.6223 20.5483L14.6493 20.6023L14.8921 20.764L15.3777 21.0607L15.4856 21.1955L15.5396 21.2494L15.5126 21.2764L15.5396 21.3843L15.5665 21.3843L15.6475 21.4921L15.7284 21.5191L15.8094 21.6L15.9442 21.6L15.8903 21.627L15.9173 21.7888L15.9442 22.0045L16.1871 22.1663L16.1601 22.1933L16.295 22.1933L16.4568 22.4899L16.4299 22.5169L16.6187 22.6247L16.6727 22.6787L16.6457 22.7326L16.6996 22.8405L16.8076 22.8405L17.1853 22.8944L17.2392 22.8674L17.2122 23.0292L17.2122 23.0832L17.2932 23.0832L17.2932 23.1101L17.3471 23.1371L17.3471 23.2449L17.3201 23.2719L17.4011 23.2719L17.3741 23.3258L17.509 23.5146L17.5629 23.5955L17.536 23.5955L17.482 23.6225L17.455 23.5955L17.4011 23.6494L17.455 23.7843L17.482 23.7573L17.509 23.7843L17.455 23.8382L17.509 23.9191L17.482 23.973L17.5899 24L17.536 24.1079L17.5629 24.2157L17.5629 24.3506L17.509 24.5933L17.509 24.6742L17.4011 24.9438L17.3741 25.0787L17.3471 25.1596L17.3201 25.1596L17.3201 25.1865L17.3471 25.1865L17.2662 25.2674L17.2392 25.2944L17.3201 25.3483L17.2662 25.3214L17.2392 25.3214L17.2932 25.4831L17.2932 25.5101L17.2662 25.5371L17.2932 25.564L17.2932 25.5371L17.2932 25.564L17.2932 25.591L17.2932 25.618L17.2662 25.618L17.2662 25.6719L17.2662 25.7258L17.2662 25.7528L17.2662 25.7798L17.2392 25.7798L17.2392 25.8067L17.2392 25.8607L17.2122 25.9146L17.1853 25.9416L17.1853 25.9685L17.1853 25.9955L17.1583 26.0494L17.1313 26.0494L17.1583 26.1573L17.2122 26.2112L17.2662 26.2921L17.2932 26.2921L17.2932 26.2652L17.2932 26.2382L17.3201 26.2382L17.3471 26.2382L17.3471 26.2652L17.3741 26.3191L17.3741 26.3461L17.3741 26.373L17.4011 26.373L17.4281 26.4L17.482 26.4L17.482 26.427L17.455 26.4539L17.482 26.4809L17.509 26.4809L17.509 26.5079L17.509 26.4809L17.536 26.4809L17.5629 26.5079L17.6169 26.4809L17.6978 26.2921L17.9676 26.1573L17.9676 26.1303L17.9406 26.1303L17.9137 26.1034L17.9137 26.0764L17.9406 26.0494L17.9406 26.0225L17.9137 26.0225L17.9137 25.9685L17.9676 25.9146L17.9946 25.9146L17.9946 25.8876L17.9946 25.9146L18.0216 25.9416L18.0216 25.9685L18.0486 25.9955L18.1025 25.9955L18.1025 26.0225L18.1295 26.0494L18.1025 26.0494L18.1025 26.0764L18.1295 26.1843L18.1565 26.1843L18.1295 26.2112L18.1025 26.2652L18.0755 26.2921L17.9676 26.373L17.9406 26.4L17.9406 26.4539L17.9676 26.4809L17.9137 26.4809L17.8327 26.5348L17.8597 26.5618L17.9137 26.5348L17.9137 26.5618L17.8597 26.5888L17.8327 26.5618L17.7518 26.6697L17.7248 26.7236L17.7518 26.7236L17.7248 26.7506L17.6978 26.7775L17.6709 26.7775L17.6439 26.7775L17.6169 26.7775L17.6439 26.7775L17.6439 26.8045L17.6709 26.8045L17.6978 26.8315L17.6709 26.8584L17.6439 26.8315L17.6169 26.8584L17.5899 26.9124L17.5899 26.9393L17.509 26.9393L17.482 26.9663L17.509 26.9933L17.482 26.9933L17.482 26.9663L17.482 26.9933L17.482 27.0202L17.509 27.0202L17.536 27.0202L17.5629 27.0202L17.5899 27.0472L17.509 27.0742L17.482 27.0472L17.455 27.0742L17.482 27.0742L17.5629 27.1281L17.536 27.1281L17.509 27.1281L17.536 27.1281L17.5629 27.1281L17.6169 27.182L17.6709 27.182L17.6978 27.209L17.7248 27.2629L17.7788 27.3708L17.7788 27.3978L17.7788 27.4247L17.7788 27.3978L17.8058 27.4247L17.7788 27.4517L17.8058 27.4517L17.8058 27.5596L17.7788 27.5596L17.7788 27.5056L17.7788 27.4787L17.7518 27.4787L17.7518 27.5056L17.7248 27.5596L17.7788 27.5865L17.8327 27.6674L17.8597 27.7214L17.8867 27.7483L17.8867 27.7753L17.9406 27.8832L17.9406 27.964L18.0216 28.1258L18.1025 28.2607L18.1565 28.3685L18.3183 28.6382L18.3453 28.6921L18.3723 28.6921L18.3453 28.6652L18.3453 28.6382L18.3183 28.6382L18.3183 28.6112L18.3453 28.6382L18.3723 28.6382L18.3723 28.6652L18.3993 28.6652L18.4263 28.6921L18.4532 28.6382L18.4263 28.6921L18.4532 28.6921L18.4263 28.6921L18.4532 28.7191L18.4802 28.6921L18.4802 28.7191L18.5072 28.7191L18.5072 28.7461L18.5611 28.7191L18.5611 28.7461L18.5881 28.7461L18.5881 28.6921L18.6151 28.6652L18.6151 28.6921L18.6151 28.7191L18.5881 28.7461L18.6151 28.773L18.6421 28.773L18.6421 28.7461L18.6421 28.7191L18.6421 28.5843L18.5881 28.4225L18.5881 28.3955L18.5072 28.3416L18.4532 28.3146L18.4532 28.2876L18.4532 28.2607L18.4263 28.2337L18.3993 28.2067L18.4263 28.2067L18.4532 28.2337L18.4532 28.2607L18.4802 28.2607L18.4802 28.3146L18.5072 28.3416L18.5611 28.3146L18.5611 28.2876L18.5881 28.3146L18.5881 28.3416L18.5881 28.3685L18.6151 28.3685L18.5881 28.3685L18.6421 28.4225L18.696 28.4225L18.723 28.3685L18.723 28.3416L18.75 28.3416L18.804 28.3416L18.8309 28.3416L18.8579 28.3416L18.8849 28.3146L18.9119 28.3146L18.9388 28.3146L18.9658 28.3146L18.9658 28.2876L18.9928 28.2607L19.0198 28.2337L18.9928 28.2876L18.9928 28.3146L19.0198 28.2876L18.9928 28.3146L18.9658 28.3416L18.9119 28.3416L18.9119 28.3685L18.8849 28.3685L18.8579 28.3685L18.8579 28.3955L18.8579 28.4225L18.804 28.4225L18.777 28.4225L18.777 28.4494L18.777 28.5034L18.804 28.5303L18.8309 28.5303L18.8579 28.5843L18.8579 28.6112L18.8579 28.6382L18.8849 28.6921L18.8579 28.7461L18.8309 28.7461L18.8579 28.8L18.8309 28.8809L18.804 28.9348L18.804 28.9618L18.804 28.9888L18.777 29.0157L18.804 29.0697L18.8579 29.1775L18.8849 29.2315L18.8579 29.2854L18.8309 29.3124L18.8849 29.3933L18.9119 29.3933L18.9658 29.3933L19.0198 29.3663L19.0468 29.3663L19.1007 29.3663L19.1007 29.3393L19.1277 29.2045L19.1547 29.2045L19.1547 29.1506L19.2086 29.0966L19.2086 29.0697L19.2356 29.0697L19.2356 29.0966L19.2356 29.0697L19.2626 29.0697L19.3165 28.9888L19.3705 28.9888L19.3975 28.9618L19.4514 28.9618L19.4245 28.9888L19.3975 28.9888L19.2626 29.0966L19.2356 29.1236L19.2086 29.2584L19.1817 29.2854L19.1547 29.3124L19.1277 29.3663L19.1007 29.3933L19.0737 29.3933L19.0198 29.4472L18.9928 29.4472L18.9928 29.4202L18.9388 29.4202L18.9388 29.4472L18.9658 29.4472L18.9928 29.4742L18.9658 29.5011L18.9658 29.4742L18.9388 29.4742L18.9388 29.5011L18.9388 29.5281L18.9928 29.5281L19.0468 29.5281L19.0737 29.5551L19.1007 29.5551L19.1007 29.5281L19.1277 29.5551L19.1277 29.582L19.1547 29.609L19.1547 29.582L19.1547 29.5551L19.1817 29.5551L19.1817 29.609L19.2086 29.609L19.2356 29.609L19.2626 29.5551L19.2356 29.5551L19.2626 29.5551L19.2896 29.609L19.2896 29.636L19.3165 29.6629L19.2896 29.6899L19.3165 29.7169L19.3435 29.8517L19.3165 29.8517L19.2896 29.8247L19.2896 29.7978L19.2626 29.7978L19.2896 29.8247L19.3165 29.8787L19.3705 30.2562L19.3975 30.4719L19.4784 30.6337L19.4784 30.6607L19.5054 30.7146L19.5324 30.7146L19.5324 30.7955L19.5324 30.8225L19.5594 30.8494L19.5594 30.8764L19.5594 30.9303L19.6403 30.9303L19.6403 30.8764L19.6673 30.8494L19.6942 30.8764L19.6673 30.9034L19.6942 30.9034L19.6942 30.9303L19.6673 30.9303L19.6403 30.9303L19.6673 30.9573L19.7212 30.9303L19.7752 30.9303L19.7752 30.9573L19.8022 30.9303L19.8291 30.9303L19.8291 30.9034L19.8291 30.9303L19.8291 30.9573L19.8561 30.9573L19.8831 30.9573L19.9101 30.9843L19.937 30.9843L19.964 30.9573L19.964 30.9303L19.937 30.9303L19.937 30.9034L19.964 30.9034L19.991 30.9034L19.991 30.9303L19.991 30.9573L20.018 30.9573L20.045 30.9303L20.0719 30.9573L20.0719 30.9843L20.1259 30.9573L20.1529 31.0112L20.3147 31.0652L20.4227 31.1461L20.4496 31.2L20.4766 31.227L20.4496 31.2539L20.3957 31.2539L20.4227 31.2809L20.4496 31.3079L20.4496 31.3888L20.5306 31.4427L20.5576 31.4157L20.5845 31.4427L20.5576 31.4966L20.5845 31.5236L20.5845 31.6045L20.5845 31.5775L20.6924 31.7393L20.6655 31.7663L20.6924 31.7933L20.7194 31.8202L20.8004 31.7933L20.7194 31.9281L20.7734 32.009L20.8273 31.982L20.8273 32.009L20.8273 32.0629L20.8543 32.1708L20.8543 32.2247L20.9083 32.2247L20.9352 32.3056L20.9083 32.3326L20.8813 32.3326L20.8543 32.3596L20.8543 32.3865L20.8273 32.4674L20.8273 32.5214L20.8004 32.5753L20.8004 32.6023L20.8273 32.6562L20.8543 32.7101L20.8813 32.764L20.8813 32.791L20.9083 32.791L20.9622 32.8449L20.9892 32.8719L21.0432 32.8449L21.1241 32.8449L21.1511 32.8449L21.205 32.8449L21.259 32.8449L21.286 32.818L21.3129 32.8449L21.3399 32.818L21.3939 32.818L21.3939 32.791L21.3939 32.764L21.4209 32.764L21.4478 32.7371L21.5018 32.7371L21.5558 32.7371L21.5558 32.764L21.6097 32.7371L21.5827 32.7371L21.6097 32.7101L21.6367 32.7371L21.6097 32.764L21.6637 32.764L21.6637 32.791L21.6906 32.818L21.6637 32.818L21.6906 32.818L21.6906 32.791L21.6906 32.764L21.7176 32.791L21.7446 32.818L21.7986 32.818L21.7716 32.791L21.7446 32.791L21.7446 32.764L21.7986 32.764L21.7986 32.791L21.8525 32.791L21.8795 32.764L21.9334 32.764L21.9334 32.791L21.9065 32.818L21.9065 32.8449L21.9334 32.818L21.9604 32.791L21.9604 32.764L21.9874 32.7371L21.9334 32.7371L21.9604 32.7101L22.0414 32.6831L22.0414 32.7101L22.0414 32.7371L22.0144 32.7371L22.0414 32.7371L22.0683 32.7371L22.0953 32.6831L22.0953 32.6562L22.1763 32.6562L22.5 32.5214L22.527 32.5214L22.5 32.4944L22.527 32.4674L22.527 32.4944L22.554 32.4135L22.6079 32.3865L22.6349 32.3865L22.6888 32.3056L22.7158 32.2787L22.7158 32.2247L22.7158 32.2517L22.6619 32.2247L22.6888 32.1708L22.6619 32.1438L22.6888 32.1169L22.6619 32.1169L22.6619 32.036L22.6619 31.9281L22.6888 31.8742L22.7428 31.7933L22.7158 31.6854L22.7428 31.6584L22.7698 31.6315L22.7968 31.6045L22.8507 31.4697L22.8507 31.4157L22.9856 31.3079L23.0126 31.1191L23.0396 31.0382L23.1205 30.9573L23.1475 30.5528L23.2014 30.1753L23.2284 30.0674L23.2824 29.609L23.3363 29.2584L23.3094 28.6112L23.2824 28.4764L23.2014 28.2067L23.0665 27.9371L23.0396 27.8023L22.9856 27.6944L22.9317 27.5865L22.7158 27.0742L22.6349 26.7236L22.6079 26.6697L22.5 26.3461L22.3651 26.1034L22.1493 25.618L22.0683 25.3214L22.0144 25.0787L21.7176 23.8382L21.259 23.0562L20.9892 22.4899L20.6115 21.5191ZM20.9892 28.6382L20.9352 28.5303L20.9352 28.3146L21.3939 27.9371L21.4209 27.9371L21.4478 27.8832L21.4748 27.8832L21.4748 27.8562L21.5288 27.7483L21.6097 27.7214L21.8255 27.8562L21.8525 27.9371L21.9065 27.964L21.9065 28.018L22.0144 28.2607L22.0414 28.3416L22.0414 28.4764L21.9604 28.5843L21.9065 28.6652L21.8525 28.7191L21.8525 28.7461L21.5018 28.9079L21.3399 28.8L21.205 28.6921L21.1511 28.6921L20.9892 28.6382ZM19.7212 24.6202L19.6942 24.6202L19.5054 24.5663L19.3705 24.4045L19.1277 24.2427L18.8849 24.027L18.723 23.8921L18.6421 23.8382L18.5881 23.7573L18.5611 23.7303L18.804 23.5955L18.804 23.6225L18.8849 23.6494L19.1007 23.8112L19.2896 24.027L19.5594 24.1888L19.6673 24.3236L19.7482 24.3506L19.937 24.3236L20.045 24.4315L20.0989 24.4854L20.1529 24.5124L20.2068 24.5663L20.2338 24.5933L20.2608 24.6472L20.3147 24.7011L20.3417 24.8629L20.3957 24.9708L20.4496 25.0517L20.4766 25.1865L20.5036 25.2135L20.5845 25.4831L20.8004 25.6719L20.8813 25.7258L21.0432 25.8876L21.1241 26.0494L21.1781 26.1034L21.1781 26.2112L21.3939 26.427L21.6097 26.7775L21.6367 26.7775L21.9334 26.8045L22.0683 26.9124L22.1223 26.9933L22.3651 26.9933L22.446 27.1281L22.5809 27.3438L22.5809 27.5056L22.6619 27.7214L22.8507 27.991L22.9047 28.1258L23.0665 28.3146L23.1475 28.5303L23.1205 28.9618L23.0396 29.0966L23.0665 29.9056L23.0665 30.1213L22.9586 30.2831L22.9586 30.8494L22.6888 30.8494L22.6079 30.9303L22.554 31.0112L22.5809 31.4427L22.5809 31.6315L22.6079 31.6584L22.6079 31.7124L22.6349 31.8202L22.5 31.982L22.473 32.009L22.3651 32.1438L22.1493 31.9281L22.2572 31.8472L22.2572 31.8202L22.3112 31.7663L22.3112 31.7124L22.3112 31.6854L22.2842 31.4697L22.2842 30.9843L22.3651 30.7685L22.5809 30.5798L22.6888 30.5798L22.6619 30.2022L22.7968 30.0405L22.7698 29.9056L22.7698 29.0157L22.8507 28.8809L22.8777 28.5843L22.8237 28.4764L22.6619 28.2876L22.5809 28.0989L22.4191 27.8562L22.3112 27.5596L22.2842 27.4247L22.2302 27.2629L22.2032 27.2629L21.9874 27.2629L21.8525 27.1011L21.8255 27.0742L21.6097 27.0742L21.4478 27.0202L21.1511 26.5888L20.9352 26.3461L20.9083 26.2112L20.8004 26.0764L20.6924 25.9416L20.6385 25.9146L20.3147 25.6449L20.2608 25.3214L20.2338 25.2944L20.1799 25.1865L20.1259 25.1056L20.045 24.9169L20.045 24.809L20.018 24.782L19.991 24.7281L19.964 24.7281L19.937 24.7011L19.8831 24.6472L19.7212 24.6202Z" fill="#ffffff" fill-rule="evenodd"/>
</svg>
