<?xml version="1.0" standalone="no"?>
<!DOCTYPE svg PUBLIC "-//W3C//DTD SVG 1.1//EN" "http://www.w3.org/Graphics/SVG/1.1/DTD/svg11.dtd" >
<svg xmlns="http://www.w3.org/2000/svg" xmlns:xlink="http://www.w3.org/1999/xlink" version="1.1">
<metadata>
Created by FontForge 20170731 at Sat Sep 18 13:37:26 2010
 By Aleksey,,,
2009
</metadata>
<defs>
<font id="HighwayGothic" horiz-adv-x="475" >
  <font-face 
    font-family="Highway Gothic"
    font-weight="400"
    font-stretch="normal"
    units-per-em="1000"
    panose-1="0 0 0 0 0 0 0 0 0 0"
    ascent="800"
    descent="-200"
    x-height="489"
    cap-height="670"
    bbox="-20 -242 970 865"
    underline-thickness="0"
    underline-position="0"
    unicode-range="U+0020-2122"
  />
<missing-glyph horiz-adv-x="500" 
d="M63 0v800h375v-800h-375zM125 63h250v675h-250v-675z" />
    <glyph glyph-name=".notdef" horiz-adv-x="500" 
d="M63 0v800h375v-800h-375zM125 63h250v675h-250v-675z" />
    <glyph glyph-name=".null" horiz-adv-x="0" 
 />
    <glyph glyph-name="nonmarkingreturn" horiz-adv-x="333" 
 />
    <glyph glyph-name="space" unicode=" " horiz-adv-x="255" 
 />
    <glyph glyph-name="space" unicode="&#xa0;" horiz-adv-x="255" 
 />
    <glyph glyph-name="exclam" unicode="!" horiz-adv-x="205" 
d="M156 670v-234l-20 -263h-69l-19 263v234h108zM156 48q0 -21 -16.5 -37.5t-37.5 -16.5t-37.5 16.5t-16.5 37.5t16.5 37.5t37.5 16.5t37.5 -16.5t16.5 -37.5z" />
    <glyph glyph-name="quotedbl" unicode="&#x22;" horiz-adv-x="435" 
d="M362 670l-17 -271h-70l-17 271h104zM176 670l-16 -271h-71l-16 271h103z" />
    <glyph glyph-name="numbersign" unicode="#" horiz-adv-x="646" 
d="M606 484l-11 -85h-109l-16 -115h106l-12 -84h-106l-33 -200h-98l33 200h-118l-31 -200h-94l31 200h-108l12 84h108l19 115h-109l12 85h108l31 186h94l-31 -186h120l28 186h97l-28 -186h105zM390 399h-117l-17 -115h118z" />
    <glyph glyph-name="dollar" unicode="$" horiz-adv-x="525" 
d="M308 752v-114h-91v114h91zM308 -1v-114h-91v114h91zM351 518q-32 59 -99 60q-39 0 -65 -24t-25 -57q0 -24 23.5 -43t74.5 -27q121 -21 175.5 -81.5t54.5 -138.5q0 -86 -65 -152.5t-162 -66.5q-154 2 -229 156l101 51q47 -97 130 -97q48 -1 83 33.5t35 80.5q1 31 -27 61.5
t-99 43.5q-96 14 -147 58.5t-51 106.5q-2 74 52 136.5t143 62.5q125 -3 186 -118z" />
    <glyph glyph-name="uni0025" unicode="%" 
d="M434 98h-36q1 25 -17.5 43t-44.5 18t-44.5 -17.5t-18.5 -43.5q0 -25 18.5 -43.5t44.5 -18.5t44.5 18.5t17.5 43.5h36q0 -40 -29 -69t-69 -29t-68.5 29t-28.5 69q0 41 28 69t69 28q39 0 68.5 -28.5t29.5 -68.5zM233 573h-36q1 25 -17.5 43t-44.5 18t-44.5 -17.5
t-18.5 -43.5q0 -25 18.5 -43.5t44.5 -18.5t44.5 18.5t17.5 43.5h36q0 -40 -29 -69t-69 -29t-68.5 29t-28.5 69q0 41 28 69t69 28q39 0 68.5 -28.5t29.5 -68.5zM451 670l-383 -670h-44l384 670h43z" />
    <glyph glyph-name="ampersand" unicode="&#x26;" horiz-adv-x="605" 
d="M556 0h-123l-47 70q-69 -84 -158 -84q-79 0 -129 54.5t-50 140.5q3 141 110 221q-43 64 -43 127q0 65 40 107.5t104 42.5q97 -2 147 -103l-81 -41q-23 53 -68 55q-23 -1 -38.5 -17.5t-15.5 -41.5q0 -40 38 -92l142 -202q13 48 15 87h86q-8 -101 -43 -167zM331 150
l-118 166q-69 -66 -69 -133q0 -40 26 -69t62 -29q54 0 99 65z" />
    <glyph glyph-name="quotesingle" unicode="'" horiz-adv-x="255" 
d="M179 670l-16 -271h-71l-16 271h103z" />
    <glyph glyph-name="parenleft" unicode="(" horiz-adv-x="285" 
d="M244 -77h-87q-115 162 -115 385q0 218 115 380h87q-38 -61 -61 -106q-54 -115 -54 -277q0 -144 59 -279q16 -36 56 -103z" />
    <glyph glyph-name="parenright" unicode=")" horiz-adv-x="285" 
d="M42 -77q40 67 56 103q59 135 59 279q0 162 -54 277q-23 45 -61 106h87q115 -162 115 -380q0 -223 -115 -385h-87v0z" />
    <glyph glyph-name="asterisk" unicode="*" horiz-adv-x="455" 
d="M402 505l-112 -28l75 -89l-68 -52l-69 94l-68 -94l-68 54l73 89l-113 26l26 85l110 -38l-4 118h87l-5 -118l110 35z" />
    <glyph glyph-name="plus" unicode="+" horiz-adv-x="505" 
d="M473 275h-169v-167h-105v167h-168v108h168v167h105v-167h169v-108z" />
    <glyph glyph-name="comma" unicode="," horiz-adv-x="205" 
d="M156 47q0 -55 -26 -90t-77 -48v16q48 28 55 68h-6q-21 0 -37.5 16.5t-16.5 37.5t16.5 37.5t37.5 16.5t37.5 -16.5t16.5 -37.5z" />
    <glyph glyph-name="comma" unicode="&#x201a;" horiz-adv-x="205" 
d="M156 47q0 -55 -26 -90t-77 -48v16q48 28 55 68h-6q-21 0 -37.5 16.5t-16.5 37.5t16.5 37.5t37.5 16.5t37.5 -16.5t16.5 -37.5z" />
    <glyph glyph-name="hyphen" unicode="-" horiz-adv-x="295" 
d="M259 275h-223v108h223v-108z" />
    <glyph glyph-name="hyphen" unicode="&#xad;" horiz-adv-x="295" 
d="M259 275h-223v108h223v-108z" />
    <glyph glyph-name="period" unicode="." horiz-adv-x="205" 
d="M156 47q0 -23 -16 -38.5t-38 -15.5q-21 0 -37.5 16.5t-16.5 37.5t16.5 37.5t37.5 16.5t37.5 -16.5t16.5 -37.5z" />
    <glyph glyph-name="slash" unicode="/" horiz-adv-x="484" 
d="M484 670l-390 -670h-94l387 670h97z" />
    <glyph glyph-name="zero" unicode="0" horiz-adv-x="565" 
d="M282 -12q-118 0 -181.5 89.5t-63.5 257.5q0 164 63.5 255t181.5 91q120 0 182.5 -91t62.5 -255q0 -168 -62.5 -257.5t-182.5 -89.5zM282 575q-70 0 -102 -66.5t-33 -171.5q0 -118 31.5 -179t103.5 -60q76 2 105 63t31 176q-2 112 -33.5 173t-102.5 65z" />
    <glyph glyph-name="one" unicode="1" horiz-adv-x="315" 
d="M242 0h-107v538h-62v86q59 3 86 46h83v-670z" />
    <glyph glyph-name="two" unicode="2" horiz-adv-x="587" 
d="M522 0h-456q7 239 240 371q114 60 110 113q0 38 -32.5 63t-84.5 27q-94 -7 -127 -95l-106 31q26 72 86.5 121.5t141.5 49.5q95 0 161.5 -58t66.5 -135q-3 -127 -154 -205q-143 -83 -171 -175h325v-108z" />
    <glyph glyph-name="three" unicode="3" horiz-adv-x="555" 
d="M506 221q0 -103 -64.5 -168t-159.5 -66q-87 1 -147 42t-92 123l109 35q43 -92 128 -91q53 0 86.5 33.5t33.5 84.5q-1 88 -91 99h-31v105h31q65 0 65 66q0 39 -28 64t-68 25q-67 0 -106 -70l-100 31q18 58 74.5 102t128.5 45q85 0 145 -59.5t60 -144.5q1 -71 -46 -109
q70 -49 72 -147z" />
    <glyph glyph-name="four" unicode="4" horiz-adv-x="565" 
d="M526 167h-64v-167h-106v167h-317v97l317 406h106v-407h64v-96zM356 263v240l-190 -240h190z" />
    <glyph glyph-name="five" unicode="5" horiz-adv-x="555" 
d="M504 250q0 -100 -81.5 -181t-208.5 -81q-89 0 -164 38l61 96q47 -24 104 -24q74 -2 129.5 48t55.5 106q1 48 -32.5 81t-84.5 33q-65 1 -116 -59l-95 36l11 327h385v-106h-282l-4 -115q49 26 100 26q95 -2 158.5 -65t63.5 -160z" />
    <glyph glyph-name="six" unicode="6" horiz-adv-x="555" 
d="M506 193q0 -87 -65.5 -146t-162.5 -59t-162.5 62t-65.5 152q0 139 71 270.5t187 208.5l54 -89q-118 -91 -164 -206q37 11 80 11q93 0 160.5 -60t67.5 -144zM400 195q0 39 -36 67.5t-86 28.5q-57 1 -88 -25t-32 -71q0 -41 35 -70t85 -29q49 0 85.5 29.5t36.5 69.5z" />
    <glyph glyph-name="seven" unicode="7" horiz-adv-x="555" 
d="M504 564q-177 -266 -198 -564h-108q23 302 172 564h-320v106h454v-106z" />
    <glyph glyph-name="eight" unicode="8" horiz-adv-x="555" 
d="M506 214q0 -92 -68 -159t-160 -67t-160 67t-68 159q2 101 78 154q-49 48 -50 123q0 78 59.5 134t140.5 56t141.5 -56.5t60.5 -133.5q-4 -75 -58 -122q81 -50 84 -155zM372 493q0 34 -27.5 57t-66.5 23t-66.5 -23t-27.5 -57q0 -29 27.5 -50.5t66.5 -21.5q38 0 66 21.5
t28 50.5zM400 211q0 42 -36 72t-86 30t-85 -29.5t-35 -72.5q0 -47 35 -81t85 -34q51 0 86.5 34t35.5 81z" />
    <glyph glyph-name="nine" unicode="9" horiz-adv-x="555" 
d="M50 476q0 87 65.5 146t162.5 59t162.5 -62t65.5 -152q0 -139 -71 -270.5t-187 -208.5l-54 89q118 91 164 206q-37 -11 -80 -11q-93 0 -160.5 60t-67.5 144zM156 474q0 -39 36 -67.5t86 -28.5q57 -1 88 25t32 71q0 41 -35 70t-85 29q-49 0 -85.5 -29.5t-36.5 -69.5z" />
    <glyph glyph-name="colon" unicode=":" horiz-adv-x="205" 
d="M156 447q0 -23 -16 -38.5t-38 -15.5q-21 0 -37.5 16.5t-16.5 37.5t16.5 37.5t37.5 16.5t37.5 -16.5t16.5 -37.5zM156 47q0 -23 -16 -38.5t-38 -15.5q-21 0 -37.5 16.5t-16.5 37.5t16.5 37.5t37.5 16.5t37.5 -16.5t16.5 -37.5z" />
    <glyph glyph-name="semicolon" unicode=";" horiz-adv-x="205" 
d="M156 47q0 -55 -26 -90t-77 -48v16q48 28 55 68h-6q-21 0 -37.5 16.5t-16.5 37.5t16.5 37.5t37.5 16.5t37.5 -16.5t16.5 -37.5zM156 447q0 -23 -16 -38.5t-38 -15.5q-21 0 -37.5 16.5t-16.5 37.5t16.5 37.5t37.5 16.5t37.5 -16.5t16.5 -37.5z" />
    <glyph glyph-name="less" unicode="&#x3c;" horiz-adv-x="584" 
d="M55 313v82l474 200v-87l-376 -154l376 -156v-88z" />
    <glyph glyph-name="equal" unicode="=" horiz-adv-x="495" 
d="M472 367h-449v105h449v-105zM472 183h-449v108h449v-108z" />
    <glyph glyph-name="greater" unicode="&#x3e;" horiz-adv-x="584" 
d="M55 110v88l376 156l-376 154v87l474 -200v-82z" />
    <glyph glyph-name="question" unicode="?" horiz-adv-x="515" 
d="M308 47q0 -23 -16 -38.5t-38 -15.5q-21 0 -37.5 16.5t-16.5 37.5t16.5 37.5t37.5 16.5t37.5 -16.5t16.5 -37.5zM469 498q-6 -63 -59 -124q-91 -109 -108 -193h-99q22 131 118 233q40 40 42 79q0 40 -29.5 65.5t-68.5 24.5q-87 -4 -127 -88l-92 39q68 142 218 146
q89 -2 147 -51t58 -131z" />
    <glyph glyph-name="at" unicode="@" horiz-adv-x="705" 
d="M500 245q-2 -30 25 -30q32 0 62 52.5t30 111.5q0 103 -68 167t-177 64q-117 0 -196.5 -81.5t-79.5 -200.5q0 -118 74.5 -195t201.5 -77q107 0 191 36l19 -71q-87 -35 -207 -35q-157 0 -255.5 91t-98.5 252q0 148 100 250t244 102q140 0 229 -84t89 -214
q0 -92 -48.5 -162.5t-113.5 -70.5q-58 -1 -85 45q-42 -25 -98 -25q-66 0 -100.5 32t-34.5 82q0 52 38 87t97 35q40 0 76 -11q2 44 -59 44q-47 0 -91 -23l-35 70q67 35 126 35q145 0 145 -140v-136zM414 268v48q-41 11 -76 11q-21 0 -36 -11t-15 -27t17.5 -27.5t41.5 -11.5
q36 0 68 18z" />
    <glyph glyph-name="A" unicode="A" horiz-adv-x="605" 
d="M586 0h-112l-66 188h-209l-66 -188h-113l230 670h106zM370 296l-66 188l-68 -188h134z" />
    <glyph glyph-name="B" unicode="B" horiz-adv-x="555" 
d="M505 200q0 -81 -48.5 -140.5t-141.5 -59.5h-264v670h254q79 0 132 -48.5t53 -135.5q-1 -101 -65 -140q80 -45 80 -146zM388 478q0 37 -19.5 60t-56.5 23h-155v-163h154q34 0 55 25.5t22 54.5zM396 197q-1 37 -22 62.5t-55 26.5h-163v-180h159q37 0 59 28t22 63z" />
    <glyph glyph-name="C" unicode="C" horiz-adv-x="555" 
d="M297 95q74 1 107 70l99 -49q-61 -124 -206 -127q-118 0 -181.5 91t-63.5 255t63.5 255t181.5 91q145 -3 206 -127l-99 -49q-33 69 -107 70q-70 0 -102 -66.5t-32 -173.5t32 -173.5t102 -66.5z" />
    <glyph glyph-name="D" unicode="D" horiz-adv-x="555" 
d="M506 335q-1 -175 -72.5 -255t-175.5 -80h-209v670h209q104 0 175.5 -80t72.5 -255zM155 335v-229h103q67 2 104.5 64t38.5 165q0 110 -38 168.5t-105 60.5h-103v-229z" />
    <glyph glyph-name="E" unicode="E" horiz-adv-x="515" 
d="M466 0h-416v670h395v-106h-289v-165h195v-108h-195v-183h310v-108z" />
    <glyph glyph-name="F" unicode="F" horiz-adv-x="515" 
d="M466 564h-310v-165h195v-108h-195v-291h-106v670h416v-106z" />
    <glyph glyph-name="G" unicode="G" horiz-adv-x="565" 
d="M291 95q90 2 107 124h-103v112h224v-29q-1 -155 -61.5 -234.5t-163.5 -79.5q-121 1 -184.5 92t-63.5 255t63.5 255t181.5 91q145 -3 206 -127l-99 -49q-33 69 -107 70q-70 0 -102 -66.5t-32 -173.5t32 -173.5t102 -66.5z" />
    <glyph glyph-name="H" unicode="H" horiz-adv-x="555" 
d="M506 0h-106v291h-244v-291h-106v670h106v-271h244v271h106v-670z" />
    <glyph glyph-name="I" unicode="I" horiz-adv-x="275" 
d="M191 0h-108v670h108v-670z" />
    <glyph glyph-name="J" unicode="J" horiz-adv-x="525" 
d="M485 221q-1 -106 -60 -169.5t-154 -63.5q-163 4 -233 167l105 43q43 -99 127 -102q50 0 79 34.5t28 89.5v450h108v-449z" />
    <glyph glyph-name="K" unicode="K" horiz-adv-x="555" 
d="M512 0h-123l-169 317l-70 -87v-230h-106v670h106v-266l211 266h136l-206 -261z" />
    <glyph glyph-name="L" unicode="L" horiz-adv-x="515" 
d="M466 0h-416v670h106v-562h310v-108z" />
    <glyph glyph-name="M" unicode="M" horiz-adv-x="615" 
d="M569 0h-106v388l-155 -388l-155 388v-388h-106v670h106l155 -376l155 376h106v-670z" />
    <glyph glyph-name="N" unicode="N" horiz-adv-x="555" 
d="M506 0h-94l-256 454v-454h-106v670h106l244 -428v428h106v-670z" />
    <glyph glyph-name="O" unicode="O" horiz-adv-x="565" 
d="M282 -12q-118 0 -181.5 89.5t-63.5 257.5q0 164 63.5 255t181.5 91q120 0 182.5 -91t62.5 -255q0 -168 -62.5 -257.5t-182.5 -89.5zM282 575q-70 0 -102 -66.5t-33 -171.5q0 -118 31.5 -179t103.5 -60q76 2 105 63t31 176q-2 112 -33.5 173t-102.5 65z" />
    <glyph glyph-name="P" unicode="P" horiz-adv-x="555" 
d="M290 291h-127v-291h-106v670h221q74 0 119 -21.5t73.5 -68.5t28.5 -98q0 -53 -23 -96t-69.5 -69.5t-116.5 -25.5zM392 480q0 39 -23.5 60t-52.5 22h-155v-165h159q30 0 51 22t21 61z" />
    <glyph glyph-name="Q" unicode="Q" horiz-adv-x="565" 
d="M282 -12q-118 0 -181.5 89.5t-63.5 257.5q0 164 63.5 255t181.5 91q120 0 182.5 -91t62.5 -255q-3 -194 -64 -273l51 -82l-89 -58l-50 80q-49 -14 -93 -14zM282 575q-70 0 -102 -66.5t-33 -171.5q0 -118 31.5 -179t103.5 -60q22 0 37 7l-60 99l90 60l50 -79q19 54 19 152
q-2 112 -33.5 173t-102.5 65z" />
    <glyph glyph-name="R" unicode="R" horiz-adv-x="555" 
d="M506 0h-115l-108 291h-127v-291h-106v670h265q82 -1 129.5 -59.5t47.5 -128.5q0 -53 -29 -100.5t-75 -68.5zM387 479q0 39 -23.5 60t-52.5 22h-155v-165h159q30 0 51 22t21 61z" />
    <glyph glyph-name="S" unicode="S" horiz-adv-x="525" 
d="M351 518q-32 59 -99 60q-39 0 -65 -24t-25 -57q0 -24 23.5 -43t74.5 -27q121 -21 175.5 -81.5t54.5 -138.5q0 -86 -65 -152.5t-162 -66.5q-154 2 -229 156l101 51q47 -97 130 -97q48 -1 83 33.5t35 80.5q1 31 -27 61.5t-99 43.5q-96 14 -147 58.5t-51 106.5
q-2 74 52 136.5t143 62.5q125 -3 186 -118z" />
    <glyph glyph-name="T" unicode="T" horiz-adv-x="515" 
d="M464 576h-155v-576h-106v576h-153v94h414v-94z" />
    <glyph glyph-name="U" unicode="U" horiz-adv-x="555" 
d="M506 240q0 -79 -31 -139q-25 -50 -80 -81.5t-117 -31.5t-117 31.5t-81 81.5q-30 60 -30 139v430h106v-430q0 -65 33.5 -104.5t88.5 -39.5t88.5 39.5t33.5 104.5v430h106v-430z" />
    <glyph glyph-name="V" unicode="V" horiz-adv-x="555" 
d="M531 670l-207 -670h-97l-204 670h111l143 -447l141 447h113z" />
    <glyph glyph-name="W" unicode="W" horiz-adv-x="635" 
d="M615 670l-99 -670h-94l-106 430l-103 -430h-94l-99 670h108l52 -353l85 353h103l87 -353l52 353h108z" />
    <glyph glyph-name="X" unicode="X" horiz-adv-x="515" 
d="M486 0h-120l-108 223l-108 -223h-120l167 345l-155 325h119l97 -200l96 200h120l-157 -325z" />
    <glyph glyph-name="Y" unicode="Y" horiz-adv-x="625" 
d="M599 670l-232 -379v-291h-106v291l-235 379h127l160 -259l162 259h124z" />
    <glyph glyph-name="Z" unicode="Z" horiz-adv-x="525" 
d="M490 0h-456v96l311 468h-285v106h430v-97l-316 -465h316v-108z" />
    <glyph glyph-name="bracketleft" unicode="[" horiz-adv-x="275" 
d="M38 692h198v-73h-128v-709h128v-73h-198v855z" />
    <glyph glyph-name="backslash" unicode="\" horiz-adv-x="484" 
d="M97 670l387 -670h-94l-390 670h97z" />
    <glyph glyph-name="bracketright" unicode="]" horiz-adv-x="275" 
d="M236 -163h-198v73h128v709h-128v73h198v-855z" />
    <glyph glyph-name="asciicircum" unicode="^" 
d="M120 337h-91l173 391h71l173 -391h-89l-120 291z" />
    <glyph glyph-name="underscore" unicode="_" horiz-adv-x="556" 
d="M-15 -199v64h582v-64h-582z" />
    <glyph glyph-name="grave" unicode="`" horiz-adv-x="235" 
d="M135 533l-108 137h116l65 -137h-73z" />
    <glyph glyph-name="a" unicode="a" 
d="M425 0h-103v16q-39 -28 -87 -29q-80 1 -132.5 45.5t-52.5 129.5q0 73 48.5 122.5t131.5 48.5q46 0 86 -11q2 73 -74 80q-65 2 -117 -36l-53 81q72 51 167 54q78 0 131.5 -44.5t54.5 -129.5v-327zM313 113v110q-44 12 -88 12q-35 0 -58 -23t-22 -52q0 -30 23.5 -57
t63.5 -27q43 0 81 37z" />
    <glyph glyph-name="b" unicode="b" horiz-adv-x="505" 
d="M252 -12q-52 0 -94 29v-17h-106v628l106 53v-215q32 34 92 35q202 -4 202 -264q0 -249 -200 -249zM348 238q0 154 -98 160q-61 0 -90 -49v-220q37 -48 93 -47q94 1 95 156z" />
    <glyph glyph-name="c" unicode="c" horiz-adv-x="465" 
d="M37 247q0 103 39 167q52 87 165 87q145 0 186 -123l-99 -40q-22 64 -88 63q-54 0 -78 -58q-17 -41 -17 -96t17 -96q24 -58 78 -58q66 -1 88 63l99 -40q-41 -123 -186 -123q-113 0 -165 87q-39 64 -39 167z" />
    <glyph glyph-name="d" unicode="d" horiz-adv-x="505" 
d="M252 -12q-200 0 -200 249q0 260 202 264q60 -1 92 -35v162l106 53v-681h-106v17q-42 -29 -94 -29zM156 238q1 -155 95 -156q56 -1 93 47v220q-29 49 -90 49q-98 -6 -98 -160z" />
    <glyph glyph-name="e" unicode="e" 
d="M437 200h-288q0 -47 25 -77.5t65 -29.5q56 -2 86 49l95 -39q-50 -112 -179 -115q-91 0 -146.5 67t-55.5 192q0 103 53.5 178.5t148.5 75.5q89 0 142.5 -70t53.5 -231zM330 298q1 42 -23.5 73t-65.5 31q-44 1 -70 -32.5t-24 -71.5h183z" />
    <glyph glyph-name="f" unicode="f" horiz-adv-x="285" 
d="M263 392h-71v-392h-108v392h-63v97h63v75q0 44 25.5 79.5t71.5 37.5q46 0 82 -18v-87q-22 9 -42 10q-28 -1 -29 -34v-63h71v-97z" />
    <glyph glyph-name="g" unicode="g" horiz-adv-x="505" 
d="M252 -12q-200 0 -200 249q0 260 202 264q60 -1 92 -35v31h106v-480q-7 -196 -179 -259l-44 88q120 48 117 171q-42 -29 -94 -29zM156 238q1 -155 95 -156q56 -1 93 47v220q-29 49 -90 49q-98 -6 -98 -160z" />
    <glyph glyph-name="h" unicode="h" 
d="M42 629l104 52v-217q44 37 117 37q85 0 127 -58t42 -135v-308h-103v306q2 38 -25 68.5t-68 28.5q-43 0 -65.5 -25t-22.5 -72v-306h-106v629z" />
    <glyph glyph-name="i" unicode="i" horiz-adv-x="245" 
d="M176 627q0 -23 -16 -38.5t-38 -15.5q-21 0 -37.5 16.5t-16.5 37.5t16.5 37.5t37.5 16.5t37.5 -16.5t16.5 -37.5zM177 0h-109v489h109v-489z" />
    <glyph glyph-name="j" unicode="j" horiz-adv-x="245" 
d="M176 627q0 -23 -16 -38.5t-38 -15.5q-21 0 -37.5 16.5t-16.5 37.5t16.5 37.5t37.5 16.5t37.5 -16.5t16.5 -37.5zM177 0q-13 -172 -134 -242l-43 97q61 51 68 145v489h109v-489z" />
    <glyph glyph-name="k" unicode="k" horiz-adv-x="514" 
d="M473 0h-122l-141 275l-61 -64v-211h-108v627l108 54v-333l134 141h136l-129 -134z" />
    <glyph glyph-name="l" unicode="l" horiz-adv-x="245" 
d="M176 0h-108v627l108 54v-681z" />
    <glyph glyph-name="m" unicode="m" horiz-adv-x="775" 
d="M719 0h-105v317q1 29 -24.5 57.5t-62.5 27.5q-36 0 -58.5 -26t-21.5 -59v-317h-113v317q1 31 -24 58.5t-62 26.5q-33 -1 -56.5 -26.5t-24.5 -58.5v-317h-110v497h108v-30q45 36 106 36q83 0 130 -69q48 68 133 68q73 0 128.5 -56t56.5 -131v-315z" />
    <glyph glyph-name="n" unicode="n" 
d="M42 495h104v-31q44 37 117 37q85 0 127 -58t42 -135v-308h-103v306q2 38 -25 68.5t-68 28.5q-43 0 -65.5 -25t-22.5 -72v-306h-106v495z" />
    <glyph glyph-name="o" unicode="o" 
d="M442 245q-1 -101 -40 -165q-52 -87 -164 -92q-112 5 -164 92q-39 64 -40 165q1 105 40 169q53 84 164 87q111 -3 164 -87q39 -64 40 -169zM237 94q58 0 85 57q18 40 18 93q0 56 -18 96q-26 57 -85 57q-57 0 -83 -57q-18 -40 -18 -96q0 -53 18 -93q30 -57 83 -57z" />
    <glyph glyph-name="p" unicode="p" horiz-adv-x="505" 
d="M252 -12q-52 0 -94 29v-206l-106 -53v739h106v-31q32 34 92 35q202 -4 202 -264q0 -249 -200 -249zM348 238q0 154 -98 160q-61 0 -90 -49v-220q37 -48 93 -47q94 1 95 156z" />
    <glyph glyph-name="q" unicode="q" horiz-adv-x="505" 
d="M252 -12q-200 0 -200 249q0 260 202 264q60 -1 92 -35v31h106v-686l-106 -53v259q-42 -29 -94 -29zM156 238q1 -155 95 -156q56 -1 93 47v220q-29 49 -90 49q-98 -6 -98 -160z" />
    <glyph glyph-name="r" unicode="r" horiz-adv-x="351" 
d="M331 467l-35 -97q-30 30 -61 29q-67 -2 -71 -94v-305h-108v497h107v-36q27 40 78 40q51 -1 90 -34z" />
    <glyph glyph-name="s" unicode="s" horiz-adv-x="425" 
d="M395 132q-1 -64 -50 -103.5t-135 -40.5q-98 1 -180 75l70 70q61 -48 110 -49q35 -1 59.5 14.5t23.5 38.5q1 23 -22 43t-74 40q-74 25 -108 62t-34 86q-3 49 40.5 91.5t114.5 42.5q108 -2 179 -77l-67 -67q-49 45 -110 47q-25 0 -39.5 -10.5t-15.5 -28.5q-1 -16 11.5 -26
t62.5 -29q71 -22 117.5 -64t46.5 -115z" />
    <glyph glyph-name="t" unicode="t" horiz-adv-x="305" 
d="M281 107l-29 -106q-25 -13 -58 -13q-38 0 -69 35t-31 94v273h-71v99h71v141l103 51v-192h85v-97h-85v-263q0 -40 30 -42q25 -1 54 20z" />
    <glyph glyph-name="u" unicode="u" 
d="M432 0h-104v25q-44 -37 -117 -37q-85 0 -127 58t-42 135v308h103v-306q-2 -38 25 -68.5t68 -28.5q43 0 65.5 25t22.5 72v306h106v-489z" />
    <glyph glyph-name="v" unicode="v" horiz-adv-x="505" 
d="M488 489l-190 -489h-94l-188 489h113l122 -329l118 329h119z" />
    <glyph glyph-name="w" unicode="w" horiz-adv-x="647" 
d="M631 489l-112 -489h-98l-102 336l-98 -336h-97l-109 489h103l62 -263l86 263h112l84 -263l65 263h104z" />
    <glyph glyph-name="x" unicode="x" horiz-adv-x="525" 
d="M511 0h-127l-122 181l-126 -181h-122l183 270l-149 219h127l87 -127l83 127h125l-144 -218z" />
    <glyph glyph-name="y" unicode="y" horiz-adv-x="525" 
d="M512 489l-290 -730h-118l98 241l-188 489h115l134 -343l129 343h120z" />
    <glyph glyph-name="z" unicode="z" horiz-adv-x="425" 
d="M395 392l-233 -296h233v-96h-366v85l242 307h-220v97h344v-97z" />
    <glyph glyph-name="braceleft" unicode="{" horiz-adv-x="335" 
d="M26 299q76 2 93 73q7 34 8 115q0 37 3 108q11 106 91 128q17 5 60 5h28v-77h-16q-54 0 -70 -23q-14 -19 -14 -77q0 -129 -5 -161q-8 -51 -29.5 -80t-67.5 -51q65 -27 87 -90q15 -44 15 -130q0 -96 2 -113q5 -37 25 -50q17 -10 57 -10h16v-76h-28q-47 0 -69 7
q-66 24 -79 100q-3 24 -3 102t-6 116q-9 61 -37 84q-24 19 -61 20v80z" />
    <glyph glyph-name="bar" unicode="|" horiz-adv-x="205" 
d="M77 -210v938h50v-938h-50z" />
    <glyph glyph-name="braceright" unicode="}" horiz-adv-x="335" 
d="M309 219q-37 -1 -61 -20q-28 -23 -37 -84q-6 -38 -6 -116t-3 -102q-13 -76 -79 -100q-22 -7 -69 -7h-28v76h16q40 0 57 10q20 13 25 50q2 17 2 113q0 86 15 130q22 63 87 90q-46 22 -67.5 51t-29.5 80q-5 32 -5 161q0 58 -14 77q-16 23 -70 23h-16v77h28q43 0 60 -5
q80 -22 91 -128q3 -71 3 -108q1 -81 8 -115q17 -71 93 -73v-80z" />
    <glyph glyph-name="asciitilde" unicode="~" horiz-adv-x="584" 
d="M42 272v100q52 59 136 59q53 0 154 -43q54 -23 84 -23q65 0 126 67v-103q-59 -56 -135 -56q-52 0 -141 40q-58 25 -96 25q-59 0 -128 -66z" />
    <glyph glyph-name="exclamdown" unicode="&#xa1;" horiz-adv-x="205" 
d="M48 -6v234l20 263h69l19 -263v-234h-108zM48 616q0 21 16.5 37.5t37.5 16.5t37.5 -16.5t16.5 -37.5t-16.5 -37.5t-37.5 -16.5t-37.5 16.5t-16.5 37.5z" />
    <glyph glyph-name="cent" unicode="&#xa2;" horiz-adv-x="465" 
d="M37 334q0 103 39 167q52 87 165 87q145 0 186 -123l-99 -40q-22 64 -88 63q-54 0 -78 -58q-17 -41 -17 -96t17 -96q24 -58 78 -58q66 -1 88 63l99 -40q-41 -123 -186 -123q-113 0 -165 87q-39 64 -39 167zM218 0v670h55v-670h-55z" />
    <glyph glyph-name="sterling" unicode="&#xa3;" 
d="M69 407h42v66q1 82 46 139t129 58q116 -3 161 -98l-87 -44q-16 46 -73 48q-37 -1 -55.5 -27t-17.5 -60v-82h117v-99h-112v-77q-4 -86 -48 -133h277v-98h-420v98h11q68 65 72 156v54h-42v99z" />
    <glyph glyph-name="currency" unicode="&#xa4;" horiz-adv-x="555" 
d="M105 469l-68 67l56 58l68 -68q52 35 116 35t116 -35l67 68l57 -58l-68 -67q35 -53 35 -115q0 -61 -35 -115l68 -66l-57 -58l-67 68q-52 -36 -116 -36t-116 36l-68 -68l-56 58l68 66q-35 54 -35 115q0 62 35 115zM150 354q0 -52 37 -89t89 -37q53 0 90 37t37 89
q0 53 -37 90t-90 37q-52 0 -89 -37t-37 -90z" />
    <glyph glyph-name="yen" unicode="&#xa5;" horiz-adv-x="625" 
d="M599 183h-573v108h573v-108zM599 670l-232 -379v-291h-106v291l-235 379h127l160 -259l162 259h124z" />
    <glyph glyph-name="brokenbar" unicode="&#xa6;" horiz-adv-x="205" 
d="M128 728v-386h-50v386h50zM128 176v-386h-50v386h50z" />
    <glyph glyph-name="section" unicode="&#xa7;" horiz-adv-x="431" 
d="M400 84q-3 -69 -55.5 -108t-134.5 -39q-93 1 -180 75l70 70q49 -47 110 -51q43 -1 64.5 13.5t21.5 39.5q1 25 -17.5 45t-82.5 41q-68 22 -104.5 60t-36.5 87q-2 72 58 114q-59 43 -59 116q-3 49 40.5 91.5t114.5 42.5q101 -4 178 -75l-65 -65q-48 42 -113 48
q-23 0 -37 -10.5t-16 -29.5q1 -18 14.5 -30t56.5 -29q79 -27 121.5 -67.5t45.5 -118.5q1 -57 -47 -97q53 -43 53 -123zM258 242q32 20 32 60q-4 39 -33 57.5t-65 30.5q-36 -22 -36 -67q0 -29 27.5 -45.5t74.5 -35.5z" />
    <glyph glyph-name="dieresis" unicode="&#xa8;" horiz-adv-x="355" 
d="M146 621q0 -20 -14.5 -35t-35.5 -15q-19 0 -34 15t-15 35t14.5 34.5t34.5 14.5q21 0 35.5 -14t14.5 -35zM309 621q0 -20 -14.5 -35t-35.5 -15q-19 0 -34 15t-15 35t14.5 34.5t34.5 14.5q21 0 35.5 -14t14.5 -35z" />
    <glyph glyph-name="copyright" unicode="&#xa9;" horiz-adv-x="745" 
d="M372 681q91 0 172.5 -46t124.5 -125q47 -82 47 -173t-46.5 -172.5t-127.5 -126t-170 -44.5q-92 0 -173 46.5t-126 127t-45 169.5q0 93 47.5 175t129 125.5t167.5 43.5zM372 625q-76 0 -143 -39t-105 -105q-38 -69 -38 -144q0 -77 39 -144t106.5 -105t140.5 -38
q76 0 143.5 39.5t105 106.5t37.5 141q0 78 -39.5 146t-107.5 105t-139 37zM482 282l56 -17q-14 -59 -58.5 -92t-107.5 -33q-85 0 -134 56q-46 53 -46 140q0 125 88 172q41 22 96 22q124 0 155 -107l-54 -13q-28 70 -103 70q-59 0 -91 -44q-29 -39 -29 -101q0 -61 27 -99
q30 -42 89 -42q41 0 72 24t40 64z" />
    <glyph glyph-name="ordfeminine" unicode="&#xaa;" horiz-adv-x="315" 
d="M275 354h-63v11q-25 -19 -55 -19q-51 0 -84 33.5t-33 80.5q0 49 32 81t82 31q28 0 54 -7q1 48 -46 52q-41 2 -74 -23l-33 53q45 34 105 34q49 0 82 -28.5t33 -84.5v-214zM209 429v73q-25 8 -56 9q-26 -1 -38 -14t-12 -35t14 -39t35 -17q32 -2 57 23z" />
    <glyph glyph-name="guillemotleft" unicode="&#xab;" horiz-adv-x="515" 
d="M261 501l-116 -205l116 -205h-117l-117 205l117 205h117zM488 501l-116 -205l116 -205h-117l-117 205l117 205h117z" />
    <glyph glyph-name="logicalnot" unicode="&#xac;" horiz-adv-x="535" 
d="M393 125v150h-359v108h467v-258h-108z" />
    <glyph glyph-name="registered" unicode="&#xae;" horiz-adv-x="705" 
d="M353 681q89 0 167.5 -44.5t120.5 -121.5q44 -80 44 -167q0 -89 -44.5 -168t-122.5 -122t-165 -43q-90 0 -168 45t-121.5 123.5t-43.5 164.5q0 90 46 169t124.5 121.5t162.5 42.5zM353 620q-72 0 -135.5 -36.5t-99.5 -99.5q-35 -67 -35 -137q0 -74 36.5 -138.5t100.5 -100
t133 -35.5q73 0 137 37t100.5 101.5t36.5 135.5q0 73 -38.5 138.5t-102.5 100t-133 34.5zM207 164v358h123q51 0 75 -5q41 -9 62 -39q16 -25 16 -53q0 -42 -26 -71q-22 -29 -66 -34l117 -156h-64l-119 152h-61v-152h-57zM264 366h71q39 -1 56 8q33 12 31 46q0 34 -34 48
q-15 6 -58 6h-66v-108z" />
    <glyph glyph-name="macron" unicode="&#xaf;" horiz-adv-x="325" 
d="M31 649h263v-45h-263v45z" />
    <glyph glyph-name="degree" unicode="&#xb0;" horiz-adv-x="375" 
d="M52 535q0 56 38 95q39 40 95 40q58 0 98 -39t40 -96t-40 -96q-41 -40 -98 -40q-56 0 -94 39q-39 40 -39 97zM103 535q0 -35 24 -59q25 -24 58 -24q35 0 59 24q25 25 25 59t-24 58q-25 24 -60 24q-33 0 -57 -24q-25 -24 -25 -58z" />
    <glyph glyph-name="plusminus" unicode="&#xb1;" horiz-adv-x="505" 
d="M473 306h-169v-167h-105v167h-168v108h168v167h105v-167h169v-108zM473 4h-442v108h442v-108z" />
    <glyph glyph-name="twosuperior" unicode="&#xb2;" horiz-adv-x="325" 
d="M292 281h-259q3 141 136 218q65 36 63 67q0 22 -18.5 36.5t-48.5 16.5q-53 -4 -72 -56l-60 18q14 42 48.5 71t80.5 29q55 0 92.5 -34t37.5 -79q-1 -74 -87 -120q-82 -49 -98 -103h185v-64z" />
    <glyph glyph-name="threesuperior" unicode="&#xb3;" horiz-adv-x="324" 
d="M293 415q0 -59 -37 -97t-96 -38q-43 0 -77 24t-54 70l59 21q23 -50 75 -52q30 0 49.5 19.5t19.5 48.5q-1 51 -52 57h-18v62h18q37 0 37 38q0 22 -16 36.5t-39 14.5q-42 1 -58 -37l-56 14q15 44 45 64.5t67 20.5q49 0 83.5 -34t34.5 -83q0 -41 -27 -63q40 -29 42 -86z" />
    <glyph glyph-name="acute" unicode="&#xb4;" horiz-adv-x="235" 
d="M27 533l65 137h116l-108 -137h-73z" />
    <glyph glyph-name="mu" unicode="&#xb5;" 
d="M432 0l-104 -52v77q-44 -37 -97 -37t-86 36v-127l-103 -52v644h103v-306q-2 -38 25 -68.5t68 -28.5q43 0 65.5 25t22.5 72v306h106v-489z" />
    <glyph glyph-name="paragraph" unicode="&#xb6;" horiz-adv-x="375" 
d="M142 0v375q-55 3 -89 41q-34 39 -34 104q0 74 41 114q38 36 103 36h194v-62h-45v-608h-52v608h-68v-608h-50z" />
    <glyph glyph-name="periodcentered" unicode="&#xb7;" horiz-adv-x="205" 
d="M156 447q0 -23 -16 -38.5t-38 -15.5q-21 0 -37.5 16.5t-16.5 37.5t16.5 37.5t37.5 16.5t37.5 -16.5t16.5 -37.5z" />
    <glyph glyph-name="cedilla" unicode="&#xb8;" horiz-adv-x="265" 
d="M26 -176v54q30 -9 57 -13.5t47 -4.5q17 0 25 7.5t8 23.5q0 12 -10.5 18t-35.5 6h-12.5h-8.5v85h44v-32h8q42 0 66 -20t24 -58q0 -43 -26 -65t-75 -22q-22 0 -49.5 5.5t-61.5 15.5z" />
    <glyph glyph-name="onesuperior" unicode="&#xb9;" horiz-adv-x="195" 
d="M148 270h-64v323h-36v51q34 2 50 26h50v-400z" />
    <glyph glyph-name="ordmasculine" unicode="&#xba;" horiz-adv-x="335" 
d="M306 514q-2 -66 -28 -107q-36 -60 -111 -61q-78 2 -113 61q-25 41 -25 107q0 69 25 111q37 55 113 56q74 -1 111 -56q26 -42 28 -111zM167 416q35 0 53 37q11 26 11 61q0 36 -11 62q-17 38 -53 38q-38 0 -55 -38q-11 -26 -11 -62q0 -35 11 -61q20 -37 55 -37z" />
    <glyph glyph-name="guillemotright" unicode="&#xbb;" horiz-adv-x="515" 
d="M371 501l117 -205l-117 -205h-117l116 205l-116 205h117zM144 501l117 -205l-117 -205h-117l116 205l-116 205h117z" />
    <glyph glyph-name="onequarter" unicode="&#xbc;" horiz-adv-x="835" 
d="M780 109h-45v-109h-72v109h-216v63l216 263h72v-264h45v-62zM663 171v156l-129 -156h129zM158 246h-66v350h-37v56q36 2 52 29h51v-435zM145 0l442 682h55l-436 -682h-61z" />
    <glyph glyph-name="onehalf" unicode="&#xbd;" horiz-adv-x="925" 
d="M151 0l442 682h55l-436 -682h-61zM164 246h-66v350h-37v56q36 2 52 29h51v-435zM863 0h-286q4 153 150 237q71 39 68 73q0 24 -20 40t-52 17q-59 -4 -80 -61l-66 20q16 46 54.5 77.5t87.5 31.5q58 0 101 -37t43 -86q-3 -81 -97 -131q-90 -53 -107 -112h204v-69z" />
    <glyph glyph-name="threequarters" unicode="&#xbe;" horiz-adv-x="895" 
d="M842 109h-45v-109h-72v109h-216v63l216 263h72v-264h45v-62zM725 171v156l-129 -156h129zM338 392q0 -64 -40.5 -105t-104.5 -41q-47 0 -85.5 26t-59.5 79l67 20q25 -54 82 -57q33 0 54 21t21 53q-1 55 -57 62h-20v66h20q41 0 41 41q0 25 -18 40.5t-43 15.5
q-42 0 -62 -41l-63 17q17 46 50 69t73 23q54 0 91.5 -37.5t37.5 -90.5q0 -45 -29 -69q44 -30 45 -92zM218 0l442 682h55l-436 -682h-61z" />
    <glyph glyph-name="questiondown" unicode="&#xbf;" horiz-adv-x="515" 
d="M207 626q0 23 16 38.5t38 15.5q21 0 37.5 -16.5t16.5 -37.5t-16.5 -37.5t-37.5 -16.5t-37.5 16.5t-16.5 37.5zM46 175q6 63 59 124q91 109 108 193h99q-22 -131 -118 -233q-40 -40 -42 -79q0 -40 29.5 -65.5t68.5 -24.5q87 4 127 88l92 -39q-68 -142 -218 -146
q-89 2 -147 51t-58 131z" />
    <glyph glyph-name="Agrave" unicode="&#xc0;" horiz-adv-x="605" 
d="M320 698l-108 137h116l65 -137h-73zM586 0h-112l-66 188h-209l-66 -188h-113l230 670h106zM370 296l-66 188l-68 -188h134z" />
    <glyph glyph-name="Aacute" unicode="&#xc1;" horiz-adv-x="605" 
d="M212 698l65 137h116l-108 -137h-73zM586 0h-112l-66 188h-209l-66 -188h-113l230 670h106zM370 296l-66 188l-68 -188h134z" />
    <glyph glyph-name="Acircumflex" unicode="&#xc2;" horiz-adv-x="605" 
d="M378 701l-76 76l-76 -76h-67l91 137h104l91 -137h-67zM586 0h-112l-66 188h-209l-66 -188h-113l230 670h106zM370 296l-66 188l-68 -188h134z" />
    <glyph glyph-name="Atilde" unicode="&#xc3;" horiz-adv-x="605" 
d="M586 0h-112l-66 188h-209l-66 -188h-113l230 670h106zM370 296l-66 188l-68 -188h134zM446 818q-13 -57 -36.5 -84t-59.5 -27q-12 0 -17 2t-16 5l-43 13q-10 2 -15.5 3t-11.5 1q-15 0 -24 -8t-15 -27h-48q7 57 30.5 83t58.5 26q9 -1 19 -2.5t22 -4.5l41 -11q7 -2 12 -3.5
t13 -1.5q14 0 23 9.5t12 26.5h55z" />
    <glyph glyph-name="Adieresis" unicode="&#xc4;" horiz-adv-x="605" 
d="M271 768q0 -20 -14.5 -35t-35.5 -15q-19 0 -34 15t-15 35t14.5 34.5t34.5 14.5q21 0 35.5 -14t14.5 -35zM434 768q0 -20 -14.5 -35t-35.5 -15q-19 0 -34 15t-15 35t14.5 34.5t34.5 14.5q21 0 35.5 -14t14.5 -35zM586 0h-112l-66 188h-209l-66 -188h-113l230 670h106z
M370 296l-66 188l-68 -188h134z" />
    <glyph glyph-name="Aring" unicode="&#xc5;" horiz-adv-x="605" 
d="M400 768h-36q1 25 -17.5 43t-44.5 18t-44.5 -17.5t-18.5 -43.5q0 -25 18.5 -43.5t44.5 -18.5t44.5 18.5t17.5 43.5h36q0 -40 -29 -69t-69 -29t-68.5 29t-28.5 69q0 41 28 69t69 28q39 0 68.5 -28.5t29.5 -68.5zM586 0h-112l-66 188h-209l-66 -188h-113l230 670h106z
M370 296l-66 188l-68 -188h134z" />
    <glyph glyph-name="AE" unicode="&#xc6;" horiz-adv-x="865" 
d="M816 670v-106h-289v-165h195v-108h-195v-183h310v-108h-416v551l-128 -255h128v-108h-179l-94 -188h-120l335 670h453z" />
    <glyph glyph-name="Ccedilla" unicode="&#xc7;" horiz-adv-x="555" 
d="M297 95q74 1 107 70l99 -49q-61 -124 -206 -127q-118 0 -181.5 91t-63.5 255t63.5 255t181.5 91q145 -3 206 -127l-99 -49q-33 69 -107 70q-70 0 -102 -66.5t-32 -173.5t32 -173.5t102 -66.5zM203 -176v54q30 -9 57 -13.5t47 -4.5q17 0 25 7.5t8 23.5q0 12 -10.5 18
t-35.5 6h-12.5h-8.5v85h44v-32h8q42 0 66 -20t24 -58q0 -43 -26 -65t-75 -22q-22 0 -49.5 5.5t-61.5 15.5z" />
    <glyph glyph-name="Egrave" unicode="&#xc8;" horiz-adv-x="515" 
d="M275 698l-108 137h116l65 -137h-73zM466 0h-416v670h395v-106h-289v-165h195v-108h-195v-183h310v-108z" />
    <glyph glyph-name="Eacute" unicode="&#xc9;" horiz-adv-x="515" 
d="M167 698l65 137h116l-108 -137h-73zM466 0h-416v670h395v-106h-289v-165h195v-108h-195v-183h310v-108z" />
    <glyph glyph-name="Ecircumflex" unicode="&#xca;" horiz-adv-x="515" 
d="M334 701l-76 76l-76 -76h-67l91 137h104l91 -137h-67zM466 0h-416v670h395v-106h-289v-165h195v-108h-195v-183h310v-108z" />
    <glyph glyph-name="Edieresis" unicode="&#xcb;" horiz-adv-x="515" 
d="M226 768q0 -20 -14.5 -35t-35.5 -15q-19 0 -34 15t-15 35t14.5 34.5t34.5 14.5q21 0 35.5 -14t14.5 -35zM389 768q0 -20 -14.5 -35t-35.5 -15q-19 0 -34 15t-15 35t14.5 34.5t34.5 14.5q21 0 35.5 -14t14.5 -35zM466 0h-416v670h395v-106h-289v-165h195v-108h-195v-183
h310v-108z" />
    <glyph glyph-name="Igrave" unicode="&#xcc;" horiz-adv-x="275" 
d="M155 698l-108 137h116l65 -137h-73zM191 0h-108v670h108v-670z" />
    <glyph glyph-name="Iacute" unicode="&#xcd;" horiz-adv-x="275" 
d="M47 698l65 137h116l-108 -137h-73zM191 0h-108v670h108v-670z" />
    <glyph glyph-name="Icircumflex" unicode="&#xce;" horiz-adv-x="275" 
d="M214 701l-76 76l-76 -76h-67l91 137h104l91 -137h-67zM191 0h-108v670h108v-670z" />
    <glyph glyph-name="Idieresis" unicode="&#xcf;" horiz-adv-x="275" 
d="M106 768q0 -20 -14.5 -35t-35.5 -15q-19 0 -34 15t-15 35t14.5 34.5t34.5 14.5q21 0 35.5 -14t14.5 -35zM269 768q0 -20 -14.5 -35t-35.5 -15q-19 0 -34 15t-15 35t14.5 34.5t34.5 14.5q21 0 35.5 -14t14.5 -35zM191 0h-108v670h108v-670z" />
    <glyph glyph-name="Eth" unicode="&#xd0;" horiz-adv-x="605" 
d="M566 335q-1 -175 -72.5 -255t-175.5 -80h-209v670h209q104 0 175.5 -80t72.5 -255zM215 335v-229h103q67 2 104.5 64t38.5 165q0 110 -38 168.5t-105 60.5h-103v-229zM297 274h-258v108h258v-108z" />
    <glyph glyph-name="Ntilde" unicode="&#xd1;" horiz-adv-x="555" 
d="M421 818q-13 -57 -36.5 -84t-59.5 -27q-12 0 -17 2t-16 5l-43 13q-10 2 -15.5 3t-11.5 1q-15 0 -24 -8t-15 -27h-48q7 57 30.5 83t58.5 26q9 -1 19 -2.5t22 -4.5l41 -11q7 -2 12 -3.5t13 -1.5q14 0 23 9.5t12 26.5h55zM506 0h-94l-256 454v-454h-106v670h106l244 -428
v428h106v-670z" />
    <glyph glyph-name="Ograve" unicode="&#xd2;" horiz-adv-x="565" 
d="M300 698l-108 137h116l65 -137h-73zM282 -12q-118 0 -181.5 89.5t-63.5 257.5q0 164 63.5 255t181.5 91q120 0 182.5 -91t62.5 -255q0 -168 -62.5 -257.5t-182.5 -89.5zM282 575q-70 0 -102 -66.5t-33 -171.5q0 -118 31.5 -179t103.5 -60q76 2 105 63t31 176
q-2 112 -33.5 173t-102.5 65z" />
    <glyph glyph-name="Oacute" unicode="&#xd3;" horiz-adv-x="565" 
d="M282 -12q-118 0 -181.5 89.5t-63.5 257.5q0 164 63.5 255t181.5 91q120 0 182.5 -91t62.5 -255q0 -168 -62.5 -257.5t-182.5 -89.5zM282 575q-70 0 -102 -66.5t-33 -171.5q0 -118 31.5 -179t103.5 -60q76 2 105 63t31 176q-2 112 -33.5 173t-102.5 65zM192 698l65 137
h116l-108 -137h-73z" />
    <glyph glyph-name="Ocircumflex" unicode="&#xd4;" horiz-adv-x="565" 
d="M359 701l-76 76l-76 -76h-67l91 137h104l91 -137h-67zM282 -12q-118 0 -181.5 89.5t-63.5 257.5q0 164 63.5 255t181.5 91q120 0 182.5 -91t62.5 -255q0 -168 -62.5 -257.5t-182.5 -89.5zM282 575q-70 0 -102 -66.5t-33 -171.5q0 -118 31.5 -179t103.5 -60q76 2 105 63
t31 176q-2 112 -33.5 173t-102.5 65z" />
    <glyph glyph-name="Otilde" unicode="&#xd5;" horiz-adv-x="565" 
d="M282 -12q-118 0 -181.5 89.5t-63.5 257.5q0 164 63.5 255t181.5 91q120 0 182.5 -91t62.5 -255q0 -168 -62.5 -257.5t-182.5 -89.5zM282 575q-70 0 -102 -66.5t-33 -171.5q0 -118 31.5 -179t103.5 -60q76 2 105 63t31 176q-2 112 -33.5 173t-102.5 65zM421 818
q-13 -57 -36.5 -84t-59.5 -27q-12 0 -17 2t-16 5l-43 13q-10 2 -15.5 3t-11.5 1q-15 0 -24 -8t-15 -27h-48q7 57 30.5 83t58.5 26q9 -1 19 -2.5t22 -4.5l41 -11q7 -2 12 -3.5t13 -1.5q14 0 23 9.5t12 26.5h55z" />
    <glyph glyph-name="Odieresis" unicode="&#xd6;" horiz-adv-x="565" 
d="M250 768q0 -20 -14.5 -35t-35.5 -15q-19 0 -34 15t-15 35t14.5 34.5t34.5 14.5q21 0 35.5 -14t14.5 -35zM413 768q0 -20 -14.5 -35t-35.5 -15q-19 0 -34 15t-15 35t14.5 34.5t34.5 14.5q21 0 35.5 -14t14.5 -35zM282 -12q-118 0 -181.5 89.5t-63.5 257.5q0 164 63.5 255
t181.5 91q120 0 182.5 -91t62.5 -255q0 -168 -62.5 -257.5t-182.5 -89.5zM282 575q-70 0 -102 -66.5t-33 -171.5q0 -118 31.5 -179t103.5 -60q76 2 105 63t31 176q-2 112 -33.5 173t-102.5 65z" />
    <glyph glyph-name="multiply" unicode="&#xd7;" horiz-adv-x="584" 
d="M79 200l153 154l-153 153l60 59l153 -153l153 153l58 -59l-152 -153l153 -153l-59 -60l-153 153l-154 -153z" />
    <glyph glyph-name="Oslash" unicode="&#xd8;" horiz-adv-x="565" 
d="M553 681l-454 -693h-87l447 693h94zM282 -12q-118 0 -181.5 89.5t-63.5 257.5q0 164 63.5 255t181.5 91q120 0 182.5 -91t62.5 -255q0 -168 -62.5 -257.5t-182.5 -89.5zM282 575q-70 0 -102 -66.5t-33 -171.5q0 -118 31.5 -179t103.5 -60q76 2 105 63t31 176
q-2 112 -33.5 173t-102.5 65z" />
    <glyph glyph-name="Ugrave" unicode="&#xd9;" horiz-adv-x="555" 
d="M506 240q0 -79 -31 -139q-25 -50 -80 -81.5t-117 -31.5t-117 31.5t-81 81.5q-30 60 -30 139v430h106v-430q0 -65 33.5 -104.5t88.5 -39.5t88.5 39.5t33.5 104.5v430h106v-430zM295 698l-108 137h116l65 -137h-73z" />
    <glyph glyph-name="Uacute" unicode="&#xda;" horiz-adv-x="555" 
d="M187 698l65 137h116l-108 -137h-73zM506 240q0 -79 -31 -139q-25 -50 -80 -81.5t-117 -31.5t-117 31.5t-81 81.5q-30 60 -30 139v430h106v-430q0 -65 33.5 -104.5t88.5 -39.5t88.5 39.5t33.5 104.5v430h106v-430z" />
    <glyph glyph-name="Ucircumflex" unicode="&#xdb;" horiz-adv-x="555" 
d="M354 701l-76 76l-76 -76h-67l91 137h104l91 -137h-67zM506 240q0 -79 -31 -139q-25 -50 -80 -81.5t-117 -31.5t-117 31.5t-81 81.5q-30 60 -30 139v430h106v-430q0 -65 33.5 -104.5t88.5 -39.5t88.5 39.5t33.5 104.5v430h106v-430z" />
    <glyph glyph-name="Udieresis" unicode="&#xdc;" horiz-adv-x="555" 
d="M246 768q0 -20 -14.5 -35t-35.5 -15q-19 0 -34 15t-15 35t14.5 34.5t34.5 14.5q21 0 35.5 -14t14.5 -35zM409 768q0 -20 -14.5 -35t-35.5 -15q-19 0 -34 15t-15 35t14.5 34.5t34.5 14.5q21 0 35.5 -14t14.5 -35zM506 240q0 -79 -31 -139q-25 -50 -80 -81.5t-117 -31.5
t-117 31.5t-81 81.5q-30 60 -30 139v430h106v-430q0 -65 33.5 -104.5t88.5 -39.5t88.5 39.5t33.5 104.5v430h106v-430z" />
    <glyph glyph-name="Yacute" unicode="&#xdd;" horiz-adv-x="625" 
d="M222 698l65 137h116l-108 -137h-73zM599 670l-232 -379v-291h-106v291l-235 379h127l160 -259l162 259h124z" />
    <glyph glyph-name="Thorn" unicode="&#xde;" horiz-adv-x="555" 
d="M393 340q0 37 -23 59t-52 23h-155v-165h159q30 0 51 25t20 58zM290 149h-127v-149h-106v670h106v-142h115q74 0 119 -21.5t73.5 -68.5t28.5 -98q0 -53 -23 -96t-69.5 -69.5t-116.5 -25.5z" />
    <glyph glyph-name="germandbls" unicode="&#xdf;" horiz-adv-x="545" 
d="M485 221q0 -103 -64.5 -168t-166.5 -65h-44v108h49q53 0 86.5 33.5t33.5 84.5q-1 88 -91 99h-78v105h78q65 0 65 66q0 39 -28 64t-68 25q-41 -1 -64 -25t-27 -73v-577l-106 -54v632q0 92 53.5 148.5t140.5 56.5q85 0 145 -59.5t60 -144.5q1 -71 -46 -109q70 -49 72 -147z
" />
    <glyph glyph-name="agrave" unicode="&#xe0;" 
d="M425 0h-103v16q-39 -28 -87 -29q-80 1 -132.5 45.5t-52.5 129.5q0 73 48.5 122.5t131.5 48.5q46 0 86 -11q2 73 -74 80q-65 2 -117 -36l-53 81q72 51 167 54q78 0 131.5 -44.5t54.5 -129.5v-327zM313 113v110q-44 12 -88 12q-35 0 -58 -23t-22 -52q0 -30 23.5 -57
t63.5 -27q43 0 81 37zM255 533l-108 137h116l65 -137h-73z" />
    <glyph glyph-name="aacute" unicode="&#xe1;" 
d="M425 0h-103v16q-39 -28 -87 -29q-80 1 -132.5 45.5t-52.5 129.5q0 73 48.5 122.5t131.5 48.5q46 0 86 -11q2 73 -74 80q-65 2 -117 -36l-53 81q72 51 167 54q78 0 131.5 -44.5t54.5 -129.5v-327zM313 113v110q-44 12 -88 12q-35 0 -58 -23t-22 -52q0 -30 23.5 -57
t63.5 -27q43 0 81 37zM147 533l65 137h116l-108 -137h-73z" />
    <glyph glyph-name="acircumflex" unicode="&#xe2;" 
d="M425 0h-103v16q-39 -28 -87 -29q-80 1 -132.5 45.5t-52.5 129.5q0 73 48.5 122.5t131.5 48.5q46 0 86 -11q2 73 -74 80q-65 2 -117 -36l-53 81q72 51 167 54q78 0 131.5 -44.5t54.5 -129.5v-327zM313 113v110q-44 12 -88 12q-35 0 -58 -23t-22 -52q0 -30 23.5 -57
t63.5 -27q43 0 81 37zM313 519l-76 76l-76 -76h-67l91 137h104l91 -137h-67z" />
    <glyph glyph-name="atilde" unicode="&#xe3;" 
d="M425 0h-103v16q-39 -28 -87 -29q-80 1 -132.5 45.5t-52.5 129.5q0 73 48.5 122.5t131.5 48.5q46 0 86 -11q2 73 -74 80q-65 2 -117 -36l-53 81q72 51 167 54q78 0 131.5 -44.5t54.5 -129.5v-327zM313 113v110q-44 12 -88 12q-35 0 -58 -23t-22 -52q0 -30 23.5 -57
t63.5 -27q43 0 81 37zM380 670q-13 -57 -36.5 -84t-59.5 -27q-12 0 -17 2t-16 5l-43 13q-10 2 -15.5 3t-11.5 1q-15 0 -24 -8t-15 -27h-48q7 57 30.5 83t58.5 26q9 -1 19 -2.5t22 -4.5l41 -11q7 -2 12 -3.5t13 -1.5q14 0 23 9.5t12 26.5h55z" />
    <glyph glyph-name="adieresis" unicode="&#xe4;" 
d="M425 0h-103v16q-39 -28 -87 -29q-80 1 -132.5 45.5t-52.5 129.5q0 73 48.5 122.5t131.5 48.5q46 0 86 -11q2 73 -74 80q-65 2 -117 -36l-53 81q72 51 167 54q78 0 131.5 -44.5t54.5 -129.5v-327zM313 113v110q-44 12 -88 12q-35 0 -58 -23t-22 -52q0 -30 23.5 -57
t63.5 -27q43 0 81 37zM206 601q0 -20 -14.5 -35t-35.5 -15q-19 0 -34 15t-15 35t14.5 34.5t34.5 14.5q21 0 35.5 -14t14.5 -35zM369 601q0 -20 -14.5 -35t-35.5 -15q-19 0 -34 15t-15 35t14.5 34.5t34.5 14.5q21 0 35.5 -14t14.5 -35z" />
    <glyph glyph-name="aring" unicode="&#xe5;" 
d="M335 619h-36q1 25 -17.5 43t-44.5 18t-44.5 -17.5t-18.5 -43.5q0 -25 18.5 -43.5t44.5 -18.5t44.5 18.5t17.5 43.5h36q0 -40 -29 -69t-69 -29t-68.5 29t-28.5 69q0 41 28 69t69 28q39 0 68.5 -28.5t29.5 -68.5zM425 0h-103v16q-39 -28 -87 -29q-80 1 -132.5 45.5
t-52.5 129.5q0 73 48.5 122.5t131.5 48.5q46 0 86 -11q2 73 -74 80q-65 2 -117 -36l-53 81q72 51 167 54q78 0 131.5 -44.5t54.5 -129.5v-327zM313 113v110q-44 12 -88 12q-35 0 -58 -23t-22 -52q0 -30 23.5 -57t63.5 -27q43 0 81 37z" />
    <glyph glyph-name="ae" unicode="&#xe6;" horiz-adv-x="755" 
d="M422 119q-20 -61 -65 -96t-125 -36q-80 1 -132.5 45.5t-52.5 129.5q0 73 48.5 122.5t131.5 48.5q46 0 86 -11q2 73 -74 80q-65 2 -117 -36l-53 81q72 51 167 54q78 0 131.5 -44.5t49.5 -126.5q-11 -84 5 -211zM310 113v110q-44 12 -88 12q-35 0 -58 -23t-22 -52
q0 -30 23.5 -57t63.5 -27q43 0 81 37zM708 200h-288q0 -47 25 -77.5t65 -29.5q56 -2 86 49l95 -39q-50 -112 -179 -115q-91 0 -146.5 67t-55.5 192q0 103 53.5 178.5t148.5 75.5q89 0 142.5 -70t53.5 -231zM601 298q1 42 -23.5 73t-65.5 31q-44 1 -70 -32.5t-24 -71.5h183z
" />
    <glyph glyph-name="ccedilla" unicode="&#xe7;" horiz-adv-x="465" 
d="M37 247q0 103 39 167q52 87 165 87q145 0 186 -123l-99 -40q-22 64 -88 63q-54 0 -78 -58q-17 -41 -17 -96t17 -96q24 -58 78 -58q66 -1 88 63l99 -40q-41 -123 -186 -123q-113 0 -165 87q-39 64 -39 167zM150 -176v54q30 -9 57 -13.5t47 -4.5q17 0 25 7.5t8 23.5
q0 12 -10.5 18t-35.5 6h-12.5h-8.5v85h44v-32h8q42 0 66 -20t24 -58q0 -43 -26 -65t-75 -22q-22 0 -49.5 5.5t-61.5 15.5z" />
    <glyph glyph-name="egrave" unicode="&#xe8;" 
d="M437 200h-288q0 -47 25 -77.5t65 -29.5q56 -2 86 49l95 -39q-50 -112 -179 -115q-91 0 -146.5 67t-55.5 192q0 103 53.5 178.5t148.5 75.5q89 0 142.5 -70t53.5 -231zM330 298q1 42 -23.5 73t-65.5 31q-44 1 -70 -32.5t-24 -71.5h183zM255 533l-108 137h116l65 -137h-73z
" />
    <glyph glyph-name="eacute" unicode="&#xe9;" 
d="M437 200h-288q0 -47 25 -77.5t65 -29.5q56 -2 86 49l95 -39q-50 -112 -179 -115q-91 0 -146.5 67t-55.5 192q0 103 53.5 178.5t148.5 75.5q89 0 142.5 -70t53.5 -231zM330 298q1 42 -23.5 73t-65.5 31q-44 1 -70 -32.5t-24 -71.5h183zM147 533l65 137h116l-108 -137h-73z
" />
    <glyph glyph-name="ecircumflex" unicode="&#xea;" 
d="M437 200h-288q0 -47 25 -77.5t65 -29.5q56 -2 86 49l95 -39q-50 -112 -179 -115q-91 0 -146.5 67t-55.5 192q0 103 53.5 178.5t148.5 75.5q89 0 142.5 -70t53.5 -231zM330 298q1 42 -23.5 73t-65.5 31q-44 1 -70 -32.5t-24 -71.5h183zM313 519l-76 76l-76 -76h-67l91 137
h104l91 -137h-67z" />
    <glyph glyph-name="edieresis" unicode="&#xeb;" 
d="M437 200h-288q0 -47 25 -77.5t65 -29.5q56 -2 86 49l95 -39q-50 -112 -179 -115q-91 0 -146.5 67t-55.5 192q0 103 53.5 178.5t148.5 75.5q89 0 142.5 -70t53.5 -231zM330 298q1 42 -23.5 73t-65.5 31q-44 1 -70 -32.5t-24 -71.5h183zM206 601q0 -20 -14.5 -35t-35.5 -15
q-19 0 -34 15t-15 35t14.5 34.5t34.5 14.5q21 0 35.5 -14t14.5 -35zM369 601q0 -20 -14.5 -35t-35.5 -15q-19 0 -34 15t-15 35t14.5 34.5t34.5 14.5q21 0 35.5 -14t14.5 -35z" />
    <glyph glyph-name="igrave" unicode="&#xec;" horiz-adv-x="245" 
d="M140 533l-108 137h116l65 -137h-73zM177 0h-109v489h109v-489z" />
    <glyph glyph-name="iacute" unicode="&#xed;" horiz-adv-x="245" 
d="M32 533l65 137h116l-108 -137h-73zM177 0h-109v489h109v-489z" />
    <glyph glyph-name="icircumflex" unicode="&#xee;" horiz-adv-x="245" 
d="M199 519l-76 76l-76 -76h-67l91 137h104l91 -137h-67zM177 0h-109v489h109v-489z" />
    <glyph glyph-name="idieresis" unicode="&#xef;" horiz-adv-x="245" 
d="M91 601q0 -20 -14.5 -35t-35.5 -15q-19 0 -34 15t-15 35t14.5 34.5t34.5 14.5q21 0 35.5 -14t14.5 -35zM254 601q0 -20 -14.5 -35t-35.5 -15q-19 0 -34 15t-15 35t14.5 34.5t34.5 14.5q21 0 35.5 -14t14.5 -35zM177 0h-109v489h109v-489z" />
    <glyph glyph-name="eth" unicode="&#xf0;" 
d="M442 224q-1 -92 -40 -149q-56 -87 -164 -87q-112 0 -164 87q-39 57 -40 149q1 95 40 153q53 76 143 77q17 1 32 -6q-43 76 -153 143l46 90q138 -66 218 -189.5t82 -267.5zM238 97q53 0 78 47q17 34 17 77q0 44 -17 78q-24 47 -78 47t-78 -47q-17 -34 -17 -78
q0 -43 17 -77q28 -47 78 -47zM57 515l301 149l36 -71l-301 -149z" />
    <glyph glyph-name="ntilde" unicode="&#xf1;" 
d="M380 670q-13 -57 -36.5 -84t-59.5 -27q-12 0 -17 2t-16 5l-43 13q-10 2 -15.5 3t-11.5 1q-15 0 -24 -8t-15 -27h-48q7 57 30.5 83t58.5 26q9 -1 19 -2.5t22 -4.5l41 -11q7 -2 12 -3.5t13 -1.5q14 0 23 9.5t12 26.5h55zM42 495h104v-31q44 37 117 37q85 0 127 -58t42 -135
v-308h-103v306q2 38 -25 68.5t-68 28.5q-43 0 -65.5 -25t-22.5 -72v-306h-106v495z" />
    <glyph glyph-name="ograve" unicode="&#xf2;" 
d="M442 245q-1 -101 -40 -165q-52 -87 -164 -92q-112 5 -164 92q-39 64 -40 165q1 105 40 169q53 84 164 87q111 -3 164 -87q39 -64 40 -169zM255 533l-108 137h116l65 -137h-73zM237 94q58 0 85 57q18 40 18 93q0 56 -18 96q-26 57 -85 57q-57 0 -83 -57q-18 -40 -18 -96
q0 -53 18 -93q30 -57 83 -57z" />
    <glyph glyph-name="oacute" unicode="&#xf3;" 
d="M442 245q-1 105 -40 169q-53 84 -164 87q-111 -3 -164 -87q-39 -64 -40 -169q1 -101 40 -165q52 -87 164 -92q112 5 164 92q39 64 40 165zM147 533l65 137h116l-108 -137h-73zM237 94q-53 0 -83 57q-18 40 -18 93q0 56 18 96q26 57 83 57q59 0 85 -57q18 -40 18 -96
q0 -53 -18 -93q-27 -57 -85 -57z" />
    <glyph glyph-name="ocircumflex" unicode="&#xf4;" 
d="M442 245q-1 -101 -40 -165q-52 -87 -164 -92q-112 5 -164 92q-39 64 -40 165q1 105 40 169q53 84 164 87q111 -3 164 -87q39 -64 40 -169zM313 519l-76 76l-76 -76h-67l91 137h104l91 -137h-67zM237 94q58 0 85 57q18 40 18 93q0 56 -18 96q-26 57 -85 57q-57 0 -83 -57
q-18 -40 -18 -96q0 -53 18 -93q30 -57 83 -57z" />
    <glyph glyph-name="otilde" unicode="&#xf5;" 
d="M442 245q-1 105 -40 169q-53 84 -164 87q-111 -3 -164 -87q-39 -64 -40 -169q1 -101 40 -165q52 -87 164 -92q112 5 164 92q39 64 40 165zM380 670q-13 -57 -36.5 -84t-59.5 -27q-12 0 -17 2t-16 5l-43 13q-10 2 -15.5 3t-11.5 1q-15 0 -24 -8t-15 -27h-48q7 57 30.5 83
t58.5 26q9 -1 19 -2.5t22 -4.5l41 -11q7 -2 12 -3.5t13 -1.5q14 0 23 9.5t12 26.5h55zM237 94q-53 0 -83 57q-18 40 -18 93q0 56 18 96q26 57 83 57q59 0 85 -57q18 -40 18 -96q0 -53 -18 -93q-27 -57 -85 -57z" />
    <glyph glyph-name="odieresis" unicode="&#xf6;" 
d="M442 245q-1 105 -40 169q-53 84 -164 87q-111 -3 -164 -87q-39 -64 -40 -169q1 -101 40 -165q52 -87 164 -92q112 5 164 92q39 64 40 165zM206 601q0 -20 -14.5 -35t-35.5 -15q-19 0 -34 15t-15 35t14.5 34.5t34.5 14.5q21 0 35.5 -14t14.5 -35zM369 601q0 -20 -14.5 -35
t-35.5 -15q-19 0 -34 15t-15 35t14.5 34.5t34.5 14.5q21 0 35.5 -14t14.5 -35zM237 94q-53 0 -83 57q-18 40 -18 93q0 56 18 96q26 57 83 57q59 0 85 -57q18 -40 18 -96q0 -53 -18 -93q-27 -57 -85 -57z" />
    <glyph glyph-name="divide" unicode="&#xf7;" horiz-adv-x="575" 
d="M288 284q22 0 39.5 -17t17.5 -41t-17.5 -41t-39.5 -17q-25 0 -42 17t-17 41t17 41t42 17zM58 415h460v-76h-460v76zM288 584q22 0 39.5 -16.5t17.5 -40.5t-17.5 -41t-39.5 -17q-25 0 -42 17t-17 41t17 40.5t42 16.5z" />
    <glyph glyph-name="oslash" unicode="&#xf8;" 
d="M112 -12h-96l348 513h95zM441 245q-1 -101 -40 -165q-52 -87 -164 -92q-112 5 -164 92q-39 64 -40 165q1 105 40 169q53 84 164 87q111 -3 164 -87q39 -64 40 -169zM237 94q58 0 85 57q18 40 18 93q0 56 -18 96q-26 57 -85 57q-57 0 -83 -57q-18 -40 -18 -96
q0 -53 18 -93q30 -57 83 -57z" />
    <glyph glyph-name="ugrave" unicode="&#xf9;" 
d="M432 0h-104v25q-44 -37 -117 -37q-85 0 -127 58t-42 135v308h103v-306q-2 -38 25 -68.5t68 -28.5q43 0 65.5 25t22.5 72v306h106v-489zM255 533l-108 137h116l65 -137h-73z" />
    <glyph glyph-name="uacute" unicode="&#xfa;" 
d="M147 533l65 137h116l-108 -137h-73zM432 0h-104v25q-44 -37 -117 -37q-85 0 -127 58t-42 135v308h103v-306q-2 -38 25 -68.5t68 -28.5q43 0 65.5 25t22.5 72v306h106v-489z" />
    <glyph glyph-name="ucircumflex" unicode="&#xfb;" 
d="M313 519l-76 76l-76 -76h-67l91 137h104l91 -137h-67zM432 0h-104v25q-44 -37 -117 -37q-85 0 -127 58t-42 135v308h103v-306q-2 -38 25 -68.5t68 -28.5q43 0 65.5 25t22.5 72v306h106v-489z" />
    <glyph glyph-name="udieresis" unicode="&#xfc;" 
d="M206 601q0 -20 -14.5 -35t-35.5 -15q-19 0 -34 15t-15 35t14.5 34.5t34.5 14.5q21 0 35.5 -14t14.5 -35zM369 601q0 -20 -14.5 -35t-35.5 -15q-19 0 -34 15t-15 35t14.5 34.5t34.5 14.5q21 0 35.5 -14t14.5 -35zM432 0h-104v25q-44 -37 -117 -37q-85 0 -127 58t-42 135
v308h103v-306q-2 -38 25 -68.5t68 -28.5q43 0 65.5 25t22.5 72v306h106v-489z" />
    <glyph glyph-name="yacute" unicode="&#xfd;" horiz-adv-x="525" 
d="M172 533l65 137h116l-108 -137h-73zM512 489l-290 -730h-118l98 241l-188 489h115l134 -343l129 343h120z" />
    <glyph glyph-name="thorn" unicode="&#xfe;" horiz-adv-x="505" 
d="M252 -12q-52 0 -94 29v-206l-106 -53v870l106 53v-215q32 34 92 35q202 -4 202 -264q0 -249 -200 -249zM348 238q0 154 -98 160q-61 0 -90 -49v-220q37 -48 93 -47q94 1 95 156z" />
    <glyph glyph-name="ydieresis" unicode="&#xff;" horiz-adv-x="525" 
d="M230 601q0 -20 -14.5 -35t-35.5 -15q-19 0 -34 15t-15 35t14.5 34.5t34.5 14.5q21 0 35.5 -14t14.5 -35zM393 601q0 -20 -14.5 -35t-35.5 -15q-19 0 -34 15t-15 35t14.5 34.5t34.5 14.5q21 0 35.5 -14t14.5 -35zM512 489l-290 -730h-118l98 241l-188 489h115l134 -343
l129 343h120z" />
    <glyph glyph-name="OE" unicode="&#x152;" horiz-adv-x="885" 
d="M288 -12q-118 0 -181.5 89.5t-63.5 257.5q0 164 63.5 255t181.5 91q120 0 182.5 -91t62.5 -255q0 -168 -62.5 -257.5t-182.5 -89.5zM288 575q-70 0 -102 -66.5t-33 -171.5q0 -118 31.5 -179t103.5 -60q76 2 105 63t31 176q-2 112 -33.5 173t-102.5 65zM842 0h-416v670
h395v-106h-289v-165h195v-108h-195v-183h310v-108z" />
    <glyph glyph-name="oe" unicode="&#x153;" horiz-adv-x="735" 
d="M427 245q-1 -101 -40 -165q-52 -87 -164 -92q-112 5 -164 92q-39 64 -40 165q1 105 40 169q53 84 164 87q111 -3 164 -87q39 -64 40 -169zM223 94q53 0 78 57q17 40 17 93q0 56 -17 96q-24 57 -78 57t-78 -57q-17 -40 -17 -96q0 -53 17 -93q28 -57 78 -57zM716 200h-288
q0 -47 25 -77.5t65 -29.5q56 -2 86 49l95 -39q-50 -112 -179 -115q-91 0 -146.5 67t-55.5 192q0 103 53.5 178.5t148.5 75.5q89 0 142.5 -70t53.5 -231zM609 298q1 42 -23.5 73t-65.5 31q-44 1 -70 -32.5t-24 -71.5h183z" />
    <glyph glyph-name="Scaron" unicode="&#x160;" horiz-adv-x="525" 
d="M405 838l-91 -137h-104l-91 137h67l76 -76l76 76h67zM351 518q-32 59 -99 60q-39 0 -65 -24t-25 -57q0 -24 23.5 -43t74.5 -27q121 -21 175.5 -81.5t54.5 -138.5q0 -86 -65 -152.5t-162 -66.5q-154 2 -229 156l101 51q47 -97 130 -97q48 -1 83 33.5t35 80.5
q1 31 -27 61.5t-99 43.5q-96 14 -147 58.5t-51 106.5q-2 74 52 136.5t143 62.5q125 -3 186 -118z" />
    <glyph glyph-name="scaron" unicode="&#x161;" horiz-adv-x="425" 
d="M356 656l-91 -137h-104l-91 137h67l76 -76l76 76h67zM395 132q-1 -64 -50 -103.5t-135 -40.5q-98 1 -180 75l70 70q61 -48 110 -49q35 -1 59.5 14.5t23.5 38.5q1 23 -22 43t-74 40q-74 25 -108 62t-34 86q-3 49 40.5 91.5t114.5 42.5q108 -2 179 -77l-67 -67
q-49 45 -110 47q-25 0 -39.5 -10.5t-15.5 -28.5q-1 -16 11.5 -26t62.5 -29q71 -22 117.5 -64t46.5 -115z" />
    <glyph glyph-name="Ydieresis" unicode="&#x178;" horiz-adv-x="625" 
d="M280 768q0 -20 -14.5 -35t-35.5 -15q-19 0 -34 15t-15 35t14.5 34.5t34.5 14.5q21 0 35.5 -14t14.5 -35zM443 768q0 -20 -14.5 -35t-35.5 -15q-19 0 -34 15t-15 35t14.5 34.5t34.5 14.5q21 0 35.5 -14t14.5 -35zM599 670l-232 -379v-291h-106v291l-235 379h127l160 -259
l162 259h124z" />
    <glyph glyph-name="Zcaron" unicode="&#x17d;" horiz-adv-x="525" 
d="M490 0h-456v96l311 468h-285v106h430v-97l-316 -465h316v-108zM405 838l-91 -137h-104l-91 137h67l76 -76l76 76h67z" />
    <glyph glyph-name="zcaron" unicode="&#x17e;" horiz-adv-x="425" 
d="M395 392l-233 -296h233v-96h-366v85l242 307h-220v97h344v-97zM356 656l-91 -137h-104l-91 137h67l76 -76l76 76h67z" />
    <glyph glyph-name="florin" unicode="&#x192;" horiz-adv-x="285" 
d="M263 392h-71v-580l-108 -54v634h-63v97h63v75q0 44 25.5 79.5t71.5 37.5q46 0 82 -18v-87q-22 9 -42 10q-28 -1 -29 -34v-63h71v-97z" />
    <glyph glyph-name="circumflex" unicode="&#x2c6;" horiz-adv-x="315" 
d="M233 533l-76 76l-76 -76h-67l91 137h104l91 -137h-67z" />
    <glyph glyph-name="tilde" unicode="&#x2dc;" horiz-adv-x="325" 
d="M306 670q-13 -57 -36.5 -84t-59.5 -27q-12 0 -17 2t-16 5l-43 13q-10 2 -15.5 3t-11.5 1q-15 0 -24 -8t-15 -27h-48q7 57 30.5 83t58.5 26q9 -1 19 -2.5t22 -4.5l41 -11q7 -2 12 -3.5t13 -1.5q14 0 23 9.5t12 26.5h55z" />
    <glyph glyph-name="endash" unicode="&#x2013;" horiz-adv-x="535" 
d="M501 275h-467v108h467v-108z" />
    <glyph glyph-name="emdash" unicode="&#x2014;" horiz-adv-x="1005" 
d="M970 275h-935v108h935v-108z" />
    <glyph glyph-name="quoteleft" unicode="&#x2018;" horiz-adv-x="205" 
d="M48 532q0 55 26 90t77 48v-16q-48 -28 -55 -68h6q21 0 37.5 -16.5t16.5 -37.5t-16.5 -37.5t-37.5 -16.5t-37.5 16.5t-16.5 37.5z" />
    <glyph glyph-name="quoteright" unicode="&#x2019;" horiz-adv-x="205" 
d="M156 616q0 -55 -26 -90t-77 -48v16q48 28 55 68h-6q-21 0 -37.5 16.5t-16.5 37.5t16.5 37.5t37.5 16.5t37.5 -16.5t16.5 -37.5z" />
    <glyph glyph-name="quotedblleft" unicode="&#x201c;" horiz-adv-x="395" 
d="M54 532q0 55 26 90t77 48v-16q-48 -28 -55 -68h6q21 0 37.5 -16.5t16.5 -37.5t-16.5 -37.5t-37.5 -16.5t-37.5 16.5t-16.5 37.5zM232 532q0 55 26 90t77 48v-16q-48 -28 -55 -68h6q21 0 37.5 -16.5t16.5 -37.5t-16.5 -37.5t-37.5 -16.5t-37.5 16.5t-16.5 37.5z" />
    <glyph glyph-name="quotedblright" unicode="&#x201d;" horiz-adv-x="395" 
d="M340 616q0 -55 -26 -90t-77 -48v16q48 28 55 68h-6q-21 0 -37.5 16.5t-16.5 37.5t16.5 37.5t37.5 16.5t37.5 -16.5t16.5 -37.5zM162 616q0 -55 -26 -90t-77 -48v16q48 28 55 68h-6q-21 0 -37.5 16.5t-16.5 37.5t16.5 37.5t37.5 16.5t37.5 -16.5t16.5 -37.5z" />
    <glyph glyph-name="quotedblbase" unicode="&#x201e;" horiz-adv-x="395" 
d="M340 47q0 -55 -26 -90t-77 -48v16q48 28 55 68h-6q-21 0 -37.5 16.5t-16.5 37.5t16.5 37.5t37.5 16.5t37.5 -16.5t16.5 -37.5zM162 47q0 -55 -26 -90t-77 -48v16q48 28 55 68h-6q-21 0 -37.5 16.5t-16.5 37.5t16.5 37.5t37.5 16.5t37.5 -16.5t16.5 -37.5z" />
    <glyph glyph-name="dagger" unicode="&#x2020;" horiz-adv-x="455" 
d="M245 445v-553h-39v553h-168v45h168v201h39v-201h171v-45h-171z" />
    <glyph glyph-name="daggerdbl" unicode="&#x2021;" horiz-adv-x="455" 
d="M245 445v-303h171v-46h-171v-204h-39v204h-168v45h168v304h-168v45h168v201h39v-201h171v-45h-171z" />
    <glyph glyph-name="bullet" unicode="&#x2022;" horiz-adv-x="625" 
d="M565 303q0 -107 -73.5 -180t-179.5 -73q-105 0 -178.5 74t-73.5 179q0 106 73 179t179 73q105 0 179 -73t74 -179z" />
    <glyph glyph-name="ellipsis" unicode="&#x2026;" horiz-adv-x="655" 
d="M381 47q0 -23 -16 -38.5t-38 -15.5q-21 0 -37.5 16.5t-16.5 37.5t16.5 37.5t37.5 16.5t37.5 -16.5t16.5 -37.5zM606 47q0 -23 -16 -38.5t-38 -15.5q-21 0 -37.5 16.5t-16.5 37.5t16.5 37.5t37.5 16.5t37.5 -16.5t16.5 -37.5zM157 47q0 -23 -16 -38.5t-38 -15.5
q-21 0 -37.5 16.5t-16.5 37.5t16.5 37.5t37.5 16.5t37.5 -16.5t16.5 -37.5z" />
    <glyph glyph-name="perthousand" unicode="&#x2030;" horiz-adv-x="705" 
d="M675 98h-36q1 25 -17.5 43t-44.5 18t-44.5 -17.5t-18.5 -43.5q0 -25 18.5 -43.5t44.5 -18.5t44.5 18.5t17.5 43.5h36q0 -40 -29 -69t-69 -29t-68.5 29t-28.5 69q0 41 28 69t69 28q39 0 68.5 -28.5t29.5 -68.5zM238 573h-36q1 25 -17.5 43t-44.5 18t-44.5 -17.5
t-18.5 -43.5q0 -25 18.5 -43.5t44.5 -18.5t44.5 18.5t17.5 43.5h36q0 -40 -29 -69t-69 -29t-68.5 29t-28.5 69q0 41 28 69t69 28q39 0 68.5 -28.5t29.5 -68.5zM456 670l-383 -670h-44l384 670h43zM439 98h-36q1 25 -17.5 43t-44.5 18t-44.5 -17.5t-18.5 -43.5
q0 -25 18.5 -43.5t44.5 -18.5t44.5 18.5t17.5 43.5h36q0 -40 -29 -69t-69 -29t-68.5 29t-28.5 69q0 41 28 69t69 28q39 0 68.5 -28.5t29.5 -68.5z" />
    <glyph glyph-name="guilsinglleft" unicode="&#x2039;" horiz-adv-x="275" 
d="M255 501l-116 -205l116 -205h-117l-117 205l117 205h117z" />
    <glyph glyph-name="guilsinglright" unicode="&#x203a;" horiz-adv-x="275" 
d="M138 501l117 -205l-117 -205h-117l116 205l-116 205h117z" />
    <glyph glyph-name="Euro" unicode="&#x20ac;" horiz-adv-x="565" 
d="M343 366h-303v59h303v-59zM343 247h-303v59h303v-59zM318 95q74 1 107 70l99 -49q-61 -124 -206 -127q-118 0 -181.5 91t-63.5 255t63.5 255t181.5 91q145 -3 206 -127l-99 -49q-33 69 -107 70q-70 0 -102 -66.5t-32 -173.5t32 -173.5t102 -66.5z" />
    <glyph glyph-name="trademark" unicode="&#x2122;" horiz-adv-x="735" 
d="M292 602h-94v-277h-67v277h-94v68h255v-68zM697 325h-72v187l-96 -187l-99 187v-187h-71v345h71l99 -189l96 189h72v-345z" />
    <glyph glyph-name="NULL" horiz-adv-x="0" 
 />
  </font>
</defs>
</svg>
