<?xml version="1.0" standalone="no"?>
<!DOCTYPE svg PUBLIC "-//W3C//DTD SVG 1.1//EN" "http://www.w3.org/Graphics/SVG/1.1/DTD/svg11.dtd" >
<svg xmlns="http://www.w3.org/2000/svg">
<metadata></metadata>
<defs>
<font id="roadgeek_2005_mittelschriftRg" horiz-adv-x="925" >
<font-face units-per-em="2048" ascent="1638" descent="-410" />
<missing-glyph horiz-adv-x="462" />
<glyph horiz-adv-x="0" />
<glyph horiz-adv-x="682" />
<glyph unicode=" "  horiz-adv-x="462" />
<glyph unicode="&#x09;" horiz-adv-x="462" />
<glyph unicode="&#xa0;" horiz-adv-x="462" />
<glyph unicode="!" horiz-adv-x="497" d="M127 1370l74 -1032h98l76 1032h-248zM152 0h196v195h-196v-195z" />
<glyph unicode="&#x22;" horiz-adv-x="563" d="M82 1030h145v340h-145v-340zM336 1030h145v340h-145v-340z" />
<glyph unicode="#" d="M8 418h176l-59 -418h151l60 418h188l-59 -418h149l60 418h192v127h-178l43 278h191v127h-179l60 420h-150l-59 -420h-188l59 420h-152l-59 -420h-191v-127h179l-43 -278h-191v-127zM348 545l43 278h189l-41 -278h-191z" />
<glyph unicode="$" d="M16 170q76 -81 181.5 -131.5t210.5 -50.5h6v-207h98v207q155 21 256 131q98 110 98 270q0 155 -87 258t-267 139v410q128 -9 215 -90l111 147q-150 126 -326 129v136h-98v-136q-156 -20 -245 -124.5t-89 -270.5q0 -153 79.5 -249t254.5 -136v-430q-86 7 -146.5 42 t-115.5 97zM276 991q0 93 39 146t99 59v-387q-77 25 -107.5 68t-30.5 114zM512 172v406q158 -30 158 -187q0 -90 -36.5 -144.5t-121.5 -74.5z" />
<glyph unicode="%" horiz-adv-x="999" d="M100 1061q0 -94 53 -143.5t128 -49.5t128.5 49.5t53.5 143.5v131q0 92 -53.5 141t-128.5 49t-128 -49t-53 -141v-131zM115 0h127l649 1370h-127zM211 1073v105q0 94 70 94q71 0 71 -94v-105q0 -94 -71 -94q-70 0 -70 94zM541 178q0 -94 52 -142t130 -48q76 0 128 48 t52 142v131q0 93 -52.5 142t-127.5 49q-77 0 -129.5 -49t-52.5 -142v-131zM651 190v105q0 94 72 94t72 -94v-105q0 -94 -72 -94t-72 94z" />
<glyph unicode="&#x26;" horiz-adv-x="1249" d="M78 408q0 -168 119 -293q121 -127 313 -127q102 0 194 39t191 110l127 -137h231l-231 274q92 97 178 297l-174 68q-58 -144 -121 -229l-293 354q230 108 230 305q0 124 -86 219q-85 94 -221 94q-141 0 -226 -94q-84 -96 -84 -219q0 -131 115 -260q-127 -65 -194.5 -170.5 t-67.5 -230.5zM250 410q0 160 199 268l331 -397q-124 -121 -274 -121q-103 0 -180 71q-76 70 -76 179zM399 1077q0 55 38.5 93t97.5 38q57 0 96 -38.5t39 -92.5q0 -110 -168 -176q-103 95 -103 176z" />
<glyph unicode="'" horiz-adv-x="462" d="M135 1030h197v340l-197 -143v-197z" />
<glyph unicode="(" horiz-adv-x="536" d="M117 586q0 -204 78.5 -410t226.5 -375h78q-187 374 -187 785q0 410 187 784h-78q-148 -169 -226.5 -374.5t-78.5 -409.5z" />
<glyph unicode=")" horiz-adv-x="536" d="M41 -199h76q149 168 227 374t78 411t-78 410.5t-227 373.5h-76q184 -394 184 -784q0 -391 -184 -785z" />
<glyph unicode="*" horiz-adv-x="677" d="M72 987l57 -88l154 88v-186h116v186l154 -88l57 88l-159 98l159 99l-57 88l-154 -88v186h-116v-186l-154 88l-57 -88l159 -99z" />
<glyph unicode="+" horiz-adv-x="1157" d="M92 410h414v-410h149v410h412v151h-412v412h-149v-412h-414v-151z" />
<glyph unicode="," horiz-adv-x="462" d="M135 -143l197 143v195h-197v-338z" />
<glyph unicode="-" horiz-adv-x="784" d="M104 434h580v197h-580v-197z" />
<glyph unicode="." horiz-adv-x="462" d="M135 0h197v195h-197v-195z" />
<glyph unicode="/" horiz-adv-x="641" d="M16 -12h152l461 1394h-152z" />
<glyph unicode="0" d="M76 381q0 -189 117 -291q120 -102 272 -102q148 0 268 102q121 103 121 291v606q0 188 -121 291q-119 104 -268 104q-153 0 -272 -104q-117 -102 -117 -291v-606zM272 393v582q0 100 50.5 155.5t142.5 55.5q87 0 139.5 -56t52.5 -155v-582q0 -99 -52.5 -155t-139.5 -56 q-92 0 -142.5 55.5t-50.5 155.5z" />
<glyph unicode="1" horiz-adv-x="649" d="M127 1020l197 141v-1165h198v1374h-198l-197 -143v-207z" />
<glyph unicode="2" d="M63 0h781v195h-522l442 553q80 103 80 241q0 164 -115 279q-114 114 -285 114q-154 0 -268 -114q-113 -113 -113 -281h197q6 91 62 145t139 54q85 0 137 -64q51 -57 51 -131q0 -71 -49 -137l-537 -672v-182z" />
<glyph unicode="3" d="M27 340q27 -172 139 -262q116 -90 250 -90q179 0 297 112q121 115 121 308q0 88 -40.5 167t-123.5 132q147 97 147 284q0 152 -110 271q-111 120 -295 120q-146 0 -256 -110q-112 -112 -121 -252h196q13 78 68 122t121 44q81 0 141 -58t60 -141q0 -87 -58 -140.5 t-155 -53.5h-66v-175h82q90 0 151.5 -58t61.5 -159q0 -98 -62.5 -158.5t-146.5 -60.5q-81 0 -128.5 41t-76.5 117h-196z" />
<glyph unicode="4" d="M25 203h573v-203h197v203h108v184h-108v395h-197v-395h-358l462 983h-219l-458 -983v-184z" />
<glyph unicode="5" d="M74 344q21 -192 143 -274q125 -82 256 -82q94 0 171.5 42.5t125.5 102.5q44 55 66 123q20 61 20 207q0 175 -27 242q-27 72 -81 133q-40 43 -106 71.5t-138 28.5q-126 0 -221 -74v310h546v196h-731v-741h185q63 112 178 112q120 0 160 -75q38 -66 38 -189 q0 -101 -26 -196q-24 -99 -166 -99q-163 0 -197 162h-196z" />
<glyph unicode="6" horiz-adv-x="935" d="M78 401q0 -196 117 -307q119 -110 264 -110q153 0 278 98q129 102 129 340q0 203 -100 293q-104 90 -229 90q-52 0 -105 -17h-4l289 580h-219l-369 -737q-51 -99 -51 -230zM274 406q0 110 56 169q59 56 141 56q81 0 137 -56q60 -57 60 -169q0 -126 -64 -175 q-63 -51 -133 -51q-197 0 -197 226z" />
<glyph unicode="7" d="M100 975h197v199h365l-465 -1174h219l465 1174v196h-781v-395z" />
<glyph unicode="8" d="M47 399q0 -185 123 -299q118 -112 295 -112q175 0 293 112q125 113 125 299q0 201 -162 308q67 64 102 128t35 150q0 166 -115 281q-113 116 -278 116q-168 0 -281 -116q-112 -112 -112 -281q0 -86 34.5 -150.5t102.5 -127.5q-162 -107 -162 -308zM244 401q0 93 64.5 155 t156.5 62q86 0 153 -61q68 -62 68 -156q0 -92 -68 -157q-68 -62 -153 -62q-91 0 -156 62q-65 65 -65 157zM268 989q0 93 58 145t139 52q79 0 138 -52.5t59 -144.5t-59 -144t-138 -52q-81 0 -139 51.5t-58 144.5z" />
<glyph unicode="9" horiz-adv-x="935" d="M78 940q0 -205 98 -293q104 -90 230 -90q49 0 102 16h4l-289 -579h219l369 739q55 101 55 230q0 190 -121 305q-118 112 -264 112q-154 0 -280 -102q-123 -102 -123 -338zM274 958q0 120 64 172q66 54 133 54q197 0 197 -226q0 -118 -60 -172q-59 -53 -137 -53 q-82 0 -141 53q-56 53 -56 172z" />
<glyph unicode=":" horiz-adv-x="462" d="M135 0h197v195h-197v-195zM135 436h197v197h-197v-197z" />
<glyph unicode=";" horiz-adv-x="462" d="M135 -143l197 143v195h-197v-338zM135 436h197v197h-197v-197z" />
<glyph unicode="&#x3c;" horiz-adv-x="1177" d="M90 436l975 -436v162l-799 344l799 338v162l-975 -435v-135z" />
<glyph unicode="=" horiz-adv-x="1157" d="M92 217h975v152h-975v-152zM92 604h975v150h-975v-150z" />
<glyph unicode="&#x3e;" horiz-adv-x="1140" d="M90 0l975 436v135l-975 435v-162l803 -338l-803 -344v-162z" />
<glyph unicode="?" horiz-adv-x="892" d="M57 975h197q0 110 49 160.5t129 50.5q61 0 113.5 -48.5t52.5 -123.5q0 -63 -49 -127l-172 -240q-30 -40 -39.5 -80.5t-9.5 -103.5v-125h196v108q0 79 33 123l176 240q62 86 62 203q0 167 -115 270q-112 100 -258 100q-142 0 -256 -108q-109 -109 -109 -260v-39zM328 0 h196v195h-196v-195z" />
<glyph unicode="@" horiz-adv-x="1542" d="M76 692q0 -311 203 -508q205 -196 514 -196q204 0 370 86t264 241h-127q-85 -89 -201 -133.5t-284 -44.5q-266 0 -432 158q-158 166 -158 393q0 213 152 379q153 164 426 164q229 0 373 -123q145 -124 145 -311q0 -139 -90 -279q-88 -137 -170 -137q-45 0 -45 57 q0 40 18 99l156 497h-129l-23 -98h-4q-65 151 -217 151q-210 0 -336 -169q-125 -168 -125 -359q0 -119 76 -207q77 -86 199 -86q86 0 140 33t101 90h5q21 -123 153 -123q124 0 281 148q159 150 159 391q0 252 -200 416q-196 161 -473 161q-312 0 -516 -192 q-205 -193 -205 -498zM506 571q0 121 86 254q89 136 225 136q66 0 111 -52.5t45 -120.5q0 -116 -88 -253q-86 -142 -213 -142q-72 0 -119 50t-47 128z" />
<glyph unicode="A" horiz-adv-x="1200" d="M2 0h219l109 311h520l106 -311h218l-500 1372h-170zM391 494q41 113 68.5 192t40.5 119t40 125.5t50 156.5q53 -169 198 -593h-397z" />
<glyph unicode="B" horiz-adv-x="1175" d="M147 0h578q153 0 266 104q115 109 115 283q0 106 -55 197q-55 94 -168 118v5q111 52 155.5 126t44.5 168q0 166 -105 267.5t-300 101.5h-531v-1370zM354 195v411h320q110 0 167.5 -59.5t57.5 -145.5q0 -87 -57.5 -146.5t-167.5 -59.5h-320zM354 793v393h301 q107 0 164.5 -57t57.5 -140q0 -86 -57 -141t-165 -55h-301z" />
<glyph unicode="C" horiz-adv-x="1071" d="M100 684q0 -239 13 -319q13 -74 47 -132q54 -94 157 -167q116 -78 273 -78q181 0 311.5 103t169.5 290h-219q-88 -186 -262 -186q-70 0 -125 28t-88 72q-38 50 -53 115q-15 59 -15 274q0 216 15 274q15 65 53 115q33 45 88 73t125 28q94 0 165 -57.5t97 -141.5h219 q-35 168 -160 287q-126 120 -321 120q-163 0 -273 -79q-102 -72 -157 -168q-35 -59 -47 -131q-13 -76 -13 -320z" />
<glyph unicode="D" horiz-adv-x="1214" d="M147 0h465q147 0 255 60.5t173 164.5q47 72 62 150q16 88 16 309q0 214 -12 291q-12 78 -62 164q-138 231 -417 231h-480v-1370zM354 195v979h250q161 0 244 -115q43 -62 51 -127q10 -78 10 -256q0 -185 -10 -250q-10 -66 -41 -113q-81 -118 -254 -118h-250z" />
<glyph unicode="E" horiz-adv-x="1071" d="M147 0h877v195h-670v403h570v184h-570v392h670v196h-877v-1370z" />
<glyph unicode="F" horiz-adv-x="1034" d="M147 0h207v584h570v184h-570v406h670v196h-877v-1370z" />
<glyph unicode="G" horiz-adv-x="1175" d="M100 684q0 -239 13 -319q13 -74 47 -132q54 -94 157 -167q116 -78 273 -78q205 0 346 141q143 140 143 344v281h-487v-197h278v-72q0 -129 -82 -211q-82 -79 -198 -79q-70 0 -125 28t-88 72q-38 50 -53 115q-15 59 -15 274q0 216 15 274q15 65 53 115q33 45 88 73t125 28 q94 0 165 -57.5t97 -141.5h219q-35 168 -160 287q-126 120 -321 120q-163 0 -273 -79q-102 -72 -157 -168q-35 -59 -47 -131q-13 -76 -13 -320z" />
<glyph unicode="H" horiz-adv-x="1249" d="M147 0h207v598h545v-598h207v1370h-207v-588h-545v588h-207v-1370z" />
<glyph unicode="I" horiz-adv-x="497" d="M147 0h207v1370h-207v-1370z" />
<glyph unicode="J" horiz-adv-x="927" d="M4 166q59 -83 150 -130.5t206 -47.5q166 0 304 114q137 113 137 322v946h-209v-926q0 -138 -80 -194q-79 -55 -158 -55q-117 0 -182 92z" />
<glyph unicode="K" horiz-adv-x="1214" d="M147 0h207v416l242 254l373 -670h248l-486 829l438 541h-245l-566 -706h-4v706h-207v-1370z" />
<glyph unicode="L" horiz-adv-x="1071" d="M147 0h877v195h-670v1175h-207v-1370z" />
<glyph unicode="M" horiz-adv-x="1460" d="M147 0h207v854h4l287 -659h174l287 659h4v-854h209v1370h-197l-387 -895l-391 895h-197v-1370z" />
<glyph unicode="N" horiz-adv-x="1318" d="M147 0h207v973h4l621 -973h197v1370h-211v-975l-621 975h-197v-1370z" />
<glyph unicode="O" horiz-adv-x="1175" d="M100 684q0 -239 13 -319q13 -74 47 -132q54 -94 157 -167q116 -78 273 -78q158 0 268 78q106 73 162 167q32 52 45 132q14 66 14 319q0 260 -14 320q-12 78 -45 131q-57 95 -162 168q-107 79 -268 79q-163 0 -273 -79q-102 -72 -157 -168q-35 -59 -47 -131 q-13 -76 -13 -320zM309 684q0 216 15 274q15 65 53 115q33 45 88 73t125 28q132 0 211 -101q39 -51 55 -115q14 -55 14 -274t-14 -274q-16 -64 -55 -115q-78 -100 -211 -100q-70 0 -125 28t-88 72q-38 50 -53 115q-15 59 -15 274z" />
<glyph unicode="P" horiz-adv-x="1142" d="M147 0h207v535h316q210 0 319 133q111 132 111 278q0 107 -41 191t-107 137q-76 57 -147.5 76.5t-161.5 19.5h-496v-1370zM354 731v443h301q92 0 148 -39q90 -59 90 -183q0 -82 -57 -151q-58 -70 -172 -70h-310z" />
<glyph unicode="Q" horiz-adv-x="1175" d="M100 684q0 -239 13 -319q13 -74 47 -132q54 -94 157 -167q116 -78 273 -78q189 0 323 118l172 -139l125 144l-180 143q28 59 37 131q12 76 12 299q0 260 -14 320q-12 78 -45 131q-57 95 -162 168q-107 79 -268 79q-163 0 -273 -79q-102 -72 -157 -168q-35 -59 -47 -131 q-13 -76 -13 -320zM309 684q0 216 15 274q15 65 53 115q33 45 88 73t125 28q132 0 211 -101q39 -51 55 -115q14 -55 14 -274q0 -222 -18 -287l-160 127l-123 -143l174 -137q-64 -49 -153 -49q-70 0 -125 28t-88 72q-38 50 -53 115q-15 59 -15 274z" />
<glyph unicode="R" horiz-adv-x="1175" d="M147 0h207v584h267l282 -584h248l-317 606q123 43 193.5 144.5t70.5 236.5q0 87 -37.5 162.5t-97.5 130.5q-110 90 -281 90h-535v-1370zM354 768v418h326q93 0 154 -43q67 -52 67 -156q0 -93 -60.5 -156t-170.5 -63h-316z" />
<glyph unicode="S" horiz-adv-x="1105" d="M27 176q218 -188 524 -188q222 0 351.5 105t129.5 292q0 141 -92 256q-90 118 -283 139q-32 4 -83.5 12t-69.5 9q-98 16 -146.5 65t-48.5 111q0 95 64 146t166 51q176 0 338 -107l116 172q-218 143 -446 143q-218 0 -330 -112q-117 -114 -117 -289q0 -152 94.5 -256.5 t270.5 -128.5q25 -4 62 -9.5t64.5 -9t53.5 -6.5q180 -24 180 -186q0 -87 -72 -138.5t-200 -51.5q-215 0 -389 137z" />
<glyph unicode="T" horiz-adv-x="964" d="M4 1186h375v-1186h209v1186h377v184h-961v-184z" />
<glyph unicode="U" horiz-adv-x="1214" d="M121 463q0 -214 141 -346q144 -129 346 -129q203 0 344 129q144 132 144 346v907h-207v-885q0 -138 -79 -214t-202 -76t-200.5 76.5t-77.5 213.5v885h-209v-907z" />
<glyph unicode="V" horiz-adv-x="1071" d="M4 1370l453 -1370h161l453 1370h-219l-313 -1044h-2l-314 1044h-219z" />
<glyph unicode="W" horiz-adv-x="1603" d="M23 1370l344 -1370h172l262 987h2l264 -987h174l344 1370h-221l-215 -975h-4l-266 975h-150l-266 -975h-4l-215 975h-221z" />
<glyph unicode="X" horiz-adv-x="1032" d="M-16 0h233l301 508l301 -508h236l-420 702l393 668h-235l-275 -475l-272 475h-236l393 -668z" />
<glyph unicode="Y" horiz-adv-x="964" d="M-27 1370l412 -807v-563h197v563l413 807h-221l-291 -608l-290 608h-220z" />
<glyph unicode="Z" horiz-adv-x="999" d="M63 0h877v195h-625l625 1019v156h-852v-184h598l-623 -1014v-172z" />
<glyph unicode="[" horiz-adv-x="536" d="M141 -199h357v127h-185v1315h185v127h-357v-1569z" />
<glyph unicode="\" horiz-adv-x="663" d="M41 1382l444 -1398h148l-449 1398h-143z" />
<glyph unicode="]" horiz-adv-x="536" d="M43 -72v-127h356v1569h-356v-127h182v-1315h-182z" />
<glyph unicode="^" horiz-adv-x="1044" d="M59 541h158l311 667l310 -667h159l-407 829h-123z" />
<glyph unicode="_" horiz-adv-x="964" d="M0 -127v-96h965v96h-965z" />
<glyph unicode="`" horiz-adv-x="473" d="M27 1382l266 -282h156l-170 282h-252z" />
<glyph unicode="a" d="M74 281q0 -125 90 -209q85 -85 244 -88q94 0 153 24q53 21 80 74h4v-86h191v670q-3 174 -107 252q-106 69 -274 69h-23q-204 0 -311 -143l151 -119q21 43 68 61q40 15 111 15h8q186 0 186 -121v-4v-105h-264q-151 0 -229 -84t-78 -206zM252 291v4q0 112 166 115h227v-70 q0 -111 -43 -141q-48 -31 -151 -31h-19q-98 0 -137 39q-43 37 -43 84z" />
<glyph unicode="b" horiz-adv-x="999" d="M129 0h197v100q100 -112 252 -112q170 0 262 127q40 52 55 123q14 66 14 249q0 190 -14 250q-15 71 -55 123q-94 127 -262 127q-135 0 -252 -117v500h-197v-1370zM326 487q0 114 26 205q27 99 166 99t166 -95q29 -106 29 -209q0 -102 -29 -208q-28 -97 -166 -97 q-139 0 -166 99q-26 95 -26 206z" />
<glyph unicode="c" horiz-adv-x="856" d="M53 485q0 -270 137 -383q138 -114 308 -114q206 0 350 168l-146 129q-83 -103 -196 -103q-256 0 -256 303q0 306 256 306q113 0 196 -103l146 129q-146 170 -350 170q-170 0 -308 -117q-137 -113 -137 -385z" />
<glyph unicode="d" horiz-adv-x="999" d="M129 487q0 -183 14 -249q15 -70 56 -123q95 -127 262 -127q149 0 252 112v-100h196v1370h-196v-500q-120 117 -252 117q-164 0 -262 -127q-41 -53 -56 -123q-14 -60 -14 -250zM326 487q0 121 26 209q27 95 168 95q137 0 164 -99q29 -110 29 -205q0 -93 -29 -206 q-27 -99 -164 -99q-140 0 -168 97q-26 88 -26 208z" />
<glyph unicode="e" horiz-adv-x="964" d="M82 483q0 -299 139 -399q146 -96 293 -96q221 0 352 157l-141 121q-91 -94 -215 -94q-107 0 -169 62t-62 178h606v161q0 189 -121 301q-119 113 -281 113q-141 0 -272 -110q-129 -108 -129 -394zM279 573q1 107 58 167.5t146 60.5t145 -60t62 -168h-411z" />
<glyph unicode="f" horiz-adv-x="536" d="M61 825h99v-825h196v825h197v150h-197v129q0 82 84 82h113v184h-127q-122 0 -194 -67t-72 -199v-129h-99v-150z" />
<glyph unicode="g" horiz-adv-x="999" d="M94 485q0 -205 15 -264q16 -67 59 -115q38 -50 103 -84t155 -34q149 0 252 112v-100q0 -102 -61 -156.5t-162 -54.5q-53 0 -103 25t-88 65l-151 -123q64 -75 155 -119.5t183 -44.5q165 0 294 105t129 323v955h-196v-105q-108 117 -252 117q-90 0 -155 -35t-103 -86 q-43 -54 -59 -116q-15 -56 -15 -265zM291 485q0 117 6 158q5 37 33 72q58 76 155 76q92 0 154 -76q28 -35 33 -72q6 -41 6 -158q0 -115 -6 -155q-5 -37 -33 -72q-62 -76 -154 -76q-97 0 -155 76q-28 35 -33 72q-6 41 -6 155z" />
<glyph unicode="h" horiz-adv-x="1034" d="M129 0h197v580q0 98 53 154.5t141 56.5q84 0 138.5 -57t54.5 -154v-580h196v647q0 168 -106 252q-101 88 -219 88q-166 0 -254 -117h-4v500h-197v-1370z" />
<glyph unicode="i" horiz-adv-x="462" d="M135 0h197v975h-197v-975zM135 1174h197v196h-197v-196z" />
<glyph unicode="j" horiz-adv-x="497" d="M-12 -211v-186h78q124 0 204 76.5t80 199.5v1096h-196v-1081q0 -105 -109 -105h-57zM154 1174h196v196h-196v-196z" />
<glyph unicode="k" horiz-adv-x="999" d="M129 0h197v279l153 176l260 -455h248l-383 594l336 381h-235l-375 -459h-4v854h-197v-1370z" />
<glyph unicode="l" horiz-adv-x="497" d="M129 236q0 -123 68.5 -179.5t181.5 -56.5h88v182h-68q-73 0 -73 68v1120h-197v-1134z" />
<glyph unicode="m" horiz-adv-x="1642" d="M141 0h197v580q0 98 53 154.5t141 56.5q82 0 137.5 -57t55.5 -154v-580h197v580q0 98 53 154.5t141 56.5q82 0 137.5 -57t55.5 -154v-580h196v647q0 168 -106 252q-107 88 -219 88q-192 0 -310 -127q-65 65 -123 96t-151 31q-163 0 -254 -117h-4v105h-197v-975z" />
<glyph unicode="n" horiz-adv-x="1034" d="M129 0h197v580q0 98 53 154.5t141 56.5q84 0 138.5 -57t54.5 -154v-580h196v647q0 168 -106 252q-101 88 -219 88q-166 0 -254 -117h-4v105h-197v-975z" />
<glyph unicode="o" horiz-adv-x="964" d="M82 487q0 -154 22 -237q25 -80 82 -137q117 -125 297 -125t297 125q57 63 80 137q25 80 25 237q0 156 -25 236q-24 77 -80 139q-121 125 -297 125t-297 -125q-57 -57 -82 -139q-22 -83 -22 -236zM279 487q0 112 7.5 150t39.5 82q51 72 157 72q104 0 158 -72 q33 -49 39 -82q10 -52 10 -152q0 -97 -10 -149q-6 -33 -39 -82q-54 -72 -158 -72q-106 0 -157 72q-33 49 -39 82q-8 36 -8 151z" />
<glyph unicode="p" horiz-adv-x="999" d="M129 -397h197v499q114 -114 252 -114q170 0 262 127q39 51 55 121q14 66 14 249q0 192 -14 252q-15 71 -55 123q-94 127 -262 127q-149 0 -252 -115v103h-197v-1372zM326 485q0 116 26 207q27 99 166 99q138 0 166 -97q29 -106 29 -209q0 -100 -29 -206q-28 -97 -166 -97 q-139 0 -166 99q-26 91 -26 204z" />
<glyph unicode="q" horiz-adv-x="999" d="M94 485q0 -179 12 -249q15 -69 58 -121q92 -127 262 -127q132 0 252 114v-499h196v1372h-196v-103q-106 115 -252 115q-168 0 -262 -127q-44 -57 -58 -123q-12 -71 -12 -252zM291 485q0 121 26 209q28 97 168 97q137 0 164 -99q29 -110 29 -207q0 -94 -29 -204 q-27 -99 -164 -99q-140 0 -168 97q-26 88 -26 206z" />
<glyph unicode="r" horiz-adv-x="749" d="M129 0h197v586q0 102 54.5 153.5t135.5 51.5q64 0 129 -50l143 170q-94 76 -204 76q-166 0 -254 -117h-4v105h-197v-975z" />
<glyph unicode="s" d="M20 162q186 -174 431 -174q164 0 286 78q119 79 119 221q0 125 -70 205.5t-215 87.5l-161 12q-129 11 -129 92q0 117 168 117q75 0 136 -22.5t126 -67.5l123 143q-159 133 -385 133q-161 0 -263 -79t-102 -222q0 -121 78 -194t205 -84l172 -15q120 -9 120 -96 q0 -60 -53.5 -92.5t-138.5 -32.5q-184 0 -309 125z" />
<glyph unicode="t" horiz-adv-x="536" d="M43 825h98v-585q0 -113 66 -176.5t170 -63.5h102v182h-71q-70 0 -70 74v569h141v150h-141v297h-197v-297h-98v-150z" />
<glyph unicode="u" horiz-adv-x="1034" d="M129 326q0 -167 107 -252q109 -86 221 -86q161 0 252 114h4v-102h196v975h-196v-582q0 -97 -54.5 -154t-138.5 -57q-88 0 -141 56.5t-53 154.5v582h-197v-649z" />
<glyph unicode="v" horiz-adv-x="856" d="M-10 975l358 -975h162l358 975h-206l-230 -684h-4l-229 684h-209z" />
<glyph unicode="w" horiz-adv-x="1390" d="M6 975l311 -975h175l204 682h4l203 -682h174l312 975h-207l-187 -684h-4l-223 684h-141l-221 -684h-5l-188 684h-207z" />
<glyph unicode="x" d="M20 0h236l209 324l207 -324h235l-334 498l322 477h-236l-194 -316l-195 316h-235l319 -477z" />
<glyph unicode="y" horiz-adv-x="856" d="M-12 975l352 -938l-55 -162q-27 -86 -117 -86h-57v-186h65q96 0 165.5 44t109.5 150l419 1178h-206l-232 -684h-4l-231 684h-209z" />
<glyph unicode="z" horiz-adv-x="856" d="M66 0h729v182h-490l490 637v156h-703v-174h463l-489 -647v-154z" />
<glyph unicode="{" horiz-adv-x="565" d="M49 522q75 -3 111 -71q39 -62 39 -166v-273q0 -97 55 -155q52 -55 125 -58h160v125h-93q-45 3 -63 56q-18 40 -18 104v250q0 60 -19 112q-14 47 -43 76q-23 29 -49 45q-36 16 -41 17v4q33 6 90 63q29 29 43 76q19 46 19 107v249q0 67 18 113t63 49h93v125h-160 q-73 0 -125 -55q-55 -58 -55 -158v-276q0 -100 -39 -162q-14 -32 -45 -49q-30 -23 -66 -23v-125z" />
<glyph unicode="|" horiz-adv-x="313" d="M82 -16h145v1398h-145v-1398z" />
<glyph unicode="}" horiz-adv-x="313" d="M25 -76v-125h159q76 3 131 58q49 62 52 155v277q0 99 41 164q40 66 110 69l-6 125q-69 6 -104 74q-41 65 -41 162v274q-3 100 -52 158q-55 55 -133 55h-157v-125h90q44 -3 65 -49q21 -44 21 -113v-247q0 -66 18 -113q14 -44 43 -76q25 -28 49 -43q11 -7 33 -16v-4 q-29 -6 -82 -62q-25 -31 -43 -78q-18 -46 -18 -108v-252q0 -64 -21 -104q-21 -53 -63 -56h-92z" />
<glyph unicode="~" horiz-adv-x="964" d="M57 457l68 -119q13 21 72 96q38 38 92 41q41 -3 90 -24q17 -6 34.5 -14t36.5 -17.5t29 -13.5q19 -7 58 -22.5t53 -21.5q49 -18 98 -18q97 0 150 53q55 49 84 111l-68 123q-28 -54 -68 -94q-42 -45 -96 -48q-36 0 -88 25q-23 9 -59 26.5t-43 20.5q-70 30 -105 43 q-49 21 -104 21q-92 -3 -146 -54q-65 -58 -88 -114z" />
<glyph unicode="&#xa1;" horiz-adv-x="346" d="M49 -401h240l-72 1036h-94zM76 778h190v195h-190v-195z" />
<glyph unicode="&#xa2;" horiz-adv-x="880" d="M70 483q0 -248 120 -368q113 -119 271 -131v-177h74v177q200 30 303 170l-138 127q-59 -78 -165 -101v611q105 -26 165 -105l138 129q-103 142 -303 172v174h-74v-174q-158 -12 -271 -131q-120 -120 -120 -373zM258 483q3 287 203 308v-611q-200 21 -203 303z" />
<glyph unicode="&#xa3;" horiz-adv-x="962" d="M74 573h153q6 -15 33 -104q14 -52 14 -96q-3 -77 -32 -166q-80 -3 -144 -39v-184q85 36 168 36q74 -3 193 -18q113 -15 180 -18q67 0 137 20q80 22 142 78l-121 151q-46 -37 -95 -49q-59 -16 -94 -16q-54 0 -106 14q-19 3 -54.5 7.5t-52.5 7.5q55 107 58 209 q-3 80 -35 167h268v129h-315q-68 130 -68 287q3 204 178 207q161 0 176 -209h189q0 169 -90 285q-94 107 -287 110q-162 -3 -256 -102q-100 -100 -100 -287v-12q0 -133 67 -279h-106v-129z" />
<glyph unicode="&#xa4;" horiz-adv-x="937" d="M51 348l101 -102l92 98q37 -34 102 -55q56 -21 129 -21q142 0 230 76l94 -98l96 102l-92 94q71 89 74 240q-3 148 -76 240l94 94l-96 100l-94 -90q-92 67 -230 70q-148 -3 -231 -74l-92 94l-101 -100l94 -92q-68 -86 -71 -242q3 -154 71 -240zM217 682q6 273 258 279 q249 -9 258 -279q0 -132 -69 -201q-69 -75 -189 -75q-117 0 -186 75q-72 78 -72 201z" />
<glyph unicode="&#xa5;" horiz-adv-x="1056" d="M55 1370l301 -631h-196v-127h256l24 -51v-129h-280v-127h280v-309h181v309h280v127h-280v129l24 51h256v127h-194l299 631h-203l-273 -610l-272 610h-203z" />
<glyph unicode="&#xa6;" horiz-adv-x="313" d="M82 -16h145v522h-145v-522zM82 860h145v522h-145v-522z" />
<glyph unicode="&#xa7;" horiz-adv-x="821" d="M51 500q0 -135 51 -209q52 -79 207 -131l68 -27q121 -36 158 -67q32 -32 32 -97v-10q0 -71 -41 -109q-40 -40 -106 -40q-75 3 -115 49t-49 118h-168q3 -166 96 -256q93 -93 222 -96q144 3 241 94q98 93 101 252q-3 91 -31 148q-33 62 -119 100q118 59 154 133 q28 70 28 166v21q0 189 -75 264q-73 79 -232 123q-104 33 -149 69q-43 27 -43 88q0 50 32 82q28 38 101 41q71 0 108 -43t37 -116h166q-3 169 -90 253q-89 80 -221 80q-128 -3 -211 -86q-88 -88 -88 -225v-12q0 -143 127 -217q-118 -46 -156 -123q-35 -75 -35 -185v-32z M242 530q0 70 8 101t31 57q42 54 135 60q42 0 84 -17q31 -14 51 -43q23 -23 31 -57q8 -21 8 -101v-16q0 -87 -31 -135q-35 -65 -143 -68q-52 0 -86 21q-41 21 -54 47q-34 52 -34 151z" />
<glyph unicode="&#xa8;" horiz-adv-x="1218" d="M336 1192h207v207h-207v-207zM674 1192h209v207h-209v-207z" />
<glyph unicode="&#xa9;" horiz-adv-x="1521" d="M94 682q3 -300 201 -492q185 -203 477 -206q290 3 481 206q194 194 197 492q-3 298 -197 498q-193 199 -481 202q-290 -3 -477 -202q-198 -198 -201 -498zM242 682q0 248 151 405q146 155 379 158q231 -3 383 -158q147 -153 150 -405q-3 -242 -150 -401 q-151 -160 -383 -160q-234 0 -379 160q-151 157 -151 401zM395 682q0 -194 109 -315q108 -129 299 -129q277 3 338 323h-133q-12 -86 -68 -133q-59 -53 -137 -53q-123 0 -193 98q-71 89 -71 213q0 130 69 217q67 85 193 88q80 0 135 -49q60 -51 72 -129h133 q-15 160 -111 238q-95 77 -231 77q-194 -3 -297 -124q-107 -119 -107 -322z" />
<glyph unicode="&#xaa;" horiz-adv-x="641" d="M37 954q0 -69 57 -120q60 -54 189 -54q113 0 151 62h4v-54h146v402q-9 192 -262 192h-17q-81 0 -137 -16q-50 -17 -92 -72l96 -84q15 28 43 37q24 8 96 8q41 0 86 -10q38 -12 41 -65v-35h-211q-92 0 -139 -53q-51 -51 -51 -138zM180 965q3 65 107 65h151v-35v-10 q0 -44 -24 -59q-27 -21 -117 -21q-43 0 -78 15q-15 6 -24 18q-15 12 -15 27z" />
<glyph unicode="&#xab;" horiz-adv-x="827" d="M53 530l383 -389v195l-196 194l196 193v197zM408 530l380 -389v195l-198 194l198 193v197z" />
<glyph unicode="&#xac;" horiz-adv-x="1071" d="M74 602h800v-399h146v551h-946v-152z" />
<glyph unicode="&#xad;" horiz-adv-x="784" d="M104 434h580v197h-580v-197z" />
<glyph unicode="&#xae;" horiz-adv-x="1521" d="M94 682q3 -300 201 -492q185 -203 477 -206q290 3 481 206q194 194 197 492q-3 298 -197 498q-193 199 -481 202q-290 -3 -477 -202q-198 -204 -201 -498zM242 682q0 248 151 405q146 155 379 158q231 -3 383 -158q147 -153 150 -405q-3 -242 -150 -401 q-151 -160 -383 -160q-234 0 -379 160q-151 157 -151 401zM516 293h135v332h76l229 -332h156l-227 336q82 9 145 63q54 54 57 174q0 244 -266 244h-6h-299v-817zM651 752v231h123q73 0 125 -18q52 -27 55 -99q-3 -78 -63 -98q-40 -16 -121 -16h-27h-92z" />
<glyph unicode="&#xaf;" horiz-adv-x="604" d="M39 1167h536v125h-536v-125z" />
<glyph unicode="&#xb0;" horiz-adv-x="598" d="M35 1106q3 -115 80 -195t188 -80q114 0 191 80q72 78 75 195q-3 119 -75 197q-76 76 -191 79q-112 -3 -188 -79q-77 -77 -80 -197zM129 1106q0 77 53 127q48 48 121 51q69 -3 123 -51q46 -52 49 -127q-3 -76 -49 -125q-53 -53 -123 -53q-74 0 -121 53q-53 50 -53 125z " />
<glyph unicode="&#xb1;" horiz-adv-x="1050" d="M53 -4h946v151h-946v-151zM53 541h402v-279h147v279h397v151h-397v279h-147v-279h-402v-151z" />
<glyph unicode="&#xb2;" horiz-adv-x="602" d="M35 549h536v137h-346l287 305q31 31 51 76q8 27 8 76q0 102 -73 172q-76 64 -197 67q-114 -3 -186 -69q-74 -71 -74 -189h156q9 118 112 121q44 0 80 -28q27 -27 27 -72q0 -51 -41 -92l-340 -367v-137z" />
<glyph unicode="&#xb3;" horiz-adv-x="626" d="M35 772q47 -231 268 -231h6q136 0 211 69q75 72 78 187q0 50 -25 98q-27 52 -84 80q57 35 80 80q19 46 19 92q0 92 -72 164q-74 68 -213 71q-114 -3 -184 -67q-71 -65 -80 -172h156q33 102 127 102q43 0 79 -28q31 -28 31 -72q0 -52 -35 -76q-42 -31 -102 -31h-59v-127 h71q55 0 96 -30q37 -34 37 -88q0 -57 -32 -82q-36 -31 -91 -31q-100 3 -127 92h-155z" />
<glyph unicode="&#xb4;" horiz-adv-x="473" d="M27 1100h157l265 282h-248z" />
<glyph unicode="&#xb5;" horiz-adv-x="868" d="M72 -401h190v413q67 -28 127 -28q151 0 246 114h2v-102h192v977h-192v-582q0 -104 -51 -155q-53 -56 -135 -56q-83 0 -136 56q-53 59 -53 155v582h-190v-1374z" />
<glyph unicode="&#xb6;" horiz-adv-x="929" d="M55 999q3 -155 113 -251q107 -104 281 -107v-1003h147v1607h143v-1607h146v1732h-398q-423 0 -432 -371z" />
<glyph unicode="&#xb7;" horiz-adv-x="290" d="M27 559q0 -54 36 -90q33 -39 89 -39q57 0 90 39q37 37 37 90q0 55 -37 92t-90 37q-55 0 -89 -37q-36 -36 -36 -92z" />
<glyph unicode="&#xb8;" horiz-adv-x="475" d="M35 -395q91 -45 188 -45q100 0 162 45q65 47 68 137q0 61 -43 104q-47 41 -121 41q-30 0 -51 -6h-5l82 115h-94l-123 -170l45 -37q38 23 64 23h8q41 0 66 -19q28 -16 28 -53q-6 -84 -110 -84q-64 3 -131 31z" />
<glyph unicode="&#xb9;" horiz-adv-x="413" d="M61 1126l123 86v-663h158v825h-158l-123 -84v-164z" />
<glyph unicode="&#xba;" horiz-adv-x="612" d="M33 1081q0 -90 14 -131q9 -48 45 -84q80 -86 217 -86q132 0 215 86q37 37 49 84q11 64 11 131q0 69 -11 133q-13 43 -49 82q-83 86 -213 86q-139 0 -219 -86q-36 -36 -45 -82q-14 -46 -14 -133zM178 1053q0 4 1 13.5t1 14.5q0 46 4 78q3 29 23 49q35 44 104 47 q64 -3 99 -47q30 -40 30 -127q0 -45 -4 -77q-7 -27 -26 -52q-35 -47 -101 -47q-67 0 -102 47q-29 37 -29 101z" />
<glyph unicode="&#xbb;" horiz-adv-x="815" d="M43 141l381 389l-381 390v-197l190 -193l-190 -194v-195zM395 141l381 389l-381 390v-197l191 -193l-191 -194v-195z" />
<glyph unicode="&#xbc;" horiz-adv-x="1337" d="M82 1126l123 86v-663h155v825h-155l-123 -84v-164zM168 -39h123l807 1442h-125zM688 115h369v-119h155v119h64v137h-64v215h-155v-215h-205l285 563h-158l-291 -563v-137z" />
<glyph unicode="&#xbd;" horiz-adv-x="1351" d="M82 1126l123 86v-663h155v825h-155l-123 -84v-164zM119 -39h127l813 1442h-131zM748 -4h538v137h-350l289 303q38 42 51 76q10 45 10 78q0 99 -74 170q-76 64 -198 67q-117 -3 -183 -69q-77 -74 -77 -189h155q9 116 111 119q55 0 82 -24q26 -26 26 -74q0 -53 -41 -94 l-339 -363v-137z" />
<glyph unicode="&#xbe;" horiz-adv-x="1439" d="M90 772q46 -231 270 -231h7q136 0 211 69q74 71 77 187q0 46 -22 98q-26 45 -86 80q60 35 80 80q18 47 18 92q0 93 -74 164q-68 68 -211 71q-115 -3 -182 -67q-72 -66 -84 -172h158q16 52 49 78q37 24 78 24q46 0 82 -28q28 -28 28 -72q0 -53 -36 -76q-42 -31 -99 -31 h-61v-127h72q59 0 96 -30q36 -36 39 -88q-3 -52 -33 -82q-36 -31 -92 -31q-97 3 -127 92h-158zM315 -39h127l809 1442h-125zM786 115h367v-119h158v119h59v137h-59v215h-158v-215h-205l285 563h-158l-289 -563v-137z" />
<glyph unicode="&#xbf;" horiz-adv-x="817" d="M63 -41q3 -166 113 -270q107 -98 250 -101q144 3 248 107q101 104 104 262v39h-190q-3 -115 -49 -164q-53 -47 -125 -47q-58 3 -105 47q-55 46 -55 123q0 63 49 127l172 240q25 33 43 90q6 46 6 96v129h-190v-113v-10q0 -64 -33 -111l-176 -243q-62 -80 -62 -201z M334 778h190v195h-190v-195z" />
<glyph unicode="&#xc0;" horiz-adv-x="1200" d="M2 0h219l109 311h520l106 -311h218l-500 1372h-170zM389 1753l266 -282h156l-170 282h-252zM391 494q41 113 68.5 192t40.5 119t40 125.5t50 156.5q53 -169 198 -593h-397z" />
<glyph unicode="&#xc1;" horiz-adv-x="1200" d="M2 0h219l109 311h520l106 -311h218l-500 1372h-170zM389 1471h157l265 282h-248zM391 494q41 113 68.5 192t40.5 119t40 125.5t50 156.5q53 -169 198 -593h-397z" />
<glyph unicode="&#xc2;" horiz-adv-x="1200" d="M2 0h219l109 311h520l106 -311h218l-500 1372h-170zM303 1528h150l143 196l147 -196h152l-213 280h-164zM391 494q41 113 68.5 192t40.5 119t40 125.5t50 156.5q53 -169 198 -593h-397z" />
<glyph unicode="&#xc3;" horiz-adv-x="1200" d="M2 0h219l109 311h520l106 -311h218l-500 1372h-170zM264 1491h113q0 46 31 68q25 14 49 14q60 -3 129 -37q12 -3 35 -10t34 -10q30 -15 72 -15q91 0 143 70q46 64 62 156h-113q-9 -51 -33 -68q-24 -18 -49 -18h-6q-30 0 -55 14q-28 9 -64 25q-24 15 -65 24q-38 10 -70 10 q-85 0 -141 -59q-57 -63 -72 -164zM391 494q41 113 68.5 192t40.5 119t40 125.5t50 156.5q53 -169 198 -593h-397z" />
<glyph unicode="&#xc4;" horiz-adv-x="1200" d="M2 0h219l109 311h520l106 -311h218l-500 1372h-170zM328 1563h207v207h-207v-207zM391 494q41 113 68.5 192t40.5 119t40 125.5t50 156.5q53 -169 198 -593h-397zM666 1563h209v207h-209v-207z" />
<glyph unicode="&#xc5;" horiz-adv-x="1200" d="M2 0h219l109 311h520l106 -311h218l-500 1372h-170zM389 1693q0 -86 61.5 -148.5t147.5 -62.5q88 0 150.5 62.5t62.5 148.5t-63.5 148.5t-149.5 62.5q-81 0 -145 -62.5t-64 -148.5zM391 494q41 113 68.5 192t40.5 119t40 125.5t50 156.5q53 -169 198 -593h-397zM473 1693 q0 53 36.5 90t88.5 37q54 0 90.5 -36.5t36.5 -90.5q0 -51 -36.5 -87.5t-90.5 -36.5q-51 0 -88 36.5t-37 87.5z" />
<glyph unicode="&#xc6;" horiz-adv-x="1280" d="M33 0h190l103 324h262v-324h629v186h-449v449h270v184h-270v367h424v186h-694zM383 506l129 399q59 190 80 264q-4 -184 -4 -245v-418h-205z" />
<glyph unicode="&#xc7;" horiz-adv-x="1071" d="M100 684q0 -239 13 -319q13 -74 47 -132q54 -94 157 -167q116 -78 273 -78q181 0 311.5 103t169.5 290h-219q-88 -186 -262 -186q-70 0 -125 28t-88 72q-38 50 -53 115q-15 59 -15 274q0 216 15 274q15 65 53 115q33 45 88 73t125 28q94 0 165 -57.5t97 -141.5h219 q-35 168 -160 287q-126 120 -321 120q-163 0 -273 -79q-102 -72 -157 -168q-35 -59 -47 -131q-13 -76 -13 -320zM326 -395q91 -45 188 -45q100 0 162 45q65 47 68 137q0 61 -43 104q-47 41 -121 41q-30 0 -51 -6h-5l82 115h-94l-123 -170l45 -37q38 23 64 23h8q41 0 66 -19 q28 -16 28 -53q-6 -84 -110 -84q-64 3 -131 31z" />
<glyph unicode="&#xc8;" horiz-adv-x="1071" d="M147 0h877v195h-670v403h570v184h-570v392h670v196h-877v-1370zM324 1753l266 -282h156l-170 282h-252z" />
<glyph unicode="&#xc9;" horiz-adv-x="1071" d="M147 0h877v195h-670v403h570v184h-570v392h670v196h-877v-1370zM324 1471h157l265 282h-248z" />
<glyph unicode="&#xca;" horiz-adv-x="1071" d="M147 0h877v195h-670v403h570v184h-570v392h670v196h-877v-1370zM239 1528h150l143 196l147 -196h152l-213 280h-164z" />
<glyph unicode="&#xcb;" horiz-adv-x="1071" d="M147 0h877v195h-670v403h570v184h-570v392h670v196h-877v-1370zM262 1563h207v207h-207v-207zM600 1563h209v207h-209v-207z" />
<glyph unicode="&#xcc;" horiz-adv-x="497" d="M37 1753l266 -282h156l-170 282h-252zM147 0h207v1370h-207v-1370z" />
<glyph unicode="&#xcd;" horiz-adv-x="497" d="M37 1471h157l265 282h-248zM147 0h207v1370h-207v-1370z" />
<glyph unicode="&#xce;" horiz-adv-x="497" d="M-47 1528h150l143 196l147 -196h152l-213 280h-164zM147 0h207v1370h-207v-1370z" />
<glyph unicode="&#xcf;" horiz-adv-x="497" d="M-24 1563h207v207h-207v-207zM147 0h207v1370h-207v-1370zM314 1563h209v207h-209v-207z" />
<glyph unicode="&#xd0;" horiz-adv-x="948" d="M-2 618h102v-618h342q83 0 136 16q91 31 151.5 101t104.5 213q45 142 45 358q0 369 -148 555q-59 72 -137 96q-58 21 -168 21h-326v-619h-102v-123zM227 160v458h256v123h-256v459h197q97 0 146.5 -22t91.5 -80q88 -122 88 -408q0 -299 -95 -434q-63 -96 -229 -96h-199z " />
<glyph unicode="&#xd1;" horiz-adv-x="1318" d="M147 0h207v973h4l621 -973h197v1370h-211v-975l-621 975h-197v-1370zM325 1491h113q0 46 31 68q25 14 49 14q60 -3 129 -37q11 -3 34 -10t35 -10q30 -15 72 -15q91 0 143 70q46 64 62 156h-113q-9 -51 -33 -68q-24 -18 -49 -18h-6q-30 0 -55 14q-28 9 -64 25 q-24 15 -65 24q-38 10 -70 10q-85 0 -141 -59q-57 -63 -72 -164z" />
<glyph unicode="&#xd2;" horiz-adv-x="1175" d="M100 684q0 -239 13 -319q13 -74 47 -132q54 -94 157 -167q116 -78 273 -78q158 0 268 78q106 73 162 167q32 52 45 132q14 66 14 319q0 260 -14 320q-12 78 -45 131q-57 95 -162 168q-107 79 -268 79q-163 0 -273 -79q-102 -72 -157 -168q-35 -59 -47 -131 q-13 -76 -13 -320zM309 684q0 216 15 274q15 65 53 115q33 45 88 73t125 28q132 0 211 -101q39 -51 55 -115q14 -55 14 -274t-14 -274q-16 -64 -55 -115q-78 -100 -211 -100q-70 0 -125 28t-88 72q-38 50 -53 115q-15 59 -15 274zM375 1753l266 -282h156l-170 282h-252z" />
<glyph unicode="&#xd3;" horiz-adv-x="1175" d="M100 684q0 -239 13 -319q13 -74 47 -132q54 -94 157 -167q116 -78 273 -78q158 0 268 78q106 73 162 167q32 52 45 132q14 66 14 319q0 260 -14 320q-12 78 -45 131q-57 95 -162 168q-107 79 -268 79q-163 0 -273 -79q-102 -72 -157 -168q-35 -59 -47 -131 q-13 -76 -13 -320zM309 684q0 216 15 274q15 65 53 115q33 45 88 73t125 28q132 0 211 -101q39 -51 55 -115q14 -55 14 -274t-14 -274q-16 -64 -55 -115q-78 -100 -211 -100q-70 0 -125 28t-88 72q-38 50 -53 115q-15 59 -15 274zM375 1471h157l265 282h-248z" />
<glyph unicode="&#xd4;" horiz-adv-x="1175" d="M100 684q0 -239 13 -319q13 -74 47 -132q54 -94 157 -167q116 -78 273 -78q158 0 268 78q106 73 162 167q32 52 45 132q14 66 14 319q0 260 -14 320q-12 78 -45 131q-57 95 -162 168q-107 79 -268 79q-163 0 -273 -79q-102 -72 -157 -168q-35 -59 -47 -131 q-13 -76 -13 -320zM291 1528h150l143 196l147 -196h152l-213 280h-164zM309 684q0 216 15 274q15 65 53 115q33 45 88 73t125 28q132 0 211 -101q39 -51 55 -115q14 -55 14 -274t-14 -274q-16 -64 -55 -115q-78 -100 -211 -100q-70 0 -125 28t-88 72q-38 50 -53 115 q-15 59 -15 274z" />
<glyph unicode="&#xd5;" horiz-adv-x="1175" d="M100 684q0 -239 13 -319q13 -74 47 -132q54 -94 157 -167q116 -78 273 -78q158 0 268 78q106 73 162 167q32 52 45 132q14 66 14 319q0 260 -14 320q-12 78 -45 131q-57 95 -162 168q-107 79 -268 79q-163 0 -273 -79q-102 -72 -157 -168q-35 -59 -47 -131 q-13 -76 -13 -320zM254 1491h113q0 46 31 68q25 14 49 14q60 -3 129 -37q11 -3 34 -10t35 -10q30 -15 72 -15q91 0 143 70q46 64 62 156h-113q-9 -51 -33 -68q-24 -18 -49 -18h-6q-30 0 -55 14q-28 9 -64 25q-24 15 -65 24q-38 10 -70 10q-85 0 -141 -59q-57 -63 -72 -164z M309 684q0 216 15 274q15 65 53 115q33 45 88 73t125 28q132 0 211 -101q39 -51 55 -115q14 -55 14 -274t-14 -274q-16 -64 -55 -115q-78 -100 -211 -100q-70 0 -125 28t-88 72q-38 50 -53 115q-15 59 -15 274z" />
<glyph unicode="&#xd6;" horiz-adv-x="1175" d="M100 684q0 -239 13 -319q13 -74 47 -132q54 -94 157 -167q116 -78 273 -78q158 0 268 78q106 73 162 167q32 52 45 132q14 66 14 319q0 260 -14 320q-12 78 -45 131q-57 95 -162 168q-107 79 -268 79q-163 0 -273 -79q-102 -72 -157 -168q-35 -59 -47 -131 q-13 -76 -13 -320zM309 684q0 216 15 274q15 65 53 115q33 45 88 73t125 28q132 0 211 -101q39 -51 55 -115q14 -55 14 -274t-14 -274q-16 -64 -55 -115q-78 -100 -211 -100q-70 0 -125 28t-88 72q-38 50 -53 115q-15 59 -15 274zM316 1563h207v207h-207v-207zM654 1563h209 v207h-209v-207z" />
<glyph unicode="&#xd7;" horiz-adv-x="970" d="M53 143l105 -108l331 346l332 -346l105 108l-348 340l348 346l-105 105l-332 -344l-331 344l-105 -105l336 -346z" />
<glyph unicode="&#xd8;" horiz-adv-x="1175" d="M100 684q0 -239 13 -319q13 -74 47 -132q54 -94 157 -167q116 -78 273 -78q158 0 268 78q106 73 162 167q32 52 45 132q14 66 14 319q0 260 -14 320q-12 78 -45 131q-57 95 -162 168q-107 79 -268 79q-163 0 -273 -79q-102 -72 -157 -168q-35 -59 -47 -131 q-13 -76 -13 -320zM280 -12h152l461 1394h-152zM309 684q0 216 15 274q15 65 53 115q33 45 88 73t125 28q132 0 211 -101q39 -51 55 -115q14 -55 14 -274t-14 -274q-16 -64 -55 -115q-78 -100 -211 -100q-70 0 -125 28t-88 72q-38 50 -53 115q-15 59 -15 274z" />
<glyph unicode="&#xd9;" horiz-adv-x="1214" d="M121 463q0 -214 141 -346q144 -129 346 -129q203 0 344 129q144 132 144 346v907h-207v-885q0 -138 -79 -214t-202 -76t-200.5 76.5t-77.5 213.5v885h-209v-907zM396 1753l266 -282h156l-170 282h-252z" />
<glyph unicode="&#xda;" horiz-adv-x="1214" d="M121 463q0 -214 141 -346q144 -129 346 -129q203 0 344 129q144 132 144 346v907h-207v-885q0 -138 -79 -214t-202 -76t-200.5 76.5t-77.5 213.5v885h-209v-907zM396 1471h157l265 282h-248z" />
<glyph unicode="&#xdb;" horiz-adv-x="1214" d="M121 463q0 -214 141 -346q144 -129 346 -129q203 0 344 129q144 132 144 346v907h-207v-885q0 -138 -79 -214t-202 -76t-200.5 76.5t-77.5 213.5v885h-209v-907zM311 1528h150l143 196l147 -196h152l-213 280h-164z" />
<glyph unicode="&#xdc;" horiz-adv-x="1214" d="M121 463q0 -214 141 -346q144 -129 346 -129q203 0 344 129q144 132 144 346v907h-207v-885q0 -138 -79 -214t-202 -76t-200.5 76.5t-77.5 213.5v885h-209v-907zM336 1464h207v209h-207v-209zM674 1464h209v209h-209v-209z" />
<glyph unicode="&#xdd;" horiz-adv-x="964" d="M-27 1370l412 -807v-563h197v563l413 807h-221l-291 -608l-290 608h-220zM271 1471h157l265 282h-248z" />
<glyph unicode="&#xde;" horiz-adv-x="874" d="M100 0h127v276h238q202 0 276 121q76 119 76 293q-2 159 -58.5 260.5t-160.5 118.5q-43 14 -141 14h-230v277h-127v-1360zM227 436v488h238q87 0 117 -15q50 -19 80 -79.5t30 -145.5q0 -123 -53 -185.5t-172 -62.5h-240z" />
<glyph unicode="&#xdf;" horiz-adv-x="1034" d="M125 0h197v1061q2 64 44.5 94t149.5 31h16q107 0 154 -41q31 -28 31 -105q0 -112 -105 -112h-116v-187h112q109 0 109 -112v-344q0 -103 -127 -103h-70v-182h121q121 0 196.5 78.5t75.5 197.5v349q0 157 -141 213q141 62 141 219q0 147 -104.5 236t-271.5 89 q-187 0 -299.5 -81.5t-112.5 -239.5v-1061z" />
<glyph unicode="&#xe0;" d="M74 281q0 -125 90 -209q85 -85 244 -88q94 0 153 24q53 21 80 74h4v-86h191v670q-3 174 -107 252q-106 69 -274 69h-23q-204 0 -311 -143l151 -119q21 43 68 61q40 15 111 15h8q186 0 186 -121v-4v-105h-264q-151 0 -229 -84t-78 -206zM250 1382l266 -282h156l-170 282 h-252zM252 291v4q0 112 166 115h227v-70q0 -111 -43 -141q-48 -31 -151 -31h-19q-98 0 -137 39q-43 37 -43 84z" />
<glyph unicode="&#xe1;" d="M74 281q0 -125 90 -209q85 -85 244 -88q94 0 153 24q53 21 80 74h4v-86h191v670q-3 174 -107 252q-106 69 -274 69h-23q-204 0 -311 -143l151 -119q21 43 68 61q40 15 111 15h8q186 0 186 -121v-4v-105h-264q-151 0 -229 -84t-78 -206zM250 1100h157l265 282h-248z M252 291v4q0 112 166 115h227v-70q0 -111 -43 -141q-48 -31 -151 -31h-19q-98 0 -137 39q-43 37 -43 84z" />
<glyph unicode="&#xe2;" d="M74 281q0 -125 90 -209q85 -85 244 -88q94 0 153 24q53 21 80 74h4v-86h191v670q-3 174 -107 252q-106 69 -274 69h-23q-204 0 -311 -143l151 -119q21 43 68 61q40 15 111 15h8q186 0 186 -121v-4v-105h-264q-151 0 -229 -84t-78 -206zM168 1133h150l143 196l147 -196 h152l-213 280h-164zM252 291v4q0 112 166 115h227v-70q0 -111 -43 -141q-48 -31 -151 -31h-19q-98 0 -137 39q-43 37 -43 84z" />
<glyph unicode="&#xe3;" d="M74 281q0 -125 90 -209q85 -85 244 -88q94 0 153 24q53 21 80 74h4v-86h191v670q-3 174 -107 252q-106 69 -274 69h-23q-204 0 -311 -143l151 -119q21 43 68 61q40 15 111 15h8q186 0 186 -121v-4v-105h-264q-151 0 -229 -84t-78 -206zM129 1120h113q0 46 31 68 q25 14 49 14q60 -3 129 -37q11 -3 34 -10t35 -10q30 -15 72 -15q91 0 143 70q46 64 62 156h-113q-9 -51 -33 -68q-24 -18 -49 -18h-6q-30 0 -55 14q-28 9 -64 25q-24 15 -65 24q-38 10 -70 10q-85 0 -141 -59q-57 -63 -72 -164zM252 291v4q0 112 166 115h227v-70 q0 -111 -43 -141q-48 -31 -151 -31h-19q-98 0 -137 39q-43 37 -43 84z" />
<glyph unicode="&#xe4;" d="M74 281q0 -125 90 -209q85 -85 244 -88q94 0 153 24q53 21 80 74h4v-86h191v670q-3 174 -107 252q-106 69 -274 69h-23q-204 0 -311 -143l151 -119q21 43 68 61q40 15 111 15h8q186 0 186 -121v-4v-105h-264q-151 0 -229 -84t-78 -206zM189 1192h207v207h-207v-207z M252 291v4q0 112 166 115h227v-70q0 -111 -43 -141q-48 -31 -151 -31h-19q-98 0 -137 39q-43 37 -43 84zM527 1192h209v207h-209v-207z" />
<glyph unicode="&#xe5;" d="M74 281q0 -125 90 -209q85 -85 244 -88q94 0 153 24q53 21 80 74h4v-86h191v670q-3 174 -107 252q-106 69 -274 69h-23q-204 0 -311 -143l151 -119q21 43 68 61q40 15 111 15h8q186 0 186 -121v-4v-105h-264q-151 0 -229 -84t-78 -206zM252 291v4q0 112 166 115h227v-70 q0 -111 -43 -141q-48 -31 -151 -31h-19q-98 0 -137 39q-43 37 -43 84zM252 1298q0 -86 61.5 -148.5t147.5 -62.5q88 0 150.5 62.5t62.5 148.5t-63.5 148.5t-149.5 62.5q-81 0 -145 -62.5t-64 -148.5zM336 1298q0 54 37 90.5t88 36.5q54 0 90.5 -36.5t36.5 -90.5 q0 -51 -36.5 -87.5t-90.5 -36.5q-51 0 -88 36.5t-37 87.5z" />
<glyph unicode="&#xe6;" horiz-adv-x="1312" d="M59 324q0 -170 82 -258q77 -89 193 -89q177 0 303 150q85 -150 258 -150q179 0 299 138l-113 121q-76 -76 -182 -76q-172 0 -190 291h528q2 14 2 67q0 258 -102 402q-94 131 -252 131q-146 0 -226 -121q-37 65 -79 90q-57 31 -162 31q-139 0 -283 -99l78 -143 q109 65 197 65q131 0 131 -147v-100q-75 35 -154 35q-145 0 -235 -87q-93 -90 -93 -251zM244 328q0 161 145 161q91 0 152 -38v-205q-53 -96 -170 -96q-127 0 -127 178zM711 614q24 260 170 260q74 0 119.5 -71t50.5 -189h-340z" />
<glyph unicode="&#xe7;" horiz-adv-x="856" d="M53 485q0 -270 137 -383q138 -114 308 -114q206 0 350 168l-146 129q-83 -103 -196 -103q-256 0 -256 303q0 306 256 306q113 0 196 -103l146 129q-146 170 -350 170q-170 0 -308 -117q-137 -113 -137 -385zM217 -395q91 -45 188 -45q100 0 162 45q65 47 68 137 q0 61 -43 104q-47 41 -121 41q-30 0 -51 -6h-5l82 115h-94l-123 -170l45 -37q38 23 64 23h8q41 0 66 -19q28 -16 28 -53q-6 -84 -110 -84q-64 3 -131 31z" />
<glyph unicode="&#xe8;" horiz-adv-x="964" d="M82 483q0 -299 139 -399q146 -96 293 -96q221 0 352 157l-141 121q-91 -94 -215 -94q-107 0 -169 62t-62 178h606v161q0 189 -121 301q-119 113 -281 113q-141 0 -272 -110q-129 -108 -129 -394zM271 1382l266 -282h156l-170 282h-252zM279 573q1 107 58 167.5t146 60.5 t145 -60t62 -168h-411z" />
<glyph unicode="&#xe9;" horiz-adv-x="964" d="M82 483q0 -299 139 -399q146 -96 293 -96q221 0 352 157l-141 121q-91 -94 -215 -94q-107 0 -169 62t-62 178h606v161q0 189 -121 301q-119 113 -281 113q-141 0 -272 -110q-129 -108 -129 -394zM271 1100h157l265 282h-248zM279 573q1 107 58 167.5t146 60.5t145 -60 t62 -168h-411z" />
<glyph unicode="&#xea;" horiz-adv-x="964" d="M82 483q0 -299 139 -399q146 -96 293 -96q221 0 352 157l-141 121q-91 -94 -215 -94q-107 0 -169 62t-62 178h606v161q0 189 -121 301q-119 113 -281 113q-141 0 -272 -110q-129 -108 -129 -394zM186 1133h150l143 196l147 -196h152l-213 280h-164zM279 573 q1 107 58 167.5t146 60.5t145 -60t62 -168h-411z" />
<glyph unicode="&#xeb;" horiz-adv-x="964" d="M82 483q0 -299 139 -399q146 -96 293 -96q221 0 352 157l-141 121q-91 -94 -215 -94q-107 0 -169 62t-62 178h606v161q0 189 -121 301q-119 113 -281 113q-141 0 -272 -110q-129 -108 -129 -394zM209 1192h207v207h-207v-207zM279 573q1 107 58 167.5t146 60.5t145 -60 t62 -168h-411zM547 1192h209v207h-209v-207z" />
<glyph unicode="&#xec;" horiz-adv-x="462" d="M21 1382l266 -282h156l-170 282h-252zM135 0h197v975h-197v-975z" />
<glyph unicode="&#xed;" horiz-adv-x="462" d="M21 1100h157l265 282h-248zM135 0h197v975h-197v-975z" />
<glyph unicode="&#xee;" horiz-adv-x="462" d="M-64 1133h150l143 196l147 -196h152l-213 280h-164zM135 0h197v975h-197v-975z" />
<glyph unicode="&#xef;" horiz-adv-x="462" d="M-41 1192h207v207h-207v-207zM135 0h197v975h-197v-975zM297 1192h209v207h-209v-207z" />
<glyph unicode="&#xf0;" horiz-adv-x="731" d="M47 479q0 -199 59 -323q89 -179 254 -179q139 0 228 136q90 140 90 370q0 362 -207 705l111 78l-29 94l-135 -94q-24 32 -82 94h-139q74 -74 135 -152l-158 -100l31 -96l178 116q34 -55 49 -92q25 -58 39 -106q-38 32 -67 43.5t-68 11.5q-128 0 -208.5 -133.5 t-80.5 -372.5zM166 475q0 190 51.5 285.5t140.5 95.5t144 -94.5t55 -269.5q0 -179 -55.5 -278t-141.5 -99q-89 0 -141.5 92.5t-52.5 267.5z" />
<glyph unicode="&#xf1;" horiz-adv-x="1034" d="M129 0h197v580q0 98 53 154.5t141 56.5q84 0 138.5 -57t54.5 -154v-580h196v647q0 168 -106 252q-101 88 -219 88q-166 0 -254 -117h-4v105h-197v-975zM182 1120h113q0 46 31 68q25 14 49 14q60 -3 129 -37q11 -3 34 -10t35 -10q30 -15 72 -15q91 0 143 70q46 64 62 156 h-113q-9 -51 -33 -68q-24 -18 -49 -18h-6q-30 0 -55 14q-28 9 -64 25q-24 15 -65 24q-38 10 -70 10q-85 0 -141 -59q-57 -63 -72 -164z" />
<glyph unicode="&#xf2;" horiz-adv-x="964" d="M82 487q0 -154 22 -237q25 -80 82 -137q117 -125 297 -125t297 125q57 63 80 137q25 80 25 237q0 156 -25 236q-24 77 -80 139q-121 125 -297 125t-297 -125q-57 -57 -82 -139q-22 -83 -22 -236zM271 1382l266 -282h156l-170 282h-252zM279 487q0 112 7.5 150t39.5 82 q51 72 157 72q104 0 158 -72q33 -49 39 -82q10 -52 10 -152q0 -97 -10 -149q-6 -33 -39 -82q-54 -72 -158 -72q-106 0 -157 72q-33 49 -39 82q-8 36 -8 151z" />
<glyph unicode="&#xf3;" horiz-adv-x="964" d="M82 487q0 -154 22 -237q25 -80 82 -137q117 -125 297 -125t297 125q57 63 80 137q25 80 25 237q0 156 -25 236q-24 77 -80 139q-121 125 -297 125t-297 -125q-57 -57 -82 -139q-22 -83 -22 -236zM271 1100h157l265 282h-248zM279 487q0 112 7.5 150t39.5 82q51 72 157 72 q104 0 158 -72q33 -49 39 -82q10 -52 10 -152q0 -97 -10 -149q-6 -33 -39 -82q-54 -72 -158 -72q-106 0 -157 72q-33 49 -39 82q-8 36 -8 151z" />
<glyph unicode="&#xf4;" horiz-adv-x="964" d="M82 487q0 -154 22 -237q25 -80 82 -137q117 -125 297 -125t297 125q57 63 80 137q25 80 25 237q0 156 -25 236q-24 77 -80 139q-121 125 -297 125t-297 -125q-57 -57 -82 -139q-22 -83 -22 -236zM186 1133h150l143 196l147 -196h152l-213 280h-164zM279 487 q0 112 7.5 150t39.5 82q51 72 157 72q104 0 158 -72q33 -49 39 -82q10 -52 10 -152q0 -97 -10 -149q-6 -33 -39 -82q-54 -72 -158 -72q-106 0 -157 72q-33 49 -39 82q-8 36 -8 151z" />
<glyph unicode="&#xf5;" horiz-adv-x="964" d="M82 487q0 -154 22 -237q25 -80 82 -137q117 -125 297 -125t297 125q57 63 80 137q25 80 25 237q0 156 -25 236q-24 77 -80 139q-121 125 -297 125t-297 -125q-57 -57 -82 -139q-22 -83 -22 -236zM147 1120h113q0 46 31 68q25 14 49 14q60 -3 129 -37q12 -3 35 -10t34 -10 q30 -15 72 -15q91 0 143 70q46 64 62 156h-113q-9 -51 -33 -68q-24 -18 -49 -18h-6q-30 0 -55 14q-28 9 -64 25q-24 15 -65 24q-38 10 -70 10q-85 0 -141 -59q-57 -63 -72 -164zM279 487q0 112 7.5 150t39.5 82q51 72 157 72q104 0 158 -72q33 -49 39 -82q10 -52 10 -152 q0 -97 -10 -149q-6 -33 -39 -82q-54 -72 -158 -72q-106 0 -157 72q-33 49 -39 82q-8 36 -8 151z" />
<glyph unicode="&#xf6;" horiz-adv-x="964" d="M82 487q0 -154 22 -237q25 -80 82 -137q117 -125 297 -125t297 125q57 63 80 137q25 80 25 237q0 156 -25 236q-24 77 -80 139q-121 125 -297 125t-297 -125q-57 -57 -82 -139q-22 -83 -22 -236zM209 1192h207v207h-207v-207zM279 487q0 112 7.5 150t39.5 82 q51 72 157 72q104 0 158 -72q33 -49 39 -82q10 -52 10 -152q0 -97 -10 -149q-6 -33 -39 -82q-54 -72 -158 -72q-106 0 -157 72q-33 49 -39 82q-8 36 -8 151zM547 1192h209v207h-209v-207z" />
<glyph unicode="&#xf7;" horiz-adv-x="1071" d="M74 408h948v151h-948v-151zM422 82q0 -54 37 -88q36 -36 88 -39q54 3 90 39q35 35 35 88q0 59 -35 94q-34 37 -90 37q-54 0 -88 -37q-37 -37 -37 -94zM422 883q0 -51 37 -88q33 -39 88 -39q57 0 90 39q35 41 35 88q0 51 -35 92q-34 37 -90 37q-54 0 -88 -37 q-37 -37 -37 -92z" />
<glyph unicode="&#xf8;" horiz-adv-x="964" d="M82 487q0 -154 22 -237q25 -80 82 -137q117 -125 297 -125t297 125q57 63 80 137q25 80 25 237q0 156 -25 236q-24 77 -80 139q-121 125 -297 125t-297 -125q-57 -57 -82 -139q-22 -83 -22 -236zM176 -12h150l456 987h-149zM279 487q0 112 7.5 150t39.5 82q51 72 157 72 q104 0 158 -72q33 -49 39 -82q10 -52 10 -152q0 -97 -10 -149q-6 -33 -39 -82q-54 -72 -158 -72q-106 0 -157 72q-33 49 -39 82q-8 36 -8 151z" />
<glyph unicode="&#xf9;" horiz-adv-x="1034" d="M129 326q0 -167 107 -252q109 -86 221 -86q161 0 252 114h4v-102h196v975h-196v-582q0 -97 -54.5 -154t-138.5 -57q-88 0 -141 56.5t-53 154.5v582h-197v-649zM306 1382l266 -282h156l-170 282h-252z" />
<glyph unicode="&#xfa;" horiz-adv-x="1034" d="M129 326q0 -167 107 -252q109 -86 221 -86q161 0 252 114h4v-102h196v975h-196v-582q0 -97 -54.5 -154t-138.5 -57q-88 0 -141 56.5t-53 154.5v582h-197v-649zM306 1100h157l265 282h-248z" />
<glyph unicode="&#xfb;" horiz-adv-x="1034" d="M129 326q0 -167 107 -252q109 -86 221 -86q161 0 252 114h4v-102h196v975h-196v-582q0 -97 -54.5 -154t-138.5 -57q-88 0 -141 56.5t-53 154.5v582h-197v-649zM221 1133h150l143 196l147 -196h152l-213 280h-164z" />
<glyph unicode="&#xfc;" horiz-adv-x="1034" d="M129 326q0 -167 107 -252q109 -86 221 -86q161 0 252 114h4v-102h196v975h-196v-582q0 -97 -54.5 -154t-138.5 -57q-88 0 -141 56.5t-53 154.5v582h-197v-649zM246 1192h207v207h-207v-207zM584 1192h209v207h-209v-207z" />
<glyph unicode="&#xfd;" horiz-adv-x="856" d="M-12 975l352 -938l-55 -162q-27 -86 -117 -86h-57v-186h65q96 0 165.5 44t109.5 150l419 1178h-206l-232 -684h-4l-231 684h-209zM215 1100h157l265 282h-248z" />
<glyph unicode="&#xfe;" horiz-adv-x="731" d="M88 -379h115v481q47 -71 80 -94q48 -31 104 -31q116 0 203.5 143t87.5 355v25v20q0 204 -79 346t-200 142h-8q-58 0 -106 -31q-36 -26 -82 -96v479h-115v-1739zM190 487q0 185 54.5 287.5t136.5 102.5q78 0 129 -96.5t51 -278.5q0 -188 -53 -286.5t-133 -98.5 t-132.5 94.5t-52.5 275.5z" />
<glyph unicode="&#xff;" horiz-adv-x="856" d="M-12 975l352 -938l-55 -162q-27 -86 -117 -86h-57v-186h65q96 0 165.5 44t109.5 150l419 1178h-206l-232 -684h-4l-231 684h-209zM156 1192h207v207h-207v-207zM494 1192h209v207h-209v-207z" />
<glyph unicode="&#x152;" horiz-adv-x="1409" d="M86 684q0 -312 96 -502q105 -205 307 -205q147 0 240 146v-123h617v186h-467v449h288v184h-288v367h442v186h-592v-131q-65 154 -237 154q-204 0 -310 -207q-96 -190 -96 -504zM279 688q0 514 208 514q111 0 170 -164q50 -139 50 -354q0 -514 -211 -514q-114 0 -170 164 q-47 143 -47 354z" />
<glyph unicode="&#x153;" horiz-adv-x="1390" d="M76 510q0 -262 98 -399q96 -134 258 -134q188 0 270 168q76 -168 271 -168q179 0 299 138l-113 121q-82 -76 -182 -76q-176 0 -191 291h527q2 14 2 67q0 259 -101 402q-94 131 -253 131q-175 0 -261 -164q-80 164 -262 164q-171 0 -266 -136q-96 -146 -96 -405zM260 514 q0 356 176 356q178 0 178 -356q0 -168 -45.5 -261t-130.5 -93q-178 0 -178 354zM788 614q21 260 168 260q77 0 122 -70.5t50 -189.5h-340z" />
<glyph unicode="&#x178;" horiz-adv-x="964" d="M-27 1370l412 -807v-563h197v563l413 807h-221l-291 -608l-290 608h-220zM209 1563h207v207h-207v-207zM547 1563h209v207h-209v-207z" />
<glyph unicode="&#x2c6;" horiz-adv-x="1028" d="M219 1133h150l143 196l147 -196h152l-213 280h-164z" />
<glyph unicode="&#x2dc;" horiz-adv-x="753" d="M49 1120h113q0 46 31 68q25 14 49 14q60 -3 129 -37q11 -3 34 -10t35 -10q30 -15 72 -15q91 0 143 70q46 64 62 156h-113q-9 -51 -33 -68q-24 -18 -49 -18h-6q-30 0 -55 14q-28 9 -64 25q-24 15 -65 24q-38 10 -70 10q-85 0 -141 -59q-57 -63 -72 -164z" />
<glyph unicode="&#x2000;" horiz-adv-x="952" />
<glyph unicode="&#x2001;" horiz-adv-x="1904" />
<glyph unicode="&#x2002;" horiz-adv-x="952" />
<glyph unicode="&#x2003;" horiz-adv-x="1904" />
<glyph unicode="&#x2004;" horiz-adv-x="634" />
<glyph unicode="&#x2005;" horiz-adv-x="476" />
<glyph unicode="&#x2006;" horiz-adv-x="317" />
<glyph unicode="&#x2007;" horiz-adv-x="317" />
<glyph unicode="&#x2008;" horiz-adv-x="238" />
<glyph unicode="&#x2009;" horiz-adv-x="380" />
<glyph unicode="&#x200a;" horiz-adv-x="105" />
<glyph unicode="&#x2010;" horiz-adv-x="784" d="M104 434h580v197h-580v-197z" />
<glyph unicode="&#x2011;" horiz-adv-x="784" d="M104 434h580v197h-580v-197z" />
<glyph unicode="&#x2012;" horiz-adv-x="784" d="M104 434h580v197h-580v-197z" />
<glyph unicode="&#x2013;" horiz-adv-x="1048" d="M63 438h934v185h-934v-185z" />
<glyph unicode="&#x2014;" horiz-adv-x="1918" d="M43 438h1872v185h-1872v-185z" />
<glyph unicode="&#x2018;" horiz-adv-x="374" d="M96 1030h189v340l-189 -143v-197z" />
<glyph unicode="&#x2019;" horiz-adv-x="374" d="M96 1030l189 144v196h-189v-340z" />
<glyph unicode="&#x201a;" horiz-adv-x="393" d="M100 -74l148 74v190h-148v-264z" />
<glyph unicode="&#x201c;" horiz-adv-x="641" d="M68 1030h190v340l-190 -143v-197zM367 1030h190v340l-190 -143v-197z" />
<glyph unicode="&#x201d;" horiz-adv-x="622" d="M78 1030l188 144v196h-188v-340zM375 1030l190 144v196h-190v-340z" />
<glyph unicode="&#x201e;" horiz-adv-x="587" d="M100 -74l148 74v190h-148v-264zM346 -74l146 74v190h-146v-264z" />
<glyph unicode="&#x2022;" horiz-adv-x="765" d="M63 682q0 -143 99 -242q93 -97 235 -100q143 3 236 100q93 96 96 242q-3 148 -96 244q-93 97 -236 100q-142 -3 -235 -100q-99 -94 -99 -244z" />
<glyph unicode="&#x2026;" horiz-adv-x="1181" d="M98 0h197v195h-197v-195zM492 0h198v195h-198v-195zM887 0h194v195h-194v-195z" />
<glyph unicode="&#x202f;" horiz-adv-x="380" />
<glyph unicode="&#x2039;" horiz-adv-x="487" d="M109 418l245 -252v170l-155 170l155 176v166l-245 -256v-174z" />
<glyph unicode="&#x203a;" horiz-adv-x="487" d="M133 166l248 256v176l-248 252v-170l156 -170l-156 -180v-164z" />
<glyph unicode="&#x205f;" horiz-adv-x="476" />
<glyph unicode="&#x20ac;" horiz-adv-x="1529" d="M80 496h223q53 -232 236 -369q183 -133 419 -133q125 0 244.5 43t198.5 108v166q-77 -90 -190.5 -142t-245.5 -52q-189 0 -330 102.5t-195 276.5h705l59 125h-790q-1 12 -2 26t-1.5 21.5t-0.5 11.5t0.5 12t1.5 23t2 28h846l61 125h-881q48 159 185 267q138 108 321 108 q141 0 258.5 -55t196.5 -146l55 119q-78 97 -215 150q-134 55 -276 55q-237 0 -426 -133q-183 -131 -236 -365h-164l-59 -125h199q-3 -24 -3 -61t3 -61h-140z" />
<glyph unicode="&#x2122;" horiz-adv-x="1802" d="M82 1233h229v-660h146v660h233v137h-608v-137zM829 573h144v648h4l248 -648h96l246 648h4v-648h145v797h-229l-215 -588l-215 588h-228v-797z" />
<glyph unicode="&#x25fc;" horiz-adv-x="972" d="M0 0v973h973v-973h-973z" />
<glyph unicode="&#xfb01;" horiz-adv-x="999" d="M61 825h99v-825h196v825h197v150h-197v129q0 82 84 82h113v184h-127q-122 0 -194 -67t-72 -199v-129h-99v-150zM672 0h196v975h-196v-975zM672 1174h196v196h-196v-196z" />
<glyph unicode="&#xfb02;" horiz-adv-x="1034" d="M61 825h99v-825h196v825h197v150h-197v129q0 82 84 82h113v184h-127q-122 0 -194 -67t-72 -199v-129h-99v-150zM666 236q0 -123 68 -179.5t181 -56.5h89v182h-68q-74 0 -74 68v1120h-196v-1134z" />
<glyph unicode="&#xfb03;" horiz-adv-x="1536" d="M61 825h99v-825h196v825h197v150h-197v129q0 82 84 82h113v184h-127q-122 0 -194 -67t-72 -199v-129h-99v-150zM598 825h98v-825h197v825h197v150h-197v129q0 82 84 82h113v184h-127q-122 0 -194.5 -67t-72.5 -199v-129h-98v-150zM1208 0h197v975h-197v-975zM1208 1174 h197v196h-197v-196z" />
<glyph unicode="&#xfb04;" horiz-adv-x="1570" d="M61 825h99v-825h196v825h197v150h-197v129q0 82 84 82h113v184h-127q-122 0 -194 -67t-72 -199v-129h-99v-150zM598 825h98v-825h197v825h197v150h-197v129q0 82 84 82h113v184h-127q-122 0 -194.5 -67t-72.5 -199v-129h-98v-150zM1202 236q0 -123 68.5 -179.5 t181.5 -56.5h88v182h-67q-74 0 -74 68v1120h-197v-1134z" />
</font>
</defs>
</svg>
