<?xml version="1.0" standalone="no"?>
<!DOCTYPE svg PUBLIC "-//W3C//DTD SVG 1.1//EN" "http://www.w3.org/Graphics/SVG/1.1/DTD/svg11.dtd" >
<svg xmlns="http://www.w3.org/2000/svg" xmlns:xlink="http://www.w3.org/1999/xlink" version="1.1">
<metadata>
Created by FontForge 20170731 at Sun Oct 20 04:39:05 2002
 By Aleksey,,,
Copyright (c) Terminal Design, Inc, 2002. All rights reserved.
</metadata>
<defs>
<font id="ClearviewHwy-One-B" horiz-adv-x="769" >
  <font-face 
    font-family="ClearviewHwy-1-B"
    font-weight="400"
    font-stretch="normal"
    units-per-em="1448"
    panose-1="2 0 9 4 6 0 0 2 0 4"
    ascent="1158"
    descent="-290"
    x-height="817"
    cap-height="1000"
    bbox="-170 -336 1284 1352"
    underline-thickness="175"
    underline-position="-352"
    unicode-range="U+0020-F6C3"
  />
<missing-glyph horiz-adv-x="599" 
 />
    <glyph glyph-name=".notdef" horiz-adv-x="599" 
 />
    <glyph glyph-name=".null" horiz-adv-x="0" 
 />
    <glyph glyph-name="nonmarkingreturn" horiz-adv-x="400" 
 />
    <glyph glyph-name="space" unicode=" " horiz-adv-x="400" 
 />
    <glyph glyph-name="space" unicode="&#xa0;" horiz-adv-x="400" 
 />
    <glyph glyph-name="exclam" unicode="!" horiz-adv-x="411" 
d="M291 84q0 -47 -23.5 -74t-61.5 -27q-35 0 -60.5 27t-25.5 74q0 45 25.5 71t60.5 26q38 0 61.5 -26t23.5 -71zM266 291h-119l-18 709h155z" />
    <glyph glyph-name="quotedbl" unicode="&#x22;" horiz-adv-x="550" 
d="M428 725h-95l-27 324h154zM213 725h-96l-27 324h155z" />
    <glyph glyph-name="numbersign" unicode="#" horiz-adv-x="746" 
d="M314 497h105l18 192h-107zM645 689h-97l-18 -192h103l-13 -122h-104l-16 -202h-115l19 202h-101l-17 -202h-110l16 202h-102l14 122h101l15 192h-101l11 120h103l16 191h111l-16 -191h105l18 191h113l-18 -191h94z" />
    <glyph glyph-name="dollar" unicode="$" horiz-adv-x="591" 
d="M511 307q0 -109 -40 -169.5t-109 -83.5v-122h-128v120q-18 2 -39 8.5t-42 15t-40.5 19.5t-32.5 22l47 139q38 -42 77 -65t81 -23t64.5 31t22.5 76q0 29 -3 51t-9.5 39t-16.5 30.5t-23 26.5l-108 88q-27 21 -49 43.5t-38 49t-25 59t-9 75.5q0 94 35.5 149.5t107.5 78.5
v118h127v-117q32 -5 66.5 -16t63.5 -30l-43 -135q-29 29 -60 46t-73 17q-38 0 -60.5 -26.5t-22.5 -74.5q0 -39 16.5 -67.5t47.5 -53.5l102 -81q49 -38 81 -94.5t32 -143.5z" />
    <glyph glyph-name="percent" unicode="%" horiz-adv-x="989" 
d="M800 272q0 37 -2 72t-7.5 62t-15.5 43.5t-27 16.5t-27 -16.5t-15 -43.5t-7 -62t-2 -72t2 -72t7.5 -62t15.5 -43.5t26 -16.5q17 0 27 16.5t15.5 43.5t7.5 62t2 72zM294 730q0 37 -2 72.5t-7.5 63t-15.5 44.5t-27 17t-27.5 -17t-16 -44.5t-7.5 -63t-2 -72.5q0 -36 2 -71
t7.5 -62.5t16 -44t27.5 -16.5q16 0 26 16.5t16 43.5t8 62t2 72zM371 0h-103l348 1000h105zM899 273q0 -62 -9 -114t-27.5 -90.5t-47 -60t-67.5 -21.5t-67.5 21.5t-47 60t-27 90.5t-8.5 114q0 63 9.5 115.5t28 90.5t46.5 59t66 21q37 0 65.5 -21t47.5 -59t28.5 -90.5
t9.5 -115.5zM393 733q0 -63 -9 -116t-28 -91.5t-47 -60t-67 -21.5t-67.5 21t-47 59.5t-28 91.5t-9.5 117q0 62 10 114t29.5 89.5t47.5 58.5t65 21t65 -21t47 -58.5t29 -89.5t10 -114z" />
    <glyph glyph-name="ampersand" unicode="&#x26;" horiz-adv-x="695" 
d="M435 476h-107q-21 0 -38 -8t-29 -27.5t-19 -52.5t-7 -84q0 -91 24.5 -142.5t78.5 -51.5q56 0 76.5 54t20.5 170v142zM567 476v-150q0 -71 -11.5 -133t-38.5 -107.5t-71.5 -71.5t-110.5 -26q-60 0 -104 21.5t-73.5 62t-43.5 97t-14 127.5q0 97 30 163.5t85 86.5
q-48 28 -69.5 82.5t-21.5 131.5q0 63 16 111t44.5 80.5t67 49t84.5 16.5q34 0 66 -7t66 -24l-29 -123q-44 28 -93 28q-44 0 -65.5 -39.5t-21.5 -103.5q0 -43 9.5 -70.5t25 -43.5t37 -22t45.5 -6h59v134h132v-134h78v-130h-78z" />
    <glyph glyph-name="quotesingle" unicode="'" horiz-adv-x="335" 
d="M213 725h-94l-29 324h155z" />
    <glyph glyph-name="parenleft" unicode="(" horiz-adv-x="369" 
d="M161 -201q-20 91 -35 176t-25.5 168.5t-15.5 167.5t-5 174q0 87 5 170.5t15 167t25.5 169.5t36.5 178l107 -32q-15 -86 -26.5 -166.5t-19 -160t-11 -160t-3.5 -167.5t3.5 -167t10.5 -158.5t18.5 -158.5t27.5 -167z" />
    <glyph glyph-name="parenright" unicode=")" horiz-adv-x="369" 
d="M289 485q0 -90 -5 -174.5t-15.5 -167.5t-25.5 -168.5t-35 -176.5l-108 35q16 87 27.5 167t18.5 158t10.5 158t3.5 168q0 87 -3.5 167.5t-11 160t-19 160t-26.5 166.5l108 32q20 -91 35 -176t25.5 -168.5t15.5 -167.5t5 -173z" />
    <glyph glyph-name="asterisk" unicode="*" horiz-adv-x="549" 
d="M339 822v-5l87 -102l-102 -74l-49 119l-47 -119l-99 72l84 104v5l-123 17l36 122l110 -61l-24 149h125l-21 -145l106 58l37 -122z" />
    <glyph glyph-name="plus" unicode="+" horiz-adv-x="658" 
d="M391 348v-253h-128v253h-173v125h173v248h128v-248h177v-125h-177z" />
    <glyph glyph-name="comma" unicode="," horiz-adv-x="343" 
d="M183 -192h-93l22 357h151z" />
    <glyph glyph-name="hyphen" unicode="-" horiz-adv-x="520" 
d="M120 373v152h280v-152h-280z" />
    <glyph glyph-name="hyphen" unicode="&#xad;" horiz-adv-x="520" 
d="M120 373v152h280v-152h-280z" />
    <glyph glyph-name="period" unicode="." horiz-adv-x="338" 
d="M248 87q0 -47 -22 -75.5t-56 -28.5q-33 0 -56.5 27.5t-23.5 76.5q0 48 23.5 73.5t56.5 25.5q34 0 56 -26t22 -73z" />
    <glyph glyph-name="slash" unicode="/" horiz-adv-x="541" 
d="M170 -171h-120l318 1255h123z" />
    <glyph glyph-name="zero" unicode="0" horiz-adv-x="703" 
d="M468 499q0 83 -5 153.5t-18.5 121.5t-36 80t-58.5 29q-35 0 -57.5 -29t-35 -80t-17.5 -121.5t-5 -153.5t5 -153t17.5 -121t35 -80t57.5 -29q36 0 58.5 29t36 80t18.5 121t5 153zM613 505q0 -108 -14 -203t-45 -166t-81 -112t-123 -41q-72 0 -121.5 41t-80 112t-44.5 166
t-14 203q0 112 16 205.5t48 161.5t81 106t115 38q69 0 118.5 -38t82 -106t47.5 -161.5t15 -205.5z" />
    <glyph glyph-name="one" unicode="1" horiz-adv-x="469" 
d="M203 0v777l-83 -113l-80 83l173 257h126v-1004h-136z" />
    <glyph glyph-name="two" unicode="2" horiz-adv-x="548" 
d="M67 0l-17 143q73 104 127.5 191.5t90 162t53 137t17.5 116.5q0 29 -4 53.5t-13.5 42.5t-25 28t-38.5 10q-47 0 -79.5 -27t-61.5 -72l-63 115q51 57 102 86.5t115 29.5q94 0 151 -67t57 -203q0 -66 -18.5 -133.5t-55 -141t-90 -156.5t-123.5 -180h286v-135h-410z" />
    <glyph glyph-name="three" unicode="3" horiz-adv-x="549" 
d="M469 289q0 -152 -60 -229t-167 -77q-54 0 -104.5 15.5t-97.5 50.5l44 130q38 -29 72 -47t73 -18q23 0 41.5 9.5t32 31t21 56.5t7.5 85q0 78 -23.5 121t-73.5 43h-76v130h31q28 0 51.5 8t40.5 26t26.5 46t9.5 68q0 145 -94 145q-29 0 -59 -17t-69 -48l-45 125
q54 38 99 55.5t97 17.5q93 0 149.5 -66t56.5 -196q0 -77 -23.5 -130t-77.5 -86q65 -26 91.5 -88.5t26.5 -160.5z" />
    <glyph glyph-name="four" unicode="4" horiz-adv-x="624" 
d="M343 351v414l-152 -414h152zM481 216v-216h-141v216h-251l-29 119l267 665h154v-649h83v-135h-83z" />
    <glyph glyph-name="five" unicode="5" horiz-adv-x="564" 
d="M484 344q0 -83 -15 -150t-45 -114t-74.5 -72t-103.5 -25q-47 0 -97 18t-89 58l54 117q23 -22 55.5 -42t68.5 -20q29 0 49 16t32.5 45.5t18 70.5t5.5 91q0 107 -21.5 163t-72.5 56q-29 0 -56.5 -20.5t-46.5 -70.5l-75 74l45 461h330v-139h-212l-24 -211q33 30 82 30
q91 0 141.5 -84t50.5 -252z" />
    <glyph glyph-name="six" unicode="6" horiz-adv-x="641" 
d="M425 326q0 43 -5.5 80t-17 64t-28.5 42.5t-40 15.5t-41 -15t-31 -42t-19.5 -64.5t-6.5 -82.5t6 -83t18 -66.5t30.5 -44.5t42.5 -16t41 16.5t28.5 45t17 67t5.5 83.5zM561 329q0 -75 -16 -138.5t-46 -109.5t-72 -72t-94 -26q-67 0 -113 35t-75 98t-42 149.5t-13 189.5
q0 280 65.5 420.5t194.5 140.5q45 0 80 -11t70 -35l-36 -125q-28 20 -54.5 31t-52.5 11t-48.5 -16.5t-39.5 -53t-27.5 -96t-12.5 -146.5q19 35 50.5 55t71.5 20q49 0 88 -22t66 -63.5t41.5 -101t14.5 -134.5z" />
    <glyph glyph-name="seven" unicode="7" horiz-adv-x="529" 
d="M478 851q-36 -52 -62 -100t-45 -99t-31 -108t-19 -127.5t-9.5 -157t-2.5 -195.5v-64h-143v64q0 96 5.5 202t24 211t55 203.5t99.5 180.5h-300v139h416l13 -146z" />
    <glyph glyph-name="eight" unicode="8" horiz-adv-x="667" 
d="M421 740q0 72 -20.5 113.5t-66.5 41.5t-67 -41.5t-21 -113.5q0 -69 21 -111t66 -42t66.5 42t21.5 111zM435 287q0 94 -28.5 137t-72.5 43q-45 0 -73.5 -43t-28.5 -137q0 -85 24 -132t78 -47t77.5 47t23.5 132zM577 289q0 -77 -17.5 -134.5t-49.5 -95.5t-76.5 -57
t-99.5 -19t-100 19t-77 57t-49.5 95.5t-17.5 134.5q0 93 24 153t83 97q-24 19 -40.5 40.5t-27.5 47t-16 57.5t-5 74q0 65 17.5 113.5t48 80.5t71.5 48t88 16q48 0 89.5 -16t71.5 -48t47.5 -80.5t17.5 -113.5q0 -41 -5 -73t-15.5 -58t-27 -47.5t-40.5 -40.5q58 -37 82 -97
t24 -153z" />
    <glyph glyph-name="nine" unicode="9" horiz-adv-x="638" 
d="M402 678q0 44 -5.5 82t-17 65.5t-28.5 43.5t-40 16q-45 0 -70 -56t-25 -152q0 -42 5.5 -78.5t16.5 -63t28.5 -41.5t41.5 -15t41.5 15.5t29 42.5t17.5 63t6 78zM548 519q0 -120 -13 -219t-43 -169.5t-80 -109t-124 -38.5q-40 0 -77.5 11t-79.5 37l39 126q33 -23 59.5 -34
t55.5 -11q63 0 94.5 83t34.5 238q-20 -45 -50 -66t-70 -21q-48 0 -87.5 25.5t-67.5 69.5t-43.5 104t-15.5 129q0 68 16 130t46 109t73.5 75t99.5 28q66 0 110.5 -36.5t71.5 -102t39 -157t12 -201.5z" />
    <glyph glyph-name="colon" unicode=":" horiz-adv-x="338" 
d="M248 608q0 -46 -21.5 -74.5t-56.5 -28.5t-57.5 28t-22.5 75t23.5 73.5t56.5 26.5q35 0 56.5 -27t21.5 -73zM248 87q0 -47 -21.5 -75.5t-56.5 -28.5t-57.5 27.5t-22.5 76.5q0 48 23.5 73.5t56.5 25.5q35 0 56.5 -26t21.5 -73z" />
    <glyph glyph-name="semicolon" unicode=";" horiz-adv-x="338" 
d="M249 608q0 -47 -21.5 -75.5t-56.5 -28.5t-57.5 28t-22.5 76q0 47 23.5 73.5t56.5 26.5q35 0 56.5 -27t21.5 -73zM183 -192h-93l22 357h151z" />
    <glyph glyph-name="less" unicode="&#x3c;" horiz-adv-x="700" 
d="M90 331v139l520 338v-145l-402 -261l402 -266v-143z" />
    <glyph glyph-name="equal" unicode="=" horiz-adv-x="603" 
d="M110 179v146h383v-146h-383zM110 447v146h383v-146h-383z" />
    <glyph glyph-name="greater" unicode="&#x3e;" horiz-adv-x="700" 
d="M90 -7v143l402 263l-402 264v145l520 -338v-139z" />
    <glyph glyph-name="question" unicode="?" horiz-adv-x="570" 
d="M322 87q0 -47 -21.5 -75.5t-56.5 -28.5t-57.5 27.5t-22.5 76.5q0 48 22.5 73.5t57.5 25.5t56.5 -26t21.5 -73zM480 750q0 -50 -7 -88.5t-19.5 -69t-30.5 -55.5t-39 -46v1l-44 -47q-11 -11 -17 -19t-9 -18t-3.5 -23.5t-0.5 -36.5v-87h-129v116q0 36 2 59t8 39.5t16.5 30
t28.5 30.5l44 38q28 26 45 61.5t17 97.5q0 33 -5 60.5t-15.5 48t-26 32t-37.5 11.5q-60 0 -121 -72l-47 124q47 40 90 59.5t95 19.5q100 0 152.5 -70.5t52.5 -195.5z" />
    <glyph glyph-name="at" unicode="@" horiz-adv-x="881" 
d="M503 562q1 7 1 13v13q0 35 -11 58.5t-43 23.5q-40 0 -59 -58.5t-19 -171.5q0 -119 49 -119q20 0 33 10.5t21.5 29t12.5 43t6 51.5l9 106v1zM781 582q0 -107 -18 -176.5t-45.5 -109.5t-59.5 -55.5t-59 -15.5q-11 0 -24 2.5t-25 9.5t-21.5 19.5t-15.5 32.5
q-20 -32 -48.5 -47.5t-58.5 -15.5q-29 0 -53.5 12t-42.5 39t-28.5 70t-10.5 105q0 66 11.5 123t34 99t55.5 66t76 24q53 0 75 -36l3 32h92l-30 -405v-7q0 -15 5.5 -27.5t17.5 -12.5q14 0 29 14.5t27.5 48t20.5 87.5t8 132q0 81 -15 145t-43 109t-68.5 69t-91.5 24
q-67 0 -121 -35t-92.5 -97t-59.5 -147.5t-21 -186.5q0 -107 17.5 -186.5t49.5 -132.5t77.5 -79t101.5 -26q57 0 103.5 29t88.5 80l36 -80q-48 -59 -111 -84t-124 -25q-69 0 -128 26.5t-102.5 86.5t-68 157.5t-24.5 238.5q0 134 32 235t84.5 169t121 102t140.5 34
q62 0 117 -26t96.5 -79.5t65.5 -135t24 -193.5z" />
    <glyph glyph-name="A" unicode="A" horiz-adv-x="678" 
d="M263 374h149l-75 450zM475 0l-45 242h-186l-45 -242h-149l202 1003h173l203 -1003h-153z" />
    <glyph glyph-name="B" unicode="B" horiz-adv-x="700" 
d="M445 724q0 72 -23 114.5t-81 42.5q-18 0 -35 -1.5t-34 -3.5v-301h4q14 -1 30.5 -1.5t28.5 -0.5q28 0 49 7.5t34.5 24.5t20 46t6.5 73zM466 290q0 48 -7 80t-21.5 51t-37 27t-52.5 8h-40q-19 0 -36 -2v-328q19 -2 37 -2h38q35 0 58 8t36.5 27t19 51t5.5 80zM610 284
q0 -284 -233 -284h-247v993q48 9 96.5 13.5t114.5 4.5q54 0 99 -15t77.5 -48t50.5 -85t18 -125q0 -76 -22 -130.5t-74 -82.5q33 -11 56 -35t37.5 -56.5t20.5 -71t6 -78.5z" />
    <glyph glyph-name="C" unicode="C" horiz-adv-x="644" 
d="M594 119q-17 -26 -39 -50.5t-50 -43.5t-61 -30.5t-71 -11.5q-80 0 -134.5 43t-87.5 115t-47 165.5t-14 194.5q0 93 14 185t48 165.5t89 119t138 45.5q66 0 114.5 -34t94.5 -99l-86 -115q-32 54 -59 83t-66 29q-38 0 -64.5 -29.5t-43 -80.5t-24 -120.5t-7.5 -148.5
q0 -37 2 -79t7.5 -84.5t15 -82t25.5 -70t38.5 -48.5t53.5 -18q42 0 74.5 30.5t67.5 88.5l72 -113v-6z" />
    <glyph glyph-name="D" unicode="D" horiz-adv-x="722" 
d="M484 511q0 86 -8 154.5t-25.5 116.5t-46 73.5t-68.5 25.5q-16 0 -31.5 -1t-32.5 -4v-745q6 -1 12 -1h13h31q44 0 74 26t48 74.5t26 119.5t8 161zM632 504q0 -114 -17 -207t-54.5 -159t-98 -102t-146.5 -36h-186v994q43 8 96.5 12.5t106.5 4.5q82 0 139.5 -40t92.5 -109
t51 -161t16 -197z" />
    <glyph glyph-name="E" unicode="E" horiz-adv-x="575" 
d="M130 0v1000h366v-133h-224v-278h200v-133h-200v-323h233v-133h-375z" />
    <glyph glyph-name="F" unicode="F" horiz-adv-x="550" 
d="M272 867v-278h194v-133h-194v-456h-142v1000h360v-133h-218z" />
    <glyph glyph-name="G" unicode="G" horiz-adv-x="707" 
d="M617 453q0 -52 -2.5 -107t-11 -107.5t-24.5 -98.5t-43 -81t-67.5 -55.5t-96.5 -20.5t-98.5 22.5t-74 60.5t-52.5 89t-33.5 108.5t-18 118t-5.5 117.5q0 58 5.5 118.5t19 118t35 108.5t53.5 89t75.5 60.5t100.5 22.5q63 0 112.5 -32.5t92.5 -87.5l-81 -119
q-14 22 -28 40.5t-29 32.5t-32 22t-37 8q-33 0 -56 -19.5t-38.5 -51.5t-24.5 -73t-13.5 -83t-5.5 -82t-1 -70q0 -37 1 -80t5 -86t12.5 -83.5t24 -71.5t38 -49.5t55.5 -18.5q40 0 61.5 24t31.5 63.5t11.5 89t1.5 100.5v22h-105v133h242v-91z" />
    <glyph glyph-name="H" unicode="H" horiz-adv-x="739" 
d="M467 0v456h-195v-456h-142v1000h142v-411h195v411h142v-1000h-142z" />
    <glyph glyph-name="I" unicode="I" horiz-adv-x="402" 
d="M130 0v1000h142v-1000h-142z" />
    <glyph glyph-name="J" unicode="J" horiz-adv-x="526" 
d="M396 227q0 -120 -46 -182.5t-140 -62.5q-85 0 -150 56l48 124q26 -21 47 -32t42 -11q36 0 46.5 30.5t10.5 85.5v765h142v-773z" />
    <glyph glyph-name="K" unicode="K" horiz-adv-x="666" 
d="M462 0l-141 419l-49 -95v-324h-142v1000h142v-434l175 434h158l-188 -438l209 -562h-164z" />
    <glyph glyph-name="L" unicode="L" horiz-adv-x="537" 
d="M130 0v1000h142v-867h205v-133h-347z" />
    <glyph glyph-name="M" unicode="M" horiz-adv-x="834" 
d="M567 0v685l-150 -386l-152 388v-687h-135v1000h143l144 -374l144 374h143v-1000h-137z" />
    <glyph glyph-name="N" unicode="N" horiz-adv-x="782" 
d="M525 0l-259 641v-641h-136v1000h140l246 -634v634h136v-1000h-127z" />
    <glyph glyph-name="O" unicode="O" 
d="M531 502q0 86 -7.5 156.5t-25 120.5t-46 77t-69.5 27t-68.5 -28t-44.5 -78t-24.5 -120.5t-7.5 -154.5q0 -87 7.5 -158t25 -122t45.5 -78.5t70 -27.5q40 0 68 28.5t45 79.5t24.5 122t7.5 156zM679 501q0 -112 -17.5 -207t-53.5 -164t-92 -108t-133 -39t-132.5 39t-91 108
t-52.5 164t-17 207q0 111 16.5 205.5t52 163t91 107.5t133.5 39q77 0 133 -39t92 -107.5t53.5 -163t17.5 -205.5z" />
    <glyph glyph-name="P" unicode="P" horiz-adv-x="659" 
d="M445 687q0 101 -21.5 147t-79.5 46q-18 0 -34.5 -2t-37.5 -5v-378h66q32 0 53 11t33 34.5t16.5 60t4.5 86.5zM589 687q0 -165 -56 -244t-182 -79h-79v-364h-142v994q3 1 9 1.5t9 1.5q45 5 87 9t99 4q62 0 109.5 -17.5t80 -56t49 -100t16.5 -149.5z" />
    <glyph glyph-name="Q" unicode="Q" 
d="M531 502q0 86 -7.5 156.5t-25 120.5t-46 77t-69.5 27t-68.5 -28t-44.5 -78t-24.5 -120t-7.5 -155q0 -89 7.5 -160t25 -121t45.5 -77t70 -27q40 0 68 27t45 77t24.5 121t7.5 160zM679 502q0 -69 -6.5 -133.5t-21 -120.5t-37 -103.5t-55.5 -81.5q10 -5 16.5 -11.5
t12.5 -14.5q9 -12 23 -25t43 -24l-48 -129q-45 11 -73.5 37.5t-50.5 51.5q-14 16 -26 27.5t-20 11.5h-5q-2 0 -7 -1q-6 -1 -13.5 -2t-15.5 -1q-80 0 -137.5 37t-95 104.5t-55 163.5t-17.5 214q0 111 17 205t52.5 162.5t91 107.5t132.5 39t133 -38.5t92 -107t53.5 -163
t17.5 -205.5z" />
    <glyph glyph-name="R" unicode="R" horiz-adv-x="683" 
d="M453 705q0 32 -4.5 63.5t-16.5 56.5t-34 40.5t-57 15.5q-18 0 -34.5 -1t-34.5 -4v-340h82q51 0 75 39.5t24 129.5zM455 0l-71 355q-5 26 -10.5 39.5t-17.5 13.5h-84v-408h-142v994q60 9 107.5 12.5t102.5 3.5q127 0 192 -75.5t65 -221.5q0 -103 -28 -162.5t-78 -90.5
q9 -6 13.5 -18.5t8.5 -27.5l90 -414h-148z" />
    <glyph glyph-name="S" unicode="S" horiz-adv-x="589" 
d="M519 286q0 -149 -62.5 -226t-171.5 -77q-73 0 -125.5 18.5t-99.5 58.5l44 140q41 -38 82 -64t89 -26q21 0 40.5 8.5t34.5 27t24 48t9 70.5q0 44 -12 76.5t-31.5 57.5t-45 44.5t-52.5 37.5q-30 19 -58 41.5t-50 53t-35.5 72t-13.5 99.5q0 63 17.5 113t47 84.5t68.5 52.5
t83 18q55 0 101.5 -14.5t89.5 -51.5l-33 -139q-38 42 -71.5 59t-72.5 17q-42 0 -68 -30.5t-26 -91.5q0 -34 8.5 -58.5t23.5 -43t34.5 -33.5t41.5 -29q33 -21 66.5 -48t61 -64t45 -86t17.5 -115z" />
    <glyph glyph-name="T" unicode="T" horiz-adv-x="515" 
d="M329 867v-867h-142v867h-147v133h435v-133h-146z" />
    <glyph glyph-name="U" unicode="U" horiz-adv-x="749" 
d="M619 398q0 -102 -10 -179.5t-37 -130t-74.5 -79t-122.5 -26.5q-74 0 -121 26.5t-75 79t-38.5 130t-10.5 179.5v602h142v-642q0 -63 4.5 -108.5t16 -75t31.5 -43.5t51 -14t51 14t31 43.5t15.5 75t4.5 108.5v642h142v-602z" />
    <glyph glyph-name="V" unicode="V" horiz-adv-x="645" 
d="M409 0h-177l-182 1000h152l119 -802l124 802h150z" />
    <glyph glyph-name="W" unicode="W" horiz-adv-x="951" 
d="M750 0h-167l-110 675l-102 -675h-166l-135 1000h150l73 -775l120 775h127l122 -767l70 767h149z" />
    <glyph glyph-name="X" unicode="X" horiz-adv-x="619" 
d="M428 0l-117 364l-114 -364h-157l186 519l-167 481h159l100 -342l99 342h152l-167 -492l177 -508h-151z" />
    <glyph glyph-name="Y" unicode="Y" horiz-adv-x="612" 
d="M377 380v-380h-142v374l-195 626h151l114 -447l122 447h145z" />
    <glyph glyph-name="Z" unicode="Z" horiz-adv-x="537" 
d="M60 0v126l259 738h-243v136h394v-125l-258 -742h265v-133h-417z" />
    <glyph glyph-name="bracketleft" unicode="[" horiz-adv-x="384" 
d="M70 -179v1331h214v-113h-87v-1106h87v-112h-214z" />
    <glyph glyph-name="backslash" unicode="\" horiz-adv-x="541" 
d="M371 -171h120l-318 1255h-123z" />
    <glyph glyph-name="bracketright" unicode="]" horiz-adv-x="387" 
d="M100 -179v112h88v1106h-88v113h217v-1331h-217z" />
    <glyph glyph-name="asciicircum" unicode="^" horiz-adv-x="572" 
d="M453 774l-166 117l-170 -117l-67 90l234 167l238 -167z" />
    <glyph glyph-name="underscore" unicode="_" horiz-adv-x="536" 
d="M60 -228v116h416v-116h-416z" />
    <glyph glyph-name="grave" unicode="`" horiz-adv-x="378" 
d="M255 887l-188 141l118 72l143 -162z" />
    <glyph glyph-name="a" unicode="a" horiz-adv-x="665" 
d="M297 106q25 0 52.5 12.5t56.5 53.5v251q-94 -2 -136.5 -48.5t-42.5 -136.5q0 -57 16.5 -94.5t53.5 -37.5zM488 -12q-29 10 -47.5 30.5t-25.5 47.5q-29 -38 -64 -58t-84 -20q-43 0 -76 17.5t-55.5 50t-34 77t-11.5 98.5q0 81 26 138t69.5 92.5t100.5 52t120 17.5v89
q0 17 -3 32.5t-11 27.5t-22 19t-35 7q-48 0 -92.5 -20.5t-89.5 -52.5l-32 127q54 35 107.5 52t114.5 17q58 0 97 -15t62 -45t33 -76t10 -108v-411q0 -40 4.5 -64t25.5 -42z" />
    <glyph glyph-name="b" unicode="b" horiz-adv-x="679" 
d="M446 406q0 69 -3.5 124.5t-14 95t-29 61t-48.5 21.5q-46 0 -69 -45.5t-23 -130.5v-230q0 -37 4.5 -71.5t15.5 -61.5t28.5 -43t43.5 -16q27 0 45.5 23t29.5 63t15.5 94t4.5 116zM589 407q0 -76 -10.5 -151t-35 -134.5t-64.5 -96.5t-99 -37q-42 0 -76 21.5t-55 62.5l-6 -72
h-123v1085h139v-317q23 33 52 47t66 14q106 0 159 -109t53 -313z" />
    <glyph glyph-name="c" unicode="c" horiz-adv-x="557" 
d="M454 640q-29 36 -54 51t-54 15q-39 0 -61.5 -27.5t-34 -70.5t-14.5 -95t-3 -100t3 -101t15 -98t35.5 -74.5t63.5 -29.5q32 0 60.5 17t57.5 46l49 -117q-43 -37 -87.5 -52.5t-95.5 -15.5q-72 0 -119.5 37t-75 97t-38.5 136t-11 154q0 76 12 150.5t41.5 133.5t78.5 96
t123 37q47 0 86 -15.5t80 -50.5z" />
    <glyph glyph-name="d" unicode="d" horiz-adv-x="677" 
d="M418 532q0 85 -22 129.5t-69 44.5q-29 0 -47.5 -21t-29 -60t-14 -94.5t-3.5 -124.5q0 -62 4.5 -116t15 -94t28.5 -63t46 -23t45.5 16.5t27.5 42.5t14 58t4 64v241zM431 0l-3 73q-26 -46 -57.5 -65.5t-76.5 -19.5q-59 0 -98 37t-62.5 96.5t-33.5 134.5t-10 151
q0 205 52.5 313.5t158.5 108.5q38 0 66 -14t51 -47v317h139v-1085h-126z" />
    <glyph glyph-name="e" unicode="e" horiz-adv-x="655" 
d="M334 709q-54 0 -77.5 -60.5t-23.5 -181.5h196q0 47 -4.5 91t-15 77.5t-28.5 53.5t-47 20zM565 415q0 -13 -1 -30t-2 -30h-329q1 -121 29.5 -183t87.5 -62q36 0 70 15t67 47l50 -118q-46 -35 -94 -50.5t-100 -15.5q-253 0 -253 421q0 109 18 188.5t50.5 131t77.5 76
t100 24.5q50 0 92 -21t72.5 -70t47.5 -128t17 -195z" />
    <glyph glyph-name="f" unicode="f" horiz-adv-x="427" 
d="M377 964q-4 1 -11.5 2.5t-16 2.5t-15.5 1.5t-11 0.5q-33 0 -41.5 -16.5t-8.5 -52.5v-95h99v-130h-99v-677h-139v677h-74v130h74v49q0 62 7 107t25.5 74t51.5 43t85 14q15 0 37 -2.5t37 -6.5v-121z" />
    <glyph glyph-name="g" unicode="g" horiz-adv-x="681" 
d="M423 519q0 31 -4 64t-14.5 60.5t-29 45t-46.5 17.5t-46.5 -21.5t-29.5 -60.5t-15.5 -93t-4.5 -118q0 -36 2.5 -84t12.5 -92t28 -74.5t50 -30.5q34 0 53.5 24.5t29 60.5t12 75.5t2.5 69.5v157zM561 -2q0 -62 -7 -118.5t-29.5 -100t-65.5 -69.5t-116 -26q-61 0 -117.5 17
t-103.5 46l46 132q39 -29 78 -43.5t91 -14.5q25 0 41.5 7t26 24.5t13.5 45.5t4 70v113q-22 -38 -54 -56t-71 -18q-45 0 -83 23.5t-65.5 73t-43 124.5t-15.5 179q0 77 9.5 152.5t33 135.5t64.5 97t104 37q42 0 72.5 -18t52.5 -56l5 62h130v-819z" />
    <glyph glyph-name="h" unicode="h" horiz-adv-x="689" 
d="M430 0v502q0 40 -1.5 76t-8.5 63t-23 43t-44 16t-46 -14t-28.5 -40t-15 -62t-4.5 -80v-504h-139v1085h139v-317q24 35 58.5 48t74.5 13q55 0 89.5 -21t54 -63t26.5 -105.5t7 -149.5v-490h-139z" />
    <glyph glyph-name="i" unicode="i" horiz-adv-x="389" 
d="M279 1022q0 -44 -22.5 -69t-61.5 -25q-40 0 -62.5 25t-22.5 69q0 42 22.5 67t62.5 25q39 0 61.5 -25t22.5 -67zM125 0v817h139v-817h-139z" />
    <glyph glyph-name="j" unicode="j" horiz-adv-x="389" 
d="M263 14q0 -67 -5.5 -126t-25 -103.5t-58 -70t-104.5 -25.5q-17 0 -33.5 2t-36.5 6v134q20 -4 33.5 -4.5t21.5 -0.5q42 0 56 28.5t14 81.5v881h138v-803zM279 1022q0 -44 -22.5 -69t-61.5 -25q-40 0 -62.5 25t-22.5 69q0 42 22.5 67t62.5 25q39 0 61.5 -25t22.5 -67z" />
    <glyph glyph-name="k" unicode="k" horiz-adv-x="614" 
d="M413 0l-108 336l-47 -96v-240h-138v1085h139v-617l150 349h147l-155 -345l163 -472h-151z" />
    <glyph glyph-name="l" unicode="l" horiz-adv-x="392" 
d="M326 0q-17 -5 -38.5 -7t-38.5 -2q-36 0 -61 9t-40 29.5t-21.5 55t-6.5 85.5v915h139v-887q0 -24 2 -38.5t7.5 -22t15 -10t24.5 -2.5h24v-120z" />
    <glyph glyph-name="m" unicode="m" horiz-adv-x="981" 
d="M722 0v499q0 46 -1.5 83.5t-8 63.5t-21.5 40t-42 14q-50 0 -69.5 -48t-19.5 -132v-520h-139v499q0 45 -1.5 82.5t-8 63.5t-21.5 40.5t-42 14.5q-51 0 -70 -47.5t-19 -132.5v-520h-139v817h128l3 -62q24 38 57 56t78 18q47 0 82.5 -19.5t57.5 -71.5q14 28 30.5 46t36 28
t41 13.5t44.5 3.5q49 0 83.5 -17.5t56.5 -56t32.5 -99.5t10.5 -148v-508h-139z" />
    <glyph glyph-name="n" unicode="n" horiz-adv-x="689" 
d="M430 0v524q0 41 -1.5 73t-8.5 54.5t-23 34.5t-44 12t-46 -14t-28.5 -39.5t-15 -61t-4.5 -79.5v-504h-139v817h125l6 -61q26 41 61 57t80 16q55 0 89.5 -20.5t54 -62t26.5 -105t7 -149.5v-492h-139z" />
    <glyph glyph-name="o" unicode="o" horiz-adv-x="668" 
d="M435 406q0 52 -2.5 104.5t-12.5 94.5t-30.5 68.5t-56.5 26.5t-56 -26.5t-29.5 -68.5t-12 -94.5t-2.5 -104.5q0 -68 3.5 -122t14 -92.5t30.5 -59t52 -20.5q31 0 51 21t31.5 59t15.5 92.5t4 121.5zM578 409q0 -100 -15 -178.5t-46 -132.5t-77 -82t-107 -28
q-124 0 -183.5 110t-59.5 311t59.5 310.5t183.5 109.5q123 0 184 -109.5t61 -310.5z" />
    <glyph glyph-name="p" unicode="p" horiz-adv-x="679" 
d="M446 462q0 39 -3.5 82t-14 79t-30 59.5t-51.5 23.5q-30 0 -47.5 -17.5t-26.5 -45t-11.5 -61t-2.5 -65.5v-207q0 -30 3 -65t12.5 -65t27.5 -50t48 -20q24 0 40 16t27 42t16.5 58.5t8.5 65.5t3.5 63t0.5 52v55zM589 409q0 -40 -3.5 -87t-13 -93.5t-25 -90t-38.5 -77
t-55 -53.5t-75 -20q-37 0 -67.5 12.5t-52.5 44.5v-350h-139v1122h128l5 -59q22 38 54 54.5t72 16.5q44 0 76.5 -19.5t56 -52.5t38.5 -76.5t23.5 -90t12 -93.5t3.5 -88z" />
    <glyph glyph-name="q" unicode="q" horiz-adv-x="683" 
d="M421 517q0 90 -20.5 139.5t-69.5 49.5q-31 0 -50 -20.5t-29.5 -59.5t-14.5 -94.5t-4 -125.5q0 -58 4 -111.5t14.5 -94.5t29 -65.5t48.5 -24.5t48 22t28 54.5t13 69.5t3 68v193zM513 -336q-33 14 -51 36.5t-27 51t-11 61t-2 67.5v173q-21 -35 -52 -50t-70 -15
q-51 0 -90.5 30t-66 85t-40 133t-13.5 173q0 74 10 149t33.5 135t63.5 98t100 38q44 0 75 -16.5t53 -54.5l6 59h130v-916q0 -29 0.5 -49t4.5 -35t12.5 -25t24.5 -19z" />
    <glyph glyph-name="r" unicode="r" horiz-adv-x="481" 
d="M376 674q-56 0 -86.5 -38t-30.5 -132v-504h-139v817h131l4 -68q41 80 126 80h40v-155h-45z" />
    <glyph glyph-name="s" unicode="s" horiz-adv-x="544" 
d="M484 228q0 -64 -16 -109.5t-44.5 -74.5t-69.5 -42.5t-90 -13.5q-59 0 -111 17.5t-93 51.5l53 118q14 -13 32 -26t37.5 -23.5t38.5 -17t35 -6.5q52 0 74 31.5t22 82.5q0 27 -9.5 48.5t-26.5 40.5t-40 35.5t-50 34.5t-53.5 39.5t-47.5 49.5t-34 64t-13 83q0 58 17.5 99.5
t46.5 68t67.5 38.5t79.5 12q47 0 94 -10t85 -36l-33 -127q-32 29 -66.5 41.5t-68.5 12.5q-39 0 -65 -25t-26 -70q0 -24 8.5 -43t22.5 -35.5t32.5 -30.5t38.5 -26q29 -18 60 -40.5t56 -52.5t41 -69t16 -90z" />
    <glyph glyph-name="t" unicode="t" horiz-adv-x="422" 
d="M353 0q-15 -3 -42 -4.5t-52 -1.5q-46 0 -74 13.5t-43 42.5t-19.5 74t-4.5 109v444h-78v130h84v221h133v-221h105v-130h-105v-483q0 -24 2 -38.5t8.5 -22.5t18 -11t29.5 -3h45v-114z" />
    <glyph glyph-name="u" unicode="u" horiz-adv-x="688" 
d="M435 0l-4 62q-29 -42 -65 -58t-81 -16q-47 0 -78.5 17t-51 53t-27.5 92t-8 134v533h139v-517q0 -36 2.5 -69t10 -57.5t22.5 -39.5t39 -15t42 10t30 32.5t18 59t6 89.5v507h139v-817h-133z" />
    <glyph glyph-name="v" unicode="v" horiz-adv-x="586" 
d="M385 0h-177l-158 817h146l100 -656l100 656h140z" />
    <glyph glyph-name="w" unicode="w" horiz-adv-x="896" 
d="M715 0h-171l-96 551l-99 -551h-169l-120 817h142l72 -607l104 607h142l102 -603l73 603h141z" />
    <glyph glyph-name="x" unicode="x" horiz-adv-x="569" 
d="M378 0l-97 310l-97 -310h-144l151 425l-135 392h149l83 -278l84 278h142l-137 -388l152 -429h-151z" />
    <glyph glyph-name="y" unicode="y" horiz-adv-x="586" 
d="M359 -64q-11 -56 -25 -102.5t-35.5 -79.5t-52 -51.5t-72.5 -18.5q-21 0 -40.5 1t-42.5 8v132q14 -4 29 -5.5t25 -1.5q28 0 41 15.5t22 63.5l15 77l-173 843h146l100 -626l98 626h142z" />
    <glyph glyph-name="z" unicode="z" horiz-adv-x="503" 
d="M70 0v121l216 566h-206v130h347v-134l-210 -553h216v-130h-363z" />
    <glyph glyph-name="braceleft" unicode="{" horiz-adv-x="404" 
d="M245 -182q-38 0 -65.5 8.5t-45 31t-26 62t-8.5 102.5v272q0 53 -9 83t-41 40v122q29 9 39.5 39t10.5 82v286q0 63 8.5 103t26 63t45 31.5t65.5 8.5h59v-113h-26q-17 0 -27 -4t-15.5 -17t-7 -36t-1.5 -60v-283q0 -30 -1.5 -52.5t-6.5 -40.5t-14 -34t-24 -34q15 -18 24 -34
t14 -34t6.5 -40.5t1.5 -52.5v-270q0 -38 1.5 -60.5t7 -35.5t15.5 -17t27 -4h26v-112h-59z" />
    <glyph glyph-name="bar" unicode="|" horiz-adv-x="352" 
d="M125 -327v1376h102v-1376h-102z" />
    <glyph glyph-name="braceright" unicode="}" horiz-adv-x="405" 
d="M350 415q-29 -9 -37 -39t-8 -82v-272q0 -63 -8.5 -102.5t-26 -62t-45 -31t-64.5 -8.5h-61v112h27q16 0 26 4t15.5 17t7 35.5t1.5 60.5v270q0 30 1.5 52.5t6.5 40.5t14 34t24 34q-15 18 -24 34t-14 34t-6.5 40.5t-1.5 52.5v283q0 37 -1.5 60t-7 36t-15.5 17t-26 4h-27v113
h61q37 0 64.5 -8.5t45 -31.5t26 -63t8.5 -103v-286q0 -52 10 -82t40 -39v-119z" />
    <glyph glyph-name="asciitilde" unicode="~" horiz-adv-x="634" 
d="M574 923q-20 -58 -58.5 -88.5t-89.5 -30.5q-32 0 -60.5 10.5t-55.5 23.5q-25 11 -48 20t-43 9q-24 0 -38.5 -13.5t-30.5 -55.5l-90 54q15 34 30 57t32.5 37t38.5 19.5t48 5.5q31 0 59 -10t54 -22q24 -11 47.5 -20.5t45.5 -9.5q20 0 36.5 15.5t31.5 52.5l87 -48z" />
    <glyph glyph-name="uni007F" horiz-adv-x="724" 
 />
    <glyph glyph-name="exclamdown" unicode="&#xa1;" horiz-adv-x="421" 
d="M138 -200l18 708h112l19 -708h-149zM296 720q0 -47 -23.5 -74t-61.5 -27q-35 0 -60.5 27t-25.5 74q0 45 25.5 71t60.5 26q38 0 61.5 -26t23.5 -71z" />
    <glyph glyph-name="cent" unicode="&#xa2;" horiz-adv-x="564" 
d="M501 180q-32 -26 -59 -40.5t-64 -19.5v-120h-116v124q-52 16 -85 55.5t-52.5 92.5t-27 114.5t-7.5 121.5q0 61 8 121t27.5 111t53 89t83.5 56v116h116v-111q35 -6 61 -21t53 -38l-45 -138q-29 30 -53 48t-56 18q-36 0 -57 -26t-32 -64.5t-14 -82.5t-3 -80t3.5 -80t15 -83
t33 -65t57.5 -26q32 0 61 19.5t58 47.5l44 -133z" />
    <glyph glyph-name="sterling" unicode="&#xa3;" horiz-adv-x="548" 
d="M90 0v136h21q34 0 45.5 41t11.5 107q0 29 -2 57.5t-4 57.5q-2 18 -3.5 36t-2.5 35h-66v133h55q-1 10 -2 19t-2 20q-3 36 -5.5 72t-2.5 72q0 61 13 104.5t38 71t59.5 40t78.5 12.5q80 0 160 -51l-24 -151q-27 29 -56 44.5t-58 15.5q-40 0 -55.5 -30t-15.5 -88
q0 -38 2.5 -75.5t6.5 -75.5h123v-133h-111q1 -8 2 -15t2 -15q5 -41 8.5 -81.5t3.5 -82.5q0 -43 -4 -73t-15 -57h202v-146h-403z" />
    <glyph glyph-name="currency" unicode="&#xa4;" horiz-adv-x="682" 
d="M399 -17q-60 0 -104 27t-75 74.5t-49 111t-26 136.5h-90l25 109h56v25v67v26h-72l25 107h56q8 70 26.5 133.5t49.5 111.5t76.5 76.5t107.5 28.5q66 0 115 -34.5t94 -99.5l-87 -110q-32 55 -59.5 80t-66.5 25q-51 0 -77 -54t-38 -157h231l-24 -107h-214v-91v-27h207
l-22 -109h-178q4 -40 12.5 -77.5t22.5 -67t34.5 -47t49.5 -17.5q42 0 75 28.5t68 86.5l74 -116q-17 -27 -39.5 -52t-50.5 -44.5t-61.5 -31t-71.5 -11.5z" />
    <glyph glyph-name="yen" unicode="&#xa5;" horiz-adv-x="601" 
d="M432 579h98v-118h-136l-21 -66v-76h157v-120h-157v-199h-142v199h-156v120h156v72l-22 70h-134v118h95l-130 421h142l121 -447l118 447h140z" />
    <glyph glyph-name="brokenbar" unicode="&#xa6;" horiz-adv-x="353" 
d="M125 461v588h103v-588h-103zM125 -327v588h103v-588h-103z" />
    <glyph glyph-name="section" unicode="&#xa7;" horiz-adv-x="562" 
d="M357 439q0 50 -18.5 71t-53.5 21t-54.5 -20.5t-19.5 -71.5t19.5 -72.5t54.5 -21.5t53.5 21.5t18.5 72.5zM472 457q0 -31 -5.5 -61t-19 -55.5t-35 -43.5t-53.5 -25q53 -33 83 -90t30 -122q0 -58 -12.5 -98t-36 -65.5t-58 -37t-78.5 -11.5q-53 0 -98 21.5t-88 62.5l40 133
q38 -42 73 -65t72 -23q29 0 44.5 16t15.5 61q0 19 -4 33.5t-14 28.5t-26 28.5t-40 34.5l-26 21q-9 7 -18 14.5t-19 15.5q-21 18 -40.5 36.5t-35 42t-24.5 54.5t-9 73q0 33 7.5 62.5t22 52t36 37.5t49.5 19q-51 31 -78.5 78.5t-27.5 118.5q0 53 14 92.5t39 66t59 40t75 13.5
t79.5 -11.5t85.5 -40.5l-31 -136q-32 26 -61 40.5t-56 14.5t-44 -17.5t-17 -56.5q0 -29 14 -55.5t59 -58.5h-1q8 -5 15 -9.5t14 -9.5q10 -7 19.5 -13.5t20.5 -13.5q42 -29 65.5 -73t23.5 -119z" />
    <glyph glyph-name="dieresis" unicode="&#xa8;" horiz-adv-x="499" 
d="M212 988q0 -18 -5.5 -33.5t-15.5 -27.5t-23.5 -19t-29.5 -7q-15 0 -28.5 7t-23.5 19t-16 27.5t-6 33.5q0 37 21.5 62t52.5 25q32 0 53 -25t21 -62zM451 988q0 -35 -21 -61t-52 -26q-15 0 -29 7t-24.5 19t-16.5 27.5t-6 33.5q0 37 22.5 62t53.5 25q32 0 52.5 -25t20.5 -62
z" />
    <glyph glyph-name="copyright" unicode="&#xa9;" horiz-adv-x="1016" 
d="M704 257q-43 -48 -87.5 -70t-100.5 -22q-61 0 -107.5 24.5t-77.5 68.5t-47 106.5t-16 139.5q0 78 16.5 140t48 105t76.5 66t103 23q111 0 192 -95l-59 -93q-63 80 -129 80q-139 0 -139 -228q0 -230 141 -230q35 0 68.5 19t71.5 61l47 -90zM860 502q0 92 -27.5 172.5
t-75 140.5t-111.5 95t-137 35t-137.5 -35t-112.5 -95t-75.5 -140.5t-27.5 -172.5t27.5 -172.5t75.5 -140.5t112.5 -95t137.5 -35t137 35t111.5 95t75 140.5t27.5 172.5zM926 501q0 -108 -33 -202.5t-89.5 -165t-132.5 -111t-162 -40.5q-87 0 -163.5 40.5t-133 111t-89.5 165
t-33 202.5q0 107 33 201.5t89.5 165t133 111t163.5 40.5q86 0 162 -40.5t132.5 -111t89.5 -165t33 -201.5z" />
    <glyph glyph-name="ordfeminine" unicode="&#xaa;" horiz-adv-x="535" 
d="M231 630q18 0 39 9.5t49 31.5v111q-69 -2 -100 -24t-31 -64q0 -30 11.5 -47t31.5 -17zM389 546q-24 7 -38 18t-22 28q-53 -45 -117 -45q-55 0 -88.5 38t-33.5 102q0 47 16 79.5t46 53.5t72.5 30.5t94.5 10.5v4q0 35 -8.5 49.5t-42.5 14.5q-27 0 -61 -11.5t-79 -42.5
l-30 89q47 32 88 45.5t87 13.5q80 0 112.5 -40t32.5 -132v-174q0 -21 4 -31.5t23 -25.5z" />
    <glyph glyph-name="guillemotleft" unicode="&#xab;" horiz-adv-x="629" 
d="M436 152l-115 304l115 303l103 -64l-92 -240l92 -240zM206 152l-116 304l116 303l104 -64l-92 -240l92 -240z" />
    <glyph glyph-name="registered" unicode="&#xae;" horiz-adv-x="649" 
d="M308 878h-5v-64h27q29 0 29 30q0 18 -7.5 26t-25.5 8h-18zM427 848q0 -49 -33 -74q2 -8 7.5 -23t11.5 -32q8 -23 14.5 -44t6.5 -23h-74l-32 96q-1 4 -1 5v2h-23v-103h-69v285q29 4 51 4.5t40 0.5q19 0 37 -3.5t32 -14t23 -29t9 -47.5zM326 1000q-36 0 -66.5 -16.5
t-53.5 -44.5t-36 -66t-13 -80q0 -44 13 -81.5t36 -65.5t53.5 -44t66.5 -16q34 0 64 16t52 44t35 65.5t13 81.5q0 42 -13 80t-35 66t-52 44.5t-64 16.5zM325 536q-45 0 -84 20t-68 55t-46 81t-17 99q0 54 17 101t46 82t68 55t84 20q44 0 83 -20t68 -55t46 -82t17 -101
q0 -53 -17 -99t-46 -81t-68 -55t-83 -20z" />
    <glyph glyph-name="macron" unicode="&#xaf;" horiz-adv-x="509" 
d="M135 932v115h293v-115h-293z" />
    <glyph glyph-name="macron" unicode="&#x2c9;" horiz-adv-x="509" 
d="M135 932v115h293v-115h-293z" />
    <glyph glyph-name="degree" unicode="&#xb0;" horiz-adv-x="577" 
d="M416 789q0 34 -10 64.5t-27 53t-40.5 35.5t-50.5 13t-50.5 -13t-40.5 -35.5t-27 -53t-10 -64.5q0 -35 10 -65t27 -52.5t40.5 -35.5t50.5 -13t50.5 13t40.5 35.5t27 52.5t10 65zM487 789q0 -50 -16 -94t-43 -77t-63.5 -52t-76.5 -19t-76 19t-63 52t-43 77t-16 94t16 94
t43 77t63 52t76 19t76.5 -19t63.5 -52t43 -77t16 -94z" />
    <glyph glyph-name="plusminus" unicode="&#xb1;" horiz-adv-x="658" 
d="M91 0v125h477v-125h-477zM391 479v-253h-128v253h-173v125h173v248h128v-248h177v-125h-177z" />
    <glyph glyph-name="twosuperior" unicode="&#xb2;" horiz-adv-x="415" 
d="M63 592q45 61 78 111t54 91.5t31.5 74.5t10.5 61q0 32 -12 51.5t-35 19.5q-20 0 -38.5 -14.5t-44.5 -46.5l-47 89q29 37 66.5 59.5t78.5 22.5q66 0 103 -43.5t37 -130.5q0 -38 -11.5 -76.5t-33.5 -80t-53 -88t-71 -99.5h168v-103h-266z" />
    <glyph glyph-name="threesuperior" unicode="&#xb3;" horiz-adv-x="416" 
d="M346 667q0 -43 -11 -77t-31.5 -58t-48 -37t-60.5 -13q-38 0 -70.5 11t-64.5 37l36 96q30 -24 51 -33.5t42 -9.5q23 0 37.5 21t14.5 66q0 43 -14.5 66.5t-40.5 23.5h-51v99h37q31 0 44.5 18t13.5 63q0 39 -12 55t-35 16q-16 0 -34.5 -7t-48.5 -35l-38 93q41 26 71 38.5
t63 12.5q63 0 100.5 -42.5t37.5 -121.5q0 -40 -12.5 -74.5t-38.5 -57.5q34 -18 48.5 -58t14.5 -92z" />
    <glyph glyph-name="acute" unicode="&#xb4;" horiz-adv-x="378" 
d="M137 892l-73 50l144 160l117 -73z" />
    <glyph glyph-name="mu" unicode="&#xb5;" horiz-adv-x="688" 
d="M435 0h133v817h-139v-507q0 -53 -6 -90q-6 -36 -18 -58.5t-30 -32.5t-42 -10t-39 15t-22.5 39.5t-10 57.5t-2.5 69v517h-139v-1153h137v352q11 -14 29 -21t37 -7q36 0 62 16t46 58z" />
    <glyph glyph-name="mu" unicode="&#x3bc;" horiz-adv-x="688" 
d="M435 0h133v817h-139v-507q0 -53 -6 -90q-6 -36 -18 -58.5t-30 -32.5t-42 -10t-39 15t-22.5 39.5t-10 57.5t-2.5 69v517h-139v-1153h137v352q11 -14 29 -21t37 -7q36 0 62 16t46 58z" />
    <glyph glyph-name="paragraph" unicode="&#xb6;" horiz-adv-x="615" 
d="M429 0q-81 0 -143 29t-103 80t-62 120.5t-21 149.5q0 78 21 146.5t62 119.5t103 80.5t143 29.5h61v-755h-61z" />
    <glyph glyph-name="periodcentered" unicode="&#xb7;" horiz-adv-x="338" 
d="M248 463q0 -47 -22 -75.5t-56 -28.5q-33 0 -56.5 27.5t-23.5 76.5q0 48 23.5 73.5t56.5 25.5q34 0 56 -26t22 -73z" />
    <glyph glyph-name="periodcentered" unicode="&#x2219;" horiz-adv-x="338" 
d="M248 463q0 -47 -22 -75.5t-56 -28.5q-33 0 -56.5 27.5t-23.5 76.5q0 48 23.5 73.5t56.5 25.5q34 0 56 -26t22 -73z" />
    <glyph glyph-name="cedilla" unicode="&#xb8;" horiz-adv-x="456" 
d="M347 -187q0 -36 -9.5 -61t-25 -40.5t-35 -23t-40.5 -7.5q-30 0 -52.5 8.5t-38.5 22.5l32 64q11 -11 24.5 -18t24.5 -7q13 0 22.5 12t9.5 46q0 19 -5.5 35t-21.5 16q-15 0 -34 -11l-33 36l42 125h70l-27 -85h6q16 0 32.5 -6t29.5 -19t21 -34.5t8 -52.5z" />
    <glyph glyph-name="onesuperior" unicode="&#xb9;" horiz-adv-x="353" 
d="M258 1105v-614h-103v453l-65 -56l-45 87l128 130h85z" />
    <glyph glyph-name="ordmasculine" unicode="&#xba;" horiz-adv-x="535" 
d="M318 793q0 25 -1.5 51t-7 46.5t-15.5 33.5t-27 13q-18 0 -28.5 -13t-16 -34t-6.5 -47.5t-1 -53.5q0 -67 11 -105t43 -38q29 0 39 40t10 107zM419 787q0 -110 -38.5 -173.5t-114.5 -63.5q-39 0 -67.5 17.5t-46.5 49.5t-27 77t-9 100q0 112 38 175.5t116 63.5
q38 0 66 -17.5t46.5 -49.5t27.5 -77.5t9 -101.5z" />
    <glyph glyph-name="guillemotright" unicode="&#xbb;" horiz-adv-x="628" 
d="M192 152l-102 64l92 239l-92 241l102 64l116 -304zM423 152l-103 64l91 239l-91 241l103 64l115 -304z" />
    <glyph glyph-name="onequarter" unicode="&#xbc;" horiz-adv-x="1040" 
d="M774 169v230l-84 -230h84zM303 1105v-614h-103v453l-64 -56l-46 87l129 130h84zM341 -57h-90l408 1162h91zM869 65v-122h-105v122h-147l-19 94l152 398h119v-385h48v-107h-48z" />
    <glyph glyph-name="onehalf" unicode="&#xbd;" horiz-adv-x="1040" 
d="M303 1105v-614h-103v453l-64 -56l-46 87l129 130h84zM667 45q45 61 77.5 111t54 90.5t32 73.5t10.5 62q0 33 -12 53.5t-35 20.5q-20 0 -38.5 -16t-44.5 -47l-47 88q29 38 67 61t77 23q66 0 103.5 -44t37.5 -131q0 -37 -11.5 -75.5t-33.5 -80.5t-53 -88t-71 -99h167v-104
h-266zM341 -57h-90l408 1162h91z" />
    <glyph glyph-name="threequarters" unicode="&#xbe;" horiz-adv-x="1040" 
d="M797 169v230l-85 -230h85zM374 667q0 -86 -41.5 -135.5t-108.5 -49.5q-38 0 -70 11t-64 37l36 95q28 -24 49.5 -33t43.5 -9q23 0 37 21t14 66q0 43 -14 66.5t-40 23.5h-54v99h38q31 0 44.5 18t13.5 63q0 39 -11.5 55t-34.5 16q-15 0 -34 -7t-48 -35l-38 94
q38 25 68.5 37.5t65.5 12.5q63 0 99.5 -42.5t36.5 -121.5q0 -40 -12 -74.5t-38 -57.5q34 -18 48 -58t14 -92zM361 -57h-89l410 1162h89zM890 65v-122h-104v122h-147l-19 94l152 398h118v-385h49v-107h-49z" />
    <glyph glyph-name="questiondown" unicode="&#xbf;" horiz-adv-x="530" 
d="M457 -140q-45 -40 -88 -58t-96 -18q-99 0 -151 68.5t-52 195.5q0 55 6 94.5t18 69t29.5 52.5t40.5 46l48 43h-1q10 11 16 19t8.5 18t3 24t0.5 36v88h128v-116q0 -35 -2 -58.5t-7.5 -40.5t-16 -31t-28.5 -29l-44 -38q-14 -12 -25 -25.5t-18.5 -32t-12 -43t-4.5 -58.5
q0 -67 19.5 -104t62.5 -37q32 0 60.5 20t68.5 59l40 -139zM387 720q0 -47 -23.5 -74t-61.5 -27q-35 0 -60.5 27t-25.5 74q0 45 25.5 71t60.5 26q38 0 61.5 -26t23.5 -71z" />
    <glyph glyph-name="Agrave" unicode="&#xc0;" horiz-adv-x="678" 
d="M263 374h149l-75 450zM475 0l-45 242h-186l-45 -242h-149l202 1003h173l203 -1003h-153zM323 1067l-188 141l118 72l143 -162z" />
    <glyph glyph-name="Aacute" unicode="&#xc1;" horiz-adv-x="678" 
d="M263 374h149l-75 450zM475 0l-45 242h-186l-45 -242h-149l202 1003h173l203 -1003h-153zM341 1072l-73 50l144 160l117 -73z" />
    <glyph glyph-name="Acircumflex" unicode="&#xc2;" horiz-adv-x="678" 
d="M263 374h149l-75 450zM475 0l-45 242h-186l-45 -242h-149l202 1003h173l203 -1003h-153zM451 1071l-114 71l-116 -71l-63 85l179 110l181 -110z" />
    <glyph glyph-name="Atilde" unicode="&#xc3;" horiz-adv-x="678" 
d="M263 374h149l-75 450zM475 0l-45 242h-186l-45 -242h-149l202 1003h173l203 -1003h-153zM537 1175q-15 -47 -49.5 -72t-76.5 -25q-28 0 -48 10.5t-40 21.5q-15 9 -29.5 16.5t-25.5 7.5q-17 0 -31.5 -12.5t-25.5 -45.5l-73 66q17 54 48.5 78t75.5 24q27 0 50 -10.5
t44 -22.5q14 -9 27.5 -15.5t24.5 -6.5q17 0 34 12t28 44z" />
    <glyph glyph-name="Adieresis" unicode="&#xc4;" horiz-adv-x="678" 
d="M263 374h149l-75 450zM475 0l-45 242h-186l-45 -242h-149l202 1003h173l203 -1003h-153zM293 1168q0 -18 -5.5 -33.5t-15.5 -27.5t-23.5 -19t-29.5 -7q-15 0 -28.5 7t-23.5 19t-16 27.5t-6 33.5q0 37 21.5 62t52.5 25q32 0 53 -25t21 -62zM532 1168q0 -35 -21 -61
t-52 -26q-15 0 -29 7t-24.5 19t-16.5 27.5t-6 33.5q0 37 22.5 62t53.5 25q32 0 52.5 -25t20.5 -62z" />
    <glyph glyph-name="Aring" unicode="&#xc5;" horiz-adv-x="678" 
d="M263 374h149l-75 450zM475 0l-45 242h-186l-45 -242h-149l202 1003h173l203 -1003h-153zM380 1175q0 52 -40 52q-17 0 -29 -13.5t-12 -38.5t12 -38t29 -13q40 0 40 51zM446 1175q0 -55 -30 -81t-76 -26q-45 0 -76 26t-31 81q0 53 31 79t76 26q46 0 76 -26t30 -79z" />
    <glyph glyph-name="AE" unicode="&#xc6;" horiz-adv-x="899" 
d="M279 374h176v490h-61zM455 0v242h-206l-61 -242h-148l257 1000h524v-136h-225v-272h200v-139h-200v-320h233v-133h-374z" />
    <glyph glyph-name="Ccedilla" unicode="&#xc7;" horiz-adv-x="644" 
d="M477 -187q0 -36 -9.5 -61t-24.5 -40.5t-34.5 -23t-39.5 -7.5q-30 0 -52 8.5t-39 22.5l30 63q27 -24 50 -24q13 0 23 12t10 46q0 19 -6 35t-23 16q-7 0 -13.5 -2t-19.5 -10l-32 37l34 104q-68 11 -114 57t-74.5 115.5t-40.5 157t-12 182.5q0 93 14 185t48 165.5t89 119
t138 45.5q66 0 114.5 -34t94.5 -99l-86 -115q-32 54 -59 83t-66 29q-38 0 -64.5 -29.5t-43 -80.5t-24 -120.5t-7.5 -148.5q0 -37 2 -79t7.5 -84.5t15 -82t25.5 -70t38.5 -48.5t53.5 -18q42 0 74.5 30.5t67.5 88.5l74 -116q-32 -50 -81.5 -88.5t-115.5 -46.5l-18 -62h6
q16 0 32 -6t29 -19t21 -34.5t8 -52.5z" />
    <glyph glyph-name="Egrave" unicode="&#xc8;" horiz-adv-x="575" 
d="M130 0v1000h366v-133h-224v-278h200v-133h-200v-323h233v-133h-375zM306 1067l-188 141l118 72l143 -162z" />
    <glyph glyph-name="Eacute" unicode="&#xc9;" horiz-adv-x="575" 
d="M130 0v1000h366v-133h-224v-278h200v-133h-200v-323h233v-133h-375zM305 1072l-73 50l144 160l117 -73z" />
    <glyph glyph-name="Ecircumflex" unicode="&#xca;" horiz-adv-x="575" 
d="M130 0v1000h366v-133h-224v-278h200v-133h-200v-323h233v-133h-375zM426 1071l-114 71l-116 -71l-63 85l179 110l181 -110z" />
    <glyph glyph-name="Edieresis" unicode="&#xcb;" horiz-adv-x="575" 
d="M130 0v1000h366v-133h-224v-278h200v-133h-200v-323h233v-133h-375zM278 1168q0 -18 -5.5 -33.5t-15.5 -27.5t-23.5 -19t-29.5 -7q-15 0 -28.5 7t-23.5 19t-16 27.5t-6 33.5q0 37 21.5 62t52.5 25q32 0 53 -25t21 -62zM517 1168q0 -35 -21 -61t-52 -26q-15 0 -29 7
t-24.5 19t-16.5 27.5t-6 33.5q0 37 22.5 62t53.5 25q32 0 52.5 -25t20.5 -62z" />
    <glyph glyph-name="Igrave" unicode="&#xcc;" horiz-adv-x="402" 
d="M130 0v1000h142v-1000h-142zM193 1067l-188 141l118 72l143 -162z" />
    <glyph glyph-name="Iacute" unicode="&#xcd;" horiz-adv-x="402" 
d="M130 0v1000h142v-1000h-142zM210 1072l-73 50l144 160l117 -73z" />
    <glyph glyph-name="Icircumflex" unicode="&#xce;" horiz-adv-x="402" 
d="M130 0v1000h142v-1000h-142zM309 1071l-114 71l-116 -71l-63 85l179 110l181 -110z" />
    <glyph glyph-name="Idieresis" unicode="&#xcf;" horiz-adv-x="402" 
d="M130 0v1000h142v-1000h-142zM156 1168q0 -18 -5.5 -33.5t-15.5 -27.5t-23.5 -19t-29.5 -7q-15 0 -28.5 7t-23.5 19t-16 27.5t-6 33.5q0 37 21.5 62t52.5 25q32 0 53 -25t21 -62zM395 1168q0 -35 -21 -61t-52 -26q-15 0 -29 7t-24.5 19t-16.5 27.5t-6 33.5q0 37 22.5 62
t53.5 25q32 0 52.5 -25t20.5 -62z" />
    <glyph glyph-name="Eth" unicode="&#xd0;" horiz-adv-x="722" 
d="M272 453v-322q6 -1 12 -1h13h31q44 0 74.5 26t49 74.5t26.5 119.5t8 161q0 86 -8.5 154.5t-26.5 116.5t-46.5 73.5t-68.5 25.5q-16 0 -31.5 -1t-32.5 -4v-284h93v-139h-93zM632 504q0 -114 -17 -207t-54.5 -159t-98 -102t-146.5 -36h-186v453h-52v139h52v402
q43 8 96.5 12.5t106.5 4.5q82 0 139.5 -40t92.5 -109t51 -161t16 -197z" />
    <glyph glyph-name="Ntilde" unicode="&#xd1;" horiz-adv-x="782" 
d="M525 0l-259 641v-641h-136v1000h140l246 -634v634h136v-1000h-127zM590 1175q-15 -47 -49.5 -72t-76.5 -25q-28 0 -48 10.5t-40 21.5q-15 9 -29.5 16.5t-25.5 7.5q-17 0 -31.5 -12.5t-25.5 -45.5l-73 66q17 54 48.5 78t75.5 24q27 0 50 -10.5t44 -22.5q14 -9 27.5 -15.5
t24.5 -6.5q17 0 34 12t28 44z" />
    <glyph glyph-name="Ograve" unicode="&#xd2;" 
d="M531 502q0 86 -7.5 156.5t-25 120.5t-46 77t-69.5 27t-68.5 -28t-44.5 -78t-24.5 -120.5t-7.5 -154.5q0 -87 7.5 -158t25 -122t45.5 -78.5t70 -27.5q40 0 68 28.5t45 79.5t24.5 122t7.5 156zM679 501q0 -112 -17.5 -207t-53.5 -164t-92 -108t-133 -39t-132.5 39t-91 108
t-52.5 164t-17 207q0 111 16.5 205.5t52 163t91 107.5t133.5 39q77 0 133 -39t92 -107.5t53.5 -163t17.5 -205.5zM381 1077l-188 141l118 72l143 -162z" />
    <glyph glyph-name="Oacute" unicode="&#xd3;" 
d="M531 502q0 86 -7.5 156.5t-25 120.5t-46 77t-69.5 27t-68.5 -28t-44.5 -78t-24.5 -120.5t-7.5 -154.5q0 -87 7.5 -158t25 -122t45.5 -78.5t70 -27.5q40 0 68 28.5t45 79.5t24.5 122t7.5 156zM679 501q0 -112 -17.5 -207t-53.5 -164t-92 -108t-133 -39t-132.5 39t-91 108
t-52.5 164t-17 207q0 111 16.5 205.5t52 163t91 107.5t133.5 39q77 0 133 -39t92 -107.5t53.5 -163t17.5 -205.5zM398 1082l-73 50l144 160l117 -73z" />
    <glyph glyph-name="Ocircumflex" unicode="&#xd4;" 
d="M531 502q0 86 -7.5 156.5t-25 120.5t-46 77t-69.5 27t-68.5 -28t-44.5 -78t-24.5 -120.5t-7.5 -154.5q0 -87 7.5 -158t25 -122t45.5 -78.5t70 -27.5q40 0 68 28.5t45 79.5t24.5 122t7.5 156zM679 501q0 -112 -17.5 -207t-53.5 -164t-92 -108t-133 -39t-132.5 39t-91 108
t-52.5 164t-17 207q0 111 16.5 205.5t52 163t91 107.5t133.5 39q77 0 133 -39t92 -107.5t53.5 -163t17.5 -205.5zM499 1081l-114 71l-116 -71l-63 85l179 110l181 -110z" />
    <glyph glyph-name="Otilde" unicode="&#xd5;" 
d="M531 502q0 86 -7.5 156.5t-25 120.5t-46 77t-69.5 27t-68.5 -28t-44.5 -78t-24.5 -120.5t-7.5 -154.5q0 -87 7.5 -158t25 -122t45.5 -78.5t70 -27.5q40 0 68 28.5t45 79.5t24.5 122t7.5 156zM679 501q0 -112 -17.5 -207t-53.5 -164t-92 -108t-133 -39t-132.5 39t-91 108
t-52.5 164t-17 207q0 111 16.5 205.5t52 163t91 107.5t133.5 39q77 0 133 -39t92 -107.5t53.5 -163t17.5 -205.5zM585 1185q-15 -47 -49.5 -72t-76.5 -25q-28 0 -48 10.5t-40 21.5q-15 9 -29.5 16.5t-25.5 7.5q-17 0 -31.5 -12.5t-25.5 -45.5l-73 66q17 54 48.5 78t75.5 24
q27 0 50 -10.5t44 -22.5q14 -9 27.5 -15.5t24.5 -6.5q17 0 34 12t28 44z" />
    <glyph glyph-name="Odieresis" unicode="&#xd6;" 
d="M531 502q0 86 -7.5 156.5t-25 120.5t-46 77t-69.5 27t-68.5 -28t-44.5 -78t-24.5 -120.5t-7.5 -154.5q0 -87 7.5 -158t25 -122t45.5 -78.5t70 -27.5q40 0 68 28.5t45 79.5t24.5 122t7.5 156zM679 501q0 -112 -17.5 -207t-53.5 -164t-92 -108t-133 -39t-132.5 39t-91 108
t-52.5 164t-17 207q0 111 16.5 205.5t52 163t91 107.5t133.5 39q77 0 133 -39t92 -107.5t53.5 -163t17.5 -205.5zM341 1178q0 -18 -5.5 -33.5t-15.5 -27.5t-23.5 -19t-29.5 -7q-15 0 -28.5 7t-23.5 19t-16 27.5t-6 33.5q0 37 21.5 62t52.5 25q32 0 53 -25t21 -62zM580 1178
q0 -35 -21 -61t-52 -26q-15 0 -29 7t-24.5 19t-16.5 27.5t-6 33.5q0 37 22.5 62t53.5 25q32 0 52.5 -25t20.5 -62z" />
    <glyph glyph-name="multiply" unicode="&#xd7;" horiz-adv-x="755" 
d="M611 573l-141 -174l141 -175l-89 -107l-137 174l-139 -174l-88 107l139 175l-139 174l88 108l139 -175l137 175z" />
    <glyph glyph-name="Oslash" unicode="&#xd8;" 
d="M531 502q0 29 -0.5 56.5t-4.5 53.5l-252 -400q17 -47 44.5 -71.5t67.5 -24.5t67.5 28.5t44.5 79.5t25 122t8 156zM238 502q0 -35 1 -66.5t3 -60.5l255 409q-20 48 -46 73.5t-68 25.5q-41 0 -68.5 -28t-44.5 -78t-24.5 -120.5t-7.5 -154.5zM679 501q-2 -112 -19 -207
t-52.5 -164t-91 -108t-133.5 -39q-63 0 -110 25.5t-82 70.5l-60 -94l-90 66l91 147q-21 62 -31.5 138.5t-10.5 164.5q0 111 16.5 205.5t52 163t91 107.5t133.5 39q65 0 112.5 -26t82.5 -74l64 99l100 -67l-103 -160q20 -61 30 -133.5t10 -153.5z" />
    <glyph glyph-name="Ugrave" unicode="&#xd9;" horiz-adv-x="749" 
d="M619 398q0 -102 -10 -179.5t-37 -130t-74.5 -79t-122.5 -26.5q-74 0 -121 26.5t-75 79t-38.5 130t-10.5 179.5v602h142v-642q0 -63 4.5 -108.5t16 -75t31.5 -43.5t51 -14t51 14t31 43.5t15.5 75t4.5 108.5v642h142v-602zM372 1067l-188 141l118 72l143 -162z" />
    <glyph glyph-name="Uacute" unicode="&#xda;" horiz-adv-x="749" 
d="M619 398q0 -102 -10 -179.5t-37 -130t-74.5 -79t-122.5 -26.5q-74 0 -121 26.5t-75 79t-38.5 130t-10.5 179.5v602h142v-642q0 -63 4.5 -108.5t16 -75t31.5 -43.5t51 -14t51 14t31 43.5t15.5 75t4.5 108.5v642h142v-602zM376 1072l-73 50l144 160l117 -73z" />
    <glyph glyph-name="Ucircumflex" unicode="&#xdb;" horiz-adv-x="749" 
d="M619 398q0 -102 -10 -179.5t-37 -130t-74.5 -79t-122.5 -26.5q-74 0 -121 26.5t-75 79t-38.5 130t-10.5 179.5v602h142v-642q0 -63 4.5 -108.5t16 -75t31.5 -43.5t51 -14t51 14t31 43.5t15.5 75t4.5 108.5v642h142v-602zM484 1071l-114 71l-116 -71l-63 85l179 110
l181 -110z" />
    <glyph glyph-name="Udieresis" unicode="&#xdc;" horiz-adv-x="749" 
d="M619 398q0 -102 -10 -179.5t-37 -130t-74.5 -79t-122.5 -26.5q-74 0 -121 26.5t-75 79t-38.5 130t-10.5 179.5v602h142v-642q0 -63 4.5 -108.5t16 -75t31.5 -43.5t51 -14t51 14t31 43.5t15.5 75t4.5 108.5v642h142v-602zM327 1168q0 -18 -5.5 -33.5t-15.5 -27.5
t-23.5 -19t-29.5 -7q-15 0 -28.5 7t-23.5 19t-16 27.5t-6 33.5q0 37 21.5 62t52.5 25q32 0 53 -25t21 -62zM566 1168q0 -35 -21 -61t-52 -26q-15 0 -29 7t-24.5 19t-16.5 27.5t-6 33.5q0 37 22.5 62t53.5 25q32 0 52.5 -25t20.5 -62z" />
    <glyph glyph-name="Yacute" unicode="&#xdd;" horiz-adv-x="612" 
d="M377 380v-380h-142v374l-195 626h151l114 -447l122 447h145zM308 1057l-73 50l144 160l117 -73z" />
    <glyph glyph-name="Thorn" unicode="&#xde;" horiz-adv-x="659" 
d="M447 531q0 101 -21.5 146.5t-79.5 45.5q-18 0 -35.5 -2t-38.5 -5v-384h68q32 0 53 12t33 36.5t16.5 62t4.5 88.5zM589 531q0 -165 -56 -244t-182 -79h-79v-208h-142v1000h142v-147h25h37q62 0 109.5 -17.5t80 -56t49 -100t16.5 -148.5z" />
    <glyph glyph-name="germandbls" unicode="&#xdf;" horiz-adv-x="664" 
d="M604 273q0 -136 -54 -204.5t-151 -68.5h-57v126q66 0 98 34t32 122q0 48 -8.5 86t-26 68.5t-44.5 55.5t-64 48l-10 88q8 14 15.5 26t13.5 23q16 27 28 46.5t19 38t10.5 38.5t3.5 48q0 66 -16.5 96t-51.5 30q-38 0 -52.5 -25.5t-14.5 -88.5v-860h-140v679h-74v130h74v35
q0 50 9 95.5t32 79.5t62 54t99 20q40 0 76.5 -11.5t64.5 -38.5t44.5 -72t16.5 -112q0 -40 -5 -70.5t-15.5 -58t-26.5 -54.5t-38 -60q39 -32 67 -66t47 -74.5t28 -90t9 -112.5z" />
    <glyph glyph-name="agrave" unicode="&#xe0;" horiz-adv-x="665" 
d="M297 106q25 0 52.5 12.5t56.5 53.5v251q-94 -2 -136.5 -48.5t-42.5 -136.5q0 -57 16.5 -94.5t53.5 -37.5zM488 -12q-29 10 -47.5 30.5t-25.5 47.5q-29 -38 -64 -58t-84 -20q-43 0 -76 17.5t-55.5 50t-34 77t-11.5 98.5q0 81 26 138t69.5 92.5t100.5 52t120 17.5v89
q0 17 -3 32.5t-11 27.5t-22 19t-35 7q-48 0 -92.5 -20.5t-89.5 -52.5l-32 127q54 35 107.5 52t114.5 17q58 0 97 -15t62 -45t33 -76t10 -108v-411q0 -40 4.5 -64t25.5 -42zM334 907l-188 141l118 72l143 -162z" />
    <glyph glyph-name="aacute" unicode="&#xe1;" horiz-adv-x="665" 
d="M297 106q25 0 52.5 12.5t56.5 53.5v251q-94 -2 -136.5 -48.5t-42.5 -136.5q0 -57 16.5 -94.5t53.5 -37.5zM488 -12q-29 10 -47.5 30.5t-25.5 47.5q-29 -38 -64 -58t-84 -20q-43 0 -76 17.5t-55.5 50t-34 77t-11.5 98.5q0 81 26 138t69.5 92.5t100.5 52t120 17.5v89
q0 17 -3 32.5t-11 27.5t-22 19t-35 7q-48 0 -92.5 -20.5t-89.5 -52.5l-32 127q54 35 107.5 52t114.5 17q58 0 97 -15t62 -45t33 -76t10 -108v-411q0 -40 4.5 -64t25.5 -42zM317 912l-73 50l144 160l117 -73z" />
    <glyph glyph-name="acircumflex" unicode="&#xe2;" horiz-adv-x="665" 
d="M297 106q25 0 52.5 12.5t56.5 53.5v251q-94 -2 -136.5 -48.5t-42.5 -136.5q0 -57 16.5 -94.5t53.5 -37.5zM488 -12q-29 10 -47.5 30.5t-25.5 47.5q-29 -38 -64 -58t-84 -20q-43 0 -76 17.5t-55.5 50t-34 77t-11.5 98.5q0 81 26 138t69.5 92.5t100.5 52t120 17.5v89
q0 17 -3 32.5t-11 27.5t-22 19t-35 7q-48 0 -92.5 -20.5t-89.5 -52.5l-32 127q54 35 107.5 52t114.5 17q58 0 97 -15t62 -45t33 -76t10 -108v-411q0 -40 4.5 -64t25.5 -42zM457 921l-114 71l-116 -71l-63 85l179 110l181 -110z" />
    <glyph glyph-name="atilde" unicode="&#xe3;" horiz-adv-x="665" 
d="M297 106q25 0 52.5 12.5t56.5 53.5v251q-94 -2 -136.5 -48.5t-42.5 -136.5q0 -57 16.5 -94.5t53.5 -37.5zM488 -12q-29 10 -47.5 30.5t-25.5 47.5q-29 -38 -64 -58t-84 -20q-43 0 -76 17.5t-55.5 50t-34 77t-11.5 98.5q0 81 26 138t69.5 92.5t100.5 52t120 17.5v89
q0 17 -3 32.5t-11 27.5t-22 19t-35 7q-48 0 -92.5 -20.5t-89.5 -52.5l-32 127q54 35 107.5 52t114.5 17q58 0 97 -15t62 -45t33 -76t10 -108v-411q0 -40 4.5 -64t25.5 -42zM533 1025q-15 -47 -49.5 -72t-76.5 -25q-28 0 -48 10.5t-40 21.5q-15 9 -29.5 16.5t-25.5 7.5
q-17 0 -31.5 -12.5t-25.5 -45.5l-73 66q17 54 48.5 78t75.5 24q27 0 50 -10.5t44 -22.5q14 -9 27.5 -15.5t24.5 -6.5q17 0 34 12t28 44z" />
    <glyph glyph-name="adieresis" unicode="&#xe4;" horiz-adv-x="665" 
d="M297 106q25 0 52.5 12.5t56.5 53.5v251q-94 -2 -136.5 -48.5t-42.5 -136.5q0 -57 16.5 -94.5t53.5 -37.5zM488 -12q-29 10 -47.5 30.5t-25.5 47.5q-29 -38 -64 -58t-84 -20q-43 0 -76 17.5t-55.5 50t-34 77t-11.5 98.5q0 81 26 138t69.5 92.5t100.5 52t120 17.5v89
q0 17 -3 32.5t-11 27.5t-22 19t-35 7q-48 0 -92.5 -20.5t-89.5 -52.5l-32 127q54 35 107.5 52t114.5 17q58 0 97 -15t62 -45t33 -76t10 -108v-411q0 -40 4.5 -64t25.5 -42zM290 1018q0 -18 -5.5 -33.5t-15.5 -27.5t-23.5 -19t-29.5 -7q-15 0 -28.5 7t-23.5 19t-16 27.5
t-6 33.5q0 37 21.5 62t52.5 25q32 0 53 -25t21 -62zM529 1018q0 -35 -21 -61t-52 -26q-15 0 -29 7t-24.5 19t-16.5 27.5t-6 33.5q0 37 22.5 62t53.5 25q32 0 52.5 -25t20.5 -62z" />
    <glyph glyph-name="aring" unicode="&#xe5;" horiz-adv-x="665" 
d="M297 106q25 0 52.5 12.5t56.5 53.5v251q-94 -2 -136.5 -48.5t-42.5 -136.5q0 -57 16.5 -94.5t53.5 -37.5zM488 -12q-29 10 -47.5 30.5t-25.5 47.5q-29 -38 -64 -58t-84 -20q-43 0 -76 17.5t-55.5 50t-34 77t-11.5 98.5q0 81 26 138t69.5 92.5t100.5 52t120 17.5v89
q0 17 -3 32.5t-11 27.5t-22 19t-35 7q-48 0 -92.5 -20.5t-89.5 -52.5l-32 127q54 35 107.5 52t114.5 17q58 0 97 -15t62 -45t33 -76t10 -108v-411q0 -40 4.5 -64t25.5 -42zM382 1025q0 52 -40 52q-17 0 -29 -13.5t-12 -38.5t12 -38t29 -13q40 0 40 51zM448 1025
q0 -55 -30 -81t-76 -26q-45 0 -76 26t-31 81q0 53 31 79t76 26q46 0 76 -26t30 -79z" />
    <glyph glyph-name="ae" unicode="&#xe6;" horiz-adv-x="967" 
d="M650 711q-54 0 -78 -61.5t-24 -182.5h196q0 47 -4 91t-14 78t-28.5 54.5t-47.5 20.5zM311 106q25 0 59 18.5t60 55.5q-14 58 -19 118.5t-5 124.5q-94 -2 -136.5 -48.5t-42.5 -136.5q0 -69 22.5 -100.5t61.5 -31.5zM877 415q0 -6 -0.5 -14.5t-1.5 -18.5q0 -6 -0.5 -14
t-0.5 -13h-326q1 -121 29.5 -183t87.5 -62q71 0 138 61l49 -117q-46 -35 -94 -50.5t-101 -15.5q-114 0 -179 88q-18 -19 -37 -35t-43 -28t-53.5 -18.5t-67.5 -6.5q-45 0 -79.5 17.5t-58.5 50t-36.5 77t-12.5 98.5q0 81 26 138t69.5 92.5t100.5 52t120 17.5v91q0 17 -3 32.5
t-11 27.5t-22 19t-35 7q-48 0 -92.5 -20.5t-90.5 -52.5l-31 127q54 35 107.5 52t114.5 17q60 0 99 -15.5t62 -47.5q60 63 148 63q50 0 91.5 -21.5t71 -70.5t46 -128.5t16.5 -195.5z" />
    <glyph glyph-name="ccedilla" unicode="&#xe7;" horiz-adv-x="557" 
d="M444 -188q0 -36 -9.5 -61t-25 -41t-35 -23.5t-40.5 -7.5q-30 0 -52.5 9t-38.5 22l30 64q27 -24 51 -24q13 0 22 12t9 45q0 19 -5 35t-21 16t-34 -10l-32 35l36 108q-62 9 -102.5 48t-64 97.5t-33 130t-9.5 145.5q0 76 12 151t41.5 134.5t78.5 96.5t123 37q47 0 86 -15.5
t80 -50.5l-57 -123q-29 36 -54 51t-54 15q-39 0 -61.5 -28t-34 -71t-14.5 -95.5t-3 -100.5t3 -101t15 -98t35.5 -74.5t63.5 -29.5q32 0 60.5 17t57.5 46l49 -117q-37 -31 -73.5 -45t-74.5 -20l-23 -67h7q16 0 32.5 -6t29.5 -19t21 -34.5t8 -52.5z" />
    <glyph glyph-name="egrave" unicode="&#xe8;" horiz-adv-x="655" 
d="M334 709q-54 0 -77.5 -60.5t-23.5 -181.5h196q0 47 -4.5 91t-15 77.5t-28.5 53.5t-47 20zM565 415q0 -13 -1 -30t-2 -30h-329q1 -121 29.5 -183t87.5 -62q36 0 70 15t67 47l50 -118q-46 -35 -94 -50.5t-100 -15.5q-253 0 -253 421q0 109 18 188.5t50.5 131t77.5 76
t100 24.5q50 0 92 -21t72.5 -70t47.5 -128t17 -195zM335 907l-188 141l118 72l143 -162z" />
    <glyph glyph-name="eacute" unicode="&#xe9;" horiz-adv-x="655" 
d="M334 709q-54 0 -77.5 -60.5t-23.5 -181.5h196q0 47 -4.5 91t-15 77.5t-28.5 53.5t-47 20zM565 415q0 -13 -1 -30t-2 -30h-329q1 -121 29.5 -183t87.5 -62q36 0 70 15t67 47l50 -118q-46 -35 -94 -50.5t-100 -15.5q-253 0 -253 421q0 109 18 188.5t50.5 131t77.5 76
t100 24.5q50 0 92 -21t72.5 -70t47.5 -128t17 -195zM358 912l-73 50l144 160l117 -73z" />
    <glyph glyph-name="ecircumflex" unicode="&#xea;" horiz-adv-x="655" 
d="M334 709q-54 0 -77.5 -60.5t-23.5 -181.5h196q0 47 -4.5 91t-15 77.5t-28.5 53.5t-47 20zM565 415q0 -13 -1 -30t-2 -30h-329q1 -121 29.5 -183t87.5 -62q36 0 70 15t67 47l50 -118q-46 -35 -94 -50.5t-100 -15.5q-253 0 -253 421q0 109 18 188.5t50.5 131t77.5 76
t100 24.5q50 0 92 -21t72.5 -70t47.5 -128t17 -195zM446 921l-114 71l-116 -71l-63 85l179 110l181 -110z" />
    <glyph glyph-name="edieresis" unicode="&#xeb;" horiz-adv-x="655" 
d="M334 709q-54 0 -77.5 -60.5t-23.5 -181.5h196q0 47 -4.5 91t-15 77.5t-28.5 53.5t-47 20zM565 415q0 -13 -1 -30t-2 -30h-329q1 -121 29.5 -183t87.5 -62q36 0 70 15t67 47l50 -118q-46 -35 -94 -50.5t-100 -15.5q-253 0 -253 421q0 109 18 188.5t50.5 131t77.5 76
t100 24.5q50 0 92 -21t72.5 -70t47.5 -128t17 -195zM302 1018q0 -18 -5.5 -33.5t-15.5 -27.5t-23.5 -19t-29.5 -7q-15 0 -28.5 7t-23.5 19t-16 27.5t-6 33.5q0 37 21.5 62t52.5 25q32 0 53 -25t21 -62zM541 1018q0 -35 -21 -61t-52 -26q-15 0 -29 7t-24.5 19t-16.5 27.5
t-6 33.5q0 37 22.5 62t53.5 25q32 0 52.5 -25t20.5 -62z" />
    <glyph glyph-name="igrave" unicode="&#xec;" horiz-adv-x="389" 
d="M125 0v817h139v-817h-139zM195 907l-188 141l118 72l143 -162z" />
    <glyph glyph-name="iacute" unicode="&#xed;" horiz-adv-x="389" 
d="M125 0v817h139v-817h-139zM204 912l-73 50l144 160l117 -73z" />
    <glyph glyph-name="icircumflex" unicode="&#xee;" horiz-adv-x="389" 
d="M125 0v817h139v-817h-139zM308 921l-114 71l-116 -71l-63 85l179 110l181 -110z" />
    <glyph glyph-name="idieresis" unicode="&#xef;" horiz-adv-x="389" 
d="M125 0v817h139v-817h-139zM158 1018q0 -18 -5.5 -33.5t-15.5 -27.5t-23.5 -19t-29.5 -7q-15 0 -28.5 7t-23.5 19t-16 27.5t-6 33.5q0 37 21.5 62t52.5 25q32 0 53 -25t21 -62zM397 1018q0 -35 -21 -61t-52 -26q-15 0 -29 7t-24.5 19t-16.5 27.5t-6 33.5q0 37 22.5 62
t53.5 25q32 0 52.5 -25t20.5 -62z" />
    <glyph glyph-name="eth" unicode="&#xf0;" horiz-adv-x="668" 
d="M285 945l-32 80l65 27q-7 19 -13.5 36t-12.5 33l102 45q7 -18 13 -36t13 -36l91 38l32 -80l-93 -39q27 -73 50 -146t40.5 -147.5t27.5 -151.5t10 -159q0 -201 -61 -311t-184 -110q-124 0 -183.5 110t-59.5 311t59.5 310.5t183.5 109.5q20 0 37.5 -7.5t28.5 -19.5
q-10 38 -23.5 81t-28.5 88zM435 406q0 52 -2.5 104.5t-12.5 94.5t-30.5 68.5t-56.5 26.5t-56 -26.5t-29.5 -68.5t-12 -94.5t-2.5 -104.5q0 -68 3.5 -122t14 -92.5t30.5 -59t52 -20.5q31 0 51 21t31.5 59t15.5 92.5t4 121.5z" />
    <glyph glyph-name="ntilde" unicode="&#xf1;" horiz-adv-x="689" 
d="M430 0v524q0 41 -1.5 73t-8.5 54.5t-23 34.5t-44 12t-46 -14t-28.5 -39.5t-15 -61t-4.5 -79.5v-504h-139v817h125l6 -61q26 41 61 57t80 16q55 0 89.5 -20.5t54 -62t26.5 -105t7 -149.5v-492h-139zM547 1025q-15 -47 -49.5 -72t-76.5 -25q-28 0 -48 10.5t-40 21.5
q-15 9 -29.5 16.5t-25.5 7.5q-17 0 -31.5 -12.5t-25.5 -45.5l-73 66q17 54 48.5 78t75.5 24q27 0 50 -10.5t44 -22.5q14 -9 27.5 -15.5t24.5 -6.5q17 0 34 12t28 44z" />
    <glyph glyph-name="ograve" unicode="&#xf2;" horiz-adv-x="668" 
d="M435 406q0 52 -2.5 104.5t-12.5 94.5t-30.5 68.5t-56.5 26.5t-56 -26.5t-29.5 -68.5t-12 -94.5t-2.5 -104.5q0 -68 3.5 -122t14 -92.5t30.5 -59t52 -20.5q31 0 51 21t31.5 59t15.5 92.5t4 121.5zM578 409q0 -100 -15 -178.5t-46 -132.5t-77 -82t-107 -28
q-124 0 -183.5 110t-59.5 311t59.5 310.5t183.5 109.5q123 0 184 -109.5t61 -310.5zM329 907l-188 141l118 72l143 -162z" />
    <glyph glyph-name="oacute" unicode="&#xf3;" horiz-adv-x="668" 
d="M435 406q0 52 -2.5 104.5t-12.5 94.5t-30.5 68.5t-56.5 26.5t-56 -26.5t-29.5 -68.5t-12 -94.5t-2.5 -104.5q0 -68 3.5 -122t14 -92.5t30.5 -59t52 -20.5q31 0 51 21t31.5 59t15.5 92.5t4 121.5zM578 409q0 -100 -15 -178.5t-46 -132.5t-77 -82t-107 -28
q-124 0 -183.5 110t-59.5 311t59.5 310.5t183.5 109.5q123 0 184 -109.5t61 -310.5zM346 912l-73 50l144 160l117 -73z" />
    <glyph glyph-name="ocircumflex" unicode="&#xf4;" horiz-adv-x="668" 
d="M435 406q0 52 -2.5 104.5t-12.5 94.5t-30.5 68.5t-56.5 26.5t-56 -26.5t-29.5 -68.5t-12 -94.5t-2.5 -104.5q0 -68 3.5 -122t14 -92.5t30.5 -59t52 -20.5q31 0 51 21t31.5 59t15.5 92.5t4 121.5zM578 409q0 -100 -15 -178.5t-46 -132.5t-77 -82t-107 -28
q-124 0 -183.5 110t-59.5 311t59.5 310.5t183.5 109.5q123 0 184 -109.5t61 -310.5zM448 921l-114 71l-116 -71l-63 85l179 110l181 -110z" />
    <glyph glyph-name="otilde" unicode="&#xf5;" horiz-adv-x="668" 
d="M435 406q0 52 -2.5 104.5t-12.5 94.5t-30.5 68.5t-56.5 26.5t-56 -26.5t-29.5 -68.5t-12 -94.5t-2.5 -104.5q0 -68 3.5 -122t14 -92.5t30.5 -59t52 -20.5q31 0 51 21t31.5 59t15.5 92.5t4 121.5zM578 409q0 -100 -15 -178.5t-46 -132.5t-77 -82t-107 -28
q-124 0 -183.5 110t-59.5 311t59.5 310.5t183.5 109.5q123 0 184 -109.5t61 -310.5zM538 1025q-15 -47 -49.5 -72t-76.5 -25q-28 0 -48 10.5t-40 21.5q-15 9 -29.5 16.5t-25.5 7.5q-17 0 -31.5 -12.5t-25.5 -45.5l-73 66q17 54 48.5 78t75.5 24q27 0 50 -10.5t44 -22.5
q14 -9 27.5 -15.5t24.5 -6.5q17 0 34 12t28 44z" />
    <glyph glyph-name="odieresis" unicode="&#xf6;" horiz-adv-x="668" 
d="M435 406q0 52 -2.5 104.5t-12.5 94.5t-30.5 68.5t-56.5 26.5t-56 -26.5t-29.5 -68.5t-12 -94.5t-2.5 -104.5q0 -68 3.5 -122t14 -92.5t30.5 -59t52 -20.5q31 0 51 21t31.5 59t15.5 92.5t4 121.5zM578 409q0 -100 -15 -178.5t-46 -132.5t-77 -82t-107 -28
q-124 0 -183.5 110t-59.5 311t59.5 310.5t183.5 109.5q123 0 184 -109.5t61 -310.5zM290 1018q0 -18 -5.5 -33.5t-15.5 -27.5t-23.5 -19t-29.5 -7q-15 0 -28.5 7t-23.5 19t-16 27.5t-6 33.5q0 37 21.5 62t52.5 25q32 0 53 -25t21 -62zM529 1018q0 -35 -21 -61t-52 -26
q-15 0 -29 7t-24.5 19t-16.5 27.5t-6 33.5q0 37 22.5 62t53.5 25q32 0 52.5 -25t20.5 -62z" />
    <glyph glyph-name="oslash" unicode="&#xf8;" horiz-adv-x="668" 
d="M233 358v-16l175 294q-11 29 -29 47.5t-46 18.5q-36 0 -56 -26.5t-29.5 -69t-12 -95.5t-2.5 -105v-48zM435 406v42t-1 42l-183 -302q11 -35 30.5 -55.5t51.5 -20.5q31 0 51 21t31.5 59t15.5 92.5t4 121.5zM578 409q0 -100 -15 -178.5t-45.5 -132.5t-76.5 -82t-108 -28
q-103 0 -160 71l-40 -67l-80 52l69 113q-32 99 -32 252q0 201 59.5 311.5t183.5 110.5q95 0 152 -69l40 67l81 -52l-66 -110q38 -101 38 -258z" />
    <glyph glyph-name="ugrave" unicode="&#xf9;" horiz-adv-x="688" 
d="M435 0l-4 62q-29 -42 -65 -58t-81 -16q-47 0 -78.5 17t-51 53t-27.5 92t-8 134v533h139v-517q0 -36 2.5 -69t10 -57.5t22.5 -39.5t39 -15t42 10t30 32.5t18 59t6 89.5v507h139v-817h-133zM346 907l-188 141l118 72l143 -162z" />
    <glyph glyph-name="uacute" unicode="&#xfa;" horiz-adv-x="688" 
d="M435 0l-4 62q-29 -42 -65 -58t-81 -16q-47 0 -78.5 17t-51 53t-27.5 92t-8 134v533h139v-517q0 -36 2.5 -69t10 -57.5t22.5 -39.5t39 -15t42 10t30 32.5t18 59t6 89.5v507h139v-817h-133zM356 912l-73 50l144 160l117 -73z" />
    <glyph glyph-name="ucircumflex" unicode="&#xfb;" horiz-adv-x="688" 
d="M435 0l-4 62q-29 -42 -65 -58t-81 -16q-47 0 -78.5 17t-51 53t-27.5 92t-8 134v533h139v-517q0 -36 2.5 -69t10 -57.5t22.5 -39.5t39 -15t42 10t30 32.5t18 59t6 89.5v507h139v-817h-133zM462 921l-114 71l-116 -71l-63 85l179 110l181 -110z" />
    <glyph glyph-name="udieresis" unicode="&#xfc;" horiz-adv-x="688" 
d="M435 0l-4 62q-29 -42 -65 -58t-81 -16q-47 0 -78.5 17t-51 53t-27.5 92t-8 134v533h139v-517q0 -36 2.5 -69t10 -57.5t22.5 -39.5t39 -15t42 10t30 32.5t18 59t6 89.5v507h139v-817h-133zM305 1018q0 -18 -5.5 -33.5t-15.5 -27.5t-23.5 -19t-29.5 -7q-15 0 -28.5 7
t-23.5 19t-16 27.5t-6 33.5q0 37 21.5 62t52.5 25q32 0 53 -25t21 -62zM544 1018q0 -35 -21 -61t-52 -26q-15 0 -29 7t-24.5 19t-16.5 27.5t-6 33.5q0 37 22.5 62t53.5 25q32 0 52.5 -25t20.5 -62z" />
    <glyph glyph-name="yacute" unicode="&#xfd;" horiz-adv-x="586" 
d="M359 -64q-11 -56 -25 -102.5t-35.5 -79.5t-52 -51.5t-72.5 -18.5q-21 0 -40.5 1t-42.5 8v132q14 -4 29 -5.5t25 -1.5q28 0 41 15.5t22 63.5l15 77l-173 843h146l100 -626l98 626h142zM295 912l-73 50l144 160l117 -73z" />
    <glyph glyph-name="thorn" unicode="&#xfe;" horiz-adv-x="679" 
d="M446 462q0 39 -3.5 82t-14 79t-30 59.5t-51.5 23.5q-30 0 -47.5 -17.5t-26.5 -45t-11.5 -61t-2.5 -65.5v-207q0 -30 3 -65t12.5 -65t27.5 -50t48 -20q24 0 40 16t27 42t16.5 58.5t8.5 65.5t3.5 63t0.5 52v55zM589 409q0 -40 -3.5 -87t-13 -93.5t-25 -90t-38.5 -77
t-55 -53.5t-75 -20q-37 0 -67.5 12.5t-52.5 44.5v-350h-139v1407h134v-344q21 38 53 54.5t72 16.5q44 0 76.5 -19.5t56 -52.5t38.5 -76.5t23.5 -90t12 -93.5t3.5 -88z" />
    <glyph glyph-name="ydieresis" unicode="&#xff;" horiz-adv-x="586" 
d="M359 -64q-11 -56 -25 -102.5t-35.5 -79.5t-52 -51.5t-72.5 -18.5q-21 0 -40.5 1t-42.5 8v132q14 -4 29 -5.5t25 -1.5q28 0 41 15.5t22 63.5l15 77l-173 843h146l100 -626l98 626h142zM246 1018q0 -18 -5.5 -33.5t-15.5 -27.5t-23.5 -19t-29.5 -7q-15 0 -28.5 7t-23.5 19
t-16 27.5t-6 33.5q0 37 21.5 62t52.5 25q32 0 53 -25t21 -62zM485 1018q0 -35 -21 -61t-52 -26q-15 0 -29 7t-24.5 19t-16.5 27.5t-6 33.5q0 37 22.5 62t53.5 25q32 0 52.5 -25t20.5 -62z" />
    <glyph glyph-name="Amacron" unicode="&#x100;" horiz-adv-x="678" 
d="M263 374h149l-75 450zM475 0l-45 242h-186l-45 -242h-149l202 1003h173l203 -1003h-153zM193 1112v115h293v-115h-293z" />
    <glyph glyph-name="amacron" unicode="&#x101;" horiz-adv-x="665" 
d="M297 106q25 0 52.5 12.5t56.5 53.5v251q-94 -2 -136.5 -48.5t-42.5 -136.5q0 -57 16.5 -94.5t53.5 -37.5zM488 -12q-29 10 -47.5 30.5t-25.5 47.5q-29 -38 -64 -58t-84 -20q-43 0 -76 17.5t-55.5 50t-34 77t-11.5 98.5q0 81 26 138t69.5 92.5t100.5 52t120 17.5v89
q0 17 -3 32.5t-11 27.5t-22 19t-35 7q-48 0 -92.5 -20.5t-89.5 -52.5l-32 127q54 35 107.5 52t114.5 17q58 0 97 -15t62 -45t33 -76t10 -108v-411q0 -40 4.5 -64t25.5 -42zM198 952v115h293v-115h-293z" />
    <glyph glyph-name="Abreve" unicode="&#x102;" horiz-adv-x="678" 
d="M263 374h149l-75 450zM475 0l-45 242h-186l-45 -242h-149l202 1003h173l203 -1003h-153zM506 1242q0 -52 -17 -85.5t-42.5 -52.5t-54.5 -26t-53 -7q-23 0 -52 7.5t-54.5 27t-43.5 53.5t-18 87h100q0 -35 18 -55.5t50 -20.5t50 19t18 57h91z" />
    <glyph glyph-name="abreve" unicode="&#x103;" horiz-adv-x="665" 
d="M297 106q25 0 52.5 12.5t56.5 53.5v251q-94 -2 -136.5 -48.5t-42.5 -136.5q0 -57 16.5 -94.5t53.5 -37.5zM488 -12q-29 10 -47.5 30.5t-25.5 47.5q-29 -38 -64 -58t-84 -20q-43 0 -76 17.5t-55.5 50t-34 77t-11.5 98.5q0 81 26 138t69.5 92.5t100.5 52t120 17.5v89
q0 17 -3 32.5t-11 27.5t-22 19t-35 7q-48 0 -92.5 -20.5t-89.5 -52.5l-32 127q54 35 107.5 52t114.5 17q58 0 97 -15t62 -45t33 -76t10 -108v-411q0 -40 4.5 -64t25.5 -42zM505 1082q0 -52 -17 -85.5t-42.5 -52.5t-54.5 -26t-53 -7q-23 0 -52 7.5t-54.5 27t-43.5 53.5
t-18 87h100q0 -35 18 -55.5t50 -20.5t50 19t18 57h91z" />
    <glyph glyph-name="Aogonek" unicode="&#x104;" horiz-adv-x="678" 
d="M263 374h149l-75 450zM581 0q-2 -2 -4 -2q-1 0 -3 -3q-18 -15 -35.5 -30.5t-32 -33.5t-23 -38.5t-8.5 -45.5q0 -20 4.5 -32.5t12 -20t16.5 -10.5t18 -3q15 0 26 4.5t22 10.5l16 8l31 -79q-17 -11 -47.5 -22.5t-66.5 -11.5q-60 0 -97.5 35t-37.5 100q0 37 11.5 65.5
t29 49.5t37 35.5t36.5 23.5h-11l-45 242h-186l-45 -242h-149l202 1003h173l203 -1003h-47z" />
    <glyph glyph-name="aogonek" unicode="&#x105;" horiz-adv-x="665" 
d="M297 106q25 0 52.5 12.5t56.5 53.5v251q-94 -2 -136.5 -48.5t-42.5 -136.5q0 -57 16.5 -94.5t53.5 -37.5zM267 -12q-43 0 -76 17.5t-55.5 50t-34 77t-11.5 98.5q0 81 26 138t69.5 92.5t100.5 52t120 17.5v91q0 17 -3 32.5t-11 27.5t-22 19t-35 7q-48 0 -92.5 -20.5
t-89.5 -52.5l-32 127q54 35 107.5 52t114.5 17q58 0 97 -15t62 -45t33 -76t10 -108v-413q0 -40 4.5 -64t25.5 -42q-38 -32 -63 -59.5t-40 -52t-21 -46t-6 -41.5q0 -36 15.5 -49t32.5 -13q18 0 34 7.5t30 15.5l32 -82q-16 -10 -47 -21t-66 -11q-60 0 -96.5 32.5t-36.5 97.5
q0 31 10.5 58.5t25 50t30 39.5t26.5 28q-14 18 -20 44q-29 -38 -64 -58t-84 -20z" />
    <glyph glyph-name="Cacute" unicode="&#x106;" horiz-adv-x="644" 
d="M594 119q-17 -26 -39 -50.5t-50 -43.5t-61 -30.5t-71 -11.5q-80 0 -134.5 43t-87.5 115t-47 165.5t-14 194.5q0 93 14 185t48 165.5t89 119t138 45.5q66 0 114.5 -34t94.5 -99l-86 -115q-32 54 -59 83t-66 29q-38 0 -64.5 -29.5t-43 -80.5t-24 -120.5t-7.5 -148.5
q0 -37 2 -79t7.5 -84.5t15 -82t25.5 -70t38.5 -48.5t53.5 -18q42 0 74.5 30.5t67.5 88.5l72 -113v-6zM395 1072l-73 50l144 160l117 -73z" />
    <glyph glyph-name="cacute" unicode="&#x107;" horiz-adv-x="557" 
d="M454 640q-29 36 -54 51t-54 15q-39 0 -61.5 -27.5t-34 -70.5t-14.5 -95t-3 -100t3 -101t15 -98t35.5 -74.5t63.5 -29.5q32 0 60.5 17t57.5 46l49 -117q-43 -37 -87.5 -52.5t-95.5 -15.5q-72 0 -119.5 37t-75 97t-38.5 136t-11 154q0 76 12 150.5t41.5 133.5t78.5 96
t123 37q47 0 86 -15.5t80 -50.5zM348 912l-73 50l144 160l117 -73z" />
    <glyph glyph-name="Ccaron" unicode="&#x10c;" horiz-adv-x="644" 
d="M594 119q-17 -26 -39 -50.5t-50 -43.5t-61 -30.5t-71 -11.5q-80 0 -134.5 43t-87.5 115t-47 165.5t-14 194.5q0 93 14 185t48 165.5t89 119t138 45.5q66 0 114.5 -34t94.5 -99l-86 -115q-32 54 -59 83t-66 29q-38 0 -64.5 -29.5t-43 -80.5t-24 -120.5t-7.5 -148.5
q0 -37 2 -79t7.5 -84.5t15 -82t25.5 -70t38.5 -48.5t53.5 -18q42 0 74.5 30.5t67.5 88.5l72 -113v-6zM275 1267l104 -70l108 70l58 -74l-166 -116l-168 116z" />
    <glyph glyph-name="ccaron" unicode="&#x10d;" horiz-adv-x="557" 
d="M454 640q-29 36 -54 51t-54 15q-39 0 -61.5 -27.5t-34 -70.5t-14.5 -95t-3 -100t3 -101t15 -98t35.5 -74.5t63.5 -29.5q32 0 60.5 17t57.5 46l49 -117q-43 -37 -87.5 -52.5t-95.5 -15.5q-72 0 -119.5 37t-75 97t-38.5 136t-11 154q0 76 12 150.5t41.5 133.5t78.5 96
t123 37q47 0 86 -15.5t80 -50.5zM238 1107l104 -70l108 70l58 -74l-166 -116l-168 116z" />
    <glyph glyph-name="Dcaron" unicode="&#x10e;" horiz-adv-x="722" 
d="M484 511q0 86 -8 154.5t-25.5 116.5t-46 73.5t-68.5 25.5q-16 0 -31.5 -1t-32.5 -4v-745q6 -1 12 -1h13h31q44 0 74 26t48 74.5t26 119.5t8 161zM632 504q0 -114 -17 -207t-54.5 -159t-98 -102t-146.5 -36h-186v994q43 8 96.5 12.5t106.5 4.5q82 0 139.5 -40t92.5 -109
t51 -161t16 -197zM215 1267l104 -70l108 70l58 -74l-166 -116l-168 116z" />
    <glyph glyph-name="dcaron" unicode="&#x10f;" horiz-adv-x="677" 
d="M418 532q0 85 -22 129.5t-69 44.5q-29 0 -47.5 -21t-29 -60t-14 -94.5t-3.5 -124.5q0 -62 4.5 -116t15 -94t28.5 -63t46 -23t45.5 16.5t27.5 42.5t14 58t4 64v241zM431 0l-3 73q-26 -46 -57.5 -65.5t-76.5 -19.5q-59 0 -98 37t-62.5 96.5t-33.5 134.5t-10 151
q0 205 52.5 313.5t158.5 108.5q38 0 66 -14t51 -47v317h139v-1085h-126zM736 834h-86l16 250h138z" />
    <glyph glyph-name="Dcroat" unicode="&#x110;" horiz-adv-x="722" 
d="M272 453v-322q6 -1 12 -1h13h31q44 0 74.5 26t49 74.5t26.5 119.5t8 161q0 86 -8.5 154.5t-26.5 116.5t-46.5 73.5t-68.5 25.5q-16 0 -31.5 -1t-32.5 -4v-284h93v-139h-93zM632 504q0 -114 -17 -207t-54.5 -159t-98 -102t-146.5 -36h-186v453h-52v139h52v402
q43 8 96.5 12.5t106.5 4.5q82 0 139.5 -40t92.5 -109t51 -161t16 -197z" />
    <glyph glyph-name="dcroat" unicode="&#x111;" horiz-adv-x="677" 
d="M418 532q0 85 -22 130.5t-69 45.5q-29 0 -47.5 -21.5t-29 -61t-14 -95t-3.5 -124.5q0 -62 4.5 -116t15 -94t28.5 -63t46 -23t45.5 16.5t27.5 42.5t14 58t4 64v241zM431 0l-3 73q-26 -46 -57.5 -65.5t-76.5 -19.5q-59 0 -98 37t-62.5 96.5t-33.5 134.5t-10 151
q0 204 53 314t158 110q38 0 66 -14t51 -47v127h-76v101h76v86h139v-86h74v-101h-74v-897h-126z" />
    <glyph glyph-name="Emacron" unicode="&#x112;" horiz-adv-x="575" 
d="M130 0v1000h366v-133h-224v-278h200v-133h-200v-323h233v-133h-375zM162 1097v115h293v-115h-293z" />
    <glyph glyph-name="emacron" unicode="&#x113;" horiz-adv-x="655" 
d="M334 709q-54 0 -77.5 -60.5t-23.5 -181.5h196q0 47 -4.5 91t-15 77.5t-28.5 53.5t-47 20zM565 415q0 -13 -1 -30t-2 -30h-329q1 -121 29.5 -183t87.5 -62q36 0 70 15t67 47l50 -118q-46 -35 -94 -50.5t-100 -15.5q-253 0 -253 421q0 109 18 188.5t50.5 131t77.5 76
t100 24.5q50 0 92 -21t72.5 -70t47.5 -128t17 -195zM192 952v115h293v-115h-293z" />
    <glyph glyph-name="Ebreve" unicode="&#x114;" horiz-adv-x="575" 
d="M130 0v1000h366v-133h-224v-278h200v-133h-200v-323h233v-133h-375zM473 1242q0 -52 -17 -85.5t-42.5 -52.5t-54.5 -26t-53 -7q-23 0 -52 7.5t-54.5 27t-43.5 53.5t-18 87h100q0 -35 18 -55.5t50 -20.5t50 19t18 57h91z" />
    <glyph glyph-name="ebreve" unicode="&#x115;" horiz-adv-x="655" 
d="M334 709q-54 0 -77.5 -60.5t-23.5 -181.5h196q0 47 -4.5 91t-15 77.5t-28.5 53.5t-47 20zM565 415q0 -13 -1 -30t-2 -30h-329q1 -121 29.5 -183t87.5 -62q36 0 70 15t67 47l50 -118q-46 -35 -94 -50.5t-100 -15.5q-253 0 -253 421q0 109 18 188.5t50.5 131t77.5 76
t100 24.5q50 0 92 -21t72.5 -70t47.5 -128t17 -195zM503 1082q0 -52 -17 -85.5t-42.5 -52.5t-54.5 -26t-53 -7q-23 0 -52 7.5t-54.5 27t-43.5 53.5t-18 87h100q0 -35 18 -55.5t50 -20.5t50 19t18 57h91z" />
    <glyph glyph-name="Edotaccent" unicode="&#x116;" horiz-adv-x="575" 
d="M130 0v1000h366v-133h-224v-278h200v-133h-200v-323h233v-133h-375zM399 1172q0 -44 -22.5 -69t-60.5 -25q-41 0 -63 25t-22 69q0 42 22 67t63 25q38 0 60.5 -25t22.5 -67z" />
    <glyph glyph-name="edotaccent" unicode="&#x117;" horiz-adv-x="655" 
d="M334 709q-54 0 -77.5 -60.5t-23.5 -181.5h196q0 47 -4.5 91t-15 77.5t-28.5 53.5t-47 20zM565 415q0 -13 -1 -30t-2 -30h-329q1 -121 29.5 -183t87.5 -62q36 0 70 15t67 47l50 -118q-46 -35 -94 -50.5t-100 -15.5q-253 0 -253 421q0 109 18 188.5t50.5 131t77.5 76
t100 24.5q50 0 92 -21t72.5 -70t47.5 -128t17 -195zM420 1022q0 -44 -22.5 -69t-60.5 -25q-41 0 -63 25t-22 69q0 42 22 67t63 25q38 0 60.5 -25t22.5 -67z" />
    <glyph glyph-name="Eogonek" unicode="&#x118;" horiz-adv-x="575" 
d="M456 0q-9 -6 -16 -13q-17 -14 -32.5 -28t-28.5 -30t-20.5 -35.5t-7.5 -44.5q0 -20 4.5 -32.5t12 -19.5t16.5 -10t18 -3q17 0 29 5t23 12h-2q1 1 6.5 6t6.5 6l32 -91q-17 -11 -48 -22.5t-66 -11.5q-60 0 -98 37t-38 105q0 32 10.5 59t26 48.5t34 37t34.5 25.5h-222v1000
h366v-136h-224v-272h200v-139h-200v-320h233v-133h-49z" />
    <glyph glyph-name="eogonek" unicode="&#x119;" horiz-adv-x="655" 
d="M334 711q-54 0 -77.5 -61.5t-23.5 -182.5h196q0 47 -4.5 91t-15 78t-28.5 54.5t-47 20.5zM490 22q-20 -14 -39.5 -29.5t-35 -35t-25 -42.5t-9.5 -52q0 -20 5 -33.5t12.5 -21.5t17 -11t18.5 -3q18 0 34 7t31 17l34 -83q-19 -13 -50 -23.5t-68 -10.5q-63 0 -100 36t-37 111
q0 47 19 82.5t45 57.5q-252 1 -252 421q0 109 18 188.5t50.5 131.5t77.5 77t100 25q50 0 92 -21.5t72.5 -70.5t47.5 -128.5t17 -195.5q0 -11 -1 -30.5t-2 -29.5h-329q1 -121 29.5 -183t87.5 -62q36 0 70 15t67 47l50 -118q-9 -6 -18 -12.5t-17 -11.5h1l-6 -4l-6 -4h-1z" />
    <glyph glyph-name="Ecaron" unicode="&#x11a;" horiz-adv-x="575" 
d="M130 0v1000h366v-133h-224v-278h200v-133h-200v-323h233v-133h-375zM202 1252l104 -70l108 70l58 -74l-166 -116l-168 116z" />
    <glyph glyph-name="ecaron" unicode="&#x11b;" horiz-adv-x="655" 
d="M334 709q-54 0 -77.5 -60.5t-23.5 -181.5h196q0 47 -4.5 91t-15 77.5t-28.5 53.5t-47 20zM565 415q0 -13 -1 -30t-2 -30h-329q1 -121 29.5 -183t87.5 -62q36 0 70 15t67 47l50 -118q-46 -35 -94 -50.5t-100 -15.5q-253 0 -253 421q0 109 18 188.5t50.5 131t77.5 76
t100 24.5q50 0 92 -21t72.5 -70t47.5 -128t17 -195zM231 1107l104 -70l108 70l58 -74l-166 -116l-168 116z" />
    <glyph glyph-name="Gbreve" unicode="&#x11e;" horiz-adv-x="707" 
d="M617 453q0 -52 -2.5 -107t-11 -107.5t-24.5 -98.5t-43 -81t-67.5 -55.5t-96.5 -20.5t-98.5 22.5t-74 60.5t-52.5 89t-33.5 108.5t-18 118t-5.5 117.5q0 58 5.5 118.5t19 118t35 108.5t53.5 89t75.5 60.5t100.5 22.5q63 0 112.5 -32.5t92.5 -87.5l-81 -119
q-14 22 -28 40.5t-29 32.5t-32 22t-37 8q-33 0 -56 -19.5t-38.5 -51.5t-24.5 -73t-13.5 -83t-5.5 -82t-1 -70q0 -37 1 -80t5 -86t12.5 -83.5t24 -71.5t38 -49.5t55.5 -18.5q40 0 61.5 24t31.5 63.5t11.5 89t1.5 100.5v22h-105v133h242v-91zM549 1252q0 -52 -17 -85.5
t-42.5 -52.5t-54.5 -26t-53 -7q-23 0 -52 7.5t-54.5 27t-43.5 53.5t-18 87h100q0 -35 18 -55.5t50 -20.5t50 19t18 57h91z" />
    <glyph glyph-name="gbreve" unicode="&#x11f;" horiz-adv-x="681" 
d="M423 519q0 31 -4 64t-14.5 60.5t-29 45t-46.5 17.5t-46.5 -21.5t-29.5 -60.5t-15.5 -93t-4.5 -118q0 -36 2.5 -84t12.5 -92t28 -74.5t50 -30.5q34 0 53.5 24.5t29 60.5t12 75.5t2.5 69.5v157zM561 -2q0 -62 -7 -118.5t-29.5 -100t-65.5 -69.5t-116 -26q-61 0 -117.5 17
t-103.5 46l46 132q39 -29 78 -43.5t91 -14.5q25 0 41.5 7t26 24.5t13.5 45.5t4 70v113q-22 -38 -54 -56t-71 -18q-45 0 -83 23.5t-65.5 73t-43 124.5t-15.5 179q0 77 9.5 152.5t33 135.5t64.5 97t104 37q42 0 72.5 -18t52.5 -56l5 62h130v-819zM508 1082q0 -52 -17 -85.5
t-42.5 -52.5t-54.5 -26t-53 -7q-23 0 -52 7.5t-54.5 27t-43.5 53.5t-18 87h100q0 -35 18 -55.5t50 -20.5t50 19t18 57h91z" />
    <glyph glyph-name="Gcommaaccent" unicode="&#x122;" horiz-adv-x="707" 
d="M617 453q0 -52 -2.5 -107t-11 -107.5t-24.5 -98.5t-43 -81t-67.5 -55.5t-96.5 -20.5t-98.5 22.5t-74 60.5t-52.5 89t-33.5 108.5t-18 118t-5.5 117.5q0 58 5.5 118.5t19 118t35 108.5t53.5 89t75.5 60.5t100.5 22.5q63 0 112.5 -32.5t92.5 -87.5l-81 -119
q-14 22 -28 40.5t-29 32.5t-32 22t-37 8q-33 0 -56 -19.5t-38.5 -51.5t-24.5 -73t-13.5 -83t-5.5 -82t-1 -70q0 -37 1 -80t5 -86t12.5 -83.5t24 -71.5t38 -49.5t55.5 -18.5q40 0 61.5 24t31.5 63.5t11.5 89t1.5 100.5v22h-105v133h242v-91zM380 -336h-86l16 252h138z" />
    <glyph glyph-name="gcommaaccent" unicode="&#x123;" horiz-adv-x="681" 
d="M423 519q0 31 -4 64t-14.5 60.5t-29 45t-46.5 17.5t-46.5 -21.5t-29.5 -60.5t-15.5 -93t-4.5 -118q0 -36 2.5 -84t12.5 -92t28 -74.5t50 -30.5q34 0 53.5 24.5t29 60.5t12 75.5t2.5 69.5v157zM561 -2q0 -62 -7 -118.5t-29.5 -100t-65.5 -69.5t-116 -26q-61 0 -117.5 17
t-103.5 46l46 132q39 -29 78 -43.5t91 -14.5q25 0 41.5 7t26 24.5t13.5 45.5t4 70v113q-22 -38 -54 -56t-71 -18q-45 0 -83 23.5t-65.5 73t-43 124.5t-15.5 179q0 77 9.5 152.5t33 135.5t64.5 97t104 37q42 0 72.5 -18t52.5 -56l5 62h130v-819zM349 1132h90l-16 -212h-144z
" />
    <glyph glyph-name="Imacron" unicode="&#x12a;" horiz-adv-x="402" 
d="M130 0v1000h142v-1000h-142zM58 1092v115h293v-115h-293z" />
    <glyph glyph-name="imacron" unicode="&#x12b;" horiz-adv-x="389" 
d="M125 0v817h139v-817h-139zM49 952v115h293v-115h-293z" />
    <glyph glyph-name="Ibreve" unicode="&#x12c;" horiz-adv-x="402" 
d="M130 0v1000h142v-1000h-142zM368 1242q0 -52 -17 -85.5t-42.5 -52.5t-54.5 -26t-53 -7q-23 0 -52 7.5t-54.5 27t-43.5 53.5t-18 87h100q0 -35 18 -55.5t50 -20.5t50 19t18 57h91z" />
    <glyph glyph-name="ibreve" unicode="&#x12d;" horiz-adv-x="389" 
d="M125 0v817h139v-817h-139zM364 1062q0 -52 -17 -85.5t-42.5 -52.5t-54.5 -26t-53 -7q-23 0 -52 7.5t-54.5 27t-43.5 53.5t-18 87h100q0 -35 18 -55.5t50 -20.5t50 19t18 57h91z" />
    <glyph glyph-name="Iogonek" unicode="&#x12e;" horiz-adv-x="402" 
d="M245 0q-18 -15 -35.5 -30t-31 -33t-22 -39.5t-8.5 -48.5q0 -39 14 -53.5t28 -14.5q17 0 29 5t23 12h-2q1 1 6.5 5.5t6.5 5.5l32 -84q-17 -11 -47 -22.5t-67 -11.5q-54 0 -89 35t-35 103q0 32 10.5 59t26.5 48.5t34.5 37.5t34.5 26h-23v1000h142v-1000h-27z" />
    <glyph glyph-name="iogonek" unicode="&#x12f;" horiz-adv-x="389" 
d="M278 1022q0 -44 -22.5 -69t-61.5 -25q-40 0 -62.5 25t-22.5 69q0 42 22.5 67t62.5 25q39 0 61.5 -25t22.5 -67zM235 0q-11 -8 -19 -16q-16 -13 -31 -27t-27 -30t-19.5 -35t-7.5 -43q0 -39 16.5 -53.5t33.5 -14.5q16 0 27 4.5t22 10.5l16 8l30 -79q-17 -11 -47 -22.5
t-67 -11.5q-60 0 -95.5 35t-35.5 103q0 31 11.5 58t28.5 49t36.5 38t36.5 26h-20v819h138v-819h-27z" />
    <glyph glyph-name="Idotaccent" unicode="&#x130;" horiz-adv-x="402" 
d="M130 0v1000h142v-1000h-142zM280 1192q0 -44 -22.5 -69t-60.5 -25q-41 0 -63 25t-22 69q0 42 22 67t63 25q38 0 60.5 -25t22.5 -67z" />
    <glyph glyph-name="dotlessi" unicode="&#x131;" horiz-adv-x="389" 
d="M125 0v817h139v-817h-139z" />
    <glyph glyph-name="Kcommaaccent" unicode="&#x136;" horiz-adv-x="666" 
d="M462 0l-141 419l-49 -95v-324h-142v1000h142v-434l175 434h158l-188 -438l209 -562h-164zM377 -336h-86l16 252h138z" />
    <glyph glyph-name="kcommaaccent" unicode="&#x137;" horiz-adv-x="614" 
d="M413 0l-108 336l-47 -96v-240h-138v1085h139v-617l150 349h147l-155 -345l163 -472h-151zM339 -336h-86l16 252h138z" />
    <glyph glyph-name="Lacute" unicode="&#x139;" horiz-adv-x="537" 
d="M130 0v1000h142v-867h205v-133h-347zM207 1072l-73 50l144 160l117 -73z" />
    <glyph glyph-name="lacute" unicode="&#x13a;" horiz-adv-x="392" 
d="M326 0q-17 -5 -38.5 -7t-38.5 -2q-36 0 -61 9t-40 29.5t-21.5 55t-6.5 85.5v915h139v-887q0 -24 2 -38.5t7.5 -22t15 -10t24.5 -2.5h24v-120zM201 1142l-73 50l144 160l117 -73z" />
    <glyph glyph-name="Lcommaaccent" unicode="&#x13b;" horiz-adv-x="537" 
d="M130 0v1000h142v-867h205v-133h-347zM294 -336h-86l16 252h138z" />
    <glyph glyph-name="lcommaaccent" unicode="&#x13c;" horiz-adv-x="392" 
d="M326 0q-17 -5 -38.5 -7t-38.5 -2q-36 0 -61 9t-40 29.5t-21.5 55t-6.5 85.5v915h139v-887q0 -24 2 -38.5t7.5 -22t15 -10t24.5 -2.5h24v-120zM257 -336h-86l16 252h138z" />
    <glyph glyph-name="Lcaron" unicode="&#x13d;" horiz-adv-x="537" 
d="M130 0v1000h142v-867h205v-133h-347zM508 834h-86l16 250h138z" />
    <glyph glyph-name="lcaron" unicode="&#x13e;" horiz-adv-x="392" 
d="M326 0q-17 -5 -38.5 -7t-38.5 -2q-36 0 -61 9t-40 29.5t-21.5 55t-6.5 85.5v915h139v-887q0 -24 2 -38.5t7.5 -22t15 -10t24.5 -2.5h24v-120zM457 834h-86l16 250h138z" />
    <glyph glyph-name="Lslash" unicode="&#x141;" horiz-adv-x="537" 
d="M130 0v420l-77 -57v156l77 56v425h142v-330l125 98v-161l-125 -97v-377h205v-133h-347z" />
    <glyph glyph-name="lslash" unicode="&#x142;" horiz-adv-x="392" 
d="M259 572v-374q0 -24 2 -38.5t7.5 -22t15 -10t24.5 -2.5h24v-123q-21 -6 -43.5 -8.5t-39.5 -2.5q-36 0 -61 9t-40 29.5t-21.5 55t-6.5 85.5v300l-67 -57v155l67 58v458h139v-355l115 100v-156z" />
    <glyph glyph-name="Nacute" unicode="&#x143;" horiz-adv-x="782" 
d="M525 0l-259 641v-641h-136v1000h140l246 -634v634h136v-1000h-127zM411 1072l-73 50l144 160l117 -73z" />
    <glyph glyph-name="nacute" unicode="&#x144;" horiz-adv-x="689" 
d="M430 0v524q0 41 -1.5 73t-8.5 54.5t-23 34.5t-44 12t-46 -14t-28.5 -39.5t-15 -61t-4.5 -79.5v-504h-139v817h125l6 -61q26 41 61 57t80 16q55 0 89.5 -20.5t54 -62t26.5 -105t7 -149.5v-492h-139zM378 912l-73 50l144 160l117 -73z" />
    <glyph glyph-name="Ncommaaccent" unicode="&#x145;" horiz-adv-x="782" 
d="M525 0l-259 641v-641h-136v1000h140l246 -634v634h136v-1000h-127zM388 -336h-86l16 252h138z" />
    <glyph glyph-name="ncommaaccent" unicode="&#x146;" horiz-adv-x="689" 
d="M430 0v524q0 41 -1.5 73t-8.5 54.5t-23 34.5t-44 12t-46 -14t-28.5 -39.5t-15 -61t-4.5 -79.5v-504h-139v817h125l6 -61q26 41 61 57t80 16q55 0 89.5 -20.5t54 -62t26.5 -105t7 -149.5v-492h-139zM354 -336h-86l16 252h138z" />
    <glyph glyph-name="Ncaron" unicode="&#x147;" horiz-adv-x="782" 
d="M525 0l-259 641v-641h-136v1000h140l246 -634v634h136v-1000h-127zM293 1252l104 -70l108 70l58 -74l-166 -116l-168 116z" />
    <glyph glyph-name="ncaron" unicode="&#x148;" horiz-adv-x="689" 
d="M430 0v524q0 41 -1.5 73t-8.5 54.5t-23 34.5t-44 12t-46 -14t-28.5 -39.5t-15 -61t-4.5 -79.5v-504h-139v817h125l6 -61q26 41 61 57t80 16q55 0 89.5 -20.5t54 -62t26.5 -105t7 -149.5v-492h-139zM246 1107l104 -70l108 70l58 -74l-166 -116l-168 116z" />
    <glyph glyph-name="Omacron" unicode="&#x14c;" 
d="M531 502q0 86 -7.5 156.5t-25 120.5t-46 77t-69.5 27t-68.5 -28t-44.5 -78t-24.5 -120.5t-7.5 -154.5q0 -87 7.5 -158t25 -122t45.5 -78.5t70 -27.5q40 0 68 28.5t45 79.5t24.5 122t7.5 156zM679 501q0 -112 -17.5 -207t-53.5 -164t-92 -108t-133 -39t-132.5 39t-91 108
t-52.5 164t-17 207q0 111 16.5 205.5t52 163t91 107.5t133.5 39q77 0 133 -39t92 -107.5t53.5 -163t17.5 -205.5zM236 1112v115h293v-115h-293z" />
    <glyph glyph-name="omacron" unicode="&#x14d;" horiz-adv-x="668" 
d="M435 406q0 52 -2.5 104.5t-12.5 94.5t-30.5 68.5t-56.5 26.5t-56 -26.5t-29.5 -68.5t-12 -94.5t-2.5 -104.5q0 -68 3.5 -122t14 -92.5t30.5 -59t52 -20.5q31 0 51 21t31.5 59t15.5 92.5t4 121.5zM578 409q0 -100 -15 -178.5t-46 -132.5t-77 -82t-107 -28
q-124 0 -183.5 110t-59.5 311t59.5 310.5t183.5 109.5q123 0 184 -109.5t61 -310.5zM187 952v115h293v-115h-293z" />
    <glyph glyph-name="Obreve" unicode="&#x14e;" 
d="M531 502q0 86 -7.5 156.5t-25 120.5t-46 77t-69.5 27t-68.5 -28t-44.5 -78t-24.5 -120.5t-7.5 -154.5q0 -87 7.5 -158t25 -122t45.5 -78.5t70 -27.5q40 0 68 28.5t45 79.5t24.5 122t7.5 156zM679 501q0 -112 -17.5 -207t-53.5 -164t-92 -108t-133 -39t-132.5 39t-91 108
t-52.5 164t-17 207q0 111 16.5 205.5t52 163t91 107.5t133.5 39q77 0 133 -39t92 -107.5t53.5 -163t17.5 -205.5zM551 1252q0 -52 -17 -85.5t-42.5 -52.5t-54.5 -26t-53 -7q-23 0 -52 7.5t-54.5 27t-43.5 53.5t-18 87h100q0 -35 18 -55.5t50 -20.5t50 19t18 57h91z" />
    <glyph glyph-name="obreve" unicode="&#x14f;" horiz-adv-x="668" 
d="M435 406q0 52 -2.5 104.5t-12.5 94.5t-30.5 68.5t-56.5 26.5t-56 -26.5t-29.5 -68.5t-12 -94.5t-2.5 -104.5q0 -68 3.5 -122t14 -92.5t30.5 -59t52 -20.5q31 0 51 21t31.5 59t15.5 92.5t4 121.5zM578 409q0 -100 -15 -178.5t-46 -132.5t-77 -82t-107 -28
q-124 0 -183.5 110t-59.5 311t59.5 310.5t183.5 109.5q123 0 184 -109.5t61 -310.5zM499 1082q0 -52 -17 -85.5t-42.5 -52.5t-54.5 -26t-53 -7q-23 0 -52 7.5t-54.5 27t-43.5 53.5t-18 87h100q0 -35 18 -55.5t50 -20.5t50 19t18 57h91z" />
    <glyph glyph-name="Ohungarumlaut" unicode="&#x150;" 
d="M531 502q0 86 -7.5 156.5t-25 120.5t-46 77t-69.5 27t-68.5 -28t-44.5 -78t-24.5 -120.5t-7.5 -154.5q0 -87 7.5 -158t25 -122t45.5 -78.5t70 -27.5q40 0 68 28.5t45 79.5t24.5 122t7.5 156zM679 501q0 -112 -17.5 -207t-53.5 -164t-92 -108t-133 -39t-132.5 39t-91 108
t-52.5 164t-17 207q0 111 16.5 205.5t52 163t91 107.5t133.5 39q77 0 133 -39t92 -107.5t53.5 -163t17.5 -205.5zM530 1072l-70 50l141 160l117 -73zM261 1072l-73 50l144 160l117 -73z" />
    <glyph glyph-name="ohungarumlaut" unicode="&#x151;" horiz-adv-x="668" 
d="M435 406q0 52 -2.5 104.5t-12.5 94.5t-30.5 68.5t-56.5 26.5t-56 -26.5t-29.5 -68.5t-12 -94.5t-2.5 -104.5q0 -68 3.5 -122t14 -92.5t30.5 -59t52 -20.5q31 0 51 21t31.5 59t15.5 92.5t4 121.5zM578 409q0 -100 -15 -178.5t-46 -132.5t-77 -82t-107 -28
q-124 0 -183.5 110t-59.5 311t59.5 310.5t183.5 109.5q123 0 184 -109.5t61 -310.5zM494 912l-70 50l141 160l117 -73zM225 912l-73 50l144 160l117 -73z" />
    <glyph glyph-name="OE" unicode="&#x152;" horiz-adv-x="979" 
d="M532 501q0 86 -7.5 154.5t-24 116t-44.5 73t-68 25.5q-41 0 -70 -26t-47 -74t-26.5 -116t-8.5 -153q0 -87 8 -156t26 -117t46 -73.5t69 -25.5q39 0 67 26.5t45.5 75t26 117t8.5 153.5zM535 0v76q-24 -45 -66 -67.5t-85 -22.5q-78 0 -133.5 38.5t-91 107t-52.5 163
t-17 207.5q0 111 17 205t52.5 162.5t91 107.5t133.5 39q45 0 86 -23t65 -67v74h366v-145h-224v-260h200v-144h-200v-308h232v-143h-374z" />
    <glyph glyph-name="oe" unicode="&#x153;" horiz-adv-x="997" 
d="M678 711q-54 0 -78 -61.5t-24 -182.5h197q0 47 -4.5 91t-15 78t-28.5 54.5t-47 20.5zM435 407q0 53 -2.5 105.5t-12.5 94.5t-30.5 68.5t-56.5 26.5t-56 -26.5t-30 -69t-12 -95.5t-2 -105q0 -68 3.5 -122t14 -92.5t30.5 -59t52 -20.5q31 0 51 21t31.5 60t15.5 93.5
t4 120.5zM907 415q0 -6 -0.5 -14.5t-1.5 -18.5q0 -6 -0.5 -14t-0.5 -13h-328q1 -121 30.5 -183t88.5 -62q35 0 68.5 15t68.5 47l49 -118q-45 -35 -94 -50.5t-101 -15.5q-67 0 -111 28.5t-70 88.5q-23 -54 -64.5 -85.5t-107.5 -31.5q-124 0 -183.5 110t-59.5 311t59.5 311.5
t183.5 110.5q66 0 106.5 -31t65.5 -91q54 122 175 122q51 0 92.5 -21.5t71.5 -70.5t46.5 -128.5t16.5 -195.5z" />
    <glyph glyph-name="Racute" unicode="&#x154;" horiz-adv-x="683" 
d="M453 705q0 32 -4.5 63.5t-16.5 56.5t-34 40.5t-57 15.5q-18 0 -34.5 -1t-34.5 -4v-340h82q51 0 75 39.5t24 129.5zM455 0l-71 355q-5 26 -10.5 39.5t-17.5 13.5h-84v-408h-142v994q60 9 107.5 12.5t102.5 3.5q127 0 192 -75.5t65 -221.5q0 -103 -28 -162.5t-78 -90.5
q9 -6 13.5 -18.5t8.5 -27.5l90 -414h-148zM324 1072l-73 50l144 160l117 -73z" />
    <glyph glyph-name="racute" unicode="&#x155;" horiz-adv-x="481" 
d="M376 674q-56 0 -86.5 -38t-30.5 -132v-504h-139v817h131l4 -68q41 80 126 80h40v-155h-45zM267 912l-73 50l144 160l117 -73z" />
    <glyph glyph-name="Rcommaaccent" unicode="&#x156;" horiz-adv-x="683" 
d="M453 705q0 32 -4.5 63.5t-16.5 56.5t-34 40.5t-57 15.5q-18 0 -34.5 -1t-34.5 -4v-340h82q51 0 75 39.5t24 129.5zM455 0l-71 355q-5 26 -10.5 39.5t-17.5 13.5h-84v-408h-142v994q60 9 107.5 12.5t102.5 3.5q127 0 192 -75.5t65 -221.5q0 -103 -28 -162.5t-78 -90.5
q9 -6 13.5 -18.5t8.5 -27.5l90 -414h-148zM360 -336h-86l16 252h138z" />
    <glyph glyph-name="rcommaaccent" unicode="&#x157;" horiz-adv-x="481" 
d="M376 674q-56 0 -86.5 -38t-30.5 -132v-504h-139v817h131l4 -68q41 80 126 80h40v-155h-45zM194 -336h-86l16 252h138z" />
    <glyph glyph-name="Rcaron" unicode="&#x158;" horiz-adv-x="683" 
d="M453 705q0 32 -4.5 63.5t-16.5 56.5t-34 40.5t-57 15.5q-18 0 -34.5 -1t-34.5 -4v-340h82q51 0 75 39.5t24 129.5zM455 0l-71 355q-5 26 -10.5 39.5t-17.5 13.5h-84v-408h-142v994q60 9 107.5 12.5t102.5 3.5q127 0 192 -75.5t65 -221.5q0 -103 -28 -162.5t-78 -90.5
q9 -6 13.5 -18.5t8.5 -27.5l90 -414h-148zM222 1267l104 -70l108 70l58 -74l-166 -116l-168 116z" />
    <glyph glyph-name="rcaron" unicode="&#x159;" horiz-adv-x="481" 
d="M376 674q-56 0 -86.5 -38t-30.5 -132v-504h-139v817h131l4 -68q41 80 126 80h40v-155h-45zM162 1107l104 -70l108 70l58 -74l-166 -116l-168 116z" />
    <glyph glyph-name="Sacute" unicode="&#x15a;" horiz-adv-x="589" 
d="M519 286q0 -149 -62.5 -226t-171.5 -77q-73 0 -125.5 18.5t-99.5 58.5l44 140q41 -38 82 -64t89 -26q21 0 40.5 8.5t34.5 27t24 48t9 70.5q0 44 -12 76.5t-31.5 57.5t-45 44.5t-52.5 37.5q-30 19 -58 41.5t-50 53t-35.5 72t-13.5 99.5q0 63 17.5 113t47 84.5t68.5 52.5
t83 18q55 0 101.5 -14.5t89.5 -51.5l-33 -139q-38 42 -71.5 59t-72.5 17q-42 0 -68 -30.5t-26 -91.5q0 -34 8.5 -58.5t23.5 -43t34.5 -33.5t41.5 -29q33 -21 66.5 -48t61 -64t45 -86t17.5 -115zM326 1082l-73 50l144 160l117 -73z" />
    <glyph glyph-name="sacute" unicode="&#x15b;" horiz-adv-x="544" 
d="M484 228q0 -64 -16 -109.5t-44.5 -74.5t-69.5 -42.5t-90 -13.5q-59 0 -111 17.5t-93 51.5l53 118q14 -13 32 -26t37.5 -23.5t38.5 -17t35 -6.5q52 0 74 31.5t22 82.5q0 27 -9.5 48.5t-26.5 40.5t-40 35.5t-50 34.5t-53.5 39.5t-47.5 49.5t-34 64t-13 83q0 58 17.5 99.5
t46.5 68t67.5 38.5t79.5 12q47 0 94 -10t85 -36l-33 -127q-32 29 -66.5 41.5t-68.5 12.5q-39 0 -65 -25t-26 -70q0 -24 8.5 -43t22.5 -35.5t32.5 -30.5t38.5 -26q29 -18 60 -40.5t56 -52.5t41 -69t16 -90zM300 912l-73 50l144 160l117 -73z" />
    <glyph glyph-name="Scedilla" unicode="&#x15e;" horiz-adv-x="589" 
d="M398 -187q0 -36 -9.5 -61t-25 -40.5t-35 -23t-39.5 -7.5q-32 0 -53.5 8.5t-38.5 22.5l33 64q11 -11 24 -18t24 -7q13 0 23 12t10 46q0 19 -6 35t-23 16q-14 0 -33 -11l-32 36l32 102q-60 3 -103.5 21t-85.5 52l44 140q41 -38 82 -64t89 -26q21 0 40.5 8.5t34.5 27t24 48
t9 70.5q0 44 -12 76.5t-31.5 57.5t-45 44.5t-52.5 37.5q-30 19 -58 41.5t-50 53t-35.5 72t-13.5 99.5q0 63 17.5 113t47 84.5t68.5 52.5t83 18q55 0 101.5 -14.5t89.5 -51.5l-33 -139q-38 42 -71.5 59t-72.5 17q-42 0 -68 -30.5t-26 -91.5q0 -34 8.5 -58.5t23.5 -43
t34.5 -33.5t41.5 -29q33 -21 66.5 -46.5t61 -61.5t45 -86t17.5 -119q0 -138 -52.5 -213t-147.5 -86l-18 -62h7q16 0 32 -6t29 -19t21 -34.5t8 -52.5z" />
    <glyph glyph-name="scedilla" unicode="&#x15f;" horiz-adv-x="544" 
d="M380 -187q0 -36 -10 -61t-26 -40.5t-36.5 -23t-40.5 -7.5q-31 0 -56 8.5t-42 22.5l33 64q11 -10 24.5 -17.5t27.5 -7.5q15 0 27 12t12 46q0 19 -7.5 35t-24.5 16q-14 0 -33 -11l-32 36l34 106q-50 4 -93 21t-77 45l53 118q14 -13 32 -26t37.5 -23.5t38.5 -17t35 -6.5
q52 0 74 31.5t22 82.5q0 27 -9.5 48.5t-25.5 39t-35.5 32.5t-40.5 29h1q-4 2 -8 5t-8 5q-26 18 -52.5 40t-47.5 50t-34.5 63.5t-13.5 82.5q0 58 17.5 100t46.5 68.5t67.5 39t79.5 12.5q47 0 94 -10t85 -36l-33 -127q-32 29 -66.5 41.5t-68.5 12.5q-39 0 -65 -26t-26 -71
q0 -24 8.5 -43t22.5 -35.5t32.5 -30.5t38.5 -26q29 -18 60 -40.5t56 -52.5t41 -69t16 -90q0 -114 -49.5 -170.5t-133.5 -66.5l-22 -66h7q16 0 33 -6t30.5 -19t22 -34.5t8.5 -52.5z" />
    <glyph glyph-name="Scaron" unicode="&#x160;" horiz-adv-x="589" 
d="M519 286q0 -149 -62.5 -226t-171.5 -77q-73 0 -125.5 18.5t-99.5 58.5l44 140q41 -38 82 -64t89 -26q21 0 40.5 8.5t34.5 27t24 48t9 70.5q0 44 -12 76.5t-31.5 57.5t-45 44.5t-52.5 37.5q-30 19 -58 41.5t-50 53t-35.5 72t-13.5 99.5q0 63 17.5 113t47 84.5t68.5 52.5
t83 18q55 0 101.5 -14.5t89.5 -51.5l-33 -139q-38 42 -71.5 59t-72.5 17q-42 0 -68 -30.5t-26 -91.5q0 -34 8.5 -58.5t23.5 -43t34.5 -33.5t41.5 -29q33 -21 66.5 -48t61 -64t45 -86t17.5 -115zM204 1277l104 -70l108 70l58 -74l-166 -116l-168 116z" />
    <glyph glyph-name="scaron" unicode="&#x161;" horiz-adv-x="544" 
d="M484 228q0 -64 -16 -109.5t-44.5 -74.5t-69.5 -42.5t-90 -13.5q-59 0 -111 17.5t-93 51.5l53 118q14 -13 32 -26t37.5 -23.5t38.5 -17t35 -6.5q52 0 74 31.5t22 82.5q0 27 -9.5 48.5t-26.5 40.5t-40 35.5t-50 34.5t-53.5 39.5t-47.5 49.5t-34 64t-13 83q0 58 17.5 99.5
t46.5 68t67.5 38.5t79.5 12q47 0 94 -10t85 -36l-33 -127q-32 29 -66.5 41.5t-68.5 12.5q-39 0 -65 -25t-26 -70q0 -24 8.5 -43t22.5 -35.5t32.5 -30.5t38.5 -26q29 -18 60 -40.5t56 -52.5t41 -69t16 -90zM182 1107l104 -70l108 70l58 -74l-166 -116l-168 116z" />
    <glyph glyph-name="Tcommaaccent" unicode="&#x162;" horiz-adv-x="515" 
d="M329 867v-867h-142v867h-147v133h435v-133h-146zM258 -336h-86l16 252h138z" />
    <glyph glyph-name="tcommaaccent" unicode="&#x163;" horiz-adv-x="422" 
d="M353 0q-15 -3 -42 -4.5t-52 -1.5q-46 0 -74 13.5t-43 42.5t-19.5 74t-4.5 109v444h-78v130h84v221h133v-221h105v-130h-105v-483q0 -24 2 -38.5t8.5 -22.5t18 -11t29.5 -3h45v-114zM280 -336h-86l16 252h138z" />
    <glyph glyph-name="Tcaron" unicode="&#x164;" horiz-adv-x="515" 
d="M329 867v-867h-142v867h-147v133h435v-133h-146zM154 1267l104 -70l108 70l58 -74l-166 -116l-168 116z" />
    <glyph glyph-name="tcaron" unicode="&#x165;" horiz-adv-x="422" 
d="M353 0q-15 -3 -42 -4.5t-52 -1.5q-46 0 -74 13.5t-43 42.5t-19.5 74t-4.5 109v444h-78v130h84v221h133v-221h105v-130h-105v-483q0 -24 2 -38.5t8.5 -22.5t18 -11t29.5 -3h45v-114zM500 834h-86l16 250h138z" />
    <glyph glyph-name="Umacron" unicode="&#x16a;" horiz-adv-x="749" 
d="M619 398q0 -102 -10 -179.5t-37 -130t-74.5 -79t-122.5 -26.5q-74 0 -121 26.5t-75 79t-38.5 130t-10.5 179.5v602h142v-642q0 -63 4.5 -108.5t16 -75t31.5 -43.5t51 -14t51 14t31 43.5t15.5 75t4.5 108.5v642h142v-602zM223 1112v115h293v-115h-293z" />
    <glyph glyph-name="umacron" unicode="&#x16b;" horiz-adv-x="688" 
d="M435 0l-4 62q-29 -42 -65 -58t-81 -16q-47 0 -78.5 17t-51 53t-27.5 92t-8 134v533h139v-517q0 -36 2.5 -69t10 -57.5t22.5 -39.5t39 -15t42 10t30 32.5t18 59t6 89.5v507h139v-817h-133zM201 952v115h293v-115h-293z" />
    <glyph glyph-name="Ubreve" unicode="&#x16c;" horiz-adv-x="749" 
d="M619 398q0 -102 -10 -179.5t-37 -130t-74.5 -79t-122.5 -26.5q-74 0 -121 26.5t-75 79t-38.5 130t-10.5 179.5v602h142v-642q0 -63 4.5 -108.5t16 -75t31.5 -43.5t51 -14t51 14t31 43.5t15.5 75t4.5 108.5v642h142v-602zM538 1242q0 -52 -17 -85.5t-42.5 -52.5t-54.5 -26
t-53 -7q-23 0 -52 7.5t-54.5 27t-43.5 53.5t-18 87h100q0 -35 18 -55.5t50 -20.5t50 19t18 57h91z" />
    <glyph glyph-name="ubreve" unicode="&#x16d;" horiz-adv-x="688" 
d="M435 0l-4 62q-29 -42 -65 -58t-81 -16q-47 0 -78.5 17t-51 53t-27.5 92t-8 134v533h139v-517q0 -36 2.5 -69t10 -57.5t22.5 -39.5t39 -15t42 10t30 32.5t18 59t6 89.5v507h139v-817h-133zM516 1082q0 -52 -17 -85.5t-42.5 -52.5t-54.5 -26t-53 -7q-23 0 -52 7.5t-54.5 27
t-43.5 53.5t-18 87h100q0 -35 18 -55.5t50 -20.5t50 19t18 57h91z" />
    <glyph glyph-name="Uring" unicode="&#x16e;" horiz-adv-x="749" 
d="M619 398q0 -102 -10 -179.5t-37 -130t-74.5 -79t-122.5 -26.5q-74 0 -121 26.5t-75 79t-38.5 130t-10.5 179.5v602h142v-642q0 -63 4.5 -108.5t16 -75t31.5 -43.5t51 -14t51 14t31 43.5t15.5 75t4.5 108.5v642h142v-602zM407 1175q0 52 -40 52q-17 0 -29 -13.5t-12 -38.5
t12 -38t29 -13q40 0 40 51zM473 1175q0 -55 -30 -81t-76 -26q-45 0 -76 26t-31 81q0 53 31 79t76 26q46 0 76 -26t30 -79z" />
    <glyph glyph-name="uring" unicode="&#x16f;" horiz-adv-x="688" 
d="M435 0l-4 62q-29 -42 -65 -58t-81 -16q-47 0 -78.5 17t-51 53t-27.5 92t-8 134v533h139v-517q0 -36 2.5 -69t10 -57.5t22.5 -39.5t39 -15t42 10t30 32.5t18 59t6 89.5v507h139v-817h-133zM390 1025q0 52 -40 52q-17 0 -29 -13.5t-12 -38.5t12 -38t29 -13q40 0 40 51z
M456 1025q0 -55 -30 -81t-76 -26q-45 0 -76 26t-31 81q0 53 31 79t76 26q46 0 76 -26t30 -79z" />
    <glyph glyph-name="Uhungarumlaut" unicode="&#x170;" horiz-adv-x="749" 
d="M619 398q0 -102 -10 -179.5t-37 -130t-74.5 -79t-122.5 -26.5q-74 0 -121 26.5t-75 79t-38.5 130t-10.5 179.5v602h142v-642q0 -63 4.5 -108.5t16 -75t31.5 -43.5t51 -14t51 14t31 43.5t15.5 75t4.5 108.5v642h142v-602zM508 1072l-70 50l141 160l117 -73zM239 1072
l-73 50l144 160l117 -73z" />
    <glyph glyph-name="uhungarumlaut" unicode="&#x171;" horiz-adv-x="688" 
d="M435 0l-4 62q-29 -42 -65 -58t-81 -16q-47 0 -78.5 17t-51 53t-27.5 92t-8 134v533h139v-517q0 -36 2.5 -69t10 -57.5t22.5 -39.5t39 -15t42 10t30 32.5t18 59t6 89.5v507h139v-817h-133zM489 912l-70 50l141 160l117 -73zM220 912l-73 50l144 160l117 -73z" />
    <glyph glyph-name="Uogonek" unicode="&#x172;" horiz-adv-x="749" 
d="M619 398q0 -72 -4.5 -131t-16 -106t-31 -81.5t-50.5 -57.5q-3 -2 -5.5 -4.5t-5.5 -4.5q-17 -14 -33 -28t-28 -30.5t-19.5 -36t-7.5 -43.5q0 -39 16 -53.5t33 -14.5t29 5t23 11h-2q1 1 6.5 5.5t6.5 5.5l33 -85q-17 -11 -48.5 -22t-64.5 -11q-61 0 -97 34.5t-36 102.5
q0 43 16 75t36 55q-71 1 -117 28t-73 79.5t-38 129.5t-11 178v602h142v-639q0 -63 4.5 -108.5t16.5 -75t32 -43.5t51 -14t50.5 14t31 43.5t15.5 75t4 108.5v639h142v-602z" />
    <glyph glyph-name="uogonek" unicode="&#x173;" horiz-adv-x="688" 
d="M525 0q-2 -2 -5 -4t-5 -4q-17 -15 -32 -29.5t-26 -31t-18 -36.5t-7 -46q0 -29 10 -48.5t26 -19.5q20 0 31 5t22 12h-2q1 1 6 5.5t6 5.5l33 -84q-17 -11 -48.5 -22.5t-65.5 -11.5q-30 0 -52.5 11.5t-37 30.5t-22 44t-7.5 52q0 30 11 57t26.5 49t33.5 38.5t33 26.5l-4 62
q-29 -42 -65 -58t-81 -16q-47 0 -78.5 17t-51 53t-27.5 92t-8 134v535h140v-519q0 -36 2.5 -69t10 -57.5t22 -39.5t38.5 -15t42 10t30 32.5t18 59t6 89.5v509h139v-819h-43z" />
    <glyph glyph-name="Ydieresis" unicode="&#x178;" horiz-adv-x="612" 
d="M377 380v-380h-142v374l-195 626h151l114 -447l122 447h145zM265 1153q0 -18 -5.5 -33.5t-15.5 -27.5t-23.5 -19t-29.5 -7q-15 0 -28.5 7t-23.5 19t-16 27.5t-6 33.5q0 37 21.5 62t52.5 25q32 0 53 -25t21 -62zM504 1153q0 -35 -21 -61t-52 -26q-15 0 -29 7t-24.5 19
t-16.5 27.5t-6 33.5q0 37 22.5 62t53.5 25q32 0 52.5 -25t20.5 -62z" />
    <glyph glyph-name="Zacute" unicode="&#x179;" horiz-adv-x="537" 
d="M60 0v126l259 738h-243v136h394v-125l-258 -742h265v-133h-417zM282 1072l-73 50l144 160l117 -73z" />
    <glyph glyph-name="zacute" unicode="&#x17a;" horiz-adv-x="503" 
d="M70 0v121l216 566h-206v130h347v-134l-210 -553h216v-130h-363zM264 912l-73 50l144 160l117 -73z" />
    <glyph glyph-name="Zdotaccent" unicode="&#x17b;" horiz-adv-x="537" 
d="M60 0v126l259 738h-243v136h394v-125l-258 -742h265v-133h-417zM368 1182q0 -44 -22.5 -69t-60.5 -25q-41 0 -63 25t-22 69q0 42 22 67t63 25q38 0 60.5 -25t22.5 -67z" />
    <glyph glyph-name="zdotaccent" unicode="&#x17c;" horiz-adv-x="503" 
d="M70 0v121l216 566h-206v130h347v-134l-210 -553h216v-130h-363zM348 1022q0 -44 -22.5 -69t-60.5 -25q-41 0 -63 25t-22 69q0 42 22 67t63 25q38 0 60.5 -25t22.5 -67z" />
    <glyph glyph-name="Zcaron" unicode="&#x17d;" horiz-adv-x="537" 
d="M60 0v126l259 738h-243v136h394v-125l-258 -742h265v-133h-417zM168 1257l104 -70l108 70l58 -74l-166 -116l-168 116z" />
    <glyph glyph-name="zcaron" unicode="&#x17e;" horiz-adv-x="503" 
d="M70 0v121l216 566h-206v130h347v-134l-210 -553h216v-130h-363zM150 1107l104 -70l108 70l58 -74l-166 -116l-168 116z" />
    <glyph glyph-name="florin" unicode="&#x192;" horiz-adv-x="588" 
d="M525 928q-23 4 -40 4q-33 0 -43.5 -14t-15.5 -47l-31 -182h89l-20 -135h-89l-95 -621q-9 -62 -22.5 -103.5t-36 -66.5t-57.5 -36t-86 -11h-10t-11 1q-5 1 -13 1.5t-22 0.5l20 126q2 0 7.5 -0.5t7.5 -0.5q5 -1 11 -1.5t9 -0.5q18 0 29 4.5t18.5 16t12 29.5t9.5 45l95 617
h-73l24 135h69l23 146q9 61 22.5 103t36 68t56.5 37t85 11q9 0 26.5 -1.5t33.5 -4.5z" />
    <glyph glyph-name="Scommaaccent" unicode="&#x218;" horiz-adv-x="589" 
d="M519 286q0 -149 -62.5 -226t-171.5 -77q-73 0 -125.5 18.5t-99.5 58.5l44 140q41 -38 82 -64t89 -26q21 0 40.5 8.5t34.5 27t24 48t9 70.5q0 44 -12 76.5t-31.5 57.5t-45 44.5t-52.5 37.5q-30 19 -58 41.5t-50 53t-35.5 72t-13.5 99.5q0 63 17.5 113t47 84.5t68.5 52.5
t83 18q55 0 101.5 -14.5t89.5 -51.5l-33 -139q-38 42 -71.5 59t-72.5 17q-42 0 -68 -30.5t-26 -91.5q0 -34 8.5 -58.5t23.5 -43t34.5 -33.5t41.5 -29q33 -21 66.5 -48t61 -64t45 -86t17.5 -115zM293 -336h-86l16 252h138z" />
    <glyph glyph-name="scommaaccent" unicode="&#x219;" horiz-adv-x="544" 
d="M484 228q0 -64 -16 -109.5t-44.5 -74.5t-69.5 -42.5t-90 -13.5q-59 0 -111 17.5t-93 51.5l53 118q14 -13 32 -26t37.5 -23.5t38.5 -17t35 -6.5q52 0 74 31.5t22 82.5q0 27 -9.5 48.5t-26.5 40.5t-40 35.5t-50 34.5t-53.5 39.5t-47.5 49.5t-34 64t-13 83q0 58 17.5 99.5
t46.5 68t67.5 38.5t79.5 12q47 0 94 -10t85 -36l-33 -127q-32 29 -66.5 41.5t-68.5 12.5q-39 0 -65 -25t-26 -70q0 -24 8.5 -43t22.5 -35.5t32.5 -30.5t38.5 -26q29 -18 60 -40.5t56 -52.5t41 -69t16 -90zM270 -336h-86l16 252h138z" />
    <glyph glyph-name="circumflex" unicode="&#x2c6;" horiz-adv-x="438" 
d="M351 891l-114 71l-116 -71l-63 85l179 110l181 -110z" />
    <glyph glyph-name="caron" unicode="&#x2c7;" horiz-adv-x="438" 
d="M120 1087l104 -70l108 70l58 -74l-166 -116l-168 116z" />
    <glyph glyph-name="breve" unicode="&#x2d8;" horiz-adv-x="462" 
d="M404 1062q0 -52 -17 -85.5t-42.5 -52.5t-54.5 -26t-53 -7q-23 0 -52 7.5t-54.5 27t-43.5 53.5t-18 87h100q0 -35 18 -55.5t50 -20.5t50 19t18 57h91z" />
    <glyph glyph-name="dotaccent" unicode="&#x2d9;" horiz-adv-x="249" 
d="M215 1022q0 -44 -22.5 -69t-60.5 -25q-41 0 -63 25t-22 69q0 42 22 67t63 25q38 0 60.5 -25t22.5 -67z" />
    <glyph glyph-name="ring" unicode="&#x2da;" horiz-adv-x="324" 
d="M209 995q0 52 -40 52q-17 0 -29 -13.5t-12 -38.5t12 -38t29 -13q40 0 40 51zM275 995q0 -55 -30 -81t-76 -26q-45 0 -76 26t-31 81q0 53 31 79t76 26q46 0 76 -26t30 -79z" />
    <glyph glyph-name="ogonek" unicode="&#x2db;" horiz-adv-x="421" 
d="M307 -17q-15 -13 -30 -27t-27 -29.5t-19 -34.5t-7 -43q0 -39 16 -53.5t33 -14.5q16 0 27 4.5t22 10.5l16 8l30 -80q-15 -11 -46 -22t-67 -11q-60 0 -96 35t-36 103q0 37 15 67.5t36 53.5t43.5 38.5t37.5 21.5h84z" />
    <glyph glyph-name="tilde" unicode="&#x2dc;" horiz-adv-x="456" 
d="M438 995q-15 -47 -49.5 -72t-76.5 -25q-28 0 -48 10.5t-40 21.5q-15 9 -29.5 16.5t-25.5 7.5q-17 0 -31.5 -12.5t-25.5 -45.5l-73 66q17 54 48.5 78t75.5 24q27 0 50 -10.5t44 -22.5q14 -9 27.5 -15.5t24.5 -6.5q17 0 34 12t28 44z" />
    <glyph glyph-name="hungarumlaut" unicode="&#x2dd;" horiz-adv-x="651" 
d="M406 892l-70 50l141 160l117 -73zM137 892l-73 50l144 160l117 -73z" />
    <glyph glyph-name="endash" unicode="&#x2013;" horiz-adv-x="642" 
d="M120 444v140h402v-140h-402z" />
    <glyph glyph-name="emdash" unicode="&#x2014;" horiz-adv-x="1027" 
d="M120 361v142h787v-142h-787z" />
    <glyph glyph-name="quoteleft" unicode="&#x2018;" horiz-adv-x="300" 
d="M189 739h-149l83 310h87z" />
    <glyph glyph-name="quoteright" unicode="&#x2019;" horiz-adv-x="330" 
d="M156 738h-86l22 311h148z" />
    <glyph glyph-name="quotesinglbase" unicode="&#x201a;" horiz-adv-x="300" 
d="M126 -197h-86l22 311h148z" />
    <glyph glyph-name="quotedblleft" unicode="&#x201c;" horiz-adv-x="538" 
d="M189 738h-149l83 311h87zM427 738h-149l83 311h87z" />
    <glyph glyph-name="quotedblright" unicode="&#x201d;" horiz-adv-x="539" 
d="M415 738h-87l23 311h148zM179 738h-89l24 311h147z" />
    <glyph glyph-name="quotedblbase" unicode="&#x201e;" horiz-adv-x="539" 
d="M365 -197h-87l23 311h148zM129 -197h-89l24 311h147z" />
    <glyph glyph-name="dagger" unicode="&#x2020;" horiz-adv-x="418" 
d="M273 726v-435h-130v435h-63v129h63v194h130v-194h65v-129h-65z" />
    <glyph glyph-name="daggerdbl" unicode="&#x2021;" horiz-adv-x="418" 
d="M274 456v-165h-130v165h-64v128h64v172h-64v128h66v165h128v-165h64v-128h-64v-172h64v-128h-64z" />
    <glyph glyph-name="bullet" unicode="&#x2022;" horiz-adv-x="770" 
d="M580 493q0 -50 -15.5 -93.5t-42 -75.5t-62 -50.5t-76.5 -18.5t-76 18.5t-61.5 50.5t-41.5 75.5t-15 93.5t15 93.5t41.5 76t61.5 51t76 18.5t76.5 -18.5t62 -51t42 -76t15.5 -93.5z" />
    <glyph glyph-name="ellipsis" unicode="&#x2026;" horiz-adv-x="836" 
d="M497 87q0 -47 -22 -74.5t-56 -29.5q-35 0 -57 27t-22 75t22 74t57 26h2q32 0 53.5 -26t22.5 -72zM246 84q0 -45 -21.5 -72t-54.5 -29q-35 0 -57.5 27t-22.5 75t22.5 74t57.5 26h2q32 0 53 -26t21 -72v-3zM746 87q0 -47 -21 -74t-57 -30q-32 0 -55.5 27t-23.5 75t22 74
t57 26h2q34 0 55 -26t21 -72z" />
    <glyph glyph-name="perthousand" unicode="&#x2030;" horiz-adv-x="1374" 
d="M800 272q0 37 -2 72t-7.5 62t-15.5 43.5t-27 16.5t-27 -16.5t-15 -43.5t-7 -62t-2 -72t2 -72t7.5 -62t15.5 -43.5t26 -16.5q17 0 27 16.5t15.5 43.5t7.5 62t2 72zM294 730q0 37 -2 72.5t-7.5 63t-15.5 44.5t-27 17t-27.5 -17t-16 -44.5t-7.5 -63t-2 -72.5q0 -36 2 -71
t7.5 -62.5t16 -44t27.5 -16.5q16 0 26 16.5t16 43.5t8 62t2 72zM371 0h-103l348 1000h105zM899 273q0 -62 -9 -114t-27.5 -90.5t-47 -60t-67.5 -21.5t-67.5 21.5t-47 60t-27 90.5t-8.5 114q0 63 9.5 115.5t28 90.5t46.5 59t66 21q37 0 65.5 -21t47.5 -59t28.5 -90.5
t9.5 -115.5zM393 733q0 -63 -9 -116t-28 -91.5t-47 -60t-67 -21.5t-67.5 21t-47 59.5t-28 91.5t-9.5 117q0 62 10 114t29.5 89.5t47.5 58.5t65 21t65 -21t47 -58.5t29 -89.5t10 -114zM1185 272q0 37 -2 72t-7.5 62t-15.5 43.5t-27 16.5t-27 -16.5t-15 -43.5t-7 -62t-2 -72
t2 -72t7.5 -62t15.5 -43.5t26 -16.5q17 0 27 16.5t15.5 43.5t7.5 62t2 72zM1284 273q0 -62 -9 -114t-27.5 -90.5t-47 -60t-67.5 -21.5t-67.5 21.5t-47 60t-27 90.5t-8.5 114q0 63 9.5 115.5t28 90.5t46.5 59t66 21q37 0 65.5 -21t47.5 -59t28.5 -90.5t9.5 -115.5z" />
    <glyph glyph-name="guilsinglleft" unicode="&#x2039;" horiz-adv-x="400" 
d="M206 152l-116 304l116 304l104 -64l-92 -241l92 -239z" />
    <glyph glyph-name="guilsinglright" unicode="&#x203a;" horiz-adv-x="398" 
d="M193 152l-103 64l91 239l-91 241l103 64l115 -304z" />
    <glyph glyph-name="fraction" unicode="&#x2044;" horiz-adv-x="166" 
d="M-68 -56h-102l411 1161h95z" />
    <glyph glyph-name="fraction" unicode="&#x2215;" horiz-adv-x="166" 
d="M-68 -56h-102l411 1161h95z" />
    <glyph glyph-name="zerosuperior" unicode="&#x2070;" horiz-adv-x="488" 
d="M303 797q0 45 -2.5 84t-9.5 68t-18 45.5t-29 16.5t-30 -16.5t-19 -45.5t-9.5 -68t-2.5 -84t3 -83.5t9.5 -67.5t18 -45.5t29.5 -16.5t29.5 16.5t18.5 45.5t9.5 67.5t2.5 83.5zM408 799q0 -74 -9.5 -132.5t-29.5 -99.5t-51 -63t-74 -22t-74 23t-51 65t-29.5 100t-9.5 129
t10.5 129t31 99t51 63.5t70.5 22.5q41 0 72 -22t51.5 -63t31 -99t10.5 -130z" />
    <glyph glyph-name="foursuperior" unicode="&#x2074;" horiz-adv-x="429" 
d="M228 721v230l-86 -230h86zM321 617v-124h-104v124h-148l-19 93l153 395h118v-382h48v-106h-48z" />
    <glyph glyph-name="fivesuperior" unicode="&#x2075;" horiz-adv-x="409" 
d="M339 698q0 -103 -40 -160.5t-115 -57.5q-39 0 -72 15t-52 34l38 94q19 -18 38.5 -31t40.5 -13q32 0 45 28.5t13 86.5q0 63 -13 90.5t-42 27.5q-14 0 -28.5 -14t-23.5 -34l-60 51l28 288h225v-106h-141l-13 -102q18 10 43 10q58 0 93.5 -48.5t35.5 -158.5z" />
    <glyph glyph-name="sixsuperior" unicode="&#x2076;" horiz-adv-x="470" 
d="M300 691q0 108 -51 108q-59 0 -59 -109q0 -22 3 -42t10 -35t18 -24t26 -9q27 0 40 31.5t13 79.5zM400 694q0 -48 -11.5 -87t-32 -66.5t-48.5 -43t-61 -15.5q-84 0 -125.5 74t-41.5 214q0 175 47.5 259t128.5 84q34 0 64.5 -12t50.5 -25l-25 -98q-19 14 -41 23.5t-44 9.5
q-15 0 -28 -7t-23.5 -24.5t-17 -48t-8.5 -77.5q13 17 33.5 28t48.5 11q66 0 100 -50t34 -149z" />
    <glyph glyph-name="sevensuperior" unicode="&#x2077;" horiz-adv-x="394" 
d="M342 1003q-27 -32 -48 -72.5t-35 -96t-21.5 -129.5t-7.5 -173v-41h-105v41q0 57 4.5 119.5t17 124t34.5 119t57 104.5h-188v106h284l10 -98z" />
    <glyph glyph-name="eightsuperior" unicode="&#x2078;" horiz-adv-x="462" 
d="M278 940q0 40 -10 61.5t-36 21.5q-28 0 -38.5 -21.5t-10.5 -61.5t10.5 -62t36.5 -22q25 0 36.5 22t11.5 62zM287 670q0 54 -15 74t-40 20q-29 0 -43.5 -20t-14.5 -74q0 -45 13.5 -71t44.5 -26q30 0 42.5 26t12.5 71zM392 665q0 -47 -12 -81t-33.5 -57t-51 -34t-63.5 -11
q-35 0 -65 11t-51.5 34t-33.5 57t-12 81q0 54 15.5 92t52.5 61q-30 26 -43 56t-13 78q0 39 12 69t32.5 50.5t47 31t56.5 10.5t57 -10.5t47.5 -31t32.5 -50.5t12 -69q0 -48 -12 -78t-41 -56q33 -22 49.5 -59t16.5 -94z" />
    <glyph glyph-name="ninesuperior" unicode="&#x2079;" horiz-adv-x="471" 
d="M172 903q0 -54 12 -81.5t40 -27.5q26 0 42 28t16 82q0 22 -3.5 42t-10.5 35t-18 24t-26 9q-28 0 -40 -31.5t-12 -79.5zM70 902q0 47 11.5 86t32.5 66.5t49 43t61 15.5q85 0 126 -74.5t41 -214.5q0 -177 -48 -259.5t-129 -82.5q-32 0 -63 12t-51 25l27 97q20 -14 40.5 -23
t43.5 -9q15 0 28 6.5t23.5 24t16.5 48t8 78.5q-13 -19 -33 -30t-49 -11q-66 0 -100.5 50.5t-34.5 151.5z" />
    <glyph glyph-name="zeroinferior" unicode="&#x2080;" horiz-adv-x="487" 
d="M302 251q0 46 -2.5 85t-9.5 67.5t-18 44.5t-29 16q-17 0 -29 -16.5t-19 -45t-10 -67.5t-3 -84t3 -83.5t10 -67t19 -45t29 -16.5q18 0 29 16.5t18 45t9.5 67t2.5 83.5zM407 254q0 -74 -9.5 -132.5t-29.5 -99.5t-51 -63t-74 -22t-74 23t-50.5 64.5t-29 100t-9.5 129.5
q0 72 10 129.5t30 98.5t51 63t72 22q40 0 71 -21.5t51.5 -62t31 -98.5t10.5 -131z" />
    <glyph glyph-name="oneinferior" unicode="&#x2081;" horiz-adv-x="353" 
d="M258 557v-614h-103v453l-64 -56l-46 86l128 131h85z" />
    <glyph glyph-name="twoinferior" unicode="&#x2082;" horiz-adv-x="415" 
d="M63 45q45 61 77.5 111t54 90.5t32 73.5t10.5 62q0 33 -12 53.5t-35 20.5q-20 0 -38.5 -16t-44.5 -47l-47 88q29 38 66.5 61t78.5 23q66 0 103 -44t37 -131q0 -37 -11.5 -75.5t-33.5 -80.5t-53 -88t-71 -99h168v-104h-266z" />
    <glyph glyph-name="threeinferior" unicode="&#x2083;" horiz-adv-x="416" 
d="M346 121q0 -43 -11 -77t-31.5 -58t-48 -36.5t-60.5 -12.5q-38 0 -70.5 10t-64.5 36l36 96q30 -23 51 -32.5t42 -9.5q23 0 38.5 20.5t15.5 66.5q0 43 -15.5 66.5t-41.5 23.5h-50v98h36q31 0 43.5 19.5t12.5 61.5q0 40 -11 56.5t-34 16.5q-16 0 -34 -7.5t-49 -32.5l-36 90
q38 28 67.5 39.5t64.5 11.5q63 0 101.5 -42.5t38.5 -121.5q0 -38 -13.5 -74t-39.5 -58q34 -17 48.5 -58t14.5 -92z" />
    <glyph glyph-name="fourinferior" unicode="&#x2084;" horiz-adv-x="429" 
d="M228 169v230l-85 -230h85zM321 65v-122h-104v122h-148l-19 94l153 398h118v-385h48v-107h-48z" />
    <glyph glyph-name="fiveinferior" unicode="&#x2085;" horiz-adv-x="410" 
d="M340 153q0 -101 -40 -158.5t-115 -57.5q-39 0 -72.5 14.5t-52.5 33.5l39 91q18 -17 37.5 -28.5t41.5 -11.5q32 0 45 28t13 87q0 63 -13 89.5t-42 26.5q-14 0 -28.5 -12t-23.5 -32l-60 48l28 288h225v-106h-141l-13 -101q18 8 43 8q58 0 93.5 -48.5t35.5 -158.5z" />
    <glyph glyph-name="sixinferior" unicode="&#x2086;" horiz-adv-x="473" 
d="M301 147q0 54 -11 81t-39 27q-60 0 -60 -110q0 -22 3.5 -41.5t10.5 -34.5t18 -24t26 -9q27 0 39.5 31t12.5 80zM403 148q0 -47 -11.5 -86t-32.5 -67t-49 -43t-61 -15q-85 0 -127 73.5t-42 213.5q0 175 49 258.5t130 83.5q32 0 63.5 -11.5t51.5 -24.5l-26 -97
q-18 14 -40 22.5t-43 8.5q-15 0 -29 -6.5t-24.5 -24t-17.5 -48t-9 -79.5q14 20 34.5 31.5t48.5 11.5q64 0 99.5 -50.5t35.5 -150.5z" />
    <glyph glyph-name="seveninferior" unicode="&#x2087;" horiz-adv-x="394" 
d="M342 455q-27 -32 -48 -72t-35 -96t-21.5 -130.5t-7.5 -174.5v-39h-105v39q0 58 4.5 121t17 124.5t34.5 118.5t57 104h-188v107h284l10 -99z" />
    <glyph glyph-name="eightinferior" unicode="&#x2088;" horiz-adv-x="462" 
d="M278 396q0 40 -10 60.5t-36 20.5q-28 0 -38.5 -20.5t-10.5 -60.5t10.5 -63.5t36.5 -23.5q25 0 36.5 23.5t11.5 63.5zM287 124q0 56 -15 77t-40 21q-29 0 -43.5 -21t-14.5 -77q0 -43 13.5 -69.5t44.5 -26.5q30 0 42.5 26.5t12.5 69.5zM392 121q0 -47 -12 -81.5
t-33.5 -57.5t-51 -34t-63.5 -11q-35 0 -65 11t-51.5 34t-33.5 57.5t-12 81.5q0 53 15.5 91t51.5 62q-29 25 -42 55.5t-13 77.5q0 39 12 69t32.5 50t47 30.5t56.5 10.5t57 -10.5t47.5 -30.5t32.5 -50t12 -69q0 -46 -12.5 -76.5t-40.5 -56.5q33 -23 49.5 -59.5t16.5 -93.5z
" />
    <glyph glyph-name="nineinferior" unicode="&#x2089;" horiz-adv-x="471" 
d="M172 356q0 -52 12 -79.5t40 -27.5q26 0 42 27t16 82q0 22 -3.5 42t-10.5 35.5t-18 24.5t-26 9q-28 0 -40 -31.5t-12 -81.5zM70 355q0 47 11.5 86t32.5 67t49 43.5t61 15.5q85 0 126 -74t41 -216q0 -174 -48 -257t-129 -83q-33 0 -63.5 11t-50.5 25l27 99q19 -15 39 -24
t45 -9q15 0 28 6.5t23.5 24t16.5 48t8 79.5q-13 -20 -33 -31.5t-49 -11.5q-66 0 -100.5 51.5t-34.5 149.5z" />
    <glyph glyph-name="Euro" unicode="&#x20ac;" horiz-adv-x="682" 
d="M399 -17q-60 0 -104 27t-75 74.5t-49 111t-26 136.5h-90l25 109h56v25v67v26h-72l25 107h56q8 70 26.5 133.5t49.5 111.5t76.5 76.5t107.5 28.5q66 0 115 -34.5t94 -99.5l-87 -110q-32 55 -59.5 80t-66.5 25q-51 0 -77 -54t-38 -157h231l-24 -107h-214v-91v-27h207
l-22 -109h-178q4 -40 12.5 -77.5t22.5 -67t34.5 -47t49.5 -17.5q42 0 75 28.5t68 86.5l74 -116q-17 -27 -39.5 -52t-50.5 -44.5t-61.5 -31t-71.5 -11.5z" />
    <glyph glyph-name="trademark" unicode="&#x2122;" horiz-adv-x="809" 
d="M273 967v-297h-85v297h-68v82h221v-82h-68zM609 670v201l-67 -137l-67 136l1 -200h-82v379h79l69 -140l69 140h78v-379h-80z" />
    <glyph glyph-name="onethird" unicode="&#x2153;" horiz-adv-x="1040" 
d="M294 1105v-614h-103v453l-65 -56l-45 87l128 130h85zM369 -56h-102l411 1161h95zM963 121q0 -43 -11 -77t-31.5 -58t-48 -36.5t-60.5 -12.5q-38 0 -70.5 10t-64.5 36l36 96q30 -23 51 -32.5t42 -9.5q23 0 38.5 20.5t15.5 66.5q0 43 -15.5 66.5t-41.5 23.5h-50v98h36
q31 0 43.5 19.5t12.5 61.5q0 40 -11 56.5t-34 16.5q-16 0 -34 -7.5t-49 -32.5l-36 90q38 28 67.5 39.5t64.5 11.5q63 0 101.5 -42.5t38.5 -121.5q0 -38 -13.5 -74t-39.5 -58q34 -17 48.5 -58t14.5 -92z" />
    <glyph glyph-name="twothirds" unicode="&#x2154;" horiz-adv-x="1040" 
d="M91 592q45 61 78 111t54 91.5t31.5 74.5t10.5 61q0 32 -12 51.5t-35 19.5q-20 0 -38.5 -14.5t-44.5 -46.5l-47 89q29 37 66.5 59.5t78.5 22.5q66 0 103 -43.5t37 -130.5q0 -38 -11.5 -76.5t-33.5 -80t-53 -88t-71 -99.5h168v-103h-266zM367 -56h-102l411 1161h95z
M950 121q0 -43 -11 -77t-31.5 -58t-48 -36.5t-60.5 -12.5q-38 0 -70.5 10t-64.5 36l36 96q30 -23 51 -32.5t42 -9.5q23 0 38.5 20.5t15.5 66.5q0 43 -15.5 66.5t-41.5 23.5h-50v98h36q31 0 43.5 19.5t12.5 61.5q0 40 -11 56.5t-34 16.5q-16 0 -34 -7.5t-49 -32.5l-36 90
q38 28 67.5 39.5t64.5 11.5q63 0 101.5 -42.5t38.5 -121.5q0 -38 -13.5 -74t-39.5 -58q34 -17 48.5 -58t14.5 -92z" />
    <glyph glyph-name="onefifth" unicode="&#x2155;" horiz-adv-x="1040" 
d="M303 1105v-614h-103v453l-64 -56l-46 87l129 130h84zM946 153q0 -101 -40 -158.5t-115 -57.5q-41 0 -73.5 14.5t-51.5 33.5l39 91q18 -17 37 -28.5t40 -11.5q32 0 45.5 28t13.5 87q0 63 -12.5 89.5t-43.5 26.5q-13 0 -27 -13t-21 -33l-63 50l28 288h224v-106h-141
l-11 -102q8 4 18.5 6.5t23.5 2.5q58 0 94 -48.5t36 -158.5zM341 -57h-90l408 1162h91z" />
    <glyph glyph-name="threefifths" unicode="&#x2157;" horiz-adv-x="1040" 
d="M374 667q0 -86 -41.5 -135.5t-108.5 -49.5q-38 0 -70 11t-64 37l36 95q28 -24 49.5 -33t43.5 -9q23 0 37 21t14 66q0 43 -14 66.5t-40 23.5h-54v99h38q31 0 44.5 18t13.5 63q0 39 -11.5 55t-34.5 16q-15 0 -34 -7t-48 -35l-38 94q38 25 68.5 37.5t65.5 12.5
q63 0 99.5 -42.5t36.5 -121.5q0 -40 -12 -74.5t-38 -57.5q34 -18 48 -58t14 -92zM967 153q0 -101 -40 -158.5t-115 -57.5q-41 0 -73.5 14.5t-51.5 33.5l39 91q18 -17 37.5 -28.5t41.5 -11.5q31 0 44 28t13 87q0 63 -12.5 89.5t-41.5 26.5q-15 0 -29.5 -12.5t-21.5 -32.5
l-62 49l29 288h223v-106h-141l-11 -102q8 4 18.5 6.5t24.5 2.5q57 0 93 -48.5t36 -158.5zM361 -57h-89l410 1162h89z" />
    <glyph glyph-name="minus" unicode="&#x2212;" horiz-adv-x="603" 
d="M110 335v145h383v-145h-383z" />
    <glyph glyph-name="lessequal" unicode="&#x2264;" horiz-adv-x="813" 
d="M90 0v127h632v-127h-632zM92 529v140l631 316v-143l-493 -244l493 -243v-145z" />
    <glyph glyph-name="greaterequal" unicode="&#x2265;" horiz-adv-x="814" 
d="M92 0v127h632v-127h-632zM90 210v145l493 243l-493 244v143l634 -316v-140z" />
    <glyph glyph-name="commaaccent" unicode="&#xf6c3;" horiz-adv-x="324" 
d="M179 -336h-86l16 252h138z" />
    <glyph glyph-name="nonbreakingspace" horiz-adv-x="400" 
 />
    <glyph glyph-name="caron.1" horiz-adv-x="324" 
d="M179 834h-86l16 250h138z" />
    <glyph glyph-name="commaaccent.1" horiz-adv-x="324" 
d="M167 1132h90l-16 -212h-144z" />
    </font>
</defs>
</svg>
