<?xml version="1.0" standalone="no"?>
<!DOCTYPE svg PUBLIC "-//W3C//DTD SVG 1.1//EN" "http://www.w3.org/Graphics/SVG/1.1/DTD/svg11.dtd" >
<svg xmlns="http://www.w3.org/2000/svg" xmlns:xlink="http://www.w3.org/1999/xlink" version="1.1">
<metadata>
Created by FontForge 20170731 at Sun Oct 20 04:39:35 2002
 By Aleksey,,,
Copyright (c) Terminal Design, Inc., 2002. All rights reserved.
</metadata>
<defs>
<font id="ClearviewHwy-Four-B" horiz-adv-x="1004" >
  <font-face 
    font-family="ClearviewHwy-4-B"
    font-weight="400"
    font-stretch="normal"
    units-per-em="1448"
    panose-1="2 0 9 4 6 0 0 2 0 4"
    ascent="1158"
    descent="-290"
    x-height="817"
    cap-height="1000"
    bbox="-210 -352 2122 1398"
    underline-thickness="90"
    underline-position="-270"
    unicode-range="U+0020-F004"
  />
<missing-glyph horiz-adv-x="449" 
 />
    <glyph glyph-name=".notdef" horiz-adv-x="449" 
 />
    <glyph glyph-name=".null" horiz-adv-x="0" 
 />
    <glyph glyph-name="nonmarkingreturn" horiz-adv-x="700" 
 />
    <glyph glyph-name="glyph130" horiz-adv-x="749" 
 />
    <glyph glyph-name="glyph130" horiz-adv-x="749" 
 />
    <glyph glyph-name="glyph3" unicode=" " horiz-adv-x="700" 
 />
    <glyph glyph-name="exclam" unicode="!" horiz-adv-x="586" 
d="M416 88q0 -23 -9.5 -42t-26 -33t-39 -22t-47.5 -8q-54 0 -89 29t-35 76q0 22 9.5 41t26 32.5t39 21t48.5 7.5t48.5 -7.5t39 -21t26 -32.5t9.5 -41zM374 294h-161l-27 706h217z" />
    <glyph glyph-name="quotedbl" unicode="&#x22;" horiz-adv-x="827" 
d="M307 689h-131l-36 360h211zM644 689h-133l-35 360h211z" />
    <glyph glyph-name="numbersign" unicode="#" horiz-adv-x="1123" 
d="M487 688l-25 -189h176l27 189h-178zM962 688h-146l-28 -189h155l-20 -141h-157l-24 -184h-155l28 184h-171l-27 -184h-147l24 184h-154l17 141h157l22 189h-156l20 139h157l24 173h150l-24 -173h180l25 173h150l-26 -173h147z" />
    <glyph glyph-name="dollar" unicode="$" horiz-adv-x="857" 
d="M757 312q0 -45 -13 -88t-41.5 -78t-73 -59.5t-108.5 -33.5v-122h-180v123q-59 5 -120 25.5t-121 58.5l67 150q66 -45 128.5 -69t128.5 -24q70 0 108 26t38 79q0 38 -20.5 62t-65.5 46l-175 76q-46 21 -81.5 44.5t-59.5 52.5t-36.5 64.5t-12.5 80.5q0 46 13.5 86.5
t41 72.5t69.5 53t100 29v115h180v-115q100 -12 196 -59l-58 -152q-53 32 -105 49t-111 17q-61 0 -97.5 -21t-36.5 -65q0 -19 6 -32.5t19 -25t33.5 -22.5t50.5 -24l154 -69q93 -41 138 -100t45 -151z" />
    <glyph glyph-name="percent" unicode="%" horiz-adv-x="1648" 
d="M1377 271q0 35 -3.5 67t-14 56.5t-30 39t-50.5 14.5t-49.5 -14.5t-29 -39t-14 -56.5t-3.5 -67q0 -34 3.5 -65.5t14 -56t29.5 -39t49 -14.5q31 0 50 14.5t29.5 38.5t14.5 55.5t4 66.5zM1508 273q0 -65 -13.5 -118t-42 -90.5t-72 -58t-103.5 -20.5q-58 0 -100.5 21
t-70 59.5t-41 91t-13.5 115.5q0 65 14 118t42.5 90t72 57t101.5 20q57 0 99.5 -21t70.5 -58.5t42 -90t14 -115.5zM598 0h-144l582 1000h144zM464 730q0 35 -3.5 67t-13.5 56.5t-29 39t-49 14.5q-31 0 -50 -14.5t-29.5 -39t-14 -56.5t-3.5 -67t3.5 -67t14 -56.5t29.5 -39
t50 -14.5q30 0 49 14.5t29 39t13.5 56.5t3.5 67zM596 732q0 -65 -13.5 -118.5t-41.5 -91t-71.5 -58t-103.5 -20.5q-59 0 -101.5 21t-70.5 59t-41 91t-13 117q0 65 14 117.5t43 89.5t72 57t102 20q57 0 99.5 -21t70.5 -58.5t41.5 -89.5t13.5 -115z" />
    <glyph glyph-name="ampersand" unicode="&#x26;" horiz-adv-x="1028" 
d="M652 461h-186q-77 0 -112 -34.5t-35 -112.5q0 -83 40 -127t127 -44q53 0 85.5 13.5t50.5 39.5t24 65.5t6 92.5v107zM837 461v-112q0 -82 -19 -148.5t-60.5 -114t-108 -73.5t-161.5 -26q-83 0 -149.5 20.5t-113 60.5t-71 99t-24.5 137q0 91 42 154t114 84v3
q-61 26 -93.5 80t-32.5 125q0 66 23 116t64.5 83.5t99 50.5t126.5 17q52 0 99 -9t98 -31l-46 -147q-28 14 -62 22t-71 8q-72 0 -107 -31.5t-35 -91.5q0 -35 13.5 -57.5t37 -36t56 -19t70.5 -5.5h127v123h181v-123h124v-158h-121z" />
    <glyph glyph-name="quotesingle" unicode="'" horiz-adv-x="491" 
d="M307 689h-130l-37 360h211z" />
    <glyph glyph-name="parenleft" unicode="(" horiz-adv-x="533" 
d="M254 -200q-34 94 -59 180t-41.5 169.5t-25 166t-8.5 168.5q0 87 8 169.5t24.5 166t42 169.5t59.5 180l139 -36q-24 -83 -41.5 -162.5t-29 -158.5t-17 -159.5t-5.5 -167.5t5.5 -167.5t16.5 -159.5t29 -157.5t42 -161.5z" />
    <glyph glyph-name="parenright" unicode=")" horiz-adv-x="533" 
d="M413 484q0 -88 -8.5 -171.5t-25.5 -167t-42 -169t-58 -176.5l-139 39q24 83 41.5 161.5t29 157.5t17 159.5t5.5 167.5q0 86 -5.5 167t-17 160t-29 158.5t-41.5 162.5l139 36q34 -92 59.5 -177.5t42 -169t24.5 -167t8 -171.5z" />
    <glyph glyph-name="asterisk" unicode="*" horiz-adv-x="726" 
d="M448 810v-5l111 -105l-123 -87l-70 139h-4l-70 -139l-124 86l114 106v5l-162 17l47 140l144 -71l1 3l-28 150h158l-27 -149l3 -3l141 70l47 -138z" />
    <glyph glyph-name="plus" unicode="+" horiz-adv-x="930" 
d="M555 327v-252h-177v252h-248v169h248v236h177v-236h245v-169h-245z" />
    <glyph glyph-name="comma" unicode="," horiz-adv-x="494" 
d="M252 -197h-132l57 370h207z" />
    <glyph glyph-name="hyphen" unicode="-" horiz-adv-x="699" 
d="M170 346v171h359v-171h-359z" />
    <glyph glyph-name="hyphen" unicode="&#xad;" horiz-adv-x="699" 
d="M170 346v171h359v-171h-359z" />
    <glyph glyph-name="period" unicode="." horiz-adv-x="483" 
d="M363 88q0 -23 -9 -42t-25 -33t-38 -22t-47 -8q-54 0 -89 29t-35 76q0 24 9.5 43.5t26 33.5t38.5 21.5t48 7.5q52 0 86.5 -29.5t34.5 -76.5z" />
    <glyph glyph-name="slash" unicode="/" horiz-adv-x="861" 
d="M258 -173h-168l510 1222h171z" />
    <glyph glyph-name="zero" unicode="0" horiz-adv-x="1069" 
d="M731 499q0 69 -7 133t-28 113.5t-59.5 79t-101.5 29.5t-101.5 -29.5t-59 -79t-27.5 -113.5t-7 -133q0 -74 8 -139t29.5 -113t59.5 -75.5t98 -27.5t98 27.5t60 75.5t30 113t8 139zM929 502q0 -111 -22 -206.5t-69 -165t-122 -109t-181 -39.5t-181 39.5t-122.5 109
t-69.5 165t-22 206.5q0 112 23 206t71.5 162.5t123 107t177.5 38.5t177.5 -38.5t122.5 -107t71 -162.5t23 -206z" />
    <glyph glyph-name="one" unicode="1" horiz-adv-x="684" 
d="M320 0l4 752h-6l-163 -136l-85 146l289 241h155v-1003h-194z" />
    <glyph glyph-name="two" unicode="2" horiz-adv-x="888" 
d="M127 0l-27 170q104 97 188 175t143.5 145t91.5 125t32 115q0 25 -7 47t-21.5 38.5t-37.5 26t-55 9.5q-63 0 -116 -30.5t-107 -88.5l-105 141q41 37 80.5 64t80.5 44.5t85 26t94 8.5q70 0 126.5 -18t96.5 -53t61.5 -87t21.5 -121q0 -65 -22 -126t-73 -128.5t-135 -145
t-208 -173.5l444 3v-167h-631z" />
    <glyph glyph-name="three" unicode="3" horiz-adv-x="887" 
d="M757 295q0 -70 -22.5 -127.5t-67.5 -98.5t-111.5 -63.5t-153.5 -22.5q-90 0 -165 23.5t-147 73.5l78 147q32 -23 60 -38.5t54.5 -25.5t53.5 -14.5t57 -4.5q37 0 68.5 8.5t54.5 27t35.5 48t12.5 70.5q0 78 -38.5 110.5t-112.5 32.5h-124v160h57q43 0 78 6t60.5 21t39.5 39
t14 60q0 54 -32.5 90t-109.5 36q-56 0 -109 -22t-102 -64l-83 143q41 28 79.5 47.5t77.5 32t79.5 18.5t85.5 6q67 0 123.5 -17t97 -51t63.5 -86t23 -121q0 -72 -28.5 -121.5t-92.5 -82.5v-3q77 -23 112 -84t35 -153z" />
    <glyph glyph-name="four" unicode="4" horiz-adv-x="962" 
d="M524 770l-241 -403h242l4 403h-5zM716 202v-202h-198v202h-385l-43 150l419 648h207v-633h136v-165h-136z" />
    <glyph glyph-name="five" unicode="5" horiz-adv-x="909" 
d="M779 346q0 -84 -23 -151.5t-68.5 -115t-113.5 -72.5t-157 -25q-86 0 -156.5 21.5t-140.5 71.5l83 145q95 -77 203 -77q91 0 136 52t45 149q0 92 -41 140.5t-123 48.5q-55 0 -94.5 -22t-70.5 -67l-129 97l73 459h519v-168h-364l-38 -204l1 -3q35 31 74 44.5t90 13.5
q70 0 124.5 -22.5t92.5 -66t58 -106t20 -142.5z" />
    <glyph glyph-name="six" unicode="6" horiz-adv-x="972" 
d="M655 331q0 81 -38 127.5t-115 46.5q-75 0 -116.5 -48.5t-41.5 -129.5q0 -83 40 -133t118 -50q38 0 67 13.5t48 38.5t28.5 59t9.5 76zM842 335q0 -78 -24 -143t-68.5 -111.5t-108 -72t-141.5 -25.5q-95 0 -163 34.5t-112 97t-64.5 151t-20.5 196.5q0 118 20 219.5
t66.5 176t122 116.5t186.5 42q70 0 129.5 -16.5t117.5 -49.5l-73 -144q-43 26 -81.5 38t-86.5 12q-50 0 -88 -16t-64 -51t-40 -90t-17 -133h5q29 47 79 71t116 24q72 0 129.5 -22.5t97.5 -65t61.5 -103t21.5 -135.5z" />
    <glyph glyph-name="seven" unicode="7" horiz-adv-x="853" 
d="M763 837q-59 -55 -103.5 -104t-76.5 -100t-52.5 -106.5t-32.5 -123t-17 -150t-5 -186.5v-67h-203v50q0 99 8.5 203.5t36.5 206t81.5 196t144.5 173.5v3h-454v168h644l29 -163v0z" />
    <glyph glyph-name="eight" unicode="8" horiz-adv-x="993" 
d="M659 292q0 34 -7.5 63t-26 50.5t-50 33.5t-79.5 12q-33 0 -62.5 -7t-51.5 -25t-34.5 -49t-12.5 -79q0 -36 8 -65t27 -49t50 -31t76 -11q78 0 120.5 35.5t42.5 121.5zM636 735q0 66 -33 97.5t-107 31.5q-72 0 -105.5 -31.5t-33.5 -97.5q0 -65 34 -100.5t104 -35.5
q72 0 106.5 35.5t34.5 100.5zM853 294q0 -71 -20.5 -128.5t-64 -98t-110.5 -62.5t-160 -22t-160.5 22t-111.5 62.5t-65 98t-21 128.5q0 91 35.5 147.5t115.5 91.5v5q-68 35 -97 85t-29 126q0 131 84.5 199t245.5 68q77 0 138.5 -16.5t104.5 -49.5t66 -83t23 -118
q0 -76 -29 -126t-98 -85v-5q82 -35 117.5 -91.5t35.5 -147.5z" />
    <glyph glyph-name="nine" unicode="9" horiz-adv-x="976" 
d="M630 673q0 39 -8.5 72t-27.5 57t-49 38t-73 14q-74 0 -113.5 -50.5t-39.5 -133.5q0 -81 37.5 -126.5t115.5 -45.5t117.5 48t39.5 127h1zM836 515q0 -125 -22 -224t-70 -167.5t-123 -104.5t-180 -36q-75 0 -134 18t-117 60l81 139q24 -17 44 -28t39.5 -18t40.5 -10t47 -3
q103 0 153 70t51 228h-4q-62 -105 -198 -105q-70 0 -127.5 24t-99 67.5t-64.5 105t-23 136.5q0 76 25 140t70.5 110.5t110 72.5t142.5 26q180 0 269 -126.5t89 -374.5z" />
    <glyph glyph-name="colon" unicode=":" horiz-adv-x="479" 
d="M359 88q0 -23 -9.5 -42t-25.5 -33t-37.5 -22t-45.5 -8q-26 0 -48 7.5t-38 21.5t-25.5 33.5t-9.5 42.5q0 24 9.5 43.5t25.5 33.5t38 21.5t48 7.5q51 0 84.5 -29.5t33.5 -76.5zM359 607q0 -24 -9.5 -43.5t-25.5 -33.5t-37.5 -21.5t-45.5 -7.5q-26 0 -48 7.5t-38 21.5
t-25.5 33.5t-9.5 43.5q0 23 9.5 42.5t25.5 33.5t38 21.5t48 7.5q51 0 84.5 -29t33.5 -76z" />
    <glyph glyph-name="semicolon" unicode=";" horiz-adv-x="504" 
d="M394 607q0 -48 -33 -77t-84 -29q-25 0 -47 7.5t-38.5 21.5t-26 33.5t-9.5 43.5q0 23 9.5 42t26 32.5t38.5 21t47 7.5q51 0 84 -28t33 -75zM251 -197h-131l57 370h207z" />
    <glyph glyph-name="semicolon" unicode="&#x37e;" horiz-adv-x="504" 
d="M394 607q0 -48 -33 -77t-84 -29q-25 0 -47 7.5t-38.5 21.5t-26 33.5t-9.5 43.5q0 23 9.5 42t26 32.5t38.5 21t47 7.5q51 0 84 -28t33 -75zM251 -197h-131l57 370h207z" />
    <glyph glyph-name="less" unicode="&#x3c;" horiz-adv-x="1090" 
d="M140 332v157l800 334v-156l-624 -255l624 -258v-154z" />
    <glyph glyph-name="equal" unicode="=" horiz-adv-x="926" 
d="M170 160v165h586v-165h-586zM170 474v166h586v-166h-586z" />
    <glyph glyph-name="greater" unicode="&#x3e;" horiz-adv-x="1090" 
d="M150 0v154l623 257l-623 256v156l800 -334v-157z" />
    <glyph glyph-name="question" unicode="?" horiz-adv-x="837" 
d="M468 88q0 -46 -33.5 -75.5t-86.5 -29.5q-25 0 -47 7.5t-38.5 21.5t-26 33.5t-9.5 42.5t9.5 42t26 32.5t38.5 21t47 7.5q53 0 86.5 -28t33.5 -75zM707 740q0 -94 -39 -156t-117 -105l-61 -37q-17 -10 -26.5 -17.5t-14 -16.5t-5 -23t-0.5 -36v-67h-183v107q0 34 3.5 57.5
t13.5 40t26.5 29.5t43.5 28l59 32q28 15 48.5 29.5t34 31t20.5 37.5t7 49q0 62 -36 96.5t-105 34.5q-57 0 -104 -20t-92 -61l-80 146q38 25 74 43.5t72 30.5t75 17.5t83 5.5q74 0 130.5 -19t95 -55t58 -87t19.5 -115z" />
    <glyph glyph-name="at" unicode="@" horiz-adv-x="1225" 
d="M711 559q2 22 0 40t-10.5 30.5t-25 19.5t-43.5 7q-62 0 -92 -52t-30 -165q0 -56 20.5 -81.5t62.5 -25.5q52 0 75.5 33t31.5 94l11 100v0zM1095 588q0 -98 -23.5 -168.5t-61 -115.5t-84 -66.5t-92.5 -21.5q-17 0 -36 5t-35.5 15.5t-29 27.5t-16.5 41h-1q-30 -42 -73 -63
t-92 -21q-80 0 -129 59t-49 172q0 56 13.5 113t42.5 102.5t74 74t108 28.5q42 0 69 -15t47 -46h3l6 47h134l-47 -404q-2 -16 9 -29t33 -13q21 0 45.5 15.5t45 49.5t34.5 88t14 132q0 81 -24.5 143t-69.5 105t-108.5 65t-141.5 22q-96 0 -175 -30t-136 -87.5t-88.5 -141
t-31.5 -190.5q0 -102 25.5 -180.5t75 -132t121 -81t163.5 -27.5q83 0 154 24t126 70l47 -74q-75 -59 -160 -81.5t-179 -22.5q-99 0 -185 31t-150 94t-100.5 159t-36.5 227q0 124 41 222t112 166.5t167 105t206 36.5q96 0 176.5 -28t139 -82t91 -134t32.5 -185z" />
    <glyph glyph-name="A" unicode="A" horiz-adv-x="1066" 
d="M532 814h-7l-126 -427h259zM770 0l-70 221h-341l-70 -221h-209l334 1003h231l341 -1003h-216z" />
    <glyph glyph-name="B" unicode="B" horiz-adv-x="1038" 
d="M716 292q0 52 -17 82.5t-44 46t-61.5 19.5t-69.5 4q-39 0 -75.5 -1.5t-68.5 -3.5v-288q38 -2 71.5 -2.5t74.5 -0.5q44 0 79.5 4.5t60 19.5t37.5 43.5t13 76.5zM686 720q0 70 -39.5 102t-132.5 32q-15 0 -33 -0.5t-36 -1.5t-34.5 -1.5t-28.5 -1.5v-261q28 -2 60 -2.5
t73 -0.5q46 0 78.5 6t53 21t30 41t9.5 67zM918 278q0 -75 -22.5 -128t-65.5 -86t-105 -48.5t-141 -15.5h-404v993q79 8 163 13t169 5q68 0 135 -11.5t119.5 -41.5t85 -82t32.5 -134q0 -88 -37 -138t-109 -76v-3q92 -18 136 -82.5t44 -164.5z" />
    <glyph glyph-name="C" unicode="C" horiz-adv-x="989" 
d="M909 134q-70 -73 -154.5 -112t-184.5 -39q-117 0 -200.5 39.5t-136.5 109t-78 165t-25 207.5q0 106 26.5 199t81.5 162.5t138 110t196 40.5q100 0 179 -38t153 -116l-120 -135q-47 57 -96 88.5t-115 31.5q-60 0 -104.5 -24t-73.5 -69t-43 -109t-14 -143q0 -67 11.5 -130
t39.5 -112t73 -79t113 -30t121.5 31t107.5 89l105 -137v0z" />
    <glyph glyph-name="D" unicode="D" horiz-adv-x="1087" 
d="M749 509q0 65 -9.5 127t-36.5 110t-75.5 77.5t-125.5 29.5q-30 0 -61.5 -1.5t-60.5 -4.5v-686q29 -1 49 -1h46q69 0 120 19t85.5 60.5t51.5 108t17 161.5zM957 505q0 -121 -29.5 -215t-88 -158.5t-146.5 -98t-205 -33.5h-308v994q34 3 73.5 6.5t80.5 5.5t82 3.5t78 1.5
q110 0 196 -32.5t145.5 -96.5t90.5 -158.5t31 -218.5z" />
    <glyph glyph-name="E" unicode="E" horiz-adv-x="907" 
d="M180 0v1000h593v-168h-393v-231h356v-169h-356v-267h407v-165h-607z" />
    <glyph glyph-name="F" unicode="F" horiz-adv-x="873" 
d="M380 832v-237h346v-170h-346v-425h-200v1000h583v-168h-383z" />
    <glyph glyph-name="G" unicode="G" horiz-adv-x="1085" 
d="M955 447q0 -101 -19.5 -186.5t-65 -147t-120 -96t-183.5 -34.5q-105 0 -186.5 38t-137 106.5t-84.5 163t-29 207.5q0 114 29.5 209t86 164t139 107t187.5 38q56 0 102.5 -11.5t86 -30.5t72.5 -44t63 -53l-116 -137q-48 51 -95.5 79t-109.5 28q-69 0 -114.5 -29.5t-73 -78
t-38.5 -111.5t-11 -129t9.5 -130.5t35.5 -115.5t71.5 -82t117.5 -31q55 0 92.5 18.5t59.5 52t31.5 79.5t9.5 101h-193v164h383v-108v0z" />
    <glyph glyph-name="H" unicode="H" horiz-adv-x="1100" 
d="M720 0v433h-340v-433h-200v1000h200v-380h340v380h200v-1000h-200z" />
    <glyph glyph-name="I" unicode="I" horiz-adv-x="560" 
d="M180 0v1000h200v-1000h-200z" />
    <glyph glyph-name="J" unicode="J" horiz-adv-x="777" 
d="M597 291q0 -69 -13.5 -126t-45.5 -97.5t-84.5 -63t-130.5 -22.5q-72 0 -129.5 18t-113.5 61l81 149q40 -32 71 -45.5t70 -13.5q51 0 73 30.5t22 96.5v722h200v-709v0z" />
    <glyph glyph-name="K" unicode="K" horiz-adv-x="1010" 
d="M696 0l-245 419l-73 -91l2 -328h-200v1000h200l-2 -428h7l283 428h241l-314 -441l345 -559h-244z" />
    <glyph glyph-name="L" unicode="L" horiz-adv-x="851" 
d="M180 0v1000h200v-832h361v-168h-561z" />
    <glyph glyph-name="M" unicode="M" horiz-adv-x="1245" 
d="M871 0v653h-5l-245 -391l-242 388h-5v-650h-194v1000h184l257 -405l258 405h186v-1000h-194z" />
    <glyph glyph-name="N" unicode="N" horiz-adv-x="1155" 
d="M798 0l-423 643h-3l2 -643h-194v1000h192l408 -626h3v626h192v-1000h-177z" />
    <glyph glyph-name="O" unicode="O" horiz-adv-x="1154" 
d="M816 501q0 77 -11 141.5t-38 111.5t-73.5 73t-117.5 26t-117 -26t-73 -73t-37.5 -111.5t-10.5 -141.5q0 -78 11 -143t38 -112t73.5 -73t117.5 -26q70 0 116 26.5t73 74t38 112t11 141.5zM1024 501q0 -121 -29.5 -217t-86.5 -163t-140 -102.5t-190 -35.5
q-108 0 -191.5 35.5t-140.5 102t-86.5 162.5t-29.5 218q0 120 29 215t86 162t140.5 102.5t192.5 35.5q108 0 191.5 -35.5t140 -102.5t85.5 -162t29 -215z" />
    <glyph glyph-name="P" unicode="P" horiz-adv-x="1003" 
d="M682 686q0 45 -9 76.5t-29.5 51t-53.5 28t-82 8.5q-30 0 -61 -2t-67 -4v-325h135q41 0 72 6t52 23.5t32 50.5t11 87zM883 688q0 -79 -19.5 -140.5t-60.5 -103.5t-105 -64t-152 -22h-166v-358h-200v994q66 7 149.5 11.5t171.5 4.5q81 0 150.5 -15.5t121 -53t81 -99.5
t29.5 -154z" />
    <glyph glyph-name="Q" unicode="Q" horiz-adv-x="1154" 
d="M816 501q0 75 -9.5 139t-36 111t-73.5 73.5t-121 26.5t-120.5 -27t-72.5 -74.5t-35.5 -111.5t-9.5 -137q0 -75 10 -139.5t36.5 -112t73 -74.5t120.5 -27q73 0 119.5 28t72.5 76t36 112t10 137zM1024 501q0 -63 -8.5 -123.5t-28 -115t-51.5 -102.5t-79 -85v-2
q25 -8 40.5 -19t31.5 -22.5t37 -22t57 -16.5l-62 -143q-56 2 -101 24t-81.5 47t-67.5 45.5t-59 20.5q-15 0 -28.5 -2t-31.5 -2q-116 0 -203 35.5t-144.5 102t-86 162.5t-28.5 218q0 115 27 209.5t82.5 162.5t140 105.5t198.5 37.5q113 0 197 -37t139.5 -105t82.5 -163
t27 -210z" />
    <glyph glyph-name="R" unicode="R" horiz-adv-x="1024" 
d="M682 697q0 85 -45.5 119.5t-131.5 34.5q-33 0 -62.5 -1t-61.5 -4v-301h144q75 0 116 33t41 119zM693 0l-121 346q-8 23 -17 32t-33 9h-142v-387h-200v994q81 8 160.5 12t160.5 4q76 0 145.5 -14.5t122 -49t83.5 -92.5t31 -145q0 -100 -39 -166.5t-121 -100.5v-1
q14 -5 23 -23.5t14 -33.5l144 -384h-211z" />
    <glyph glyph-name="S" unicode="S" horiz-adv-x="887" 
d="M787 291q0 -82 -27 -140t-73.5 -94.5t-110 -53.5t-136.5 -17q-103 0 -186 24.5t-164 77.5l76 159q61 -45 126 -74.5t140 -29.5q28 0 56.5 6t51 20.5t36.5 39t14 61.5q0 39 -20 66t-53 46.5t-75 35.5t-86 34t-86 40.5t-75 55t-53 78.5t-20 111q0 75 27.5 127.5t73.5 85.5
t104.5 48.5t120.5 15.5q85 0 158.5 -21.5t144.5 -62.5l-61 -158q-53 36 -106.5 58.5t-119.5 22.5q-29 0 -55.5 -5.5t-47 -18t-32.5 -33.5t-12 -51q0 -34 20 -57t53 -40.5t75.5 -32t86.5 -32t86.5 -40t75.5 -56.5t53 -81.5t20 -114.5z" />
    <glyph glyph-name="T" unicode="T" horiz-adv-x="846" 
d="M522 830v-830h-200v830h-242v170h686v-170h-244z" />
    <glyph glyph-name="U" unicode="U" horiz-adv-x="1110" 
d="M930 406q0 -101 -18.5 -179.5t-62.5 -132.5t-116 -82.5t-178 -28.5t-177.5 28.5t-115.5 82.5t-63 132.5t-19 179.5v594h200v-586q0 -56 5.5 -103.5t23.5 -82.5t52.5 -55t93.5 -20q58 0 93 20t53 55.5t23.5 83t5.5 102.5v586h200v-594v0z" />
    <glyph glyph-name="V" unicode="V" horiz-adv-x="984" 
d="M606 0h-229l-297 1000h214l198 -790h3l198 790h211z" />
    <glyph glyph-name="W" unicode="W" horiz-adv-x="1442" 
d="M1118 0h-224l-172 675h-7l-169 -675h-230l-226 1000h214l132 -746h4l191 746h186l182 -746h6l138 746h209z" />
    <glyph glyph-name="X" unicode="X" horiz-adv-x="976" 
d="M680 0l-189 355h-3l-189 -355h-229l301 520l-267 480h231l161 -333h3l166 333h225l-274 -494l290 -506h-226z" />
    <glyph glyph-name="Y" unicode="Y" horiz-adv-x="944" 
d="M574 388v-388h-200v382l-324 618h223l203 -439l204 439h214z" />
    <glyph glyph-name="Z" unicode="Z" horiz-adv-x="898" 
d="M110 0v154l428 676h-407v170h645v-153l-433 -682h445v-165h-678z" />
    <glyph glyph-name="bracketleft" unicode="[" horiz-adv-x="613" 
d="M150 -184v1351h323v-118h-152v-1116h152v-117h-323z" />
    <glyph glyph-name="backslash" unicode="\" horiz-adv-x="860" 
d="M603 -173l-513 1222h167l513 -1222h-167z" />
    <glyph glyph-name="bracketright" unicode="]" horiz-adv-x="614" 
d="M140 -184v117h151v1116h-151v118h324v-1351h-324z" />
    <glyph glyph-name="asciicircum" unicode="^" horiz-adv-x="743" 
d="M589 783l-222 117l-228 -117l-87 100l312 164l314 -164z" />
    <glyph glyph-name="underscore" unicode="_" horiz-adv-x="797" 
d="M70 -247v123h657v-123h-657z" />
    <glyph glyph-name="grave" unicode="`" horiz-adv-x="481" 
d="M309 917l-247 149l160 82l195 -171z" />
    <glyph glyph-name="a" unicode="a" horiz-adv-x="972" 
d="M604 409q-47 0 -97.5 -5.5t-92 -23.5t-68 -51t-26.5 -88q0 -53 26 -89.5t81 -36.5q48 0 92.5 20t84.5 53v221zM732 -13q-41 10 -69.5 31.5t-39.5 64.5h-5q-51 -48 -114.5 -74.5t-136.5 -26.5q-56 0 -100 18t-74.5 50.5t-46.5 78t-16 101.5q0 63 21 109.5t57 79.5t83 54
t100 33.5t107.5 17t105.5 4.5v31q0 31 -5 55t-18 39.5t-35 23.5t-56 8q-75 0 -143 -21.5t-131 -56.5l-54 141q84 43 165 64t174 21q84 0 141 -19t91.5 -56.5t49 -95t14.5 -133.5v-327q0 -23 2.5 -39t9 -28t17 -21.5t26.5 -19.5z" />
    <glyph glyph-name="b" unicode="b" horiz-adv-x="1003" 
d="M673 409q0 54 -4.5 103t-20.5 86.5t-47.5 59.5t-85.5 22q-73 0 -112 -39.5t-39 -120.5v-195q0 -41 7 -76.5t24.5 -62t46 -42t70.5 -15.5q52 0 83.5 24.5t49 64.5t23 90t5.5 101zM873 412q0 -79 -16.5 -156t-53 -138t-96 -98.5t-146.5 -37.5q-70 0 -122 28t-87 91h-2
l-25 -101h-155v1085h195v-352h1q32 56 82.5 78t112.5 22q83 0 142.5 -33.5t97 -91t55 -134t17.5 -162.5z" />
    <glyph glyph-name="c" unicode="c" horiz-adv-x="865" 
d="M702 601q-41 39 -82 58.5t-99 19.5q-57 0 -93.5 -24t-58.5 -62.5t-30.5 -86t-8.5 -95.5q0 -50 9 -99t31 -88t59 -63t93 -24q58 0 106 19.5t95 54.5l62 -138q-66 -45 -133 -68t-147 -23q-97 0 -167.5 32.5t-116.5 89.5t-68.5 134.5t-22.5 167.5q0 91 23.5 169t71.5 135.5
t120 90t169 32.5q74 0 141 -24.5t128 -69.5z" />
    <glyph glyph-name="d" unicode="d" 
d="M641 520q0 81 -39 120.5t-111 39.5q-54 0 -86 -22t-48.5 -59.5t-21.5 -86.5t-5 -103q0 -51 6 -100.5t23 -89.5t49 -64.5t83 -24.5q43 0 72 15.5t46 41.5t24.5 61t7.5 74v198zM666 0l-11 97h-5q-72 -115 -206 -115q-87 0 -146.5 37.5t-97 98.5t-54 138t-16.5 156
q0 86 17.5 162.5t55.5 134t97.5 91t143.5 33.5q59 0 109.5 -21.5t84.5 -72.5h1v346h195v-1085h-168z" />
    <glyph glyph-name="e" unicode="e" horiz-adv-x="978" 
d="M665 472q0 44 -7.5 83t-26 68t-49 46t-76.5 17q-82 0 -130 -55.5t-48 -158.5h337v0zM848 409q0 -14 -0.5 -29t-2.5 -35h-515q1 -103 48.5 -157t145.5 -54q30 0 57 4t53 12.5t53 21.5t56 32l60 -140q-70 -44 -139.5 -63t-148.5 -19q-93 0 -164.5 30t-120.5 85.5t-74.5 134
t-25.5 176.5q0 107 29 186.5t79 132.5t118.5 79.5t148.5 26.5q85 0 149 -28.5t107 -83t65 -133.5t22 -179z" />
    <glyph glyph-name="f" unicode="f" horiz-adv-x="635" 
d="M555 944q-18 2 -35 4t-37 2q-56 0 -75 -19.5t-19 -67.5v-60h154v-157h-150v-646h-195v645h-108v158h108v57q0 65 11.5 109.5t41 72.5t80 40t127.5 12q21 0 46 -1t51 -6v-143v0z" />
    <glyph glyph-name="g" unicode="g" horiz-adv-x="1007" 
d="M642 512q0 76 -37.5 122t-115.5 46q-50 0 -81.5 -21t-48.5 -56.5t-23 -82.5t-6 -98q0 -43 6 -87.5t23 -81t48 -59.5t82 -23q47 0 76.5 18t46.5 47.5t23.5 67t6.5 75.5v133zM837 10q0 -84 -17.5 -146t-57 -102.5t-103 -60.5t-156.5 -20q-88 0 -168.5 20t-153.5 58l57 154
q64 -36 125.5 -55t136.5 -19q39 0 66.5 7t44 23.5t24 45t7.5 72.5v134h-3q-38 -53 -85.5 -75.5t-112.5 -22.5q-80 0 -139 28.5t-97 80.5t-56.5 125t-18.5 161q0 80 15.5 155t52.5 132.5t97 92.5t149 35q67 0 118.5 -23.5t87.5 -82.5h3l12 90h172v-807v0z" />
    <glyph glyph-name="h" unicode="h" horiz-adv-x="1014" 
d="M649 0v463q0 42 -3 79.5t-15.5 65.5t-39 44.5t-73.5 16.5q-83 0 -118 -46t-35 -131v-492h-195v1085h195v-343h1q38 52 93.5 71.5t119.5 19.5q79 0 130.5 -25t81.5 -71t41.5 -111t11.5 -144v-482h-195z" />
    <glyph glyph-name="i" unicode="i" horiz-adv-x="538" 
d="M388 1021q0 -48 -32 -76t-86 -28q-55 0 -87.5 28t-32.5 76t32.5 75.5t87.5 27.5q56 0 87 -27.5t31 -75.5zM173 0v817h195v-817h-195z" />
    <glyph glyph-name="j" unicode="j" horiz-adv-x="535" 
d="M363 12q0 -77 -14.5 -138.5t-48.5 -104t-90 -65t-138 -22.5q-28 0 -56 2.5t-56 7.5v161q22 -2 44 -3t43 -1q43 0 67.5 12t36.5 35t14.5 56.5t2.5 76.5v788h195v-805v0zM385 1021q0 -51 -34.5 -77.5t-85.5 -26.5q-52 0 -86 26.5t-34 77.5t34 77t86 26q51 0 85.5 -26
t34.5 -77z" />
    <glyph glyph-name="k" unicode="k" horiz-adv-x="926" 
d="M633 0l-185 352l-84 -102v-250h-194v1085h195v-610h4l244 342h229l-256 -339l270 -478h-223z" />
    <glyph glyph-name="l" unicode="l" horiz-adv-x="575" 
d="M485 0q-26 -5 -62 -7.5t-71 -2.5q-51 0 -86 9.5t-56.5 31t-30.5 56.5t-9 86v912h195v-864q0 -23 3.5 -36.5t11.5 -20t21.5 -8.5t33.5 -2h50v-154v0z" />
    <glyph glyph-name="m" unicode="m" horiz-adv-x="1439" 
d="M1074 0v478q0 42 -4 77.5t-17 61t-36.5 39.5t-62.5 14q-66 0 -101.5 -41t-35.5 -118v-511h-195v481q0 42 -3.5 76.5t-16 59.5t-36.5 39t-64 14q-66 0 -101.5 -42t-35.5 -117v-511h-195v817h175l12 -88h4q30 48 76 76t122 28q72 0 123 -26.5t81 -88.5q45 66 99.5 90.5
t128.5 24.5q75 0 128 -22t86.5 -64.5t48.5 -105t15 -143.5v-498h-195z" />
    <glyph glyph-name="n" unicode="n" horiz-adv-x="1013" 
d="M648 0v462q0 44 -2.5 82t-15.5 65.5t-39 43.5t-73 16q-83 0 -118 -46t-35 -131v-492h-195v817h171l13 -88h3q38 59 94.5 81.5t126.5 22.5q79 0 130.5 -25t81.5 -71t41.5 -111t11.5 -144v-482h-195z" />
    <glyph glyph-name="o" unicode="o" horiz-adv-x="1012" 
d="M682 408q0 55 -7 104t-26.5 85.5t-53.5 57.5t-89 21q-54 0 -88.5 -21t-54 -57.5t-26.5 -85.5t-7 -104q0 -61 7.5 -111.5t27.5 -86.5t54 -55.5t87 -19.5q52 0 86 19.5t54 55.5t28 86.5t8 111.5zM882 408q0 -95 -23 -173t-70 -134.5t-117.5 -87.5t-165.5 -31t-165.5 31
t-117.5 87t-70 134.5t-23 173.5q0 92 22 170t68 134.5t117 88.5t169 32q94 0 164.5 -30t117.5 -85.5t70.5 -134t23.5 -175.5z" />
    <glyph glyph-name="p" unicode="p" horiz-adv-x="1003" 
d="M673 409q0 45 -3.5 93.5t-19.5 88t-48 65.5t-89 26q-78 0 -113.5 -44t-35.5 -119v-197q0 -39 7 -74t23.5 -61t45 -41.5t72.5 -15.5q55 0 87 28t48.5 70t21 90.5t4.5 90.5zM873 414q0 -77 -16 -154t-52.5 -138.5t-97.5 -100.5t-151 -39q-63 0 -108 21t-80 74h-3v-385h-195
v1125h169l12 -88h3q38 56 88.5 80t118.5 24q89 0 149 -37t96 -96.5t51.5 -134.5t15.5 -151z" />
    <glyph glyph-name="q" unicode="q" horiz-adv-x="1001" 
d="M642 517q0 84 -38.5 123.5t-111.5 39.5q-54 0 -86.5 -22t-49 -59t-21.5 -86t-5 -104q0 -50 6 -100t23.5 -90t49 -64.5t83.5 -24.5q45 0 74 17t46 45t23.5 64t6.5 75v186zM785 -338q-45 12 -73 31t-44 46t-21.5 62t-5.5 79v198h-6q-35 -51 -81.5 -73.5t-108.5 -22.5
q-84 0 -144 35.5t-98 95.5t-55.5 138t-17.5 163q0 78 16 153.5t53 134.5t96.5 95t145.5 36q67 0 121 -23t86 -81h4l10 88h174v-897q0 -26 2 -45t9 -34t20 -25.5t34 -19.5z" />
    <glyph glyph-name="r" unicode="r" horiz-adv-x="708" 
d="M568 656q-47 0 -85 -7.5t-64 -26.5t-40 -52.5t-14 -85.5v-484h-195v817h174l13 -102h1q32 61 81 89.5t131 28.5h48v-177h-50z" />
    <glyph glyph-name="s" unicode="s" horiz-adv-x="805" 
d="M705 235q0 -131 -81 -192t-225 -61q-86 0 -166.5 22.5t-152.5 67.5l66 145q27 -18 57 -34t62.5 -28t66 -19t67.5 -7q59 0 88.5 20.5t29.5 71.5q0 26 -12 44t-33 31.5t-48.5 23.5t-58.5 21q-44 15 -90 33t-83.5 46.5t-61.5 72t-24 108.5q0 56 21.5 99t61.5 72.5t96 45
t125 15.5q70 0 139 -14.5t132 -45.5l-47 -148q-46 28 -98.5 44t-108.5 16q-29 0 -53.5 -3.5t-42 -11.5t-27.5 -23t-10 -37q0 -24 15 -41t39.5 -30t57 -24t67.5 -23q42 -15 83.5 -33.5t74.5 -47.5t53.5 -71t20.5 -105z" />
    <glyph glyph-name="t" unicode="t" horiz-adv-x="662" 
d="M552 -1q-66 -9 -124 -9q-73 0 -118.5 13.5t-71 43.5t-34.5 77.5t-8 115.5v405h-116v158h119v220h192v-220h161v-158h-161v-400q0 -29 3 -47.5t15 -29t35.5 -14t64.5 -3.5h43v-152v0z" />
    <glyph glyph-name="u" unicode="u" 
d="M657 0l-11 87h-4q-35 -52 -88 -79.5t-130 -27.5q-65 0 -112.5 17t-79 55.5t-47 99.5t-15.5 148v517h195v-457q0 -47 3 -86.5t15.5 -68.5t38 -45t70.5 -16q43 0 71.5 12.5t45.5 36t23.5 57.5t6.5 78v489h195v-817h-177z" />
    <glyph glyph-name="v" unicode="v" horiz-adv-x="882" 
d="M560 0h-235l-255 817h207l165 -656h6l163 656h201z" />
    <glyph glyph-name="w" unicode="w" horiz-adv-x="1309" 
d="M1015 0h-211l-147 544h-8l-145 -544h-214l-200 817h200l119 -631h7l155 631h167l156 -633h5l123 633h197z" />
    <glyph glyph-name="x" unicode="x" horiz-adv-x="870" 
d="M590 0l-158 304h-1l-154 -304h-217l255 427l-228 390h218l138 -275h3l137 275h203l-230 -386l254 -431h-220z" />
    <glyph glyph-name="y" unicode="y" horiz-adv-x="896" 
d="M545 -17q-27 -79 -53 -136t-59 -94t-78 -54.5t-110 -17.5q-26 0 -52.5 1.5t-61.5 6.5v163q13 -2 35 -2.5t45 -0.5q27 0 46 4t32.5 15t24 30.5t20.5 50.5l17 51l-281 817h208l173 -613h3l165 613h207z" />
    <glyph glyph-name="z" unicode="z" horiz-adv-x="760" 
d="M90 0v140l347 518h-338v159h564v-150l-340 -509h347v-158h-580z" />
    <glyph glyph-name="braceleft" unicode="{" horiz-adv-x="649" 
d="M416 -191q-56 0 -95.5 9.5t-65 33t-37.5 63t-12 99.5v271q0 25 -2.5 45.5t-10.5 37t-23 27.5t-40 17v133q48 10 62 44t14 83v291q0 60 12 99.5t37 63.5t64.5 33.5t94.5 9.5h95v-120h-39q-33 0 -51.5 -6t-27.5 -20.5t-11 -38.5t-2 -60v-284q0 -30 -3.5 -52t-12.5 -40
t-24.5 -34.5t-38.5 -35.5q23 -18 38.5 -34t24.5 -34t12.5 -40.5t3.5 -52.5v-264q0 -38 2.5 -62t11.5 -38t27.5 -19.5t51.5 -5.5h38v-119h-93z" />
    <glyph glyph-name="bar" unicode="|" horiz-adv-x="480" 
d="M170 -330v1379h140v-1379h-140z" />
    <glyph glyph-name="braceright" unicode="}" horiz-adv-x="658" 
d="M528 412q-25 -6 -40 -17t-23.5 -27.5t-11 -37t-2.5 -45.5v-271q0 -60 -11.5 -99.5t-36.5 -63t-64.5 -33t-94.5 -9.5h-94v119h37q33 0 51.5 5.5t27.5 19.5t11.5 38t2.5 62v264q0 30 3.5 52.5t12.5 40.5t23.5 34t37.5 34q-23 19 -37.5 35.5t-23.5 34.5t-12.5 40t-3.5 52
v284q0 36 -2 60t-11 38.5t-27.5 20.5t-51.5 6h-38v120h94q55 0 94.5 -9.5t64.5 -33.5t36.5 -63.5t11.5 -99.5v-291q0 -49 14.5 -83t62.5 -44v-133v0z" />
    <glyph glyph-name="asciitilde" unicode="~" horiz-adv-x="834" 
d="M754 928q-28 -63 -79.5 -95t-116.5 -32q-38 0 -73.5 10t-69.5 22t-66 22t-64 10q-35 0 -55.5 -13t-40.5 -52l-109 73q20 36 39.5 60.5t42 39t49 21t60.5 6.5q37 0 73 -10t70 -22t66.5 -22t64.5 -10q31 0 54.5 14.5t40.5 49.5l114 -72v0z" />
    <glyph glyph-name="space" unicode="&#xa0;" horiz-adv-x="449" 
 />
    <glyph glyph-name="exclamdown" unicode="&#xa1;" horiz-adv-x="579" 
d="M409 713q0 -23 -9.5 -42.5t-25.5 -33t-38 -21t-46 -7.5q-51 0 -85.5 28.5t-34.5 75.5q0 22 9 41t25 33t37.5 21.5t46.5 7.5t47 -7.5t38.5 -21.5t26 -33t9.5 -41zM184 -201l28 706h157l27 -706h-212z" />
    <glyph glyph-name="cent" unicode="&#xa2;" horiz-adv-x="846" 
d="M756 213q-47 -40 -93 -63t-102 -32v-118h-170v120q-66 14 -115 48.5t-81.5 85t-48.5 114.5t-16 138t16 137t48 111.5t81.5 82t115.5 47.5v116h170v-114q51 -8 93.5 -27.5t87.5 -52.5l-78 -139q-21 18 -40.5 31.5t-39.5 22t-41 12.5t-46 4q-50 0 -83 -19.5t-52.5 -51.5
t-27.5 -73t-8 -85q0 -51 9.5 -95.5t30.5 -77t54 -51.5t80 -19q45 0 88 17.5t94 62.5l74 -132v0z" />
    <glyph glyph-name="sterling" unicode="&#xa3;" horiz-adv-x="844" 
d="M120 0v153h15q61 0 86 40t25 109q0 15 -0.5 29.5t-2.5 32.5t-5 41t-7 54h-107v153h90q-6 44 -13 85t-7 86q0 118 75 175.5t206 57.5q71 0 134.5 -14.5t126.5 -45.5l-37 -164q-38 26 -84 43.5t-103 17.5q-69 0 -96.5 -28.5t-27.5 -84.5q0 -29 4 -59.5t11 -68.5h204v-153
h-182q12 -59 16 -97t4 -70q0 -39 -6 -67.5t-22 -54.5v-3h337v-167h-634z" />
    <glyph glyph-name="currency" unicode="&#xa4;" horiz-adv-x="1008" 
d="M70 332l31 107h81q-1 17 -1.5 32.5t-0.5 32.5v25t1 27h-96l30 106h79q13 77 42 142t77 112t115 73.5t155 26.5q51 0 95 -9.5t84 -28.5t77 -48t75 -68l-117 -123q-48 58 -100 86.5t-115 28.5q-85 0 -130 -49t-61 -143h339l-30 -106h-321v-54v-31q0 -15 2 -32h311l-32 -107
h-268q7 -39 21 -73.5t36 -60t54.5 -40t77.5 -14.5q67 0 124 29.5t111 87.5l102 -130q-71 -72 -152.5 -110.5t-183.5 -38.5q-90 0 -156.5 25.5t-113.5 71.5t-75.5 110.5t-42.5 142.5h-124z" />
    <glyph glyph-name="yen" unicode="&#xa5;" horiz-adv-x="928" 
d="M670 589h154v-126h-220l-35 -66v-89h255v-127h-255v-181h-197v181h-260v127h260v80l-40 75h-220v126h152l-214 411h218l203 -437l202 437h205z" />
    <glyph glyph-name="brokenbar" unicode="&#xa6;" horiz-adv-x="478" 
d="M170 -330v574h138v-574h-138zM170 475v574h138v-574h-138z" />
    <glyph glyph-name="section" unicode="&#xa7;" horiz-adv-x="843" 
d="M543 438q0 41 -27.5 62.5t-90.5 21.5q-26 0 -48.5 -3.5t-39 -13t-25.5 -26t-9 -41.5q0 -35 27.5 -59t94.5 -24q118 0 118 83zM708 474q0 -35 -8.5 -65.5t-28 -54.5t-50.5 -40.5t-76 -22.5v-3q34 -11 63 -30t50 -44.5t33 -58t12 -69.5q0 -46 -15 -86t-48.5 -70t-86.5 -47
t-128 -17q-83 0 -151.5 21t-138.5 66l60 140q63 -40 118.5 -62t109.5 -22q96 0 96 71q0 15 -5 27t-16 23t-30 21.5t-46 23.5q-41 17 -77 32t-67 31q-68 37 -104.5 79.5t-36.5 110.5q0 78 44 122t127 52v7q-75 26 -117.5 72t-42.5 119q0 101 71.5 158.5t205.5 57.5
q69 0 129.5 -13t126.5 -43l-48 -150q-48 29 -93.5 43t-93.5 14q-42 0 -71 -12.5t-29 -49.5q0 -24 18 -43.5t66 -41.5l44 -16.5t39 -15.5t38 -16.5t40 -18.5q53 -26 85 -68t32 -111z" />
    <glyph glyph-name="dieresis" unicode="&#xa8;" horiz-adv-x="612" 
d="M247 1020q0 -21 -7.5 -40t-21.5 -33t-32 -22t-37 -8q-21 0 -39 8t-32 22t-22 33t-8 40q0 19 8 37t22 31.5t32 21t39 7.5q19 0 37 -7.5t32 -21t21.5 -31.5t7.5 -37zM578 1020q0 -21 -7.5 -40t-21.5 -33t-32 -22t-37 -8q-21 0 -39 8t-31.5 22t-21.5 33t-8 40q0 19 8 37
t21.5 31.5t31.5 21t39 7.5q19 0 37 -7.5t32 -21t21.5 -31.5t7.5 -37z" />
    <glyph glyph-name="copyright" unicode="&#xa9;" horiz-adv-x="1304" 
d="M902 275q-54 -48 -110 -71t-123 -23q-79 0 -136 25.5t-94 69t-55 102.5t-18 126q0 71 20 129.5t58.5 100.5t93.5 65t126 23q69 0 126 -24.5t108 -75.5l-78 -90q-68 74 -150 74q-87 0 -126.5 -53t-39.5 -149q0 -100 41 -154.5t127 -54.5q47 0 85.5 18t77.5 54l67 -92v0z
M1104 502q0 93 -35.5 175t-97 142.5t-143 96t-174.5 35.5t-175 -35.5t-143 -96t-96 -142.5t-35 -175t35 -174.5t96 -142t143 -96t175 -35.5t174.5 35.5t143 96t97 142t35.5 174.5zM1169 501q0 -108 -40.5 -202t-110.5 -164.5t-164 -111t-201 -40.5q-108 0 -202 40.5
t-164.5 111t-111 164.5t-40.5 202q0 107 40.5 201t111 164t164.5 110.5t202 40.5q107 0 201 -40.5t164 -110.5t110.5 -164t40.5 -201z" />
    <glyph glyph-name="ordfeminine" unicode="&#xaa;" horiz-adv-x="717" 
d="M420 783q-89 0 -126 -20.5t-37 -62.5q0 -31 15.5 -47t42.5 -16q23 0 47.5 9t57.5 31v106zM506 555q-29 6 -46 19t-25 33h-2q-34 -26 -72 -39t-79 -13q-66 0 -106.5 37.5t-40.5 100.5q0 45 20 76.5t57 51.5t89.5 29.5t118.5 9.5v10q0 15 -1.5 26.5t-8 18.5t-20 10.5
t-38.5 3.5q-31 0 -75 -9.5t-92 -36.5l-40 88q57 29 109 42.5t109 13.5q53 0 87.5 -11t55 -33.5t29 -57.5t8.5 -83v-153q0 -23 7 -33.5t32 -24.5z" />
    <glyph glyph-name="guillemotleft" unicode="&#xab;" horiz-adv-x="875" 
d="M280 148l-170 303l170 301l135 -67l-135 -236l135 -233zM611 148l-171 303l171 301l134 -67l-136 -236l136 -233z" />
    <glyph glyph-name="registered" unicode="&#xae;" horiz-adv-x="790" 
d="M395 886h-20t-17 -2v-72h43q25 0 34.5 10t9.5 27q0 19 -10.5 28t-39.5 9zM474 778q3 -5 11.5 -24.5t17.5 -40.5t16 -38l7 -17h-81l-38 95q-2 5 -3 6t-6 1h-37v-102h-73v280q27 4 55.5 4.5t51.5 0.5t45 -3.5t39.5 -14t28 -28.5t10.5 -46q0 -49 -44 -73zM396 1011
q-46 0 -86.5 -16.5t-70.5 -46t-47.5 -68.5t-17.5 -84t17.5 -84t47.5 -68t70.5 -45.5t86.5 -16.5q45 0 85 16.5t70 45.5t47.5 68t17.5 84t-17.5 84t-47.5 68.5t-70 46t-85 16.5zM395 542q-54 0 -101.5 20t-82.5 54.5t-55.5 80.5t-20.5 99t20.5 99t55.5 80.5t82.5 54
t101.5 19.5t101.5 -19.5t82.5 -54t55.5 -80.5t20.5 -99t-20.5 -99t-55.5 -80.5t-82.5 -54.5t-101.5 -20z" />
    <glyph glyph-name="macron" unicode="&#xaf;" horiz-adv-x="748" 
d="M154 947v134h431v-134h-431z" />
    <glyph glyph-name="macron" unicode="&#x2c9;" horiz-adv-x="748" 
d="M154 947v134h431v-134h-431z" />
    <glyph glyph-name="degree" unicode="&#xb0;" horiz-adv-x="737" 
d="M534 796q0 34 -13 64t-35.5 52t-52.5 35t-64 13q-35 0 -65 -13t-53 -35t-36 -52t-13 -64t13 -64t36 -52.5t53 -35.5t65 -13q34 0 64 13t52.5 35.5t35.5 52.5t13 64zM602 796q0 -48 -18.5 -91t-50 -74.5t-74 -50t-90.5 -18.5t-91 18.5t-74.5 50t-50 74.5t-18.5 91
t18.5 90.5t50 74.5t74.5 50.5t91 18.5t90.5 -18.5t74 -50.5t50 -74.5t18.5 -90.5z" />
    <glyph glyph-name="plusminus" unicode="&#xb1;" horiz-adv-x="963" 
d="M139 0v165h671v-165h-671zM564 538v-252h-177v252h-248v169h248v236h177v-236h245v-169h-245z" />
    <glyph glyph-name="twosuperior" unicode="&#xb2;" horiz-adv-x="605" 
d="M85 609q22 20 50.5 44t58.5 50t59.5 54t52.5 55.5t37 54t14 50.5q0 29 -18 51t-61 22q-34 0 -66.5 -15t-64.5 -48l-67 97q55 46 107.5 67t114.5 21q92 0 145 -45.5t53 -132.5q0 -37 -13.5 -73.5t-43 -75.5t-75.5 -81.5t-111 -91.5h248v-117h-399z" />
    <glyph glyph-name="threesuperior" unicode="&#xb3;" horiz-adv-x="614" 
d="M514 675q0 -42 -15.5 -77t-45.5 -59.5t-72.5 -38t-96.5 -13.5q-60 0 -109.5 16.5t-94.5 48.5l59 98q41 -31 73.5 -41t67.5 -10q42 0 68.5 18.5t26.5 59.5q0 40 -23 58t-72 18h-76v109h57q47 0 71.5 17t24.5 55q0 27 -19 46.5t-64 19.5q-64 0 -126 -50l-60 94
q29 19 54.5 32.5t50.5 21.5t50 12t54 4q44 0 80.5 -11t62.5 -32t40.5 -51.5t14.5 -70.5q0 -45 -17.5 -77.5t-49.5 -52.5q43 -17 64.5 -55t21.5 -89z" />
    <glyph glyph-name="acute" unicode="&#xb4;" horiz-adv-x="481" 
d="M168 917l-110 60l195 171l160 -82z" />
    <glyph glyph-name="mu" unicode="&#xb5;" 
d="M657 0h177v817h-195v-489q0 -44 -7 -78q-6 -34 -23 -57.5t-45.5 -36t-71.5 -12.5q-45 0 -71 16q-25 16 -37.5 45t-15.5 68.5t-3 86.5v457h-195v-1158h186v363q30 -40 97 -42q64 0 110 25.5t79 81.5h4z" />
    <glyph glyph-name="mu" unicode="&#x3bc;" 
d="M657 0h177v817h-195v-489q0 -44 -7 -78q-6 -34 -23 -57.5t-45.5 -36t-71.5 -12.5q-45 0 -71 16q-25 16 -37.5 45t-15.5 68.5t-3 86.5v457h-195v-1158h186v363q30 -40 97 -42q64 0 110 25.5t79 81.5h4z" />
    <glyph glyph-name="paragraph" unicode="&#xb6;" horiz-adv-x="877" 
d="M571 0q-107 0 -187.5 29t-134.5 80t-81.5 120t-27.5 149q0 78 27.5 146t81.5 119t134.5 80t187.5 29h136v-752h-136z" />
    <glyph glyph-name="periodcentered" unicode="&#xb7;" horiz-adv-x="480" 
d="M360 392q0 -24 -9.5 -45.5t-26 -37.5t-38 -25.5t-46.5 -9.5t-46.5 9.5t-38 25.5t-26 37.5t-9.5 45.5q0 26 9.5 48t26 38t38 25t46.5 9t46.5 -9t38 -25t26 -38t9.5 -48z" />
    <glyph glyph-name="periodcentered" unicode="&#x2219;" horiz-adv-x="480" 
d="M360 392q0 -24 -9.5 -45.5t-26 -37.5t-38 -25.5t-46.5 -9.5t-46.5 9.5t-38 25.5t-26 37.5t-9.5 45.5q0 26 9.5 48t26 38t38 25t46.5 9t46.5 -9t38 -25t26 -38t9.5 -48z" />
    <glyph glyph-name="cedilla" unicode="&#xb8;" horiz-adv-x="746" 
d="M568 -207q0 -30 -9 -56.5t-29.5 -46t-52.5 -30.5t-77 -11q-46 0 -78.5 11t-63.5 28l30 75q29 -17 49.5 -24t52.5 -7q33 0 50 13t17 45q0 12 -2.5 23.5t-9.5 20t-20.5 13.5t-34.5 5q-17 0 -30.5 -4t-25.5 -9l-41 24l66 136h78l-38 -83l1 -2q9 2 14.5 2.5t15.5 0.5
q66 0 102 -31.5t36 -92.5z" />
    <glyph glyph-name="onesuperior" unicode="&#xb9;" horiz-adv-x="508" 
d="M368 1104v-609h-141v434l-99 -67l-58 98l191 144h107z" />
    <glyph glyph-name="ordmasculine" unicode="&#xba;" horiz-adv-x="701" 
d="M440 796q0 29 -4 53.5t-14 42.5t-27.5 28t-44.5 10t-44.5 -10t-27.5 -28t-14 -43t-4 -55q0 -69 20.5 -103.5t71.5 -34.5q48 0 68 35.5t20 104.5zM566 794q0 -108 -54.5 -172t-161.5 -64t-161 65t-54 173q0 52 13 95.5t39.5 74.5t67 48t95.5 17q106 0 161 -63t55 -174z
" />
    <glyph glyph-name="guillemotright" unicode="&#xbb;" horiz-adv-x="874" 
d="M266 150l-136 66l136 233l-136 236l136 67l168 -301zM595 150l-135 66l135 233l-135 236l135 67l169 -301z" />
    <glyph glyph-name="onequarter" unicode="&#xbc;" horiz-adv-x="1650" 
d="M1260 175v247l-147 -247h147zM1389 -58h-144v121h-230l-27 114l242 375h159v-369h79v-120h-79v-121zM491 -58h-131l718 1162h130zM443 1104v-609h-141v434l-99 -67l-58 98l192 144h106z" />
    <glyph glyph-name="onehalf" unicode="&#xbd;" horiz-adv-x="1650" 
d="M1074 56q22 20 50.5 44.5t58.5 50.5t59.5 54t52.5 55.5t37 54t14 50.5q0 30 -18 51.5t-61 21.5q-68 0 -132 -63l-67 96q56 46 108.5 68t115.5 22q90 0 144 -46.5t54 -133.5q0 -37 -13.5 -73.5t-43 -75.5t-76 -81t-112.5 -91h249v-118h-399zM491 -58h-131l718 1162h130z
M443 1104v-609h-141v434l-99 -67l-58 98l192 144h106z" />
    <glyph glyph-name="threequarters" unicode="&#xbe;" horiz-adv-x="1650" 
d="M553 675q0 -42 -15.5 -77t-45 -59.5t-72 -38t-96.5 -13.5q-60 0 -109.5 16.5t-94.5 48.5l58 98q41 -31 73.5 -41t67.5 -10q42 0 69 18.5t27 59.5q0 40 -23 58t-73 18h-75v109h57q46 0 70 17t24 55q0 27 -18 46.5t-63 19.5q-64 0 -127 -50l-60 94q58 38 105 54t103 16
q45 0 81.5 -11t63 -32t41 -51.5t14.5 -70.5q0 -45 -18 -77.5t-49 -52.5q43 -17 64 -55t21 -89zM1321 175v247l-147 -247h147zM1449 -58h-144v121h-229l-29 114l244 375h158v-369h80v-120h-80v-121zM552 -58h-131l716 1162h131z" />
    <glyph glyph-name="questiondown" unicode="&#xbf;" horiz-adv-x="843" 
d="M613 667q0 -23 -9.5 -42.5t-26 -33t-38.5 -21t-47 -7.5t-46.5 8t-37.5 21.5t-25 32.5t-9 42q0 22 9 41t25 33t37.5 21.5t46.5 7.5t47 -7.5t38.5 -21t26 -32.5t9.5 -42zM743 -165q-39 -26 -74.5 -44.5t-71.5 -30t-75 -17t-84 -5.5q-74 0 -131 19.5t-95 56.5t-57.5 89.5
t-19.5 117.5q0 48 9.5 85t29 67.5t48.5 55t69 46.5l61 37q17 10 26.5 17t14 16.5t5.5 23t1 36.5v69h180v-110q0 -34 -3.5 -57t-12.5 -40t-25.5 -30t-43.5 -27l-59 -33q-27 -15 -47 -28t-33.5 -28.5t-20.5 -36.5t-7 -51q0 -63 35.5 -97.5t104.5 -34.5q57 0 104 20t92 59
l80 -145v0z" />
    <glyph glyph-name="Agrave" unicode="&#xc0;" horiz-adv-x="1066" 
d="M532 814h-7l-126 -427h259zM770 0l-70 221h-341l-70 -221h-209l334 1003h231l341 -1003h-216zM510 1082l-247 149l160 82l195 -171z" />
    <glyph glyph-name="Aacute" unicode="&#xc1;" horiz-adv-x="1066" 
d="M532 814h-7l-126 -427h259zM770 0l-70 221h-341l-70 -221h-209l334 1003h231l341 -1003h-216zM534 1082l-110 60l195 171l160 -82z" />
    <glyph glyph-name="Acircumflex" unicode="&#xc2;" horiz-adv-x="1066" 
d="M532 814h-7l-126 -427h259zM770 0l-70 221h-341l-70 -221h-209l334 1003h231l341 -1003h-216zM711 1078l-174 92l-174 -92l-61 106l233 130l237 -130z" />
    <glyph glyph-name="Atilde" unicode="&#xc3;" horiz-adv-x="1066" 
d="M532 814h-7l-126 -427h259zM770 0l-70 221h-341l-70 -221h-209l334 1003h231l341 -1003h-216zM799 1213q-20 -56 -62 -85.5t-100 -29.5q-31 0 -57.5 9.5t-51 21t-47 21t-43.5 9.5q-27 0 -46 -14t-33 -50l-92 64q25 59 65 93t95 34q29 0 55.5 -9.5t52 -21.5t48.5 -19
t44 -7q25 0 45.5 12t33.5 45z" />
    <glyph glyph-name="Adieresis" unicode="&#xc4;" horiz-adv-x="1066" 
d="M532 814h-7l-126 -427h259zM770 0l-70 221h-341l-70 -221h-209l334 1003h231l341 -1003h-216zM470 1185q0 -21 -7.5 -40t-21.5 -33t-32 -22t-37 -8q-21 0 -39 8t-32 22t-22 33t-8 40q0 19 8 37t22 31.5t32 21t39 7.5q19 0 37 -7.5t32 -21t21.5 -31.5t7.5 -37zM801 1185
q0 -21 -7.5 -40t-21.5 -33t-32 -22t-37 -8q-21 0 -39 8t-31.5 22t-21.5 33t-8 40q0 19 8 37t21.5 31.5t31.5 21t39 7.5q19 0 37 -7.5t32 -21t21.5 -31.5t7.5 -37z" />
    <glyph glyph-name="Aring" unicode="&#xc5;" horiz-adv-x="1066" 
d="M532 814h-7l-126 -427h259zM770 0l-70 221h-341l-70 -221h-209l334 1003h231l341 -1003h-216zM600 1204q0 31 -20 51t-49 20t-49 -20t-20 -51q0 -29 20 -48.5t49 -19.5t49 19.5t20 48.5zM673 1206q0 -30 -11 -56t-30 -45t-45 -30t-56 -11t-56 11t-45.5 30t-30.5 45
t-11 56t11 55.5t30.5 45t45.5 30.5t56 11t56 -11t45 -30.5t30 -45t11 -55.5z" />
    <glyph glyph-name="AE" unicode="&#xc6;" horiz-adv-x="1449" 
d="M433 387h290v445h-107zM723 0v221h-350l-92 -221h-211l438 1000h808v-168h-395v-231h357v-169h-357v-267h408v-165h-606z" />
    <glyph glyph-name="Ccedilla" unicode="&#xc7;" horiz-adv-x="989" 
d="M727 -208q0 -30 -9 -56.5t-29.5 -46t-52.5 -30.5t-77 -11q-46 0 -78.5 11t-62.5 27l30 76q14 -9 26 -15t23 -9.5t23.5 -5.5t28.5 -2q33 0 50 13.5t17 45.5q0 12 -2.5 23.5t-9.5 19.5t-20.5 13t-34.5 5q-17 0 -30 -4t-26 -10l-40 26l59 125q-101 9 -173.5 52t-119 111
t-68 158.5t-21.5 195.5q0 106 26.5 199t81.5 162.5t138 110t196 40.5q100 0 179 -38t153 -116l-120 -135q-47 57 -96 88.5t-115 31.5q-60 0 -104.5 -24t-73.5 -69t-43 -109t-14 -143q0 -67 11.5 -130t39.5 -112t73 -79t113 -30t121.5 31t107.5 89l105 -137
q-67 -69 -145.5 -107t-172.5 -41l-33 -72l1 -1q10 1 15 2t15 1q66 0 102 -31.5t36 -92.5z" />
    <glyph glyph-name="Egrave" unicode="&#xc8;" horiz-adv-x="907" 
d="M180 0v1000h593v-168h-393v-231h356v-169h-356v-267h407v-165h-607zM484 1082l-247 149l160 82l195 -171z" />
    <glyph glyph-name="Eacute" unicode="&#xc9;" horiz-adv-x="907" 
d="M180 0v1000h593v-168h-393v-231h356v-169h-356v-267h407v-165h-607zM457 1082l-110 60l195 171l160 -82z" />
    <glyph glyph-name="Ecircumflex" unicode="&#xca;" horiz-adv-x="907" 
d="M180 0v1000h593v-168h-393v-231h356v-169h-356v-267h407v-165h-607zM648 1078l-174 92l-174 -92l-61 106l233 130l237 -130z" />
    <glyph glyph-name="Edieresis" unicode="&#xcb;" horiz-adv-x="907" 
d="M180 0v1000h593v-168h-393v-231h356v-169h-356v-267h407v-165h-607zM407 1190q0 -21 -7.5 -40t-21.5 -33t-32 -22t-37 -8q-21 0 -39 8t-32 22t-22 33t-8 40q0 19 8 37t22 31.5t32 21t39 7.5q19 0 37 -7.5t32 -21t21.5 -31.5t7.5 -37zM738 1190q0 -21 -7.5 -40t-21.5 -33
t-32 -22t-37 -8q-21 0 -39 8t-31.5 22t-21.5 33t-8 40q0 19 8 37t21.5 31.5t31.5 21t39 7.5q19 0 37 -7.5t32 -21t21.5 -31.5t7.5 -37z" />
    <glyph glyph-name="Igrave" unicode="&#xcc;" horiz-adv-x="560" 
d="M180 0v1000h200v-1000h-200zM279 1082l-247 149l160 82l195 -171z" />
    <glyph glyph-name="Iacute" unicode="&#xcd;" horiz-adv-x="560" 
d="M180 0v1000h200v-1000h-200zM285 1082l-110 60l195 171l160 -82z" />
    <glyph glyph-name="Icircumflex" unicode="&#xce;" horiz-adv-x="560" 
d="M180 0v1000h200v-1000h-200zM461 1078l-174 92l-174 -92l-61 106l233 130l237 -130z" />
    <glyph glyph-name="Idieresis" unicode="&#xcf;" horiz-adv-x="560" 
d="M180 0v1000h200v-1000h-200zM222 1185q0 -21 -7.5 -40t-21.5 -33t-32 -22t-37 -8q-21 0 -39 8t-32 22t-22 33t-8 40q0 19 8 37t22 31.5t32 21t39 7.5q19 0 37 -7.5t32 -21t21.5 -31.5t7.5 -37zM553 1185q0 -21 -7.5 -40t-21.5 -33t-32 -22t-37 -8q-21 0 -39 8t-31.5 22
t-21.5 33t-8 40q0 19 8 37t21.5 31.5t31.5 21t39 7.5q19 0 37 -7.5t32 -21t21.5 -31.5t7.5 -37z" />
    <glyph glyph-name="Eth" unicode="&#xd0;" horiz-adv-x="1087" 
d="M380 432v-271q29 -1 49 -1h46q69 0 120 19t85.5 60.5t51.5 108t17 161.5q0 65 -9.5 127t-36.5 110t-75.5 77.5t-125.5 29.5q-30 0 -61.5 -1.5t-60.5 -4.5v-246h184v-169h-184zM957 505q0 -121 -29.5 -215t-88 -158.5t-146.5 -98t-205 -33.5h-308v432h-96v169h96v393
q34 3 73.5 6.5t80.5 5.5t82 3.5t78 1.5q110 0 196 -32.5t145.5 -96.5t90.5 -158.5t31 -218.5z" />
    <glyph glyph-name="Ntilde" unicode="&#xd1;" horiz-adv-x="1155" 
d="M798 0l-423 643h-3l2 -643h-194v1000h192l408 -626h3v626h192v-1000h-177zM844 1208q-20 -56 -62 -85.5t-100 -29.5q-31 0 -57.5 9.5t-51 21t-47 21t-43.5 9.5q-27 0 -46 -14t-33 -50l-92 64q25 59 65 93t95 34q29 0 55.5 -9.5t52 -21.5t48.5 -19t44 -7q25 0 45.5 12
t33.5 45z" />
    <glyph glyph-name="Ograve" unicode="&#xd2;" horiz-adv-x="1154" 
d="M816 501q0 77 -11 141.5t-38 111.5t-73.5 73t-117.5 26t-117 -26t-73 -73t-37.5 -111.5t-10.5 -141.5q0 -78 11 -143t38 -112t73.5 -73t117.5 -26q70 0 116 26.5t73 74t38 112t11 141.5zM1024 501q0 -121 -29.5 -217t-86.5 -163t-140 -102.5t-190 -35.5
q-108 0 -191.5 35.5t-140.5 102t-86.5 162.5t-29.5 218q0 120 29 215t86 162t140.5 102.5t192.5 35.5q108 0 191.5 -35.5t140 -102.5t85.5 -162t29 -215zM582 1097l-247 149l160 82l195 -171z" />
    <glyph glyph-name="Oacute" unicode="&#xd3;" horiz-adv-x="1154" 
d="M816 501q0 77 -11 141.5t-38 111.5t-73.5 73t-117.5 26t-117 -26t-73 -73t-37.5 -111.5t-10.5 -141.5q0 -78 11 -143t38 -112t73.5 -73t117.5 -26q70 0 116 26.5t73 74t38 112t11 141.5zM1024 501q0 -121 -29.5 -217t-86.5 -163t-140 -102.5t-190 -35.5
q-108 0 -191.5 35.5t-140.5 102t-86.5 162.5t-29.5 218q0 120 29 215t86 162t140.5 102.5t192.5 35.5q108 0 191.5 -35.5t140 -102.5t85.5 -162t29 -215zM592 1097l-110 60l195 171l160 -82z" />
    <glyph glyph-name="Ocircumflex" unicode="&#xd4;" horiz-adv-x="1154" 
d="M816 501q0 77 -11 141.5t-38 111.5t-73.5 73t-117.5 26t-117 -26t-73 -73t-37.5 -111.5t-10.5 -141.5q0 -78 11 -143t38 -112t73.5 -73t117.5 -26q70 0 116 26.5t73 74t38 112t11 141.5zM1024 501q0 -121 -29.5 -217t-86.5 -163t-140 -102.5t-190 -35.5
q-108 0 -191.5 35.5t-140.5 102t-86.5 162.5t-29.5 218q0 120 29 215t86 162t140.5 102.5t192.5 35.5q108 0 191.5 -35.5t140 -102.5t85.5 -162t29 -215zM774 1093l-174 92l-174 -92l-61 106l233 130l237 -130z" />
    <glyph glyph-name="Otilde" unicode="&#xd5;" horiz-adv-x="1154" 
d="M816 501q0 77 -11 141.5t-38 111.5t-73.5 73t-117.5 26t-117 -26t-73 -73t-37.5 -111.5t-10.5 -141.5q0 -78 11 -143t38 -112t73.5 -73t117.5 -26q70 0 116 26.5t73 74t38 112t11 141.5zM1024 501q0 -121 -29.5 -217t-86.5 -163t-140 -102.5t-190 -35.5
q-108 0 -191.5 35.5t-140.5 102t-86.5 162.5t-29.5 218q0 120 29 215t86 162t140.5 102.5t192.5 35.5q108 0 191.5 -35.5t140 -102.5t85.5 -162t29 -215zM851 1223q-20 -56 -62 -85.5t-100 -29.5q-31 0 -57.5 9.5t-51 21t-47 21t-43.5 9.5q-27 0 -46 -14t-33 -50l-92 64
q25 59 65 93t95 34q29 0 55.5 -9.5t52 -21.5t48.5 -19t44 -7q25 0 45.5 12t33.5 45z" />
    <glyph glyph-name="Odieresis" unicode="&#xd6;" horiz-adv-x="1154" 
d="M816 501q0 77 -11 141.5t-38 111.5t-73.5 73t-117.5 26t-117 -26t-73 -73t-37.5 -111.5t-10.5 -141.5q0 -78 11 -143t38 -112t73.5 -73t117.5 -26q70 0 116 26.5t73 74t38 112t11 141.5zM1024 501q0 -121 -29.5 -217t-86.5 -163t-140 -102.5t-190 -35.5
q-108 0 -191.5 35.5t-140.5 102t-86.5 162.5t-29.5 218q0 120 29 215t86 162t140.5 102.5t192.5 35.5q108 0 191.5 -35.5t140 -102.5t85.5 -162t29 -215zM521 1200q0 -21 -7.5 -40t-21.5 -33t-32 -22t-37 -8q-21 0 -39 8t-32 22t-22 33t-8 40q0 19 8 37t22 31.5t32 21
t39 7.5q19 0 37 -7.5t32 -21t21.5 -31.5t7.5 -37zM852 1200q0 -21 -7.5 -40t-21.5 -33t-32 -22t-37 -8q-21 0 -39 8t-31.5 22t-21.5 33t-8 40q0 19 8 37t21.5 31.5t31.5 21t39 7.5q19 0 37 -7.5t32 -21t21.5 -31.5t7.5 -37z" />
    <glyph glyph-name="multiply" unicode="&#xd7;" horiz-adv-x="952" 
d="M772 583l-188 -181l188 -182l-122 -121l-181 188l-181 -188l-120 121l188 182l-188 181l120 122l181 -188l181 188z" />
    <glyph glyph-name="Oslash" unicode="&#xd8;" horiz-adv-x="1154" 
d="M816 501q0 70 -9 130l-393 -424q29 -29 68.5 -44.5t95.5 -15.5q70 0 116 26.5t73 74t38 112t11 141.5zM338 501q0 -42 2.5 -79.5t8.5 -70.5l398 431q-29 34 -70 52.5t-101 18.5q-71 0 -117 -26t-73 -73t-37.5 -111.5t-10.5 -141.5zM1024 501q0 -121 -29.5 -217
t-86.5 -163t-140 -102.5t-190 -35.5q-175 0 -287 92l-84 -92l-100 105l91 99q-33 63 -50.5 141.5t-17.5 172.5q0 120 29 215t86 162t140.5 102.5t192.5 35.5q91 0 164 -25.5t129 -73.5l92 99l111 -97l-113 -122q63 -119 63 -296z" />
    <glyph glyph-name="Ugrave" unicode="&#xd9;" horiz-adv-x="1110" 
d="M930 406q0 -101 -18.5 -179.5t-62.5 -132.5t-116 -82.5t-178 -28.5t-177.5 28.5t-115.5 82.5t-63 132.5t-19 179.5v594h200v-586q0 -56 5.5 -103.5t23.5 -82.5t52.5 -55t93.5 -20q58 0 93 20t53 55.5t23.5 83t5.5 102.5v586h200v-594v0zM539 1082l-247 149l160 82
l195 -171z" />
    <glyph glyph-name="Uacute" unicode="&#xda;" horiz-adv-x="1110" 
d="M930 406q0 -101 -18.5 -179.5t-62.5 -132.5t-116 -82.5t-178 -28.5t-177.5 28.5t-115.5 82.5t-63 132.5t-19 179.5v594h200v-586q0 -56 5.5 -103.5t23.5 -82.5t52.5 -55t93.5 -20q58 0 93 20t53 55.5t23.5 83t5.5 102.5v586h200v-594v0zM553 1082l-110 60l195 171
l160 -82z" />
    <glyph glyph-name="Ucircumflex" unicode="&#xdb;" horiz-adv-x="1110" 
d="M930 406q0 -101 -18.5 -179.5t-62.5 -132.5t-116 -82.5t-178 -28.5t-177.5 28.5t-115.5 82.5t-63 132.5t-19 179.5v594h200v-586q0 -56 5.5 -103.5t23.5 -82.5t52.5 -55t93.5 -20q58 0 93 20t53 55.5t23.5 83t5.5 102.5v586h200v-594v0zM729 1078l-174 92l-174 -92
l-61 106l233 130l237 -130z" />
    <glyph glyph-name="Udieresis" unicode="&#xdc;" horiz-adv-x="1110" 
d="M930 406q0 -101 -18.5 -179.5t-62.5 -132.5t-116 -82.5t-178 -28.5t-177.5 28.5t-115.5 82.5t-63 132.5t-19 179.5v594h200v-586q0 -56 5.5 -103.5t23.5 -82.5t52.5 -55t93.5 -20q58 0 93 20t53 55.5t23.5 83t5.5 102.5v586h200v-594v0zM488 1185q0 -21 -7.5 -40
t-21.5 -33t-32 -22t-37 -8q-21 0 -39 8t-32 22t-22 33t-8 40q0 19 8 37t22 31.5t32 21t39 7.5q19 0 37 -7.5t32 -21t21.5 -31.5t7.5 -37zM819 1185q0 -21 -7.5 -40t-21.5 -33t-32 -22t-37 -8q-21 0 -39 8t-31.5 22t-21.5 33t-8 40q0 19 8 37t21.5 31.5t31.5 21t39 7.5
q19 0 37 -7.5t32 -21t21.5 -31.5t7.5 -37z" />
    <glyph glyph-name="Yacute" unicode="&#xdd;" horiz-adv-x="944" 
d="M574 388v-388h-200v382l-324 618h223l203 -439l204 439h214zM478 1082l-110 60l195 171l160 -82z" />
    <glyph glyph-name="Thorn" unicode="&#xde;" horiz-adv-x="1003" 
d="M685 549q0 44 -9 75t-30 50t-55 27.5t-83 8.5q-27 0 -60 -1t-68 -4v-324h134q40 0 72 6t54 24t33.5 51t11.5 87zM883 545q0 -74 -19.5 -134t-61 -102.5t-105.5 -65.5t-154 -23h-163l-1 -220h-199v1000h199v-133q30 2 61.5 4t60.5 2q82 0 152 -16t121 -54t80 -101t29 -157
z" />
    <glyph glyph-name="germandbls" unicode="&#xdf;" horiz-adv-x="986" 
d="M886 292q0 -67 -20 -121t-58 -92t-92.5 -58.5t-124.5 -20.5h-78v150q38 0 71.5 5t58.5 20.5t39.5 43t14.5 72.5q0 38 -9.5 68t-33 54.5t-63 45.5t-98.5 40l-19 119q39 37 63 65.5t37 53.5t17.5 49.5t4.5 53.5q0 25 -4.5 46t-15.5 36t-30.5 23.5t-49.5 8.5q-51 0 -77 -34
t-26 -97v-823h-195v645h-108v158h108v14q0 59 13.5 110t47 89t91 59.5t146.5 21.5q138 0 214.5 -65.5t76.5 -191.5q0 -42 -8.5 -74.5t-24.5 -59.5t-38.5 -49.5t-50.5 -44.5v-2q50 -23 91 -57.5t70 -76t44.5 -88.5t15.5 -96z" />
    <glyph glyph-name="agrave" unicode="&#xe0;" horiz-adv-x="972" 
d="M604 409q-47 0 -97.5 -5.5t-92 -23.5t-68 -51t-26.5 -88q0 -53 26 -89.5t81 -36.5q48 0 92.5 20t84.5 53v221zM732 -13q-41 10 -69.5 31.5t-39.5 64.5h-5q-51 -48 -114.5 -74.5t-136.5 -26.5q-56 0 -100 18t-74.5 50.5t-46.5 78t-16 101.5q0 63 21 109.5t57 79.5t83 54
t100 33.5t107.5 17t105.5 4.5v31q0 31 -5 55t-18 39.5t-35 23.5t-56 8q-75 0 -143 -21.5t-131 -56.5l-54 141q84 43 165 64t174 21q84 0 141 -19t91.5 -56.5t49 -95t14.5 -133.5v-327q0 -23 2.5 -39t9 -28t17 -21.5t26.5 -19.5zM489 917l-247 149l160 82l195 -171z" />
    <glyph glyph-name="aacute" unicode="&#xe1;" horiz-adv-x="972" 
d="M604 409q-47 0 -97.5 -5.5t-92 -23.5t-68 -51t-26.5 -88q0 -53 26 -89.5t81 -36.5q48 0 92.5 20t84.5 53v221zM732 -13q-41 10 -69.5 31.5t-39.5 64.5h-5q-51 -48 -114.5 -74.5t-136.5 -26.5q-56 0 -100 18t-74.5 50.5t-46.5 78t-16 101.5q0 63 21 109.5t57 79.5t83 54
t100 33.5t107.5 17t105.5 4.5v31q0 31 -5 55t-18 39.5t-35 23.5t-56 8q-75 0 -143 -21.5t-131 -56.5l-54 141q84 43 165 64t174 21q84 0 141 -19t91.5 -56.5t49 -95t14.5 -133.5v-327q0 -23 2.5 -39t9 -28t17 -21.5t26.5 -19.5zM478 917l-110 60l195 171l160 -82z" />
    <glyph glyph-name="acircumflex" unicode="&#xe2;" horiz-adv-x="972" 
d="M604 409q-47 0 -97.5 -5.5t-92 -23.5t-68 -51t-26.5 -88q0 -53 26 -89.5t81 -36.5q48 0 92.5 20t84.5 53v221zM732 -13q-41 10 -69.5 31.5t-39.5 64.5h-5q-51 -48 -114.5 -74.5t-136.5 -26.5q-56 0 -100 18t-74.5 50.5t-46.5 78t-16 101.5q0 63 21 109.5t57 79.5t83 54
t100 33.5t107.5 17t105.5 4.5v31q0 31 -5 55t-18 39.5t-35 23.5t-56 8q-75 0 -143 -21.5t-131 -56.5l-54 141q84 43 165 64t174 21q84 0 141 -19t91.5 -56.5t49 -95t14.5 -133.5v-327q0 -23 2.5 -39t9 -28t17 -21.5t26.5 -19.5zM655 913l-174 92l-174 -92l-61 106l233 130
l237 -130z" />
    <glyph glyph-name="atilde" unicode="&#xe3;" horiz-adv-x="972" 
d="M604 409q-47 0 -97.5 -5.5t-92 -23.5t-68 -51t-26.5 -88q0 -53 26 -89.5t81 -36.5q48 0 92.5 20t84.5 53v221zM732 -13q-41 10 -69.5 31.5t-39.5 64.5h-5q-51 -48 -114.5 -74.5t-136.5 -26.5q-56 0 -100 18t-74.5 50.5t-46.5 78t-16 101.5q0 63 21 109.5t57 79.5t83 54
t100 33.5t107.5 17t105.5 4.5v31q0 31 -5 55t-18 39.5t-35 23.5t-56 8q-75 0 -143 -21.5t-131 -56.5l-54 141q84 43 165 64t174 21q84 0 141 -19t91.5 -56.5t49 -95t14.5 -133.5v-327q0 -23 2.5 -39t9 -28t17 -21.5t26.5 -19.5zM741 1043q-20 -56 -62 -85.5t-100 -29.5
q-31 0 -57.5 9.5t-51 21t-47 21t-43.5 9.5q-27 0 -46 -14t-33 -50l-92 64q25 59 65 93t95 34q29 0 55.5 -9.5t52 -21.5t48.5 -19t44 -7q25 0 45.5 12t33.5 45z" />
    <glyph glyph-name="adieresis" unicode="&#xe4;" horiz-adv-x="972" 
d="M604 409q-47 0 -97.5 -5.5t-92 -23.5t-68 -51t-26.5 -88q0 -53 26 -89.5t81 -36.5q48 0 92.5 20t84.5 53v221zM732 -13q-41 10 -69.5 31.5t-39.5 64.5h-5q-51 -48 -114.5 -74.5t-136.5 -26.5q-56 0 -100 18t-74.5 50.5t-46.5 78t-16 101.5q0 63 21 109.5t57 79.5t83 54
t100 33.5t107.5 17t105.5 4.5v31q0 31 -5 55t-18 39.5t-35 23.5t-56 8q-75 0 -143 -21.5t-131 -56.5l-54 141q84 43 165 64t174 21q84 0 141 -19t91.5 -56.5t49 -95t14.5 -133.5v-327q0 -23 2.5 -39t9 -28t17 -21.5t26.5 -19.5zM424 1020q0 -21 -7.5 -40t-21.5 -33t-32 -22
t-37 -8q-21 0 -39 8t-32 22t-22 33t-8 40q0 19 8 37t22 31.5t32 21t39 7.5q19 0 37 -7.5t32 -21t21.5 -31.5t7.5 -37zM755 1020q0 -21 -7.5 -40t-21.5 -33t-32 -22t-37 -8q-21 0 -39 8t-31.5 22t-21.5 33t-8 40q0 19 8 37t21.5 31.5t31.5 21t39 7.5q19 0 37 -7.5t32 -21
t21.5 -31.5t7.5 -37z" />
    <glyph glyph-name="aring" unicode="&#xe5;" horiz-adv-x="972" 
d="M604 409q-47 0 -97.5 -5.5t-92 -23.5t-68 -51t-26.5 -88q0 -53 26 -89.5t81 -36.5q48 0 92.5 20t84.5 53v221zM732 -13q-41 10 -69.5 31.5t-39.5 64.5h-5q-51 -48 -114.5 -74.5t-136.5 -26.5q-56 0 -100 18t-74.5 50.5t-46.5 78t-16 101.5q0 63 21 109.5t57 79.5t83 54
t100 33.5t107.5 17t105.5 4.5v31q0 31 -5 55t-18 39.5t-35 23.5t-56 8q-75 0 -143 -21.5t-131 -56.5l-54 141q84 43 165 64t174 21q84 0 141 -19t91.5 -56.5t49 -95t14.5 -133.5v-327q0 -23 2.5 -39t9 -28t17 -21.5t26.5 -19.5zM570 1044q0 31 -20 51t-49 20t-49 -20
t-20 -51q0 -29 20 -48.5t49 -19.5t49 19.5t20 48.5zM643 1046q0 -30 -11 -56t-30 -45t-45 -30t-56 -11t-56 11t-45.5 30t-30.5 45t-11 56t11 55.5t30.5 45t45.5 30.5t56 11t56 -11t45 -30.5t30 -45t11 -55.5z" />
    <glyph glyph-name="ae" unicode="&#xe6;" horiz-adv-x="1458" 
d="M603 408q-144 0 -213 -41t-69 -129q0 -55 27 -89.5t78 -34.5q47 0 88 17.5t89 59.5v217zM1147 478q-2 43 -11.5 81t-29 66t-51 44.5t-78.5 16.5q-81 0 -126.5 -52.5t-47.5 -155.5h344v0zM1328 406q0 -11 -0.5 -27.5t-2.5 -36.5h-521q8 -205 196 -205q58 0 110.5 17.5
t107.5 53.5l60 -142q-67 -42 -137 -63t-150 -21q-101 0 -173.5 34.5t-120.5 97.5q-60 -64 -138 -99t-175 -35q-62 0 -109.5 18t-79.5 51t-48.5 79t-16.5 102q0 82 36 139.5t100 93.5t150.5 52t188.5 16v24q0 30 -3 53t-14.5 39t-34 24t-62.5 8q-60 0 -130.5 -18.5
t-145.5 -58.5l-55 147q87 43 169 64.5t175 21.5q77 0 138 -20.5t95 -68.5q47 45 108.5 67.5t131.5 22.5q82 0 147.5 -28t110.5 -82t69 -134.5t24 -185.5z" />
    <glyph glyph-name="ccedilla" unicode="&#xe7;" horiz-adv-x="865" 
d="M668 -207q0 -30 -9 -56.5t-29 -46t-52 -30.5t-78 -11q-47 0 -79.5 11t-62.5 28l30 75q15 -9 26.5 -14.5t23 -9.5t24 -5.5t27.5 -1.5q35 0 51.5 13t16.5 45q0 12 -2.5 23.5t-10 20t-21 13.5t-34.5 5q-17 0 -29.5 -4t-25.5 -9l-40 24l57 123q-83 9 -143.5 44t-100 91
t-58.5 128.5t-19 156.5q0 91 23.5 169t71.5 135.5t120 90t169 32.5q74 0 141 -24.5t128 -69.5l-81 -138q-41 39 -82 58.5t-99 19.5q-57 0 -93.5 -24t-58.5 -62.5t-30.5 -86t-8.5 -95.5q0 -50 9 -99t31 -88t59 -63t93 -24q58 0 106 19.5t95 54.5l62 -138q-61 -42 -122 -64
t-133 -26l-32 -67l2 -2q9 2 14.5 2.5t15.5 0.5q66 0 102 -31.5t36 -92.5z" />
    <glyph glyph-name="egrave" unicode="&#xe8;" horiz-adv-x="978" 
d="M665 472q0 44 -7.5 83t-26 68t-49 46t-76.5 17q-82 0 -130 -55.5t-48 -158.5h337v0zM848 409q0 -14 -0.5 -29t-2.5 -35h-515q1 -103 48.5 -157t145.5 -54q30 0 57 4t53 12.5t53 21.5t56 32l60 -140q-70 -44 -139.5 -63t-148.5 -19q-93 0 -164.5 30t-120.5 85.5t-74.5 134
t-25.5 176.5q0 107 29 186.5t79 132.5t118.5 79.5t148.5 26.5q85 0 149 -28.5t107 -83t65 -133.5t22 -179zM514 917l-247 149l160 82l195 -171z" />
    <glyph glyph-name="eacute" unicode="&#xe9;" horiz-adv-x="978" 
d="M665 472q0 44 -7.5 83t-26 68t-49 46t-76.5 17q-82 0 -130 -55.5t-48 -158.5h337v0zM848 409q0 -14 -0.5 -29t-2.5 -35h-515q1 -103 48.5 -157t145.5 -54q30 0 57 4t53 12.5t53 21.5t56 32l60 -140q-70 -44 -139.5 -63t-148.5 -19q-93 0 -164.5 30t-120.5 85.5t-74.5 134
t-25.5 176.5q0 107 29 186.5t79 132.5t118.5 79.5t148.5 26.5q85 0 149 -28.5t107 -83t65 -133.5t22 -179zM516 917l-110 60l195 171l160 -82z" />
    <glyph glyph-name="ecircumflex" unicode="&#xea;" horiz-adv-x="978" 
d="M665 472q0 44 -7.5 83t-26 68t-49 46t-76.5 17q-82 0 -130 -55.5t-48 -158.5h337v0zM848 409q0 -14 -0.5 -29t-2.5 -35h-515q1 -103 48.5 -157t145.5 -54q30 0 57 4t53 12.5t53 21.5t56 32l60 -140q-70 -44 -139.5 -63t-148.5 -19q-93 0 -164.5 30t-120.5 85.5t-74.5 134
t-25.5 176.5q0 107 29 186.5t79 132.5t118.5 79.5t148.5 26.5q85 0 149 -28.5t107 -83t65 -133.5t22 -179zM686 913l-174 92l-174 -92l-61 106l233 130l237 -130z" />
    <glyph glyph-name="edieresis" unicode="&#xeb;" horiz-adv-x="978" 
d="M665 472q0 44 -7.5 83t-26 68t-49 46t-76.5 17q-82 0 -130 -55.5t-48 -158.5h337v0zM848 409q0 -14 -0.5 -29t-2.5 -35h-515q1 -103 48.5 -157t145.5 -54q30 0 57 4t53 12.5t53 21.5t56 32l60 -140q-70 -44 -139.5 -63t-148.5 -19q-93 0 -164.5 30t-120.5 85.5t-74.5 134
t-25.5 176.5q0 107 29 186.5t79 132.5t118.5 79.5t148.5 26.5q85 0 149 -28.5t107 -83t65 -133.5t22 -179zM445 1020q0 -21 -7.5 -40t-21.5 -33t-32 -22t-37 -8q-21 0 -39 8t-32 22t-22 33t-8 40q0 19 8 37t22 31.5t32 21t39 7.5q19 0 37 -7.5t32 -21t21.5 -31.5t7.5 -37z
M776 1020q0 -21 -7.5 -40t-21.5 -33t-32 -22t-37 -8q-21 0 -39 8t-31.5 22t-21.5 33t-8 40q0 19 8 37t21.5 31.5t31.5 21t39 7.5q19 0 37 -7.5t32 -21t21.5 -31.5t7.5 -37z" />
    <glyph glyph-name="igrave" unicode="&#xec;" horiz-adv-x="538" 
d="M173 0v817h195v-817h-195zM272 917l-247 149l160 82l195 -171z" />
    <glyph glyph-name="iacute" unicode="&#xed;" horiz-adv-x="538" 
d="M173 0v817h195v-817h-195zM277 917l-110 60l195 171l160 -82z" />
    <glyph glyph-name="icircumflex" unicode="&#xee;" horiz-adv-x="538" 
d="M173 0v817h195v-817h-195zM446 913l-174 92l-174 -92l-61 106l233 130l237 -130z" />
    <glyph glyph-name="idieresis" unicode="&#xef;" horiz-adv-x="538" 
d="M173 0v817h195v-817h-195zM204 1020q0 -21 -7.5 -40t-21.5 -33t-32 -22t-37 -8q-21 0 -39 8t-32 22t-22 33t-8 40q0 19 8 37t22 31.5t32 21t39 7.5q19 0 37 -7.5t32 -21t21.5 -31.5t7.5 -37zM535 1020q0 -21 -7.5 -40t-21.5 -33t-32 -22t-37 -8q-21 0 -39 8t-31.5 22
t-21.5 33t-8 40q0 19 8 37t21.5 31.5t31.5 21t39 7.5q19 0 37 -7.5t32 -21t21.5 -31.5t7.5 -37z" />
    <glyph glyph-name="eth" unicode="&#xf0;" horiz-adv-x="1010" 
d="M682 408q0 55 -7 104t-26.5 85.5t-53.5 57.5t-89 21q-54 0 -88.5 -21t-54 -57.5t-26.5 -85.5t-7 -104q0 -61 7.5 -111.5t27.5 -86.5t54 -55.5t87 -19.5q52 0 86 19.5t54 55.5t28 86.5t8 111.5zM549 1001q-11 28 -22.5 55.5t-21.5 50.5l131 57q14 -26 27 -50t26 -47
l104 50l37 -86l-99 -47q33 -68 60.5 -135t47 -136.5t30.5 -144.5t11 -160q0 -95 -23 -173t-69.5 -134.5t-116.5 -87.5t-165 -31t-165.5 31t-117.5 87t-70 134.5t-23 173.5q0 94 23.5 172t68 134.5t109 87.5t147.5 31q25 0 49 -6t44.5 -15t37 -20t27.5 -22q-10 32 -23 69
t-29 77l-66 -32l-36 86z" />
    <glyph glyph-name="ntilde" unicode="&#xf1;" horiz-adv-x="1013" 
d="M648 0v462q0 44 -2.5 82t-15.5 65.5t-39 43.5t-73 16q-83 0 -118 -46t-35 -131v-492h-195v817h171l13 -88h3q38 59 94.5 81.5t126.5 22.5q79 0 130.5 -25t81.5 -71t41.5 -111t11.5 -144v-482h-195zM771 1043q-20 -56 -62 -85.5t-100 -29.5q-31 0 -57.5 9.5t-51 21t-47 21
t-43.5 9.5q-27 0 -46 -14t-33 -50l-92 64q25 59 65 93t95 34q29 0 55.5 -9.5t52 -21.5t48.5 -19t44 -7q25 0 45.5 12t33.5 45z" />
    <glyph glyph-name="ograve" unicode="&#xf2;" horiz-adv-x="1012" 
d="M682 408q0 55 -7 104t-26.5 85.5t-53.5 57.5t-89 21q-54 0 -88.5 -21t-54 -57.5t-26.5 -85.5t-7 -104q0 -61 7.5 -111.5t27.5 -86.5t54 -55.5t87 -19.5q52 0 86 19.5t54 55.5t28 86.5t8 111.5zM882 408q0 -95 -23 -173t-70 -134.5t-117.5 -87.5t-165.5 -31t-165.5 31
t-117.5 87t-70 134.5t-23 173.5q0 92 22 170t68 134.5t117 88.5t169 32q94 0 164.5 -30t117.5 -85.5t70.5 -134t23.5 -175.5zM511 917l-247 149l160 82l195 -171z" />
    <glyph glyph-name="oacute" unicode="&#xf3;" horiz-adv-x="1012" 
d="M682 408q0 55 -7 104t-26.5 85.5t-53.5 57.5t-89 21q-54 0 -88.5 -21t-54 -57.5t-26.5 -85.5t-7 -104q0 -61 7.5 -111.5t27.5 -86.5t54 -55.5t87 -19.5q52 0 86 19.5t54 55.5t28 86.5t8 111.5zM882 408q0 -95 -23 -173t-70 -134.5t-117.5 -87.5t-165.5 -31t-165.5 31
t-117.5 87t-70 134.5t-23 173.5q0 92 22 170t68 134.5t117 88.5t169 32q94 0 164.5 -30t117.5 -85.5t70.5 -134t23.5 -175.5zM526 917l-110 60l195 171l160 -82z" />
    <glyph glyph-name="ocircumflex" unicode="&#xf4;" horiz-adv-x="1012" 
d="M682 408q0 55 -7 104t-26.5 85.5t-53.5 57.5t-89 21q-54 0 -88.5 -21t-54 -57.5t-26.5 -85.5t-7 -104q0 -61 7.5 -111.5t27.5 -86.5t54 -55.5t87 -19.5q52 0 86 19.5t54 55.5t28 86.5t8 111.5zM882 408q0 -95 -23 -173t-70 -134.5t-117.5 -87.5t-165.5 -31t-165.5 31
t-117.5 87t-70 134.5t-23 173.5q0 92 22 170t68 134.5t117 88.5t169 32q94 0 164.5 -30t117.5 -85.5t70.5 -134t23.5 -175.5zM697 913l-174 92l-174 -92l-61 106l233 130l237 -130z" />
    <glyph glyph-name="otilde" unicode="&#xf5;" horiz-adv-x="1012" 
d="M682 408q0 55 -7 104t-26.5 85.5t-53.5 57.5t-89 21q-54 0 -88.5 -21t-54 -57.5t-26.5 -85.5t-7 -104q0 -61 7.5 -111.5t27.5 -86.5t54 -55.5t87 -19.5q52 0 86 19.5t54 55.5t28 86.5t8 111.5zM882 408q0 -95 -23 -173t-70 -134.5t-117.5 -87.5t-165.5 -31t-165.5 31
t-117.5 87t-70 134.5t-23 173.5q0 92 22 170t68 134.5t117 88.5t169 32q94 0 164.5 -30t117.5 -85.5t70.5 -134t23.5 -175.5zM777 1043q-20 -56 -62 -85.5t-100 -29.5q-31 0 -57.5 9.5t-51 21t-47 21t-43.5 9.5q-27 0 -46 -14t-33 -50l-92 64q25 59 65 93t95 34
q29 0 55.5 -9.5t52 -21.5t48.5 -19t44 -7q25 0 45.5 12t33.5 45z" />
    <glyph glyph-name="odieresis" unicode="&#xf6;" horiz-adv-x="1012" 
d="M682 408q0 55 -7 104t-26.5 85.5t-53.5 57.5t-89 21q-54 0 -88.5 -21t-54 -57.5t-26.5 -85.5t-7 -104q0 -61 7.5 -111.5t27.5 -86.5t54 -55.5t87 -19.5q52 0 86 19.5t54 55.5t28 86.5t8 111.5zM882 408q0 -95 -23 -173t-70 -134.5t-117.5 -87.5t-165.5 -31t-165.5 31
t-117.5 87t-70 134.5t-23 173.5q0 92 22 170t68 134.5t117 88.5t169 32q94 0 164.5 -30t117.5 -85.5t70.5 -134t23.5 -175.5zM452 1020q0 -21 -7.5 -40t-21.5 -33t-32 -22t-37 -8q-21 0 -39 8t-32 22t-22 33t-8 40q0 19 8 37t22 31.5t32 21t39 7.5q19 0 37 -7.5t32 -21
t21.5 -31.5t7.5 -37zM783 1020q0 -21 -7.5 -40t-21.5 -33t-32 -22t-37 -8q-21 0 -39 8t-31.5 22t-21.5 33t-8 40q0 19 8 37t21.5 31.5t31.5 21t39 7.5q19 0 37 -7.5t32 -21t21.5 -31.5t7.5 -37z" />
    <glyph glyph-name="oslash" unicode="&#xf8;" horiz-adv-x="1012" 
d="M682 408q0 15 -0.5 33t-2 36t-4.5 34.5t-7 29.5l-288 -354q43 -52 126 -52q52 0 86 20t54 56t28 86.5t8 110.5zM612 643q-23 18 -50.5 25.5t-56.5 7.5q-54 0 -88 -21t-53.5 -57.5t-26.5 -85.5t-7 -104q0 -25 1 -56t6 -52l275 343v0zM806 691q40 -54 57 -127.5t17 -155.5
q0 -95 -23 -173t-69.5 -134.5t-117 -87.5t-165.5 -31q-140 0 -234 72l-74 -90l-87 83l81 97q-31 54 -46 121t-15 143q0 92 22 170t67.5 134.5t116.5 88.5t169 32q62 0 116 -13.5t97 -43.5l77 90l94 -77z" />
    <glyph glyph-name="ugrave" unicode="&#xf9;" 
d="M657 0l-11 87h-4q-35 -52 -88 -79.5t-130 -27.5q-65 0 -112.5 17t-79 55.5t-47 99.5t-15.5 148v517h195v-457q0 -47 3 -86.5t15.5 -68.5t38 -45t70.5 -16q43 0 71.5 12.5t45.5 36t23.5 57.5t6.5 78v489h195v-817h-177zM506 917l-247 149l160 82l195 -171z" />
    <glyph glyph-name="uacute" unicode="&#xfa;" 
d="M657 0l-11 87h-4q-35 -52 -88 -79.5t-130 -27.5q-65 0 -112.5 17t-79 55.5t-47 99.5t-15.5 148v517h195v-457q0 -47 3 -86.5t15.5 -68.5t38 -45t70.5 -16q43 0 71.5 12.5t45.5 36t23.5 57.5t6.5 78v489h195v-817h-177zM508 917l-110 60l195 171l160 -82z" />
    <glyph glyph-name="ucircumflex" unicode="&#xfb;" 
d="M657 0l-11 87h-4q-35 -52 -88 -79.5t-130 -27.5q-65 0 -112.5 17t-79 55.5t-47 99.5t-15.5 148v517h195v-457q0 -47 3 -86.5t15.5 -68.5t38 -45t70.5 -16q43 0 71.5 12.5t45.5 36t23.5 57.5t6.5 78v489h195v-817h-177zM686 913l-174 92l-174 -92l-61 106l233 130
l237 -130z" />
    <glyph glyph-name="udieresis" unicode="&#xfc;" 
d="M657 0l-11 87h-4q-35 -52 -88 -79.5t-130 -27.5q-65 0 -112.5 17t-79 55.5t-47 99.5t-15.5 148v517h195v-457q0 -47 3 -86.5t15.5 -68.5t38 -45t70.5 -16q43 0 71.5 12.5t45.5 36t23.5 57.5t6.5 78v489h195v-817h-177zM435 1020q0 -21 -7.5 -40t-21.5 -33t-32 -22t-37 -8
q-21 0 -39 8t-32 22t-22 33t-8 40q0 19 8 37t22 31.5t32 21t39 7.5q19 0 37 -7.5t32 -21t21.5 -31.5t7.5 -37zM766 1020q0 -21 -7.5 -40t-21.5 -33t-32 -22t-37 -8q-21 0 -39 8t-31.5 22t-21.5 33t-8 40q0 19 8 37t21.5 31.5t31.5 21t39 7.5q19 0 37 -7.5t32 -21t21.5 -31.5
t7.5 -37z" />
    <glyph glyph-name="yacute" unicode="&#xfd;" horiz-adv-x="896" 
d="M545 -17q-27 -79 -53 -136t-59 -94t-78 -54.5t-110 -17.5q-26 0 -52.5 1.5t-61.5 6.5v163q13 -2 35 -2.5t45 -0.5q27 0 46 4t32.5 15t24 30.5t20.5 50.5l17 51l-281 817h208l173 -613h3l165 613h207zM465 917l-110 60l195 171l160 -82z" />
    <glyph glyph-name="thorn" unicode="&#xfe;" horiz-adv-x="1003" 
d="M673 409q0 45 -3.5 93.5t-19.5 88t-48 65.5t-89 26q-78 0 -113.5 -44t-35.5 -119v-197q0 -39 7 -74t23.5 -61t45 -41.5t72.5 -15.5q55 0 87 28t48.5 70t21 90.5t4.5 90.5zM873 414q0 -77 -16 -154t-52.5 -138.5t-97.5 -100.5t-151 -39q-63 0 -108 21t-80 74h-3v-385h-195
v1392h194v-355h3q38 56 82 80t112 24q89 0 149 -37t96 -96.5t51.5 -134.5t15.5 -151z" />
    <glyph glyph-name="ydieresis" unicode="&#xff;" horiz-adv-x="896" 
d="M545 -17q-27 -79 -53 -136t-59 -94t-78 -54.5t-110 -17.5q-26 0 -52.5 1.5t-61.5 6.5v163q13 -2 35 -2.5t45 -0.5q27 0 46 4t32.5 15t24 30.5t20.5 50.5l17 51l-281 817h208l173 -613h3l165 613h207zM391 1020q0 -21 -7.5 -40t-21.5 -33t-32 -22t-37 -8q-21 0 -39 8
t-32 22t-22 33t-8 40q0 19 8 37t22 31.5t32 21t39 7.5q19 0 37 -7.5t32 -21t21.5 -31.5t7.5 -37zM722 1020q0 -21 -7.5 -40t-21.5 -33t-32 -22t-37 -8q-21 0 -39 8t-31.5 22t-21.5 33t-8 40q0 19 8 37t21.5 31.5t31.5 21t39 7.5q19 0 37 -7.5t32 -21t21.5 -31.5t7.5 -37z
" />
    <glyph glyph-name="Amacron" unicode="&#x100;" horiz-adv-x="1066" 
d="M532 814h-7l-126 -427h259zM770 0l-70 221h-341l-70 -221h-209l334 1003h231l341 -1003h-216zM315 1112v134h431v-134h-431z" />
    <glyph glyph-name="amacron" unicode="&#x101;" horiz-adv-x="972" 
d="M604 409q-47 0 -97.5 -5.5t-92 -23.5t-68 -51t-26.5 -88q0 -53 26 -89.5t81 -36.5q48 0 92.5 20t84.5 53v221zM732 -13q-41 10 -69.5 31.5t-39.5 64.5h-5q-51 -48 -114.5 -74.5t-136.5 -26.5q-56 0 -100 18t-74.5 50.5t-46.5 78t-16 101.5q0 63 21 109.5t57 79.5t83 54
t100 33.5t107.5 17t105.5 4.5v31q0 31 -5 55t-18 39.5t-35 23.5t-56 8q-75 0 -143 -21.5t-131 -56.5l-54 141q84 43 165 64t174 21q84 0 141 -19t91.5 -56.5t49 -95t14.5 -133.5v-327q0 -23 2.5 -39t9 -28t17 -21.5t26.5 -19.5zM276 947v134h431v-134h-431z" />
    <glyph glyph-name="Abreve" unicode="&#x102;" horiz-adv-x="1066" 
d="M532 814h-7l-126 -427h259zM770 0l-70 221h-341l-70 -221h-209l334 1003h231l341 -1003h-216zM760 1284q-2 -65 -27.5 -102t-61 -58t-74 -28.5t-68.5 -7.5q-33 0 -72.5 7t-74 28t-58 58t-26.5 103h121q1 -15 7 -32t18.5 -29t32.5 -19t51 -7q29 0 49 7t32.5 18t19 28.5
t8.5 33.5h123v0z" />
    <glyph glyph-name="abreve" unicode="&#x103;" horiz-adv-x="972" 
d="M604 409q-47 0 -97.5 -5.5t-92 -23.5t-68 -51t-26.5 -88q0 -53 26 -89.5t81 -36.5q48 0 92.5 20t84.5 53v221zM732 -13q-41 10 -69.5 31.5t-39.5 64.5h-5q-51 -48 -114.5 -74.5t-136.5 -26.5q-56 0 -100 18t-74.5 50.5t-46.5 78t-16 101.5q0 63 21 109.5t57 79.5t83 54
t100 33.5t107.5 17t105.5 4.5v31q0 31 -5 55t-18 39.5t-35 23.5t-56 8q-75 0 -143 -21.5t-131 -56.5l-54 141q84 43 165 64t174 21q84 0 141 -19t91.5 -56.5t49 -95t14.5 -133.5v-327q0 -23 2.5 -39t9 -28t17 -21.5t26.5 -19.5zM720 1119q-2 -65 -27.5 -102t-61 -58
t-74 -28.5t-68.5 -7.5q-33 0 -72.5 7t-74 28t-58 58t-26.5 103h121q1 -15 7 -32t18.5 -29t32.5 -19t51 -7q29 0 49 7t32.5 18t19 28.5t8.5 33.5h123v0z" />
    <glyph glyph-name="Aogonek" unicode="&#x104;" horiz-adv-x="1066" 
d="M532 814h-7l-126 -427h259zM967 -300q-24 -17 -61 -33t-85 -16q-44 0 -75.5 13.5t-51.5 36t-29.5 52.5t-9.5 63q0 35 13.5 66.5t32.5 56t38 40.5t31 21l-70 221h-341l-70 -221h-209l334 1003h231l341 -1003h-89q-20 -16 -40 -33t-35.5 -37t-25 -43t-9.5 -51q0 -31 17 -47
t40 -16t39.5 7t35.5 20l48 -100v0z" />
    <glyph glyph-name="aogonek" unicode="&#x105;" horiz-adv-x="972" 
d="M604 409q-47 0 -97.5 -5.5t-92 -23.5t-68 -51t-26.5 -88q0 -53 26 -89.5t81 -36.5q48 0 92.5 20t84.5 53v221zM818 -300q-24 -17 -61 -33t-85 -16q-44 0 -75.5 13.5t-51.5 36t-29.5 52.5t-9.5 63q0 35 15.5 67t39 58.5t51.5 45t53 27.5q-13 12 -25 30.5t-17 38.5h-5
q-51 -48 -114.5 -74.5t-136.5 -26.5q-56 0 -100 18t-74.5 50.5t-46.5 78t-16 101.5q0 63 21 109.5t57 79.5t83 54t100 33.5t107.5 17t105.5 4.5v31q0 31 -5 55t-18 39.5t-35 23.5t-56 8q-75 0 -143 -21.5t-131 -56.5l-54 141q84 43 165 64t174 21q84 0 141 -19t91.5 -56.5
t49 -95t14.5 -133.5v-327q0 -23 2.5 -39t9 -28t17 -21.5t26.5 -19.5q-64 -50 -105.5 -87.5t-65.5 -67t-33.5 -54t-9.5 -49.5q0 -31 17 -47t40 -16t40 7t34 20l49 -100v0z" />
    <glyph glyph-name="Cacute" unicode="&#x106;" horiz-adv-x="989" 
d="M909 134q-70 -73 -154.5 -112t-184.5 -39q-117 0 -200.5 39.5t-136.5 109t-78 165t-25 207.5q0 106 26.5 199t81.5 162.5t138 110t196 40.5q100 0 179 -38t153 -116l-120 -135q-47 57 -96 88.5t-115 31.5q-60 0 -104.5 -24t-73.5 -69t-43 -109t-14 -143q0 -67 11.5 -130
t39.5 -112t73 -79t113 -30t121.5 31t107.5 89l105 -137v0zM569 1097l-110 60l195 171l160 -82z" />
    <glyph glyph-name="cacute" unicode="&#x107;" horiz-adv-x="865" 
d="M702 601q-41 39 -82 58.5t-99 19.5q-57 0 -93.5 -24t-58.5 -62.5t-30.5 -86t-8.5 -95.5q0 -50 9 -99t31 -88t59 -63t93 -24q58 0 106 19.5t95 54.5l62 -138q-66 -45 -133 -68t-147 -23q-97 0 -167.5 32.5t-116.5 89.5t-68.5 134.5t-22.5 167.5q0 91 23.5 169t71.5 135.5
t120 90t169 32.5q74 0 141 -24.5t128 -69.5zM499 917l-110 60l195 171l160 -82z" />
    <glyph glyph-name="Ccaron" unicode="&#x10c;" horiz-adv-x="989" 
d="M909 134q-70 -73 -154.5 -112t-184.5 -39q-117 0 -200.5 39.5t-136.5 109t-78 165t-25 207.5q0 106 26.5 199t81.5 162.5t138 110t196 40.5q100 0 179 -38t153 -116l-120 -135q-47 57 -96 88.5t-115 31.5q-60 0 -104.5 -24t-73.5 -69t-43 -109t-14 -143q0 -67 11.5 -130
t39.5 -112t73 -79t113 -30t121.5 31t107.5 89l105 -137v0zM396 1329l174 -92l174 92l61 -106l-233 -130l-237 130z" />
    <glyph glyph-name="ccaron" unicode="&#x10d;" horiz-adv-x="865" 
d="M702 601q-41 39 -82 58.5t-99 19.5q-57 0 -93.5 -24t-58.5 -62.5t-30.5 -86t-8.5 -95.5q0 -50 9 -99t31 -88t59 -63t93 -24q58 0 106 19.5t95 54.5l62 -138q-66 -45 -133 -68t-147 -23q-97 0 -167.5 32.5t-116.5 89.5t-68.5 134.5t-22.5 167.5q0 91 23.5 169t71.5 135.5
t120 90t169 32.5q74 0 141 -24.5t128 -69.5zM325 1149l174 -92l174 92l61 -106l-233 -130l-237 130z" />
    <glyph glyph-name="Dcaron" unicode="&#x10e;" horiz-adv-x="1087" 
d="M749 509q0 65 -9.5 127t-36.5 110t-75.5 77.5t-125.5 29.5q-30 0 -61.5 -1.5t-60.5 -4.5v-686q29 -1 49 -1h46q69 0 120 19t85.5 60.5t51.5 108t17 161.5zM957 505q0 -121 -29.5 -215t-88 -158.5t-146.5 -98t-205 -33.5h-308v994q34 3 73.5 6.5t80.5 5.5t82 3.5t78 1.5
q110 0 196 -32.5t145.5 -96.5t90.5 -158.5t31 -218.5zM326 1329l174 -92l174 92l61 -106l-233 -130l-237 130z" />
    <glyph glyph-name="dcaron" unicode="&#x10f;" 
d="M641 520q0 81 -39 120.5t-111 39.5q-54 0 -86 -22t-48.5 -59.5t-21.5 -86.5t-5 -103q0 -51 6 -100.5t23 -89.5t49 -64.5t83 -24.5q43 0 72 15.5t46 41.5t24.5 61t7.5 74v198zM666 0l-11 97h-5q-72 -115 -206 -115q-87 0 -146.5 37.5t-97 98.5t-54 138t-16.5 156
q0 86 17.5 162.5t55.5 134t97.5 91t143.5 33.5q59 0 109.5 -21.5t84.5 -72.5h1v346h195v-1085h-168zM1065 830h-109l43 255h174z" />
    <glyph glyph-name="Dcroat" unicode="&#x110;" horiz-adv-x="1087" 
d="M380 432v-271q29 -1 49 -1h46q69 0 120 19t85.5 60.5t51.5 108t17 161.5q0 65 -9.5 127t-36.5 110t-75.5 77.5t-125.5 29.5q-30 0 -61.5 -1.5t-60.5 -4.5v-246h184v-169h-184zM957 505q0 -121 -29.5 -215t-88 -158.5t-146.5 -98t-205 -33.5h-308v432h-96v169h96v393
q34 3 73.5 6.5t80.5 5.5t82 3.5t78 1.5q110 0 196 -32.5t145.5 -96.5t90.5 -158.5t31 -218.5z" />
    <glyph glyph-name="dcroat" unicode="&#x111;" 
d="M641 520q0 81 -39 120.5t-111 39.5q-54 0 -86 -22t-48.5 -59.5t-21.5 -86.5t-5 -103q0 -51 6 -100.5t23 -89.5t49 -64.5t83 -24.5q43 0 72 15.5t46 41.5t24.5 61t7.5 74v198zM666 0l-11 97h-5q-72 -115 -206 -115q-87 0 -146.5 37.5t-97 98.5t-54 138t-16.5 156
q0 86 17.5 162.5t55.5 134t97.5 91t143.5 33.5q59 0 109.5 -21.5t84.5 -72.5h1v138h-90v112h90v96h196v-96h104v-112h-104v-877h-169z" />
    <glyph glyph-name="Emacron" unicode="&#x112;" horiz-adv-x="907" 
d="M180 0v1000h593v-168h-393v-231h356v-169h-356v-267h407v-165h-607zM257 1112v134h431v-134h-431z" />
    <glyph glyph-name="emacron" unicode="&#x113;" horiz-adv-x="978" 
d="M665 472q0 44 -7.5 83t-26 68t-49 46t-76.5 17q-82 0 -130 -55.5t-48 -158.5h337v0zM848 409q0 -14 -0.5 -29t-2.5 -35h-515q1 -103 48.5 -157t145.5 -54q30 0 57 4t53 12.5t53 21.5t56 32l60 -140q-70 -44 -139.5 -63t-148.5 -19q-93 0 -164.5 30t-120.5 85.5t-74.5 134
t-25.5 176.5q0 107 29 186.5t79 132.5t118.5 79.5t148.5 26.5q85 0 149 -28.5t107 -83t65 -133.5t22 -179zM293 947v134h431v-134h-431z" />
    <glyph glyph-name="Ebreve" unicode="&#x114;" horiz-adv-x="907" 
d="M180 0v1000h593v-168h-393v-231h356v-169h-356v-267h407v-165h-607zM732 1284q-2 -65 -27.5 -102t-61 -58t-74 -28.5t-68.5 -7.5q-33 0 -72.5 7t-74 28t-58 58t-26.5 103h121q1 -15 7 -32t18.5 -29t32.5 -19t51 -7q29 0 49 7t32.5 18t19 28.5t8.5 33.5h123v0z" />
    <glyph glyph-name="ebreve" unicode="&#x115;" horiz-adv-x="978" 
d="M665 472q0 44 -7.5 83t-26 68t-49 46t-76.5 17q-82 0 -130 -55.5t-48 -158.5h337v0zM848 409q0 -14 -0.5 -29t-2.5 -35h-515q1 -103 48.5 -157t145.5 -54q30 0 57 4t53 12.5t53 21.5t56 32l60 -140q-70 -44 -139.5 -63t-148.5 -19q-93 0 -164.5 30t-120.5 85.5t-74.5 134
t-25.5 176.5q0 107 29 186.5t79 132.5t118.5 79.5t148.5 26.5q85 0 149 -28.5t107 -83t65 -133.5t22 -179zM746 1123q-2 -65 -27.5 -102t-61 -58t-74 -28.5t-68.5 -7.5q-33 0 -72.5 7t-74 28t-58 58t-26.5 103h121q1 -15 7 -32t18.5 -29t32.5 -19t51 -7q29 0 49 7t32.5 18
t19 28.5t8.5 33.5h123v0z" />
    <glyph glyph-name="Edotaccent" unicode="&#x116;" horiz-adv-x="907" 
d="M180 0v1000h593v-168h-393v-231h356v-169h-356v-267h407v-165h-607zM595 1186q0 -48 -32 -76t-86 -28q-56 0 -88 28t-32 76t32 75.5t88 27.5q55 0 86.5 -27.5t31.5 -75.5z" />
    <glyph glyph-name="edotaccent" unicode="&#x117;" horiz-adv-x="978" 
d="M665 472q0 44 -7.5 83t-26 68t-49 46t-76.5 17q-82 0 -130 -55.5t-48 -158.5h337v0zM848 409q0 -14 -0.5 -29t-2.5 -35h-515q1 -103 48.5 -157t145.5 -54q30 0 57 4t53 12.5t53 21.5t56 32l60 -140q-70 -44 -139.5 -63t-148.5 -19q-93 0 -164.5 30t-120.5 85.5t-74.5 134
t-25.5 176.5q0 107 29 186.5t79 132.5t118.5 79.5t148.5 26.5q85 0 149 -28.5t107 -83t65 -133.5t22 -179zM624 1021q0 -48 -32 -76t-86 -28q-56 0 -88 28t-32 76t32 75.5t88 27.5q55 0 86.5 -27.5t31.5 -75.5z" />
    <glyph glyph-name="Eogonek" unicode="&#x118;" horiz-adv-x="907" 
d="M769 -300q-23 -17 -60.5 -33t-84.5 -16q-44 0 -75.5 13.5t-51.5 36t-29.5 52.5t-9.5 63q0 39 12 70t29 54.5t35 38.5t30 21h-384v1000h593v-168h-393v-231h356v-169h-356v-267h407v-165h-87q-21 -16 -40.5 -33t-35.5 -37t-25.5 -43t-9.5 -51q0 -31 17 -47t40 -16t40.5 7
t35.5 20l47 -100v0z" />
    <glyph glyph-name="eogonek" unicode="&#x119;" horiz-adv-x="978" 
d="M665 472q0 44 -7.5 83t-26 68t-49 46t-76.5 17q-82 0 -130 -55.5t-48 -158.5h337v0zM800 -274q-23 -17 -60 -33.5t-85 -16.5q-44 0 -75.5 13.5t-52 36t-30 53t-9.5 63.5q0 43 19 79t42 62q-8 -1 -17 -1h-17q-93 0 -164.5 30t-120.5 85.5t-74.5 134t-25.5 176.5
q0 107 29 186.5t79 132.5t118.5 79.5t148.5 26.5q85 0 149 -28.5t107 -83t65 -133.5t22 -179q0 -14 -0.5 -29t-2.5 -35h-515q1 -103 48.5 -157t145.5 -54q30 0 57 4t53 12.5t53 21.5t56 32l60 -140q-20 -11 -38 -20.5t-36 -17.5q-20 -16 -39.5 -33.5t-35 -37t-25 -42.5
t-9.5 -51q0 -32 16.5 -47.5t39.5 -15.5t40.5 7t35.5 20l48 -100v0z" />
    <glyph glyph-name="Ecaron" unicode="&#x11a;" horiz-adv-x="907" 
d="M180 0v1000h593v-168h-393v-231h356v-169h-356v-267h407v-165h-607zM297 1314l174 -92l174 92l61 -106l-233 -130l-237 130z" />
    <glyph glyph-name="ecaron" unicode="&#x11b;" horiz-adv-x="978" 
d="M665 472q0 44 -7.5 83t-26 68t-49 46t-76.5 17q-82 0 -130 -55.5t-48 -158.5h337v0zM848 409q0 -14 -0.5 -29t-2.5 -35h-515q1 -103 48.5 -157t145.5 -54q30 0 57 4t53 12.5t53 21.5t56 32l60 -140q-70 -44 -139.5 -63t-148.5 -19q-93 0 -164.5 30t-120.5 85.5t-74.5 134
t-25.5 176.5q0 107 29 186.5t79 132.5t118.5 79.5t148.5 26.5q85 0 149 -28.5t107 -83t65 -133.5t22 -179zM329 1149l174 -92l174 92l61 -106l-233 -130l-237 130z" />
    <glyph glyph-name="Gbreve" unicode="&#x11e;" horiz-adv-x="1085" 
d="M955 447q0 -101 -19.5 -186.5t-65 -147t-120 -96t-183.5 -34.5q-105 0 -186.5 38t-137 106.5t-84.5 163t-29 207.5q0 114 29.5 209t86 164t139 107t187.5 38q56 0 102.5 -11.5t86 -30.5t72.5 -44t63 -53l-116 -137q-48 51 -95.5 79t-109.5 28q-69 0 -114.5 -29.5t-73 -78
t-38.5 -111.5t-11 -129t9.5 -130.5t35.5 -115.5t71.5 -82t117.5 -31q55 0 92.5 18.5t59.5 52t31.5 79.5t9.5 101h-193v164h383v-108v0zM803 1299q-2 -65 -27.5 -102t-61 -58t-74 -28.5t-68.5 -7.5q-33 0 -72.5 7t-74 28t-58 58t-26.5 103h121q1 -15 7 -32t18.5 -29t32.5 -19
t51 -7q29 0 49 7t32.5 18t19 28.5t8.5 33.5h123v0z" />
    <glyph glyph-name="gbreve" unicode="&#x11f;" horiz-adv-x="1007" 
d="M642 512q0 76 -37.5 122t-115.5 46q-50 0 -81.5 -21t-48.5 -56.5t-23 -82.5t-6 -98q0 -43 6 -87.5t23 -81t48 -59.5t82 -23q47 0 76.5 18t46.5 47.5t23.5 67t6.5 75.5v133zM837 10q0 -84 -17.5 -146t-57 -102.5t-103 -60.5t-156.5 -20q-88 0 -168.5 20t-153.5 58l57 154
q64 -36 125.5 -55t136.5 -19q39 0 66.5 7t44 23.5t24 45t7.5 72.5v134h-3q-38 -53 -85.5 -75.5t-112.5 -22.5q-80 0 -139 28.5t-97 80.5t-56.5 125t-18.5 161q0 80 15.5 155t52.5 132.5t97 92.5t149 35q67 0 118.5 -23.5t87.5 -82.5h3l12 90h172v-807v0zM746 1119
q-2 -65 -27.5 -102t-61 -58t-74 -28.5t-68.5 -7.5q-33 0 -72.5 7t-74 28t-58 58t-26.5 103h121q1 -15 7 -32t18.5 -29t32.5 -19t51 -7q29 0 49 7t32.5 18t19 28.5t8.5 33.5h123v0z" />
    <glyph glyph-name="Gcommaaccent" unicode="&#x122;" horiz-adv-x="1085" 
d="M955 447q0 -101 -19.5 -186.5t-65 -147t-120 -96t-183.5 -34.5q-105 0 -186.5 38t-137 106.5t-84.5 163t-29 207.5q0 114 29.5 209t86 164t139 107t187.5 38q56 0 102.5 -11.5t86 -30.5t72.5 -44t63 -53l-116 -137q-48 51 -95.5 79t-109.5 28q-69 0 -114.5 -29.5t-73 -78
t-38.5 -111.5t-11 -129t9.5 -130.5t35.5 -115.5t71.5 -82t117.5 -31q55 0 92.5 18.5t59.5 52t31.5 79.5t9.5 101h-193v164h383v-108v0zM559 -349h-116l41 252h186z" />
    <glyph glyph-name="gcommaaccent" unicode="&#x123;" horiz-adv-x="1007" 
d="M642 512q0 76 -37.5 122t-115.5 46q-50 0 -81.5 -21t-48.5 -56.5t-23 -82.5t-6 -98q0 -43 6 -87.5t23 -81t48 -59.5t82 -23q47 0 76.5 18t46.5 47.5t23.5 67t6.5 75.5v133zM837 10q0 -84 -17.5 -146t-57 -102.5t-103 -60.5t-156.5 -20q-88 0 -168.5 20t-153.5 58l57 154
q64 -36 125.5 -55t136.5 -19q39 0 66.5 7t44 23.5t24 45t7.5 72.5v134h-3q-38 -53 -85.5 -75.5t-112.5 -22.5q-80 0 -139 28.5t-97 80.5t-56.5 125t-18.5 161q0 80 15.5 155t52.5 132.5t97 92.5t149 35q67 0 118.5 -23.5t87.5 -82.5h3l12 90h172v-807v0zM531.386 1155.78
h121.045l-36.9863 -217.005h-195.017z" />
    <glyph glyph-name="Imacron" unicode="&#x12a;" horiz-adv-x="560" 
d="M180 0v1000h200v-1000h-200zM64 1112v134h431v-134h-431z" />
    <glyph glyph-name="imacron" unicode="&#x12b;" horiz-adv-x="538" 
d="M173 0v817h195v-817h-195zM56 947v134h431v-134h-431z" />
    <glyph glyph-name="Ibreve" unicode="&#x12c;" horiz-adv-x="560" 
d="M180 0v1000h200v-1000h-200zM530 1284q-2 -65 -27.5 -102t-61 -58t-74 -28.5t-68.5 -7.5q-33 0 -72.5 7t-74 28t-58 58t-26.5 103h121q1 -15 7 -32t18.5 -29t32.5 -19t51 -7q29 0 49 7t32.5 18t19 28.5t8.5 33.5h123v0z" />
    <glyph glyph-name="ibreve" unicode="&#x12d;" horiz-adv-x="538" 
d="M173 0v817h195v-817h-195zM498 1119q-2 -65 -27.5 -102t-61 -58t-74 -28.5t-68.5 -7.5q-33 0 -72.5 7t-74 28t-58 58t-26.5 103h121q1 -15 7 -32t18.5 -29t32.5 -19t51 -7q29 0 49 7t32.5 18t19 28.5t8.5 33.5h123v0z" />
    <glyph glyph-name="Iogonek" unicode="&#x12e;" horiz-adv-x="560" 
d="M450 -300q-24 -17 -60.5 -33t-84.5 -16q-44 0 -75.5 13.5t-52 36t-30 52.5t-9.5 63q0 35 14 66.5t32.5 56t38 40.5t31.5 21h-74v1000h200v-1000q-21 -16 -40.5 -33t-35 -37t-25 -43t-9.5 -51q0 -31 17 -47t40 -16t40 7t35 20l48 -100v0z" />
    <glyph glyph-name="iogonek" unicode="&#x12f;" horiz-adv-x="538" 
d="M388 1021q0 -48 -32 -76t-86 -28q-55 0 -87.5 28t-32.5 76t32.5 75.5t87.5 27.5q56 0 87 -27.5t31 -75.5zM437 -300q-24 -17 -61 -33t-85 -16q-44 0 -75.5 13.5t-52 36t-30 52.5t-9.5 63q0 35 14 66.5t32.5 56t38 40.5t31.5 21h-67v817h195v-817q-21 -16 -41 -33
t-35.5 -37t-25 -43t-9.5 -51q0 -31 17 -47t40 -16t40 7t34 20l49 -100v0z" />
    <glyph glyph-name="Idotaccent" unicode="&#x130;" horiz-adv-x="560" 
d="M180 0v1000h200v-1000h-200zM398 1186q0 -48 -32 -76t-86 -28q-56 0 -88 28t-32 76t32 75.5t88 27.5q55 0 86.5 -27.5t31.5 -75.5z" />
    <glyph glyph-name="dotlessi" unicode="&#x131;" horiz-adv-x="538" 
d="M173 0v817h195v-817h-195z" />
    <glyph glyph-name="Kcommaaccent" unicode="&#x136;" horiz-adv-x="1010" 
d="M696 0l-245 419l-73 -91l2 -328h-200v1000h200l-2 -428h7l283 428h241l-314 -441l345 -559h-244zM511 -349h-116l41 252h186z" />
    <glyph glyph-name="kcommaaccent" unicode="&#x137;" horiz-adv-x="926" 
d="M633 0l-185 352l-84 -102v-250h-194v1085h195v-610h4l244 342h229l-256 -339l270 -478h-223zM477 -349h-116l41 252h186z" />
    <glyph glyph-name="Lacute" unicode="&#x139;" horiz-adv-x="851" 
d="M180 0v1000h200v-832h361v-168h-561zM278 1097l-110 60l195 171l160 -82z" />
    <glyph glyph-name="lacute" unicode="&#x13a;" horiz-adv-x="575" 
d="M485 0q-26 -5 -62 -7.5t-71 -2.5q-51 0 -86 9.5t-56.5 31t-30.5 56.5t-9 86v912h195v-864q0 -23 3.5 -36.5t11.5 -20t21.5 -8.5t33.5 -2h50v-154v0zM278 1167l-110 60l195 171l160 -82z" />
    <glyph glyph-name="Lcommaaccent" unicode="&#x13b;" horiz-adv-x="851" 
d="M180 0v1000h200v-832h361v-168h-561zM441 -349h-116l41 252h186z" />
    <glyph glyph-name="lcommaaccent" unicode="&#x13c;" horiz-adv-x="575" 
d="M485 0q-26 -5 -62 -7.5t-71 -2.5q-51 0 -86 9.5t-56.5 31t-30.5 56.5t-9 86v912h195v-864q0 -23 3.5 -36.5t11.5 -20t21.5 -8.5t33.5 -2h50v-154v0zM328 -349h-116l41 252h186z" />
    <glyph glyph-name="Lcaron" unicode="&#x13d;" horiz-adv-x="851" 
d="M180 0v1000h200v-832h361v-168h-561zM703 830h-109l43 255h174z" />
    <glyph glyph-name="lcaron" unicode="&#x13e;" horiz-adv-x="575" 
d="M485 0q-26 -5 -62 -7.5t-71 -2.5q-51 0 -86 9.5t-56.5 31t-30.5 56.5t-9 86v912h195v-864q0 -23 3.5 -36.5t11.5 -20t21.5 -8.5t33.5 -2h50v-154v0zM585 830h-109l43 255h174z" />
    <glyph glyph-name="Lslash" unicode="&#x141;" horiz-adv-x="851" 
d="M380 475v-307h361v-168h-561v342l-96 -71v188l96 70v471h200v-338l208 155v-188z" />
    <glyph glyph-name="lslash" unicode="&#x142;" horiz-adv-x="575" 
d="M81 519l89 69v497h195v-367l126 99v-189l-126 -97v-310q0 -23 3.5 -36.5t11.5 -20t21.5 -8.5t33.5 -2h50v-154q-26 -5 -62 -7.5t-71 -2.5q-51 0 -86 9.5t-56.5 31t-30.5 56.5t-9 86v231l-89 -70v185z" />
    <glyph glyph-name="Nacute" unicode="&#x143;" horiz-adv-x="1155" 
d="M798 0l-423 643h-3l2 -643h-194v1000h192l408 -626h3v626h192v-1000h-177zM580 1082l-110 60l195 171l160 -82z" />
    <glyph glyph-name="nacute" unicode="&#x144;" horiz-adv-x="1013" 
d="M648 0v462q0 44 -2.5 82t-15.5 65.5t-39 43.5t-73 16q-83 0 -118 -46t-35 -131v-492h-195v817h171l13 -88h3q38 59 94.5 81.5t126.5 22.5q79 0 130.5 -25t81.5 -71t41.5 -111t11.5 -144v-482h-195zM532 917l-110 60l195 171l160 -82z" />
    <glyph glyph-name="Ncommaaccent" unicode="&#x145;" horiz-adv-x="1155" 
d="M798 0l-423 643h-3l2 -643h-194v1000h192l408 -626h3v626h192v-1000h-177zM572 -349h-116l41 252h186z" />
    <glyph glyph-name="ncommaaccent" unicode="&#x146;" horiz-adv-x="1013" 
d="M648 0v462q0 44 -2.5 82t-15.5 65.5t-39 43.5t-73 16q-83 0 -118 -46t-35 -131v-492h-195v817h171l13 -88h3q38 59 94.5 81.5t126.5 22.5q79 0 130.5 -25t81.5 -71t41.5 -111t11.5 -144v-482h-195zM494 -349h-116l41 252h186z" />
    <glyph glyph-name="Ncaron" unicode="&#x147;" horiz-adv-x="1155" 
d="M798 0l-423 643h-3l2 -643h-194v1000h192l408 -626h3v626h192v-1000h-177zM401 1314l174 -92l174 92l61 -106l-233 -130l-237 130z" />
    <glyph glyph-name="ncaron" unicode="&#x148;" horiz-adv-x="1013" 
d="M648 0v462q0 44 -2.5 82t-15.5 65.5t-39 43.5t-73 16q-83 0 -118 -46t-35 -131v-492h-195v817h171l13 -88h3q38 59 94.5 81.5t126.5 22.5q79 0 130.5 -25t81.5 -71t41.5 -111t11.5 -144v-482h-195zM339 1149l174 -92l174 92l61 -106l-233 -130l-237 130z" />
    <glyph glyph-name="Omacron" unicode="&#x14c;" horiz-adv-x="1154" 
d="M816 501q0 77 -11 141.5t-38 111.5t-73.5 73t-117.5 26t-117 -26t-73 -73t-37.5 -111.5t-10.5 -141.5q0 -78 11 -143t38 -112t73.5 -73t117.5 -26q70 0 116 26.5t73 74t38 112t11 141.5zM1024 501q0 -121 -29.5 -217t-86.5 -163t-140 -102.5t-190 -35.5
q-108 0 -191.5 35.5t-140.5 102t-86.5 162.5t-29.5 218q0 120 29 215t86 162t140.5 102.5t192.5 35.5q108 0 191.5 -35.5t140 -102.5t85.5 -162t29 -215zM377 1127v134h431v-134h-431z" />
    <glyph glyph-name="omacron" unicode="&#x14d;" horiz-adv-x="1012" 
d="M682 408q0 55 -7 104t-26.5 85.5t-53.5 57.5t-89 21q-54 0 -88.5 -21t-54 -57.5t-26.5 -85.5t-7 -104q0 -61 7.5 -111.5t27.5 -86.5t54 -55.5t87 -19.5q52 0 86 19.5t54 55.5t28 86.5t8 111.5zM882 408q0 -95 -23 -173t-70 -134.5t-117.5 -87.5t-165.5 -31t-165.5 31
t-117.5 87t-70 134.5t-23 173.5q0 92 22 170t68 134.5t117 88.5t169 32q94 0 164.5 -30t117.5 -85.5t70.5 -134t23.5 -175.5zM300 947v134h431v-134h-431z" />
    <glyph glyph-name="Obreve" unicode="&#x14e;" horiz-adv-x="1154" 
d="M816 501q0 77 -11 141.5t-38 111.5t-73.5 73t-117.5 26t-117 -26t-73 -73t-37.5 -111.5t-10.5 -141.5q0 -78 11 -143t38 -112t73.5 -73t117.5 -26q70 0 116 26.5t73 74t38 112t11 141.5zM1024 501q0 -121 -29.5 -217t-86.5 -163t-140 -102.5t-190 -35.5
q-108 0 -191.5 35.5t-140.5 102t-86.5 162.5t-29.5 218q0 120 29 215t86 162t140.5 102.5t192.5 35.5q108 0 191.5 -35.5t140 -102.5t85.5 -162t29 -215zM831 1299q-2 -65 -27.5 -102t-61 -58t-74 -28.5t-68.5 -7.5q-33 0 -72.5 7t-74 28t-58 58t-26.5 103h121q1 -15 7 -32
t18.5 -29t32.5 -19t51 -7q29 0 49 7t32.5 18t19 28.5t8.5 33.5h123v0z" />
    <glyph glyph-name="obreve" unicode="&#x14f;" horiz-adv-x="1012" 
d="M682 408q0 55 -7 104t-26.5 85.5t-53.5 57.5t-89 21q-54 0 -88.5 -21t-54 -57.5t-26.5 -85.5t-7 -104q0 -61 7.5 -111.5t27.5 -86.5t54 -55.5t87 -19.5q52 0 86 19.5t54 55.5t28 86.5t8 111.5zM882 408q0 -95 -23 -173t-70 -134.5t-117.5 -87.5t-165.5 -31t-165.5 31
t-117.5 87t-70 134.5t-23 173.5q0 92 22 170t68 134.5t117 88.5t169 32q94 0 164.5 -30t117.5 -85.5t70.5 -134t23.5 -175.5zM756 1123q-2 -65 -27.5 -102t-61 -58t-74 -28.5t-68.5 -7.5q-33 0 -72.5 7t-74 28t-58 58t-26.5 103h121q1 -15 7 -32t18.5 -29t32.5 -19t51 -7
q29 0 49 7t32.5 18t19 28.5t8.5 33.5h123v0z" />
    <glyph glyph-name="Ohungarumlaut" unicode="&#x150;" horiz-adv-x="1154" 
d="M816 501q0 77 -11 141.5t-38 111.5t-73.5 73t-117.5 26t-117 -26t-73 -73t-37.5 -111.5t-10.5 -141.5q0 -78 11 -143t38 -112t73.5 -73t117.5 -26q70 0 116 26.5t73 74t38 112t11 141.5zM1024 501q0 -121 -29.5 -217t-86.5 -163t-140 -102.5t-190 -35.5
q-108 0 -191.5 35.5t-140.5 102t-86.5 162.5t-29.5 218q0 120 29 215t86 162t140.5 102.5t192.5 35.5q108 0 191.5 -35.5t140 -102.5t85.5 -162t29 -215zM804 1086l-110 60l195 171l160 -82zM419 1086l-110 60l195 171l160 -82z" />
    <glyph glyph-name="ohungarumlaut" unicode="&#x151;" horiz-adv-x="1012" 
d="M682 408q0 55 -7 104t-26.5 85.5t-53.5 57.5t-89 21q-54 0 -88.5 -21t-54 -57.5t-26.5 -85.5t-7 -104q0 -61 7.5 -111.5t27.5 -86.5t54 -55.5t87 -19.5q52 0 86 19.5t54 55.5t28 86.5t8 111.5zM882 408q0 -95 -23 -173t-70 -134.5t-117.5 -87.5t-165.5 -31t-165.5 31
t-117.5 87t-70 134.5t-23 173.5q0 92 22 170t68 134.5t117 88.5t169 32q94 0 164.5 -30t117.5 -85.5t70.5 -134t23.5 -175.5zM740 906l-110 60l195 171l160 -82zM355 906l-110 60l195 171l160 -82z" />
    <glyph glyph-name="OE" unicode="&#x152;" horiz-adv-x="1563" 
d="M830 501q0 76 -11.5 140.5t-40 111t-76 72.5t-119.5 26q-71 0 -118.5 -26.5t-76 -73t-41 -110.5t-12.5 -140q0 -77 12.5 -142t41.5 -112t76.5 -73t117.5 -26t117 26.5t76 74t41.5 112t12.5 140.5zM837 0v101q-18 -26 -45 -47.5t-60.5 -36.5t-72 -23t-77.5 -8
q-108 0 -192 35t-141.5 101.5t-88 162t-30.5 216.5q0 120 30 215t88 162t142 102.5t192 35.5q79 0 146.5 -30t108.5 -86v100h592v-167h-394v-231h357v-167h-357v-270h408v-165h-606z" />
    <glyph glyph-name="oe" unicode="&#x153;" horiz-adv-x="1530" 
d="M1400 409q0 -14 -0.5 -29t-2.5 -35h-515q1 -103 48.5 -157t145.5 -54q30 0 57 4t53 12.5t53 21.5t56 32l60 -140q-70 -44 -139.5 -63t-148.5 -19q-93 0 -164.5 30t-124.5 89q-36 -57 -106.5 -88t-165.5 -31t-165.5 31t-117.5 87t-70 134.5t-23 173.5q0 92 22 170
t68 134.5t117 88.5t169 32q94 0 164.5 -30t108.5 -89q61 66 129.5 92.5t148.5 26.5q85 0 149 -28.5t107 -83t65 -133.5t22 -179zM682 408v16q-1 46 -7 88q-7 49 -26.5 85.5t-53.5 57.5t-89 21q-54 0 -88.5 -21t-54 -57.5t-26.5 -85.5t-7 -104q0 -61 7.5 -111.5t27.5 -86.5
t54 -55.5t87 -19.5q52 0 86 19.5t54 55.5t28 86.5t8 111.5zM1217 472q0 44 -7.5 83t-26 68t-49 46t-76.5 17q-82 0 -130 -55.5t-48 -158.5h337z" />
    <glyph glyph-name="Racute" unicode="&#x154;" horiz-adv-x="1024" 
d="M682 697q0 85 -45.5 119.5t-131.5 34.5q-33 0 -62.5 -1t-61.5 -4v-301h144q75 0 116 33t41 119zM693 0l-121 346q-8 23 -17 32t-33 9h-142v-387h-200v994q81 8 160.5 12t160.5 4q76 0 145.5 -14.5t122 -49t83.5 -92.5t31 -145q0 -100 -39 -166.5t-121 -100.5v-1
q14 -5 23 -23.5t14 -33.5l144 -384h-211zM482 1097l-110 60l195 171l160 -82z" />
    <glyph glyph-name="racute" unicode="&#x155;" horiz-adv-x="708" 
d="M568 656q-47 0 -85 -7.5t-64 -26.5t-40 -52.5t-14 -85.5v-484h-195v817h174l13 -102h1q32 61 81 89.5t131 28.5h48v-177h-50zM379 917l-110 60l195 171l160 -82z" />
    <glyph glyph-name="Rcommaaccent" unicode="&#x156;" horiz-adv-x="1024" 
d="M682 697q0 85 -45.5 119.5t-131.5 34.5q-33 0 -62.5 -1t-61.5 -4v-301h144q75 0 116 33t41 119zM693 0l-121 346q-8 23 -17 32t-33 9h-142v-387h-200v994q81 8 160.5 12t160.5 4q76 0 145.5 -14.5t122 -49t83.5 -92.5t31 -145q0 -100 -39 -166.5t-121 -100.5v-1
q14 -5 23 -23.5t14 -33.5l144 -384h-211zM517 -349h-116l41 252h186z" />
    <glyph glyph-name="rcommaaccent" unicode="&#x157;" horiz-adv-x="708" 
d="M568 656q-47 0 -85 -7.5t-64 -26.5t-40 -52.5t-14 -85.5v-484h-195v817h174l13 -102h1q32 61 81 89.5t131 28.5h48v-177h-50zM247 -349h-116l41 252h186z" />
    <glyph glyph-name="Rcaron" unicode="&#x158;" horiz-adv-x="1024" 
d="M682 697q0 85 -45.5 119.5t-131.5 34.5q-33 0 -62.5 -1t-61.5 -4v-301h144q75 0 116 33t41 119zM693 0l-121 346q-8 23 -17 32t-33 9h-142v-387h-200v994q81 8 160.5 12t160.5 4q76 0 145.5 -14.5t122 -49t83.5 -92.5t31 -145q0 -100 -39 -166.5t-121 -100.5v-1
q14 -5 23 -23.5t14 -33.5l144 -384h-211zM310 1329l174 -92l174 92l61 -106l-233 -130l-237 130z" />
    <glyph glyph-name="rcaron" unicode="&#x159;" horiz-adv-x="708" 
d="M568 656q-47 0 -85 -7.5t-64 -26.5t-40 -52.5t-14 -85.5v-484h-195v817h174l13 -102h1q32 61 81 89.5t131 28.5h48v-177h-50zM199 1149l174 -92l174 92l61 -106l-233 -130l-237 130z" />
    <glyph glyph-name="Sacute" unicode="&#x15a;" horiz-adv-x="887" 
d="M787 291q0 -82 -27 -140t-73.5 -94.5t-110 -53.5t-136.5 -17q-103 0 -186 24.5t-164 77.5l76 159q61 -45 126 -74.5t140 -29.5q28 0 56.5 6t51 20.5t36.5 39t14 61.5q0 39 -20 66t-53 46.5t-75 35.5t-86 34t-86 40.5t-75 55t-53 78.5t-20 111q0 75 27.5 127.5t73.5 85.5
t104.5 48.5t120.5 15.5q85 0 158.5 -21.5t144.5 -62.5l-61 -158q-53 36 -106.5 58.5t-119.5 22.5q-29 0 -55.5 -5.5t-47 -18t-32.5 -33.5t-12 -51q0 -34 20 -57t53 -40.5t75.5 -32t86.5 -32t86.5 -40t75.5 -56.5t53 -81.5t20 -114.5zM457 1097l-110 60l195 171l160 -82z" />
    <glyph glyph-name="sacute" unicode="&#x15b;" horiz-adv-x="805" 
d="M705 235q0 -131 -81 -192t-225 -61q-86 0 -166.5 22.5t-152.5 67.5l66 145q27 -18 57 -34t62.5 -28t66 -19t67.5 -7q59 0 88.5 20.5t29.5 71.5q0 26 -12 44t-33 31.5t-48.5 23.5t-58.5 21q-44 15 -90 33t-83.5 46.5t-61.5 72t-24 108.5q0 56 21.5 99t61.5 72.5t96 45
t125 15.5q70 0 139 -14.5t132 -45.5l-47 -148q-46 28 -98.5 44t-108.5 16q-29 0 -53.5 -3.5t-42 -11.5t-27.5 -23t-10 -37q0 -24 15 -41t39.5 -30t57 -24t67.5 -23q42 -15 83.5 -33.5t74.5 -47.5t53.5 -71t20.5 -105zM425 917l-110 60l195 171l160 -82z" />
    <glyph glyph-name="Scedilla" unicode="&#x15e;" horiz-adv-x="887" 
d="M619 -207q0 -30 -9 -56.5t-29 -46t-52 -30.5t-78 -11t-79 11t-63 28l30 75q29 -17 49.5 -24t51.5 -7q35 0 51.5 13t16.5 45q0 12 -2.5 23.5t-10 20t-21 13.5t-34.5 5q-16 0 -29 -4t-25 -9l-41 24l58 124q-90 3 -165 28t-148 73l76 159q61 -45 126 -74.5t140 -29.5
q28 0 56.5 6t51 20.5t36.5 39t14 61.5q0 39 -20 66t-53 46.5t-75 35.5t-86 34t-86 40.5t-75 55t-53 78.5t-20 111q0 75 27.5 127.5t73.5 85.5t104.5 48.5t120.5 15.5q85 0 158.5 -21.5t144.5 -62.5l-61 -158q-53 36 -106.5 58.5t-119.5 22.5q-29 0 -55.5 -5.5t-47 -18
t-32.5 -33.5t-12 -51q0 -34 20 -57t53 -40.5t75.5 -32t86.5 -32t86.5 -40t75.5 -56.5t53 -81.5t20 -114.5q0 -77 -23 -132t-63.5 -92t-96.5 -56.5t-121 -23.5l-33 -71l1 -2q9 2 14 2.5t16 0.5q66 0 102 -31.5t36 -92.5z" />
    <glyph glyph-name="scedilla" unicode="&#x15f;" horiz-adv-x="805" 
d="M588 -207q0 -30 -9 -56.5t-29.5 -46t-52.5 -30.5t-77 -11q-46 0 -78.5 11t-63.5 28l29 75q30 -17 50.5 -24t52.5 -7q33 0 50 13t17 45q0 12 -2.5 23.5t-9.5 20t-20.5 13.5t-34.5 5q-17 0 -30.5 -4t-25.5 -9l-41 24l57 120q-78 4 -152 26t-138 63l66 145q27 -18 57 -34
t62.5 -28t66 -19t67.5 -7q59 0 88.5 20.5t29.5 71.5q0 26 -12 44t-33 31.5t-48.5 23.5t-58.5 21q-44 15 -90 33t-83.5 46.5t-61.5 72t-24 108.5q0 56 21.5 99t61.5 72.5t96 45t125 15.5q70 0 139 -14.5t132 -45.5l-47 -148q-46 28 -98.5 44t-108.5 16q-29 0 -53.5 -3.5
t-42 -11.5t-27.5 -23t-10 -37q0 -24 15 -41t39.5 -30t57 -24t67.5 -23q42 -15 83.5 -33.5t74.5 -47.5t53.5 -71t20.5 -105q0 -119 -67.5 -179t-187.5 -70l-31 -70l1 -2q9 2 14.5 2.5t15.5 0.5q66 0 102 -31.5t36 -92.5z" />
    <glyph glyph-name="Scaron" unicode="&#x160;" horiz-adv-x="892" 
d="M787 291q0 -82 -27 -140t-73.5 -94.5t-110 -53.5t-136.5 -17q-103 0 -186 24.5t-164 77.5l76 159q61 -45 126 -74.5t140 -29.5q28 0 56.5 6t51 20.5t36.5 39t14 61.5q0 39 -20 66t-53 46.5t-75 35.5t-86 34t-86 40.5t-75 55t-53 78.5t-20 111q0 75 27.5 127.5t73.5 85.5
t104.5 48.5t120.5 15.5q85 0 158.5 -21.5t144.5 -62.5l-61 -158q-53 36 -106.5 58.5t-119.5 22.5q-29 0 -55.5 -5.5t-47 -18t-32.5 -33.5t-12 -51q0 -34 20 -57t53 -40.5t75.5 -32t86.5 -32t86.5 -40t75.5 -56.5t53 -81.5t20 -114.5zM276 1329l174 -92l174 92l61 -106
l-233 -130l-237 130z" />
    <glyph glyph-name="scaron" unicode="&#x161;" horiz-adv-x="810" 
d="M705 235q0 -131 -81 -192t-225 -61q-86 0 -166.5 22.5t-152.5 67.5l66 145q27 -18 57 -34t62.5 -28t66 -19t67.5 -7q59 0 88.5 20.5t29.5 71.5q0 26 -12 44t-33 31.5t-48.5 23.5t-58.5 21q-44 15 -90 33t-83.5 46.5t-61.5 72t-24 108.5q0 56 21.5 99t61.5 72.5t96 45
t125 15.5q70 0 139 -14.5t132 -45.5l-47 -148q-46 28 -98.5 44t-108.5 16q-29 0 -53.5 -3.5t-42 -11.5t-27.5 -23t-10 -37q0 -24 15 -41t39.5 -30t57 -24t67.5 -23q42 -15 83.5 -33.5t74.5 -47.5t53.5 -71t20.5 -105zM243 1149l174 -92l174 92l61 -106l-233 -130l-237 130z
" />
    <glyph glyph-name="Tcommaaccent" unicode="&#x162;" horiz-adv-x="846" 
d="M522 830v-830h-200v830h-242v170h686v-170h-244zM399 -349h-116l41 252h186z" />
    <glyph glyph-name="tcommaaccent" unicode="&#x163;" horiz-adv-x="662" 
d="M552 -1q-66 -9 -124 -9q-73 0 -118.5 13.5t-71 43.5t-34.5 77.5t-8 115.5v405h-116v158h119v220h192v-220h161v-158h-161v-400q0 -29 3 -47.5t15 -29t35.5 -14t64.5 -3.5h43v-152v0zM397 -349h-116l41 252h186z" />
    <glyph glyph-name="Tcaron" unicode="&#x164;" horiz-adv-x="846" 
d="M522 830v-830h-200v830h-242v170h686v-170h-244zM240 1329l174 -92l174 92l61 -106l-233 -130l-237 130z" />
    <glyph glyph-name="tcaron" unicode="&#x165;" horiz-adv-x="662" 
d="M552 -1q-66 -9 -124 -9q-73 0 -118.5 13.5t-71 43.5t-34.5 77.5t-8 115.5v405h-116v158h119v220h192v-220h161v-158h-161v-400q0 -29 3 -47.5t15 -29t35.5 -14t64.5 -3.5h43v-152v0zM682 830h-109l43 255h174z" />
    <glyph glyph-name="Umacron" unicode="&#x16a;" horiz-adv-x="1110" 
d="M930 406q0 -101 -18.5 -179.5t-62.5 -132.5t-116 -82.5t-178 -28.5t-177.5 28.5t-115.5 82.5t-63 132.5t-19 179.5v594h200v-586q0 -56 5.5 -103.5t23.5 -82.5t52.5 -55t93.5 -20q58 0 93 20t53 55.5t23.5 83t5.5 102.5v586h200v-594v0zM340 1117v134h431v-134h-431z" />
    <glyph glyph-name="umacron" unicode="&#x16b;" 
d="M657 0l-11 87h-4q-35 -52 -88 -79.5t-130 -27.5q-65 0 -112.5 17t-79 55.5t-47 99.5t-15.5 148v517h195v-457q0 -47 3 -86.5t15.5 -68.5t38 -45t70.5 -16q43 0 71.5 12.5t45.5 36t23.5 57.5t6.5 78v489h195v-817h-177zM284 947v134h431v-134h-431z" />
    <glyph glyph-name="Ubreve" unicode="&#x16c;" horiz-adv-x="1110" 
d="M930 406q0 -101 -18.5 -179.5t-62.5 -132.5t-116 -82.5t-178 -28.5t-177.5 28.5t-115.5 82.5t-63 132.5t-19 179.5v594h200v-586q0 -56 5.5 -103.5t23.5 -82.5t52.5 -55t93.5 -20q58 0 93 20t53 55.5t23.5 83t5.5 102.5v586h200v-594v0zM796 1284q-2 -65 -27.5 -102
t-61 -58t-74 -28.5t-68.5 -7.5q-33 0 -72.5 7t-74 28t-58 58t-26.5 103h121q1 -15 7 -32t18.5 -29t32.5 -19t51 -7q29 0 49 7t32.5 18t19 28.5t8.5 33.5h123v0z" />
    <glyph glyph-name="ubreve" unicode="&#x16d;" 
d="M657 0l-11 87h-4q-35 -52 -88 -79.5t-130 -27.5q-65 0 -112.5 17t-79 55.5t-47 99.5t-15.5 148v517h195v-457q0 -47 3 -86.5t15.5 -68.5t38 -45t70.5 -16q43 0 71.5 12.5t45.5 36t23.5 57.5t6.5 78v489h195v-817h-177zM731 1119q-2 -65 -27.5 -102t-61 -58t-74 -28.5
t-68.5 -7.5q-33 0 -72.5 7t-74 28t-58 58t-26.5 103h121q1 -15 7 -32t18.5 -29t32.5 -19t51 -7q29 0 49 7t32.5 18t19 28.5t8.5 33.5h123v0z" />
    <glyph glyph-name="Uring" unicode="&#x16e;" horiz-adv-x="1110" 
d="M930 406q0 -101 -18.5 -179.5t-62.5 -132.5t-116 -82.5t-178 -28.5t-177.5 28.5t-115.5 82.5t-63 132.5t-19 179.5v594h200v-586q0 -56 5.5 -103.5t23.5 -82.5t52.5 -55t93.5 -20q58 0 93 20t53 55.5t23.5 83t5.5 102.5v586h200v-594v0zM628 1167q0 31 -20 51t-49 20
t-49 -20t-20 -51q0 -29 20 -48.5t49 -19.5t49 19.5t20 48.5zM701 1169q0 -30 -11 -56t-30 -45t-45 -30t-56 -11t-56 11t-45.5 30t-30.5 45t-11 56t11 55.5t30.5 45t45.5 30.5t56 11t56 -11t45 -30.5t30 -45t11 -55.5z" />
    <glyph glyph-name="uring" unicode="&#x16f;" 
d="M657 0l-11 87h-4q-35 -52 -88 -79.5t-130 -27.5q-65 0 -112.5 17t-79 55.5t-47 99.5t-15.5 148v517h195v-457q0 -47 3 -86.5t15.5 -68.5t38 -45t70.5 -16q43 0 71.5 12.5t45.5 36t23.5 57.5t6.5 78v489h195v-817h-177zM565 1014q0 31 -20 51t-49 20t-49 -20t-20 -51
q0 -29 20 -48.5t49 -19.5t49 19.5t20 48.5zM638 1016q0 -30 -11 -56t-30 -45t-45 -30t-56 -11t-56 11t-45.5 30t-30.5 45t-11 56t11 55.5t30.5 45t45.5 30.5t56 11t56 -11t45 -30.5t30 -45t11 -55.5z" />
    <glyph glyph-name="Uhungarumlaut" unicode="&#x170;" horiz-adv-x="1189" 
d="M930 406q0 -101 -18.5 -179.5t-62.5 -132.5t-116 -82.5t-178 -28.5t-177.5 28.5t-115.5 82.5t-63 132.5t-19 179.5v594h200v-586q0 -56 5.5 -103.5t23.5 -82.5t52.5 -55t93.5 -20q58 0 93 20t53 55.5t23.5 83t5.5 102.5v586h200v-594v0zM764 1086l-110 60l195 171
l160 -82zM379 1086l-110 60l195 171l160 -82z" />
    <glyph glyph-name="uhungarumlaut" unicode="&#x171;" 
d="M657 0l-11 87h-4q-35 -52 -88 -79.5t-130 -27.5q-65 0 -112.5 17t-79 55.5t-47 99.5t-15.5 148v517h195v-457q0 -47 3 -86.5t15.5 -68.5t38 -45t70.5 -16q43 0 71.5 12.5t45.5 36t23.5 57.5t6.5 78v489h195v-817h-177zM701 906l-110 60l195 171l160 -82zM316 906l-110 60
l195 171l160 -82z" />
    <glyph glyph-name="Uogonek" unicode="&#x172;" horiz-adv-x="1110" 
d="M826 -278q-23 -17 -60.5 -33.5t-84.5 -16.5q-44 0 -75.5 13t-51.5 35.5t-29.5 52.5t-9.5 63q0 46 21 84t46 63h-27q-106 0 -177.5 28.5t-115.5 82.5t-63 132.5t-19 179.5v594h200v-586q0 -56 5.5 -103.5t23.5 -82.5t52.5 -55t93.5 -20q58 0 93 20t53 55.5t23.5 83
t5.5 102.5v586h200v-594q0 -144 -40 -242t-135 -143q-20 -16 -39.5 -33t-35 -37t-25 -43t-9.5 -51q0 -31 17 -46.5t40 -15.5t40.5 6.5t35.5 20.5l47 -100v0z" />
    <glyph glyph-name="uogonek" unicode="&#x173;" horiz-adv-x="1025" 
d="M855 -300q-24 -17 -61 -33t-85 -16q-44 0 -75.5 13.5t-51.5 36t-29.5 52.5t-9.5 63q0 35 13.5 66.5t32.5 56t38.5 40.5t31.5 21h-2l-11 87h-4q-35 -52 -88 -79.5t-130 -27.5q-65 0 -112.5 17t-79 55.5t-47 99.5t-15.5 148v517h195v-457q0 -47 3 -86.5t15.5 -68.5t38 -45
t70.5 -16q43 0 71.5 12.5t45.5 36t23.5 57.5t6.5 78v489h195v-817h-48q-21 -16 -41 -33t-35.5 -37t-25 -43t-9.5 -51q0 -31 16.5 -47t40.5 -16q23 0 40 7t35 20l48 -100v0z" />
    <glyph glyph-name="Ydieresis" unicode="&#x178;" horiz-adv-x="944" 
d="M574 388v-388h-200v382l-324 618h223l203 -439l204 439h214zM408 1185q0 -21 -7.5 -40t-21.5 -33t-32 -22t-37 -8q-21 0 -39 8t-32 22t-22 33t-8 40q0 19 8 37t22 31.5t32 21t39 7.5q19 0 37 -7.5t32 -21t21.5 -31.5t7.5 -37zM739 1185q0 -21 -7.5 -40t-21.5 -33t-32 -22
t-37 -8q-21 0 -39 8t-31.5 22t-21.5 33t-8 40q0 19 8 37t21.5 31.5t31.5 21t39 7.5q19 0 37 -7.5t32 -21t21.5 -31.5t7.5 -37z" />
    <glyph glyph-name="Zacute" unicode="&#x179;" horiz-adv-x="898" 
d="M110 0v154l428 676h-407v170h645v-153l-433 -682h445v-165h-678zM462 1097l-110 60l195 171l160 -82z" />
    <glyph glyph-name="zacute" unicode="&#x17a;" horiz-adv-x="760" 
d="M90 0v140l347 518h-338v159h564v-150l-340 -509h347v-158h-580zM396 917l-110 60l195 171l160 -82z" />
    <glyph glyph-name="Zdotaccent" unicode="&#x17b;" horiz-adv-x="898" 
d="M110 0v154l428 676h-407v170h645v-153l-433 -682h445v-165h-678zM571 1186q0 -48 -32 -76t-86 -28q-56 0 -88 28t-32 76t32 75.5t88 27.5q55 0 86.5 -27.5t31.5 -75.5z" />
    <glyph glyph-name="zdotaccent" unicode="&#x17c;" horiz-adv-x="760" 
d="M90 0v140l347 518h-338v159h564v-150l-340 -509h347v-158h-580zM506 1021q0 -48 -32 -76t-86 -28q-56 0 -88 28t-32 76t32 75.5t88 27.5q55 0 86.5 -27.5t31.5 -75.5z" />
    <glyph glyph-name="Zcaron" unicode="&#x17d;" horiz-adv-x="898" 
d="M110 0v154l428 676h-407v170h645v-153l-433 -682h445v-165h-678zM284 1329l174 -92l174 92l61 -106l-233 -130l-237 130z" />
    <glyph glyph-name="zcaron" unicode="&#x17e;" horiz-adv-x="760" 
d="M90 0v140l347 518h-338v159h564v-150l-340 -509h347v-158h-580zM221 1149l174 -92l174 92l61 -106l-233 -130l-237 130z" />
    <glyph glyph-name="florin" unicode="&#x192;" horiz-adv-x="878" 
d="M782 906q-16 2 -28.5 3t-29.5 1q-29 0 -47.5 -4.5t-30.5 -14t-18 -24t-10 -34.5l-32 -158h144l-29 -158h-141l-109 -551q-13 -68 -34 -116.5t-54 -79.5t-80 -46t-111 -15q-25 0 -51 3t-51 10l28 143q18 -5 33 -6.5t35 -1.5q26 0 44 10.5t30 31t20 50t16 68.5l93 500h-109
l30 158h107l32 164q12 63 31.5 104t53.5 66t85 35t126 10q20 0 38.5 -1.5t44.5 -3.5z" />
    <glyph glyph-name="Scommaaccent" unicode="&#x218;" horiz-adv-x="887" 
d="M787 291q0 -82 -27 -140t-73.5 -94.5t-110 -53.5t-136.5 -17q-103 0 -186 24.5t-164 77.5l76 159q61 -45 126 -74.5t140 -29.5q28 0 56.5 6t51 20.5t36.5 39t14 61.5q0 39 -20 66t-53 46.5t-75 35.5t-86 34t-86 40.5t-75 55t-53 78.5t-20 111q0 75 27.5 127.5t73.5 85.5
t104.5 48.5t120.5 15.5q85 0 158.5 -21.5t144.5 -62.5l-61 -158q-53 36 -106.5 58.5t-119.5 22.5q-29 0 -55.5 -5.5t-47 -18t-32.5 -33.5t-12 -51q0 -34 20 -57t53 -40.5t75.5 -32t86.5 -32t86.5 -40t75.5 -56.5t53 -81.5t20 -114.5zM447 -349h-116l41 252h186z" />
    <glyph glyph-name="scommaaccent" unicode="&#x219;" horiz-adv-x="805" 
d="M705 235q0 -131 -81 -192t-225 -61q-86 0 -166.5 22.5t-152.5 67.5l66 145q27 -18 57 -34t62.5 -28t66 -19t67.5 -7q59 0 88.5 20.5t29.5 71.5q0 26 -12 44t-33 31.5t-48.5 23.5t-58.5 21q-44 15 -90 33t-83.5 46.5t-61.5 72t-24 108.5q0 56 21.5 99t61.5 72.5t96 45
t125 15.5q70 0 139 -14.5t132 -45.5l-47 -148q-46 28 -98.5 44t-108.5 16q-29 0 -53.5 -3.5t-42 -11.5t-27.5 -23t-10 -37q0 -24 15 -41t39.5 -30t57 -24t67.5 -23q42 -15 83.5 -33.5t74.5 -47.5t53.5 -71t20.5 -105zM395 -349h-116l41 252h186z" />
    <glyph glyph-name="circumflex" unicode="&#x2c6;" horiz-adv-x="575" 
d="M465 913l-174 92l-174 -92l-61 106l233 130l237 -130z" />
    <glyph glyph-name="caron" unicode="&#x2c7;" horiz-adv-x="575" 
d="M109 1149l174 -92l174 92l61 -106l-233 -130l-237 130z" />
    <glyph glyph-name="breve" unicode="&#x2d8;" horiz-adv-x="652" 
d="M580 1119q-2 -65 -27.5 -102t-61 -58t-74 -28.5t-68.5 -7.5q-33 0 -72.5 7t-74 28t-58 58t-26.5 103h121q1 -15 7 -32t18.5 -29t32.5 -19t51 -7q29 0 49 7t32.5 18t19 28.5t8.5 33.5h123v0z" />
    <glyph glyph-name="dotaccent" unicode="&#x2d9;" horiz-adv-x="388" 
d="M310 1021q0 -48 -32 -76t-86 -28q-56 0 -88 28t-32 76t32 75.5t88 27.5q55 0 86.5 -27.5t31.5 -75.5z" />
    <glyph glyph-name="ring" unicode="&#x2da;" horiz-adv-x="471" 
d="M300 1014q0 31 -20 51t-49 20t-49 -20t-20 -51q0 -29 20 -48.5t49 -19.5t49 19.5t20 48.5zM373 1016q0 -30 -11 -56t-30 -45t-45 -30t-56 -11t-56 11t-45.5 30t-30.5 45t-11 56t11 55.5t30.5 45t45.5 30.5t56 11t56 -11t45 -30.5t30 -45t11 -55.5z" />
    <glyph glyph-name="ogonek" unicode="&#x2db;" horiz-adv-x="517" 
d="M442 -300q-24 -17 -60.5 -33t-84.5 -16q-44 0 -75.5 13.5t-52 36t-30 52.5t-9.5 63q0 35 14 66.5t32.5 56t38 40.5t31.5 21h127q-21 -16 -41 -33t-35.5 -37t-25 -43t-9.5 -51q0 -31 17 -47t40 -16t40 7t35 20l48 -100v0z" />
    <glyph glyph-name="tilde" unicode="&#x2dc;" horiz-adv-x="598" 
d="M564 1043q-20 -56 -62 -85.5t-100 -29.5q-31 0 -57.5 9.5t-51 21t-47 21t-43.5 9.5q-27 0 -46 -14t-33 -50l-92 64q25 59 65 93t95 34q29 0 55.5 -9.5t52 -21.5t48.5 -19t44 -7q25 0 45.5 12t33.5 45z" />
    <glyph glyph-name="hungarumlaut" unicode="&#x2dd;" horiz-adv-x="859" 
d="M570 906l-110 60l195 171l160 -82zM185 906l-110 60l195 171l160 -82z" />
    <glyph glyph-name="endash" unicode="&#x2013;" horiz-adv-x="924" 
d="M140 431v158h644v-158h-644z" />
    <glyph glyph-name="emdash" unicode="&#x2014;" horiz-adv-x="1529" 
d="M120 361v156h1289v-156h-1289z" />
    <glyph glyph-name="quoteleft" unicode="&#x2018;" horiz-adv-x="490" 
d="M311 705h-211l141 344h129z" />
    <glyph glyph-name="quoteright" unicode="&#x2019;" horiz-adv-x="490" 
d="M250 705h-130l60 344h210z" />
    <glyph glyph-name="quotesinglbase" unicode="&#x201a;" horiz-adv-x="452" 
d="M250 -237h-130l60 344h210z" />
    <glyph glyph-name="quotedblleft" unicode="&#x201c;" horiz-adv-x="818" 
d="M310 705h-210l140 344h129zM640 705h-211l141 344h128z" />
    <glyph glyph-name="quotedblright" unicode="&#x201d;" horiz-adv-x="819" 
d="M250 705h-130l60 344h210zM578 705h-128l58 344h211z" />
    <glyph glyph-name="quotedblbase" unicode="&#x201e;" horiz-adv-x="758" 
d="M250 -237h-130l60 344h210zM578 -237h-128l58 344h210z" />
    <glyph glyph-name="dagger" unicode="&#x2020;" horiz-adv-x="678" 
d="M433 688v-404h-187v404h-116v154h116v196h187v-196h115v-154h-115z" />
    <glyph glyph-name="daggerdbl" unicode="&#x2021;" horiz-adv-x="678" 
d="M432 408v-174h-187v174h-114v154h114v153h-115v155h117v168h185v-168h116v-155h-116v-153h116v-154h-116z" />
    <glyph glyph-name="bullet" unicode="&#x2022;" horiz-adv-x="891" 
d="M691 493q0 -51 -19 -96t-52.5 -78t-78.5 -52.5t-96 -19.5t-96 19.5t-78 52.5t-52 78t-19 96t19 96t52 78t78 52.5t96 19.5t96 -19.5t78.5 -52.5t52.5 -78t19 -96z" />
    <glyph glyph-name="ellipsis" unicode="&#x2026;" horiz-adv-x="1237" 
d="M1127 86q0 -45 -31.5 -73t-81.5 -30q-48 0 -81 28t-34 73q0 45 33 71t81 28q48 0 81 -27t33 -70zM733 86q0 -45 -32.5 -73t-80.5 -30q-48 0 -81.5 28t-33.5 73t33 71t81 28q48 0 80.5 -27t33.5 -70zM337 86q0 -22 -8.5 -40.5t-23.5 -32t-35.5 -21.5t-44.5 -9
q-49 0 -81.5 28t-32.5 73q-1 45 32 71t81 28q48 0 80.5 -27t32.5 -70z" />
    <glyph glyph-name="perthousand" unicode="&#x2030;" horiz-adv-x="2262" 
d="M1377 271q0 35 -3.5 67t-14 56.5t-30 39t-50.5 14.5t-49.5 -14.5t-29 -39t-14 -56.5t-3.5 -67q0 -34 3.5 -65.5t14 -56t29.5 -39t49 -14.5q31 0 50 14.5t29.5 38.5t14.5 55.5t4 66.5zM1508 273q0 -65 -13.5 -118t-42 -90.5t-72 -58t-103.5 -20.5q-58 0 -100.5 21
t-70 59.5t-41 91t-13.5 115.5q0 65 14 118t42.5 90t72 57t101.5 20q57 0 99.5 -21t70.5 -58.5t42 -90t14 -115.5zM598 0h-144l582 1000h144zM464 730q0 35 -3.5 67t-13.5 56.5t-29 39t-49 14.5q-31 0 -50 -14.5t-29.5 -39t-14 -56.5t-3.5 -67t3.5 -67t14 -56.5t29.5 -39
t50 -14.5q30 0 49 14.5t29 39t13.5 56.5t3.5 67zM596 732q0 -65 -13.5 -118.5t-41.5 -91t-71.5 -58t-103.5 -20.5q-59 0 -101.5 21t-70.5 59t-41 91t-13 117q0 65 14 117.5t43 89.5t72 57t102 20q57 0 99.5 -21t70.5 -58.5t41.5 -89.5t13.5 -115zM1991 271q0 35 -3.5 67
t-14 56.5t-30 39t-50.5 14.5t-49.5 -14.5t-29 -39t-14 -56.5t-3.5 -67q0 -34 3.5 -65.5t14 -56t29.5 -39t49 -14.5q31 0 50 14.5t29.5 38.5t14.5 55.5t4 66.5zM2122 273q0 -65 -13.5 -118t-42 -90.5t-72 -58t-103.5 -20.5q-58 0 -100.5 21t-70 59.5t-41 91t-13.5 115.5
q0 65 14 118t42.5 90t72 57t101.5 20q57 0 99.5 -21t70.5 -58.5t42 -90t14 -115.5z" />
    <glyph glyph-name="guilsinglleft" unicode="&#x2039;" horiz-adv-x="545" 
d="M281 150l-171 301l171 301l134 -67l-134 -236l134 -233z" />
    <glyph glyph-name="guilsinglright" unicode="&#x203a;" horiz-adv-x="544" 
d="M265 150l-135 66l135 233l-135 236l135 67l169 -301z" />
    <glyph glyph-name="fraction" unicode="&#x2044;" horiz-adv-x="427" 
d="M-80 -58h-130l716 1162h131z" />
    <glyph glyph-name="fraction" unicode="&#x2215;" horiz-adv-x="427" 
d="M-80 -58h-130l716 1162h131z" />
    <glyph glyph-name="zerosuperior" unicode="&#x2070;" horiz-adv-x="712" 
d="M458 802q0 42 -4.5 78t-15.5 62t-30.5 41t-49.5 15q-32 0 -52 -15t-31.5 -41t-16 -62t-4.5 -78t4.5 -79t16 -64t31.5 -42.5t52 -15.5q30 0 49.5 15.5t30.5 42.5t15.5 64t4.5 79zM602 803q0 -149 -60 -232.5t-187 -83.5q-62 0 -107.5 23t-76.5 64.5t-46 99.5t-15 129
q0 146 63 228.5t188 82.5q59 0 104 -21.5t75.5 -62t46 -98t15.5 -129.5z" />
    <glyph glyph-name="foursuperior" unicode="&#x2074;" horiz-adv-x="641" 
d="M342 730v244l-146 -244h146zM472 496h-144v122h-230l-28 114l242 374h160v-370h79v-118h-79v-122z" />
    <glyph glyph-name="fivesuperior" unicode="&#x2075;" horiz-adv-x="602" 
d="M505 702q0 -100 -56 -157.5t-170 -57.5q-58 0 -104 16.5t-85 44.5l56 97q27 -20 57 -33t70 -13q90 0 90 100q0 48 -21 71.5t-66 23.5q-28 0 -50.5 -10.5t-40.5 -27.5l-83 63l47 285h318v-121h-218l-21 -117h1q17 13 39 20.5t57 7.5q39 0 72 -11t57 -34.5t37.5 -59.5
t13.5 -87z" />
    <glyph glyph-name="sixsuperior" unicode="&#x2076;" horiz-adv-x="669" 
d="M428 700q0 47 -18 74.5t-65 27.5q-45 0 -64.5 -27.5t-19.5 -74.5q0 -21 4.5 -40t14.5 -33.5t26 -23t39 -8.5q47 0 65 30.5t18 74.5zM569 702q0 -46 -16.5 -85.5t-46 -69t-71 -46t-91.5 -16.5q-60 0 -104.5 20.5t-73 58t-42.5 90.5t-14 118q0 73 15.5 135.5t47 108t80 71
t114.5 25.5q51 0 93 -12.5t75 -31.5l-46 -100q-23 16 -54.5 24.5t-69.5 8.5q-58 0 -86.5 -40.5t-30.5 -118.5h3q15 23 44.5 40.5t77.5 17.5q100 0 148 -52t48 -146z" />
    <glyph glyph-name="sevensuperior" unicode="&#x2077;" horiz-adv-x="555" 
d="M485 990q-41 -34 -72.5 -75t-53.5 -95t-33.5 -124t-11.5 -161v-39h-143v29q0 53 7 115t25 124.5t48.5 119.5t76.5 100h-258v122h402l13 -116v0z" />
    <glyph glyph-name="eightsuperior" unicode="&#x2078;" horiz-adv-x="673" 
d="M421 677q0 47 -20.5 67t-63.5 20q-86 0 -86 -87q0 -42 21.5 -64t64.5 -22q45 0 64.5 22t19.5 64zM408 936q0 33 -16 53.5t-55 20.5q-38 0 -56 -20.5t-18 -53.5q0 -77 74 -77q41 0 56 19.5t15 57.5zM563 669q0 -84 -56.5 -133t-168.5 -49q-113 0 -170.5 49t-57.5 133
q0 54 21.5 90.5t71.5 57.5v3q-42 23 -60.5 54t-18.5 77q0 41 16 71.5t44.5 51t67.5 30.5t85 10q45 0 84 -10t67.5 -30.5t44.5 -51t16 -71.5q0 -46 -18.5 -77t-60.5 -54v-3q49 -21 71 -56.5t22 -91.5z" />
    <glyph glyph-name="ninesuperior" unicode="&#x2079;" horiz-adv-x="666" 
d="M238 903q0 -45 18.5 -73t64.5 -28q44 0 64.5 28t20.5 73q0 42 -19.5 71.5t-65.5 29.5t-64.5 -29.5t-18.5 -71.5zM100 903q0 45 16.5 84t45.5 67t70 44t90 16q121 0 177.5 -75t56.5 -212q0 -78 -15 -141t-46 -107.5t-79 -68t-115 -23.5q-51 0 -94.5 12.5t-75.5 32.5l46 99
q23 -14 55 -23.5t72 -9.5q56 0 85 43t29 121h-3q-15 -23 -44 -39.5t-77 -16.5q-101 0 -147.5 51.5t-46.5 145.5z" />
    <glyph glyph-name="zeroinferior" unicode="&#x2080;" horiz-adv-x="711" 
d="M457 252q0 42 -4 78t-15.5 62t-31 41t-49.5 15q-32 0 -52 -15t-31.5 -41t-16 -62t-4.5 -78t4.5 -78.5t16 -64t31.5 -43t52 -15.5q30 0 49.5 15.5t30.5 43t15.5 64t4.5 78.5zM601 254q0 -151 -60 -234.5t-187 -83.5q-62 0 -107.5 23t-76 64.5t-45.5 100t-15 130.5
q0 146 62 227.5t187 81.5q60 0 105.5 -22t75.5 -62t45.5 -97.5t15.5 -127.5z" />
    <glyph glyph-name="oneinferior" unicode="&#x2081;" horiz-adv-x="508" 
d="M368 552v-610h-141v434l-99 -68l-58 100l190 144h108z" />
    <glyph glyph-name="twoinferior" unicode="&#x2082;" horiz-adv-x="606" 
d="M86 56q33 30 79 69t89 80.5t73 82.5t30 77q0 30 -17.5 51.5t-60.5 21.5q-69 0 -133 -63l-66 96q55 46 107.5 68t115.5 22q91 0 144.5 -46.5t53.5 -133.5q0 -37 -13.5 -73.5t-42.5 -75.5t-75.5 -81t-112.5 -91h249v-118h-399z" />
    <glyph glyph-name="threeinferior" unicode="&#x2083;" horiz-adv-x="614" 
d="M514 123q0 -85 -60.5 -136t-167.5 -51q-62 0 -111.5 16t-94.5 48l59 100q40 -32 73 -42t69 -10q41 0 67.5 18.5t26.5 59.5t-22 58t-73 17h-76v106h57q48 0 72 16.5t24 54.5q0 28 -18.5 47t-64.5 19q-31 0 -62.5 -11t-63.5 -38l-58 95q29 19 54 32t50 21.5t50 12t54 3.5
q45 0 81.5 -11t62.5 -32t40.5 -52t14.5 -72q0 -43 -17.5 -75t-49.5 -52q42 -16 63 -53.5t21 -88.5z" />
    <glyph glyph-name="fourinferior" unicode="&#x2084;" horiz-adv-x="641" 
d="M342 175v247l-146 -247h146zM472 -58h-144v121h-230l-28 114l242 375h160v-369h79v-120h-79v-121z" />
    <glyph glyph-name="fiveinferior" unicode="&#x2085;" horiz-adv-x="602" 
d="M505 150q0 -100 -56 -157t-170 -57q-58 0 -104 16.5t-85 43.5l56 97q27 -20 57 -33t70 -13q90 0 90 100q0 48 -21 72t-66 24q-28 0 -50.5 -10.5t-40.5 -28.5l-83 63l47 285h318v-120h-218l-21 -117l1 -1q17 13 39 21.5t57 8.5q39 0 72 -11t57 -34.5t37.5 -60.5t13.5 -88z
" />
    <glyph glyph-name="sixinferior" unicode="&#x2086;" horiz-adv-x="669" 
d="M428 150q0 47 -18 74.5t-65 27.5q-44 0 -64 -28t-20 -74q0 -21 4.5 -40t14.5 -33.5t26 -23t39 -8.5q24 0 39.5 8t25.5 22.5t14 33.5t4 41zM569 151q0 -46 -16 -85t-45.5 -68t-71 -45.5t-92.5 -16.5q-60 0 -104.5 20.5t-73 58t-42.5 90t-14 116.5q0 73 15.5 135.5
t47 108.5t80 71.5t114.5 25.5q51 0 93 -13t75 -30l-46 -100q-23 15 -54 23.5t-70 8.5q-115 0 -115 -157h1q15 23 45 40t77 17q100 0 148 -52.5t48 -147.5z" />
    <glyph glyph-name="seveninferior" unicode="&#x2087;" horiz-adv-x="555" 
d="M485 436q-41 -34 -72.5 -74.5t-53.5 -94.5t-33.5 -123.5t-11.5 -161.5v-40h-143v29q0 53 7 116t25 125t48.5 119.5t76.5 100.5h-258v120h402l13 -116v0z" />
    <glyph glyph-name="eightinferior" unicode="&#x2088;" horiz-adv-x="675" 
d="M422 126q0 47 -20.5 67.5t-63.5 20.5q-87 0 -87 -88q0 -41 21.5 -64t65.5 -23q45 0 64.5 23t19.5 64zM410 385q0 32 -16 54t-56 22q-39 0 -56 -22t-17 -54q0 -38 17 -58t56 -20q40 0 56 20t16 58zM565 118q0 -84 -57.5 -133t-169.5 -49t-170 49t-58 133q0 54 22.5 91.5
t71.5 57.5v3q-41 23 -60.5 54.5t-19.5 76.5q0 40 16 70.5t44.5 50.5t68 30.5t85.5 10.5t84.5 -10.5t66.5 -30.5t44 -50.5t16 -70.5q0 -45 -18.5 -76.5t-60.5 -54.5v-3q50 -20 72.5 -57t22.5 -92z" />
    <glyph glyph-name="nineinferior" unicode="&#x2089;" horiz-adv-x="666" 
d="M238 351q0 -45 18.5 -72t64.5 -27q44 0 64.5 28t20.5 72q0 42 -19.5 72t-65.5 30t-64.5 -29.5t-18.5 -73.5zM100 352q0 46 16.5 84.5t45.5 66.5t70 44t90 16q121 0 177.5 -74.5t56.5 -213.5q0 -78 -15 -140.5t-46 -107t-79 -68t-115 -23.5q-51 0 -94.5 13.5t-75.5 30.5
l46 100q23 -15 55 -23.5t72 -8.5q56 0 85 42.5t29 119.5h-3q-15 -23 -44 -39.5t-77 -16.5q-101 0 -147.5 53t-46.5 145z" />
    <glyph glyph-name="Euro" unicode="&#x20ac;" horiz-adv-x="1084" 
d="M70 335l30 106h87q-2 17 -2 32v32v25t2 26h-100l30 103h82q14 81 46 147t83.5 112.5t125 72t169.5 25.5q54 0 102.5 -9.5t93 -29t87 -49.5t84.5 -72l-116 -127q-56 64 -119 94t-132 30q-98 0 -152 -48t-72 -146h385l-30 -103h-368v-51v-33t2 -31h355l-30 -106h-312
q8 -42 23.5 -76.5t41 -60t63 -39.5t88.5 -14q148 0 274 125l103 -132q-43 -40 -86 -69.5t-88 -48.5t-93 -28.5t-101 -9.5q-99 0 -173 24t-126 70t-83 111t-45 148h-129z" />
    <glyph glyph-name="trademark" unicode="&#x2122;" horiz-adv-x="1083" 
d="M343 964v-305h-100v305h-113v85h326v-85h-113zM856 659l2 218l-110 -165l-113 165l2 -218h-97v390h89l119 -176l115 176h90v-390h-97z" />
    <glyph glyph-name="onethird" unicode="&#x2153;" horiz-adv-x="1650" 
d="M443 1104v-609h-141v434l-99 -67l-58 98l191 144h107zM554 -58h-130l716 1162h131zM1560 123q0 -85 -60.5 -136t-167.5 -51q-62 0 -111.5 16t-94.5 48l59 100q40 -32 73 -42t69 -10q41 0 67.5 18.5t26.5 59.5t-22 58t-73 17h-76v106h57q48 0 72 16.5t24 54.5
q0 28 -18.5 47t-64.5 19q-31 0 -62.5 -11t-63.5 -38l-58 95q29 19 54 32t50 21.5t50 12t54 3.5q45 0 81.5 -11t62.5 -32t40.5 -52t14.5 -72q0 -43 -17.5 -75t-49.5 -52q42 -16 63 -53.5t21 -88.5z" />
    <glyph glyph-name="twothirds" unicode="&#x2154;" horiz-adv-x="1650" 
d="M125 609q22 20 50.5 44t58.5 50t59.5 54t52.5 55.5t37 54t14 50.5q0 29 -18 51t-61 22q-34 0 -66.5 -15t-64.5 -48l-67 97q55 46 107.5 67t114.5 21q92 0 145 -45.5t53 -132.5q0 -37 -13.5 -73.5t-43 -75.5t-75.5 -81.5t-111 -91.5h248v-117h-399zM557 -58h-130l716 1162
h131zM1552 123q0 -85 -60.5 -136t-167.5 -51q-62 0 -111.5 16t-94.5 48l59 100q40 -32 73 -42t69 -10q41 0 67.5 18.5t26.5 59.5t-22 58t-73 17h-76v106h57q48 0 72 16.5t24 54.5q0 28 -18.5 47t-64.5 19q-31 0 -62.5 -11t-63.5 -38l-58 95q29 19 54 32t50 21.5t50 12
t54 3.5q45 0 81.5 -11t62.5 -32t40.5 -52t14.5 -72q0 -43 -17.5 -75t-49.5 -52q42 -16 63 -53.5t21 -88.5z" />
    <glyph glyph-name="onefifth" unicode="&#x2155;" horiz-adv-x="1650" 
d="M1503 150q0 -100 -56.5 -157t-170.5 -57q-57 0 -103 16.5t-85 43.5l57 97q26 -20 56 -33t69 -13q47 0 68.5 25t21.5 75q0 48 -21 72t-66 24q-28 0 -50.5 -10.5t-40.5 -28.5l-83 63l47 285h320v-120h-220l-20 -117l1 -1q17 13 39 21.5t57 8.5q39 0 72 -11t57 -34.5
t37.5 -60.5t13.5 -88zM491 -58h-131l718 1162h130zM443 1104v-609h-141v434l-99 -67l-58 98l192 144h106z" />
    <glyph glyph-name="threefifths" unicode="&#x2157;" horiz-adv-x="1650" 
d="M553 675q0 -42 -15.5 -77t-45 -59.5t-72 -38t-96.5 -13.5q-60 0 -109.5 16.5t-94.5 48.5l58 98q41 -31 73.5 -41t67.5 -10q42 0 69 18.5t27 59.5q0 40 -23 58t-73 18h-75v109h57q46 0 70 17t24 55q0 27 -18 46.5t-63 19.5q-64 0 -127 -50l-60 94q58 38 105 54t103 16
q45 0 81.5 -11t63 -32t41 -51.5t14.5 -70.5q0 -45 -18 -77.5t-49 -52.5q43 -17 64 -55t21 -89zM1563 150q0 -100 -56 -157t-170 -57q-57 0 -103 16.5t-86 43.5l57 97q26 -20 56 -33t70 -13q90 0 90 100q0 48 -21 72t-66 24q-28 0 -50.5 -10.5t-41.5 -28.5l-82 63l47 285h319
v-120h-219l-22 -117l3 -1q17 13 39 21.5t57 8.5q39 0 72 -11t56.5 -34.5t37 -60.5t13.5 -88zM552 -58h-131l716 1162h131z" />
    <glyph glyph-name="minus" unicode="&#x2212;" horiz-adv-x="930" 
d="M172 324v166h586v-166h-586z" />
    <glyph glyph-name="lessequal" unicode="&#x2264;" horiz-adv-x="1160" 
d="M155 0v135h833v-135h-833zM156 523v154l835 307v-157l-648 -226l648 -227v-158z" />
    <glyph glyph-name="greaterequal" unicode="&#x2265;" horiz-adv-x="1124" 
d="M130 0v135h835v-135h-835zM129 216v158l646 227l-646 226v157l835 -307v-154z" />
    <glyph glyph-name="commaaccent" unicode="&#xf004;" horiz-adv-x="484" 
d="M240 -349h-116l41 252h186z" />
    <glyph glyph-name="commaaccent" unicode="&#xf6c3;" horiz-adv-x="484" 
d="M240 -349h-116l41 252h186z" />
    <glyph glyph-name="caron.1" horiz-adv-x="454" 
d="M225 830h-109l43 255h174z" />
    <glyph glyph-name="commaaccent.1" horiz-adv-x="454" 
d="M235 1124h108l-33 -214h-174z" />
    </font>
</defs>
</svg>
