<?xml version="1.0" standalone="no"?>
<!DOCTYPE svg PUBLIC "-//W3C//DTD SVG 1.1//EN" "http://www.w3.org/Graphics/SVG/1.1/DTD/svg11.dtd" >
<svg xmlns="http://www.w3.org/2000/svg" xmlns:xlink="http://www.w3.org/1999/xlink" version="1.1">
<metadata>
Created by FontForge 20170731 at Sun Oct 20 04:40:44 2002
 By Aleksey,,,
Copyright (c) Terminal Design, Inc., 2002. All rights reserved.
</metadata>
<defs>
<font id="ClearviewHwy-Four-W" horiz-adv-x="1001" >
  <font-face 
    font-family="ClearviewHwy-4-W"
    font-weight="400"
    font-stretch="normal"
    units-per-em="1448"
    panose-1="2 0 5 4 0 0 0 2 0 4"
    ascent="1158"
    descent="-290"
    x-height="817"
    cap-height="1000"
    bbox="-290 -362 1981 1403"
    underline-thickness="90"
    underline-position="-270"
    unicode-range="U+0020-F6C3"
  />
<missing-glyph horiz-adv-x="675" 
 />
    <glyph glyph-name=".notdef" horiz-adv-x="675" 
 />
    <glyph glyph-name=".null" horiz-adv-x="0" 
 />
    <glyph glyph-name="nonmarkingreturn" horiz-adv-x="675" 
 />
    <glyph glyph-name="uni0000" horiz-adv-x="749" 
 />
    <glyph glyph-name="uni0000" horiz-adv-x="749" 
 />
    <glyph glyph-name="space" unicode=" " horiz-adv-x="700" 
 />
    <glyph glyph-name="space" unicode="&#xa0;" horiz-adv-x="700" 
 />
    <glyph glyph-name="exclam" unicode="!" horiz-adv-x="549" 
d="M389 83q0 -22 -9 -40.5t-24 -31.5t-36 -20.5t-45 -7.5q-51 0 -83 27.5t-32 72.5q0 44 33.5 70.5t81.5 26.5q50 0 82 -26.5t32 -70.5zM348 294h-145l-26 706h198z" />
    <glyph glyph-name="quotedbl" unicode="&#x22;" horiz-adv-x="788" 
d="M292 706h-119l-33 343h192zM607 706h-120l-35 343h196z" />
    <glyph glyph-name="numbersign" unicode="#" horiz-adv-x="1073" 
d="M461 691l-24 -196h176l28 196h-180zM923 691h-144l-30 -196h157l-19 -130h-157l-27 -192h-139l28 192h-172l-26 -192h-136l26 192h-154l16 130h154l25 196h-157l19 128h155l26 181h136l-24 -181h180l26 181h137l-25 -181h145z" />
    <glyph glyph-name="dollar" unicode="$" horiz-adv-x="854" 
d="M744 307q0 -45 -12.5 -87t-40 -76.5t-72 -59t-107.5 -33.5v-120h-163v120q-60 5 -120.5 26t-118.5 57l62 137q62 -43 124.5 -66.5t125.5 -23.5q75 0 114 29t39 87q0 42 -20.5 68.5t-69.5 49.5l-166 78q-46 22 -81.5 45.5t-59.5 51.5t-36.5 63t-12.5 80q0 44 12.5 83.5
t39.5 71t68.5 52.5t99.5 28v114h163v-114q51 -4 98 -18.5t97 -39.5l-53 -141q-53 34 -103 50.5t-110 16.5q-66 0 -103.5 -23t-37.5 -71q0 -20 6.5 -35t20.5 -27.5t36 -24.5t54 -27l147 -69q91 -42 135.5 -101.5t44.5 -150.5z" />
    <glyph glyph-name="percent" unicode="%" horiz-adv-x="1495" 
d="M522 0h-133l581 1000h134zM439 730q0 97 -23.5 140t-75.5 43q-49 0 -74 -43t-25 -140q0 -99 25 -140.5t74 -41.5t74 41.5t25 140.5zM562 732q0 -139 -57 -213.5t-167 -74.5q-104 0 -161 73t-57 215q0 132 55 208t168 76q105 0 162 -74t57 -210zM1252 272q0 97 -23.5 140
t-75.5 43q-49 0 -74 -43t-25 -140q0 -99 25 -140.5t74 -41.5t74 41.5t25 140.5zM1375 274q0 -139 -57 -213.5t-167 -74.5q-104 0 -161 73t-57 215q0 132 55 208t168 76q105 0 162 -74t57 -210z" />
    <glyph glyph-name="ampersand" unicode="&#x26;" horiz-adv-x="1013" 
d="M646 468h-183q-85 0 -123.5 -35.5t-38.5 -124.5t43 -135t131 -46q54 0 87.5 14t52 41.5t25 69t6.5 97.5v119zM814 468v-120q0 -77 -16.5 -143t-56 -115t-104.5 -76.5t-161 -27.5q-84 0 -148.5 21.5t-108.5 62.5t-66.5 99.5t-22.5 132.5q0 95 42 158.5t117 83.5v4
q-63 24 -96 78t-33 127q0 65 22 114.5t62.5 82.5t97 50t125.5 17q51 0 97.5 -10t97.5 -33l-43 -134q-62 34 -137 34t-113 -34t-38 -98q0 -36 13.5 -61t38 -40t59.5 -21.5t77 -6.5h128v126h164v-126h122v-145h-119z" />
    <glyph glyph-name="quotesingle" unicode="'" horiz-adv-x="472" 
d="M292 706h-118l-34 343h192z" />
    <glyph glyph-name="parenleft" unicode="(" horiz-adv-x="515" 
d="M251 -205q-34 94 -59 180t-41 169t-23.5 165t-7.5 169t7.5 169.5t23.5 165.5t40.5 169t59.5 181l124 -33q-23 -84 -40.5 -163.5t-28.5 -158.5t-16.5 -160t-5.5 -169t5 -169t16.5 -160t28.5 -158t41 -163z" />
    <glyph glyph-name="parenright" unicode=")" horiz-adv-x="516" 
d="M396 478q0 -88 -8.5 -172t-25 -167t-41 -168t-57.5 -176l-124 34q25 84 42.5 163.5t28.5 158t16.5 159.5t5.5 169q0 87 -5.5 168.5t-17 160.5t-29 158.5t-41.5 163.5l124 33q33 -92 58 -177t41.5 -168t24.5 -167t8 -173z" />
    <glyph glyph-name="asterisk" unicode="*" horiz-adv-x="708" 
d="M432 819v-5l111 -105l-117 -81l-68 136h-6l-67 -138l-117 81l111 107v5l-159 16l45 132l140 -70l3 3l-29 149h149l-26 -146l2 -4l139 69l45 -132z" />
    <glyph glyph-name="plus" unicode="+" horiz-adv-x="863" 
d="M512 331v-250h-158v250h-244v154h244v235h158v-235h241v-154h-241z" />
    <glyph glyph-name="comma" unicode="," horiz-adv-x="474" 
d="M237 -191h-117l53 356h191z" />
    <glyph glyph-name="hyphen" unicode="-" horiz-adv-x="687" 
d="M170 342v166h347v-166h-347z" />
    <glyph glyph-name="hyphen" unicode="&#xad;" horiz-adv-x="687" 
d="M170 342v166h347v-166h-347z" />
    <glyph glyph-name="period" unicode="." horiz-adv-x="484" 
d="M354 84q0 -45 -31.5 -73t-79.5 -28t-80.5 28t-32.5 73t32.5 72.5t80.5 27.5t79.5 -27.5t31.5 -72.5z" />
    <glyph glyph-name="slash" unicode="/" horiz-adv-x="845" 
d="M243 -173h-153l510 1222h155z" />
    <glyph glyph-name="zero" unicode="0" horiz-adv-x="1048" 
d="M728 499q0 75 -8 142.5t-30.5 118t-62 80t-103.5 29.5t-103.5 -29.5t-62 -80t-30.5 -118t-8 -142.5q0 -83 9.5 -151.5t33 -117t63 -75t98.5 -26.5t98.5 26.5t63 75t33 117t9.5 151.5zM908 502q0 -113 -22 -208.5t-68.5 -164.5t-119 -108t-174.5 -39t-175 39t-119.5 108
t-68 164.5t-21.5 208.5q0 114 22.5 209t70 162.5t120 105t171.5 37.5q100 0 172.5 -37.5t119.5 -105t69.5 -162.5t22.5 -209z" />
    <glyph glyph-name="one" unicode="1" horiz-adv-x="670" 
d="M316 0l1 773h-4l-164 -145l-79 131l277 245h143v-1004h-174z" />
    <glyph glyph-name="two" unicode="2" horiz-adv-x="862" 
d="M115 0l-25 157q110 105 195.5 187t144 150t89 126t30.5 116q0 26 -7 50t-22.5 42t-40.5 28.5t-61 10.5q-63 0 -115.5 -30.5t-105.5 -90.5l-97 128q39 37 77.5 64t78.5 44t83 25.5t91 8.5q67 0 121.5 -17.5t93.5 -52t60 -85.5t21 -119q0 -64 -21.5 -125t-72.5 -130
t-136.5 -151t-213.5 -188h450v-148h-617z" />
    <glyph glyph-name="three" unicode="3" horiz-adv-x="855" 
d="M725 292q0 -69 -21.5 -126t-64.5 -97.5t-107.5 -63t-150.5 -22.5q-87 0 -159 22.5t-142 71.5l70 134q62 -44 113 -63t111 -19q38 0 70.5 9t56 29t37 51.5t13.5 76.5q0 82 -39 117.5t-121 35.5h-116v147h49q95 0 148 32t53 106q0 61 -34 97.5t-114 36.5q-56 0 -108 -21.5
t-102 -62.5l-75 131q40 27 77.5 46t74.5 31t75.5 17.5t80.5 5.5q66 0 121.5 -16.5t95 -50t62 -84.5t22.5 -120q0 -73 -30.5 -125t-96.5 -82v-3q79 -23 115 -84t36 -157z" />
    <glyph glyph-name="four" unicode="4" horiz-adv-x="911" 
d="M510 792l-256 -437h257l3 437h-4zM685 205v-205h-179v205h-386l-40 140l412 655h193v-645h136v-150h-136z" />
    <glyph glyph-name="five" unicode="5" horiz-adv-x="880" 
d="M750 345q0 -86 -23 -153.5t-68 -114t-111 -71t-151 -24.5q-83 0 -151 20.5t-136 69.5l76 133q48 -38 97 -58t106 -20q94 0 139.5 55t45.5 162q0 100 -42 150.5t-125 50.5q-55 0 -96.5 -21.5t-73.5 -69.5l-118 91l70 455h502v-153h-362l-39 -222l1 -3q36 31 75.5 45.5
t90.5 14.5q137 0 215 -86.5t78 -250.5z" />
    <glyph glyph-name="six" unicode="6" horiz-adv-x="932" 
d="M643 328q0 88 -40.5 137.5t-121.5 49.5q-78 0 -121 -51.5t-43 -141.5q0 -89 41.5 -141t122.5 -52t121.5 54t40.5 145zM812 332q0 -78 -23.5 -142.5t-67 -110t-105 -71t-137.5 -25.5q-93 0 -159 33.5t-108 95t-62 148.5t-20 195q0 124 19.5 227t64.5 177.5t118 115.5
t180 41q67 0 124.5 -16t113.5 -49l-67 -129q-42 26 -80.5 38.5t-85.5 12.5q-50 0 -88.5 -17t-65.5 -55t-42 -99t-17 -149h3q29 51 80.5 77t120.5 26q71 0 127.5 -22.5t95.5 -64.5t60 -102t21 -135z" />
    <glyph glyph-name="seven" unicode="7" horiz-adv-x="832" 
d="M742 849q-57 -53 -101 -101.5t-75.5 -99.5t-52.5 -106.5t-34 -124.5t-18 -153.5t-5 -191.5v-72h-182v48q0 103 7.5 210.5t35.5 210.5t83 198.5t149 176.5v3h-459v153h629l23 -151v0z" />
    <glyph glyph-name="eight" unicode="8" horiz-adv-x="977" 
d="M660 289q0 37 -8 69t-27.5 54.5t-53 35.5t-83.5 13q-35 0 -66.5 -8t-54.5 -27.5t-36.5 -53t-13.5 -84.5q0 -79 39 -123t132 -44q82 0 127 38t45 130zM636 739q0 70 -35.5 105t-112.5 35t-112.5 -34.5t-35.5 -105.5q0 -70 36.5 -107t111.5 -37q74 0 111 37t37 107z
M837 291q0 -71 -21 -128t-63.5 -97t-108 -61.5t-155.5 -21.5t-155.5 21.5t-108.5 61.5t-64 97t-21 128q0 91 37 150t118 94v3q-68 36 -98 86t-30 128q0 126 81 195t240 69q75 0 134.5 -16t101 -49t64 -82.5t22.5 -116.5q0 -78 -29.5 -128t-97.5 -86v-3q80 -35 117 -94
t37 -150z" />
    <glyph glyph-name="nine" unicode="9" horiz-adv-x="934" 
d="M617 676q0 43 -9.5 78.5t-29 61t-50.5 39.5t-74 14q-77 0 -119.5 -52.5t-42.5 -143.5q0 -87 40.5 -135.5t121.5 -48.5q80 0 121.5 50.5t41.5 136.5zM804 515q0 -128 -21.5 -227t-67.5 -166.5t-118 -103t-173 -35.5q-72 0 -129 17t-115 58l72 126q47 -32 84.5 -45
t87.5 -13q53 0 92.5 18t66.5 58t40.5 102.5t13.5 152.5h-5q-30 -59 -81.5 -87t-121.5 -28q-69 0 -126 23.5t-97.5 66t-63 103t-22.5 135.5q0 76 24.5 140t68.5 109.5t106.5 71t139.5 25.5q175 0 260 -128t85 -373z" />
    <glyph glyph-name="colon" unicode=":" horiz-adv-x="480" 
d="M350 84q0 -45 -31 -73t-79 -28t-79 28t-31 73t31 72.5t79 27.5t79 -27.5t31 -72.5zM350 607q0 -47 -31 -74.5t-79 -27.5t-79 27.5t-31 74.5q0 45 31 72t79 27t79 -27t31 -72z" />
    <glyph glyph-name="semicolon" unicode=";" horiz-adv-x="475" 
d="M375 607q0 -47 -31 -75t-79 -28t-79.5 28t-31.5 75q0 45 31.5 72t79.5 27t79 -27t31 -72zM237 -191h-117l52 356h192z" />
    <glyph glyph-name="less" unicode="&#x3c;" horiz-adv-x="1000" 
d="M110 331v147l760 332v-143l-604 -261l604 -262v-144z" />
    <glyph glyph-name="equal" unicode="=" horiz-adv-x="867" 
d="M150 171v150h567v-150h-567zM150 463v152h567v-152h-567z" />
    <glyph glyph-name="greater" unicode="&#x3e;" horiz-adv-x="1000" 
d="M130 0v144l602 261l-602 262v143l760 -332v-147z" />
    <glyph glyph-name="question" unicode="?" horiz-adv-x="830" 
d="M448 84q0 -45 -31.5 -73t-79.5 -28q-24 0 -44.5 7.5t-35.5 20.5t-23.5 31.5t-8.5 41.5q0 45 32 72t80 27t79.5 -27t31.5 -72zM690 746q0 -95 -37.5 -156.5t-117.5 -105.5l-63 -37q-18 -11 -28 -19t-14.5 -17.5t-5 -23.5t-0.5 -38v-75h-166v111q0 34 3.5 57t13.5 40
t26.5 30.5t43.5 28.5l60 33q30 15 51.5 30.5t35.5 33.5t20.5 40.5t6.5 53.5q0 64 -38 101t-110 37q-56 0 -103.5 -19.5t-93.5 -61.5l-74 131q37 26 72 44t70 29.5t72.5 17t80.5 5.5q72 0 127 -18.5t92.5 -53.5t56.5 -85t19 -113z" />
    <glyph glyph-name="at" unicode="@" horiz-adv-x="1240" 
d="M725 561q3 22 1 41t-11 33.5t-27 22.5t-48 8q-131 0 -131 -227q0 -60 22 -87.5t67 -27.5q57 0 83 35.5t32 95.5l12 106v0zM1100 586q0 -97 -23.5 -167t-60.5 -115t-82.5 -66.5t-90.5 -21.5q-17 0 -35.5 5t-34.5 15.5t-27.5 27t-15.5 40.5h-4q-30 -42 -73.5 -63t-91.5 -21
q-82 0 -131 58.5t-49 172.5q0 57 13.5 114t43 102.5t75 74t109.5 28.5q44 0 72 -15t48 -46h3l6 48h126l-48 -405q-2 -17 8.5 -31t34.5 -14q20 0 44.5 15t46 49t36 88.5t14.5 133.5q0 82 -24.5 145.5t-69.5 107t-108.5 66t-141.5 22.5q-101 0 -181 -31.5t-136.5 -90.5
t-86.5 -143t-30 -188t26 -183t75.5 -133t121 -81.5t161.5 -27.5q86 0 155.5 24.5t125.5 70.5l46 -73q-73 -58 -157 -81t-177 -23q-104 0 -190.5 32t-149 96t-97.5 160.5t-35 224.5q0 123 40.5 221t111 166.5t166.5 105t207 36.5q93 0 172.5 -26.5t138 -80.5t91.5 -134.5
t33 -188.5z" />
    <glyph glyph-name="A" unicode="A" horiz-adv-x="1014" 
d="M506 833h-5l-134 -454h273zM750 0l-73 228h-346l-73 -228h-188l328 1003h211l335 -1003h-194z" />
    <glyph glyph-name="B" unicode="B" horiz-adv-x="1013" 
d="M710 289q0 55 -17.5 86.5t-46 48t-65 21t-75.5 4.5h-78t-69 -2v-309q40 -2 74 -2.5t76 -0.5q47 0 84 5t63 21t40 46.5t14 81.5zM679 726q0 78 -42.5 110.5t-138.5 32.5q-32 0 -70.5 -2t-68.5 -5v-280q32 -2 65 -2h74q48 0 82.5 6.5t56 23t32 44.5t10.5 72zM893 278
q0 -143 -82.5 -210.5t-242.5 -67.5h-388v993q75 8 155 13t161 5q66 0 131 -11t116.5 -40.5t83.5 -82t32 -134.5q0 -86 -36 -137.5t-110 -76.5v-3q91 -19 135.5 -84.5t44.5 -163.5z" />
    <glyph glyph-name="C" unicode="C" horiz-adv-x="991" 
d="M901 129q-69 -70 -150.5 -108t-181.5 -38q-113 0 -194 39t-133.5 108.5t-77 164.5t-24.5 207q0 104 25.5 197t78 163.5t133.5 112t193 41.5q98 0 174.5 -36.5t149.5 -110.5l-107 -124q-25 29 -49 51t-49.5 37t-53.5 22.5t-61 7.5q-62 0 -108 -24.5t-77 -71t-46.5 -113.5
t-15.5 -152q0 -69 12 -134.5t40.5 -117.5t76 -83.5t118.5 -31.5q68 0 121.5 29.5t109.5 89.5l96 -125v0z" />
    <glyph glyph-name="D" unicode="D" horiz-adv-x="1073" 
d="M745 509q0 69 -10.5 133.5t-38.5 114.5t-78 80t-129 30q-32 0 -65 -1t-65 -4v-715q32 -2 55 -2.5t48 -0.5q70 0 123 19.5t88.5 63t53.5 113t18 169.5zM933 505q0 -117 -27.5 -210.5t-84.5 -159t-143 -100.5t-203 -35h-295v994q33 3 71 6.5t77.5 5.5t78.5 3.5t74 1.5
q110 0 194.5 -33.5t141.5 -98t86.5 -159t29.5 -215.5z" />
    <glyph glyph-name="E" unicode="E" horiz-adv-x="897" 
d="M180 0v1000h573v-153h-394v-251h356v-154h-356v-292h408v-150h-587z" />
    <glyph glyph-name="F" unicode="F" horiz-adv-x="872" 
d="M359 847v-255h345v-156h-345v-436h-179v1000h562v-153h-383z" />
    <glyph glyph-name="G" unicode="G" horiz-adv-x="1084" 
d="M944 444q0 -100 -19 -184.5t-63 -146t-116.5 -96t-178.5 -34.5q-107 0 -187 39.5t-133 109t-80 163.5t-27 203q0 108 27.5 202.5t81.5 164.5t134.5 110.5t187.5 40.5q53 0 97.5 -10.5t83 -29t71.5 -43t64 -52.5l-103 -124q-25 25 -49 45t-49 33.5t-52.5 20.5t-58.5 7
q-73 0 -121 -32t-76 -83.5t-39.5 -117t-11.5 -131.5t10 -133t37 -120t74.5 -86.5t122.5 -33.5q60 0 100 21t63.5 58t33 86.5t9.5 105.5h-203v151h370v-104v0z" />
    <glyph glyph-name="H" unicode="H" horiz-adv-x="1076" 
d="M716 0v445h-357v-445h-179v1000h179v-387h357v387h180v-1000h-180z" />
    <glyph glyph-name="I" unicode="I" horiz-adv-x="541" 
d="M180 0v1000h181v-1000h-181z" />
    <glyph glyph-name="J" unicode="J" horiz-adv-x="753" 
d="M573 275q0 -67 -14 -121t-45.5 -92.5t-81.5 -59t-123 -20.5q-69 0 -123 17t-106 58l73 134q38 -32 69 -44t69 -12q54 0 78 32t24 101v732h180v-725v0z" />
    <glyph glyph-name="K" unicode="K" horiz-adv-x="977" 
d="M689 0l-251 432l-79 -98l2 -334h-181v1000h181l-2 -441h6l294 441h218l-312 -439l342 -561h-218z" />
    <glyph glyph-name="L" unicode="L" horiz-adv-x="809" 
d="M180 0v1000h181v-847h358v-153h-539z" />
    <glyph glyph-name="M" unicode="M" horiz-adv-x="1218" 
d="M864 0v672h-4l-250 -397l-252 395h-4v-670h-174v1000h168l262 -417l261 417h167v-1000h-174z" />
    <glyph glyph-name="N" unicode="N" horiz-adv-x="1130" 
d="M777 0l-422 670h-3v-670h-172v1000h175l420 -663h2v663h173v-1000h-173z" />
    <glyph glyph-name="O" unicode="O" horiz-adv-x="1154" 
d="M825 501q0 80 -11.5 147.5t-40 116t-76 75.5t-120.5 27t-121.5 -27.5t-77 -76t-40 -116t-11.5 -146.5q0 -80 11.5 -148t40.5 -117.5t77 -77t122 -27.5q72 0 120 28t76 77.5t39.5 117t11.5 147.5zM1014 501q0 -119 -28 -214.5t-83.5 -163t-137 -104t-188.5 -36.5
q-108 0 -189.5 36.5t-136.5 104t-83 163t-28 214.5q0 117 28 212t82.5 162.5t136.5 104t190 36.5t190 -36.5t136.5 -104t82.5 -162.5t28 -212z" />
    <glyph glyph-name="P" unicode="P" horiz-adv-x="990" 
d="M677 688q0 50 -9.5 84t-31 55t-56 30t-84.5 9q-32 0 -65 -2t-72 -5v-350h140q44 0 77.5 6.5t56 26t33.5 54.5t11 92zM860 691q0 -158 -78.5 -242.5t-251.5 -84.5h-171v-364h-179v994q66 7 145 11.5t165 4.5q80 0 148 -15.5t117.5 -52.5t77 -98.5t27.5 -152.5z" />
    <glyph glyph-name="Q" unicode="Q" horiz-adv-x="1154" 
d="M825 501q0 79 -10.5 146t-38.5 116t-76 76.5t-123 27.5t-123.5 -28t-76.5 -77t-39 -116t-11 -145q0 -79 11 -146.5t39.5 -117t77 -78t123.5 -28.5q73 0 121 28.5t76 78.5t39 117.5t11 145.5zM1014 501q0 -64 -8.5 -126t-28.5 -118.5t-52.5 -104.5t-80.5 -85v-1
q23 -7 38 -18t31 -22.5t37 -22.5t56 -17l-57 -133q-53 3 -95 24t-77.5 45.5t-65.5 44.5t-57 20q-17 0 -31 -2t-33 -2q-114 0 -198.5 36t-140.5 103t-83.5 163t-27.5 216q0 114 26.5 209t80.5 163t136 105.5t194 37.5t194 -37.5t136 -105.5t80.5 -163t26.5 -209z" />
    <glyph glyph-name="R" unicode="R" horiz-adv-x="1008" 
d="M676 702q0 89 -45 126.5t-136 37.5q-37 0 -68.5 -1.5t-65.5 -4.5v-319h150q40 0 70.5 8t51.5 26.5t32 49.5t11 77zM688 0l-122 351q-8 25 -18 35.5t-36 10.5h-151v-397h-181v994q79 9 155.5 12.5t156.5 3.5q75 0 142 -15t117 -49.5t79 -91.5t29 -142q0 -100 -38.5 -165.5
t-120.5 -99.5v-2q13 -5 22 -23.5t14 -33.5l142 -388h-190z" />
    <glyph glyph-name="S" unicode="S" horiz-adv-x="914" 
d="M784 288q0 -80 -25.5 -137t-70.5 -94t-106.5 -54t-133.5 -17q-98 0 -179 24t-159 74l68 150q58 -43 122.5 -73t138.5 -30q32 0 62 7t53.5 23t37.5 42.5t14 66.5q0 35 -14.5 61t-39.5 45.5t-57.5 34.5t-69.5 28q-49 19 -99.5 41.5t-91.5 56.5t-67 83.5t-26 122.5
q0 72 26.5 123t71 84t101.5 48.5t118 15.5q81 0 151.5 -21.5t137.5 -59.5l-53 -151q-52 38 -104.5 60t-118.5 22q-31 0 -58.5 -5.5t-48.5 -19t-33.5 -35.5t-12.5 -54q0 -30 16 -52t43 -39.5t62 -31.5t73 -29q48 -18 96.5 -41.5t87.5 -58.5t63.5 -86t24.5 -124z" />
    <glyph glyph-name="T" unicode="T" horiz-adv-x="849" 
d="M514 846v-846h-180v846h-244v154h669v-154h-245z" />
    <glyph glyph-name="U" unicode="U" horiz-adv-x="1087" 
d="M907 405q0 -101 -18.5 -179.5t-61 -132.5t-112.5 -82t-173 -28q-102 0 -171.5 28t-111.5 81.5t-60.5 132t-18.5 180.5v595h181v-594q0 -59 6 -108.5t25.5 -85t56 -55.5t96.5 -20q59 0 94.5 20t55 55.5t26 85t6.5 108.5v594h180v-595v0z" />
    <glyph glyph-name="V" unicode="V" horiz-adv-x="954" 
d="M579 0h-207l-292 1000h192l204 -810h3l204 810h191z" />
    <glyph glyph-name="W" unicode="W" horiz-adv-x="1470" 
d="M1122 0h-207l-180 719h-5l-177 -719h-210l-223 1000h192l145 -795h4l193 795h167l189 -793h6l147 793h187z" />
    <glyph glyph-name="X" unicode="X" horiz-adv-x="960" 
d="M676 0l-195 371h-2l-194 -371h-205l293 520l-261 480h207l168 -348h5l168 348h203l-268 -494l285 -506h-204z" />
    <glyph glyph-name="Y" unicode="Y" horiz-adv-x="949" 
d="M566 389v-389h-180v384l-316 616h199l208 -456l209 456h193z" />
    <glyph glyph-name="Z" unicode="Z" horiz-adv-x="858" 
d="M100 0v144l433 702h-412v154h624v-143l-438 -707h451v-150h-658z" />
    <glyph glyph-name="bracketleft" unicode="[" horiz-adv-x="573" 
d="M130 -178v1338h303v-111h-147v-1118h147v-109h-303z" />
    <glyph glyph-name="backslash" unicode="\" horiz-adv-x="846" 
d="M605 -173l-515 1222h153l513 -1222h-151z" />
    <glyph glyph-name="bracketright" unicode="]" horiz-adv-x="572" 
d="M140 -178v109h145v1118h-145v111h302v-1338h-302z" />
    <glyph glyph-name="asciicircum" unicode="^" horiz-adv-x="739" 
d="M585 783l-215 117l-220 -117l-80 93l298 161l301 -161z" />
    <glyph glyph-name="underscore" unicode="_" horiz-adv-x="929" 
d="M90 -238v127h749v-127h-749z" />
    <glyph glyph-name="grave" unicode="`" horiz-adv-x="496" 
d="M319 924l-242 148l148 81l193 -174z" />
    <glyph glyph-name="a" unicode="a" horiz-adv-x="968" 
d="M611 417q-51 0 -104 -6.5t-96.5 -25.5t-71 -54.5t-27.5 -92.5q0 -58 27 -95.5t84 -37.5q52 0 99 21.5t89 59.5v231zM731 -12q-40 11 -66.5 32.5t-37.5 63.5h-3q-52 -48 -115 -75t-135 -27q-56 0 -99.5 18t-73.5 51t-45.5 78.5t-15.5 100.5q0 62 20.5 108.5t56 79.5
t82.5 54.5t99.5 33.5t107.5 17t106 5v31q0 34 -5 60t-18 44t-36 27t-59 9q-76 0 -144 -22t-131 -58l-49 129q82 43 161.5 64t171.5 21q79 0 133 -18t87 -54.5t47.5 -91.5t14.5 -128v-346q0 -23 2 -38.5t8 -27.5t16.5 -21.5t26.5 -19.5z" />
    <glyph glyph-name="b" unicode="b" 
d="M682 408q0 59 -5 111.5t-22.5 91.5t-51 62t-89.5 23q-75 0 -117 -42t-42 -129v-204q0 -43 8.5 -80.5t27 -65.5t48.5 -44t73 -16q54 0 87 25t51.5 66.5t25 94t6.5 107.5zM861 411q0 -79 -16 -156t-52 -137.5t-95 -98t-145 -37.5q-68 0 -119 28t-86 90h-5l-22 -100h-141
v1085h175v-352h3q32 56 82.5 78t112.5 22q82 0 140.5 -33t96 -90t54.5 -134t17 -165z" />
    <glyph glyph-name="c" unicode="c" horiz-adv-x="864" 
d="M701 615q-42 39 -84 58.5t-100 19.5q-59 0 -97.5 -25.5t-60.5 -66t-30.5 -91t-8.5 -99.5q0 -51 9 -103t31.5 -93.5t61.5 -67.5t98 -26q57 0 104.5 20.5t93.5 56.5l56 -126q-63 -45 -128 -67.5t-143 -22.5q-95 0 -164 33.5t-113 91.5t-65 135.5t-21 165.5t22 165.5t68 135
t116 91t166 33.5q72 0 137 -23.5t124 -67.5z" />
    <glyph glyph-name="d" unicode="d" horiz-adv-x="1002" 
d="M647 525q0 87 -41 127.5t-116 40.5q-56 0 -89.5 -22.5t-51.5 -61.5t-23.5 -91t-5.5 -110q0 -54 6.5 -106t25 -93.5t51.5 -66.5t87 -25q44 0 74 16t48.5 43t26.5 63.5t8 77.5v208zM671 0l-13 96h-4q-74 -114 -205 -114q-85 0 -144 37.5t-95.5 98t-53 137.5t-16.5 156
q0 88 17.5 165t54.5 134t95.5 90t141.5 33q61 0 111.5 -21.5t84.5 -75.5h2v349h175v-1085h-151z" />
    <glyph glyph-name="e" unicode="e" horiz-adv-x="974" 
d="M671 469q0 47 -8.5 89t-27.5 73.5t-51 50t-80 18.5q-86 0 -135.5 -59t-49.5 -172h352v0zM834 414v-29t-2 -34h-512q0 -112 49.5 -171.5t151.5 -59.5q57 0 108 16.5t108 54.5l55 -127q-69 -44 -136 -63t-144 -19q-91 0 -160.5 29.5t-116.5 85t-71 134t-24 177.5
q0 107 27 186.5t75.5 132.5t115 79.5t145.5 26.5q165 0 248 -107.5t83 -311.5z" />
    <glyph glyph-name="f" unicode="f" horiz-adv-x="613" 
d="M533 956q-17 3 -33 5t-35 2q-29 0 -47 -4.5t-28.5 -15t-14.5 -28t-4 -42.5v-67h152v-143h-150v-663h-175v662h-108v144h108v57q0 63 10.5 107t37.5 71.5t74.5 40t121.5 12.5q22 0 45 -1t46 -6v-131v0z" />
    <glyph glyph-name="g" unicode="g" horiz-adv-x="1005" 
d="M650 517q0 39 -10 72t-30 57t-50.5 37t-71.5 13q-53 0 -86 -22.5t-51 -60.5t-24.5 -88t-6.5 -106q0 -45 6.5 -92.5t24.5 -85.5t51 -62.5t86 -24.5q48 0 79.5 19.5t50 50.5t25.5 70.5t7 79.5v143zM825 -1q0 -81 -16.5 -141t-54.5 -99t-99 -58.5t-151 -19.5
q-86 0 -163.5 19.5t-148.5 55.5l50 143q63 -37 125.5 -55.5t135.5 -18.5q40 0 68.5 7t45.5 24.5t25 47t8 73.5v143l-5 1q-37 -53 -85 -77t-113 -24q-78 0 -135.5 28t-96 79.5t-57 124.5t-18.5 163q0 80 15 155.5t51 134t95 93.5t148 35q68 0 119 -23.5t86 -83.5h3l13 91h155
v-818v0z" />
    <glyph glyph-name="h" unicode="h" horiz-adv-x="1012" 
d="M656 0v466q0 46 -2.5 86t-16 69.5t-41 46.5t-77.5 17q-86 0 -125 -48t-39 -139v-498h-175v1085h175v-346h2q38 53 94 73.5t120 20.5q77 0 127.5 -23.5t80 -68t41.5 -108t12 -143.5v-490h-176z" />
    <glyph glyph-name="i" unicode="i" horiz-adv-x="540" 
d="M380 1023q0 -45 -29.5 -72t-78.5 -27q-52 0 -82 27t-30 72q0 44 30 70.5t82 26.5q51 0 79.5 -26.5t28.5 -70.5zM182 0v817h177v-817h-177z" />
    <glyph glyph-name="j" unicode="j" horiz-adv-x="539" 
d="M357 6q0 -74 -13.5 -133.5t-46 -101.5t-86 -65t-134.5 -23q-53 0 -107 9v144q22 -2 42.5 -2.5t40.5 -0.5q45 0 71 12.5t38.5 36.5t15 58.5t2.5 79.5v797h177v-811v0zM379 1023q0 -48 -32.5 -73.5t-78.5 -25.5q-48 0 -79 25.5t-31 73.5q0 47 31 72t79 25t79.5 -25
t31.5 -72z" />
    <glyph glyph-name="k" unicode="k" horiz-adv-x="907" 
d="M637 0l-191 364l-92 -112v-252h-174v1085h175v-626h4l257 358h205l-250 -338l266 -479h-200z" />
    <glyph glyph-name="l" unicode="l" horiz-adv-x="575" 
d="M475 0q-25 -5 -57.5 -7.5t-62.5 -2.5q-49 0 -82.5 9t-54 30t-29.5 55t-9 84v917h175v-874q0 -25 3.5 -39t12.5 -21t23.5 -9t35.5 -2h45v-140v0z" />
    <glyph glyph-name="m" unicode="m" horiz-adv-x="1432" 
d="M1078 0v481q0 44 -4 81.5t-17 65t-38.5 43t-67.5 15.5q-71 0 -109 -44t-38 -128v-514h-176v484q0 44 -3.5 81t-16.5 64t-38 42t-68 15q-72 0 -109.5 -45.5t-37.5 -126.5v-514h-175v817h158l11 -88h3q32 49 78.5 76.5t122.5 27.5q69 0 120.5 -26t82.5 -89q44 66 99 90.5
t128 24.5t124.5 -21t83.5 -63t46.5 -104t14.5 -143v-502h-174z" />
    <glyph glyph-name="n" unicode="n" horiz-adv-x="1012" 
d="M656 0v466q0 47 -2.5 87t-16 69.5t-41 46t-77.5 16.5q-86 0 -125 -48t-39 -139v-498h-175v817h154l14 -88h3q38 58 93.5 81t124.5 23q78 0 128.5 -23.5t80.5 -67.5t42 -107.5t12 -144.5v-490h-176z" />
    <glyph glyph-name="o" unicode="o" horiz-adv-x="1009" 
d="M691 408q0 58 -7.5 109.5t-28 90t-57 61t-94.5 22.5q-57 0 -93 -22.5t-56 -61t-27.5 -90t-7.5 -109.5q0 -64 8 -116.5t29 -90.5t57 -59t92 -21q54 0 90 21t57 59t29.5 90.5t8.5 116.5zM869 408q0 -95 -22 -173t-67.5 -134.5t-114 -87.5t-161.5 -31t-161.5 31t-113.5 87
t-67 134.5t-22 173.5q0 93 21.5 171t66.5 134.5t113.5 88t162.5 31.5q93 0 161.5 -30.5t113.5 -86.5t67.5 -134t22.5 -174z" />
    <glyph glyph-name="p" unicode="p" 
d="M682 409q0 46 -4 97t-20.5 93t-51 69.5t-94.5 27.5q-80 0 -118.5 -48.5t-38.5 -127.5v-199q0 -40 7.5 -77t25.5 -65t48.5 -45t75.5 -17q57 0 90.5 29t51.5 73t23 95t5 95zM861 412q0 -75 -15.5 -152t-51.5 -138.5t-95.5 -100.5t-148.5 -39q-64 0 -110.5 22t-82.5 76h-3
v-388h-174v1125h152l13 -88h3q38 56 88.5 80t118.5 24q88 0 147 -37.5t94.5 -97.5t50 -135.5t14.5 -150.5z" />
    <glyph glyph-name="q" unicode="q" horiz-adv-x="1007" 
d="M650 520q0 88 -41 130.5t-118 42.5q-57 0 -90.5 -22.5t-51.5 -61t-23.5 -90.5t-5.5 -111q0 -54 6.5 -106t25 -93t52 -66.5t87.5 -25.5q46 0 76.5 18t49 47t26 67t7.5 79v192zM784 -338q-44 12 -70 31t-40.5 45t-19 60t-4.5 76v206h-7q-35 -51 -82.5 -74.5t-110.5 -23.5
q-83 0 -141.5 35t-96 94t-55 137t-17.5 164q0 79 15.5 154.5t51.5 135t95.5 95.5t146.5 36q65 0 119 -23t86 -81h3l11 88h157v-907q0 -26 2 -45.5t8 -34t18.5 -25t33.5 -19.5z" />
    <glyph glyph-name="r" unicode="r" horiz-adv-x="699" 
d="M562 672q-47 0 -85.5 -8t-65.5 -28t-41.5 -54t-14.5 -86v-496h-175v817h158l11 -102h2q32 62 82.5 90t129.5 28h46v-161h-47z" />
    <glyph glyph-name="s" unicode="s" horiz-adv-x="832" 
d="M712 237q0 -65 -20.5 -113t-59 -79.5t-93.5 -47t-124 -15.5q-83 0 -160.5 21.5t-144.5 63.5l60 137q53 -35 116 -60.5t129 -25.5q63 0 95 25t32 81q0 28 -13.5 46.5t-37 32t-53.5 24t-63 21.5q-43 14 -85.5 31.5t-77 45t-56 69.5t-21.5 105q0 56 21.5 99.5t60.5 73.5
t93 45.5t119 15.5q66 0 132.5 -14.5t126.5 -43.5l-42 -136q-45 27 -96.5 42.5t-107.5 15.5q-30 0 -55.5 -4.5t-43.5 -14.5t-28.5 -26.5t-10.5 -41.5q0 -26 14 -43.5t37 -30.5t53.5 -23.5t63.5 -20.5q43 -14 85.5 -31t77 -45t56 -71t21.5 -108z" />
    <glyph glyph-name="t" unicode="t" horiz-adv-x="665" 
d="M545 -1q-32 -4 -60 -6.5t-57 -2.5q-71 0 -115 13.5t-68 42.5t-32 76t-8 113v426h-115v145h118v217h174v-217h163v-145h-163v-427q0 -30 3 -49t15 -29.5t36 -14t65 -3.5h44v-139v0z" />
    <glyph glyph-name="u" unicode="u" 
d="M663 0l-11 87h-5q-34 -51 -86 -79t-131 -28q-62 0 -109 16.5t-78.5 54.5t-47 99t-15.5 150v517h175v-462q0 -51 3 -92.5t16.5 -71t40.5 -46t75 -16.5q45 0 75 12.5t48 37.5t25.5 61.5t7.5 83.5v493h175v-817h-158z" />
    <glyph glyph-name="v" unicode="v" horiz-adv-x="871" 
d="M544 0h-215l-249 817h185l171 -672h5l171 672h179z" />
    <glyph glyph-name="w" unicode="w" horiz-adv-x="1300" 
d="M998 0h-196l-151 569h-6l-151 -569h-195l-199 817h181l126 -652h6l161 652h154l158 -653h6l131 653h177z" />
    <glyph glyph-name="x" unicode="x" horiz-adv-x="860" 
d="M591 0l-163 314h-1l-160 -314h-197l254 427l-227 390h198l143 -281h3l141 281h182l-226 -386l252 -431h-199z" />
    <glyph glyph-name="y" unicode="y" horiz-adv-x="884" 
d="M523 -36q-26 -76 -50.5 -129.5t-56 -87.5t-73 -50t-102.5 -16q-23 0 -47 1.5t-56 5.5v147q12 -2 31.5 -2.5t41.5 -0.5q28 0 47 4.5t33.5 17t25.5 34t22 56.5l16 57l-275 816h185l180 -629h3l171 629h185z" />
    <glyph glyph-name="z" unicode="z" horiz-adv-x="766" 
d="M100 0v129l357 544h-347v144h548v-141l-350 -532h358v-144h-566z" />
    <glyph glyph-name="braceleft" unicode="{" horiz-adv-x="595" 
d="M369 -187q-53 0 -90 10t-60.5 34t-34 63t-10.5 97v272q0 25 -2.5 46t-10 37t-22.5 27t-39 16v126q47 9 60.5 42.5t13.5 83.5v289q0 58 10.5 97t34 63t60.5 34t90 10h86v-111h-37q-31 0 -48.5 -6.5t-26.5 -21t-11 -38.5t-2 -59v-284q0 -30 -3.5 -52t-12 -40.5t-23.5 -35
t-37 -34.5q22 -18 37 -34t23.5 -34.5t12 -41t3.5 -51.5v-270q0 -37 2.5 -61t11.5 -38t27 -19.5t49 -5.5h35v-110h-86z" />
    <glyph glyph-name="bar" unicode="|" horiz-adv-x="468" 
d="M170 -330v1379h128v-1379h-128z" />
    <glyph glyph-name="braceright" unicode="}" horiz-adv-x="596" 
d="M496 415q-25 -5 -39.5 -16t-22.5 -27t-10.5 -37t-2.5 -46v-272q0 -58 -10.5 -97t-34 -63t-60.5 -34t-90 -10h-86v110h36q30 0 48 5.5t27.5 19.5t12 38t2.5 61v270q0 29 3.5 51.5t12 41t22.5 34.5t36 34q-22 18 -36 34.5t-22.5 35t-12 40.5t-3.5 52v284q0 35 -2 59
t-11 38.5t-27 21t-49 6.5h-37v111h86q53 0 90 -10t60.5 -34t34 -63t10.5 -97v-289q0 -50 14 -83.5t61 -42.5v-126v0z" />
    <glyph glyph-name="asciitilde" unicode="~" horiz-adv-x="794" 
d="M724 930q-25 -61 -74.5 -92t-112.5 -31q-37 0 -71.5 10.5t-67.5 22.5t-65.5 22.5t-63.5 10.5q-32 0 -52.5 -13.5t-40.5 -53.5l-106 48q19 34 38 57.5t40.5 38t47 20.5t58.5 6q37 0 71.5 -10t67.5 -21.5t64.5 -21.5t63.5 -10q30 0 53 14t40 49l110 -46v0z" />
    <glyph glyph-name="uni007F" horiz-adv-x="724" 
 />
    <glyph glyph-name="exclamdown" unicode="&#xa1;" horiz-adv-x="539" 
d="M379 719q0 -45 -31 -71.5t-79 -26.5t-78.5 27.5t-30.5 70.5q0 44 30.5 71t78.5 27t79 -27t31 -71zM174 -200l25 706h142l27 -706h-194z" />
    <glyph glyph-name="cent" unicode="&#xa2;" horiz-adv-x="845" 
d="M745 208q-46 -38 -91.5 -60t-99.5 -30v-118h-155v120q-66 13 -115 47.5t-81 85t-47.5 115t-15.5 138.5t15.5 137.5t47 113t80.5 82.5t116 47v114h155v-113q48 -8 91.5 -26.5t88.5 -51.5l-73 -129q-43 38 -80 55t-87 17q-53 0 -87 -21.5t-54 -56t-28 -78.5t-8 -90
q0 -53 10 -99t31.5 -80.5t55.5 -54.5t83 -20q46 0 89.5 17.5t93.5 60.5l65 -122v0z" />
    <glyph glyph-name="sterling" unicode="&#xa3;" horiz-adv-x="853" 
d="M130 0v141h16q60 0 85 39.5t25 110.5q0 15 -0.5 30t-2.5 35t-5.5 47t-9.5 65h-105v137h88q-6 46 -13 90t-7 92q0 116 72.5 172.5t201.5 56.5q67 0 128.5 -15.5t121.5 -44.5l-36 -150q-38 27 -84 44t-100 17q-71 0 -99.5 -30t-28.5 -89q0 -32 4.5 -67t11.5 -76h202v-137
h-183q14 -69 19.5 -110.5t5.5 -75.5q0 -42 -7.5 -71.5t-22.5 -56.5v-3h336v-151h-613z" />
    <glyph glyph-name="currency" unicode="&#xa4;" horiz-adv-x="1027" 
d="M100 335l28 103h81q-1 16 -2 31.5t-1 32.5v29t2 28h-94l28 102h77q13 76 41 141t74.5 112.5t112.5 74.5t155 27q97 0 171.5 -36.5t147.5 -110.5l-104 -113q-51 57 -103 85t-115 28q-88 0 -138 -52.5t-66 -155.5h354l-29 -102h-335q-2 -14 -2 -28v-29q0 -16 1 -32l2 -32
h325l-30 -103h-285q7 -43 21.5 -80.5t38.5 -65.5t58.5 -44t82.5 -16q68 0 125 29t112 87l93 -116q-69 -70 -148.5 -108.5t-179.5 -38.5q-89 0 -154 25.5t-111 71.5t-74 111t-41 145h-119z" />
    <glyph glyph-name="yen" unicode="&#xa5;" horiz-adv-x="1018" 
d="M697 579h158v-118h-218l-32 -64v-90h251v-117h-251v-190h-178v190h-257v117h257v82l-37 72h-220v118h157l-217 421h197l208 -452l207 452h186z" />
    <glyph glyph-name="brokenbar" unicode="&#xa6;" horiz-adv-x="467" 
d="M170 -330v582h127v-582h-127zM170 468v581h127v-581h-127z" />
    <glyph glyph-name="section" unicode="&#xa7;" horiz-adv-x="814" 
d="M535 436q0 45 -28.5 68.5t-97.5 23.5q-27 0 -50 -4t-40.5 -14.5t-27.5 -28.5t-10 -45q0 -18 6 -34.5t21 -29t39.5 -20t61.5 -7.5q126 0 126 91zM684 465q0 -35 -9 -66t-29.5 -55t-53 -39.5t-79.5 -20.5v-6q34 -12 65 -30.5t53.5 -44t36 -58.5t13.5 -72q0 -45 -14.5 -84.5
t-46.5 -69t-83 -46.5t-125 -17q-80 0 -145 20t-132 64l56 127q59 -38 112 -59t107 -21q52 0 78.5 21t26.5 58q0 17 -5.5 30.5t-18 25.5t-32.5 24.5t-49 27.5q-37 15 -70.5 29.5t-65.5 31.5q-35 19 -62 38t-45 42t-27.5 50.5t-9.5 62.5q0 81 46 125t129 52v4q-75 27 -119 74
t-44 122q0 99 69.5 155t198.5 56q67 0 124 -12t120 -41l-43 -137q-47 27 -91 41t-92 14q-22 0 -41.5 -3.5t-34 -12t-23 -22t-8.5 -34.5q0 -26 17.5 -47.5t67.5 -45.5q21 -9 39.5 -16.5l37 -15t38.5 -16.5t45 -19q54 -27 86 -70t32 -114z" />
    <glyph glyph-name="dieresis" unicode="&#xa8;" horiz-adv-x="626" 
d="M269 1023q0 -21 -8 -39t-21.5 -31t-31 -21t-35.5 -8q-43 0 -71.5 29t-28.5 70q0 39 28.5 68t71.5 29q18 0 35.5 -8t31 -21t21.5 -31t8 -37zM597 1023q0 -21 -8.5 -39t-22 -31t-31 -21t-36.5 -8q-41 0 -70.5 29t-29.5 70q0 39 29.5 68t70.5 29q19 0 36.5 -8t31 -21t22 -31
t8.5 -37z" />
    <glyph glyph-name="copyright" unicode="&#xa9;" horiz-adv-x="1296" 
d="M891 273q-53 -48 -107 -70t-120 -22q-78 0 -134 25t-92.5 68.5t-54 102.5t-17.5 127q0 70 19 128.5t56 100t91.5 64.5t124.5 23q133 0 230 -93l-70 -87q-37 37 -73.5 55t-79.5 18q-45 0 -77.5 -14.5t-53 -42t-30.5 -66.5t-10 -88q0 -102 42 -158t130 -56q47 0 86 18
t79 54l61 -87v0zM1099 502q0 93 -35.5 175t-96.5 143.5t-143 97t-176 35.5q-93 0 -175 -35.5t-143.5 -97t-97 -143.5t-35.5 -175t35.5 -175t97 -143.5t143.5 -97t175 -35.5q94 0 176 35.5t143 97t96.5 143.5t35.5 175zM1166 501q0 -108 -41 -202t-111.5 -164.5t-165 -111
t-201.5 -40.5q-108 0 -202 40.5t-164 111t-110.5 164.5t-40.5 202q0 107 40.5 201t110.5 164t164 110.5t202 40.5q107 0 201.5 -40.5t165 -110.5t111.5 -164t41 -201z" />
    <glyph glyph-name="ordfeminine" unicode="&#xaa;" horiz-adv-x="697" 
d="M417 787q-93 0 -133.5 -23t-40.5 -67q0 -32 16.5 -49t44.5 -17q26 0 52 10t61 34v112zM496 555q-27 6 -42.5 18t-23.5 32h-3q-33 -25 -71.5 -38.5t-79.5 -13.5q-66 0 -106 38t-40 100q0 45 20.5 77t58 52.5t90.5 29.5t118 9v11q0 17 -2 29.5t-9 20t-21 11t-39 3.5
q-34 0 -76.5 -10t-92.5 -38l-37 84q57 28 107.5 41t107.5 13q50 0 83.5 -10t54 -31.5t29.5 -54.5t9 -79v-166q0 -12 1 -19.5t5 -13.5t11 -12t19 -13z" />
    <glyph glyph-name="guillemotleft" unicode="&#xab;" horiz-adv-x="855" 
d="M292 153l-172 301l172 298l125 -64l-140 -236l140 -236zM602 153l-172 301l172 298l123 -64l-139 -236l139 -236z" />
    <glyph glyph-name="registered" unicode="&#xae;" horiz-adv-x="780" 
d="M352 886v-74h44q25 0 35.5 10t10.5 27q0 20 -11 28.5t-40 8.5h-39zM468 778q3 -7 11.5 -26.5t17.5 -40t15.5 -37l6.5 -16.5h-77l-38 95q-2 5 -3.5 6t-7.5 1h-39v-102h-69v280q28 2 55.5 3.5t50.5 1.5q22 0 43.5 -4t38 -14t27 -28t10.5 -46q0 -50 -42 -73zM391 1011
q-46 0 -86 -17t-70 -46.5t-47.5 -68.5t-17.5 -83q0 -45 17.5 -84t47.5 -68t70 -45.5t86 -16.5q45 0 85 16.5t70 45.5t47 68t17 84q0 44 -17 83t-47 68.5t-70 46.5t-85 17zM391 542q-54 0 -101.5 20t-83 54.5t-56 80.5t-20.5 99t20.5 99t56 80.5t83 54t101.5 19.5t101 -19.5
t82.5 -54t55.5 -80.5t20 -99t-20 -99t-55.5 -80.5t-82.5 -54.5t-101 -20z" />
    <glyph glyph-name="macron" unicode="&#xaf;" horiz-adv-x="794" 
d="M180 947v123h427v-123h-427z" />
    <glyph glyph-name="macron" unicode="&#x2c9;" horiz-adv-x="794" 
d="M180 947v123h427v-123h-427z" />
    <glyph glyph-name="degree" unicode="&#xb0;" horiz-adv-x="724" 
d="M526 797q0 34 -13 64.5t-35 53t-52.5 35.5t-64.5 13t-64 -13t-52.5 -35.5t-35.5 -53t-13 -64.5t13 -64t35.5 -52.5t52.5 -35.5t64 -13t64.5 13t52.5 35.5t35 52.5t13 64zM594 797q0 -48 -18.5 -90t-50.5 -73.5t-74 -50t-90 -18.5t-90 18.5t-73.5 50t-49.5 73.5t-18 90
t18 90t49.5 73.5t73.5 49.5t90 18t90 -18t74 -49.5t50.5 -73.5t18.5 -90z" />
    <glyph glyph-name="plusminus" unicode="&#xb1;" horiz-adv-x="863" 
d="M109 0v150h645v-150h-645zM512 517v-250h-158v250h-244v154h244v235h158v-235h241v-154h-241z" />
    <glyph glyph-name="twosuperior" unicode="&#xb2;" horiz-adv-x="612" 
d="M95 601q36 33 82.5 73.5t88.5 83t71 85t29 79.5q0 31 -18 54.5t-63 23.5q-32 0 -65 -15.5t-66 -48.5l-64 88q54 46 105.5 67t111.5 21q88 0 139.5 -44.5t51.5 -130.5q0 -38 -13 -74.5t-42 -76.5t-76 -85t-115 -99h250v-107h-388z" />
    <glyph glyph-name="threesuperior" unicode="&#xb3;" horiz-adv-x="620" 
d="M510 673q0 -42 -15 -76t-43 -58.5t-69 -38t-93 -13.5q-60 0 -108 15.5t-92 47.5l54 92q42 -31 74 -41t67 -10q42 0 69.5 20t27.5 65q0 43 -22.5 63t-75.5 20h-73v100h52q54 0 78 19t24 59q0 32 -19.5 51t-66.5 19q-31 0 -62.5 -11t-61.5 -37l-55 88q55 36 100 51.5
t98 15.5q43 0 79.5 -10.5t62 -31.5t40 -51.5t14.5 -70.5q0 -44 -18.5 -77t-50.5 -53q44 -17 64.5 -55t20.5 -92z" />
    <glyph glyph-name="acute" unicode="&#xb4;" horiz-adv-x="496" 
d="M173 924l-100 55l194 174l147 -81z" />
    <glyph glyph-name="mu" unicode="&#xb5;" horiz-adv-x="1003" 
d="M664 0l-11 87h-4q-34 -51 -84.5 -79t-119.5 -28q-34 0 -60 13.5t-38 36.5v-378h-167l1 1165h176v-462q0 -51 3 -92.5t16.5 -71t40 -46t74.5 -16.5q89 0 123 50t34 145v493h175v-817h-159z" />
    <glyph glyph-name="mu" unicode="&#x3bc;" horiz-adv-x="1003" 
d="M664 0l-11 87h-4q-34 -51 -84.5 -79t-119.5 -28q-34 0 -60 13.5t-38 36.5v-378h-167l1 1165h176v-462q0 -51 3 -92.5t16.5 -71t40 -46t74.5 -16.5q89 0 123 50t34 145v493h175v-817h-159z" />
    <glyph glyph-name="paragraph" unicode="&#xb6;" horiz-adv-x="859" 
d="M558 0q-106 0 -186 29t-134 80t-81 120t-27 149q0 78 27 146t81 119t134 80t186 29h121v-752h-121z" />
    <glyph glyph-name="periodcentered" unicode="&#xb7;" horiz-adv-x="494" 
d="M364 394q0 -24 -9.5 -45.5t-25 -37t-37 -25t-45.5 -9.5t-45.5 9.5t-37.5 25t-25 37t-9 45.5t9 45t25 36.5t37.5 24.5t45.5 9t45.5 -9t37 -24.5t25 -36.5t9.5 -45z" />
    <glyph glyph-name="periodcentered" unicode="&#x2219;" horiz-adv-x="494" 
d="M364 394q0 -24 -9.5 -45.5t-25 -37t-37 -25t-45.5 -9.5t-45.5 9.5t-37.5 25t-25 37t-9 45.5t9 45t25 36.5t37.5 24.5t45.5 9t45.5 -9t37 -24.5t25 -36.5t9.5 -45z" />
    <glyph glyph-name="cedilla" unicode="&#xb8;" horiz-adv-x="707" 
d="M526 -200q0 -31 -9.5 -58t-28.5 -47t-48 -31.5t-68 -11.5q-44 0 -81 12.5t-60 28.5l30 73q27 -17 51 -23.5t52 -6.5q23 0 39 16t16 48q0 20 -15 36.5t-43 16.5q-13 0 -26.5 -2.5t-26.5 -7.5l-35 28l68 129h71l-41 -78l1 -2q5 2 22 3.5t25 1.5q44 0 75.5 -31.5t31.5 -93.5
z" />
    <glyph glyph-name="onesuperior" unicode="&#xb9;" horiz-adv-x="503" 
d="M353 1104v-609h-129v446l-101 -71l-53 90l184 144h99z" />
    <glyph glyph-name="ordmasculine" unicode="&#xba;" horiz-adv-x="679" 
d="M434 793q0 31 -4 57.5t-15 45.5t-29.5 29.5t-46.5 10.5q-29 0 -48 -10.5t-29.5 -30t-14.5 -46t-4 -57.5q0 -75 22.5 -110.5t73.5 -35.5t73 36t22 111zM549 792q0 -110 -53 -173.5t-158 -63.5q-104 0 -156 65t-52 173q0 53 13 96.5t39 74t65 47.5t92 17q104 0 157 -63
t53 -173z" />
    <glyph glyph-name="guillemotright" unicode="&#xbb;" horiz-adv-x="856" 
d="M253 154l-123 62l140 236l-140 237l123 63l174 -298zM563 154l-123 62l139 236l-139 237l123 63l173 -298z" />
    <glyph glyph-name="onequarter" unicode="&#xbc;" horiz-adv-x="1620" 
d="M1261 171v257l-152 -257h152zM1380 -58h-131v124h-230l-29 105l243 381h147v-375h78v-111h-78v-124zM459 -77h-122l751 1164h121zM424 1104v-609h-129v446l-101 -71l-54 90l185 144h99z" />
    <glyph glyph-name="onehalf" unicode="&#xbd;" horiz-adv-x="1620" 
d="M1059 48q23 22 52 48t59 53.5t58 56t50.5 57t36 56t13.5 52.5q0 30 -17 53.5t-62 23.5q-66 0 -132 -66l-63 90q53 45 104.5 67t111.5 22q87 0 139.5 -45.5t52.5 -131.5q0 -37 -13 -73.5t-42.5 -76.5t-76.5 -84.5t-116 -98.5h253v-109h-388zM472 -60h-123l751 1164h122z
M424 1104v-609h-129v446l-101 -71l-54 90l185 144h99z" />
    <glyph glyph-name="threequarters" unicode="&#xbe;" horiz-adv-x="1620" 
d="M550 673q0 -42 -15 -76t-43 -58.5t-69 -38t-93 -13.5q-60 0 -107.5 15.5t-92.5 47.5l54 92q42 -31 74 -41t67 -10q42 0 69.5 20t27.5 65q0 43 -22.5 63t-75.5 20h-73v100h52q54 0 78 19t24 59q0 32 -19.5 51t-65.5 19q-32 0 -63.5 -11t-62.5 -37l-54 88q55 36 100 51.5
t98 15.5q43 0 79.5 -10.5t62 -31.5t40 -51.5t14.5 -70.5q0 -44 -18.5 -77t-50.5 -53q44 -17 64.5 -55t20.5 -92zM1262 171v257l-153 -257h153zM1380 -58h-131v124h-230l-29 105l243 381h147v-375h80v-111h-80v-124zM489 -60h-123l751 1164h121z" />
    <glyph glyph-name="questiondown" unicode="&#xbf;" horiz-adv-x="826" 
d="M597 720q0 -44 -30.5 -71t-78.5 -27t-79 27t-31 71q0 43 31 70t79 27t78.5 -26t30.5 -71zM726 -120q-38 -26 -72.5 -44t-70 -29t-72.5 -16.5t-80 -5.5q-72 0 -127.5 19t-93 55t-56.5 87t-19 115q0 49 9 87t27.5 68t48 54.5t70.5 47.5l62 37q19 10 29 17.5t14.5 17.5
t5.5 24t1 38v76h164v-113q0 -34 -3.5 -57t-13 -39.5t-26.5 -30t-44 -28.5l-58 -33q-29 -15 -50 -29t-35 -31t-21 -39.5t-7 -53.5q0 -68 37 -104.5t110 -36.5q56 0 102.5 19.5t94.5 60.5l74 -133v0z" />
    <glyph glyph-name="Agrave" unicode="&#xc0;" horiz-adv-x="1014" 
d="M506 833h-5l-134 -454h273zM750 0l-73 228h-346l-73 -228h-188l328 1003h211l335 -1003h-194zM507 1089l-242 148l148 81l193 -174z" />
    <glyph glyph-name="Aacute" unicode="&#xc1;" horiz-adv-x="1014" 
d="M506 833h-5l-134 -454h273zM750 0l-73 228h-346l-73 -228h-188l328 1003h211l335 -1003h-194zM517 1089l-100 55l194 174l147 -81z" />
    <glyph glyph-name="Acircumflex" unicode="&#xc2;" horiz-adv-x="1014" 
d="M506 833h-5l-134 -454h273zM750 0l-73 228h-346l-73 -228h-188l328 1003h211l335 -1003h-194zM669 1085l-165 90l-165 -92l-55 93l220 131l222 -131z" />
    <glyph glyph-name="Atilde" unicode="&#xc3;" horiz-adv-x="1014" 
d="M506 833h-5l-134 -454h273zM750 0l-73 228h-346l-73 -228h-188l328 1003h211l335 -1003h-194zM770 1202q-10 -27 -27.5 -47t-40.5 -34t-47.5 -21t-49.5 -7q-30 0 -55.5 8.5t-49 17.5t-45.5 17.5t-43 8.5q-26 0 -53 -13t-41 -42l-80 62q22 54 63.5 84t95.5 30
q29 0 55 -7.5t49.5 -17.5t45.5 -17.5t44 -7.5q26 0 52.5 12.5t37.5 39.5z" />
    <glyph glyph-name="Adieresis" unicode="&#xc4;" horiz-adv-x="1014" 
d="M506 833h-5l-134 -454h273zM750 0l-73 228h-346l-73 -228h-188l328 1003h211l335 -1003h-194zM438 1188q0 -21 -8 -39t-21.5 -31t-31 -21t-35.5 -8q-43 0 -71.5 29t-28.5 70q0 39 28.5 68t71.5 29q18 0 35.5 -8t31 -21t21.5 -31t8 -37zM766 1188q0 -21 -8.5 -39t-22 -31
t-31 -21t-36.5 -8q-41 0 -70.5 29t-29.5 70q0 39 29.5 68t70.5 29q19 0 36.5 -8t31 -21t22 -31t8.5 -37z" />
    <glyph glyph-name="Aring" unicode="&#xc5;" horiz-adv-x="1014" 
d="M506 833h-5l-134 -454h273zM750 0l-73 228h-346l-73 -228h-188l328 1003h211l335 -1003h-194zM573 1206q0 30 -19.5 50t-48.5 20t-49.5 -20t-20.5 -50t20.5 -50.5t49.5 -20.5t48.5 20.5t19.5 50.5zM643 1206q0 -29 -10.5 -54.5t-29 -44t-44 -29t-54.5 -10.5
q-30 0 -55.5 10.5t-44 29.5t-29.5 44t-11 54q0 30 11 55t29.5 44t44 29.5t55.5 10.5q29 0 54.5 -10.5t44 -29.5t29 -44t10.5 -55z" />
    <glyph glyph-name="AE" unicode="&#xc6;" horiz-adv-x="1381" 
d="M663 847h-83l-189 -468h272v468zM663 0v228h-314l-91 -228h-188l422 1000h745v-153h-393v-251h355v-154h-355v-292h407v-150h-588z" />
    <glyph glyph-name="Ccedilla" unicode="&#xc7;" horiz-adv-x="991" 
d="M727 -208q0 -31 -9.5 -58t-29 -47.5t-48.5 -32t-69 -11.5q-43 0 -80 12.5t-60 27.5l30 74q27 -17 51 -23.5t52 -6.5q23 0 39.5 16t16.5 49q0 20 -15 36t-44 16q-13 0 -26 -2t-26 -9l-36 29l64 124q-104 5 -179 46t-123.5 109.5t-71.5 160.5t-23 200q0 104 25.5 197
t78 163.5t133.5 112t193 41.5q98 0 174.5 -36.5t149.5 -110.5l-107 -124q-25 29 -49 51t-49.5 37t-53.5 22.5t-61 7.5q-62 0 -108 -24.5t-77 -71t-46.5 -113.5t-15.5 -152q0 -69 12 -134.5t40.5 -117.5t76 -83.5t118.5 -31.5q68 0 121.5 29.5t109.5 89.5l96 -125
q-63 -63 -134 -99t-157 -44l-40 -73l1 -1q7 1 23.5 2.5t25.5 1.5q44 0 75.5 -31t31.5 -93z" />
    <glyph glyph-name="Egrave" unicode="&#xc8;" horiz-adv-x="897" 
d="M180 0v1000h573v-153h-394v-251h356v-154h-356v-292h408v-150h-587zM487 1089l-242 148l148 81l193 -174z" />
    <glyph glyph-name="Eacute" unicode="&#xc9;" horiz-adv-x="897" 
d="M180 0v1000h573v-153h-394v-251h356v-154h-356v-292h408v-150h-587zM454 1089l-100 55l194 174l147 -81z" />
    <glyph glyph-name="Ecircumflex" unicode="&#xca;" horiz-adv-x="897" 
d="M180 0v1000h573v-153h-394v-251h356v-154h-356v-292h408v-150h-587zM641 1083l-165 90l-165 -92l-55 93l220 131l222 -131z" />
    <glyph glyph-name="Edieresis" unicode="&#xcb;" horiz-adv-x="897" 
d="M180 0v1000h573v-153h-394v-251h356v-154h-356v-292h408v-150h-587zM404 1188q0 -21 -8 -39t-21.5 -31t-31 -21t-35.5 -8q-43 0 -71.5 29t-28.5 70q0 39 28.5 68t71.5 29q18 0 35.5 -8t31 -21t21.5 -31t8 -37zM732 1188q0 -21 -8.5 -39t-22 -31t-31 -21t-36.5 -8
q-41 0 -70.5 29t-29.5 70q0 39 29.5 68t70.5 29q19 0 36.5 -8t31 -21t22 -31t8.5 -37z" />
    <glyph glyph-name="Igrave" unicode="&#xcc;" horiz-adv-x="541" 
d="M180 0v1000h181v-1000h-181zM274 1089l-242 148l148 81l193 -174z" />
    <glyph glyph-name="Iacute" unicode="&#xcd;" horiz-adv-x="541" 
d="M180 0v1000h181v-1000h-181zM271 1089l-100 55l194 174l147 -81z" />
    <glyph glyph-name="Icircumflex" unicode="&#xce;" horiz-adv-x="541" 
d="M180 0v1000h181v-1000h-181zM438 1083l-165 90l-165 -92l-55 93l220 131l222 -131z" />
    <glyph glyph-name="Idieresis" unicode="&#xcf;" horiz-adv-x="541" 
d="M180 0v1000h181v-1000h-181zM206 1188q0 -21 -8 -39t-21.5 -31t-31 -21t-35.5 -8q-43 0 -71.5 29t-28.5 70q0 39 28.5 68t71.5 29q18 0 35.5 -8t31 -21t21.5 -31t8 -37zM534 1188q0 -21 -8.5 -39t-22 -31t-31 -21t-36.5 -8q-41 0 -70.5 29t-29.5 70q0 39 29.5 68t70.5 29
q19 0 36.5 -8t31 -21t22 -31t8.5 -37z" />
    <glyph glyph-name="Eth" unicode="&#xd0;" horiz-adv-x="1073" 
d="M359 445v-298q32 -2 55 -2.5t48 -0.5q70 0 123 19.5t88.5 63t53.5 113t18 169.5q0 69 -10.5 133.5t-38.5 114.5t-78 80t-129 30q-32 0 -65 -1t-65 -4v-267h176v-150h-176zM933 505q0 -117 -27.5 -210.5t-84.5 -159t-143 -100.5t-203 -35h-295v445h-92v150h92v399
q33 3 71 6.5t77.5 5.5t78.5 3.5t74 1.5q110 0 194.5 -33.5t141.5 -98t86.5 -159t29.5 -215.5z" />
    <glyph glyph-name="Ntilde" unicode="&#xd1;" horiz-adv-x="1130" 
d="M777 0l-422 670h-3v-670h-172v1000h175l420 -663h2v663h173v-1000h-173zM839 1207q-10 -27 -27.5 -47t-40.5 -34t-47.5 -21t-49.5 -7q-30 0 -55.5 8.5t-49 17.5t-45.5 17.5t-43 8.5q-26 0 -53 -13t-41 -42l-80 62q22 54 63.5 84t95.5 30q29 0 55 -7.5t49.5 -17.5
t45.5 -17.5t44 -7.5q26 0 52.5 12.5t37.5 39.5z" />
    <glyph glyph-name="Ograve" unicode="&#xd2;" horiz-adv-x="1154" 
d="M825 501q0 80 -11.5 147.5t-40 116t-76 75.5t-120.5 27t-121.5 -27.5t-77 -76t-40 -116t-11.5 -146.5q0 -80 11.5 -148t40.5 -117.5t77 -77t122 -27.5q72 0 120 28t76 77.5t39.5 117t11.5 147.5zM1014 501q0 -119 -28 -214.5t-83.5 -163t-137 -104t-188.5 -36.5
q-108 0 -189.5 36.5t-136.5 104t-83 163t-28 214.5q0 117 28 212t82.5 162.5t136.5 104t190 36.5t190 -36.5t136.5 -104t82.5 -162.5t28 -212zM569 1104l-242 148l148 81l193 -174z" />
    <glyph glyph-name="Oacute" unicode="&#xd3;" horiz-adv-x="1154" 
d="M825 501q0 80 -11.5 147.5t-40 116t-76 75.5t-120.5 27t-121.5 -27.5t-77 -76t-40 -116t-11.5 -146.5q0 -80 11.5 -148t40.5 -117.5t77 -77t122 -27.5q72 0 120 28t76 77.5t39.5 117t11.5 147.5zM1014 501q0 -119 -28 -214.5t-83.5 -163t-137 -104t-188.5 -36.5
q-108 0 -189.5 36.5t-136.5 104t-83 163t-28 214.5q0 117 28 212t82.5 162.5t136.5 104t190 36.5t190 -36.5t136.5 -104t82.5 -162.5t28 -212zM564 1104l-100 55l194 174l147 -81z" />
    <glyph glyph-name="Ocircumflex" unicode="&#xd4;" horiz-adv-x="1154" 
d="M825 501q0 80 -11.5 147.5t-40 116t-76 75.5t-120.5 27t-121.5 -27.5t-77 -76t-40 -116t-11.5 -146.5q0 -80 11.5 -148t40.5 -117.5t77 -77t122 -27.5q72 0 120 28t76 77.5t39.5 117t11.5 147.5zM1014 501q0 -119 -28 -214.5t-83.5 -163t-137 -104t-188.5 -36.5
q-108 0 -189.5 36.5t-136.5 104t-83 163t-28 214.5q0 117 28 212t82.5 162.5t136.5 104t190 36.5t190 -36.5t136.5 -104t82.5 -162.5t28 -212zM739 1098l-165 90l-165 -92l-55 93l220 131l222 -131z" />
    <glyph glyph-name="Otilde" unicode="&#xd5;" horiz-adv-x="1154" 
d="M825 501q0 80 -11.5 147.5t-40 116t-76 75.5t-120.5 27t-121.5 -27.5t-77 -76t-40 -116t-11.5 -146.5q0 -80 11.5 -148t40.5 -117.5t77 -77t122 -27.5q72 0 120 28t76 77.5t39.5 117t11.5 147.5zM1014 501q0 -119 -28 -214.5t-83.5 -163t-137 -104t-188.5 -36.5
q-108 0 -189.5 36.5t-136.5 104t-83 163t-28 214.5q0 117 28 212t82.5 162.5t136.5 104t190 36.5t190 -36.5t136.5 -104t82.5 -162.5t28 -212zM842 1217q-10 -27 -27.5 -47t-40.5 -34t-47.5 -21t-49.5 -7q-30 0 -55.5 8.5t-49 17.5t-45.5 17.5t-43 8.5q-26 0 -53 -13
t-41 -42l-80 62q22 54 63.5 84t95.5 30q29 0 55 -7.5t49.5 -17.5t45.5 -17.5t44 -7.5q26 0 52.5 12.5t37.5 39.5z" />
    <glyph glyph-name="Odieresis" unicode="&#xd6;" horiz-adv-x="1154" 
d="M825 501q0 80 -11.5 147.5t-40 116t-76 75.5t-120.5 27t-121.5 -27.5t-77 -76t-40 -116t-11.5 -146.5q0 -80 11.5 -148t40.5 -117.5t77 -77t122 -27.5q72 0 120 28t76 77.5t39.5 117t11.5 147.5zM1014 501q0 -119 -28 -214.5t-83.5 -163t-137 -104t-188.5 -36.5
q-108 0 -189.5 36.5t-136.5 104t-83 163t-28 214.5q0 117 28 212t82.5 162.5t136.5 104t190 36.5t190 -36.5t136.5 -104t82.5 -162.5t28 -212zM520 1203q0 -21 -8 -39t-21.5 -31t-31 -21t-35.5 -8q-43 0 -71.5 29t-28.5 70q0 39 28.5 68t71.5 29q18 0 35.5 -8t31 -21
t21.5 -31t8 -37zM848 1203q0 -21 -8.5 -39t-22 -31t-31 -21t-36.5 -8q-41 0 -70.5 29t-29.5 70q0 39 29.5 68t70.5 29q19 0 36.5 -8t31 -21t22 -31t8.5 -37z" />
    <glyph glyph-name="multiply" unicode="&#xd7;" horiz-adv-x="960" 
d="M764 579l-184 -181l184 -181l-109 -109l-180 184l-180 -184l-109 109l185 181l-185 181l109 109l180 -184l180 184z" />
    <glyph glyph-name="Oslash" unicode="&#xd8;" horiz-adv-x="1154" 
d="M826 501q0 38 -3 73t-8 68l-413 -440q30 -34 72.5 -52.5t103.5 -18.5q73 0 120.5 28t76 77.5t40 117t11.5 147.5zM327 501q1 -42 3.5 -81t9.5 -74l416 444q-29 37 -73 57t-107 20q-73 0 -120.5 -27.5t-76 -76t-40 -116t-12.5 -146.5zM1014 501q0 -119 -28 -214.5
t-83.5 -163t-137 -104t-189.5 -36.5q-90 0 -161.5 25.5t-126.5 74.5l-92 -100l-102 103l107 114q-61 122 -61 301q0 117 27.5 212t82.5 162.5t136.5 104t189.5 36.5q94 0 167 -27.5t127 -78.5l100 106l107 -96l-121 -128q58 -122 58 -291z" />
    <glyph glyph-name="Ugrave" unicode="&#xd9;" horiz-adv-x="1087" 
d="M907 405q0 -101 -18.5 -179.5t-61 -132.5t-112.5 -82t-173 -28q-102 0 -171.5 28t-111.5 81.5t-60.5 132t-18.5 180.5v595h181v-594q0 -59 6 -108.5t25.5 -85t56 -55.5t96.5 -20q59 0 94.5 20t55 55.5t26 85t6.5 108.5v594h180v-595v0zM534 1089l-242 148l148 81
l193 -174z" />
    <glyph glyph-name="Uacute" unicode="&#xda;" horiz-adv-x="1087" 
d="M907 405q0 -101 -18.5 -179.5t-61 -132.5t-112.5 -82t-173 -28q-102 0 -171.5 28t-111.5 81.5t-60.5 132t-18.5 180.5v595h181v-594q0 -59 6 -108.5t25.5 -85t56 -55.5t96.5 -20q59 0 94.5 20t55 55.5t26 85t6.5 108.5v594h180v-595v0zM538 1089l-100 55l194 174l147 -81
z" />
    <glyph glyph-name="Ucircumflex" unicode="&#xdb;" horiz-adv-x="1087" 
d="M907 405q0 -101 -18.5 -179.5t-61 -132.5t-112.5 -82t-173 -28q-102 0 -171.5 28t-111.5 81.5t-60.5 132t-18.5 180.5v595h181v-594q0 -59 6 -108.5t25.5 -85t56 -55.5t96.5 -20q59 0 94.5 20t55 55.5t26 85t6.5 108.5v594h180v-595v0zM702 1083l-165 90l-165 -92l-55 93
l220 131l222 -131z" />
    <glyph glyph-name="Udieresis" unicode="&#xdc;" horiz-adv-x="1087" 
d="M907 405q0 -101 -18.5 -179.5t-61 -132.5t-112.5 -82t-173 -28q-102 0 -171.5 28t-111.5 81.5t-60.5 132t-18.5 180.5v595h181v-594q0 -59 6 -108.5t25.5 -85t56 -55.5t96.5 -20q59 0 94.5 20t55 55.5t26 85t6.5 108.5v594h180v-595v0zM481 1188q0 -21 -8 -39t-21.5 -31
t-31 -21t-35.5 -8q-43 0 -71.5 29t-28.5 70q0 39 28.5 68t71.5 29q18 0 35.5 -8t31 -21t21.5 -31t8 -37zM809 1188q0 -21 -8.5 -39t-22 -31t-31 -21t-36.5 -8q-41 0 -70.5 29t-29.5 70q0 39 29.5 68t70.5 29q19 0 36.5 -8t31 -21t22 -31t8.5 -37z" />
    <glyph glyph-name="Yacute" unicode="&#xdd;" horiz-adv-x="949" 
d="M566 389v-389h-180v384l-316 616h199l208 -456l209 456h193zM481 1089l-100 55l194 174l147 -81z" />
    <glyph glyph-name="Thorn" unicode="&#xde;" horiz-adv-x="987" 
d="M677 550q0 48 -9 81.5t-30.5 54.5t-56.5 30.5t-86 9.5q-29 0 -65 -2t-72 -5v-347h138q43 0 77 6.5t57 25.5t35 54t12 92zM857 550q0 -75 -18.5 -134.5t-58.5 -101.5t-103 -64.5t-151 -22.5h-168v-227h-178v1000h177v-133q33 2 66.5 4t65.5 2q81 0 148.5 -16t116 -53.5
t76 -99.5t27.5 -154z" />
    <glyph glyph-name="germandbls" unicode="&#xdf;" horiz-adv-x="979" 
d="M859 287q0 -75 -22 -129.5t-62 -89.5t-96 -51.5t-124 -16.5h-74v137q40 0 77.5 4.5t67 20t47 44.5t17.5 79q0 42 -13 74t-41 58t-71.5 48t-104.5 44l-20 109q42 39 69 68.5t43.5 55t23 50.5t6.5 52q0 26 -4.5 48t-16.5 38t-33 25t-53 9q-60 0 -81 -34.5t-21 -102.5v-827
h-175v662h-108v144h108v17q0 56 10.5 105.5t41.5 86t85 58t139 21.5q128 0 198.5 -57t70.5 -181q0 -38 -7 -68t-23 -59t-40.5 -57.5t-58.5 -59.5v-3q55 -27 100.5 -56t77.5 -66t49.5 -85.5t17.5 -114.5z" />
    <glyph glyph-name="agrave" unicode="&#xe0;" horiz-adv-x="968" 
d="M611 417q-51 0 -104 -6.5t-96.5 -25.5t-71 -54.5t-27.5 -92.5q0 -58 27 -95.5t84 -37.5q52 0 99 21.5t89 59.5v231zM731 -12q-40 11 -66.5 32.5t-37.5 63.5h-3q-52 -48 -115 -75t-135 -27q-56 0 -99.5 18t-73.5 51t-45.5 78.5t-15.5 100.5q0 62 20.5 108.5t56 79.5
t82.5 54.5t99.5 33.5t107.5 17t106 5v31q0 34 -5 60t-18 44t-36 27t-59 9q-76 0 -144 -22t-131 -58l-49 129q82 43 161.5 64t171.5 21q79 0 133 -18t87 -54.5t47.5 -91.5t14.5 -128v-346q0 -23 2 -38.5t8 -27.5t16.5 -21.5t26.5 -19.5zM477 924l-242 148l148 81l193 -174z
" />
    <glyph glyph-name="aacute" unicode="&#xe1;" horiz-adv-x="968" 
d="M611 417q-51 0 -104 -6.5t-96.5 -25.5t-71 -54.5t-27.5 -92.5q0 -58 27 -95.5t84 -37.5q52 0 99 21.5t89 59.5v231zM731 -12q-40 11 -66.5 32.5t-37.5 63.5h-3q-52 -48 -115 -75t-135 -27q-56 0 -99.5 18t-73.5 51t-45.5 78.5t-15.5 100.5q0 62 20.5 108.5t56 79.5
t82.5 54.5t99.5 33.5t107.5 17t106 5v31q0 34 -5 60t-18 44t-36 27t-59 9q-76 0 -144 -22t-131 -58l-49 129q82 43 161.5 64t171.5 21q79 0 133 -18t87 -54.5t47.5 -91.5t14.5 -128v-346q0 -23 2 -38.5t8 -27.5t16.5 -21.5t26.5 -19.5zM485 924l-100 55l194 174l147 -81z
" />
    <glyph glyph-name="acircumflex" unicode="&#xe2;" horiz-adv-x="968" 
d="M611 417q-51 0 -104 -6.5t-96.5 -25.5t-71 -54.5t-27.5 -92.5q0 -58 27 -95.5t84 -37.5q52 0 99 21.5t89 59.5v231zM731 -12q-40 11 -66.5 32.5t-37.5 63.5h-3q-52 -48 -115 -75t-135 -27q-56 0 -99.5 18t-73.5 51t-45.5 78.5t-15.5 100.5q0 62 20.5 108.5t56 79.5
t82.5 54.5t99.5 33.5t107.5 17t106 5v31q0 34 -5 60t-18 44t-36 27t-59 9q-76 0 -144 -22t-131 -58l-49 129q82 43 161.5 64t171.5 21q79 0 133 -18t87 -54.5t47.5 -91.5t14.5 -128v-346q0 -23 2 -38.5t8 -27.5t16.5 -21.5t26.5 -19.5zM639 918l-165 90l-165 -92l-55 93
l220 131l222 -131z" />
    <glyph glyph-name="atilde" unicode="&#xe3;" horiz-adv-x="968" 
d="M611 417q-51 0 -104 -6.5t-96.5 -25.5t-71 -54.5t-27.5 -92.5q0 -58 27 -95.5t84 -37.5q52 0 99 21.5t89 59.5v231zM731 -12q-40 11 -66.5 32.5t-37.5 63.5h-3q-52 -48 -115 -75t-135 -27q-56 0 -99.5 18t-73.5 51t-45.5 78.5t-15.5 100.5q0 62 20.5 108.5t56 79.5
t82.5 54.5t99.5 33.5t107.5 17t106 5v31q0 34 -5 60t-18 44t-36 27t-59 9q-76 0 -144 -22t-131 -58l-49 129q82 43 161.5 64t171.5 21q79 0 133 -18t87 -54.5t47.5 -91.5t14.5 -128v-346q0 -23 2 -38.5t8 -27.5t16.5 -21.5t26.5 -19.5zM745 1037q-10 -27 -27.5 -47
t-40.5 -34t-47.5 -21t-49.5 -7q-30 0 -55.5 8.5t-49 17.5t-45.5 17.5t-43 8.5q-26 0 -53 -13t-41 -42l-80 62q22 54 63.5 84t95.5 30q29 0 55 -7.5t49.5 -17.5t45.5 -17.5t44 -7.5q26 0 52.5 12.5t37.5 39.5z" />
    <glyph glyph-name="adieresis" unicode="&#xe4;" horiz-adv-x="968" 
d="M611 417q-51 0 -104 -6.5t-96.5 -25.5t-71 -54.5t-27.5 -92.5q0 -58 27 -95.5t84 -37.5q52 0 99 21.5t89 59.5v231zM731 -12q-40 11 -66.5 32.5t-37.5 63.5h-3q-52 -48 -115 -75t-135 -27q-56 0 -99.5 18t-73.5 51t-45.5 78.5t-15.5 100.5q0 62 20.5 108.5t56 79.5
t82.5 54.5t99.5 33.5t107.5 17t106 5v31q0 34 -5 60t-18 44t-36 27t-59 9q-76 0 -144 -22t-131 -58l-49 129q82 43 161.5 64t171.5 21q79 0 133 -18t87 -54.5t47.5 -91.5t14.5 -128v-346q0 -23 2 -38.5t8 -27.5t16.5 -21.5t26.5 -19.5zM426 1023q0 -21 -8 -39t-21.5 -31
t-31 -21t-35.5 -8q-43 0 -71.5 29t-28.5 70q0 39 28.5 68t71.5 29q18 0 35.5 -8t31 -21t21.5 -31t8 -37zM754 1023q0 -21 -8.5 -39t-22 -31t-31 -21t-36.5 -8q-41 0 -70.5 29t-29.5 70q0 39 29.5 68t70.5 29q19 0 36.5 -8t31 -21t22 -31t8.5 -37z" />
    <glyph glyph-name="aring" unicode="&#xe5;" horiz-adv-x="968" 
d="M611 417q-51 0 -104 -6.5t-96.5 -25.5t-71 -54.5t-27.5 -92.5q0 -58 27 -95.5t84 -37.5q52 0 99 21.5t89 59.5v231zM731 -12q-40 11 -66.5 32.5t-37.5 63.5h-3q-52 -48 -115 -75t-135 -27q-56 0 -99.5 18t-73.5 51t-45.5 78.5t-15.5 100.5q0 62 20.5 108.5t56 79.5
t82.5 54.5t99.5 33.5t107.5 17t106 5v31q0 34 -5 60t-18 44t-36 27t-59 9q-76 0 -144 -22t-131 -58l-49 129q82 43 161.5 64t171.5 21q79 0 133 -18t87 -54.5t47.5 -91.5t14.5 -128v-346q0 -23 2 -38.5t8 -27.5t16.5 -21.5t26.5 -19.5zM558 1046q0 30 -19.5 50t-48.5 20
t-49.5 -20t-20.5 -50t20.5 -50.5t49.5 -20.5t48.5 20.5t19.5 50.5zM628 1046q0 -29 -10.5 -54.5t-29 -44t-44 -29t-54.5 -10.5q-30 0 -55.5 10.5t-44 29.5t-29.5 44t-11 54q0 30 11 55t29.5 44t44 29.5t55.5 10.5q29 0 54.5 -10.5t44 -29.5t29 -44t10.5 -55z" />
    <glyph glyph-name="ae" unicode="&#xe6;" horiz-adv-x="1455" 
d="M612 417q-153 0 -226.5 -43.5t-73.5 -136.5q0 -60 29.5 -97t80.5 -37t95 19.5t95 64.5v230zM1150 474q-2 46 -11 87.5t-29 72t-53 48.5t-83 18q-84 0 -132.5 -56t-50.5 -170h359v0zM1315 409q0 -11 -1.5 -26t-2.5 -35h-518q2 -111 53 -167.5t151 -56.5q55 0 108 17.5
t106 55.5l54 -131q-124 -84 -278 -84q-99 0 -170.5 34.5t-117.5 100.5q-60 -68 -138 -101.5t-173 -33.5q-60 0 -106 17.5t-77.5 50t-48 78.5t-16.5 102q0 82 36 139.5t99 93.5t149.5 52t188.5 16v25q0 33 -3 58.5t-15 43t-35.5 26t-64.5 8.5q-63 0 -132 -18.5t-146 -60.5
l-49 136q85 43 165.5 64.5t171.5 21.5q76 0 136 -21t95 -74q45 48 106.5 72t133.5 24q78 0 141 -27t107 -80t67.5 -133.5t23.5 -186.5z" />
    <glyph glyph-name="ccedilla" unicode="&#xe7;" horiz-adv-x="864" 
d="M657 -208q0 -31 -9.5 -58t-28.5 -47.5t-48 -32t-68 -11.5q-45 0 -81.5 12.5t-59.5 27.5l30 74q27 -17 51 -23.5t53 -6.5q23 0 39 16t16 49q0 20 -15 36t-43 16q-14 0 -27 -2t-26 -9l-36 29l63 121q-86 6 -148 41.5t-101.5 92.5t-58.5 132t-19 159q0 88 22 165.5t68 135
t116 91t166 33.5q72 0 137 -23.5t124 -67.5l-72 -127q-42 39 -84 58.5t-100 19.5q-59 0 -97.5 -25.5t-60.5 -66t-30.5 -91t-8.5 -99.5q0 -51 9 -103t31.5 -93.5t61.5 -67.5t98 -26q57 0 104.5 20.5t93.5 56.5l56 -126q-56 -39 -112.5 -61t-122.5 -28l-38 -70l2 -1
q5 1 22 2.5t26 1.5q45 0 75.5 -31t30.5 -93z" />
    <glyph glyph-name="egrave" unicode="&#xe8;" horiz-adv-x="974" 
d="M671 469q0 47 -8.5 89t-27.5 73.5t-51 50t-80 18.5q-86 0 -135.5 -59t-49.5 -172h352v0zM834 414v-29t-2 -34h-512q0 -112 49.5 -171.5t151.5 -59.5q57 0 108 16.5t108 54.5l55 -127q-69 -44 -136 -63t-144 -19q-91 0 -160.5 29.5t-116.5 85t-71 134t-24 177.5
q0 107 27 186.5t75.5 132.5t115 79.5t145.5 26.5q165 0 248 -107.5t83 -311.5zM503 924l-242 148l148 81l193 -174z" />
    <glyph glyph-name="eacute" unicode="&#xe9;" horiz-adv-x="974" 
d="M671 469q0 47 -8.5 89t-27.5 73.5t-51 50t-80 18.5q-86 0 -135.5 -59t-49.5 -172h352v0zM834 414v-29t-2 -34h-512q0 -112 49.5 -171.5t151.5 -59.5q57 0 108 16.5t108 54.5l55 -127q-69 -44 -136 -63t-144 -19q-91 0 -160.5 29.5t-116.5 85t-71 134t-24 177.5
q0 107 27 186.5t75.5 132.5t115 79.5t145.5 26.5q165 0 248 -107.5t83 -311.5zM532 924l-100 55l194 174l147 -81z" />
    <glyph glyph-name="ecircumflex" unicode="&#xea;" horiz-adv-x="974" 
d="M671 469q0 47 -8.5 89t-27.5 73.5t-51 50t-80 18.5q-86 0 -135.5 -59t-49.5 -172h352v0zM834 414v-29t-2 -34h-512q0 -112 49.5 -171.5t151.5 -59.5q57 0 108 16.5t108 54.5l55 -127q-69 -44 -136 -63t-144 -19q-91 0 -160.5 29.5t-116.5 85t-71 134t-24 177.5
q0 107 27 186.5t75.5 132.5t115 79.5t145.5 26.5q165 0 248 -107.5t83 -311.5zM672 918l-165 90l-165 -92l-55 93l220 131l222 -131z" />
    <glyph glyph-name="edieresis" unicode="&#xeb;" horiz-adv-x="974" 
d="M671 469q0 47 -8.5 89t-27.5 73.5t-51 50t-80 18.5q-86 0 -135.5 -59t-49.5 -172h352v0zM834 414v-29t-2 -34h-512q0 -112 49.5 -171.5t151.5 -59.5q57 0 108 16.5t108 54.5l55 -127q-69 -44 -136 -63t-144 -19q-91 0 -160.5 29.5t-116.5 85t-71 134t-24 177.5
q0 107 27 186.5t75.5 132.5t115 79.5t145.5 26.5q165 0 248 -107.5t83 -311.5zM434 1023q0 -21 -8 -39t-21.5 -31t-31 -21t-35.5 -8q-43 0 -71.5 29t-28.5 70q0 39 28.5 68t71.5 29q18 0 35.5 -8t31 -21t21.5 -31t8 -37zM762 1023q0 -21 -8.5 -39t-22 -31t-31 -21t-36.5 -8
q-41 0 -70.5 29t-29.5 70q0 39 29.5 68t70.5 29q19 0 36.5 -8t31 -21t22 -31t8.5 -37z" />
    <glyph glyph-name="igrave" unicode="&#xec;" horiz-adv-x="540" 
d="M182 0v817h177v-817h-177zM270 924l-242 148l148 81l193 -174z" />
    <glyph glyph-name="iacute" unicode="&#xed;" horiz-adv-x="540" 
d="M182 0v817h177v-817h-177zM278 924l-100 55l194 174l147 -81z" />
    <glyph glyph-name="icircumflex" unicode="&#xee;" horiz-adv-x="540" 
d="M182 0v817h177v-817h-177zM435 918l-165 90l-165 -92l-55 93l220 131l222 -131z" />
    <glyph glyph-name="idieresis" unicode="&#xef;" horiz-adv-x="540" 
d="M182 0v817h177v-817h-177zM206 1023q0 -21 -8 -39t-21.5 -31t-31 -21t-35.5 -8q-43 0 -71.5 29t-28.5 70q0 39 28.5 68t71.5 29q18 0 35.5 -8t31 -21t21.5 -31t8 -37zM534 1023q0 -21 -8.5 -39t-22 -31t-31 -21t-36.5 -8q-41 0 -70.5 29t-29.5 70q0 39 29.5 68t70.5 29
q19 0 36.5 -8t31 -21t22 -31t8.5 -37z" />
    <glyph glyph-name="eth" unicode="&#xf0;" horiz-adv-x="1009" 
d="M691 408q0 58 -7.5 107t-28 85t-57 56t-94.5 20q-57 0 -93 -20t-56 -56t-27.5 -85t-7.5 -107q0 -64 8 -116.5t29 -90.5t57 -59t92 -21q54 0 90 21t57 59t29.5 90.5t8.5 116.5zM721 973q35 -70 62.5 -138t46.5 -137.5t29 -141.5t10 -148q0 -95 -22 -173t-67.5 -134.5
t-114 -87.5t-161.5 -31t-161.5 31t-113.5 87t-67 134.5t-22 173.5q0 93 21.5 168.5t66.5 129.5t113.5 83.5t162.5 29.5q35 0 69.5 -13.5t53.5 -36.5l7 4q-8 37 -19 71.5t-25 63.5l-59 -29l-41 92l61 32q-9 20 -20 43t-22 42l118 53q11 -16 24.5 -38.5t22.5 -38.5l118 61
l45 -92z" />
    <glyph glyph-name="ntilde" unicode="&#xf1;" horiz-adv-x="1012" 
d="M656 0v466q0 47 -2.5 87t-16 69.5t-41 46t-77.5 16.5q-86 0 -125 -48t-39 -139v-498h-175v817h154l14 -88h3q38 58 93.5 81t124.5 23q78 0 128.5 -23.5t80.5 -67.5t42 -107.5t12 -144.5v-490h-176zM772 1037q-10 -27 -27.5 -47t-40.5 -34t-47.5 -21t-49.5 -7
q-30 0 -55.5 8.5t-49 17.5t-45.5 17.5t-43 8.5q-26 0 -53 -13t-41 -42l-80 62q22 54 63.5 84t95.5 30q29 0 55 -7.5t49.5 -17.5t45.5 -17.5t44 -7.5q26 0 52.5 12.5t37.5 39.5z" />
    <glyph glyph-name="ograve" unicode="&#xf2;" horiz-adv-x="1009" 
d="M691 408q0 58 -7.5 109.5t-28 90t-57 61t-94.5 22.5q-57 0 -93 -22.5t-56 -61t-27.5 -90t-7.5 -109.5q0 -64 8 -116.5t29 -90.5t57 -59t92 -21q54 0 90 21t57 59t29.5 90.5t8.5 116.5zM869 408q0 -95 -22 -173t-67.5 -134.5t-114 -87.5t-161.5 -31t-161.5 31t-113.5 87
t-67 134.5t-22 173.5q0 93 21.5 171t66.5 134.5t113.5 88t162.5 31.5q93 0 161.5 -30.5t113.5 -86.5t67.5 -134t22.5 -174zM510 924l-242 148l148 81l193 -174z" />
    <glyph glyph-name="oacute" unicode="&#xf3;" horiz-adv-x="1009" 
d="M691 408q0 58 -7.5 109.5t-28 90t-57 61t-94.5 22.5q-57 0 -93 -22.5t-56 -61t-27.5 -90t-7.5 -109.5q0 -64 8 -116.5t29 -90.5t57 -59t92 -21q54 0 90 21t57 59t29.5 90.5t8.5 116.5zM869 408q0 -95 -22 -173t-67.5 -134.5t-114 -87.5t-161.5 -31t-161.5 31t-113.5 87
t-67 134.5t-22 173.5q0 93 21.5 171t66.5 134.5t113.5 88t162.5 31.5q93 0 161.5 -30.5t113.5 -86.5t67.5 -134t22.5 -174zM501 924l-100 55l194 174l147 -81z" />
    <glyph glyph-name="ocircumflex" unicode="&#xf4;" horiz-adv-x="1009" 
d="M691 408q0 58 -7.5 109.5t-28 90t-57 61t-94.5 22.5q-57 0 -93 -22.5t-56 -61t-27.5 -90t-7.5 -109.5q0 -64 8 -116.5t29 -90.5t57 -59t92 -21q54 0 90 21t57 59t29.5 90.5t8.5 116.5zM869 408q0 -95 -22 -173t-67.5 -134.5t-114 -87.5t-161.5 -31t-161.5 31t-113.5 87
t-67 134.5t-22 173.5q0 93 21.5 171t66.5 134.5t113.5 88t162.5 31.5q93 0 161.5 -30.5t113.5 -86.5t67.5 -134t22.5 -174zM671 918l-165 90l-165 -92l-55 93l220 131l222 -131z" />
    <glyph glyph-name="otilde" unicode="&#xf5;" horiz-adv-x="1009" 
d="M691 408q0 58 -7.5 109.5t-28 90t-57 61t-94.5 22.5q-57 0 -93 -22.5t-56 -61t-27.5 -90t-7.5 -109.5q0 -64 8 -116.5t29 -90.5t57 -59t92 -21q54 0 90 21t57 59t29.5 90.5t8.5 116.5zM869 408q0 -95 -22 -173t-67.5 -134.5t-114 -87.5t-161.5 -31t-161.5 31t-113.5 87
t-67 134.5t-22 173.5q0 93 21.5 171t66.5 134.5t113.5 88t162.5 31.5q93 0 161.5 -30.5t113.5 -86.5t67.5 -134t22.5 -174zM775 1037q-10 -27 -27.5 -47t-40.5 -34t-47.5 -21t-49.5 -7q-30 0 -55.5 8.5t-49 17.5t-45.5 17.5t-43 8.5q-26 0 -53 -13t-41 -42l-80 62
q22 54 63.5 84t95.5 30q29 0 55 -7.5t49.5 -17.5t45.5 -17.5t44 -7.5q26 0 52.5 12.5t37.5 39.5z" />
    <glyph glyph-name="odieresis" unicode="&#xf6;" horiz-adv-x="1009" 
d="M691 408q0 58 -7.5 109.5t-28 90t-57 61t-94.5 22.5q-57 0 -93 -22.5t-56 -61t-27.5 -90t-7.5 -109.5q0 -64 8 -116.5t29 -90.5t57 -59t92 -21q54 0 90 21t57 59t29.5 90.5t8.5 116.5zM869 408q0 -95 -22 -173t-67.5 -134.5t-114 -87.5t-161.5 -31t-161.5 31t-113.5 87
t-67 134.5t-22 173.5q0 93 21.5 171t66.5 134.5t113.5 88t162.5 31.5q93 0 161.5 -30.5t113.5 -86.5t67.5 -134t22.5 -174zM444 1015q0 -21 -8 -39t-21.5 -31t-31 -21t-35.5 -8q-43 0 -71.5 29t-28.5 70q0 39 28.5 68t71.5 29q18 0 35.5 -8t31 -21t21.5 -31t8 -37zM772 1015
q0 -21 -8.5 -39t-22 -31t-31 -21t-36.5 -8q-41 0 -70.5 29t-29.5 70q0 39 29.5 68t70.5 29q19 0 36.5 -8t31 -21t22 -31t8.5 -37z" />
    <glyph glyph-name="oslash" unicode="&#xf8;" horiz-adv-x="1009" 
d="M320 408q0 -31 1.5 -58t5.5 -52l308 337q-21 26 -52.5 41t-78.5 15q-57 0 -93 -22.5t-56 -61t-27.5 -90t-7.5 -109.5zM691 408q0 29 -2.5 57.5t-7.5 54.5l-310 -340q22 -28 54.5 -43.5t80.5 -15.5q54 0 90 21t57 59t29.5 90.5t8.5 116.5zM869 408q0 -95 -22 -173
t-67.5 -134.5t-114 -87.5t-161.5 -31q-150 0 -239 81l-73 -81l-83 76l86 95q-55 104 -55 255q0 93 21.5 171t66.5 134.5t113.5 88t162.5 31.5q76 0 135 -20.5t104 -59.5l71 79l88 -72l-88 -97q28 -51 41.5 -115.5t13.5 -139.5z" />
    <glyph glyph-name="ugrave" unicode="&#xf9;" 
d="M663 0l-11 87h-5q-34 -51 -86 -79t-131 -28q-62 0 -109 16.5t-78.5 54.5t-47 99t-15.5 150v517h175v-462q0 -51 3 -92.5t16.5 -71t40.5 -46t75 -16.5q45 0 75 12.5t48 37.5t25.5 61.5t7.5 83.5v493h175v-817h-158zM501 924l-242 148l148 81l193 -174z" />
    <glyph glyph-name="uacute" unicode="&#xfa;" 
d="M663 0l-11 87h-5q-34 -51 -86 -79t-131 -28q-62 0 -109 16.5t-78.5 54.5t-47 99t-15.5 150v517h175v-462q0 -51 3 -92.5t16.5 -71t40.5 -46t75 -16.5q45 0 75 12.5t48 37.5t25.5 61.5t7.5 83.5v493h175v-817h-158zM505 924l-100 55l194 174l147 -81z" />
    <glyph glyph-name="ucircumflex" unicode="&#xfb;" 
d="M663 0l-11 87h-5q-34 -51 -86 -79t-131 -28q-62 0 -109 16.5t-78.5 54.5t-47 99t-15.5 150v517h175v-462q0 -51 3 -92.5t16.5 -71t40.5 -46t75 -16.5q45 0 75 12.5t48 37.5t25.5 61.5t7.5 83.5v493h175v-817h-158zM662 918l-165 90l-165 -92l-55 93l220 131l222 -131z
" />
    <glyph glyph-name="udieresis" unicode="&#xfc;" 
d="M663 0l-11 87h-5q-34 -51 -86 -79t-131 -28q-62 0 -109 16.5t-78.5 54.5t-47 99t-15.5 150v517h175v-462q0 -51 3 -92.5t16.5 -71t40.5 -46t75 -16.5q45 0 75 12.5t48 37.5t25.5 61.5t7.5 83.5v493h175v-817h-158zM435 1023q0 -21 -8 -39t-21.5 -31t-31 -21t-35.5 -8
q-43 0 -71.5 29t-28.5 70q0 39 28.5 68t71.5 29q18 0 35.5 -8t31 -21t21.5 -31t8 -37zM763 1023q0 -21 -8.5 -39t-22 -31t-31 -21t-36.5 -8q-41 0 -70.5 29t-29.5 70q0 39 29.5 68t70.5 29q19 0 36.5 -8t31 -21t22 -31t8.5 -37z" />
    <glyph glyph-name="yacute" unicode="&#xfd;" horiz-adv-x="884" 
d="M523 -36q-26 -76 -50.5 -129.5t-56 -87.5t-73 -50t-102.5 -16q-23 0 -47 1.5t-56 5.5v147q12 -2 31.5 -2.5t41.5 -0.5q28 0 47 4.5t33.5 17t25.5 34t22 56.5l16 57l-275 816h185l180 -629h3l171 629h185zM454 924l-100 55l194 174l147 -81z" />
    <glyph glyph-name="thorn" unicode="&#xfe;" 
d="M682 409q0 46 -4 97t-20.5 93t-51 69.5t-94.5 27.5q-80 0 -118.5 -48.5t-38.5 -127.5v-199q0 -40 7.5 -77t25.5 -65t48.5 -45t75.5 -17q57 0 90.5 29t51.5 73t23 95t5 95zM861 412q0 -75 -15.5 -152t-51.5 -138.5t-95.5 -100.5t-148.5 -39q-64 0 -110.5 22t-82.5 76h-3
v-388h-174v1393h174v-350q35 51 84 74.5t117 23.5q88 0 147 -37.5t94.5 -97.5t50 -135.5t14.5 -150.5z" />
    <glyph glyph-name="ydieresis" unicode="&#xff;" horiz-adv-x="884" 
d="M523 -36q-26 -76 -50.5 -129.5t-56 -87.5t-73 -50t-102.5 -16q-23 0 -47 1.5t-56 5.5v147q12 -2 31.5 -2.5t41.5 -0.5q28 0 47 4.5t33.5 17t25.5 34t22 56.5l16 57l-275 816h185l180 -629h3l171 629h185zM384 1023q0 -21 -8 -39t-21.5 -31t-31 -21t-35.5 -8
q-43 0 -71.5 29t-28.5 70q0 39 28.5 68t71.5 29q18 0 35.5 -8t31 -21t21.5 -31t8 -37zM712 1023q0 -21 -8.5 -39t-22 -31t-31 -21t-36.5 -8q-41 0 -70.5 29t-29.5 70q0 39 29.5 68t70.5 29q19 0 36.5 -8t31 -21t22 -31t8.5 -37z" />
    <glyph glyph-name="Amacron" unicode="&#x100;" horiz-adv-x="1014" 
d="M506 833h-5l-134 -454h273zM750 0l-73 228h-346l-73 -228h-188l328 1003h211l335 -1003h-194zM289 1112v123h427v-123h-427z" />
    <glyph glyph-name="amacron" unicode="&#x101;" horiz-adv-x="968" 
d="M611 417q-51 0 -104 -6.5t-96.5 -25.5t-71 -54.5t-27.5 -92.5q0 -58 27 -95.5t84 -37.5q52 0 99 21.5t89 59.5v231zM731 -12q-40 11 -66.5 32.5t-37.5 63.5h-3q-52 -48 -115 -75t-135 -27q-56 0 -99.5 18t-73.5 51t-45.5 78.5t-15.5 100.5q0 62 20.5 108.5t56 79.5
t82.5 54.5t99.5 33.5t107.5 17t106 5v31q0 34 -5 60t-18 44t-36 27t-59 9q-76 0 -144 -22t-131 -58l-49 129q82 43 161.5 64t171.5 21q79 0 133 -18t87 -54.5t47.5 -91.5t14.5 -128v-346q0 -23 2 -38.5t8 -27.5t16.5 -21.5t26.5 -19.5zM281 947v123h427v-123h-427z" />
    <glyph glyph-name="Abreve" unicode="&#x102;" horiz-adv-x="1014" 
d="M506 833h-5l-134 -454h273zM750 0l-73 228h-346l-73 -228h-188l328 1003h211l335 -1003h-194zM720 1295q0 -62 -23 -100t-56.5 -59t-71.5 -28.5t-69 -7.5q-33 0 -71.5 8t-70.5 29.5t-53.5 59.5t-21.5 98h102q6 -38 30 -65t84 -27t86.5 27t30.5 65h104v0z" />
    <glyph glyph-name="abreve" unicode="&#x103;" horiz-adv-x="968" 
d="M611 417q-51 0 -104 -6.5t-96.5 -25.5t-71 -54.5t-27.5 -92.5q0 -58 27 -95.5t84 -37.5q52 0 99 21.5t89 59.5v231zM731 -12q-40 11 -66.5 32.5t-37.5 63.5h-3q-52 -48 -115 -75t-135 -27q-56 0 -99.5 18t-73.5 51t-45.5 78.5t-15.5 100.5q0 62 20.5 108.5t56 79.5
t82.5 54.5t99.5 33.5t107.5 17t106 5v31q0 34 -5 60t-18 44t-36 27t-59 9q-76 0 -144 -22t-131 -58l-49 129q82 43 161.5 64t171.5 21q79 0 133 -18t87 -54.5t47.5 -91.5t14.5 -128v-346q0 -23 2 -38.5t8 -27.5t16.5 -21.5t26.5 -19.5zM700 1115q0 -62 -23 -100t-56.5 -59
t-71.5 -28.5t-69 -7.5q-33 0 -71.5 8t-70.5 29.5t-53.5 59.5t-21.5 98h102q6 -38 30 -65t84 -27t86.5 27t30.5 65h104v0z" />
    <glyph glyph-name="Aogonek" unicode="&#x104;" horiz-adv-x="1016" 
d="M506 833h-5l-134 -454h273zM946 -297q-23 -16 -58 -30.5t-88 -14.5q-81 0 -125 43t-44 115q0 35 14 65.5t33 54t39 40t33 24.5l-73 228h-346l-73 -228h-188l328 1003h211l335 -1003h-65q-22 -15 -42.5 -30.5t-36 -35t-24.5 -43.5t-9 -55q0 -29 16.5 -47.5t40.5 -18.5
t40 6.5t35 19.5l47 -93v0z" />
    <glyph glyph-name="aogonek" unicode="&#x105;" horiz-adv-x="968" 
d="M611 417q-51 0 -104 -6.5t-96.5 -25.5t-71 -54.5t-27.5 -92.5q0 -58 27 -95.5t84 -37.5q52 0 99 21.5t89 59.5v231zM816 -294q-23 -16 -57.5 -30t-87.5 -14q-81 0 -123 42.5t-42 114.5q0 35 13.5 65.5t35.5 56.5t49 47t53 38q-10 11 -17.5 24.5t-12.5 33.5h-3
q-52 -48 -115 -75t-135 -27q-56 0 -99.5 18t-73.5 51t-45.5 78.5t-15.5 100.5q0 62 20.5 108.5t56 79.5t82.5 54.5t99.5 33.5t107.5 17t106 5v31q0 34 -5 60t-18 44t-36 27t-59 9q-76 0 -144 -22t-131 -58l-49 129q82 43 161.5 64t171.5 21q79 0 133 -18t87 -54.5
t47.5 -91.5t14.5 -128v-346q0 -23 2 -38.5t8 -27.5t16.5 -21.5t26.5 -19.5q-60 -51 -98.5 -85.5t-61.5 -61.5t-32 -50t-9 -51q0 -30 16 -48.5t41 -18.5q23 0 39.5 6.5t35.5 19.5l47 -93v0z" />
    <glyph glyph-name="Cacute" unicode="&#x106;" horiz-adv-x="991" 
d="M901 129q-69 -70 -150.5 -108t-181.5 -38q-113 0 -194 39t-133.5 108.5t-77 164.5t-24.5 207q0 104 25.5 197t78 163.5t133.5 112t193 41.5q98 0 174.5 -36.5t149.5 -110.5l-107 -124q-25 29 -49 51t-49.5 37t-53.5 22.5t-61 7.5q-62 0 -108 -24.5t-77 -71t-46.5 -113.5
t-15.5 -152q0 -69 12 -134.5t40.5 -117.5t76 -83.5t118.5 -31.5q68 0 121.5 29.5t109.5 89.5l96 -125v0zM547 1104l-100 55l194 174l147 -81z" />
    <glyph glyph-name="cacute" unicode="&#x107;" horiz-adv-x="864" 
d="M701 615q-42 39 -84 58.5t-100 19.5q-59 0 -97.5 -25.5t-60.5 -66t-30.5 -91t-8.5 -99.5q0 -51 9 -103t31.5 -93.5t61.5 -67.5t98 -26q57 0 104.5 20.5t93.5 56.5l56 -126q-63 -45 -128 -67.5t-143 -22.5q-95 0 -164 33.5t-113 91.5t-65 135.5t-21 165.5t22 165.5t68 135
t116 91t166 33.5q72 0 137 -23.5t124 -67.5zM498 924l-100 55l194 174l147 -81z" />
    <glyph glyph-name="Ccaron" unicode="&#x10c;" horiz-adv-x="991" 
d="M901 129q-69 -70 -150.5 -108t-181.5 -38q-113 0 -194 39t-133.5 108.5t-77 164.5t-24.5 207q0 104 25.5 197t78 163.5t133.5 112t193 41.5q98 0 174.5 -36.5t149.5 -110.5l-107 -124q-25 29 -49 51t-49.5 37t-53.5 22.5t-61 7.5q-62 0 -108 -24.5t-77 -71t-46.5 -113.5
t-15.5 -152q0 -69 12 -134.5t40.5 -117.5t76 -83.5t118.5 -31.5q68 0 121.5 29.5t109.5 89.5l96 -125v0zM385 1318l165 -90l165 92l55 -93l-220 -131l-222 131z" />
    <glyph glyph-name="ccaron" unicode="&#x10d;" horiz-adv-x="864" 
d="M701 615q-42 39 -84 58.5t-100 19.5q-59 0 -97.5 -25.5t-60.5 -66t-30.5 -91t-8.5 -99.5q0 -51 9 -103t31.5 -93.5t61.5 -67.5t98 -26q57 0 104.5 20.5t93.5 56.5l56 -126q-63 -45 -128 -67.5t-143 -22.5q-95 0 -164 33.5t-113 91.5t-65 135.5t-21 165.5t22 165.5t68 135
t116 91t166 33.5q72 0 137 -23.5t124 -67.5zM337 1138l165 -90l165 92l55 -93l-220 -131l-222 131z" />
    <glyph glyph-name="Dcaron" unicode="&#x10e;" horiz-adv-x="1073" 
d="M745 509q0 69 -10.5 133.5t-38.5 114.5t-78 80t-129 30q-32 0 -65 -1t-65 -4v-715q32 -2 55 -2.5t48 -0.5q70 0 123 19.5t88.5 63t53.5 113t18 169.5zM933 505q0 -117 -27.5 -210.5t-84.5 -159t-143 -100.5t-203 -35h-295v994q33 3 71 6.5t77.5 5.5t78.5 3.5t74 1.5
q110 0 194.5 -33.5t141.5 -98t86.5 -159t29.5 -215.5zM308 1318l165 -90l165 92l55 -93l-220 -131l-222 131z" />
    <glyph glyph-name="dcaron" unicode="&#x10f;" horiz-adv-x="1002" 
d="M647 525q0 87 -41 127.5t-116 40.5q-56 0 -89.5 -22.5t-51.5 -61.5t-23.5 -91t-5.5 -110q0 -54 6.5 -106t25 -93.5t51.5 -66.5t87 -25q44 0 74 16t48.5 43t26.5 63.5t8 77.5v208zM671 0l-13 96h-4q-74 -114 -205 -114q-85 0 -144 37.5t-95.5 98t-53 137.5t-16.5 156
q0 88 17.5 165t54.5 134t95.5 90t141.5 33q61 0 111.5 -21.5t84.5 -75.5h2v349h175v-1085h-151zM1050 836h-113l38 249h175z" />
    <glyph glyph-name="Dmacron" unicode="&#x110;" horiz-adv-x="1073" 
d="M359 445v-298q32 -2 55 -2.5t48 -0.5q70 0 123 19.5t88.5 63t53.5 113t18 169.5q0 69 -10.5 133.5t-38.5 114.5t-78 80t-129 30q-32 0 -65 -1t-65 -4v-267h176v-150h-176zM933 505q0 -117 -27.5 -210.5t-84.5 -159t-143 -100.5t-203 -35h-295v445h-92v150h92v399
q33 3 71 6.5t77.5 5.5t78.5 3.5t74 1.5q110 0 194.5 -33.5t141.5 -98t86.5 -159t29.5 -215.5z" />
    <glyph glyph-name="dmacron" unicode="&#x111;" horiz-adv-x="1002" 
d="M647 525q0 87 -41 127.5t-116 40.5q-56 0 -89.5 -22.5t-51.5 -61.5t-23.5 -91t-5.5 -110q0 -54 6.5 -106t25 -93.5t51.5 -66.5t87 -25q44 0 74 16t48.5 43t26.5 63.5t8 77.5v208zM671 0l-13 96h-4q-74 -114 -205 -114q-85 0 -144 37.5t-95.5 98t-53 137.5t-16.5 156
q0 88 17.5 165t54.5 134t95.5 90t141.5 33q61 0 111.5 -21.5t84.5 -75.5h2v150h-111v114h111v85h175v-85h113v-114h-113v-886h-151z" />
    <glyph glyph-name="Emacron" unicode="&#x112;" horiz-adv-x="897" 
d="M180 0v1000h573v-153h-394v-251h356v-154h-356v-292h408v-150h-587zM258 1112v123h427v-123h-427z" />
    <glyph glyph-name="emacron" unicode="&#x113;" horiz-adv-x="974" 
d="M671 469q0 47 -8.5 89t-27.5 73.5t-51 50t-80 18.5q-86 0 -135.5 -59t-49.5 -172h352v0zM834 414v-29t-2 -34h-512q0 -112 49.5 -171.5t151.5 -59.5q57 0 108 16.5t108 54.5l55 -127q-69 -44 -136 -63t-144 -19q-91 0 -160.5 29.5t-116.5 85t-71 134t-24 177.5
q0 107 27 186.5t75.5 132.5t115 79.5t145.5 26.5q165 0 248 -107.5t83 -311.5zM290 947v123h427v-123h-427z" />
    <glyph glyph-name="Ebreve" unicode="&#x114;" horiz-adv-x="897" 
d="M180 0v1000h573v-153h-394v-251h356v-154h-356v-292h408v-150h-587zM697 1295q0 -62 -23 -100t-56.5 -59t-71.5 -28.5t-69 -7.5q-33 0 -71.5 8t-70.5 29.5t-53.5 59.5t-21.5 98h102q6 -38 30 -65t84 -27t86.5 27t30.5 65h104v0z" />
    <glyph glyph-name="ebreve" unicode="&#x115;" horiz-adv-x="974" 
d="M671 469q0 47 -8.5 89t-27.5 73.5t-51 50t-80 18.5q-86 0 -135.5 -59t-49.5 -172h352v0zM834 414v-29t-2 -34h-512q0 -112 49.5 -171.5t151.5 -59.5q57 0 108 16.5t108 54.5l55 -127q-69 -44 -136 -63t-144 -19q-91 0 -160.5 29.5t-116.5 85t-71 134t-24 177.5
q0 107 27 186.5t75.5 132.5t115 79.5t145.5 26.5q165 0 248 -107.5t83 -311.5zM719 1115q0 -62 -23 -100t-56.5 -59t-71.5 -28.5t-69 -7.5q-33 0 -71.5 8t-70.5 29.5t-53.5 59.5t-21.5 98h102q6 -38 30 -65t84 -27t86.5 27t30.5 65h104v0z" />
    <glyph glyph-name="Edotaccent" unicode="&#x116;" horiz-adv-x="897" 
d="M180 0v1000h573v-153h-394v-251h356v-154h-356v-292h408v-150h-587zM582 1186q0 -44 -29 -71t-78 -27q-53 0 -82.5 27t-29.5 71q0 45 29.5 71t82.5 26q51 0 79 -26t28 -71z" />
    <glyph glyph-name="edotaccent" unicode="&#x117;" horiz-adv-x="974" 
d="M671 469q0 47 -8.5 89t-27.5 73.5t-51 50t-80 18.5q-86 0 -135.5 -59t-49.5 -172h352v0zM834 414v-29t-2 -34h-512q0 -112 49.5 -171.5t151.5 -59.5q57 0 108 16.5t108 54.5l55 -127q-69 -44 -136 -63t-144 -19q-91 0 -160.5 29.5t-116.5 85t-71 134t-24 177.5
q0 107 27 186.5t75.5 132.5t115 79.5t145.5 26.5q165 0 248 -107.5t83 -311.5zM611 1021q0 -44 -29 -71t-78 -27q-53 0 -82.5 27t-29.5 71q0 45 29.5 71t82.5 26q51 0 79 -26t28 -71z" />
    <glyph glyph-name="Eogonek" unicode="&#x118;" horiz-adv-x="897" 
d="M754 -295q-23 -17 -57.5 -31.5t-87.5 -14.5q-81 0 -125.5 41t-44.5 119q0 36 13 66t32 52.5t38.5 38t33.5 24.5h-376v1000h573v-153h-394v-251h356v-154h-356v-292h408v-150h-84q-21 -15 -41 -29.5t-35.5 -32t-25.5 -40.5t-10 -54q0 -29 18 -50.5t43 -21.5q24 0 40 6
t35 20l47 -93v0z" />
    <glyph glyph-name="eogonek" unicode="&#x119;" horiz-adv-x="974" 
d="M671 469q0 47 -8.5 89t-27.5 73.5t-51 50t-80 18.5q-86 0 -135.5 -59t-49.5 -172h352v0zM732 -292q-23 -17 -57.5 -31t-87.5 -14q-88 0 -129.5 44t-41.5 116q0 27 9 50.5t22.5 44t29 36.5t29.5 28q-89 1 -157.5 31.5t-115 85.5t-70 133t-23.5 176q0 107 27 186.5
t75.5 132.5t115 79.5t145.5 26.5q165 0 248 -107.5t83 -311.5v-29t-2 -34h-512q0 -112 49.5 -171.5t151.5 -59.5q57 0 108 16.5t108 54.5l55 -127q-33 -21 -65.5 -35.5t-64.5 -25.5q-21 -15 -41 -30t-36.5 -33t-26.5 -41.5t-10 -54.5q0 -29 19 -49t44 -20q24 0 40 6t35 19
l46 -92v0z" />
    <glyph glyph-name="Ecaron" unicode="&#x11a;" horiz-adv-x="897" 
d="M180 0v1000h573v-153h-394v-251h356v-154h-356v-292h408v-150h-587zM311 1303l165 -90l165 92l55 -93l-220 -131l-222 131z" />
    <glyph glyph-name="ecaron" unicode="&#x11b;" horiz-adv-x="974" 
d="M671 469q0 47 -8.5 89t-27.5 73.5t-51 50t-80 18.5q-86 0 -135.5 -59t-49.5 -172h352v0zM834 414v-29t-2 -34h-512q0 -112 49.5 -171.5t151.5 -59.5q57 0 108 16.5t108 54.5l55 -127q-69 -44 -136 -63t-144 -19q-91 0 -160.5 29.5t-116.5 85t-71 134t-24 177.5
q0 107 27 186.5t75.5 132.5t115 79.5t145.5 26.5q165 0 248 -107.5t83 -311.5zM333 1138l165 -90l165 92l55 -93l-220 -131l-222 131z" />
    <glyph glyph-name="Gbreve" unicode="&#x11e;" horiz-adv-x="1084" 
d="M944 444q0 -100 -19 -184.5t-63 -146t-116.5 -96t-178.5 -34.5q-107 0 -187 39.5t-133 109t-80 163.5t-27 203q0 108 27.5 202.5t81.5 164.5t134.5 110.5t187.5 40.5q53 0 97.5 -10.5t83 -29t71.5 -43t64 -52.5l-103 -124q-25 25 -49 45t-49 33.5t-52.5 20.5t-58.5 7
q-73 0 -121 -32t-76 -83.5t-39.5 -117t-11.5 -131.5t10 -133t37 -120t74.5 -86.5t122.5 -33.5q60 0 100 21t63.5 58t33 86.5t9.5 105.5h-203v151h370v-104v0zM797 1310q0 -62 -23 -100t-56.5 -59t-71.5 -28.5t-69 -7.5q-33 0 -71.5 8t-70.5 29.5t-53.5 59.5t-21.5 98h102
q6 -38 30 -65t84 -27t86.5 27t30.5 65h104v0z" />
    <glyph glyph-name="gbreve" unicode="&#x11f;" horiz-adv-x="1005" 
d="M650 517q0 39 -10 72t-30 57t-50.5 37t-71.5 13q-53 0 -86 -22.5t-51 -60.5t-24.5 -88t-6.5 -106q0 -45 6.5 -92.5t24.5 -85.5t51 -62.5t86 -24.5q48 0 79.5 19.5t50 50.5t25.5 70.5t7 79.5v143zM825 -1q0 -81 -16.5 -141t-54.5 -99t-99 -58.5t-151 -19.5
q-86 0 -163.5 19.5t-148.5 55.5l50 143q63 -37 125.5 -55.5t135.5 -18.5q40 0 68.5 7t45.5 24.5t25 47t8 73.5v143l-5 1q-37 -53 -85 -77t-113 -24q-78 0 -135.5 28t-96 79.5t-57 124.5t-18.5 163q0 80 15 155.5t51 134t95 93.5t148 35q68 0 119 -23.5t86 -83.5h3l13 91h155
v-818v0zM706 1115q0 -62 -23 -100t-56.5 -59t-71.5 -28.5t-69 -7.5q-33 0 -71.5 8t-70.5 29.5t-53.5 59.5t-21.5 98h102q6 -38 30 -65t84 -27t86.5 27t30.5 65h104v0z" />
    <glyph glyph-name="Gcommaaccent" unicode="&#x122;" horiz-adv-x="1084" 
d="M944 444q0 -100 -19 -184.5t-63 -146t-116.5 -96t-178.5 -34.5q-107 0 -187 39.5t-133 109t-80 163.5t-27 203q0 108 27.5 202.5t81.5 164.5t134.5 110.5t187.5 40.5q53 0 97.5 -10.5t83 -29t71.5 -43t64 -52.5l-103 -124q-25 25 -49 45t-49 33.5t-52.5 20.5t-58.5 7
q-73 0 -121 -32t-76 -83.5t-39.5 -117t-11.5 -131.5t10 -133t37 -120t74.5 -86.5t122.5 -33.5q60 0 100 21t63.5 58t33 86.5t9.5 105.5h-203v151h370v-104v0zM544 -362h-112l47 265h173z" />
    <glyph glyph-name="gcommaaccent" unicode="&#x123;" horiz-adv-x="1005" 
d="M650 517q0 39 -10 72t-30 57t-50.5 37t-71.5 13q-53 0 -86 -22.5t-51 -60.5t-24.5 -88t-6.5 -106q0 -45 6.5 -92.5t24.5 -85.5t51 -62.5t86 -24.5q48 0 79.5 19.5t50 50.5t25.5 70.5t7 79.5v143zM825 -1q0 -81 -16.5 -141t-54.5 -99t-99 -58.5t-151 -19.5
q-86 0 -163.5 19.5t-148.5 55.5l50 143q63 -37 125.5 -55.5t135.5 -18.5q40 0 68.5 7t45.5 24.5t25 47t8 73.5v143l-5 1q-37 -53 -85 -77t-113 -24q-78 0 -135.5 28t-96 79.5t-57 124.5t-18.5 163q0 80 15 155.5t51 134t95 93.5t148 35q68 0 119 -23.5t86 -83.5h3l13 91h155
v-818v0zM523 1178h97l-45 -265h-161z" />
    <glyph glyph-name="Imacron" unicode="&#x12a;" horiz-adv-x="541" 
d="M180 0v1000h181v-1000h-181zM59 1112v123h427v-123h-427z" />
    <glyph glyph-name="imacron" unicode="&#x12b;" horiz-adv-x="540" 
d="M182 0v817h177v-817h-177zM57 947v123h427v-123h-427z" />
    <glyph glyph-name="Ibreve" unicode="&#x12c;" horiz-adv-x="541" 
d="M180 0v1000h181v-1000h-181zM491 1295q0 -62 -23 -100t-56.5 -59t-71.5 -28.5t-69 -7.5q-33 0 -71.5 8t-70.5 29.5t-53.5 59.5t-21.5 98h102q6 -38 30 -65t84 -27t86.5 27t30.5 65h104v0z" />
    <glyph glyph-name="ibreve" unicode="&#x12d;" horiz-adv-x="540" 
d="M182 0v817h177v-817h-177zM492 1115q0 -62 -23 -100t-56.5 -59t-71.5 -28.5t-69 -7.5q-33 0 -71.5 8t-70.5 29.5t-53.5 59.5t-21.5 98h102q6 -38 30 -65t84 -27t86.5 27t30.5 65h104v0z" />
    <glyph glyph-name="Iogonek" unicode="&#x12e;" horiz-adv-x="541" 
d="M429 -297q-23 -16 -57.5 -30.5t-87.5 -14.5q-81 0 -123.5 43t-42.5 115q0 35 13 65.5t31.5 54t38.5 40t33 24.5h-54v1000h181v-1000q-21 -16 -41 -31.5t-35.5 -34.5t-24.5 -43t-9 -55q0 -29 15.5 -47.5t40.5 -18.5q24 0 40 6.5t35 19.5l47 -93v0z" />
    <glyph glyph-name="iogonek" unicode="&#x12f;" horiz-adv-x="540" 
d="M380 1023q0 -45 -29.5 -72t-78.5 -27q-52 0 -82 27t-30 72q0 44 30 70.5t82 26.5q51 0 79.5 -26.5t28.5 -70.5zM426 -297q-23 -16 -57.5 -30.5t-87.5 -14.5q-81 0 -123 43t-42 115q0 35 13 65.5t31.5 54t38 40t32.5 24.5h-49v817h177v-817q-22 -16 -42.5 -31t-36.5 -33.5
t-26 -41.5t-10 -54q0 -34 18 -52t42 -18t40 6.5t36 19.5l46 -93v0z" />
    <glyph glyph-name="Idotaccent" unicode="&#x130;" horiz-adv-x="541" 
d="M180 0v1000h181v-1000h-181zM381 1186q0 -44 -29 -71t-78 -27q-53 0 -82.5 27t-29.5 71q0 45 29.5 71t82.5 26q51 0 79 -26t28 -71z" />
    <glyph glyph-name="dotlessi" unicode="&#x131;" horiz-adv-x="540" 
d="M182 0v817h177v-817h-177z" />
    <glyph glyph-name="Kcommaaccent" unicode="&#x136;" horiz-adv-x="977" 
d="M689 0l-251 432l-79 -98l2 -334h-181v1000h181l-2 -441h6l294 441h218l-312 -439l342 -561h-218zM504 -362h-112l47 265h173z" />
    <glyph glyph-name="kcommaaccent" unicode="&#x137;" horiz-adv-x="907" 
d="M637 0l-191 364l-92 -112v-252h-174v1085h175v-626h4l257 358h205l-250 -338l266 -479h-200zM466 -362h-112l47 265h173z" />
    <glyph glyph-name="Lacute" unicode="&#x139;" horiz-adv-x="809" 
d="M180 0v1000h181v-847h358v-153h-539zM277 1104l-100 55l194 174l147 -81z" />
    <glyph glyph-name="lacute" unicode="&#x13a;" horiz-adv-x="580" 
d="M475 0q-25 -5 -57.5 -7.5t-62.5 -2.5q-49 0 -82.5 9t-54 30t-29.5 55t-9 84v917h175v-874q0 -25 3.5 -39t12.5 -21t23.5 -9t35.5 -2h45v-140v0zM271 1174l-100 55l194 174l147 -81z" />
    <glyph glyph-name="Lcommaaccent" unicode="&#x13b;" horiz-adv-x="809" 
d="M180 0v1000h181v-847h358v-153h-539zM437 -362h-112l47 265h173z" />
    <glyph glyph-name="lcommaaccent" unicode="&#x13c;" horiz-adv-x="580" 
d="M475 0q-25 -5 -57.5 -7.5t-62.5 -2.5q-49 0 -82.5 9t-54 30t-29.5 55t-9 84v917h175v-874q0 -25 3.5 -39t12.5 -21t23.5 -9t35.5 -2h45v-140v0zM330 -362h-112l47 265h173z" />
    <glyph glyph-name="Lcaron" unicode="&#x13d;" horiz-adv-x="809" 
d="M180 0v1000h181v-847h358v-153h-539zM659 836h-113l38 249h175z" />
    <glyph glyph-name="lcaron" unicode="&#x13e;" horiz-adv-x="580" 
d="M475 0q-25 -5 -57.5 -7.5t-62.5 -2.5q-49 0 -82.5 9t-54 30t-29.5 55t-9 84v917h175v-874q0 -25 3.5 -39t12.5 -21t23.5 -9t35.5 -2h45v-140v0zM629 836h-113l38 249h175z" />
    <glyph glyph-name="Lslash" unicode="&#x141;" horiz-adv-x="809" 
d="M180 0v422l-82 -50v154l82 50v424h181v-318l194 121v-160l-194 -121v-369h358v-153h-539z" />
    <glyph glyph-name="lslash" unicode="&#x142;" horiz-adv-x="580" 
d="M355 536v-325q0 -25 3.5 -39t12.5 -21t23.5 -9t35.5 -2h45v-140q-25 -5 -57.5 -7.5t-62.5 -2.5q-49 0 -82.5 9t-54 30t-29.5 55t-9 84v270l-93 -62v168l93 63v478h175v-378l159 110v-174z" />
    <glyph glyph-name="Nacute" unicode="&#x143;" horiz-adv-x="1130" 
d="M777 0l-422 670h-3v-670h-172v1000h175l420 -663h2v663h173v-1000h-173zM572 1089l-100 55l194 174l147 -81z" />
    <glyph glyph-name="nacute" unicode="&#x144;" horiz-adv-x="1012" 
d="M656 0v466q0 47 -2.5 87t-16 69.5t-41 46t-77.5 16.5q-86 0 -125 -48t-39 -139v-498h-175v817h154l14 -88h3q38 58 93.5 81t124.5 23q78 0 128.5 -23.5t80.5 -67.5t42 -107.5t12 -144.5v-490h-176zM534 924l-100 55l194 174l147 -81z" />
    <glyph glyph-name="Ncommaaccent" unicode="&#x145;" horiz-adv-x="1130" 
d="M777 0l-422 670h-3v-670h-172v1000h175l420 -663h2v663h173v-1000h-173zM526 -362h-112l47 265h173z" />
    <glyph glyph-name="ncommaaccent" unicode="&#x146;" horiz-adv-x="1012" 
d="M656 0v466q0 47 -2.5 87t-16 69.5t-41 46t-77.5 16.5q-86 0 -125 -48t-39 -139v-498h-175v817h154l14 -88h3q38 58 93.5 81t124.5 23q78 0 128.5 -23.5t80.5 -67.5t42 -107.5t12 -144.5v-490h-176zM491 -362h-112l47 265h173z" />
    <glyph glyph-name="Ncaron" unicode="&#x147;" horiz-adv-x="1130" 
d="M777 0l-422 670h-3v-670h-172v1000h175l420 -663h2v663h173v-1000h-173zM410 1303l165 -90l165 92l55 -93l-220 -131l-222 131z" />
    <glyph glyph-name="ncaron" unicode="&#x148;" horiz-adv-x="1012" 
d="M656 0v466q0 47 -2.5 87t-16 69.5t-41 46t-77.5 16.5q-86 0 -125 -48t-39 -139v-498h-175v817h154l14 -88h3q38 58 93.5 81t124.5 23q78 0 128.5 -23.5t80.5 -67.5t42 -107.5t12 -144.5v-490h-176zM361 1138l165 -90l165 92l55 -93l-220 -131l-222 131z" />
    <glyph glyph-name="Omacron" unicode="&#x14c;" horiz-adv-x="1154" 
d="M825 501q0 80 -11.5 147.5t-40 116t-76 75.5t-120.5 27t-121.5 -27.5t-77 -76t-40 -116t-11.5 -146.5q0 -80 11.5 -148t40.5 -117.5t77 -77t122 -27.5q72 0 120 28t76 77.5t39.5 117t11.5 147.5zM1014 501q0 -119 -28 -214.5t-83.5 -163t-137 -104t-188.5 -36.5
q-108 0 -189.5 36.5t-136.5 104t-83 163t-28 214.5q0 117 28 212t82.5 162.5t136.5 104t190 36.5t190 -36.5t136.5 -104t82.5 -162.5t28 -212zM362 1127v123h427v-123h-427z" />
    <glyph glyph-name="omacron" unicode="&#x14d;" horiz-adv-x="1009" 
d="M691 408q0 58 -7.5 109.5t-28 90t-57 61t-94.5 22.5q-57 0 -93 -22.5t-56 -61t-27.5 -90t-7.5 -109.5q0 -64 8 -116.5t29 -90.5t57 -59t92 -21q54 0 90 21t57 59t29.5 90.5t8.5 116.5zM869 408q0 -95 -22 -173t-67.5 -134.5t-114 -87.5t-161.5 -31t-161.5 31t-113.5 87
t-67 134.5t-22 173.5q0 93 21.5 171t66.5 134.5t113.5 88t162.5 31.5q93 0 161.5 -30.5t113.5 -86.5t67.5 -134t22.5 -174zM295 947v123h427v-123h-427z" />
    <glyph glyph-name="Obreve" unicode="&#x14e;" horiz-adv-x="1154" 
d="M825 501q0 80 -11.5 147.5t-40 116t-76 75.5t-120.5 27t-121.5 -27.5t-77 -76t-40 -116t-11.5 -146.5q0 -80 11.5 -148t40.5 -117.5t77 -77t122 -27.5q72 0 120 28t76 77.5t39.5 117t11.5 147.5zM1014 501q0 -119 -28 -214.5t-83.5 -163t-137 -104t-188.5 -36.5
q-108 0 -189.5 36.5t-136.5 104t-83 163t-28 214.5q0 117 28 212t82.5 162.5t136.5 104t190 36.5t190 -36.5t136.5 -104t82.5 -162.5t28 -212zM793 1295q0 -62 -23 -100t-56.5 -59t-71.5 -28.5t-69 -7.5q-33 0 -71.5 8t-70.5 29.5t-53.5 59.5t-21.5 98h102q6 -38 30 -65
t84 -27t86.5 27t30.5 65h104v0z" />
    <glyph glyph-name="obreve" unicode="&#x14f;" horiz-adv-x="1009" 
d="M691 408q0 58 -7.5 109.5t-28 90t-57 61t-94.5 22.5q-57 0 -93 -22.5t-56 -61t-27.5 -90t-7.5 -109.5q0 -64 8 -116.5t29 -90.5t57 -59t92 -21q54 0 90 21t57 59t29.5 90.5t8.5 116.5zM869 408q0 -95 -22 -173t-67.5 -134.5t-114 -87.5t-161.5 -31t-161.5 31t-113.5 87
t-67 134.5t-22 173.5q0 93 21.5 171t66.5 134.5t113.5 88t162.5 31.5q93 0 161.5 -30.5t113.5 -86.5t67.5 -134t22.5 -174zM720 1115q0 -62 -23 -100t-56.5 -59t-71.5 -28.5t-69 -7.5q-33 0 -71.5 8t-70.5 29.5t-53.5 59.5t-21.5 98h102q6 -38 30 -65t84 -27t86.5 27
t30.5 65h104v0z" />
    <glyph glyph-name="Ohungarumlaut" unicode="&#x150;" horiz-adv-x="1154" 
d="M825 501q0 80 -11.5 147.5t-40 116t-76 75.5t-120.5 27t-121.5 -27.5t-77 -76t-40 -116t-11.5 -146.5q0 -80 11.5 -148t40.5 -117.5t77 -77t122 -27.5q72 0 120 28t76 77.5t39.5 117t11.5 147.5zM1014 501q0 -119 -28 -214.5t-83.5 -163t-137 -104t-188.5 -36.5
q-108 0 -189.5 36.5t-136.5 104t-83 163t-28 214.5q0 117 28 212t82.5 162.5t136.5 104t190 36.5t190 -36.5t136.5 -104t82.5 -162.5t28 -212zM788 1105l-99 55l194 169l147 -76zM427 1105l-99 55l193 169l147 -76z" />
    <glyph glyph-name="ohungarumlaut" unicode="&#x151;" horiz-adv-x="1009" 
d="M691 408q0 58 -7.5 109.5t-28 90t-57 61t-94.5 22.5q-57 0 -93 -22.5t-56 -61t-27.5 -90t-7.5 -109.5q0 -64 8 -116.5t29 -90.5t57 -59t92 -21q54 0 90 21t57 59t29.5 90.5t8.5 116.5zM869 408q0 -95 -22 -173t-67.5 -134.5t-114 -87.5t-161.5 -31t-161.5 31t-113.5 87
t-67 134.5t-22 173.5q0 93 21.5 171t66.5 134.5t113.5 88t162.5 31.5q93 0 161.5 -30.5t113.5 -86.5t67.5 -134t22.5 -174zM721 925l-99 55l194 169l147 -76zM360 925l-99 55l193 169l147 -76z" />
    <glyph glyph-name="OE" unicode="&#x152;" horiz-adv-x="1558" 
d="M837 501q0 79 -12.5 146t-41.5 116t-78.5 76t-122.5 27t-122.5 -27.5t-79.5 -76t-43 -115.5t-13 -146q0 -80 13 -147.5t43 -116t79.5 -76t122.5 -27.5q72 0 120.5 28t78.5 77t43 116t13 146zM843 0v110q-18 -29 -45.5 -52t-62 -39t-73.5 -24.5t-81 -8.5q-108 0 -190 36
t-138 102.5t-84.5 162t-28.5 214.5q0 117 28 212.5t83.5 162.5t138 103.5t191.5 36.5q84 0 152.5 -32t109.5 -91v107h571v-151h-392v-253h355v-151h-355v-295h406v-150h-585z" />
    <glyph glyph-name="oe" unicode="&#x153;" horiz-adv-x="1491" 
d="M668 392q0 56 -7 104.5t-26.5 84.5t-53 56.5t-87.5 20.5q-53 0 -87 -20.5t-53.5 -56.5t-27 -84.5t-7.5 -104.5q0 -137 41.5 -202.5t135.5 -65.5q91 0 131.5 65.5t40.5 202.5zM1188 457q-2 43 -10.5 81.5t-27 67.5t-49 46t-76.5 17q-83 0 -129.5 -53.5t-46.5 -158.5h339v0
zM1351 392v-26q0 -14 -2 -34h-501q2 -103 51 -156t143 -53q55 0 104 17.5t103 50.5l54 -128q-66 -41 -130.5 -61t-137.5 -20q-95 0 -162 33t-112 96q-43 -63 -109.5 -96t-157.5 -33q-87 0 -153 28.5t-110.5 81.5t-67.5 129t-23 171q0 93 22 168.5t66 129.5t110.5 83
t155.5 29q88 0 155 -31t110 -94q45 65 113.5 95.5t149.5 30.5q77 0 138 -25.5t103.5 -77t65 -128.5t22.5 -180z" />
    <glyph glyph-name="Racute" unicode="&#x154;" horiz-adv-x="1008" 
d="M676 702q0 89 -45 126.5t-136 37.5q-37 0 -68.5 -1.5t-65.5 -4.5v-319h150q40 0 70.5 8t51.5 26.5t32 49.5t11 77zM688 0l-122 351q-8 25 -18 35.5t-36 10.5h-151v-397h-181v994q79 9 155.5 12.5t156.5 3.5q75 0 142 -15t117 -49.5t79 -91.5t29 -142q0 -100 -38.5 -165.5
t-120.5 -99.5v-2q13 -5 22 -23.5t14 -33.5l142 -388h-190zM469 1104l-100 55l194 174l147 -81z" />
    <glyph glyph-name="racute" unicode="&#x155;" horiz-adv-x="699" 
d="M562 672q-47 0 -85.5 -8t-65.5 -28t-41.5 -54t-14.5 -86v-496h-175v817h158l11 -102h2q32 62 82.5 90t129.5 28h46v-161h-47zM390 924l-100 55l194 174l147 -81z" />
    <glyph glyph-name="Rcommaaccent" unicode="&#x156;" horiz-adv-x="1008" 
d="M676 702q0 89 -45 126.5t-136 37.5q-37 0 -68.5 -1.5t-65.5 -4.5v-319h150q40 0 70.5 8t51.5 26.5t32 49.5t11 77zM688 0l-122 351q-8 25 -18 35.5t-36 10.5h-151v-397h-181v994q79 9 155.5 12.5t156.5 3.5q75 0 142 -15t117 -49.5t79 -91.5t29 -142q0 -100 -38.5 -165.5
t-120.5 -99.5v-2q13 -5 22 -23.5t14 -33.5l142 -388h-190zM496 -362h-112l47 265h173z" />
    <glyph glyph-name="rcommaaccent" unicode="&#x157;" horiz-adv-x="699" 
d="M562 672q-47 0 -85.5 -8t-65.5 -28t-41.5 -54t-14.5 -86v-496h-175v817h158l11 -102h2q32 62 82.5 90t129.5 28h46v-161h-47zM244 -362h-112l47 265h173z" />
    <glyph glyph-name="Rcaron" unicode="&#x158;" horiz-adv-x="1008" 
d="M676 702q0 89 -45 126.5t-136 37.5q-37 0 -68.5 -1.5t-65.5 -4.5v-319h150q40 0 70.5 8t51.5 26.5t32 49.5t11 77zM688 0l-122 351q-8 25 -18 35.5t-36 10.5h-151v-397h-181v994q79 9 155.5 12.5t156.5 3.5q75 0 142 -15t117 -49.5t79 -91.5t29 -142q0 -100 -38.5 -165.5
t-120.5 -99.5v-2q13 -5 22 -23.5t14 -33.5l142 -388h-190zM333 1318l165 -90l165 92l55 -93l-220 -131l-222 131z" />
    <glyph glyph-name="rcaron" unicode="&#x159;" horiz-adv-x="699" 
d="M562 672q-47 0 -85.5 -8t-65.5 -28t-41.5 -54t-14.5 -86v-496h-175v817h158l11 -102h2q32 62 82.5 90t129.5 28h46v-161h-47zM220 1138l165 -90l165 92l55 -93l-220 -131l-222 131z" />
    <glyph glyph-name="Sacute" unicode="&#x15a;" horiz-adv-x="914" 
d="M784 288q0 -80 -25.5 -137t-70.5 -94t-106.5 -54t-133.5 -17q-98 0 -179 24t-159 74l68 150q58 -43 122.5 -73t138.5 -30q32 0 62 7t53.5 23t37.5 42.5t14 66.5q0 35 -14.5 61t-39.5 45.5t-57.5 34.5t-69.5 28q-49 19 -99.5 41.5t-91.5 56.5t-67 83.5t-26 122.5
q0 72 26.5 123t71 84t101.5 48.5t118 15.5q81 0 151.5 -21.5t137.5 -59.5l-53 -151q-52 38 -104.5 60t-118.5 22q-31 0 -58.5 -5.5t-48.5 -19t-33.5 -35.5t-12.5 -54q0 -30 16 -52t43 -39.5t62 -31.5t73 -29q48 -18 96.5 -41.5t87.5 -58.5t63.5 -86t24.5 -124zM455 1104
l-100 55l194 174l147 -81z" />
    <glyph glyph-name="sacute" unicode="&#x15b;" horiz-adv-x="832" 
d="M712 237q0 -65 -20.5 -113t-59 -79.5t-93.5 -47t-124 -15.5q-83 0 -160.5 21.5t-144.5 63.5l60 137q53 -35 116 -60.5t129 -25.5q63 0 95 25t32 81q0 28 -13.5 46.5t-37 32t-53.5 24t-63 21.5q-43 14 -85.5 31.5t-77 45t-56 69.5t-21.5 105q0 56 21.5 99.5t60.5 73.5
t93 45.5t119 15.5q66 0 132.5 -14.5t126.5 -43.5l-42 -136q-45 27 -96.5 42.5t-107.5 15.5q-30 0 -55.5 -4.5t-43.5 -14.5t-28.5 -26.5t-10.5 -41.5q0 -26 14 -43.5t37 -30.5t53.5 -23.5t63.5 -20.5q43 -14 85.5 -31t77 -45t56 -71t21.5 -108zM427 924l-100 55l194 174
l147 -81z" />
    <glyph glyph-name="Scedilla" unicode="&#x15e;" horiz-adv-x="914" 
d="M610 -200q0 -31 -9.5 -58t-28.5 -47t-48 -31.5t-68 -11.5q-45 0 -81 12.5t-59 28.5l30 73q26 -17 50 -23.5t53 -6.5q23 0 39 16t16 48q0 20 -15 36.5t-43 16.5q-29 0 -53 -10l-36 28l60 116q-88 3 -161.5 27t-145.5 70l69 150q57 -43 121.5 -73t139.5 -30q32 0 62 7
t53 23t37 42.5t14 66.5q0 35 -14.5 61t-39 45.5t-57 34.5t-69.5 28q-50 19 -100.5 41.5t-91 56.5t-66.5 83.5t-26 122.5q0 72 26.5 123t70.5 84t101 48.5t117 15.5q82 0 152.5 -21.5t138.5 -59.5l-54 -151q-52 38 -104.5 60t-118.5 22q-30 0 -57.5 -5.5t-48.5 -19
t-33.5 -35.5t-12.5 -54q0 -30 16 -52t43 -39.5t62 -31.5t73 -29q48 -18 96.5 -41.5t87 -58.5t63 -86t24.5 -124q0 -74 -22.5 -129t-62 -91.5t-93.5 -56.5t-117 -24l-35 -65l2 -2q6 2 22.5 3.5t25.5 1.5q45 0 75.5 -31t30.5 -94z" />
    <glyph glyph-name="Scedilla" unicode="&#xf6c1;" horiz-adv-x="914" 
d="M610 -200q0 -31 -9.5 -58t-28.5 -47t-48 -31.5t-68 -11.5q-45 0 -81 12.5t-59 28.5l30 73q26 -17 50 -23.5t53 -6.5q23 0 39 16t16 48q0 20 -15 36.5t-43 16.5q-29 0 -53 -10l-36 28l60 116q-88 3 -161.5 27t-145.5 70l69 150q57 -43 121.5 -73t139.5 -30q32 0 62 7
t53 23t37 42.5t14 66.5q0 35 -14.5 61t-39 45.5t-57 34.5t-69.5 28q-50 19 -100.5 41.5t-91 56.5t-66.5 83.5t-26 122.5q0 72 26.5 123t70.5 84t101 48.5t117 15.5q82 0 152.5 -21.5t138.5 -59.5l-54 -151q-52 38 -104.5 60t-118.5 22q-30 0 -57.5 -5.5t-48.5 -19
t-33.5 -35.5t-12.5 -54q0 -30 16 -52t43 -39.5t62 -31.5t73 -29q48 -18 96.5 -41.5t87 -58.5t63 -86t24.5 -124q0 -74 -22.5 -129t-62 -91.5t-93.5 -56.5t-117 -24l-35 -65l2 -2q6 2 22.5 3.5t25.5 1.5q45 0 75.5 -31t30.5 -94z" />
    <glyph glyph-name="scedilla" unicode="&#x15f;" horiz-adv-x="832" 
d="M570 -200q0 -31 -9.5 -58t-28.5 -47t-48 -31.5t-68 -11.5q-45 0 -81.5 12.5t-59.5 28.5l30 73q26 -17 50 -23.5t53 -6.5q23 0 39.5 16t16.5 48q0 20 -15 36.5t-43 16.5q-30 0 -53 -10l-36 28l59 112q-73 6 -140 26.5t-126 57.5l60 137q53 -35 116.5 -60.5t129.5 -25.5
q62 0 94.5 25t32.5 81q0 28 -13.5 46.5t-37 32t-53.5 24t-63 21.5q-43 14 -86 31.5t-77.5 45t-56 69.5t-21.5 105q0 56 21.5 99.5t60.5 73.5t93 45.5t119 15.5q66 0 132.5 -14.5t126.5 -43.5l-41 -136q-45 27 -97 42.5t-107 15.5q-30 0 -55.5 -4.5t-43.5 -14.5t-28.5 -26.5
t-10.5 -41.5q0 -26 13.5 -43.5t37 -30.5t54 -23.5t63.5 -20.5q43 -14 85.5 -31t76.5 -45t55.5 -71t21.5 -108q0 -123 -70.5 -185t-194.5 -69l-33 -61l2 -2q5 2 21.5 3.5t26.5 1.5q45 0 75.5 -31t30.5 -94z" />
    <glyph glyph-name="scedilla" unicode="&#xf6c2;" horiz-adv-x="832" 
d="M570 -200q0 -31 -9.5 -58t-28.5 -47t-48 -31.5t-68 -11.5q-45 0 -81.5 12.5t-59.5 28.5l30 73q26 -17 50 -23.5t53 -6.5q23 0 39.5 16t16.5 48q0 20 -15 36.5t-43 16.5q-30 0 -53 -10l-36 28l59 112q-73 6 -140 26.5t-126 57.5l60 137q53 -35 116.5 -60.5t129.5 -25.5
q62 0 94.5 25t32.5 81q0 28 -13.5 46.5t-37 32t-53.5 24t-63 21.5q-43 14 -86 31.5t-77.5 45t-56 69.5t-21.5 105q0 56 21.5 99.5t60.5 73.5t93 45.5t119 15.5q66 0 132.5 -14.5t126.5 -43.5l-41 -136q-45 27 -97 42.5t-107 15.5q-30 0 -55.5 -4.5t-43.5 -14.5t-28.5 -26.5
t-10.5 -41.5q0 -26 13.5 -43.5t37 -30.5t54 -23.5t63.5 -20.5q43 -14 85.5 -31t76.5 -45t55.5 -71t21.5 -108q0 -123 -70.5 -185t-194.5 -69l-33 -61l2 -2q5 2 21.5 3.5t26.5 1.5q45 0 75.5 -31t30.5 -94z" />
    <glyph glyph-name="Scaron" unicode="&#x160;" horiz-adv-x="914" 
d="M784 288q0 -80 -25.5 -137t-70.5 -94t-106.5 -54t-133.5 -17q-98 0 -179 24t-159 74l68 150q58 -43 122.5 -73t138.5 -30q32 0 62 7t53.5 23t37.5 42.5t14 66.5q0 35 -14.5 61t-39.5 45.5t-57.5 34.5t-69.5 28q-49 19 -99.5 41.5t-91.5 56.5t-67 83.5t-26 122.5
q0 72 26.5 123t71 84t101.5 48.5t118 15.5q81 0 151.5 -21.5t137.5 -59.5l-53 -151q-52 38 -104.5 60t-118.5 22q-31 0 -58.5 -5.5t-48.5 -19t-33.5 -35.5t-12.5 -54q0 -30 16 -52t43 -39.5t62 -31.5t73 -29q48 -18 96.5 -41.5t87.5 -58.5t63.5 -86t24.5 -124zM295 1318
l165 -90l165 92l55 -93l-220 -131l-222 131z" />
    <glyph glyph-name="scaron" unicode="&#x161;" horiz-adv-x="832" 
d="M712 237q0 -65 -20.5 -113t-59 -79.5t-93.5 -47t-124 -15.5q-83 0 -160.5 21.5t-144.5 63.5l60 137q53 -35 116 -60.5t129 -25.5q63 0 95 25t32 81q0 28 -13.5 46.5t-37 32t-53.5 24t-63 21.5q-43 14 -85.5 31.5t-77 45t-56 69.5t-21.5 105q0 56 21.5 99.5t60.5 73.5
t93 45.5t119 15.5q66 0 132.5 -14.5t126.5 -43.5l-42 -136q-45 27 -96.5 42.5t-107.5 15.5q-30 0 -55.5 -4.5t-43.5 -14.5t-28.5 -26.5t-10.5 -41.5q0 -26 14 -43.5t37 -30.5t53.5 -23.5t63.5 -20.5q43 -14 85.5 -31t77 -45t56 -71t21.5 -108zM284 1138l165 -90l165 92
l55 -93l-220 -131l-222 131z" />
    <glyph glyph-name="Tcommaaccent" unicode="&#x162;" horiz-adv-x="849" 
d="M514 846v-846h-180v846h-244v154h669v-154h-245zM413 -362h-112l47 265h173z" />
    <glyph glyph-name="tcommaaccent" unicode="&#x163;" horiz-adv-x="665" 
d="M545 -1q-32 -4 -60 -6.5t-57 -2.5q-71 0 -115 13.5t-68 42.5t-32 76t-8 113v426h-115v145h118v217h174v-217h163v-145h-163v-427q0 -30 3 -49t15 -29.5t36 -14t65 -3.5h44v-139v0zM401 -362h-112l47 265h173z" />
    <glyph glyph-name="Tcaron" unicode="&#x164;" horiz-adv-x="849" 
d="M514 846v-846h-180v846h-244v154h669v-154h-245zM259 1318l165 -90l165 92l55 -93l-220 -131l-222 131z" />
    <glyph glyph-name="tcaron" unicode="&#x165;" horiz-adv-x="665" 
d="M545 -1q-32 -4 -60 -6.5t-57 -2.5q-71 0 -115 13.5t-68 42.5t-32 76t-8 113v426h-115v145h118v217h174v-217h163v-145h-163v-427q0 -30 3 -49t15 -29.5t36 -14t65 -3.5h44v-139v0zM677 836h-113l38 249h175z" />
    <glyph glyph-name="Umacron" unicode="&#x16a;" horiz-adv-x="1087" 
d="M907 405q0 -101 -18.5 -179.5t-61 -132.5t-112.5 -82t-173 -28q-102 0 -171.5 28t-111.5 81.5t-60.5 132t-18.5 180.5v595h181v-594q0 -59 6 -108.5t25.5 -85t56 -55.5t96.5 -20q59 0 94.5 20t55 55.5t26 85t6.5 108.5v594h180v-595v0zM331 1112v123h427v-123h-427z" />
    <glyph glyph-name="umacron" unicode="&#x16b;" 
d="M663 0l-11 87h-5q-34 -51 -86 -79t-131 -28q-62 0 -109 16.5t-78.5 54.5t-47 99t-15.5 150v517h175v-462q0 -51 3 -92.5t16.5 -71t40.5 -46t75 -16.5q45 0 75 12.5t48 37.5t25.5 61.5t7.5 83.5v493h175v-817h-158zM286 947v123h427v-123h-427z" />
    <glyph glyph-name="Ubreve" unicode="&#x16c;" horiz-adv-x="1087" 
d="M907 405q0 -101 -18.5 -179.5t-61 -132.5t-112.5 -82t-173 -28q-102 0 -171.5 28t-111.5 81.5t-60.5 132t-18.5 180.5v595h181v-594q0 -59 6 -108.5t25.5 -85t56 -55.5t96.5 -20q59 0 94.5 20t55 55.5t26 85t6.5 108.5v594h180v-595v0zM764 1280q0 -62 -23 -100
t-56.5 -59t-71.5 -28.5t-69 -7.5q-33 0 -71.5 8t-70.5 29.5t-53.5 59.5t-21.5 98h102q6 -38 30 -65t84 -27t86.5 27t30.5 65h104v0z" />
    <glyph glyph-name="ubreve" unicode="&#x16d;" 
d="M663 0l-11 87h-5q-34 -51 -86 -79t-131 -28q-62 0 -109 16.5t-78.5 54.5t-47 99t-15.5 150v517h175v-462q0 -51 3 -92.5t16.5 -71t40.5 -46t75 -16.5q45 0 75 12.5t48 37.5t25.5 61.5t7.5 83.5v493h175v-817h-158zM718 1115q0 -62 -23 -100t-56.5 -59t-71.5 -28.5
t-69 -7.5q-33 0 -71.5 8t-70.5 29.5t-53.5 59.5t-21.5 98h102q6 -38 30 -65t84 -27t86.5 27t30.5 65h104v0z" />
    <glyph glyph-name="Uring" unicode="&#x16e;" horiz-adv-x="1087" 
d="M907 405q0 -101 -18.5 -179.5t-61 -132.5t-112.5 -82t-173 -28q-102 0 -171.5 28t-111.5 81.5t-60.5 132t-18.5 180.5v595h181v-594q0 -59 6 -108.5t25.5 -85t56 -55.5t96.5 -20q59 0 94.5 20t55 55.5t26 85t6.5 108.5v594h180v-595v0zM603 1196q0 30 -19.5 50t-48.5 20
t-49.5 -20t-20.5 -50t20.5 -50.5t49.5 -20.5t48.5 20.5t19.5 50.5zM673 1196q0 -29 -10.5 -54.5t-29 -44t-44 -29t-54.5 -10.5q-30 0 -55.5 10.5t-44 29.5t-29.5 44t-11 54q0 30 11 55t29.5 44t44 29.5t55.5 10.5q29 0 54.5 -10.5t44 -29.5t29 -44t10.5 -55z" />
    <glyph glyph-name="uring" unicode="&#x16f;" 
d="M663 0l-11 87h-5q-34 -51 -86 -79t-131 -28q-62 0 -109 16.5t-78.5 54.5t-47 99t-15.5 150v517h175v-462q0 -51 3 -92.5t16.5 -71t40.5 -46t75 -16.5q45 0 75 12.5t48 37.5t25.5 61.5t7.5 83.5v493h175v-817h-158zM572 1020q0 30 -19.5 50t-48.5 20t-49.5 -20t-20.5 -50
t20.5 -50.5t49.5 -20.5t48.5 20.5t19.5 50.5zM642 1020q0 -29 -10.5 -54.5t-29 -44t-44 -29t-54.5 -10.5q-30 0 -55.5 10.5t-44 29.5t-29.5 44t-11 54q0 30 11 55t29.5 44t44 29.5t55.5 10.5q29 0 54.5 -10.5t44 -29.5t29 -44t10.5 -55z" />
    <glyph glyph-name="Uhungarumlaut" unicode="&#x170;" horiz-adv-x="1087" 
d="M907 405q0 -101 -18.5 -179.5t-61 -132.5t-112.5 -82t-173 -28q-102 0 -171.5 28t-111.5 81.5t-60.5 132t-18.5 180.5v595h181v-594q0 -59 6 -108.5t25.5 -85t56 -55.5t96.5 -20q59 0 94.5 20t55 55.5t26 85t6.5 108.5v594h180v-595v0zM739 1105l-99 55l194 169l147 -76z
M378 1105l-99 55l193 169l147 -76z" />
    <glyph glyph-name="uhungarumlaut" unicode="&#x171;" 
d="M663 0l-11 87h-5q-34 -51 -86 -79t-131 -28q-62 0 -109 16.5t-78.5 54.5t-47 99t-15.5 150v517h175v-462q0 -51 3 -92.5t16.5 -71t40.5 -46t75 -16.5q45 0 75 12.5t48 37.5t25.5 61.5t7.5 83.5v493h175v-817h-158zM695 925l-99 55l194 169l147 -76zM334 925l-99 55
l193 169l147 -76z" />
    <glyph glyph-name="Uogonek" unicode="&#x172;" horiz-adv-x="1087" 
d="M803 -275q-23 -17 -57 -31.5t-88 -14.5q-80 0 -122.5 42.5t-42.5 114.5q0 48 21.5 85t47.5 62h-20q-102 0 -171.5 28t-111.5 81.5t-60.5 132t-18.5 180.5v595h181v-594q0 -59 6 -108.5t25.5 -85t56 -55.5t96.5 -20q59 0 94.5 20t55 55.5t26 85t6.5 108.5v594h180v-595
q0 -146 -39.5 -244t-134.5 -143q-21 -15 -40.5 -30.5t-34.5 -34t-24 -42t-9 -54.5q0 -29 16 -47t41 -18q23 0 39.5 5.5t35.5 19.5l46 -92v0z" />
    <glyph glyph-name="uogonek" unicode="&#x173;" 
d="M857 -297q-23 -16 -57 -30.5t-88 -14.5q-80 0 -122.5 43t-42.5 115q0 35 13 65.5t31.5 54t38.5 40t33 24.5l-11 87h-5q-34 -51 -86 -79t-131 -28q-62 0 -109 16.5t-78.5 54.5t-47 99t-15.5 150v517h175v-462q0 -51 3 -92.5t16.5 -71t40.5 -46t75 -16.5q45 0 75 12.5
t48 37.5t25.5 61.5t7.5 83.5v493h175v-817h-31q-21 -16 -41 -31.5t-35.5 -34.5t-25 -43t-9.5 -55q0 -29 16 -47.5t41 -18.5q23 0 39.5 6.5t35.5 19.5l46 -93v0z" />
    <glyph glyph-name="Ydieresis" unicode="&#x178;" horiz-adv-x="949" 
d="M566 389v-389h-180v384l-316 616h199l208 -456l209 456h193zM411 1188q0 -21 -8 -39t-21.5 -31t-31 -21t-35.5 -8q-43 0 -71.5 29t-28.5 70q0 39 28.5 68t71.5 29q18 0 35.5 -8t31 -21t21.5 -31t8 -37zM739 1188q0 -21 -8.5 -39t-22 -31t-31 -21t-36.5 -8q-41 0 -70.5 29
t-29.5 70q0 39 29.5 68t70.5 29q19 0 36.5 -8t31 -21t22 -31t8.5 -37z" />
    <glyph glyph-name="Zacute" unicode="&#x179;" horiz-adv-x="858" 
d="M100 0v144l433 702h-412v154h624v-143l-438 -707h451v-150h-658zM441 1104l-100 55l194 174l147 -81z" />
    <glyph glyph-name="zacute" unicode="&#x17a;" horiz-adv-x="766" 
d="M100 0v129l357 544h-347v144h548v-141l-350 -532h358v-144h-566zM407 924l-100 55l194 174l147 -81z" />
    <glyph glyph-name="Zdotaccent" unicode="&#x17b;" horiz-adv-x="858" 
d="M100 0v144l433 702h-412v154h624v-143l-438 -707h451v-150h-658zM567 1186q0 -44 -29 -71t-78 -27q-53 0 -82.5 27t-29.5 71q0 45 29.5 71t82.5 26q51 0 79 -26t28 -71z" />
    <glyph glyph-name="zdotaccent" unicode="&#x17c;" horiz-adv-x="766" 
d="M100 0v129l357 544h-347v144h548v-141l-350 -532h358v-144h-566zM504 1021q0 -44 -29 -71t-78 -27q-53 0 -82.5 27t-29.5 71q0 45 29.5 71t82.5 26q51 0 79 -26t28 -71z" />
    <glyph glyph-name="Zcaron" unicode="&#x17d;" horiz-adv-x="858" 
d="M100 0v144l433 702h-412v154h624v-143l-438 -707h451v-150h-658zM280 1318l165 -90l165 92l55 -93l-220 -131l-222 131z" />
    <glyph glyph-name="zcaron" unicode="&#x17e;" horiz-adv-x="766" 
d="M100 0v129l357 544h-347v144h548v-141l-350 -532h358v-144h-566zM246 1138l165 -90l165 92l55 -93l-220 -131l-222 131z" />
    <glyph glyph-name="florin" unicode="&#x192;" horiz-adv-x="879" 
d="M773 919q-15 1 -27 2t-28 1q-29 0 -48.5 -4t-31.5 -13t-18 -24.5t-10 -38.5l-34 -172h142l-25 -142h-141l-110 -564q-13 -66 -33 -113.5t-51.5 -78.5t-77 -46t-108.5 -15q-23 0 -46.5 2t-45.5 9l24 130q18 -5 32 -5.5t32 -0.5q52 0 75.5 40t37.5 115l98 527h-107l27 142
h107l32 172q11 60 29.5 100.5t50.5 65t81 34.5t122 10q20 0 36 -0.5t42 -2.5z" />
    <glyph glyph-name="Scommaaccent" unicode="&#x218;" horiz-adv-x="914" 
d="M784 288q0 -80 -25.5 -137t-70.5 -94t-106.5 -54t-133.5 -17q-98 0 -179 24t-159 74l68 150q58 -43 122.5 -73t138.5 -30q32 0 62 7t53.5 23t37.5 42.5t14 66.5q0 35 -14.5 61t-39.5 45.5t-57.5 34.5t-69.5 28q-49 19 -99.5 41.5t-91.5 56.5t-67 83.5t-26 122.5
q0 72 26.5 123t71 84t101.5 48.5t118 15.5q81 0 151.5 -21.5t137.5 -59.5l-53 -151q-52 38 -104.5 60t-118.5 22q-31 0 -58.5 -5.5t-48.5 -19t-33.5 -35.5t-12.5 -54q0 -30 16 -52t43 -39.5t62 -31.5t73 -29q48 -18 96.5 -41.5t87.5 -58.5t63.5 -86t24.5 -124zM450 -362
h-112l47 265h173z" />
    <glyph glyph-name="scommaaccent" unicode="&#x219;" horiz-adv-x="832" 
d="M712 237q0 -65 -20.5 -113t-59 -79.5t-93.5 -47t-124 -15.5q-83 0 -160.5 21.5t-144.5 63.5l60 137q53 -35 116 -60.5t129 -25.5q63 0 95 25t32 81q0 28 -13.5 46.5t-37 32t-53.5 24t-63 21.5q-43 14 -85.5 31.5t-77 45t-56 69.5t-21.5 105q0 56 21.5 99.5t60.5 73.5
t93 45.5t119 15.5q66 0 132.5 -14.5t126.5 -43.5l-42 -136q-45 27 -96.5 42.5t-107.5 15.5q-30 0 -55.5 -4.5t-43.5 -14.5t-28.5 -26.5t-10.5 -41.5q0 -26 14 -43.5t37 -30.5t53.5 -23.5t63.5 -20.5q43 -14 85.5 -31t77 -45t56 -71t21.5 -108zM419 -362h-112l47 265h173z
" />
    <glyph glyph-name="circumflex" unicode="&#x2c6;" horiz-adv-x="585" 
d="M454 918l-165 90l-165 -92l-55 93l220 131l222 -131z" />
    <glyph glyph-name="caron" unicode="&#x2c7;" horiz-adv-x="585" 
d="M126 1138l165 -90l165 92l55 -93l-220 -131l-222 131z" />
    <glyph glyph-name="breve" unicode="&#x2d8;" horiz-adv-x="613" 
d="M525 1115q0 -62 -23 -100t-56.5 -59t-71.5 -28.5t-69 -7.5q-33 0 -71.5 8t-70.5 29.5t-53.5 59.5t-21.5 98h102q6 -38 30 -65t84 -27t86.5 27t30.5 65h104v0z" />
    <glyph glyph-name="dotaccent" unicode="&#x2d9;" horiz-adv-x="351" 
d="M280 1021q0 -44 -29 -71t-78 -27q-53 0 -82.5 27t-29.5 71q0 45 29.5 71t82.5 26q51 0 79 -26t28 -71z" />
    <glyph glyph-name="ring" unicode="&#x2da;" horiz-adv-x="485" 
d="M308 1046q0 30 -19.5 50t-48.5 20t-49.5 -20t-20.5 -50t20.5 -50.5t49.5 -20.5t48.5 20.5t19.5 50.5zM378 1046q0 -29 -10.5 -54.5t-29 -44t-44 -29t-54.5 -10.5q-30 0 -55.5 10.5t-44 29.5t-29.5 44t-11 54q0 30 11 55t29.5 44t44 29.5t55.5 10.5q29 0 54.5 -10.5
t44 -29.5t29 -44t10.5 -55z" />
    <glyph glyph-name="ogonek" unicode="&#x2db;" horiz-adv-x="541" 
d="M448 -297q-23 -16 -57.5 -30.5t-88.5 -14.5q-79 0 -121.5 43t-42.5 115q0 35 13 65.5t31.5 54t38 40t33.5 24.5h127q-21 -16 -41 -31.5t-35.5 -34.5t-25 -43t-9.5 -55q0 -29 16 -47.5t41 -18.5q23 0 39 6.5t36 19.5l46 -93v0z" />
    <glyph glyph-name="tilde" unicode="&#x2dc;" horiz-adv-x="609" 
d="M577 1037q-10 -27 -27.5 -47t-40.5 -34t-47.5 -21t-49.5 -7q-30 0 -55.5 8.5t-49 17.5t-45.5 17.5t-43 8.5q-26 0 -53 -13t-41 -42l-80 62q22 54 63.5 84t95.5 30q29 0 55 -7.5t49.5 -17.5t45.5 -17.5t44 -7.5q26 0 52.5 12.5t37.5 39.5z" />
    <glyph glyph-name="hungarumlaut" unicode="&#x2dd;" horiz-adv-x="864" 
d="M544 925l-99 55l194 169l147 -76zM183 925l-99 55l193 169l147 -76z" />
    <glyph glyph-name="endash" unicode="&#x2013;" horiz-adv-x="944" 
d="M150 439v144h644v-144h-644z" />
    <glyph glyph-name="emdash" unicode="&#x2014;" horiz-adv-x="1549" 
d="M130 364v144h1289v-144h-1289z" />
    <glyph glyph-name="quoteleft" unicode="&#x2018;" horiz-adv-x="475" 
d="M282 716h-195l133 333h117z" />
    <glyph glyph-name="quoteright" unicode="&#x2019;" horiz-adv-x="476" 
d="M250 716h-116l54 333h196z" />
    <glyph glyph-name="quotesinglbase" unicode="&#x201a;" horiz-adv-x="465" 
d="M213 -216h-112l53 316h183z" />
    <glyph glyph-name="quotedblleft" unicode="&#x201c;" horiz-adv-x="794" 
d="M287 716h-196l134 333h117zM595 716h-193l133 333h115z" />
    <glyph glyph-name="quotedblright" unicode="&#x201d;" horiz-adv-x="794" 
d="M252 716h-115l53 333h195zM562 716h-117l56 333h195z" />
    <glyph glyph-name="quotedblbase" unicode="&#x201e;" horiz-adv-x="733" 
d="M210 -216h-111l54 316h181zM499 -216h-111l53 316h182z" />
    <glyph glyph-name="dagger" unicode="&#x2020;" horiz-adv-x="633" 
d="M400 700v-420h-167v420h-113v139h113v197h167v-197h113v-139h-113z" />
    <glyph glyph-name="daggerdbl" unicode="&#x2021;" horiz-adv-x="634" 
d="M400 417v-177h-167v177h-111v139h111v166h-113v140h113v174h167v-174h113v-140h-113v-166h114v-139h-114z" />
    <glyph glyph-name="bullet" unicode="&#x2022;" horiz-adv-x="981" 
d="M731 493q0 -51 -19 -95t-51.5 -76.5t-76 -51t-93.5 -18.5q-51 0 -95 18.5t-76.5 51t-51 76.5t-18.5 95t18.5 95t51 76.5t76.5 51.5t95 19q50 0 93.5 -19t76 -51.5t51.5 -76.5t19 -95z" />
    <glyph glyph-name="ellipsis" unicode="&#x2026;" horiz-adv-x="1222" 
d="M1092 81q0 -43 -29 -69.5t-76 -28.5q-45 0 -75 27t-30 70t30 68.5t75 25.5t75 -25.5t30 -67.5zM715 81q0 -43 -29 -69.5t-74 -28.5q-46 0 -76 27t-30 70t30 68.5t75 25.5t74.5 -25.5t29.5 -67.5zM340 81q0 -43 -30 -69.5t-74 -28.5q-46 0 -76 27t-30 70t30 68.5t75 25.5
t75 -25.5t30 -67.5z" />
    <glyph glyph-name="perthousand" unicode="&#x2030;" horiz-adv-x="2101" 
d="M522 0h-133l581 1000h134zM439 730q0 97 -23.5 140t-75.5 43q-49 0 -74 -43t-25 -140q0 -99 25 -140.5t74 -41.5t74 41.5t25 140.5zM562 732q0 -139 -57 -213.5t-167 -74.5q-104 0 -161 73t-57 215q0 132 55 208t168 76q105 0 162 -74t57 -210zM1252 272q0 97 -23.5 140
t-75.5 43q-49 0 -74 -43t-25 -140q0 -99 25 -140.5t74 -41.5t74 41.5t25 140.5zM1375 274q0 -139 -57 -213.5t-167 -74.5q-104 0 -161 73t-57 215q0 132 55 208t168 76q105 0 162 -74t57 -210zM1858 272q0 97 -23.5 140t-75.5 43q-49 0 -74 -43t-25 -140q0 -99 25 -140.5
t74 -41.5t74 41.5t25 140.5zM1981 274q0 -139 -57 -213.5t-167 -74.5q-104 0 -161 73t-57 215q0 132 55 208t168 76q105 0 162 -74t57 -210z" />
    <glyph glyph-name="guilsinglleft" unicode="&#x2039;" horiz-adv-x="547" 
d="M294 154l-174 300l174 298l123 -63l-140 -237l140 -236z" />
    <glyph glyph-name="guilsinglright" unicode="&#x203a;" horiz-adv-x="547" 
d="M253 154l-123 62l140 236l-140 237l123 63l174 -298z" />
    <glyph glyph-name="fraction" unicode="&#x2044;" horiz-adv-x="293" 
d="M-167 -58h-123l752 1164h121z" />
    <glyph glyph-name="fraction" unicode="&#x2215;" horiz-adv-x="293" 
d="M-167 -58h-123l752 1164h121z" />
    <glyph glyph-name="zerosuperior" unicode="&#x2070;" horiz-adv-x="717" 
d="M465 802q0 46 -5 83.5t-17 64.5t-32 42t-50 15q-32 0 -52.5 -15t-33.5 -42t-18 -64.5t-5 -83.5t5 -84.5t17.5 -66t33 -43t50.5 -15.5q31 0 51.5 15.5t33 43t17.5 66t5 84.5zM597 802q0 -150 -58.5 -232.5t-181.5 -82.5q-59 0 -103.5 22.5t-74 63.5t-44.5 99.5t-15 129.5
q0 149 60.5 230.5t181.5 81.5q58 0 102.5 -21.5t73.5 -62t44 -98.5t15 -130z" />
    <glyph glyph-name="foursuperior" unicode="&#x2074;" horiz-adv-x="639" 
d="M342 723v257l-154 -257h154zM460 495h-130v125h-231l-29 106l244 380h146v-376h79v-110h-79v-125z" />
    <glyph glyph-name="fivesuperior" unicode="&#x2075;" horiz-adv-x="606" 
d="M496 702q0 -103 -56.5 -159t-165.5 -56q-57 0 -101.5 16t-82.5 42l54 92q26 -20 56 -32.5t68 -12.5q50 0 73 25.5t23 81.5q0 55 -22 79.5t-70 24.5q-55 0 -92 -40l-78 57l46 284h311v-111h-219l-21 -124l3 -2q14 13 36 21.5t58 8.5q39 0 72 -11t57 -35t37.5 -61t13.5 -88
z" />
    <glyph glyph-name="sixsuperior" unicode="&#x2076;" horiz-adv-x="679" 
d="M437 699q0 51 -18.5 79.5t-68.5 28.5q-48 0 -69 -28.5t-21 -79.5q0 -23 5 -43t15.5 -35t28 -24t41.5 -9q49 0 68.5 31.5t18.5 79.5zM569 700q0 -45 -16 -84.5t-45 -68.5t-69 -45.5t-89 -16.5q-60 0 -103 20.5t-71.5 57.5t-42 89.5t-13.5 116.5q0 76 15 139.5t46 108.5
t78 70t110 25q51 0 92 -12.5t71 -31.5l-41 -91q-24 15 -55 23.5t-68 8.5q-118 0 -118 -169h1q14 23 44 41.5t79 18.5q98 0 146.5 -52t48.5 -148z" />
    <glyph glyph-name="sevensuperior" unicode="&#x2077;" horiz-adv-x="566" 
d="M486 1000q-41 -35 -72.5 -76.5t-53.5 -96.5t-33.5 -126t-11.5 -165v-40h-130v27q0 54 6.5 118t24 127.5t48 122.5t77.5 103h-261v112h392l14 -106v0z" />
    <glyph glyph-name="eightsuperior" unicode="&#x2078;" horiz-adv-x="662" 
d="M422 675q0 51 -22 71.5t-68 20.5q-44 0 -67.5 -22t-23.5 -70q0 -43 22.5 -66.5t68.5 -23.5q48 0 69 23.5t21 66.5zM409 938q0 35 -17 56.5t-60 21.5q-42 0 -60 -21.5t-18 -56.5q0 -41 18 -61t60 -20q43 0 60 20t17 61zM552 669q0 -85 -55.5 -133.5t-163.5 -48.5
q-109 0 -166 48.5t-57 133.5q0 54 22 91t72 59v3q-42 21 -60.5 53t-18.5 78q0 39 15.5 69.5t43.5 50.5t66 30.5t82 10.5t82 -10.5t65.5 -30.5t43.5 -50.5t16 -69.5q0 -46 -19 -78t-61 -53v-3q48 -22 70.5 -58.5t22.5 -91.5z" />
    <glyph glyph-name="ninesuperior" unicode="&#x2079;" horiz-adv-x="676" 
d="M239 904q0 -51 19.5 -79t67.5 -28t69.5 29t21.5 78q0 47 -20.5 77t-70.5 30q-48 0 -67.5 -30t-19.5 -77zM110 904q0 45 16 83.5t44.5 66.5t68.5 44t88 16q118 0 173.5 -74.5t55.5 -209.5q0 -163 -60 -253t-187 -90q-51 0 -93.5 13.5t-72.5 30.5l42 92q47 -32 125 -32
q57 0 87 44t30 129h-1q-15 -23 -44 -40.5t-80 -17.5q-98 0 -145 51.5t-47 146.5z" />
    <glyph glyph-name="zeroinferior" unicode="&#x2080;" horiz-adv-x="717" 
d="M465 250q0 47 -5 85t-17 65t-32 42t-50 15q-32 0 -52.5 -15t-33.5 -42t-18 -65t-5 -85q0 -45 5 -83.5t17.5 -66t33 -43t50.5 -15.5q31 0 51.5 15.5t33 43t17.5 66t5 83.5zM597 252q0 -151 -58.5 -233.5t-181.5 -82.5q-60 0 -104.5 22.5t-74 63.5t-44 99.5t-14.5 130.5
q0 148 60.5 229.5t181.5 81.5q58 0 102.5 -21.5t73.5 -62t44 -98t15 -129.5z" />
    <glyph glyph-name="oneinferior" unicode="&#x2081;" horiz-adv-x="503" 
d="M353 552v-610h-129v446l-98 -70l-56 90l184 144h99z" />
    <glyph glyph-name="twoinferior" unicode="&#x2082;" horiz-adv-x="612" 
d="M95 48q35 34 81.5 74.5t88.5 83t71 85t29 80.5q0 30 -17.5 53.5t-62.5 23.5q-66 0 -131 -66l-64 90q54 45 105.5 67t111.5 22q87 0 139 -45.5t52 -131.5q0 -37 -13 -73.5t-42 -76.5t-76 -84.5t-116 -98.5h251v-109h-388z" />
    <glyph glyph-name="threeinferior" unicode="&#x2083;" horiz-adv-x="622" 
d="M512 123q0 -42 -15 -76t-43.5 -59t-69.5 -38.5t-94 -13.5q-60 0 -107.5 16t-92.5 47l56 92q41 -30 72.5 -40.5t68.5 -10.5q42 0 68.5 20t26.5 64q0 45 -22.5 63t-74.5 18h-74v100h53q54 0 77.5 19t23.5 58q0 30 -19.5 49.5t-66.5 19.5q-29 0 -60.5 -10.5t-63.5 -36.5
l-55 88q28 18 53 31t48.5 21t47.5 11.5t51 3.5q43 0 78.5 -10.5t61 -31.5t40 -52t14.5 -71q0 -43 -18 -75.5t-50 -51.5q86 -35 86 -144z" />
    <glyph glyph-name="fourinferior" unicode="&#x2084;" horiz-adv-x="639" 
d="M342 171v257l-154 -257h154zM460 -58h-130v124h-231l-29 105l244 381h146v-375h79v-111h-79v-124z" />
    <glyph glyph-name="fiveinferior" unicode="&#x2085;" horiz-adv-x="606" 
d="M496 150q0 -103 -56.5 -158.5t-165.5 -55.5q-57 0 -101.5 16.5t-82.5 43.5l54 91q26 -22 56 -35t68 -13q50 0 73 26t23 82q0 55 -22 80t-70 25q-54 0 -92 -41l-78 59l46 283h311v-112h-219l-21 -123l3 -1q14 13 36 21t58 8q39 0 72 -11t57 -35t37.5 -61t13.5 -89z" />
    <glyph glyph-name="sixinferior" unicode="&#x2086;" horiz-adv-x="679" 
d="M437 148q0 52 -18.5 81t-68.5 29q-48 0 -69 -29.5t-21 -80.5q0 -45 20.5 -77t69.5 -32t68.5 31t18.5 78zM569 151q0 -46 -16 -85t-45 -68t-69 -45.5t-89 -16.5q-60 0 -103 20t-71.5 57.5t-42 89.5t-13.5 117q0 76 15 139t46 108t78 70t110 25q51 0 92 -13t71 -30l-41 -92
q-49 32 -123 32q-118 0 -118 -168h1q14 23 44 41.5t79 18.5q98 0 146.5 -52.5t48.5 -147.5z" />
    <glyph glyph-name="seveninferior" unicode="&#x2087;" horiz-adv-x="566" 
d="M486 445q-41 -34 -72.5 -75.5t-53.5 -96.5t-33.5 -126.5t-11.5 -164.5v-40h-130v27q0 54 6.5 118.5t24 128t48 122.5t77.5 103h-261v111h392l14 -107v0z" />
    <glyph glyph-name="eightinferior" unicode="&#x2088;" horiz-adv-x="662" 
d="M422 124q0 51 -22.5 72t-67.5 21t-68 -22.5t-23 -70.5q0 -43 22.5 -67t68.5 -24q48 0 69 24t21 67zM408 388q0 35 -17 56.5t-59 21.5t-61 -21.5t-19 -56.5q0 -41 18.5 -62t60.5 -21q44 0 60.5 21t16.5 62zM552 117q0 -84 -56.5 -132.5t-163.5 -48.5q-109 0 -165.5 48.5
t-56.5 132.5q0 55 22 92.5t71 58.5v3q-42 22 -60.5 54t-18.5 79q0 39 15.5 68.5t43.5 50t65.5 30.5t82.5 10q44 0 82 -10t65.5 -30.5t43 -50t15.5 -68.5q0 -47 -18.5 -79t-60.5 -54v-3q49 -21 71.5 -58t22.5 -93z" />
    <glyph glyph-name="nineinferior" unicode="&#x2089;" horiz-adv-x="676" 
d="M239 352q0 -48 19.5 -77.5t67.5 -29.5t69.5 30t21.5 79q0 45 -20.5 76t-70.5 31q-48 0 -67.5 -30.5t-19.5 -78.5zM110 352q0 46 16 84.5t44.5 66.5t68.5 44t88 16q119 0 174 -73.5t55 -211.5q0 -81 -14.5 -144.5t-45 -107.5t-77 -67t-110.5 -23q-51 0 -93.5 13t-72.5 30
l42 93q23 -14 55 -23t70 -9q57 0 87 44t30 129h-1q-15 -23 -44 -41t-80 -18q-98 0 -145 52t-47 146z" />
    <glyph glyph-name="Euro" unicode="&#x20ac;" horiz-adv-x="1027" 
d="M100 335l28 103h81q-1 16 -2 31.5t-1 32.5v29t2 28h-94l28 102h77q13 76 41 141t74.5 112.5t112.5 74.5t155 27q97 0 171.5 -36.5t147.5 -110.5l-104 -113q-51 57 -103 85t-115 28q-88 0 -138 -52.5t-66 -155.5h354l-29 -102h-335q-2 -14 -2 -28v-29q0 -16 1 -32l2 -32
h325l-30 -103h-285q7 -43 21.5 -80.5t38.5 -65.5t58.5 -44t82.5 -16q68 0 125 29t112 87l93 -116q-69 -70 -148.5 -108.5t-179.5 -38.5q-89 0 -154 25.5t-111 71.5t-74 111t-41 145h-119z" />
    <glyph glyph-name="trademark" unicode="&#x2122;" horiz-adv-x="1059" 
d="M335 970v-298h-94v298h-111v79h315v-79h-110zM839 672v218l-110 -163l-110 163v-218h-90v377h83l117 -173l115 173h85v-377h-90z" />
    <glyph glyph-name="onethird" unicode="&#x2153;" horiz-adv-x="1620" 
d="M423 1104v-609h-129v446l-101 -71l-53 90l184 144h99zM472 -58h-123l752 1164h121zM1447 123q0 -42 -15 -76t-43.5 -59t-69.5 -38.5t-94 -13.5q-60 0 -107.5 16t-92.5 47l56 92q41 -30 72.5 -40.5t68.5 -10.5q42 0 68.5 20t26.5 64q0 45 -22.5 63t-74.5 18h-74v100h53
q54 0 77.5 19t23.5 58q0 30 -19.5 49.5t-66.5 19.5q-29 0 -60.5 -10.5t-63.5 -36.5l-55 88q28 18 53 31t48.5 21t47.5 11.5t51 3.5q43 0 78.5 -10.5t61 -31.5t40 -52t14.5 -71q0 -43 -18 -75.5t-50 -51.5q86 -35 86 -144z" />
    <glyph glyph-name="twothirds" unicode="&#x2154;" horiz-adv-x="1620" 
d="M140 601q36 33 82.5 73.5t88.5 83t71 85t29 79.5q0 31 -18 54.5t-63 23.5q-32 0 -65 -15.5t-66 -48.5l-64 88q54 46 105.5 67t111.5 21q88 0 139.5 -44.5t51.5 -130.5q0 -38 -13 -74.5t-42 -76.5t-76 -85t-115 -99h250v-107h-388zM505 -58h-123l752 1164h121zM1491 123
q0 -42 -15 -76t-43.5 -59t-69.5 -38.5t-94 -13.5q-60 0 -107.5 16t-92.5 47l56 92q41 -30 72.5 -40.5t68.5 -10.5q42 0 68.5 20t26.5 64q0 45 -22.5 63t-74.5 18h-74v100h53q54 0 77.5 19t23.5 58q0 30 -19.5 49.5t-66.5 19.5q-29 0 -60.5 -10.5t-63.5 -36.5l-55 88
q28 18 53 31t48.5 21t47.5 11.5t51 3.5q43 0 78.5 -10.5t61 -31.5t40 -52t14.5 -71q0 -43 -18 -75.5t-50 -51.5q86 -35 86 -144z" />
    <glyph glyph-name="onefifth" unicode="&#x2155;" horiz-adv-x="1620" 
d="M1447 150q0 -103 -56.5 -158.5t-164.5 -55.5q-57 0 -102 16.5t-83 43.5l54 91q26 -22 56 -35t68 -13q51 0 74 26t23 82q0 55 -22 80t-69 25q-56 0 -94 -41l-78 59l46 283h311v-112h-219l-21 -123l3 -1q14 13 36 21t59 8q39 0 72 -11t57 -35t37 -61t13 -89zM471 -60h-123
l751 1164h121zM424 1104v-609h-129v446l-101 -71l-54 90l185 144h99z" />
    <glyph glyph-name="threefifths" unicode="&#x2157;" horiz-adv-x="1620" 
d="M550 673q0 -42 -15 -76t-43 -58.5t-69 -38t-93 -13.5q-60 0 -107.5 15.5t-92.5 47.5l54 92q42 -31 74 -41t67 -10q42 0 69.5 20t27.5 65q0 43 -22.5 63t-75.5 20h-73v100h52q54 0 78 19t24 59q0 32 -19.5 51t-65.5 19q-32 0 -63.5 -11t-62.5 -37l-54 88q55 36 100 51.5
t98 15.5q43 0 79.5 -10.5t62 -31.5t40 -51.5t14.5 -70.5q0 -44 -18.5 -77t-50.5 -53q44 -17 64.5 -55t20.5 -92zM1488 150q0 -103 -56 -158.5t-165 -55.5q-57 0 -102 16.5t-83 43.5l54 91q26 -22 56.5 -35t68.5 -13q50 0 73 26t23 82q0 55 -22 80t-70 25q-55 0 -94 -41
l-77 59l46 283h311v-112h-219l-21 -123l3 -1q15 13 37 21t57 8q40 0 73 -11t57 -35t37 -61t13 -89zM507 -60h-123l750 1164h122z" />
    <glyph glyph-name="minus" unicode="&#x2212;" horiz-adv-x="863" 
d="M148 327v151h567v-151h-567z" />
    <glyph glyph-name="lessequal" unicode="&#x2264;" horiz-adv-x="1000" 
d="M110 2v126l759 -1v-127zM111 528v147l759 308v-146l-588 -236l588 -239v-146z" />
    <glyph glyph-name="greaterequal" unicode="&#x2265;" horiz-adv-x="1000" 
d="M133 0v126h757v-126h-757zM130 216v146l597 237l-597 238v146l760 -310v-147z" />
    <glyph glyph-name="commaaccent" unicode="&#xf6c3;" horiz-adv-x="389" 
d="M200 -362h-112l47 265h173z" />
    <glyph glyph-name="commaaccent.1" horiz-adv-x="389" 
d="M208 1178h97l-45 -265h-161z" />
    <glyph glyph-name="caron.1" horiz-adv-x="389" 
d="M210 836h-113l38 249h175z" />
    </font>
</defs>
</svg>
