<?xml version="1.0" standalone="no"?>
<!DOCTYPE svg PUBLIC "-//W3C//DTD SVG 1.1//EN" "http://www.w3.org/Graphics/SVG/1.1/DTD/svg11.dtd" >
<svg xmlns="http://www.w3.org/2000/svg" xmlns:xlink="http://www.w3.org/1999/xlink" version="1.1">
<metadata>
Created by FontForge 20170731 at Sun Oct 20 04:41:33 2002
 By Aleksey,,,
Copyright (c) Terminal Design, Inc., 2002. All rights reserved.
</metadata>
<defs>
<font id="ClearviewHwy-Three-W" horiz-adv-x="914" >
  <font-face 
    font-family="ClearviewHwy-3-W"
    font-weight="400"
    font-stretch="normal"
    units-per-em="1448"
    panose-1="2 0 5 6 0 0 0 2 0 4"
    ascent="1158"
    descent="-290"
    x-height="817"
    cap-height="1000"
    bbox="-290 -360 1699 1405"
    underline-thickness="175"
    underline-position="-352"
    unicode-range="U+0020-F004"
  />
<missing-glyph horiz-adv-x="600" 
 />
    <glyph glyph-name=".notdef" horiz-adv-x="600" 
 />
    <glyph glyph-name=".null" horiz-adv-x="0" 
 />
    <glyph glyph-name="nonmarkingreturn" horiz-adv-x="600" 
 />
    <glyph glyph-name="uni0000" horiz-adv-x="749" 
 />
    <glyph glyph-name="uni0000" horiz-adv-x="749" 
 />
    <glyph glyph-name="space" unicode=" " horiz-adv-x="600" 
 />
    <glyph glyph-name="exclam" unicode="!" horiz-adv-x="515" 
d="M365 81q0 -44 -30.5 -71t-75.5 -27q-48 0 -78.5 26.5t-30.5 71.5q0 43 30.5 68.5t76.5 25.5q48 0 78 -26t30 -68zM326 294h-136l-26 706h189z" />
    <glyph glyph-name="quotedbl" unicode="&#x22;" horiz-adv-x="722" 
d="M266 718h-113l-33 331h184zM564 718h-113l-33 331h184z" />
    <glyph glyph-name="numbersign" unicode="#" horiz-adv-x="999" 
d="M424 692l-23 -199h172l27 199h-176zM872 692h-141l-29 -199h151l-18 -121h-151l-26 -198h-131l27 198h-168l-27 -198h-126l26 198h-149l13 121h150l24 199h-150l16 120h151l23 188h130l-24 -188h175l27 188h127l-25 -188h142z" />
    <glyph glyph-name="dollar" unicode="$" horiz-adv-x="801" 
d="M701 305q0 -47 -12.5 -89t-39 -76t-68.5 -57.5t-101 -32.5v-119h-154v119q-56 5 -114.5 24.5t-111.5 52.5l56 137q57 -43 116 -66.5t122 -23.5q71 0 109 30t38 91q0 43 -20.5 70.5t-66.5 53.5l-156 80q-43 22 -77 45.5t-57 51t-35.5 62t-12.5 78.5t12 83.5t38 70.5
t65.5 51.5t95.5 28.5v112h153v-112q48 -5 93.5 -19t90.5 -37l-45 -136q-51 33 -99 48.5t-105 15.5q-63 0 -99.5 -24t-36.5 -73q0 -20 6 -35.5t19.5 -29t35 -26.5t51.5 -28l141 -71q83 -41 126 -100t43 -150z" />
    <glyph glyph-name="percent" unicode="%" horiz-adv-x="1284" 
d="M1060 271q0 39 -4 73t-14.5 59t-29.5 39.5t-48 14.5t-47.5 -14.5t-29 -39.5t-14 -59t-3.5 -73t4 -73t14.5 -58.5t28.5 -39t47 -14.5t48 14t29.5 38.5t14.5 58.5t4 74zM1174 271q0 -65 -12.5 -118t-39 -90t-66 -57t-93.5 -20t-93 20.5t-64.5 58t-38 90t-12.5 116.5
q0 66 13 119t39.5 90.5t66 57.5t92.5 20q52 0 91 -20.5t65 -58t39 -90.5t13 -118zM429 0h-126l550 1000h124zM412 730q0 39 -3.5 73t-14 59t-28.5 39.5t-48 14.5q-29 0 -47 -14.5t-28.5 -39.5t-14.5 -59t-4 -73t4 -73t14.5 -58.5t28.5 -39t47 -14.5q30 0 48 14t28.5 39
t14 59t3.5 73zM528 732q0 -66 -12.5 -119t-38.5 -90.5t-65.5 -57.5t-93.5 -20t-93.5 20.5t-65 58t-37.5 90.5t-12 118q0 66 13 118.5t39 89t65.5 56.5t92.5 20q52 0 91 -20.5t65 -57.5t39 -89.5t13 -116.5z" />
    <glyph glyph-name="ampersand" unicode="&#x26;" horiz-adv-x="937" 
d="M605 472h-174q-40 0 -70 -8t-49.5 -27t-29.5 -51t-10 -79q0 -187 169 -187q51 0 83 13.5t50 41t24.5 70t6.5 99.5v128zM763 472v-130q0 -74 -15.5 -139t-52.5 -113t-99 -76t-155 -28q-83 0 -145 22t-103 63t-62 99t-21 130q0 97 41.5 161t116.5 84v4q-63 25 -95.5 79
t-32.5 128q0 64 21.5 112.5t60.5 81.5t93 50t119 17q96 0 188 -41l-41 -126q-29 15 -62.5 24t-70.5 9q-73 0 -109.5 -35.5t-36.5 -101.5q0 -39 13 -65t37 -42t58.5 -22.5t77.5 -6.5h117v127h155v-127h117v-138h-114z" />
    <glyph glyph-name="quotesingle" unicode="'" horiz-adv-x="424" 
d="M266 718h-113l-33 331h184z" />
    <glyph glyph-name="parenleft" unicode="(" horiz-adv-x="471" 
d="M234 -205q-32 93 -55.5 178.5t-38.5 168.5t-22.5 165.5t-7.5 170.5q0 87 7 169.5t22 166t38.5 169t56.5 178.5l117 -31q-23 -84 -39.5 -163.5t-27 -158.5t-16 -160.5t-5.5 -169.5q0 -89 5 -170t16 -159.5t27.5 -158t39.5 -164.5z" />
    <glyph glyph-name="parenright" unicode=")" horiz-adv-x="471" 
d="M361 478q0 -89 -8 -173t-23.5 -167.5t-38.5 -168.5t-54 -176l-117 33q23 85 40 165t27.5 158.5t15.5 159.5t5 169t-5 169t-16 160.5t-27.5 159t-39.5 163.5l117 31q31 -91 54.5 -175.5t39 -168t23 -167t7.5 -172.5z" />
    <glyph glyph-name="asterisk" unicode="*" horiz-adv-x="653" 
d="M401 823v-6l109 -102l-112 -80l-67 135h-7l-66 -136l-112 79l109 104v6l-155 16l41 129l138 -69l3 4l-28 146h142l-25 -145l3 -4l136 70l43 -130z" />
    <glyph glyph-name="plus" unicode="+" horiz-adv-x="822" 
d="M487 335v-249h-152v249h-235v146h235v235h152v-235h235v-146h-235z" />
    <glyph glyph-name="comma" unicode="," horiz-adv-x="425" 
d="M207 -190h-107l44 350h181z" />
    <glyph glyph-name="hyphen" unicode="-" horiz-adv-x="619" 
d="M140 358v162h339v-162h-339z" />
    <glyph glyph-name="hyphen" unicode="&#xad;" horiz-adv-x="619" 
d="M140 358v162h339v-162h-339z" />
    <glyph glyph-name="period" unicode="." horiz-adv-x="408" 
d="M308 83q0 -45 -29 -72.5t-74 -27.5t-75 27.5t-30 72.5q0 44 30 70.5t75 26.5t74 -26.5t29 -70.5z" />
    <glyph glyph-name="slash" unicode="/" horiz-adv-x="750" 
d="M203 -173h-143l483 1222h147z" />
    <glyph glyph-name="zero" unicode="0" horiz-adv-x="954" 
d="M673 499q0 79 -8 148.5t-29.5 121t-60 81t-99.5 29.5q-60 0 -98 -29.5t-59.5 -81t-29.5 -121t-8 -148.5q0 -86 9 -155.5t31.5 -119t60 -76.5t94.5 -27q56 0 94 27t61 76.5t32.5 119t9.5 155.5zM844 502q0 -113 -21 -208t-65.5 -164t-114 -108t-167.5 -39t-167.5 39
t-113.5 108t-64.5 164t-20.5 208q0 115 22 210t67 162.5t114 104.5t163 37q95 0 164.5 -37t114.5 -104.5t67 -162.5t22 -210z" />
    <glyph glyph-name="one" unicode="1" horiz-adv-x="597" 
d="M286 0v782h-6l-152 -145l-78 122l262 245h135v-1004h-161z" />
    <glyph glyph-name="two" unicode="2" horiz-adv-x="788" 
d="M94 0l-24 151q106 107 188 191t137.5 153.5t84 128t28.5 115.5q0 27 -6.5 51.5t-21.5 43.5t-39.5 30.5t-60.5 11.5q-61 0 -111.5 -30t-101.5 -87l-88 122q73 69 147 102t167 33q63 0 115 -17t89 -50.5t57.5 -84.5t20.5 -119q0 -65 -22 -127.5t-72 -132.5t-132 -153.5
t-203 -190.5l432 2v-143h-584z" />
    <glyph glyph-name="three" unicode="3" horiz-adv-x="781" 
d="M671 289q0 -70 -20.5 -126.5t-61 -96.5t-101.5 -61.5t-142 -21.5t-150.5 20.5t-135.5 65.5l63 129q29 -20 55 -34.5t51.5 -24.5t51.5 -14.5t55 -4.5q37 0 68.5 9.5t54 30.5t35 54t12.5 80q0 84 -37.5 122t-117.5 38h-109v138h44q95 0 146.5 33t51.5 111q0 66 -35 103.5
t-111 37.5q-52 0 -101 -20t-98 -58l-65 124q37 24 72 41.5t69.5 29t70 17t75.5 5.5q63 0 115.5 -16.5t90.5 -50.5t59 -84.5t21 -118.5q0 -74 -30 -126t-98 -84v-3q81 -22 116.5 -84t35.5 -160z" />
    <glyph glyph-name="four" unicode="4" horiz-adv-x="857" 
d="M484 800l-252 -451h254l1 451h-3zM649 208v-208h-170v208h-369l-40 133l395 659h184v-651h128v-141h-128z" />
    <glyph glyph-name="five" unicode="5" horiz-adv-x="805" 
d="M695 344q0 -173 -86 -267t-249 -94q-78 0 -142.5 19.5t-127.5 64.5l69 128q43 -35 89.5 -55t102.5 -20q93 0 136.5 56.5t43.5 164.5q0 212 -164 212q-51 0 -89.5 -22t-70.5 -70l-109 84l69 455h472v-146h-340l-39 -229l2 -2q32 30 69.5 43.5t85.5 13.5q130 0 204 -86
t74 -250z" />
    <glyph glyph-name="six" unicode="6" horiz-adv-x="874" 
d="M614 327q0 91 -38.5 142t-118.5 51q-75 0 -118 -53t-43 -146q0 -91 40.5 -145.5t120.5 -54.5q78 0 117.5 56t39.5 150zM774 330q0 -77 -22.5 -141t-64 -110t-100 -71t-131.5 -25q-89 0 -153 33.5t-104.5 95.5t-59.5 148.5t-19 193.5q0 128 19.5 232t63 177.5t113.5 113
t170 39.5q63 0 115.5 -14.5t106.5 -44.5l-58 -125q-40 24 -77 36t-81 12q-47 0 -84.5 -17.5t-64.5 -56.5t-42 -102.5t-17 -155.5h3q28 51 77.5 77.5t118.5 26.5q68 0 122 -22t91.5 -63.5t57.5 -101.5t20 -135z" />
    <glyph glyph-name="seven" unicode="7" horiz-adv-x="768" 
d="M688 853q-54 -53 -95 -100.5t-71 -98.5t-50 -107t-32 -125.5t-17 -156t-5 -195.5v-70h-173v51q0 103 7.5 210.5t35.5 211.5t81 200.5t145 177.5v3h-444v146h596l22 -147v0z" />
    <glyph glyph-name="eight" unicode="8" horiz-adv-x="889" 
d="M612 288q0 82 -38 128.5t-130 46.5q-34 0 -64.5 -8.5t-53 -29t-36 -55t-13.5 -85.5q0 -83 39.5 -127t129.5 -44q81 0 123.5 40.5t42.5 133.5zM590 740q0 73 -34 109.5t-110 36.5t-111 -35.5t-35 -110.5q0 -71 36 -109.5t108 -38.5q73 0 109.5 38.5t36.5 109.5zM779 289
q0 -145 -83 -225.5t-250 -80.5t-251.5 80.5t-84.5 225.5q0 93 36 152.5t115 93.5v4q-66 37 -95 86.5t-29 127.5q0 126 78 194.5t229 68.5q71 0 128 -16t97 -49t61.5 -82.5t21.5 -115.5q0 -77 -28.5 -127t-95.5 -87v-4q80 -34 115.5 -93.5t35.5 -152.5z" />
    <glyph glyph-name="nine" unicode="9" horiz-adv-x="876" 
d="M579 677q0 45 -9.5 82t-29 64t-49 41.5t-70.5 14.5q-75 0 -117 -54.5t-42 -148.5q0 -89 39.5 -140.5t117.5 -51.5q39 0 69 14t50 39.5t30.5 61t10.5 78.5zM756 517q0 -127 -20.5 -226.5t-64.5 -167.5t-113.5 -104t-168.5 -36q-66 0 -119.5 16t-108.5 52l64 122
q45 -29 81.5 -42t84.5 -13q52 0 90 20t63.5 62t38.5 107.5t13 157.5h-3q-29 -60 -78.5 -90t-116.5 -30q-66 0 -121 24t-94.5 67t-61 103.5t-21.5 133.5q0 74 23 137t65.5 108.5t102.5 71.5t134 26q85 0 147.5 -33.5t103.5 -97t60.5 -156.5t19.5 -212z" />
    <glyph glyph-name="colon" unicode=":" horiz-adv-x="408" 
d="M308 607q0 -45 -29 -72t-74 -27t-75 27t-30 72t30 71.5t75 26.5t74 -26.5t29 -71.5zM308 83q0 -45 -29 -72.5t-74 -27.5t-75 27.5t-30 72.5q0 44 30 70.5t75 26.5t74 -26.5t29 -70.5z" />
    <glyph glyph-name="semicolon" unicode=";" horiz-adv-x="448" 
d="M348 628q0 -46 -29.5 -74t-76.5 -28t-78.5 28t-31.5 74t31.5 74t78.5 28t76.5 -28t29.5 -74zM212 -197h-112l47 363h187z" />
    <glyph glyph-name="semicolon" unicode="&#x37e;" horiz-adv-x="448" 
d="M348 628q0 -46 -29.5 -74t-76.5 -28t-78.5 28t-31.5 74t31.5 74t78.5 28t76.5 -28t29.5 -74zM212 -197h-112l47 363h187z" />
    <glyph glyph-name="less" unicode="&#x3c;" horiz-adv-x="941" 
d="M100 331v143l721 331v-139l-576 -262l576 -266v-138z" />
    <glyph glyph-name="equal" unicode="=" horiz-adv-x="740" 
d="M100 177v142h540v-142h-540zM100 457v142h540v-142h-540z" />
    <glyph glyph-name="greater" unicode="&#x3e;" horiz-adv-x="941" 
d="M120 0v138l577 264l-577 264v139l721 -331v-143z" />
    <glyph glyph-name="question" unicode="?" horiz-adv-x="770" 
d="M414 83q0 -45 -29 -72.5t-73 -27.5q-45 0 -75 27.5t-30 72.5q0 44 29.5 69.5t73.5 25.5q45 0 74.5 -26t29.5 -69zM650 749q0 -95 -37 -156.5t-110 -103.5l-63 -41q-18 -11 -27.5 -19t-14.5 -18t-6 -24t-1 -38v-79h-154v112q0 34 3 57.5t12 40t25.5 30t43.5 28.5l59 34
q27 15 47.5 31t33.5 35t19.5 42.5t6.5 54.5q0 66 -36 105t-105 39q-54 0 -100 -20.5t-91 -59.5l-65 127q35 24 68 41t66 28t68.5 16t74.5 5q69 0 121.5 -18.5t88.5 -53t54.5 -84t18.5 -111.5z" />
    <glyph glyph-name="at" unicode="@" horiz-adv-x="1154" 
d="M681 562q3 22 1 42t-11 34.5t-27.5 23t-48.5 8.5q-128 0 -128 -231q0 -62 21 -91t66 -29q57 0 82.5 38t32.5 98l12 107v0zM1044 585q0 -99 -23.5 -169t-59.5 -114t-80 -64.5t-85 -20.5q-17 0 -34.5 4.5t-33.5 15t-27.5 27t-15.5 40.5h-3q-29 -42 -71.5 -64t-88.5 -22
q-79 0 -128 58.5t-49 174.5q0 59 14 116.5t42.5 102.5t73 72.5t106.5 27.5q44 0 72 -15.5t46 -47.5h3l6 50h117l-46 -403q-3 -18 7.5 -33.5t35.5 -15.5q19 0 43 15t44 48.5t34 88.5t14 135q0 82 -23.5 146.5t-67 108t-104.5 66.5t-137 23q-99 0 -177.5 -33t-132.5 -93
t-83 -144.5t-29 -187.5q0 -104 25.5 -183.5t73.5 -133t116.5 -81t154.5 -27.5q83 0 150 24.5t123 72.5l41 -75q-69 -56 -151 -79t-171 -23q-100 0 -183.5 31.5t-144 95t-94 159.5t-33.5 225q0 124 40 223t109.5 167.5t162.5 105t200 36.5q88 0 165 -26.5t134 -79.5
t90 -134.5t33 -190.5z" />
    <glyph glyph-name="A" unicode="A" horiz-adv-x="949" 
d="M474 844h-6l-129 -468h265zM707 0l-70 232h-330l-68 -232h-179l310 1003h203l316 -1003h-182z" />
    <glyph glyph-name="B" unicode="B" horiz-adv-x="919" 
d="M656 288q0 55 -16 88t-43 50t-63.5 22.5t-76.5 5.5q-39 0 -73.5 -1.5t-65.5 -3.5v-318q38 -2 71 -2h71q48 0 84.5 5t61 22t37.5 48t13 84zM625 727q0 80 -42.5 115t-134.5 35q-29 0 -64.5 -2t-64.5 -6v-290q28 -2 60 -2.5t67 -0.5q48 0 81.5 6.5t55.5 24t32 46.5t10 74z
M829 278q0 -278 -313 -278h-366v994q69 8 144 12.5t154 4.5q66 0 128 -12t110.5 -42t78 -82t29.5 -132q0 -84 -33.5 -136t-105.5 -78v-4q45 -9 77.5 -31t54 -54.5t32 -73.5t10.5 -88z" />
    <glyph glyph-name="C" unicode="C" horiz-adv-x="892" 
d="M832 126q-63 -66 -140.5 -104.5t-174.5 -38.5q-109 0 -186 40t-126 110t-72 164.5t-23 204.5q0 100 23 193t72.5 164.5t127 114t187.5 42.5q92 0 164 -35t142 -105l-102 -117q-24 27 -47 48.5t-47 36t-51 22t-59 7.5q-59 0 -103.5 -25.5t-73.5 -73.5t-43.5 -117
t-14.5 -155q0 -66 10.5 -133t37.5 -121t72.5 -88t116.5 -34q66 0 117 30t104 87l89 -117v0z" />
    <glyph glyph-name="D" unicode="D" horiz-adv-x="974" 
d="M687 509q0 74 -10.5 140.5t-38 117t-75 80t-121.5 29.5q-30 0 -62 -1.5t-61 -5.5v-731q29 -1 51 -1h46q69 0 119.5 21t84.5 66t50.5 115.5t16.5 169.5zM864 505q0 -114 -25.5 -207.5t-79 -159.5t-136 -102t-196.5 -36h-277v994q31 3 67 6.5t73.5 5.5t74.5 3.5t70 1.5
q108 0 189 -35t134 -101t79.5 -159.5t26.5 -210.5z" />
    <glyph glyph-name="E" unicode="E" horiz-adv-x="791" 
d="M150 0v1000h537v-144h-368v-263h333v-145h-333v-307h382v-141h-551z" />
    <glyph glyph-name="F" unicode="F" horiz-adv-x="757" 
d="M319 856v-267h323v-145h-323v-444h-169v1000h527v-144h-358z" />
    <glyph glyph-name="G" unicode="G" horiz-adv-x="983" 
d="M873 444q0 -95 -17 -179t-58 -146.5t-109.5 -99t-172.5 -36.5q-107 0 -183.5 42t-126 113t-73 164.5t-23.5 196.5q0 102 24 195.5t74 165t127.5 114t184.5 42.5q49 0 90.5 -10t78 -27t68.5 -41t62 -51l-99 -118q-45 48 -90.5 76t-107.5 28q-73 0 -119 -35t-72.5 -89.5
t-36 -120.5t-9.5 -129t8.5 -130t34 -123t71.5 -92t120 -36q61 0 99.5 24t60 64t29 90.5t7.5 104.5h-190v141h348v-98v0z" />
    <glyph glyph-name="H" unicode="H" horiz-adv-x="980" 
d="M661 0v449h-342v-449h-169v1000h169v-391h342v391h169v-1000h-169z" />
    <glyph glyph-name="I" unicode="I" horiz-adv-x="471" 
d="M150 0v1000h171v-1000h-171z" />
    <glyph glyph-name="J" unicode="J" horiz-adv-x="677" 
d="M527 260q0 -65 -14.5 -116.5t-45 -87.5t-78 -55t-114.5 -19q-64 0 -116 16.5t-99 52.5l66 127q37 -29 66 -40.5t67 -11.5q54 0 76 33.5t22 100.5v740h170v-740v0z" />
    <glyph glyph-name="K" unicode="K" horiz-adv-x="880" 
d="M637 0l-231 451l-88 -117l1 -334h-169v1000h169l-1 -442h6l286 442h201l-288 -425l307 -575h-193z" />
    <glyph glyph-name="L" unicode="L" horiz-adv-x="726" 
d="M150 0v1000h169v-856h337v-144h-506z" />
    <glyph glyph-name="M" unicode="M" horiz-adv-x="1118" 
d="M804 0l2 688h-5l-242 -404l-241 402h-5l2 -686h-165v1000h161l248 -418l249 418h160v-1000h-164z" />
    <glyph glyph-name="N" unicode="N" horiz-adv-x="1034" 
d="M721 0l-405 682h-3l2 -682h-165v1000h166l401 -688h4v688h163v-1000h-163z" />
    <glyph glyph-name="O" unicode="O" horiz-adv-x="1053" 
d="M766 501q0 82 -11 151t-39 119t-74.5 78t-116.5 28t-116 -28t-73.5 -78t-39 -119t-11.5 -151q0 -83 11.5 -152.5t39 -119.5t74.5 -78t118 -28q69 0 115 28.5t73.5 79t38.5 120t11 150.5zM943 501q0 -116 -26 -211.5t-78 -163.5t-130.5 -105.5t-182.5 -37.5
q-105 0 -183.5 37t-130 105t-77 163.5t-25.5 212.5q0 114 25.5 209t77 163t129.5 105.5t184 37.5q105 0 183.5 -37.5t130 -105.5t77.5 -163t26 -209z" />
    <glyph glyph-name="P" unicode="P" horiz-adv-x="906" 
d="M625 689q0 52 -9 87t-30 57t-54.5 31.5t-82.5 9.5q-30 0 -61.5 -2.5t-68.5 -5.5v-361h132q45 0 77.5 7.5t54 28t32 56t10.5 92.5zM796 691q0 -159 -76 -241.5t-244 -82.5h-157v-367h-169v994q66 8 138.5 12t153.5 4q79 0 144.5 -16t112 -53t72 -98t25.5 -152z" />
    <glyph glyph-name="Q" unicode="Q" horiz-adv-x="1053" 
d="M767 502q0 82 -11 150.5t-38.5 118.5t-74.5 78t-118 28t-117.5 -28t-73.5 -78.5t-38 -119.5t-11 -150q0 -82 11 -151.5t39 -119.5t75 -78.5t118 -28.5q69 0 115 29t73.5 80t39 120t11.5 150zM943 501q0 -66 -8.5 -129.5t-28 -120t-52 -104.5t-79.5 -84v-2q21 -6 36 -16.5
t30.5 -22.5t35.5 -23.5t53 -18.5l-53 -125q-50 3 -90 24t-73 45t-60.5 43.5t-52.5 19.5q-16 0 -29.5 -2t-33.5 -2q-110 0 -190.5 36.5t-133.5 104t-78.5 163.5t-25.5 214q0 113 24.5 207.5t75.5 163t129.5 106.5t186.5 38t186.5 -38t129.5 -106.5t76 -163t25 -207.5z" />
    <glyph glyph-name="R" unicode="R" 
d="M626 705q0 85 -42 128t-136 43q-34 0 -65.5 -2t-63.5 -5v-331h146q39 0 69 8.5t50.5 28t31 51.5t10.5 79zM634 0l-112 354q-10 26 -20 37t-34 11h-149v-402h-169v994q77 9 148.5 12.5t147.5 3.5q75 0 139.5 -16t111.5 -51t73.5 -92t26.5 -138q0 -100 -35.5 -164.5
t-112.5 -97.5v-2q9 -4 16.5 -21.5t13.5 -32.5l135 -395h-180z" />
    <glyph glyph-name="S" unicode="S" horiz-adv-x="810" 
d="M720 287q0 -79 -24 -136t-66.5 -94.5t-101.5 -55.5t-129 -18q-96 0 -172 25t-147 72l62 138q54 -41 115.5 -69.5t133.5 -28.5q32 0 61.5 7.5t52.5 25t37 46t14 69.5q0 39 -15.5 66.5t-41 48.5t-59 37.5t-69.5 31.5q-47 20 -93 42t-83.5 54.5t-60.5 79.5t-23 118
q0 69 25.5 119.5t67.5 83.5t96.5 49t113.5 16q78 0 143.5 -20t130.5 -58l-49 -140q-51 38 -101 59.5t-110 21.5q-31 0 -58.5 -7t-48 -22t-32.5 -38.5t-12 -56.5q0 -32 15 -55t40 -41t58 -32.5t70 -29.5q46 -19 92 -42.5t83.5 -58.5t61 -85t23.5 -122z" />
    <glyph glyph-name="T" unicode="T" horiz-adv-x="753" 
d="M461 854v-854h-170v854h-231v146h633v-146h-232z" />
    <glyph glyph-name="U" unicode="U" horiz-adv-x="991" 
d="M841 405q0 -102 -17 -180.5t-57 -132t-106.5 -81.5t-164.5 -28q-99 0 -165.5 27.5t-106.5 81t-57 132t-17 181.5v595h169v-606q0 -61 7 -110.5t26 -84t53.5 -53.5t90.5 -19q55 0 89.5 19t53.5 53.5t25.5 84t6.5 110.5v606h170v-595v0z" />
    <glyph glyph-name="V" unicode="V" horiz-adv-x="897" 
d="M548 0h-200l-278 1000h181l197 -826h3l198 826h178z" />
    <glyph glyph-name="W" unicode="W" horiz-adv-x="1351" 
d="M1047 0h-196l-174 726h-5l-173 -726h-198l-211 1000h180l139 -810h3l187 810h157l185 -809h5l139 809h176z" />
    <glyph glyph-name="X" unicode="X" horiz-adv-x="877" 
d="M629 0l-189 378h-1l-188 -378h-191l278 519l-247 481h193l162 -355h5l161 355h189l-253 -492l269 -508h-188z" />
    <glyph glyph-name="Y" unicode="Y" horiz-adv-x="863" 
d="M517 388v-388h-169v381l-298 619h185l198 -465l199 465h181z" />
    <glyph glyph-name="Z" unicode="Z" horiz-adv-x="798" 
d="M90 0v137l412 717h-392v146h588v-136l-417 -723h427v-141h-618z" />
    <glyph glyph-name="bracketleft" unicode="[" horiz-adv-x="546" 
d="M140 -177v1332h286v-106h-137v-1119h137v-107h-286z" />
    <glyph glyph-name="backslash" unicode="\" horiz-adv-x="745" 
d="M545 -173l-485 1223h142l483 -1223h-140z" />
    <glyph glyph-name="bracketright" unicode="]" horiz-adv-x="545" 
d="M120 -177v107h137v1119h-137v106h285v-1332h-285z" />
    <glyph glyph-name="asciicircum" unicode="^" horiz-adv-x="705" 
d="M565 751l-213 117l-215 -117l-77 119l291 163l294 -163z" />
    <glyph glyph-name="underscore" unicode="_" horiz-adv-x="886" 
d="M70 -234v111h746v-111h-746z" />
    <glyph glyph-name="grave" unicode="`" horiz-adv-x="438" 
d="M292 911l-238 166l141 73l189 -187z" />
    <glyph glyph-name="a" unicode="a" horiz-adv-x="887" 
d="M564 421q-54 0 -106.5 -7.5t-93.5 -28t-66.5 -56.5t-25.5 -92q0 -30 6.5 -55t20 -43.5t34.5 -29t50 -10.5q48 0 94 21.5t87 62.5v238zM674 -10q-38 11 -62 31.5t-33 62.5h-4q-48 -48 -108.5 -75t-132.5 -27q-54 0 -96 18t-70.5 51t-43 78t-14.5 99q0 91 42 149.5t108 92
t147 46t158 12.5v30q0 34 -4 61.5t-16 46.5t-34.5 29t-59.5 10q-73 0 -139 -21t-126 -56l-43 124q76 40 152.5 60.5t164.5 20.5q77 0 129 -18t83 -53.5t44 -88.5t13 -123v-363q0 -24 1.5 -39.5t6.5 -27t14.5 -20.5t25.5 -19z" />
    <glyph glyph-name="b" unicode="b" horiz-adv-x="910" 
d="M633 408q0 62 -5.5 116t-22.5 93.5t-49 62.5t-86 23q-73 0 -114 -43.5t-41 -131.5v-213q0 -42 8 -80t26.5 -66t48 -44.5t71.5 -16.5q50 0 82 25t50 67t25 96t7 112zM800 409q0 -78 -15 -154.5t-49.5 -137t-91 -98t-138.5 -37.5q-66 0 -114 27.5t-83 87.5h-5l-19 -97h-135
v1085h165v-350h3q30 54 78.5 76t108.5 22q78 0 134 -32t91.5 -88.5t52.5 -134.5t17 -169z" />
    <glyph glyph-name="c" unicode="c" horiz-adv-x="784" 
d="M645 623q-39 39 -79 58t-96 19q-59 0 -96 -27.5t-58 -69.5t-28.5 -93t-7.5 -99q0 -50 8 -102.5t29.5 -96t58.5 -71t95 -27.5q57 0 102 20t89 54l52 -121q-60 -42 -122 -63.5t-135 -21.5q-95 0 -161 35t-107 93.5t-60 136t-19 161.5q0 85 20 162t63 135.5t110.5 93
t162.5 34.5q67 0 128.5 -21.5t116.5 -63.5z" />
    <glyph glyph-name="d" unicode="d" horiz-adv-x="912" 
d="M599 528q0 88 -41 131t-115 43q-53 0 -85 -23t-49.5 -62.5t-23 -93.5t-5.5 -115q0 -57 6.5 -111t24.5 -95.5t50 -66.5t82 -25q44 0 74 16.5t48 44t26 63.5t8 76v218zM618 0l-10 96h-4q-38 -59 -85 -86.5t-113 -27.5q-82 0 -138.5 37.5t-91.5 98t-50.5 137t-15.5 154.5
q0 91 17 169t53.5 134.5t92.5 88.5t134 32q60 0 108.5 -22t80.5 -74h1v348h165v-1085h-144z" />
    <glyph glyph-name="e" unicode="e" horiz-adv-x="884" 
d="M620 468q-1 49 -8 92.5t-25 76t-48.5 51.5t-78.5 19q-84 0 -132.5 -60.5t-48.5 -178.5h341v0zM774 415v-30t-2 -36h-492q0 -235 194 -235q55 0 103.5 16t103.5 54l51 -124q-66 -42 -129.5 -60t-136.5 -18q-87 0 -153.5 29.5t-111.5 84.5t-68 134t-23 178
q0 107 25.5 186.5t72 132.5t110 79.5t140.5 26.5q155 0 235.5 -104t80.5 -314z" />
    <glyph glyph-name="f" unicode="f" horiz-adv-x="590" 
d="M510 964q-16 2 -31 4t-32 2q-27 0 -45 -4.5t-28 -15t-14 -27.5t-4 -42v-85h144v-135h-141v-661h-166v659h-103v137h103v67q0 63 9.5 107t35.5 71.5t71.5 40t116.5 12.5q20 0 41 -2t43 -5v-123v0z" />
    <glyph glyph-name="g" unicode="g" horiz-adv-x="915" 
d="M601 519q0 39 -9.5 72.5t-29 58t-49.5 39t-70 14.5q-50 0 -82 -22.5t-50 -61.5t-24.5 -91t-6.5 -111q0 -45 6 -93t23 -88t49 -66t83 -26q49 0 80 21t49 53.5t24.5 72t6.5 77.5v151zM765 -7q0 -75 -14.5 -133.5t-50 -98t-94 -60t-146.5 -20.5q-83 0 -157.5 18t-140.5 53
l46 135q61 -33 121 -50.5t129 -17.5q40 0 67 7t44 25t24.5 47.5t7.5 74.5v144h-5q-35 -52 -81.5 -76t-108.5 -24q-74 0 -129 27t-92.5 77.5t-56 124t-18.5 166.5q0 80 14 155.5t48.5 134.5t91.5 95t143 36q65 0 114.5 -24.5t82.5 -81.5h3l10 90h148v-824v0z" />
    <glyph glyph-name="h" unicode="h" horiz-adv-x="923" 
d="M607 0v468q0 47 -2 88t-14.5 71.5t-39.5 48t-76 17.5q-86 0 -123 -50t-37 -144v-499h-165v1085h165v-345h1q37 53 90.5 73t116.5 20q74 0 122.5 -23t77 -67t39.5 -108t11 -145v-490h-166z" />
    <glyph glyph-name="i" unicode="i" horiz-adv-x="469" 
d="M339 1024q0 -43 -29 -68.5t-77 -25.5t-75.5 25.5t-27.5 68.5q0 42 27.5 67.5t75.5 25.5t77 -25.5t29 -67.5zM151 0v817h166v-817h-166z" />
    <glyph glyph-name="j" unicode="j" horiz-adv-x="474" 
d="M323 4q0 -71 -11.5 -130t-41.5 -101.5t-81 -66t-130 -23.5q-50 0 -99 9v135q21 -1 40 -1.5t36 -0.5q45 0 69.5 13t36 37t14 59t2.5 80v803h165v-813v0zM344 1024q0 -44 -29.5 -69t-74.5 -25q-46 0 -75 25t-29 69t29 68.5t75 24.5q45 0 74.5 -24.5t29.5 -68.5z" />
    <glyph glyph-name="k" unicode="k" horiz-adv-x="832" 
d="M586 0l-181 365l-92 -117v-248h-163v1085h165v-636h4l249 368h189l-237 -339l252 -478h-186z" />
    <glyph glyph-name="l" unicode="l" horiz-adv-x="509" 
d="M429 0q-23 -5 -54 -7t-57 -2q-47 0 -79 9t-51.5 29.5t-28.5 54t-9 83.5v918h165v-878q0 -25 3.5 -40t12 -23t22.5 -10.5t36 -2.5h40v-131v0z" />
    <glyph glyph-name="m" unicode="m" horiz-adv-x="1331" 
d="M1017 0v481q0 46 -3.5 85t-16.5 67t-38 44t-68 16q-72 0 -108 -46t-36 -133v-514h-164v484q0 45 -3 83.5t-15.5 66.5t-37.5 43.5t-68 15.5q-74 0 -109 -47t-35 -132v-514h-165v817h148l11 -87h3q32 51 77.5 77t116.5 26q68 0 118.5 -25.5t78.5 -88.5q42 66 96.5 90
t124.5 24t119 -20.5t80 -61.5t44.5 -102.5t13.5 -143.5v-505h-164z" />
    <glyph glyph-name="n" unicode="n" horiz-adv-x="922" 
d="M607 0v466q0 49 -2 90.5t-14.5 72t-39.5 47.5t-76 17q-87 0 -123.5 -50.5t-36.5 -143.5v-499h-165v817h145l14 -87h2q35 57 89.5 80t121.5 23q75 0 123 -23t76.5 -66.5t39.5 -107.5t11 -146v-490h-165z" />
    <glyph glyph-name="o" unicode="o" horiz-adv-x="918" 
d="M640 408q0 57 -7 110t-26.5 93t-54.5 64t-92 24t-92 -24t-54.5 -64t-26.5 -92.5t-7 -110.5q0 -66 8 -120t28.5 -93t55 -60t88.5 -21q53 0 88 21t55.5 60t28.5 93t8 120zM808 408q0 -96 -21.5 -174.5t-64.5 -134.5t-108.5 -86.5t-153.5 -30.5q-89 0 -154.5 30.5t-109 86
t-65 134.5t-21.5 175q0 94 21 172t64 134.5t109 87.5t156 31q88 0 153 -30t108.5 -85.5t65 -134t21.5 -175.5z" />
    <glyph glyph-name="p" unicode="p" horiz-adv-x="911" 
d="M633 408q0 45 -3.5 97t-19.5 96t-49.5 73t-92.5 29q-41 0 -70.5 -14t-48.5 -39t-27.5 -58t-8.5 -70v-204q0 -39 7.5 -76.5t25.5 -66.5t48 -47t75 -18q55 0 88 31t49.5 76.5t21.5 97t5 93.5zM801 411q0 -48 -6 -98.5t-20 -98.5t-36.5 -90t-55.5 -73.5t-77.5 -50
t-102.5 -18.5q-62 0 -107 22t-78 74h-3v-386h-165v1125h145l13 -87h1q35 55 84 79t113 24q87 0 144 -39t90.5 -100.5t47 -136t13.5 -146.5z" />
    <glyph glyph-name="q" unicode="q" 
d="M599 520q0 183 -155 183q-54 0 -86.5 -23t-49.5 -62.5t-22.5 -93.5t-5.5 -116q0 -56 6.5 -109.5t24.5 -95.5t50 -67.5t83 -25.5q46 0 76 19t47.5 49.5t24.5 69t7 77.5v195zM725 -338q-42 12 -66.5 31.5t-38 46t-17.5 60t-4 73.5v207h-6q-32 -51 -78.5 -74.5t-107.5 -23.5
q-78 0 -134 34t-92 92t-53.5 136t-17.5 167q0 78 14.5 153.5t49 135.5t91 96.5t141.5 36.5q64 0 115 -23t83 -80h1l10 87h150v-913q0 -29 1.5 -49t7.5 -34.5t18 -24t32 -17.5z" />
    <glyph glyph-name="r" unicode="r" horiz-adv-x="636" 
d="M513 679q-46 0 -82.5 -8.5t-62 -28.5t-39.5 -54t-14 -86v-502h-165v817h149l12 -99h1q32 60 79 87.5t123 27.5h42v-154h-43z" />
    <glyph glyph-name="s" unicode="s" horiz-adv-x="746" 
d="M656 235q0 -65 -20 -112.5t-57.5 -78.5t-91 -46.5t-119.5 -15.5q-79 0 -152 21.5t-136 59.5l55 128q49 -35 110.5 -56.5t123.5 -21.5q63 0 95 24t32 80q0 27 -14 46.5t-37.5 35t-54 28t-63.5 25.5q-40 16 -79.5 33t-71.5 43.5t-52 67.5t-20 105q0 57 21 100t58.5 72.5
t89 44.5t112.5 15q65 0 128 -13t120 -42l-39 -130q-42 26 -92.5 39t-103.5 13q-29 0 -54 -3.5t-43 -13t-28 -26t-10 -41.5t13.5 -42.5t37 -31.5t54 -25.5t63.5 -24.5q40 -16 80 -35t72.5 -47.5t52.5 -70.5t20 -104z" />
    <glyph glyph-name="t" unicode="t" horiz-adv-x="589" 
d="M489 -1q-29 -4 -56.5 -6t-55.5 -2q-68 0 -108.5 13.5t-62.5 43t-29 75.5t-7 111v425h-110v137h113v228h161v-228h155v-137h-155v-434q0 -30 3.5 -48.5t14.5 -29t33 -14t60 -3.5h44v-131v0z" />
    <glyph glyph-name="u" unicode="u" 
d="M613 0l-10 86h-4q-35 -51 -85 -77.5t-126 -26.5q-61 0 -105.5 16.5t-74 53.5t-44 96.5t-14.5 146.5v522h165v-473q0 -50 3.5 -91t16.5 -70.5t39 -46t71 -16.5q85 0 119 50.5t34 151.5v495h166v-817h-151z" />
    <glyph glyph-name="v" unicode="v" horiz-adv-x="796" 
d="M504 0h-207l-237 817h174l167 -683h4l161 683h170z" />
    <glyph glyph-name="w" unicode="w" horiz-adv-x="1221" 
d="M950 0h-189l-148 572h-6l-149 -572h-190l-188 817h171l120 -656h4l160 656h151l160 -657h4l124 657h167z" />
    <glyph glyph-name="x" unicode="x" horiz-adv-x="802" 
d="M558 0l-157 321h-4l-156 -321h-181l241 427l-214 390h184l137 -288h3l137 288h170l-214 -386l238 -431h-184z" />
    <glyph glyph-name="y" unicode="y" horiz-adv-x="806" 
d="M478 -48q-23 -70 -46 -121t-52.5 -84.5t-69 -49.5t-96.5 -16q-23 0 -46.5 1.5t-52.5 5.5v139q12 -2 30.5 -3t38.5 -1q26 0 44.5 4.5t32 16.5t23.5 33.5t20 56.5l18 60l-262 823h175l171 -643h3l165 643h172z" />
    <glyph glyph-name="z" unicode="z" horiz-adv-x="712" 
d="M90 0v124l342 556h-333v137h516v-135l-337 -545h344v-137h-532z" />
    <glyph glyph-name="braceleft" unicode="{" horiz-adv-x="567" 
d="M359 -186q-50 0 -85.5 10t-58 33.5t-32.5 62.5t-10 97v274q0 25 -2.5 46t-10.5 37.5t-22 27t-38 15.5v121q45 9 59 42.5t14 82.5v290q0 58 10 96.5t32.5 62t57 33.5t84.5 10h80v-106h-31q-30 0 -47 -6t-26 -20t-11 -37.5t-2 -59.5v-286q0 -30 -3 -52.5t-11 -41
t-21.5 -34.5t-35.5 -34q22 -19 35.5 -35t21.5 -34.5t11 -40.5t3 -53v-270q0 -38 2.5 -62t11.5 -38t26 -19.5t46 -5.5h31v-106h-78z" />
    <glyph glyph-name="bar" unicode="|" horiz-adv-x="421" 
d="M150 -330v1379h121v-1379h-121z" />
    <glyph glyph-name="braceright" unicode="}" horiz-adv-x="567" 
d="M467 417q-23 -5 -37.5 -15.5t-22.5 -27t-11 -37.5t-3 -46v-274q0 -58 -10 -97t-32 -62.5t-57 -33.5t-86 -10h-78v106h31q29 0 46 5.5t25.5 19.5t11 38t2.5 62v270q0 31 3 53t11.5 40.5t22.5 34.5t35 35q-21 18 -35 34t-22.5 34.5t-11.5 41t-3 52.5v286q0 36 -2 59.5
t-10.5 37.5t-25.5 20t-47 6h-31v106h79q50 0 85 -10t57 -33.5t32 -62t10 -96.5v-290q0 -49 14.5 -82.5t59.5 -42.5v-121v0z" />
    <glyph glyph-name="asciitilde" unicode="~" horiz-adv-x="750" 
d="M693 893q-23 -59 -70.5 -89t-110.5 -30q-36 0 -70 10t-66.5 22t-64.5 22t-63 10q-32 0 -52 -13.5t-40 -51.5l-102 83q18 33 37 55.5t40 36t46.5 19.5t57.5 6q36 0 70 -10t66.5 -21.5t64 -21.5t63.5 -10q29 0 52 15t40 49l102 -81v0z" />
    <glyph glyph-name="uni00A0" unicode="&#xa0;" horiz-adv-x="600" 
 />
    <glyph glyph-name="exclamdown" unicode="&#xa1;" horiz-adv-x="501" 
d="M351 725q0 -43 -28.5 -69t-73.5 -26q-43 0 -71 26t-28 69t28 68.5t71 25.5q45 0 73.5 -25.5t28.5 -68.5zM159 -197l25 706h134l24 -706h-183z" />
    <glyph glyph-name="cent" unicode="&#xa2;" horiz-adv-x="777" 
d="M687 202q-45 -36 -88 -56t-97 -28v-118h-144v120q-65 13 -112 48.5t-77 87t-44.5 115.5t-14.5 135q0 72 14.5 135t44.5 113t77 84t112 48v114h144v-111q48 -7 89.5 -25t83.5 -48l-66 -125q-20 17 -38.5 30t-37.5 21.5t-39.5 13t-44.5 4.5q-53 0 -86.5 -23t-52 -60
t-25.5 -82t-7 -89q0 -50 9 -96.5t29 -83.5t53.5 -59t83.5 -22q45 0 87 18t87 56l60 -117v0z" />
    <glyph glyph-name="sterling" unicode="&#xa3;" horiz-adv-x="759" 
d="M100 0v134h16q57 0 80.5 39.5t23.5 111.5q0 17 -1 34.5t-3 39t-5.5 49t-9.5 63.5h-100v131h85q-7 46 -13 91.5t-6 93.5q0 117 69 173t192 56q61 0 119.5 -14.5t114.5 -44.5l-33 -140q-37 26 -80 42.5t-94 16.5q-69 0 -97 -31.5t-28 -92.5q0 -35 5 -72t13 -78h190v-131
h-174q13 -67 18.5 -111.5t5.5 -84.5q0 -42 -6 -71.5t-22 -58.5v-2h319v-143h-579z" />
    <glyph glyph-name="currency" unicode="&#xa4;" horiz-adv-x="961" 
d="M90 337l28 99h79q-2 17 -2 33v33v30t2 30h-94l28 99h76q12 75 38 139.5t70.5 112.5t107.5 75.5t149 27.5q45 0 85 -8.5t77 -26t72 -44t70 -61.5l-101 -109q-48 57 -96.5 84.5t-109.5 27.5q-86 0 -132.5 -56t-61.5 -162h341l-28 -99h-323q-1 -15 -1 -30v-30v-33t1 -33h314
l-29 -99h-274q7 -44 20 -83t35.5 -68.5t56 -47t81.5 -17.5q65 0 118 28t107 86l87 -111q-62 -66 -138 -103.5t-175 -37.5q-84 0 -146.5 25.5t-106 72t-70 112t-38.5 144.5h-117z" />
    <glyph glyph-name="yen" unicode="&#xa5;" horiz-adv-x="892" 
d="M620 574h153v-113h-208l-30 -64v-89h239v-113h-239v-195h-168v195h-242v113h242v83l-33 70h-209v113h152l-207 426h181l200 -464l199 464h172z" />
    <glyph glyph-name="brokenbar" unicode="&#xa6;" horiz-adv-x="420" 
d="M150 -330v585h120v-585h-120zM150 465v584h120v-584h-120z" />
    <glyph glyph-name="section" unicode="&#xa7;" horiz-adv-x="728" 
d="M489 436q0 47 -28 71.5t-94 24.5q-26 0 -49 -4.5t-40 -15t-27 -29.5t-10 -47q0 -20 6.5 -37.5t21.5 -30.5t39 -20t59 -7q122 0 122 95zM628 462q0 -35 -8.5 -66.5t-28 -56t-51.5 -40.5t-78 -21v-4q34 -13 64 -32.5t52 -46t35 -59.5t13 -72q0 -47 -14 -86t-44.5 -67.5
t-79 -44.5t-117.5 -16q-75 0 -136.5 20.5t-124.5 62.5l50 121q54 -38 105.5 -59t102.5 -21q104 0 104 84q0 18 -5.5 32.5t-18 27.5t-33.5 26t-51 30q-32 15 -62.5 29.5t-57.5 28.5q-34 19 -60.5 38.5t-45 43t-28.5 51.5t-10 66q0 78 45.5 122.5t125.5 51.5v5q-72 27 -115 74
t-43 122q0 100 67 155t188 55q62 0 116.5 -12t114.5 -40l-40 -129q-44 26 -85.5 39t-86.5 13q-22 0 -41.5 -4t-34 -13t-23 -24t-8.5 -36q0 -26 18.5 -50t68.5 -50q37 -16 68.5 -30t75.5 -34q54 -27 85.5 -69.5t31.5 -114.5z" />
    <glyph glyph-name="dieresis" unicode="&#xa8;" horiz-adv-x="545" 
d="M221 1023q0 -19 -7 -35t-19 -28t-28 -19t-34 -7t-34.5 7t-28 19t-18.5 28t-7 35t7 35t18.5 28t28 19t34.5 7t34 -7t28 -19t19 -28t7 -35zM521 1023q0 -37 -26 -63t-63 -26t-63 26t-26 63t26 63t63 26t63 -26t26 -63z" />
    <glyph glyph-name="copyright" unicode="&#xa9;" horiz-adv-x="1256" 
d="M868 268q-53 -46 -106.5 -68t-119.5 -22q-77 0 -133 25t-92.5 68.5t-54.5 103t-18 129.5q0 72 19.5 131t56.5 101t91.5 64.5t125.5 22.5q66 0 122 -22t105 -69l-68 -84q-71 72 -154 72q-91 0 -133 -57.5t-42 -160.5q0 -106 43.5 -164t134.5 -58q47 0 86.5 18t79.5 54
l57 -84v0zM1083 502q0 94 -36 176t-97.5 143.5t-144.5 97t-177 35.5q-93 0 -175 -35.5t-143.5 -97t-97 -143.5t-35.5 -176t35.5 -176t97 -143.5t143.5 -97t175 -35.5q94 0 177 35.5t144.5 97t97.5 143.5t36 176zM1146 501q0 -108 -40.5 -202.5t-111 -165t-164.5 -111
t-202 -40.5q-107 0 -201 40.5t-164.5 111t-111.5 165t-41 202.5q0 107 41 201.5t111.5 165t164.5 111t201 40.5q108 0 202 -40.5t164.5 -111t111 -165t40.5 -201.5z" />
    <glyph glyph-name="ordfeminine" unicode="&#xaa;" horiz-adv-x="630" 
d="M386 789q-96 0 -138 -23.5t-42 -69.5q0 -32 18 -50t47 -18q26 0 54 10t61 35v116zM463 553q-26 7 -41.5 19.5t-23.5 31.5h-2q-35 -25 -74 -38.5t-78 -13.5q-65 0 -104.5 38t-39.5 101q0 46 20.5 78t58 52t90 29t117.5 9v10q0 18 -2 31t-9 21t-21 12t-38 4
q-35 0 -77.5 -11t-93.5 -39l-34 81q55 29 105 42.5t106 13.5q49 0 82 -10t53 -31t28.5 -53.5t8.5 -78.5v-171q0 -12 1.5 -20t5.5 -14t11 -11.5t18 -12.5z" />
    <glyph glyph-name="guillemotleft" unicode="&#xab;" horiz-adv-x="784" 
d="M268 156l-168 298l168 298l118 -61l-136 -239l136 -236zM568 156l-169 298l169 298l116 -61l-135 -239l135 -236z" />
    <glyph glyph-name="registered" unicode="&#xae;" horiz-adv-x="721" 
d="M363 887h-23q-9 0 -17 -1v-74h44q47 0 47 35q0 22 -11.5 31t-39.5 9zM437 778q4 -7 12.5 -26.5t17 -40t15 -37l6.5 -16.5h-74l-40 95q-1 9 -10 9h-40v-104h-67v279q28 3 54.5 3.5t49.5 0.5q22 0 44 -3.5t38.5 -13.5t27 -27.5t10.5 -45.5q0 -24 -12 -43t-32 -30zM361 1010
q-46 0 -86.5 -17t-70.5 -46t-47.5 -68t-17.5 -83q0 -45 17.5 -84t47.5 -68t70.5 -45.5t86.5 -16.5q45 0 85 16.5t69.5 45.5t47 68t17.5 84q0 44 -17.5 83t-47 68t-69.5 46t-85 17zM360 541q-54 0 -101.5 20t-82.5 54.5t-55.5 80.5t-20.5 98q0 53 20.5 99.5t55.5 81
t82.5 54.5t101.5 20t101.5 -20t83 -54.5t56 -81t20.5 -99.5q0 -52 -20.5 -98t-56 -80.5t-83 -54.5t-101.5 -20z" />
    <glyph glyph-name="macron" unicode="&#xaf;" horiz-adv-x="697" 
d="M131 958v118h427v-118h-427z" />
    <glyph glyph-name="macron" unicode="&#x2c9;" horiz-adv-x="697" 
d="M131 958v118h427v-118h-427z" />
    <glyph glyph-name="degree" unicode="&#xb0;" horiz-adv-x="664" 
d="M499 797q0 34 -13.5 64.5t-36 53t-53 35.5t-64.5 13t-64.5 -13t-53 -35.5t-36 -53t-13.5 -64.5t13.5 -64.5t36 -53t53 -35.5t64.5 -13t64.5 13t53 35.5t36 53t13.5 64.5zM564 796q0 -48 -18.5 -90t-50 -74t-73.5 -50.5t-90 -18.5t-90.5 18.5t-74 50.5t-49.5 74t-18 90
t18 90.5t49.5 74.5t74 50.5t90.5 18.5t90 -18.5t73.5 -50.5t50 -74.5t18.5 -90.5z" />
    <glyph glyph-name="plusminus" unicode="&#xb1;" horiz-adv-x="903" 
d="M97 0v137h692v-137h-692zM526 487v-235h-162v235h-267v159h267v244h162v-244h263v-159h-263z" />
    <glyph glyph-name="twosuperior" unicode="&#xb2;" horiz-adv-x="541" 
d="M73 596q40 41 85.5 84.5t84.5 86t64.5 83.5t25.5 76q0 32 -18 56t-61 24q-62 0 -125 -63l-59 84q48 43 97.5 64t105.5 21q84 0 134.5 -44t50.5 -130q0 -37 -13 -74t-42 -78t-75 -87t-111 -101h244v-103h-371z" />
    <glyph glyph-name="threesuperior" unicode="&#xb3;" horiz-adv-x="549" 
d="M469 672q0 -41 -14.5 -75t-41.5 -58.5t-66 -38t-88 -13.5q-56 0 -101 14t-88 43l50 90q39 -29 70 -38.5t65 -9.5q39 0 66 21t27 68q0 44 -22.5 66t-71.5 22h-70v96h47q53 0 75.5 19.5t22.5 61.5q0 35 -19 54t-61 19q-29 0 -59 -10t-62 -35l-50 84q27 17 50 28.5t45.5 19
t45 11t48.5 3.5q41 0 75 -10.5t58.5 -31.5t38 -51.5t13.5 -70.5q0 -42 -17.5 -76t-50.5 -54q44 -16 64.5 -55t20.5 -93z" />
    <glyph glyph-name="acute" unicode="&#xb4;" horiz-adv-x="438" 
d="M141 911l-91 52l188 187l141 -73z" />
    <glyph glyph-name="mu" unicode="&#xb5;" horiz-adv-x="926" 
d="M613 0l-10 86h-4q-35 -51 -87.5 -77.5t-101.5 -26.5q-72 0 -101 30l1 -368h-160v1173h165v-473q0 -50 3.5 -91t16.5 -70.5t39 -46t71 -16.5q85 0 119 50.5t34 151.5v495h166v-817h-151z" />
    <glyph glyph-name="mu" unicode="&#x3bc;" horiz-adv-x="926" 
d="M613 0l-10 86h-4q-35 -51 -87.5 -77.5t-101.5 -26.5q-72 0 -101 30l1 -368h-160v1173h165v-473q0 -50 3.5 -91t16.5 -70.5t39 -46t71 -16.5q85 0 119 50.5t34 151.5v495h166v-817h-151z" />
    <glyph glyph-name="paragraph" unicode="&#xb6;" horiz-adv-x="822" 
d="M553 0q-105 0 -184 29t-132 80t-80 120t-27 149q0 78 27 146t80 119t132 80t184 29h103v-752h-103z" />
    <glyph glyph-name="periodcentered" unicode="&#xb7;" horiz-adv-x="434" 
d="M334 408q0 -24 -9.5 -45t-25.5 -37t-37 -25t-45 -9t-45.5 9t-37.5 25t-25 37t-9 45t9 45.5t25 37t37.5 24.5t45.5 9t45 -9t37 -24.5t25.5 -37t9.5 -45.5z" />
    <glyph glyph-name="periodcentered" unicode="&#x2219;" horiz-adv-x="434" 
d="M334 408q0 -24 -9.5 -45t-25.5 -37t-37 -25t-45 -9t-45.5 9t-37.5 25t-25 37t-9 45t9 45.5t25 37t37.5 24.5t45.5 9t45 -9t37 -24.5t25.5 -37t9.5 -45.5z" />
    <glyph glyph-name="cedilla" unicode="&#xb8;" horiz-adv-x="607" 
d="M454 -202q0 -28 -9.5 -52.5t-27 -42.5t-43 -28t-57.5 -10q-35 0 -62 7t-55 24l27 67q19 -11 36 -17t37 -6q23 0 41.5 13.5t18.5 48.5q0 21 -12 37.5t-38 16.5q-12 0 -24 -3t-22 -9l-29 27l57 128h73l-37 -86l2 -1q8 2 17 3t17 1q41 0 65.5 -30.5t24.5 -87.5z" />
    <glyph glyph-name="onesuperior" unicode="&#xb9;" horiz-adv-x="441" 
d="M321 1104v-609h-120v455l-99 -70l-52 84l177 140h94z" />
    <glyph glyph-name="ordmasculine" unicode="&#xba;" horiz-adv-x="606" 
d="M396 793q0 30 -4 56.5t-14.5 46t-28.5 31t-47 11.5t-46.5 -11.5t-27.5 -31t-13.5 -46t-3.5 -57.5q0 -76 21.5 -112.5t70.5 -36.5q51 0 72 37t21 113zM506 790q0 -109 -51.5 -172t-154.5 -63q-99 0 -149.5 64.5t-50.5 173.5q0 54 12.5 97t38 74t63.5 47.5t89 16.5
q101 0 152 -63.5t51 -174.5z" />
    <glyph glyph-name="guillemotright" unicode="&#xbb;" horiz-adv-x="785" 
d="M217 157l-117 59l137 238l-137 238l117 61l168 -298zM517 157l-117 59l135 238l-135 238l117 61l168 -298z" />
    <glyph glyph-name="onequarter" unicode="&#xbc;" horiz-adv-x="1400" 
d="M1077 168v265l-150 -265h150zM1188 -58h-122v125h-221l-26 100l230 385h139v-379h76v-106h-76v-125zM334 -58h-107l740 1162h107zM371 1104v-609h-120v455l-98 -70l-53 84l177 140h94z" />
    <glyph glyph-name="onehalf" unicode="&#xbd;" horiz-adv-x="1400" 
d="M879 45q40 40 85.5 83t83.5 86t63.5 84t25.5 77q0 32 -17 54.5t-60 22.5q-33 0 -63.5 -14t-63.5 -49l-60 85q50 43 99.5 65t104.5 22q85 0 136 -45t51 -131q0 -37 -13.5 -74t-42.5 -78t-75.5 -87t-112.5 -101h245v-103h-369zM333 -60h-109l742 1163h107zM371 1104v-609
h-120v455l-98 -70l-53 84l177 140h94z" />
    <glyph glyph-name="threequarters" unicode="&#xbe;" horiz-adv-x="1400" 
d="M1130 168v265l-149 -265h149zM1241 -58h-122v125h-221l-27 100l231 385h139v-379h75v-106h-75v-125zM387 -58h-108l740 1162h108zM498 672q0 -41 -14.5 -75t-41.5 -58.5t-65.5 -38t-87.5 -13.5q-56 0 -101.5 14t-88.5 43l50 90q40 -29 70.5 -38.5t64.5 -9.5q39 0 66 21
t27 68q0 44 -22.5 66t-72.5 22h-69v96h47q53 0 76 19.5t23 61.5q0 35 -19.5 54t-62.5 19q-28 0 -57.5 -10t-61.5 -35l-51 84q27 17 50 28.5t45.5 19t45 11t48.5 3.5q41 0 75 -10.5t58.5 -31.5t38 -51.5t13.5 -70.5q0 -42 -18 -76t-50 -54q44 -16 64.5 -55t20.5 -93z" />
    <glyph glyph-name="questiondown" unicode="&#xbf;" horiz-adv-x="771" 
d="M560 725q0 -44 -29 -69t-74 -25q-44 0 -72 25.5t-28 68.5q0 42 28 68t72 26q45 0 74 -25.5t29 -68.5zM681 -122q-35 -24 -68 -41t-66.5 -28.5t-69 -16.5t-75.5 -5q-68 0 -120.5 19t-88.5 54t-54.5 85.5t-18.5 113.5q0 51 8.5 89t26.5 68t46 53.5t66 46.5l63 38
q18 11 28 19.5t14.5 18.5t5.5 24.5t1 38.5v79h154v-111q0 -35 -3.5 -58.5t-12.5 -40.5t-25.5 -30.5t-42.5 -28.5l-59 -35q-27 -14 -47 -28t-33.5 -32t-20 -41t-6.5 -56q0 -70 36 -108.5t105 -38.5q55 0 99.5 19.5t91.5 60.5l66 -128v0z" />
    <glyph glyph-name="Agrave" unicode="&#xc0;" horiz-adv-x="949" 
d="M474 844h-6l-129 -468h265zM707 0l-70 232h-330l-68 -232h-179l310 1003h203l316 -1003h-182zM464 1091l-238 166l141 73l189 -187z" />
    <glyph glyph-name="Aacute" unicode="&#xc1;" horiz-adv-x="949" 
d="M474 844h-6l-129 -468h265zM707 0l-70 232h-330l-68 -232h-179l310 1003h203l316 -1003h-182zM478 1091l-91 52l188 187l141 -73z" />
    <glyph glyph-name="Acircumflex" unicode="&#xc2;" horiz-adv-x="949" 
d="M474 844h-6l-129 -468h265zM707 0l-70 232h-330l-68 -232h-179l310 1003h203l316 -1003h-182zM620 1091l-148 87l-148 -88l-65 76l213 139l214 -139z" />
    <glyph glyph-name="Atilde" unicode="&#xc3;" horiz-adv-x="949" 
d="M474 844h-6l-129 -468h265zM707 0l-70 232h-330l-68 -232h-179l310 1003h203l316 -1003h-182zM717 1214q-19 -53 -58.5 -84t-88.5 -31q-28 0 -54 9.5t-49.5 21.5t-45.5 21.5t-43 9.5q-25 0 -44 -15t-31 -51l-77 55q25 62 59 90.5t86 28.5q28 0 54 -10t50 -21.5
t45.5 -21.5t42.5 -10q53 0 78 64z" />
    <glyph glyph-name="Adieresis" unicode="&#xc4;" horiz-adv-x="949" 
d="M474 844h-6l-129 -468h265zM707 0l-70 232h-330l-68 -232h-179l310 1003h203l316 -1003h-182zM410 1188q0 -19 -7 -35t-19 -28t-28 -19t-34 -7t-34.5 7t-28 19t-18.5 28t-7 35t7 35t18.5 28t28 19t34.5 7t34 -7t28 -19t19 -28t7 -35zM710 1188q0 -37 -26 -63t-63 -26
t-63 26t-26 63t26 63t63 26t63 -26t26 -63z" />
    <glyph glyph-name="Aring" unicode="&#xc5;" horiz-adv-x="949" 
d="M474 844h-6l-129 -468h265zM707 0l-70 232h-330l-68 -232h-179l310 1003h203l316 -1003h-182zM534 1208q0 29 -20 49t-49 20t-49 -20t-20 -49t20 -49.5t49 -20.5t49 20.5t20 49.5zM599 1208q0 -28 -10.5 -52.5t-28.5 -43t-42.5 -29t-52.5 -10.5t-52.5 10.5t-42.5 29
t-28.5 43t-10.5 52.5t10.5 52.5t28.5 43t42.5 29t52.5 10.5t52.5 -10.5t42.5 -29t28.5 -43t10.5 -52.5z" />
    <glyph glyph-name="AE" unicode="&#xc6;" horiz-adv-x="1301" 
d="M377 374h263l1 482h-73zM640 0v230h-317l-93 -230h-170l415 1000h703v-144h-369v-263h333v-145h-333v-307h382v-141h-551z" />
    <glyph glyph-name="Ccedilla" unicode="&#xc7;" horiz-adv-x="892" 
d="M647 -204q0 -28 -9.5 -52t-27.5 -42t-43.5 -28.5t-57.5 -10.5q-33 0 -60.5 7.5t-56.5 24.5l27 67q37 -23 74 -23q23 0 41.5 13.5t18.5 47.5q0 22 -12 38.5t-38 16.5q-12 0 -23.5 -3.5t-21.5 -8.5l-29 27l50 116q-99 6 -169 48t-114.5 111t-65 160.5t-20.5 196.5
q0 100 23 193t72.5 164.5t127 114t187.5 42.5q92 0 164 -35t142 -105l-102 -117q-24 27 -47 48.5t-47 36t-51 22t-59 7.5q-59 0 -103.5 -25.5t-73.5 -73.5t-43.5 -117t-14.5 -155q0 -66 10.5 -133t37.5 -121t72.5 -88t116.5 -34q66 0 117 30t104 87l89 -117
q-57 -60 -125.5 -96t-153.5 -44l-31 -74l1 -2q8 2 17.5 3t17.5 1q41 0 65 -30.5t24 -87.5z" />
    <glyph glyph-name="Egrave" unicode="&#xc8;" horiz-adv-x="791" 
d="M150 0v1000h537v-144h-368v-263h333v-145h-333v-307h382v-141h-551zM422 1091l-238 166l141 73l189 -187z" />
    <glyph glyph-name="Eacute" unicode="&#xc9;" horiz-adv-x="791" 
d="M150 0v1000h537v-144h-368v-263h333v-145h-333v-307h382v-141h-551zM419 1091l-91 52l188 187l141 -73z" />
    <glyph glyph-name="Ecircumflex" unicode="&#xca;" horiz-adv-x="791" 
d="M150 0v1000h537v-144h-368v-263h333v-145h-333v-307h382v-141h-551zM584 1091l-148 87l-148 -88l-65 76l213 139l214 -139z" />
    <glyph glyph-name="Edieresis" unicode="&#xcb;" horiz-adv-x="791" 
d="M150 0v1000h537v-144h-368v-263h333v-145h-333v-307h382v-141h-551zM355 1188q0 -19 -7 -35t-19 -28t-28 -19t-34 -7t-34.5 7t-28 19t-18.5 28t-7 35t7 35t18.5 28t28 19t34.5 7t34 -7t28 -19t19 -28t7 -35zM655 1188q0 -37 -26 -63t-63 -26t-63 26t-26 63t26 63t63 26
t63 -26t26 -63z" />
    <glyph glyph-name="Igrave" unicode="&#xcc;" horiz-adv-x="471" 
d="M150 0v1000h171v-1000h-171zM224 1091l-238 166l141 73l189 -187z" />
    <glyph glyph-name="Iacute" unicode="&#xcd;" horiz-adv-x="471" 
d="M150 0v1000h171v-1000h-171zM242 1091l-91 52l188 187l141 -73z" />
    <glyph glyph-name="Icircumflex" unicode="&#xce;" horiz-adv-x="471" 
d="M150 0v1000h171v-1000h-171zM383 1091l-148 87l-148 -88l-65 76l213 139l214 -139z" />
    <glyph glyph-name="Idieresis" unicode="&#xcf;" horiz-adv-x="471" 
d="M150 0v1000h171v-1000h-171zM175 1188q0 -19 -7 -35t-19 -28t-28 -19t-34 -7t-34.5 7t-28 19t-18.5 28t-7 35t7 35t18.5 28t28 19t34.5 7t34 -7t28 -19t19 -28t7 -35zM475 1188q0 -37 -26 -63t-63 -26t-63 26t-26 63t26 63t63 26t63 -26t26 -63z" />
    <glyph glyph-name="Eth" unicode="&#xd0;" horiz-adv-x="974" 
d="M319 457v-319q29 -1 51 -1h45q69 0 120.5 21t84.5 66t50 115.5t17 169.5q0 74 -11 140.5t-38.5 117t-75.5 80t-122 29.5q-29 0 -60.5 -1.5t-60.5 -5.5v-284h155v-128h-155zM864 505q0 -114 -25.5 -207.5t-79.5 -159.5t-136.5 -102t-196.5 -36h-276v457h-87v128h87v409
q31 3 67.5 6.5t73 5.5t73.5 3.5t69 1.5q109 0 190 -35t134.5 -101t80 -159.5t26.5 -210.5z" />
    <glyph glyph-name="Ntilde" unicode="&#xd1;" horiz-adv-x="1034" 
d="M721 0l-405 682h-3l2 -682h-165v1000h166l401 -688h4v688h163v-1000h-163zM763 1214q-19 -53 -58.5 -84t-88.5 -31q-28 0 -54 9.5t-49.5 21.5t-45.5 21.5t-43 9.5q-25 0 -44 -15t-31 -51l-77 55q25 62 59 90.5t86 28.5q28 0 54 -10t50 -21.5t45.5 -21.5t42.5 -10
q53 0 78 64z" />
    <glyph glyph-name="Ograve" unicode="&#xd2;" horiz-adv-x="1053" 
d="M766 501q0 82 -11 151t-39 119t-74.5 78t-116.5 28t-116 -28t-73.5 -78t-39 -119t-11.5 -151q0 -83 11.5 -152.5t39 -119.5t74.5 -78t118 -28q69 0 115 28.5t73.5 79t38.5 120t11 150.5zM943 501q0 -116 -26 -211.5t-78 -163.5t-130.5 -105.5t-182.5 -37.5
q-105 0 -183.5 37t-130 105t-77 163.5t-25.5 212.5q0 114 25.5 209t77 163t129.5 105.5t184 37.5q105 0 183.5 -37.5t130 -105.5t77.5 -163t26 -209zM526 1091l-238 166l141 73l189 -187z" />
    <glyph glyph-name="Oacute" unicode="&#xd3;" horiz-adv-x="1053" 
d="M766 501q0 82 -11 151t-39 119t-74.5 78t-116.5 28t-116 -28t-73.5 -78t-39 -119t-11.5 -151q0 -83 11.5 -152.5t39 -119.5t74.5 -78t118 -28q69 0 115 28.5t73.5 79t38.5 120t11 150.5zM943 501q0 -116 -26 -211.5t-78 -163.5t-130.5 -105.5t-182.5 -37.5
q-105 0 -183.5 37t-130 105t-77 163.5t-25.5 212.5q0 114 25.5 209t77 163t129.5 105.5t184 37.5q105 0 183.5 -37.5t130 -105.5t77.5 -163t26 -209zM520 1091l-91 52l188 187l141 -73z" />
    <glyph glyph-name="Ocircumflex" unicode="&#xd4;" horiz-adv-x="1053" 
d="M766 501q0 82 -11 151t-39 119t-74.5 78t-116.5 28t-116 -28t-73.5 -78t-39 -119t-11.5 -151q0 -83 11.5 -152.5t39 -119.5t74.5 -78t118 -28q69 0 115 28.5t73.5 79t38.5 120t11 150.5zM943 501q0 -116 -26 -211.5t-78 -163.5t-130.5 -105.5t-182.5 -37.5
q-105 0 -183.5 37t-130 105t-77 163.5t-25.5 212.5q0 114 25.5 209t77 163t129.5 105.5t184 37.5q105 0 183.5 -37.5t130 -105.5t77.5 -163t26 -209zM672 1091l-148 87l-148 -88l-65 76l213 139l214 -139z" />
    <glyph glyph-name="Otilde" unicode="&#xd5;" horiz-adv-x="1053" 
d="M766 501q0 82 -11 151t-39 119t-74.5 78t-116.5 28t-116 -28t-73.5 -78t-39 -119t-11.5 -151q0 -83 11.5 -152.5t39 -119.5t74.5 -78t118 -28q69 0 115 28.5t73.5 79t38.5 120t11 150.5zM943 501q0 -116 -26 -211.5t-78 -163.5t-130.5 -105.5t-182.5 -37.5
q-105 0 -183.5 37t-130 105t-77 163.5t-25.5 212.5q0 114 25.5 209t77 163t129.5 105.5t184 37.5q105 0 183.5 -37.5t130 -105.5t77.5 -163t26 -209zM772 1214q-19 -53 -58.5 -84t-88.5 -31q-28 0 -54 9.5t-49.5 21.5t-45.5 21.5t-43 9.5q-25 0 -44 -15t-31 -51l-77 55
q25 62 59 90.5t86 28.5q28 0 54 -10t50 -21.5t45.5 -21.5t42.5 -10q53 0 78 64z" />
    <glyph glyph-name="Odieresis" unicode="&#xd6;" horiz-adv-x="1053" 
d="M766 501q0 82 -11 151t-39 119t-74.5 78t-116.5 28t-116 -28t-73.5 -78t-39 -119t-11.5 -151q0 -83 11.5 -152.5t39 -119.5t74.5 -78t118 -28q69 0 115 28.5t73.5 79t38.5 120t11 150.5zM943 501q0 -116 -26 -211.5t-78 -163.5t-130.5 -105.5t-182.5 -37.5
q-105 0 -183.5 37t-130 105t-77 163.5t-25.5 212.5q0 114 25.5 209t77 163t129.5 105.5t184 37.5q105 0 183.5 -37.5t130 -105.5t77.5 -163t26 -209zM470 1173q0 -19 -7 -35t-19 -28t-28 -19t-34 -7t-34.5 7t-28 19t-18.5 28t-7 35t7 35t18.5 28t28 19t34.5 7t34 -7t28 -19
t19 -28t7 -35zM770 1173q0 -37 -26 -63t-63 -26t-63 26t-26 63t26 63t63 26t63 -26t26 -63z" />
    <glyph glyph-name="multiply" unicode="&#xd7;" horiz-adv-x="903" 
d="M730 575l-181 -178l181 -179l-104 -104l-178 183l-178 -183l-105 104l183 179l-183 178l105 104l178 -181l178 181z" />
    <glyph glyph-name="Oslash" unicode="&#xd8;" horiz-adv-x="1053" 
d="M285 501q0 -41 2.5 -78t7.5 -71l398 453q-29 35 -70 53.5t-98 18.5q-70 0 -116 -28t-73.5 -78t-39 -119t-11.5 -151zM766 501q0 46 -3.5 87.5t-9.5 78.5l-405 -459q28 -41 72.5 -63t107.5 -22q69 0 115 28.5t73.5 79t38.5 120t11 150.5zM943 501q0 -116 -26 -211.5
t-78 -163.5t-130.5 -105.5t-182.5 -37.5q-91 0 -161 27.5t-123 79.5l-92 -107l-95 97l110 124q-29 61 -42 135t-13 162q0 114 25.5 209t77 163t129.5 105.5t184 37.5q85 0 152 -25t116 -71l84 96l102 -90l-102 -116q32 -63 48.5 -141t16.5 -168z" />
    <glyph glyph-name="Ugrave" unicode="&#xd9;" horiz-adv-x="991" 
d="M841 405q0 -102 -17 -180.5t-57 -132t-106.5 -81.5t-164.5 -28q-99 0 -165.5 27.5t-106.5 81t-57 132t-17 181.5v595h169v-606q0 -61 7 -110.5t26 -84t53.5 -53.5t90.5 -19q55 0 89.5 19t53.5 53.5t25.5 84t6.5 110.5v606h170v-595v0zM500 1084l-238 166l141 73l189 -187
z" />
    <glyph glyph-name="Uacute" unicode="&#xda;" horiz-adv-x="991" 
d="M841 405q0 -102 -17 -180.5t-57 -132t-106.5 -81.5t-164.5 -28q-99 0 -165.5 27.5t-106.5 81t-57 132t-17 181.5v595h169v-606q0 -61 7 -110.5t26 -84t53.5 -53.5t90.5 -19q55 0 89.5 19t53.5 53.5t25.5 84t6.5 110.5v606h170v-595v0zM496 1084l-91 52l188 187l141 -73z
" />
    <glyph glyph-name="Ucircumflex" unicode="&#xdb;" horiz-adv-x="991" 
d="M841 405q0 -102 -17 -180.5t-57 -132t-106.5 -81.5t-164.5 -28q-99 0 -165.5 27.5t-106.5 81t-57 132t-17 181.5v595h169v-606q0 -61 7 -110.5t26 -84t53.5 -53.5t90.5 -19q55 0 89.5 19t53.5 53.5t25.5 84t6.5 110.5v606h170v-595v0zM648 1084l-148 87l-148 -88l-65 76
l213 139l214 -139z" />
    <glyph glyph-name="Udieresis" unicode="&#xdc;" horiz-adv-x="991" 
d="M841 405q0 -102 -17 -180.5t-57 -132t-106.5 -81.5t-164.5 -28q-99 0 -165.5 27.5t-106.5 81t-57 132t-17 181.5v595h169v-606q0 -61 7 -110.5t26 -84t53.5 -53.5t90.5 -19q55 0 89.5 19t53.5 53.5t25.5 84t6.5 110.5v606h170v-595v0zM432 1188q0 -19 -7 -35t-19 -28
t-28 -19t-34 -7t-34.5 7t-28 19t-18.5 28t-7 35t7 35t18.5 28t28 19t34.5 7t34 -7t28 -19t19 -28t7 -35zM732 1188q0 -37 -26 -63t-63 -26t-63 26t-26 63t26 63t63 26t63 -26t26 -63z" />
    <glyph glyph-name="Yacute" unicode="&#xdd;" horiz-adv-x="863" 
d="M517 388v-388h-169v381l-298 619h185l198 -465l199 465h181zM439 1076l-91 52l188 187l141 -73z" />
    <glyph glyph-name="Thorn" unicode="&#xde;" horiz-adv-x="906" 
d="M625 502q0 52 -9 87t-30 56.5t-54.5 31t-82.5 9.5q-30 0 -61.5 -2t-68.5 -5v-361h132q45 0 77.5 7.5t54 28t32 56t10.5 92.5zM150 0v1000h169v-180q58 3 123 3q79 0 144.5 -16t112 -53t72 -98.5t25.5 -151.5q0 -159 -76 -241.5t-244 -82.5h-157v-180h-169z" />
    <glyph glyph-name="germandbls" unicode="&#xdf;" horiz-adv-x="906" 
d="M816 282q0 -74 -20.5 -127t-58 -87.5t-90.5 -51t-119 -16.5h-73v129q42 0 79 5.5t65.5 22t45 46.5t16.5 79q0 45 -13.5 79t-41.5 61.5t-70.5 50.5t-100.5 46l-17 101q40 41 66.5 70.5t42 54.5t22 49t6.5 56q0 28 -5 50.5t-17 38.5t-32.5 25t-51.5 9q-56 0 -77 -33.5
t-21 -102.5v-837h-165v660l-96 -1v137h96v37q0 54 11 102t40 84t80.5 57t131.5 21q121 0 189 -55.5t68 -181.5q0 -38 -7 -69t-22 -60t-39 -57.5t-58 -60.5v-3q55 -29 98.5 -59t74 -68t47 -86.5t16.5 -114.5z" />
    <glyph glyph-name="agrave" unicode="&#xe0;" horiz-adv-x="887" 
d="M564 421q-54 0 -106.5 -7.5t-93.5 -28t-66.5 -56.5t-25.5 -92q0 -30 6.5 -55t20 -43.5t34.5 -29t50 -10.5q48 0 94 21.5t87 62.5v238zM674 -10q-38 11 -62 31.5t-33 62.5h-4q-48 -48 -108.5 -75t-132.5 -27q-54 0 -96 18t-70.5 51t-43 78t-14.5 99q0 91 42 149.5t108 92
t147 46t158 12.5v30q0 34 -4 61.5t-16 46.5t-34.5 29t-59.5 10q-73 0 -139 -21t-126 -56l-43 124q76 40 152.5 60.5t164.5 20.5q77 0 129 -18t83 -53.5t44 -88.5t13 -123v-363q0 -24 1.5 -39.5t6.5 -27t14.5 -20.5t25.5 -19zM439 911l-238 166l141 73l189 -187z" />
    <glyph glyph-name="aacute" unicode="&#xe1;" horiz-adv-x="887" 
d="M564 421q-54 0 -106.5 -7.5t-93.5 -28t-66.5 -56.5t-25.5 -92q0 -30 6.5 -55t20 -43.5t34.5 -29t50 -10.5q48 0 94 21.5t87 62.5v238zM674 -10q-38 11 -62 31.5t-33 62.5h-4q-48 -48 -108.5 -75t-132.5 -27q-54 0 -96 18t-70.5 51t-43 78t-14.5 99q0 91 42 149.5t108 92
t147 46t158 12.5v30q0 34 -4 61.5t-16 46.5t-34.5 29t-59.5 10q-73 0 -139 -21t-126 -56l-43 124q76 40 152.5 60.5t164.5 20.5q77 0 129 -18t83 -53.5t44 -88.5t13 -123v-363q0 -24 1.5 -39.5t6.5 -27t14.5 -20.5t25.5 -19zM425 911l-91 52l188 187l141 -73z" />
    <glyph glyph-name="acircumflex" unicode="&#xe2;" horiz-adv-x="887" 
d="M564 421q-54 0 -106.5 -7.5t-93.5 -28t-66.5 -56.5t-25.5 -92q0 -30 6.5 -55t20 -43.5t34.5 -29t50 -10.5q48 0 94 21.5t87 62.5v238zM674 -10q-38 11 -62 31.5t-33 62.5h-4q-48 -48 -108.5 -75t-132.5 -27q-54 0 -96 18t-70.5 51t-43 78t-14.5 99q0 91 42 149.5t108 92
t147 46t158 12.5v30q0 34 -4 61.5t-16 46.5t-34.5 29t-59.5 10q-73 0 -139 -21t-126 -56l-43 124q76 40 152.5 60.5t164.5 20.5q77 0 129 -18t83 -53.5t44 -88.5t13 -123v-363q0 -24 1.5 -39.5t6.5 -27t14.5 -20.5t25.5 -19zM580 911l-148 87l-148 -88l-65 76l213 139
l214 -139z" />
    <glyph glyph-name="atilde" unicode="&#xe3;" horiz-adv-x="887" 
d="M564 421q-54 0 -106.5 -7.5t-93.5 -28t-66.5 -56.5t-25.5 -92q0 -30 6.5 -55t20 -43.5t34.5 -29t50 -10.5q48 0 94 21.5t87 62.5v238zM674 -10q-38 11 -62 31.5t-33 62.5h-4q-48 -48 -108.5 -75t-132.5 -27q-54 0 -96 18t-70.5 51t-43 78t-14.5 99q0 91 42 149.5t108 92
t147 46t158 12.5v30q0 34 -4 61.5t-16 46.5t-34.5 29t-59.5 10q-73 0 -139 -21t-126 -56l-43 124q76 40 152.5 60.5t164.5 20.5q77 0 129 -18t83 -53.5t44 -88.5t13 -123v-363q0 -24 1.5 -39.5t6.5 -27t14.5 -20.5t25.5 -19zM694 1049q-19 -53 -58.5 -84t-88.5 -31
q-28 0 -54 9.5t-49.5 21.5t-45.5 21.5t-43 9.5q-25 0 -44 -15t-31 -51l-77 55q25 62 59 90.5t86 28.5q28 0 54 -10t50 -21.5t45.5 -21.5t42.5 -10q53 0 78 64z" />
    <glyph glyph-name="adieresis" unicode="&#xe4;" horiz-adv-x="887" 
d="M564 421q-54 0 -106.5 -7.5t-93.5 -28t-66.5 -56.5t-25.5 -92q0 -30 6.5 -55t20 -43.5t34.5 -29t50 -10.5q48 0 94 21.5t87 62.5v238zM674 -10q-38 11 -62 31.5t-33 62.5h-4q-48 -48 -108.5 -75t-132.5 -27q-54 0 -96 18t-70.5 51t-43 78t-14.5 99q0 91 42 149.5t108 92
t147 46t158 12.5v30q0 34 -4 61.5t-16 46.5t-34.5 29t-59.5 10q-73 0 -139 -21t-126 -56l-43 124q76 40 152.5 60.5t164.5 20.5q77 0 129 -18t83 -53.5t44 -88.5t13 -123v-363q0 -24 1.5 -39.5t6.5 -27t14.5 -20.5t25.5 -19zM376 1023q0 -19 -7 -35t-19 -28t-28 -19t-34 -7
t-34.5 7t-28 19t-18.5 28t-7 35t7 35t18.5 28t28 19t34.5 7t34 -7t28 -19t19 -28t7 -35zM676 1023q0 -37 -26 -63t-63 -26t-63 26t-26 63t26 63t63 26t63 -26t26 -63z" />
    <glyph glyph-name="aring" unicode="&#xe5;" horiz-adv-x="887" 
d="M564 421q-54 0 -106.5 -7.5t-93.5 -28t-66.5 -56.5t-25.5 -92q0 -30 6.5 -55t20 -43.5t34.5 -29t50 -10.5q48 0 94 21.5t87 62.5v238zM674 -10q-38 11 -62 31.5t-33 62.5h-4q-48 -48 -108.5 -75t-132.5 -27q-54 0 -96 18t-70.5 51t-43 78t-14.5 99q0 91 42 149.5t108 92
t147 46t158 12.5v30q0 34 -4 61.5t-16 46.5t-34.5 29t-59.5 10q-73 0 -139 -21t-126 -56l-43 124q76 40 152.5 60.5t164.5 20.5q77 0 129 -18t83 -53.5t44 -88.5t13 -123v-363q0 -24 1.5 -39.5t6.5 -27t14.5 -20.5t25.5 -19zM521 1043q0 29 -20 49t-49 20t-49 -20t-20 -49
t20 -49.5t49 -20.5t49 20.5t20 49.5zM586 1043q0 -28 -10.5 -52.5t-28.5 -43t-42.5 -29t-52.5 -10.5t-52.5 10.5t-42.5 29t-28.5 43t-10.5 52.5t10.5 52.5t28.5 43t42.5 29t52.5 10.5t52.5 -10.5t42.5 -29t28.5 -43t10.5 -52.5z" />
    <glyph glyph-name="ae" unicode="&#xe6;" horiz-adv-x="1347" 
d="M565 421q-294 0 -294 -184q0 -63 29.5 -100.5t80.5 -37.5q50 0 93 20t91 65v237zM1081 472q-2 48 -10 91t-27 75t-51 50.5t-80 18.5q-81 0 -128.5 -57.5t-49.5 -177.5h346v0zM1237 411q0 -10 -0.5 -26t-2.5 -33h-498q5 -235 198 -235q106 0 204 71l51 -125
q-122 -81 -264 -81q-96 0 -164.5 34.5t-112.5 100.5q-55 -69 -131 -102t-164 -33q-59 0 -104 17.5t-76 50t-47 77.5t-16 101q0 82 35.5 140t97 94t145 52.5t179.5 16.5v25q0 34 -3 60.5t-14.5 45t-35 28.5t-63.5 10q-60 0 -126 -19t-141 -59l-44 130q80 41 157.5 61
t163.5 20q73 0 131 -20t92 -73q43 48 102 72t129 24q74 0 133.5 -25t101.5 -77t64.5 -132.5t22.5 -190.5z" />
    <glyph glyph-name="ccedilla" unicode="&#xe7;" horiz-adv-x="784" 
d="M574 -202q0 -28 -9.5 -52.5t-27.5 -42.5t-43.5 -28t-57.5 -10q-35 0 -62 7t-55 24l27 67q38 -23 73 -23q23 0 41.5 13.5t18.5 48.5q0 21 -11.5 37.5t-37.5 16.5t-47 -12l-29 27l52 115q-80 9 -136.5 46.5t-92 94.5t-51.5 129.5t-16 151.5q0 85 20 162t63 135.5t110.5 93
t162.5 34.5q67 0 128.5 -21.5t116.5 -63.5l-66 -125q-39 39 -79 58t-96 19q-59 0 -96 -27.5t-58 -69.5t-28.5 -93t-7.5 -99q0 -50 8 -102.5t29.5 -96t58.5 -71t95 -27.5q57 0 102 20t89 54l52 -121q-55 -38 -112.5 -59t-124.5 -25l-30 -70l2 -1q8 2 17.5 3t17.5 1
q40 0 65 -30.5t25 -87.5z" />
    <glyph glyph-name="egrave" unicode="&#xe8;" horiz-adv-x="884" 
d="M620 468q-1 49 -8 92.5t-25 76t-48.5 51.5t-78.5 19q-84 0 -132.5 -60.5t-48.5 -178.5h341v0zM774 415v-30t-2 -36h-492q0 -235 194 -235q55 0 103.5 16t103.5 54l51 -124q-66 -42 -129.5 -60t-136.5 -18q-87 0 -153.5 29.5t-111.5 84.5t-68 134t-23 178
q0 107 25.5 186.5t72 132.5t110 79.5t140.5 26.5q155 0 235.5 -104t80.5 -314zM457 911l-238 166l141 73l189 -187z" />
    <glyph glyph-name="eacute" unicode="&#xe9;" horiz-adv-x="884" 
d="M620 468q-1 49 -8 92.5t-25 76t-48.5 51.5t-78.5 19q-84 0 -132.5 -60.5t-48.5 -178.5h341v0zM774 415v-30t-2 -36h-492q0 -235 194 -235q55 0 103.5 16t103.5 54l51 -124q-66 -42 -129.5 -60t-136.5 -18q-87 0 -153.5 29.5t-111.5 84.5t-68 134t-23 178
q0 107 25.5 186.5t72 132.5t110 79.5t140.5 26.5q155 0 235.5 -104t80.5 -314zM462 911l-91 52l188 187l141 -73z" />
    <glyph glyph-name="ecircumflex" unicode="&#xea;" horiz-adv-x="884" 
d="M620 468q-1 49 -8 92.5t-25 76t-48.5 51.5t-78.5 19q-84 0 -132.5 -60.5t-48.5 -178.5h341v0zM774 415v-30t-2 -36h-492q0 -235 194 -235q55 0 103.5 16t103.5 54l51 -124q-66 -42 -129.5 -60t-136.5 -18q-87 0 -153.5 29.5t-111.5 84.5t-68 134t-23 178
q0 107 25.5 186.5t72 132.5t110 79.5t140.5 26.5q155 0 235.5 -104t80.5 -314zM613 911l-148 87l-148 -88l-65 76l213 139l214 -139z" />
    <glyph glyph-name="edieresis" unicode="&#xeb;" horiz-adv-x="884" 
d="M620 468q-1 49 -8 92.5t-25 76t-48.5 51.5t-78.5 19q-84 0 -132.5 -60.5t-48.5 -178.5h341v0zM774 415v-30t-2 -36h-492q0 -235 194 -235q55 0 103.5 16t103.5 54l51 -124q-66 -42 -129.5 -60t-136.5 -18q-87 0 -153.5 29.5t-111.5 84.5t-68 134t-23 178
q0 107 25.5 186.5t72 132.5t110 79.5t140.5 26.5q155 0 235.5 -104t80.5 -314zM395 1023q0 -19 -7 -35t-19 -28t-28 -19t-34 -7t-34.5 7t-28 19t-18.5 28t-7 35t7 35t18.5 28t28 19t34.5 7t34 -7t28 -19t19 -28t7 -35zM695 1023q0 -37 -26 -63t-63 -26t-63 26t-26 63t26 63
t63 26t63 -26t26 -63z" />
    <glyph glyph-name="igrave" unicode="&#xec;" horiz-adv-x="469" 
d="M147 0v817h166v-817h-166zM228 911l-238 166l141 73l189 -187z" />
    <glyph glyph-name="iacute" unicode="&#xed;" horiz-adv-x="469" 
d="M147 0v817h166v-817h-166zM242 911l-91 52l188 187l141 -73z" />
    <glyph glyph-name="icircumflex" unicode="&#xee;" horiz-adv-x="469" 
d="M147 0v817h166v-817h-166zM382 911l-148 87l-148 -88l-65 76l213 139l214 -139z" />
    <glyph glyph-name="idieresis" unicode="&#xef;" horiz-adv-x="469" 
d="M147 0v817h166v-817h-166zM171 1023q0 -19 -7 -35t-19 -28t-28 -19t-34 -7t-34.5 7t-28 19t-18.5 28t-7 35t7 35t18.5 28t28 19t34.5 7t34 -7t28 -19t19 -28t7 -35zM471 1023q0 -37 -26 -63t-63 -26t-63 26t-26 63t26 63t63 26t63 -26t26 -63z" />
    <glyph glyph-name="eth" unicode="&#xf0;" horiz-adv-x="918" 
d="M640 408q0 57 -7 110t-26.5 93t-54.5 64t-92 24t-92 -24t-54.5 -64t-26.5 -92.5t-7 -110.5q0 -66 8 -120t28.5 -93t55 -60t88.5 -21q53 0 88 21t55.5 60t28.5 93t8 120zM681 946q27 -60 50 -123t40 -130t27 -138t10 -147q0 -96 -21.5 -174.5t-64.5 -134.5t-108.5 -86.5
t-153.5 -30.5q-89 0 -154.5 30.5t-109 86t-65 134.5t-21.5 175q0 94 21 171.5t61.5 133t99.5 86t136 30.5q71 0 110.5 -23t60.5 -61l6 1q-9 33 -22 70t-28 76l-68 -30l-47 102l71 32q-12 30 -20 48t-17 37l120 52q12 -25 19.5 -41t19.5 -42l123 55l48 -105z" />
    <glyph glyph-name="ntilde" unicode="&#xf1;" horiz-adv-x="922" 
d="M607 0v466q0 49 -2 90.5t-14.5 72t-39.5 47.5t-76 17q-87 0 -123.5 -50.5t-36.5 -143.5v-499h-165v817h145l14 -87h2q35 57 89.5 80t121.5 23q75 0 123 -23t76.5 -66.5t39.5 -107.5t11 -146v-490h-165zM714 1049q-19 -53 -58.5 -84t-88.5 -31q-28 0 -54 9.5t-49.5 21.5
t-45.5 21.5t-43 9.5q-25 0 -44 -15t-31 -51l-77 55q25 62 59 90.5t86 28.5q28 0 54 -10t50 -21.5t45.5 -21.5t42.5 -10q53 0 78 64z" />
    <glyph glyph-name="ograve" unicode="&#xf2;" horiz-adv-x="918" 
d="M640 408q0 57 -7 110t-26.5 93t-54.5 64t-92 24t-92 -24t-54.5 -64t-26.5 -92.5t-7 -110.5q0 -66 8 -120t28.5 -93t55 -60t88.5 -21q53 0 88 21t55.5 60t28.5 93t8 120zM808 408q0 -96 -21.5 -174.5t-64.5 -134.5t-108.5 -86.5t-153.5 -30.5q-89 0 -154.5 30.5t-109 86
t-65 134.5t-21.5 175q0 94 21 172t64 134.5t109 87.5t156 31q88 0 153 -30t108.5 -85.5t65 -134t21.5 -175.5zM457 911l-238 166l141 73l189 -187z" />
    <glyph glyph-name="oacute" unicode="&#xf3;" horiz-adv-x="918" 
d="M640 408q0 57 -7 110t-26.5 93t-54.5 64t-92 24t-92 -24t-54.5 -64t-26.5 -92.5t-7 -110.5q0 -66 8 -120t28.5 -93t55 -60t88.5 -21q53 0 88 21t55.5 60t28.5 93t8 120zM808 408q0 -96 -21.5 -174.5t-64.5 -134.5t-108.5 -86.5t-153.5 -30.5q-89 0 -154.5 30.5t-109 86
t-65 134.5t-21.5 175q0 94 21 172t64 134.5t109 87.5t156 31q88 0 153 -30t108.5 -85.5t65 -134t21.5 -175.5zM469 911l-91 52l188 187l141 -73z" />
    <glyph glyph-name="ocircumflex" unicode="&#xf4;" horiz-adv-x="918" 
d="M640 408q0 57 -7 110t-26.5 93t-54.5 64t-92 24t-92 -24t-54.5 -64t-26.5 -92.5t-7 -110.5q0 -66 8 -120t28.5 -93t55 -60t88.5 -21q53 0 88 21t55.5 60t28.5 93t8 120zM808 408q0 -96 -21.5 -174.5t-64.5 -134.5t-108.5 -86.5t-153.5 -30.5q-89 0 -154.5 30.5t-109 86
t-65 134.5t-21.5 175q0 94 21 172t64 134.5t109 87.5t156 31q88 0 153 -30t108.5 -85.5t65 -134t21.5 -175.5zM611 911l-148 87l-148 -88l-65 76l213 139l214 -139z" />
    <glyph glyph-name="otilde" unicode="&#xf5;" horiz-adv-x="918" 
d="M640 408q0 57 -7 110t-26.5 93t-54.5 64t-92 24t-92 -24t-54.5 -64t-26.5 -92.5t-7 -110.5q0 -66 8 -120t28.5 -93t55 -60t88.5 -21q53 0 88 21t55.5 60t28.5 93t8 120zM808 408q0 -96 -21.5 -174.5t-64.5 -134.5t-108.5 -86.5t-153.5 -30.5q-89 0 -154.5 30.5t-109 86
t-65 134.5t-21.5 175q0 94 21 172t64 134.5t109 87.5t156 31q88 0 153 -30t108.5 -85.5t65 -134t21.5 -175.5zM734 1049q-19 -53 -58.5 -84t-88.5 -31q-28 0 -54 9.5t-49.5 21.5t-45.5 21.5t-43 9.5q-25 0 -44 -15t-31 -51l-77 55q25 62 59 90.5t86 28.5q28 0 54 -10
t50 -21.5t45.5 -21.5t42.5 -10q53 0 78 64z" />
    <glyph glyph-name="odieresis" unicode="&#xf6;" horiz-adv-x="918" 
d="M640 408q0 57 -7 110t-26.5 93t-54.5 64t-92 24t-92 -24t-54.5 -64t-26.5 -92.5t-7 -110.5q0 -66 8 -120t28.5 -93t55 -60t88.5 -21q53 0 88 21t55.5 60t28.5 93t8 120zM808 408q0 -96 -21.5 -174.5t-64.5 -134.5t-108.5 -86.5t-153.5 -30.5q-89 0 -154.5 30.5t-109 86
t-65 134.5t-21.5 175q0 94 21 172t64 134.5t109 87.5t156 31q88 0 153 -30t108.5 -85.5t65 -134t21.5 -175.5zM399 1023q0 -19 -7 -35t-19 -28t-28 -19t-34 -7t-34.5 7t-28 19t-18.5 28t-7 35t7 35t18.5 28t28 19t34.5 7t34 -7t28 -19t19 -28t7 -35zM699 1023q0 -37 -26 -63
t-63 -26t-63 26t-26 63t26 63t63 26t63 -26t26 -63z" />
    <glyph glyph-name="oslash" unicode="&#xf8;" horiz-adv-x="918" 
d="M640 408q0 38 -3 80t-16 73l-292 -387q26 -32 57.5 -46t73.5 -14q53 0 87.5 21.5t55 60.5t29 93t8.5 119zM572 658q-21 21 -50.5 31t-61.5 10q-57 0 -92.5 -24t-55 -64t-26.5 -92.5t-7 -110.5q0 -32 2 -65t9 -61l282 376v0zM737 696q37 -55 54 -129.5t17 -158.5
q0 -96 -21.5 -174.5t-64.5 -134.5t-108.5 -86.5t-153.5 -30.5q-135 0 -221 74l-73 -92l-78 70l79 109q-30 54 -43.5 120.5t-13.5 144.5q0 94 21 172t64 134.5t109 87.5t156 31q58 0 109 -14t92 -46l71 91l84 -65z" />
    <glyph glyph-name="ugrave" unicode="&#xf9;" 
d="M613 0l-10 86h-4q-35 -51 -85 -77.5t-126 -26.5q-61 0 -105.5 16.5t-74 53.5t-44 96.5t-14.5 146.5v522h165v-473q0 -50 3.5 -91t16.5 -70.5t39 -46t71 -16.5q85 0 119 50.5t34 151.5v495h166v-817h-151zM479 911l-238 166l141 73l189 -187z" />
    <glyph glyph-name="uacute" unicode="&#xfa;" 
d="M613 0l-10 86h-4q-35 -51 -85 -77.5t-126 -26.5q-61 0 -105.5 16.5t-74 53.5t-44 96.5t-14.5 146.5v522h165v-473q0 -50 3.5 -91t16.5 -70.5t39 -46t71 -16.5q85 0 119 50.5t34 151.5v495h166v-817h-151zM450 911l-91 52l188 187l141 -73z" />
    <glyph glyph-name="ucircumflex" unicode="&#xfb;" 
d="M613 0l-10 86h-4q-35 -51 -85 -77.5t-126 -26.5q-61 0 -105.5 16.5t-74 53.5t-44 96.5t-14.5 146.5v522h165v-473q0 -50 3.5 -91t16.5 -70.5t39 -46t71 -16.5q85 0 119 50.5t34 151.5v495h166v-817h-151zM620 911l-148 87l-148 -88l-65 76l213 139l214 -139z" />
    <glyph glyph-name="udieresis" unicode="&#xfc;" 
d="M613 0l-10 86h-4q-35 -51 -85 -77.5t-126 -26.5q-61 0 -105.5 16.5t-74 53.5t-44 96.5t-14.5 146.5v522h165v-473q0 -50 3.5 -91t16.5 -70.5t39 -46t71 -16.5q85 0 119 50.5t34 151.5v495h166v-817h-151zM400 1023q0 -19 -7 -35t-19 -28t-28 -19t-34 -7t-34.5 7t-28 19
t-18.5 28t-7 35t7 35t18.5 28t28 19t34.5 7t34 -7t28 -19t19 -28t7 -35zM700 1023q0 -37 -26 -63t-63 -26t-63 26t-26 63t26 63t63 26t63 -26t26 -63z" />
    <glyph glyph-name="yacute" unicode="&#xfd;" horiz-adv-x="806" 
d="M501 -48q-23 -70 -46 -121t-52.5 -84.5t-69 -49.5t-96.5 -16q-23 0 -46.5 1.5t-52.5 5.5v139q12 -2 30.5 -3t38.5 -1q26 0 44.5 4.5t32 16.5t23.5 33.5t20 56.5l18 60l-262 823h175l171 -643h3l165 643h172zM425 911l-91 52l188 187l141 -73z" />
    <glyph glyph-name="thorn" unicode="&#xfe;" horiz-adv-x="911" 
d="M633 408q0 45 -3.5 97t-19.5 96t-49.5 73t-92.5 29q-41 0 -70.5 -14t-48.5 -39t-27.5 -58t-8.5 -70v-204q0 -39 7.5 -76.5t25.5 -66.5t48 -47t75 -18q55 0 88 31t49.5 76.5t21.5 97t5 93.5zM801 411q0 -48 -6 -98.5t-20 -98.5t-36.5 -90t-55.5 -73.5t-77.5 -50
t-102.5 -18.5q-62 0 -107 22t-78 74h-3v-386h-165v1392h158v-354h1q35 55 84 79t113 24q87 0 144 -39t90.5 -100.5t47 -136t13.5 -146.5z" />
    <glyph glyph-name="ydieresis" unicode="&#xff;" horiz-adv-x="806" 
d="M501 -48q-23 -70 -46 -121t-52.5 -84.5t-69 -49.5t-96.5 -16q-23 0 -46.5 1.5t-52.5 5.5v139q12 -2 30.5 -3t38.5 -1q26 0 44.5 4.5t32 16.5t23.5 33.5t20 56.5l18 60l-262 823h175l171 -643h3l165 643h172zM369 1023q0 -19 -7 -35t-19 -28t-28 -19t-34 -7t-34.5 7
t-28 19t-18.5 28t-7 35t7 35t18.5 28t28 19t34.5 7t34 -7t28 -19t19 -28t7 -35zM669 1023q0 -37 -26 -63t-63 -26t-63 26t-26 63t26 63t63 26t63 -26t26 -63z" />
    <glyph glyph-name="Amacron" unicode="&#x100;" horiz-adv-x="949" 
d="M474 844h-6l-129 -468h265zM707 0l-70 232h-330l-68 -232h-179l310 1003h203l316 -1003h-182zM259 1108v118h427v-118h-427z" />
    <glyph glyph-name="amacron" unicode="&#x101;" horiz-adv-x="887" 
d="M564 421q-54 0 -106.5 -7.5t-93.5 -28t-66.5 -56.5t-25.5 -92q0 -30 6.5 -55t20 -43.5t34.5 -29t50 -10.5q48 0 94 21.5t87 62.5v238zM674 -10q-38 11 -62 31.5t-33 62.5h-4q-48 -48 -108.5 -75t-132.5 -27q-54 0 -96 18t-70.5 51t-43 78t-14.5 99q0 91 42 149.5t108 92
t147 46t158 12.5v30q0 34 -4 61.5t-16 46.5t-34.5 29t-59.5 10q-73 0 -139 -21t-126 -56l-43 124q76 40 152.5 60.5t164.5 20.5q77 0 129 -18t83 -53.5t44 -88.5t13 -123v-363q0 -24 1.5 -39.5t6.5 -27t14.5 -20.5t25.5 -19zM234 958v118h427v-118h-427z" />
    <glyph glyph-name="Abreve" unicode="&#x102;" horiz-adv-x="949" 
d="M474 844h-6l-129 -468h265zM707 0l-70 232h-330l-68 -232h-179l310 1003h203l316 -1003h-182zM694 1283q-2 -59 -25.5 -97t-56.5 -59.5t-70 -29.5t-68 -8q-34 0 -72 8.5t-70.5 30.5t-54.5 59.5t-24 95.5h108q1 -19 7.5 -36.5t20 -30.5t34.5 -20.5t51 -7.5q58 0 83.5 27
t28.5 68h108v0z" />
    <glyph glyph-name="abreve" unicode="&#x103;" horiz-adv-x="887" 
d="M564 421q-54 0 -106.5 -7.5t-93.5 -28t-66.5 -56.5t-25.5 -92q0 -30 6.5 -55t20 -43.5t34.5 -29t50 -10.5q48 0 94 21.5t87 62.5v238zM674 -10q-38 11 -62 31.5t-33 62.5h-4q-48 -48 -108.5 -75t-132.5 -27q-54 0 -96 18t-70.5 51t-43 78t-14.5 99q0 91 42 149.5t108 92
t147 46t158 12.5v30q0 34 -4 61.5t-16 46.5t-34.5 29t-59.5 10q-73 0 -139 -21t-126 -56l-43 124q76 40 152.5 60.5t164.5 20.5q77 0 129 -18t83 -53.5t44 -88.5t13 -123v-363q0 -24 1.5 -39.5t6.5 -27t14.5 -20.5t25.5 -19zM669 1118q-2 -59 -25.5 -97t-56.5 -59.5
t-70 -29.5t-68 -8q-34 0 -72 8.5t-70.5 30.5t-54.5 59.5t-24 95.5h108q1 -19 7.5 -36.5t20 -30.5t34.5 -20.5t51 -7.5q58 0 83.5 27t28.5 68h108v0z" />
    <glyph glyph-name="Aogonek" unicode="&#x104;" horiz-adv-x="949" 
d="M474 844h-6l-129 -468h265zM888 -297q-22 -16 -55.5 -30.5t-84.5 -14.5q-39 0 -67.5 12t-48 33.5t-29 50.5t-9.5 62q0 34 10.5 63.5t29.5 52.5t38 40.5t35 27.5l-70 232h-330l-68 -232h-179l310 1003h203l316 -1003h-73q-23 -17 -42 -34t-35.5 -36t-23.5 -41t-7 -50
q0 -38 19.5 -57t46.5 -19q22 0 38 6t34 20l42 -86v0z" />
    <glyph glyph-name="aogonek" unicode="&#x105;" horiz-adv-x="887" 
d="M564 421q-54 0 -106.5 -7.5t-93.5 -28t-66.5 -56.5t-25.5 -92q0 -30 6.5 -55t20 -43.5t34.5 -29t50 -10.5q48 0 94 21.5t87 62.5v238zM765 -297q-22 -16 -55.5 -30.5t-84.5 -14.5q-39 0 -68 13t-48.5 34.5t-29 50t-9.5 60.5q0 44 16 77.5t38 59t46 42.5t41 28
q-23 20 -32 61h-4q-48 -48 -108.5 -75t-132.5 -27q-54 0 -96 18t-70.5 51t-43 78t-14.5 99q0 91 42 149.5t108 92t147 46t158 12.5v30q0 34 -4 61.5t-16 46.5t-34.5 29t-59.5 10q-73 0 -139 -21t-126 -56l-43 124q76 40 152.5 60.5t164.5 20.5q77 0 129 -18t83 -53.5
t44 -88.5t13 -123v-363q0 -24 1.5 -39.5t6.5 -27t14.5 -20.5t25.5 -19q-54 -46 -90 -80t-57 -61.5t-30 -51.5t-9 -49q0 -33 17.5 -55t43.5 -22q23 0 38 6.5t32 20.5l43 -86v0z" />
    <glyph glyph-name="Cacute" unicode="&#x106;" horiz-adv-x="892" 
d="M832 126q-63 -66 -140.5 -104.5t-174.5 -38.5q-109 0 -186 40t-126 110t-72 164.5t-23 204.5q0 100 23 193t72.5 164.5t127 114t187.5 42.5q92 0 164 -35t142 -105l-102 -117q-24 27 -47 48.5t-47 36t-51 22t-59 7.5q-59 0 -103.5 -25.5t-73.5 -73.5t-43.5 -117
t-14.5 -155q0 -66 10.5 -133t37.5 -121t72.5 -88t116.5 -34q66 0 117 30t104 87l89 -117v0zM526 1091l-91 52l188 187l141 -73z" />
    <glyph glyph-name="cacute" unicode="&#x107;" horiz-adv-x="784" 
d="M645 623q-39 39 -79 58t-96 19q-59 0 -96 -27.5t-58 -69.5t-28.5 -93t-7.5 -99q0 -50 8 -102.5t29.5 -96t58.5 -71t95 -27.5q57 0 102 20t89 54l52 -121q-60 -42 -122 -63.5t-135 -21.5q-95 0 -161 35t-107 93.5t-60 136t-19 161.5q0 85 20 162t63 135.5t110.5 93
t162.5 34.5q67 0 128.5 -21.5t116.5 -63.5zM478 911l-91 52l188 187l141 -73z" />
    <glyph glyph-name="Ccaron" unicode="&#x10c;" horiz-adv-x="892" 
d="M832 126q-63 -66 -140.5 -104.5t-174.5 -38.5q-109 0 -186 40t-126 110t-72 164.5t-23 204.5q0 100 23 193t72.5 164.5t127 114t187.5 42.5q92 0 164 -35t142 -105l-102 -117q-24 27 -47 48.5t-47 36t-51 22t-59 7.5q-59 0 -103.5 -25.5t-73.5 -73.5t-43.5 -117
t-14.5 -155q0 -66 10.5 -133t37.5 -121t72.5 -88t116.5 -34q66 0 117 30t104 87l89 -117v0zM511 1084l-215 136l68 77l147 -89l148 89l64 -77z" />
    <glyph glyph-name="ccaron" unicode="&#x10d;" horiz-adv-x="784" 
d="M645 623q-39 39 -79 58t-96 19q-59 0 -96 -27.5t-58 -69.5t-28.5 -93t-7.5 -99q0 -50 8 -102.5t29.5 -96t58.5 -71t95 -27.5q57 0 102 20t89 54l52 -121q-60 -42 -122 -63.5t-135 -21.5q-95 0 -161 35t-107 93.5t-60 136t-19 161.5q0 85 20 162t63 135.5t110.5 93
t162.5 34.5q67 0 128.5 -21.5t116.5 -63.5zM458 904l-215 136l68 77l147 -89l148 89l64 -77z" />
    <glyph glyph-name="Dcaron" unicode="&#x10e;" horiz-adv-x="974" 
d="M687 509q0 74 -10.5 140.5t-38 117t-75 80t-121.5 29.5q-30 0 -62 -1.5t-61 -5.5v-731q29 -1 51 -1h46q69 0 119.5 21t84.5 66t50.5 115.5t16.5 169.5zM864 505q0 -114 -25.5 -207.5t-79 -159.5t-136 -102t-196.5 -36h-277v994q31 3 67 6.5t73.5 5.5t74.5 3.5t70 1.5
q108 0 189 -35t134 -101t79.5 -159.5t26.5 -210.5zM428 1084l-215 136l68 77l147 -89l148 89l64 -77z" />
    <glyph glyph-name="dcaron" unicode="&#x10f;" horiz-adv-x="912" 
d="M599 528q0 88 -41 131t-115 43q-53 0 -85 -23t-49.5 -62.5t-23 -93.5t-5.5 -115q0 -57 6.5 -111t24.5 -95.5t50 -66.5t82 -25q44 0 74 16.5t48 44t26 63.5t8 76v218zM618 0l-10 96h-4q-38 -59 -85 -86.5t-113 -27.5q-82 0 -138.5 37.5t-91.5 98t-50.5 137t-15.5 154.5
q0 91 17 169t53.5 134.5t92.5 88.5t134 32q60 0 108.5 -22t80.5 -74h1v348h165v-1085h-144zM985 857h-102l35 227h169z" />
    <glyph glyph-name="Dmacron" unicode="&#x110;" horiz-adv-x="974" 
d="M319 457v-319q29 -1 51 -1h46q69 0 119.5 21t84.5 66t50.5 115.5t16.5 169.5q0 74 -10.5 140.5t-38 117t-75 80t-121.5 29.5q-30 0 -62 -1.5t-61 -5.5v-284h156v-128h-156zM864 505q0 -114 -25.5 -207.5t-79 -159.5t-136 -102t-196.5 -36h-277v457h-87v128h87v409
q31 3 67 6.5t73.5 5.5t74.5 3.5t70 1.5q108 0 189 -35t134 -101t79.5 -159.5t26.5 -210.5z" />
    <glyph glyph-name="dmacron" unicode="&#x111;" horiz-adv-x="912" 
d="M599 528q0 88 -41 131t-115 43q-53 0 -85 -23t-49.5 -62.5t-23 -93.5t-5.5 -115q0 -57 6.5 -111t24.5 -95.5t50 -66.5t82 -25q44 0 74 16.5t48 44t26 63.5t8 76v218zM618 0l-10 96h-4q-38 -59 -85 -86.5t-113 -27.5q-82 0 -138.5 37.5t-91.5 98t-50.5 137t-15.5 154.5
q0 91 17 169t53.5 134.5t92.5 88.5t134 32q60 0 108.5 -22t80.5 -74h1v159h-97v93h97v96h165v-96h120v-93h-120v-896h-144z" />
    <glyph glyph-name="Emacron" unicode="&#x112;" horiz-adv-x="791" 
d="M150 0v1000h537v-144h-368v-263h333v-145h-333v-307h382v-141h-551zM201 1108v118h427v-118h-427z" />
    <glyph glyph-name="emacron" unicode="&#x113;" horiz-adv-x="884" 
d="M620 468q-1 49 -8 92.5t-25 76t-48.5 51.5t-78.5 19q-84 0 -132.5 -60.5t-48.5 -178.5h341v0zM774 415v-30t-2 -36h-492q0 -235 194 -235q55 0 103.5 16t103.5 54l51 -124q-66 -42 -129.5 -60t-136.5 -18q-87 0 -153.5 29.5t-111.5 84.5t-68 134t-23 178
q0 107 25.5 186.5t72 132.5t110 79.5t140.5 26.5q155 0 235.5 -104t80.5 -314zM244 958v118h427v-118h-427z" />
    <glyph glyph-name="Ebreve" unicode="&#x114;" horiz-adv-x="791" 
d="M150 0v1000h537v-144h-368v-263h333v-145h-333v-307h382v-141h-551zM652 1283q-2 -59 -25.5 -97t-56.5 -59.5t-70 -29.5t-68 -8q-34 0 -72 8.5t-70.5 30.5t-54.5 59.5t-24 95.5h108q1 -19 7.5 -36.5t20 -30.5t34.5 -20.5t51 -7.5q58 0 83.5 27t28.5 68h108v0z" />
    <glyph glyph-name="ebreve" unicode="&#x115;" horiz-adv-x="884" 
d="M620 468q-1 49 -8 92.5t-25 76t-48.5 51.5t-78.5 19q-84 0 -132.5 -60.5t-48.5 -178.5h341v0zM774 415v-30t-2 -36h-492q0 -235 194 -235q55 0 103.5 16t103.5 54l51 -124q-66 -42 -129.5 -60t-136.5 -18q-87 0 -153.5 29.5t-111.5 84.5t-68 134t-23 178
q0 107 25.5 186.5t72 132.5t110 79.5t140.5 26.5q155 0 235.5 -104t80.5 -314zM682 1118q-2 -59 -25.5 -97t-56.5 -59.5t-70 -29.5t-68 -8q-34 0 -72 8.5t-70.5 30.5t-54.5 59.5t-24 95.5h108q1 -19 7.5 -36.5t20 -30.5t34.5 -20.5t51 -7.5q58 0 83.5 27t28.5 68h108v0z" />
    <glyph glyph-name="Edotaccent" unicode="&#x116;" horiz-adv-x="791" 
d="M150 0v1000h537v-144h-368v-263h333v-145h-333v-307h382v-141h-551zM541 1189q0 -43 -27.5 -68.5t-75.5 -25.5t-76 25.5t-28 68.5q0 42 28 67.5t76 25.5t75.5 -25.5t27.5 -67.5z" />
    <glyph glyph-name="edotaccent" unicode="&#x117;" horiz-adv-x="884" 
d="M620 468q-1 49 -8 92.5t-25 76t-48.5 51.5t-78.5 19q-84 0 -132.5 -60.5t-48.5 -178.5h341v0zM774 415v-30t-2 -36h-492q0 -235 194 -235q55 0 103.5 16t103.5 54l51 -124q-66 -42 -129.5 -60t-136.5 -18q-87 0 -153.5 29.5t-111.5 84.5t-68 134t-23 178
q0 107 25.5 186.5t72 132.5t110 79.5t140.5 26.5q155 0 235.5 -104t80.5 -314zM566 1024q0 -43 -27.5 -68.5t-75.5 -25.5t-76 25.5t-28 68.5q0 42 28 67.5t76 25.5t75.5 -25.5t27.5 -67.5z" />
    <glyph glyph-name="Eogonek" unicode="&#x118;" horiz-adv-x="791" 
d="M699 -295q-21 -17 -54.5 -31.5t-85.5 -14.5q-38 0 -66.5 13.5t-47.5 35.5t-28.5 51t-9.5 61q0 52 27 96.5t93 83.5h-377v1000h537v-144h-368v-263h333v-145h-333v-307h382v-141h-72q-39 -25 -72 -64t-33 -94q0 -39 17.5 -58t43.5 -19q23 0 38.5 5.5t34.5 19.5l41 -85v0z
" />
    <glyph glyph-name="eogonek" unicode="&#x119;" horiz-adv-x="884" 
d="M620 468q-1 49 -8 92.5t-25 76t-48.5 51.5t-78.5 19q-84 0 -132.5 -60.5t-48.5 -178.5h341v0zM699 -291q-21 -16 -54.5 -30t-84.5 -14q-39 0 -67.5 12.5t-48 34.5t-29 50t-9.5 60q0 25 7 49t18 44.5t25 37.5t29 29h-19q-87 0 -153.5 29.5t-111.5 84.5t-68 134t-23 178
q0 107 25.5 186.5t72 132.5t110 79.5t140.5 26.5q155 0 235.5 -104t80.5 -314v-30t-2 -36h-492q0 -235 194 -235q55 0 103.5 16t103.5 54l51 -124q-28 -18 -55.5 -31.5t-56.5 -24.5q-20 -15 -38.5 -32t-32.5 -37t-22.5 -42.5t-8.5 -48.5q0 -36 20.5 -55.5t46.5 -19.5
q23 0 39 6t34 20l41 -86v0z" />
    <glyph glyph-name="Ecaron" unicode="&#x11a;" horiz-adv-x="791" 
d="M150 0v1000h537v-144h-368v-263h333v-145h-333v-307h382v-141h-551zM421 1084l-215 136l68 77l147 -89l148 89l64 -77z" />
    <glyph glyph-name="ecaron" unicode="&#x11b;" horiz-adv-x="884" 
d="M620 468q-1 49 -8 92.5t-25 76t-48.5 51.5t-78.5 19q-84 0 -132.5 -60.5t-48.5 -178.5h341v0zM774 415v-30t-2 -36h-492q0 -235 194 -235q55 0 103.5 16t103.5 54l51 -124q-66 -42 -129.5 -60t-136.5 -18q-87 0 -153.5 29.5t-111.5 84.5t-68 134t-23 178
q0 107 25.5 186.5t72 132.5t110 79.5t140.5 26.5q155 0 235.5 -104t80.5 -314zM467 904l-215 136l68 77l147 -89l148 89l64 -77z" />
    <glyph glyph-name="Gbreve" unicode="&#x11e;" horiz-adv-x="983" 
d="M873 444q0 -95 -17 -179t-58 -146.5t-109.5 -99t-172.5 -36.5q-107 0 -183.5 42t-126 113t-73 164.5t-23.5 196.5q0 102 24 195.5t74 165t127.5 114t184.5 42.5q49 0 90.5 -10t78 -27t68.5 -41t62 -51l-99 -118q-45 48 -90.5 76t-107.5 28q-73 0 -119 -35t-72.5 -89.5
t-36 -120.5t-9.5 -129t8.5 -130t34 -123t71.5 -92t120 -36q61 0 99.5 24t60 64t29 90.5t7.5 104.5h-190v141h348v-98v0zM739 1283q-2 -59 -25.5 -97t-56.5 -59.5t-70 -29.5t-68 -8q-34 0 -72 8.5t-70.5 30.5t-54.5 59.5t-24 95.5h108q1 -19 7.5 -36.5t20 -30.5t34.5 -20.5
t51 -7.5q58 0 83.5 27t28.5 68h108v0z" />
    <glyph glyph-name="gbreve" unicode="&#x11f;" horiz-adv-x="915" 
d="M601 519q0 39 -9.5 72.5t-29 58t-49.5 39t-70 14.5q-50 0 -82 -22.5t-50 -61.5t-24.5 -91t-6.5 -111q0 -45 6 -93t23 -88t49 -66t83 -26q49 0 80 21t49 53.5t24.5 72t6.5 77.5v151zM765 -7q0 -75 -14.5 -133.5t-50 -98t-94 -60t-146.5 -20.5q-83 0 -157.5 18t-140.5 53
l46 135q61 -33 121 -50.5t129 -17.5q40 0 67 7t44 25t24.5 47.5t7.5 74.5v144h-5q-35 -52 -81.5 -76t-108.5 -24q-74 0 -129 27t-92.5 77.5t-56 124t-18.5 166.5q0 80 14 155.5t48.5 134.5t91.5 95t143 36q65 0 114.5 -24.5t82.5 -81.5h3l10 90h148v-824v0zM682 1118
q-2 -59 -25.5 -97t-56.5 -59.5t-70 -29.5t-68 -8q-34 0 -72 8.5t-70.5 30.5t-54.5 59.5t-24 95.5h108q1 -19 7.5 -36.5t20 -30.5t34.5 -20.5t51 -7.5q58 0 83.5 27t28.5 68h108v0z" />
    <glyph glyph-name="Gcommaaccent" unicode="&#x122;" horiz-adv-x="983" 
d="M873 444q0 -95 -17 -179t-58 -146.5t-109.5 -99t-172.5 -36.5q-107 0 -183.5 42t-126 113t-73 164.5t-23.5 196.5q0 102 24 195.5t74 165t127.5 114t184.5 42.5q49 0 90.5 -10t78 -27t68.5 -41t62 -51l-99 -118q-45 48 -90.5 76t-107.5 28q-73 0 -119 -35t-72.5 -89.5
t-36 -120.5t-9.5 -129t8.5 -130t34 -123t71.5 -92t120 -36q61 0 99.5 24t60 64t29 90.5t7.5 104.5h-190v141h348v-98v0zM488 -360h-107l45 274h174z" />
    <glyph glyph-name="gcommaaccent" unicode="&#x123;" horiz-adv-x="915" 
d="M601 519q0 39 -9.5 72.5t-29 58t-49.5 39t-70 14.5q-50 0 -82 -22.5t-50 -61.5t-24.5 -91t-6.5 -111q0 -45 6 -93t23 -88t49 -66t83 -26q49 0 80 21t49 53.5t24.5 72t6.5 77.5v151zM765 -7q0 -75 -14.5 -133.5t-50 -98t-94 -60t-146.5 -20.5q-83 0 -157.5 18t-140.5 53
l46 135q61 -33 121 -50.5t129 -17.5q40 0 67 7t44 25t24.5 47.5t7.5 74.5v144h-5q-35 -52 -81.5 -76t-108.5 -24q-74 0 -129 27t-92.5 77.5t-56 124t-18.5 166.5q0 80 14 155.5t48.5 134.5t91.5 95t143 36q65 0 114.5 -24.5t82.5 -81.5h3l10 90h148v-824v0zM481 1171h101
l-37 -248h-170z" />
    <glyph glyph-name="Imacron" unicode="&#x12a;" horiz-adv-x="471" 
d="M150 0v1000h171v-1000h-171zM22 1108v118h427v-118h-427z" />
    <glyph glyph-name="imacron" unicode="&#x12b;" horiz-adv-x="469" 
d="M147 0v817h166v-817h-166zM17 958v118h427v-118h-427z" />
    <glyph glyph-name="Ibreve" unicode="&#x12c;" horiz-adv-x="471" 
d="M150 0v1000h171v-1000h-171zM465 1283q-2 -59 -25.5 -97t-56.5 -59.5t-70 -29.5t-68 -8q-34 0 -72 8.5t-70.5 30.5t-54.5 59.5t-24 95.5h108q1 -19 7.5 -36.5t20 -30.5t34.5 -20.5t51 -7.5q58 0 83.5 27t28.5 68h108v0z" />
    <glyph glyph-name="ibreve" unicode="&#x12d;" horiz-adv-x="469" 
d="M151 0v817h166v-817h-166zM459 1118q-2 -59 -25.5 -97t-56.5 -59.5t-70 -29.5t-68 -8q-34 0 -72 8.5t-70.5 30.5t-54.5 59.5t-24 95.5h108q1 -19 7.5 -36.5t20 -30.5t34.5 -20.5t51 -7.5q58 0 83.5 27t28.5 68h108v0z" />
    <glyph glyph-name="Iogonek" unicode="&#x12e;" horiz-adv-x="471" 
d="M376 -297q-21 -15 -55.5 -30t-83.5 -15q-38 0 -67 13t-48.5 35.5t-30 52.5t-10.5 64t12.5 63t30 51.5t36 38.5t29.5 24h-39v1000h171v-1000h-23q-41 -32 -68.5 -71t-27.5 -90q0 -37 16.5 -56.5t43.5 -19.5q20 0 37.5 6t35.5 20l41 -86v0z" />
    <glyph glyph-name="iogonek" unicode="&#x12f;" horiz-adv-x="469" 
d="M339 1024q0 -43 -29 -68.5t-77 -25.5t-75.5 25.5t-27.5 68.5q0 42 27.5 67.5t75.5 25.5t77 -25.5t29 -67.5zM369 -297q-22 -16 -55.5 -30.5t-84.5 -14.5q-39 0 -68 12t-47.5 33t-28 50t-9.5 63t12.5 64t29.5 54t34.5 41t28.5 25h-30v817h166v-817h-27q-41 -32 -70.5 -71
t-29.5 -90q0 -38 19 -57t46 -19q22 0 37.5 6t33.5 20l43 -86v0z" />
    <glyph glyph-name="Idotaccent" unicode="&#x130;" horiz-adv-x="471" 
d="M150 0v1000h171v-1000h-171zM350 1249q0 -43 -27.5 -68.5t-75.5 -25.5t-76 25.5t-28 68.5q0 42 28 67.5t76 25.5t75.5 -25.5t27.5 -67.5z" />
    <glyph glyph-name="dotlessi" unicode="&#x131;" horiz-adv-x="469" 
d="M151 0v817h166v-817h-166z" />
    <glyph glyph-name="Kcommaaccent" unicode="&#x136;" horiz-adv-x="880" 
d="M637 0l-231 451l-88 -117l1 -334h-169v1000h169l-1 -442h6l286 442h201l-288 -425l307 -575h-193zM432 -360h-107l45 274h174z" />
    <glyph glyph-name="kcommaaccent" unicode="&#x137;" horiz-adv-x="832" 
d="M586 0l-181 365l-92 -117v-248h-163v1085h165v-636h4l249 368h189l-237 -339l252 -478h-186zM410 -360h-107l45 274h174z" />
    <glyph glyph-name="Lacute" unicode="&#x139;" horiz-adv-x="726" 
d="M150 0v1000h169v-856h337v-144h-506zM242 1073l-91 52l188 187l141 -73z" />
    <glyph glyph-name="lacute" unicode="&#x13a;" horiz-adv-x="509" 
d="M429 0q-23 -5 -54 -7t-57 -2q-47 0 -79 9t-51.5 29.5t-28.5 54t-9 83.5v918h165v-878q0 -25 3.5 -40t12 -23t22.5 -10.5t36 -2.5h40v-131v0zM238 1166l-91 52l188 187l141 -73z" />
    <glyph glyph-name="Lcommaaccent" unicode="&#x13b;" horiz-adv-x="726" 
d="M150 0v1000h169v-856h337v-144h-506zM370 -360h-107l45 274h174z" />
    <glyph glyph-name="lcommaaccent" unicode="&#x13c;" horiz-adv-x="509" 
d="M429 0q-23 -5 -54 -7t-57 -2q-47 0 -79 9t-51.5 29.5t-28.5 54t-9 83.5v918h165v-878q0 -25 3.5 -40t12 -23t22.5 -10.5t36 -2.5h40v-131v0zM273 -360h-107l45 274h174z" />
    <glyph glyph-name="Lcaron" unicode="&#x13d;" horiz-adv-x="726" 
d="M150 0v1000h169v-856h337v-144h-506zM633 857h-102l35 227h169z" />
    <glyph glyph-name="lcaron" unicode="&#x13e;" horiz-adv-x="509" 
d="M429 0q-23 -5 -54 -7t-57 -2q-47 0 -79 9t-51.5 29.5t-28.5 54t-9 83.5v918h165v-878q0 -25 3.5 -40t12 -23t22.5 -10.5t36 -2.5h40v-131v0zM550 857h-102l35 227h169z" />
    <glyph glyph-name="Lslash" unicode="&#x141;" horiz-adv-x="726" 
d="M149 0v428l-76 -47v148l76 46v425h169v-327l177 109v-153l-177 -109v-376h337v-144h-506z" />
    <glyph glyph-name="lslash" unicode="&#x142;" horiz-adv-x="509" 
d="M429 0q-23 -5 -54 -7t-57 -2q-47 0 -79 9t-51.5 29.5t-28.5 54t-9 83.5v268l-96 -75v155l96 76v494h165v-379l144 113v-157l-144 -112v-343q0 -25 3.5 -40t12 -23t22.5 -10.5t36 -2.5h40v-131v0z" />
    <glyph glyph-name="Nacute" unicode="&#x143;" horiz-adv-x="1034" 
d="M721 0l-405 682h-3l2 -682h-165v1000h166l401 -688h4v688h163v-1000h-163zM523 1076l-91 52l188 187l141 -73z" />
    <glyph glyph-name="nacute" unicode="&#x144;" horiz-adv-x="922" 
d="M607 0v466q0 49 -2 90.5t-14.5 72t-39.5 47.5t-76 17q-87 0 -123.5 -50.5t-36.5 -143.5v-499h-165v817h145l14 -87h2q35 57 89.5 80t121.5 23q75 0 123 -23t76.5 -66.5t39.5 -107.5t11 -146v-490h-165zM482 911l-91 52l188 187l141 -73z" />
    <glyph glyph-name="Ncommaaccent" unicode="&#x145;" horiz-adv-x="1034" 
d="M721 0l-405 682h-3l2 -682h-165v1000h166l401 -688h4v688h163v-1000h-163zM498 -360h-107l45 274h174z" />
    <glyph glyph-name="ncommaaccent" unicode="&#x146;" horiz-adv-x="922" 
d="M607 0v466q0 49 -2 90.5t-14.5 72t-39.5 47.5t-76 17q-87 0 -123.5 -50.5t-36.5 -143.5v-499h-165v817h145l14 -87h2q35 57 89.5 80t121.5 23q75 0 123 -23t76.5 -66.5t39.5 -107.5t11 -146v-490h-165zM444 -360h-107l45 274h174z" />
    <glyph glyph-name="Ncaron" unicode="&#x147;" horiz-adv-x="1034" 
d="M721 0l-405 682h-3l2 -682h-165v1000h166l401 -688h4v688h163v-1000h-163zM531 1069l-215 136l68 77l147 -89l148 89l64 -77z" />
    <glyph glyph-name="ncaron" unicode="&#x148;" horiz-adv-x="922" 
d="M607 0v466q0 49 -2 90.5t-14.5 72t-39.5 47.5t-76 17q-87 0 -123.5 -50.5t-36.5 -143.5v-499h-165v817h145l14 -87h2q35 57 89.5 80t121.5 23q75 0 123 -23t76.5 -66.5t39.5 -107.5t11 -146v-490h-165zM497 904l-215 136l68 77l147 -89l148 89l64 -77z" />
    <glyph glyph-name="Omacron" unicode="&#x14c;" horiz-adv-x="1053" 
d="M766 501q0 82 -11 151t-39 119t-74.5 78t-116.5 28t-116 -28t-73.5 -78t-39 -119t-11.5 -151q0 -83 11.5 -152.5t39 -119.5t74.5 -78t118 -28q69 0 115 28.5t73.5 79t38.5 120t11 150.5zM943 501q0 -116 -26 -211.5t-78 -163.5t-130.5 -105.5t-182.5 -37.5
q-105 0 -183.5 37t-130 105t-77 163.5t-25.5 212.5q0 114 25.5 209t77 163t129.5 105.5t184 37.5q105 0 183.5 -37.5t130 -105.5t77.5 -163t26 -209zM312 1118v118h427v-118h-427z" />
    <glyph glyph-name="omacron" unicode="&#x14d;" horiz-adv-x="918" 
d="M640 408q0 57 -7 110t-26.5 93t-54.5 64t-92 24t-92 -24t-54.5 -64t-26.5 -92.5t-7 -110.5q0 -66 8 -120t28.5 -93t55 -60t88.5 -21q53 0 88 21t55.5 60t28.5 93t8 120zM808 408q0 -96 -21.5 -174.5t-64.5 -134.5t-108.5 -86.5t-153.5 -30.5q-89 0 -154.5 30.5t-109 86
t-65 134.5t-21.5 175q0 94 21 172t64 134.5t109 87.5t156 31q88 0 153 -30t108.5 -85.5t65 -134t21.5 -175.5zM245 958v118h427v-118h-427z" />
    <glyph glyph-name="Obreve" unicode="&#x14e;" horiz-adv-x="1053" 
d="M766 501q0 82 -11 151t-39 119t-74.5 78t-116.5 28t-116 -28t-73.5 -78t-39 -119t-11.5 -151q0 -83 11.5 -152.5t39 -119.5t74.5 -78t118 -28q69 0 115 28.5t73.5 79t38.5 120t11 150.5zM943 501q0 -116 -26 -211.5t-78 -163.5t-130.5 -105.5t-182.5 -37.5
q-105 0 -183.5 37t-130 105t-77 163.5t-25.5 212.5q0 114 25.5 209t77 163t129.5 105.5t184 37.5q105 0 183.5 -37.5t130 -105.5t77.5 -163t26 -209zM749 1291q-2 -59 -25.5 -97t-56.5 -59.5t-70 -29.5t-68 -8q-34 0 -72 8.5t-70.5 30.5t-54.5 59.5t-24 95.5h108
q1 -19 7.5 -36.5t20 -30.5t34.5 -20.5t51 -7.5q58 0 83.5 27t28.5 68h108v0z" />
    <glyph glyph-name="obreve" unicode="&#x14f;" horiz-adv-x="918" 
d="M640 408q0 57 -7 110t-26.5 93t-54.5 64t-92 24t-92 -24t-54.5 -64t-26.5 -92.5t-7 -110.5q0 -66 8 -120t28.5 -93t55 -60t88.5 -21q53 0 88 21t55.5 60t28.5 93t8 120zM808 408q0 -96 -21.5 -174.5t-64.5 -134.5t-108.5 -86.5t-153.5 -30.5q-89 0 -154.5 30.5t-109 86
t-65 134.5t-21.5 175q0 94 21 172t64 134.5t109 87.5t156 31q88 0 153 -30t108.5 -85.5t65 -134t21.5 -175.5zM679 1131q-2 -59 -25.5 -97t-56.5 -59.5t-70 -29.5t-68 -8q-34 0 -72 8.5t-70.5 30.5t-54.5 59.5t-24 95.5h108q1 -19 7.5 -36.5t20 -30.5t34.5 -20.5t51 -7.5
q58 0 83.5 27t28.5 68h108v0z" />
    <glyph glyph-name="Ohungarumlaut" unicode="&#x150;" horiz-adv-x="1053" 
d="M766 501q0 82 -11 151t-39 119t-74.5 78t-116.5 28t-116 -28t-73.5 -78t-39 -119t-11.5 -151q0 -83 11.5 -152.5t39 -119.5t74.5 -78t118 -28q69 0 115 28.5t73.5 79t38.5 120t11 150.5zM943 501q0 -116 -26 -211.5t-78 -163.5t-130.5 -105.5t-182.5 -37.5
q-105 0 -183.5 37t-130 105t-77 163.5t-25.5 212.5q0 114 25.5 209t77 163t129.5 105.5t184 37.5q105 0 183.5 -37.5t130 -105.5t77.5 -163t26 -209zM357 1084l-83 53l190 187l131 -74zM702 1084l-83 53l189 187l131 -74z" />
    <glyph glyph-name="ohungarumlaut" unicode="&#x151;" horiz-adv-x="918" 
d="M640 408q0 57 -7 110t-26.5 93t-54.5 64t-92 24t-92 -24t-54.5 -64t-26.5 -92.5t-7 -110.5q0 -66 8 -120t28.5 -93t55 -60t88.5 -21q53 0 88 21t55.5 60t28.5 93t8 120zM808 408q0 -96 -21.5 -174.5t-64.5 -134.5t-108.5 -86.5t-153.5 -30.5q-89 0 -154.5 30.5t-109 86
t-65 134.5t-21.5 175q0 94 21 172t64 134.5t109 87.5t156 31q88 0 153 -30t108.5 -85.5t65 -134t21.5 -175.5zM314 911l-83 53l190 187l131 -74zM659 911l-83 53l189 187l131 -74z" />
    <glyph glyph-name="OE" unicode="&#x152;" horiz-adv-x="1422" 
d="M775 501q0 82 -12 150.5t-40 118t-75 77t-117 27.5q-71 0 -118.5 -28t-76 -77.5t-41 -118t-12.5 -149.5q0 -83 12.5 -152t41.5 -118.5t76.5 -77t117.5 -27.5q69 0 115.5 28t75 78.5t41 119t12.5 149.5zM781 0v114q-16 -30 -42.5 -54t-59.5 -40.5t-71 -25t-78 -8.5
q-105 0 -184 36.5t-131.5 104t-78.5 162.5t-26 212q0 114 26 209t78.5 163t131 105.5t184.5 37.5q81 0 147 -33t104 -93v110h537v-144h-369v-263h333v-142h-333v-310h383v-141h-551z" />
    <glyph glyph-name="oe" unicode="&#x153;" horiz-adv-x="1378" 
d="M618 392q0 56 -7 105.5t-25.5 87t-51.5 59.5t-85 22q-53 0 -86.5 -22t-52.5 -59.5t-25.5 -87t-6.5 -105.5q0 -139 39.5 -207t131.5 -68q90 0 129.5 68.5t39.5 206.5zM1114 455q-1 45 -8.5 85t-25.5 70t-47.5 48t-74.5 18q-80 0 -125.5 -55t-45.5 -166h327v0zM1268 394
v-26t-1 -33h-480q3 -220 187 -220q53 0 99 18t98 51l51 -124q-63 -40 -124 -59t-131 -19q-179 0 -264 131q-82 -131 -254 -131q-83 0 -146.5 28t-106.5 81t-64.5 129t-21.5 172q0 94 21 170t63.5 129t106 82t148.5 29t148.5 -31.5t104.5 -94.5q42 66 108 96.5t146 30.5
q72 0 129.5 -24.5t98 -75t62.5 -127.5t22 -182z" />
    <glyph glyph-name="Racute" unicode="&#x154;" 
d="M626 705q0 85 -42 128t-136 43q-34 0 -65.5 -2t-63.5 -5v-331h146q39 0 69 8.5t50.5 28t31 51.5t10.5 79zM634 0l-112 354q-10 26 -20 37t-34 11h-149v-402h-169v994q77 9 148.5 12.5t147.5 3.5q75 0 139.5 -16t111.5 -51t73.5 -92t26.5 -138q0 -100 -35.5 -164.5
t-112.5 -97.5v-2q9 -4 16.5 -21.5t13.5 -32.5l135 -395h-180zM419 1091l-91 52l188 187l141 -73z" />
    <glyph glyph-name="racute" unicode="&#x155;" horiz-adv-x="636" 
d="M513 679q-46 0 -82.5 -8.5t-62 -28.5t-39.5 -54t-14 -86v-502h-165v817h149l12 -99h1q32 60 79 87.5t123 27.5h42v-154h-43zM348 911l-91 52l188 187l141 -73z" />
    <glyph glyph-name="Rcommaaccent" unicode="&#x156;" 
d="M626 705q0 85 -42 128t-136 43q-34 0 -65.5 -2t-63.5 -5v-331h146q39 0 69 8.5t50.5 28t31 51.5t10.5 79zM634 0l-112 354q-10 26 -20 37t-34 11h-149v-402h-169v994q77 9 148.5 12.5t147.5 3.5q75 0 139.5 -16t111.5 -51t73.5 -92t26.5 -138q0 -100 -35.5 -164.5
t-112.5 -97.5v-2q9 -4 16.5 -21.5t13.5 -32.5l135 -395h-180zM444 -339h-107l45 274h174z" />
    <glyph glyph-name="rcommaaccent" unicode="&#x157;" horiz-adv-x="636" 
d="M513 679q-46 0 -82.5 -8.5t-62 -28.5t-39.5 -54t-14 -86v-502h-165v817h149l12 -99h1q32 60 79 87.5t123 27.5h42v-154h-43zM208 -360h-107l45 274h174z" />
    <glyph glyph-name="Rcaron" unicode="&#x158;" 
d="M626 705q0 85 -42 128t-136 43q-34 0 -65.5 -2t-63.5 -5v-331h146q39 0 69 8.5t50.5 28t31 51.5t10.5 79zM634 0l-112 354q-10 26 -20 37t-34 11h-149v-402h-169v994q77 9 148.5 12.5t147.5 3.5q75 0 139.5 -16t111.5 -51t73.5 -92t26.5 -138q0 -100 -35.5 -164.5
t-112.5 -97.5v-2q9 -4 16.5 -21.5t13.5 -32.5l135 -395h-180zM433 1084l-215 136l68 77l147 -89l148 89l64 -77z" />
    <glyph glyph-name="rcaron" unicode="&#x159;" horiz-adv-x="636" 
d="M513 679q-46 0 -82.5 -8.5t-62 -28.5t-39.5 -54t-14 -86v-502h-165v817h149l12 -99h1q32 60 79 87.5t123 27.5h42v-154h-43zM348 904l-215 136l68 77l147 -89l148 89l64 -77z" />
    <glyph glyph-name="Sacute" unicode="&#x15a;" horiz-adv-x="810" 
d="M720 287q0 -79 -24 -136t-66.5 -94.5t-101.5 -55.5t-129 -18q-96 0 -172 25t-147 72l62 138q54 -41 115.5 -69.5t133.5 -28.5q32 0 61.5 7.5t52.5 25t37 46t14 69.5q0 39 -15.5 66.5t-41 48.5t-59 37.5t-69.5 31.5q-47 20 -93 42t-83.5 54.5t-60.5 79.5t-23 118
q0 69 25.5 119.5t67.5 83.5t96.5 49t113.5 16q78 0 143.5 -20t130.5 -58l-49 -140q-51 38 -101 59.5t-110 21.5q-31 0 -58.5 -7t-48 -22t-32.5 -38.5t-12 -56.5q0 -32 15 -55t40 -41t58 -32.5t70 -29.5q46 -19 92 -42.5t83.5 -58.5t61 -85t23.5 -122zM421 1091l-91 52
l188 187l141 -73z" />
    <glyph glyph-name="sacute" unicode="&#x15b;" horiz-adv-x="746" 
d="M656 235q0 -65 -20 -112.5t-57.5 -78.5t-91 -46.5t-119.5 -15.5q-79 0 -152 21.5t-136 59.5l55 128q49 -35 110.5 -56.5t123.5 -21.5q63 0 95 24t32 80q0 27 -14 46.5t-37.5 35t-54 28t-63.5 25.5q-40 16 -79.5 33t-71.5 43.5t-52 67.5t-20 105q0 57 21 100t58.5 72.5
t89 44.5t112.5 15q65 0 128 -13t120 -42l-39 -130q-42 26 -92.5 39t-103.5 13q-29 0 -54 -3.5t-43 -13t-28 -26t-10 -41.5t13.5 -42.5t37 -31.5t54 -25.5t63.5 -24.5q40 -16 80 -35t72.5 -47.5t52.5 -70.5t20 -104zM406 911l-91 52l188 187l141 -73z" />
    <glyph glyph-name="Scedilla" unicode="&#x15e;" horiz-adv-x="810" 
d="M535 -202q0 -28 -9.5 -52.5t-27.5 -42.5t-43.5 -28t-56.5 -10q-35 0 -62 7t-55 24l26 67q19 -11 36.5 -17t37.5 -6q23 0 41.5 13.5t18.5 48.5q0 21 -12 37.5t-38 16.5q-12 0 -24 -3t-22 -9l-29 27l49 115q-83 3 -151 27t-134 67l62 138q54 -41 115.5 -69.5t133.5 -28.5
q32 0 61.5 7.5t52.5 25t37 46t14 69.5q0 39 -15.5 66.5t-41 48.5t-59 37.5t-69.5 31.5q-47 20 -93 42t-83.5 54.5t-60.5 79.5t-23 118q0 69 25.5 119.5t67.5 83.5t96.5 49t113.5 16q78 0 143.5 -20t130.5 -58l-49 -140q-51 38 -101 59.5t-110 21.5q-31 0 -58.5 -7t-48 -22
t-32.5 -38.5t-12 -56.5q0 -32 15 -55t40 -41t58 -32.5t70 -29.5q46 -19 92 -42.5t83.5 -58.5t61 -85t23.5 -122q0 -74 -20.5 -128t-57 -91t-88 -57t-113.5 -25l-32 -72l2 -1q6 1 16 2t18 1q41 0 65.5 -30.5t24.5 -87.5z" />
    <glyph glyph-name="scedilla" unicode="&#x15f;" horiz-adv-x="746" 
d="M495 -202q0 -28 -9.5 -52.5t-27.5 -42.5t-43.5 -28t-57.5 -10q-34 0 -61 7t-56 24l27 67q19 -11 36.5 -17t37.5 -6q23 0 41.5 13.5t18.5 48.5q0 21 -12 37.5t-38 16.5q-12 0 -24 -3t-22 -9l-28 27l48 112q-68 6 -129.5 26t-115.5 54l55 128q49 -35 110.5 -56.5
t123.5 -21.5q63 0 95 24t32 80q0 27 -14 46.5t-37.5 35t-54 28t-63.5 25.5q-40 16 -79.5 33t-71.5 43.5t-52 67.5t-20 105q0 57 21 100t58.5 72.5t89 44.5t112.5 15q65 0 128 -13t120 -42l-39 -130q-42 26 -92.5 39t-103.5 13q-29 0 -54 -3.5t-43 -13t-28 -26t-10 -41.5
t13.5 -42.5t37 -31.5t54 -25.5t63.5 -24.5q40 -16 80 -35t72.5 -47.5t52.5 -70.5t20 -104q0 -122 -69 -183.5t-188 -68.5l-30 -70l2 -1q8 2 17 3t17 1q41 0 65.5 -30.5t24.5 -87.5z" />
    <glyph glyph-name="Scaron" unicode="&#x160;" horiz-adv-x="810" 
d="M720 287q0 -79 -24 -136t-66.5 -94.5t-101.5 -55.5t-129 -18q-96 0 -172 25t-147 72l62 138q54 -41 115.5 -69.5t133.5 -28.5q32 0 61.5 7.5t52.5 25t37 46t14 69.5q0 39 -15.5 66.5t-41 48.5t-59 37.5t-69.5 31.5q-47 20 -93 42t-83.5 54.5t-60.5 79.5t-23 118
q0 69 25.5 119.5t67.5 83.5t96.5 49t113.5 16q78 0 143.5 -20t130.5 -58l-49 -140q-51 38 -101 59.5t-110 21.5q-31 0 -58.5 -7t-48 -22t-32.5 -38.5t-12 -56.5q0 -32 15 -55t40 -41t58 -32.5t70 -29.5q46 -19 92 -42.5t83.5 -58.5t61 -85t23.5 -122zM415 1084l-215 136
l68 77l147 -89l148 89l64 -77z" />
    <glyph glyph-name="scaron" unicode="&#x161;" horiz-adv-x="746" 
d="M656 235q0 -65 -20 -112.5t-57.5 -78.5t-91 -46.5t-119.5 -15.5q-79 0 -152 21.5t-136 59.5l55 128q49 -35 110.5 -56.5t123.5 -21.5q63 0 95 24t32 80q0 27 -14 46.5t-37.5 35t-54 28t-63.5 25.5q-40 16 -79.5 33t-71.5 43.5t-52 67.5t-20 105q0 57 21 100t58.5 72.5
t89 44.5t112.5 15q65 0 128 -13t120 -42l-39 -130q-42 26 -92.5 39t-103.5 13q-29 0 -54 -3.5t-43 -13t-28 -26t-10 -41.5t13.5 -42.5t37 -31.5t54 -25.5t63.5 -24.5q40 -16 80 -35t72.5 -47.5t52.5 -70.5t20 -104zM412 904l-215 136l68 77l147 -89l148 89l64 -77z" />
    <glyph glyph-name="Tcommaaccent" unicode="&#x162;" horiz-adv-x="753" 
d="M461 854v-854h-170v854h-231v146h633v-146h-232zM354 -360h-107l45 274h174z" />
    <glyph glyph-name="Tcommaaccent" unicode="&#x21a;" horiz-adv-x="753" 
d="M461 854v-854h-170v854h-231v146h633v-146h-232zM354 -360h-107l45 274h174z" />
    <glyph glyph-name="tcommaaccent" unicode="&#x163;" horiz-adv-x="589" 
d="M489 -1q-29 -4 -56.5 -6t-55.5 -2q-68 0 -108.5 13.5t-62.5 43t-29 75.5t-7 111v425h-110v137h113v228h161v-228h155v-137h-155v-434q0 -30 3.5 -48.5t14.5 -29t33 -14t60 -3.5h44v-131v0zM328 -360h-107l45 274h174z" />
    <glyph glyph-name="tcommaaccent" unicode="&#x21b;" horiz-adv-x="589" 
d="M489 -1q-29 -4 -56.5 -6t-55.5 -2q-68 0 -108.5 13.5t-62.5 43t-29 75.5t-7 111v425h-110v137h113v228h161v-228h155v-137h-155v-434q0 -30 3.5 -48.5t14.5 -29t33 -14t60 -3.5h44v-131v0zM328 -360h-107l45 274h174z" />
    <glyph glyph-name="Tcaron" unicode="&#x164;" horiz-adv-x="753" 
d="M461 854v-854h-170v854h-231v146h633v-146h-232zM377 1084l-215 136l68 77l147 -89l148 89l64 -77z" />
    <glyph glyph-name="tcaron" unicode="&#x165;" horiz-adv-x="589" 
d="M489 -1q-29 -4 -56.5 -6t-55.5 -2q-68 0 -108.5 13.5t-62.5 43t-29 75.5t-7 111v425h-110v137h113v228h161v-228h155v-137h-155v-434q0 -30 3.5 -48.5t14.5 -29t33 -14t60 -3.5h44v-131v0zM615 857h-102l35 227h169z" />
    <glyph glyph-name="Umacron" unicode="&#x16a;" horiz-adv-x="991" 
d="M841 405q0 -102 -17 -180.5t-57 -132t-106.5 -81.5t-164.5 -28q-99 0 -165.5 27.5t-106.5 81t-57 132t-17 181.5v595h169v-606q0 -61 7 -110.5t26 -84t53.5 -53.5t90.5 -19q55 0 89.5 19t53.5 53.5t25.5 84t6.5 110.5v606h170v-595v0zM279 1108v118h427v-118h-427z" />
    <glyph glyph-name="umacron" unicode="&#x16b;" 
d="M613 0l-10 86h-4q-35 -51 -85 -77.5t-126 -26.5q-61 0 -105.5 16.5t-74 53.5t-44 96.5t-14.5 146.5v522h165v-473q0 -50 3.5 -91t16.5 -70.5t39 -46t71 -16.5q85 0 119 50.5t34 151.5v495h166v-817h-151zM243 958v118h427v-118h-427z" />
    <glyph glyph-name="Ubreve" unicode="&#x16c;" horiz-adv-x="991" 
d="M841 405q0 -102 -17 -180.5t-57 -132t-106.5 -81.5t-164.5 -28q-99 0 -165.5 27.5t-106.5 81t-57 132t-17 181.5v595h169v-606q0 -61 7 -110.5t26 -84t53.5 -53.5t90.5 -19q55 0 89.5 19t53.5 53.5t25.5 84t6.5 110.5v606h170v-595v0zM715 1268q-2 -59 -25.5 -97
t-56.5 -59.5t-70 -29.5t-68 -8q-34 0 -72 8.5t-70.5 30.5t-54.5 59.5t-24 95.5h108q1 -19 7.5 -36.5t20 -30.5t34.5 -20.5t51 -7.5q58 0 83.5 27t28.5 68h108v0z" />
    <glyph glyph-name="ubreve" unicode="&#x16d;" 
d="M613 0l-10 86h-4q-35 -51 -85 -77.5t-126 -26.5q-61 0 -105.5 16.5t-74 53.5t-44 96.5t-14.5 146.5v522h165v-473q0 -50 3.5 -91t16.5 -70.5t39 -46t71 -16.5q85 0 119 50.5t34 151.5v495h166v-817h-151zM699 1118q-2 -59 -25.5 -97t-56.5 -59.5t-70 -29.5t-68 -8
q-34 0 -72 8.5t-70.5 30.5t-54.5 59.5t-24 95.5h108q1 -19 7.5 -36.5t20 -30.5t34.5 -20.5t51 -7.5q58 0 83.5 27t28.5 68h108v0z" />
    <glyph glyph-name="Uring" unicode="&#x16e;" horiz-adv-x="991" 
d="M841 405q0 -102 -17 -180.5t-57 -132t-106.5 -81.5t-164.5 -28q-99 0 -165.5 27.5t-106.5 81t-57 132t-17 181.5v595h169v-606q0 -61 7 -110.5t26 -84t53.5 -53.5t90.5 -19q55 0 89.5 19t53.5 53.5t25.5 84t6.5 110.5v606h170v-595v0zM567 1193q0 29 -20 49t-49 20
t-49 -20t-20 -49t20 -49.5t49 -20.5t49 20.5t20 49.5zM632 1193q0 -28 -10.5 -52.5t-28.5 -43t-42.5 -29t-52.5 -10.5t-52.5 10.5t-42.5 29t-28.5 43t-10.5 52.5t10.5 52.5t28.5 43t42.5 29t52.5 10.5t52.5 -10.5t42.5 -29t28.5 -43t10.5 -52.5z" />
    <glyph glyph-name="uring" unicode="&#x16f;" 
d="M613 0l-10 86h-4q-35 -51 -85 -77.5t-126 -26.5q-61 0 -105.5 16.5t-74 53.5t-44 96.5t-14.5 146.5v522h165v-473q0 -50 3.5 -91t16.5 -70.5t39 -46t71 -16.5q85 0 119 50.5t34 151.5v495h166v-817h-151zM530 1043q0 29 -20 49t-49 20t-49 -20t-20 -49t20 -49.5t49 -20.5
t49 20.5t20 49.5zM595 1043q0 -28 -10.5 -52.5t-28.5 -43t-42.5 -29t-52.5 -10.5t-52.5 10.5t-42.5 29t-28.5 43t-10.5 52.5t10.5 52.5t28.5 43t42.5 29t52.5 10.5t52.5 -10.5t42.5 -29t28.5 -43t10.5 -52.5z" />
    <glyph glyph-name="Uhungarumlaut" unicode="&#x170;" horiz-adv-x="991" 
d="M841 405q0 -102 -17 -180.5t-57 -132t-106.5 -81.5t-164.5 -28q-99 0 -165.5 27.5t-106.5 81t-57 132t-17 181.5v595h169v-606q0 -61 7 -110.5t26 -84t53.5 -53.5t90.5 -19q55 0 89.5 19t53.5 53.5t25.5 84t6.5 110.5v606h170v-595v0zM340 1076l-83 53l190 187l131 -74z
M685 1076l-83 53l189 187l131 -74z" />
    <glyph glyph-name="uhungarumlaut" unicode="&#x171;" 
d="M613 0l-10 86h-4q-35 -51 -85 -77.5t-126 -26.5q-61 0 -105.5 16.5t-74 53.5t-44 96.5t-14.5 146.5v522h165v-473q0 -50 3.5 -91t16.5 -70.5t39 -46t71 -16.5q85 0 119 50.5t34 151.5v495h166v-817h-151zM300 911l-83 53l190 187l131 -74zM645 911l-83 53l189 187
l131 -74z" />
    <glyph glyph-name="Uogonek" unicode="&#x172;" horiz-adv-x="991" 
d="M774 -267q-21 -16 -54 -30.5t-84 -14.5q-41 0 -70 13t-47.5 34.5t-27 50t-8.5 60.5q0 43 17.5 78t38.5 62q-10 0 -21 -1.5t-22 -1.5q-99 0 -165.5 27.5t-106.5 81t-57 132t-17 181.5v595h169v-606q0 -61 7 -110.5t26 -84t53.5 -53.5t90.5 -19q55 0 89.5 19t53.5 53.5
t25.5 84t6.5 110.5v606h170v-595q0 -142 -33.5 -237t-116.5 -142q-38 -30 -64 -68t-26 -89q0 -33 16.5 -54.5t43.5 -21.5q23 0 38.5 6t33.5 20l41 -86v0z" />
    <glyph glyph-name="uogonek" unicode="&#x173;" 
d="M806 -292q-22 -17 -55 -31t-84 -14q-39 0 -68.5 12.5t-49 34t-29 49.5t-9.5 60q0 33 11.5 62t28 52.5t34 40.5t28.5 26l-10 86h-4q-35 -51 -85 -77.5t-126 -26.5q-61 0 -105.5 16.5t-74 53.5t-44 96.5t-14.5 146.5v522h165v-473q0 -50 3.5 -91t16.5 -70.5t39 -46
t71 -16.5q85 0 119 50.5t34 151.5v495h166v-817h-43q-39 -30 -65.5 -68.5t-26.5 -89.5q0 -37 18 -55.5t46 -18.5q23 0 38 5.5t33 19.5l42 -85v0z" />
    <glyph glyph-name="Ydieresis" unicode="&#x178;" horiz-adv-x="863" 
d="M517 388v-388h-169v381l-298 619h185l198 -465l199 465h181zM371 1188q0 -19 -7 -35t-19 -28t-28 -19t-34 -7t-34.5 7t-28 19t-18.5 28t-7 35t7 35t18.5 28t28 19t34.5 7t34 -7t28 -19t19 -28t7 -35zM671 1188q0 -37 -26 -63t-63 -26t-63 26t-26 63t26 63t63 26t63 -26
t26 -63z" />
    <glyph glyph-name="Zacute" unicode="&#x179;" horiz-adv-x="798" 
d="M90 0v137l412 717h-392v146h588v-136l-417 -723h427v-141h-618zM415 1091l-91 52l188 187l141 -73z" />
    <glyph glyph-name="zacute" unicode="&#x17a;" horiz-adv-x="712" 
d="M113 0v124l342 556h-333v137h516v-135l-337 -545h344v-137h-532zM379 911l-91 52l188 187l141 -73z" />
    <glyph glyph-name="Zdotaccent" unicode="&#x17b;" horiz-adv-x="798" 
d="M90 0v137l412 717h-392v146h588v-136l-417 -723h427v-141h-618zM532 1189q0 -43 -27.5 -68.5t-75.5 -25.5t-76 25.5t-28 68.5q0 42 28 67.5t76 25.5t75.5 -25.5t27.5 -67.5z" />
    <glyph glyph-name="zdotaccent" unicode="&#x17c;" horiz-adv-x="712" 
d="M113 0v124l342 556h-333v137h516v-135l-337 -545h344v-137h-532zM488 1024q0 -43 -27.5 -68.5t-75.5 -25.5t-76 25.5t-28 68.5q0 42 28 67.5t76 25.5t75.5 -25.5t27.5 -67.5z" />
    <glyph glyph-name="Zcaron" unicode="&#x17d;" horiz-adv-x="798" 
d="M90 0v137l412 717h-392v146h588v-136l-417 -723h427v-141h-618zM414 1084l-215 136l68 77l147 -89l148 89l64 -77z" />
    <glyph glyph-name="zcaron" unicode="&#x17e;" horiz-adv-x="712" 
d="M113 0v124l342 556h-333v137h516v-135l-337 -545h344v-137h-532zM398 904l-215 136l68 77l147 -89l148 89l64 -77z" />
    <glyph glyph-name="uni0192" unicode="&#x192;" horiz-adv-x="835" 
d="M743 926q-17 1 -28 2t-25 1q-28 0 -46 -4t-29.5 -13t-18 -24t-10.5 -37l-35 -179h135l-24 -134h-135l-112 -581q-12 -64 -31 -110.5t-49.5 -76.5t-74.5 -44.5t-106 -14.5q-20 0 -41.5 2t-42.5 7l22 124q18 -4 30.5 -4.5t28.5 -0.5q27 0 44.5 9t29.5 26.5t20 44t15 61.5
l106 558h-103l26 134h101l33 170q11 60 29 100.5t48.5 65t77 35.5t115.5 11q16 0 32.5 -1.5t39.5 -3.5z" />
    <glyph glyph-name="Scommaaccent" unicode="&#x218;" horiz-adv-x="810" 
d="M720 287q0 -79 -24 -136t-66.5 -94.5t-101.5 -55.5t-129 -18q-96 0 -172 25t-147 72l62 138q54 -41 115.5 -69.5t133.5 -28.5q32 0 61.5 7.5t52.5 25t37 46t14 69.5q0 39 -15.5 66.5t-41 48.5t-59 37.5t-69.5 31.5q-47 20 -93 42t-83.5 54.5t-60.5 79.5t-23 118
q0 69 25.5 119.5t67.5 83.5t96.5 49t113.5 16q78 0 143.5 -20t130.5 -58l-49 -140q-51 38 -101 59.5t-110 21.5q-31 0 -58.5 -7t-48 -22t-32.5 -38.5t-12 -56.5q0 -32 15 -55t40 -41t58 -32.5t70 -29.5q46 -19 92 -42.5t83.5 -58.5t61 -85t23.5 -122zM383 -360h-107l45 274
h174z" />
    <glyph glyph-name="scommaaccent" unicode="&#x219;" horiz-adv-x="746" 
d="M656 235q0 -65 -20 -112.5t-57.5 -78.5t-91 -46.5t-119.5 -15.5q-79 0 -152 21.5t-136 59.5l55 128q49 -35 110.5 -56.5t123.5 -21.5q63 0 95 24t32 80q0 27 -14 46.5t-37.5 35t-54 28t-63.5 25.5q-40 16 -79.5 33t-71.5 43.5t-52 67.5t-20 105q0 57 21 100t58.5 72.5
t89 44.5t112.5 15q65 0 128 -13t120 -42l-39 -130q-42 26 -92.5 39t-103.5 13q-29 0 -54 -3.5t-43 -13t-28 -26t-10 -41.5t13.5 -42.5t37 -31.5t54 -25.5t63.5 -24.5q40 -16 80 -35t72.5 -47.5t52.5 -70.5t20 -104zM358 -360h-107l45 274h174z" />
    <glyph glyph-name="circumflex" unicode="&#x2c6;" horiz-adv-x="522" 
d="M406 911l-148 87l-148 -88l-65 76l213 139l214 -139z" />
    <glyph glyph-name="caron" unicode="&#x2c7;" horiz-adv-x="522" 
d="M260 904l-215 136l68 77l147 -89l148 89l64 -77z" />
    <glyph glyph-name="breve" unicode="&#x2d8;" horiz-adv-x="595" 
d="M514 1118q-2 -59 -25.5 -97t-56.5 -59.5t-70 -29.5t-68 -8q-34 0 -72 8.5t-70.5 30.5t-54.5 59.5t-24 95.5h108q1 -19 7.5 -36.5t20 -30.5t34.5 -20.5t51 -7.5q58 0 83.5 27t28.5 68h108v0z" />
    <glyph glyph-name="dotaccent" unicode="&#x2d9;" horiz-adv-x="288" 
d="M247 1024q0 -43 -27.5 -68.5t-75.5 -25.5t-76 25.5t-28 68.5q0 42 28 67.5t76 25.5t75.5 -25.5t27.5 -67.5z" />
    <glyph glyph-name="ring" unicode="&#x2da;" horiz-adv-x="415" 
d="M273 1043q0 29 -20 49t-49 20t-49 -20t-20 -49t20 -49.5t49 -20.5t49 20.5t20 49.5zM338 1043q0 -28 -10.5 -52.5t-28.5 -43t-42.5 -29t-52.5 -10.5t-52.5 10.5t-42.5 29t-28.5 43t-10.5 52.5t10.5 52.5t28.5 43t42.5 29t52.5 10.5t52.5 -10.5t42.5 -29t28.5 -43
t10.5 -52.5z" />
    <glyph glyph-name="ogonek" unicode="&#x2db;" horiz-adv-x="487" 
d="M411 -297q-22 -16 -55.5 -30.5t-84.5 -14.5q-39 0 -67 13t-46 34.5t-26.5 50t-8.5 60.5q0 34 11.5 64t28 54t33.5 41t28 25h108q-41 -32 -68 -71t-27 -90q0 -33 16.5 -54.5t43.5 -21.5q23 0 38.5 6t32.5 20l43 -86v0z" />
    <glyph glyph-name="tilde" unicode="&#x2dc;" horiz-adv-x="548" 
d="M525 1049q-19 -53 -58.5 -84t-88.5 -31q-28 0 -54 9.5t-49.5 21.5t-45.5 21.5t-43 9.5q-25 0 -44 -15t-31 -51l-77 55q25 62 59 90.5t86 28.5q28 0 54 -10t50 -21.5t45.5 -21.5t42.5 -10q53 0 78 64z" />
    <glyph glyph-name="hungarumlaut" unicode="&#x2dd;" horiz-adv-x="799" 
d="M150 911l-83 53l190 187l131 -74zM495 911l-83 53l189 187l131 -74z" />
    <glyph glyph-name="endash" unicode="&#x2013;" horiz-adv-x="850" 
d="M120 444v136h610v-136h-610z" />
    <glyph glyph-name="emdash" unicode="&#x2014;" horiz-adv-x="1421" 
d="M100 365v137h1221v-137h-1221z" />
    <glyph glyph-name="quoteleft" unicode="&#x2018;" horiz-adv-x="411" 
d="M243 727h-183l123 322h108z" />
    <glyph glyph-name="quoteright" unicode="&#x2019;" horiz-adv-x="408" 
d="M226 727h-106l47 322h181z" />
    <glyph glyph-name="quotesinglbase" unicode="&#x201a;" horiz-adv-x="408" 
d="M166 -222h-106l47 322h181z" />
    <glyph glyph-name="quotedblleft" unicode="&#x201c;" horiz-adv-x="700" 
d="M242 727h-182l122 322h107zM532 727h-183l124 322h107z" />
    <glyph glyph-name="quotedblright" unicode="&#x201d;" horiz-adv-x="700" 
d="M228 727h-108l48 322h182zM517 727h-107l49 322h181z" />
    <glyph glyph-name="quotedblbase" unicode="&#x201e;" horiz-adv-x="700" 
d="M168 -222h-108l48 322h182zM457 -222h-107l49 322h181z" />
    <glyph glyph-name="dagger" unicode="&#x2020;" horiz-adv-x="568" 
d="M363 709v-427h-156v427h-107v131h107v197h156v-197h105v-131h-105z" />
    <glyph glyph-name="daggerdbl" unicode="&#x2021;" horiz-adv-x="566" 
d="M362 431v-177h-157v177h-104v131h104v170h-105v131h105v174h157v-174h104v-131h-104v-170h104v-131h-104z" />
    <glyph glyph-name="bullet" unicode="&#x2022;" horiz-adv-x="877" 
d="M677 493q0 -50 -19 -93.5t-51 -75.5t-76 -50.5t-93 -18.5q-50 0 -93.5 18.5t-75.5 50.5t-50.5 75.5t-18.5 93.5t18.5 93.5t50.5 76t75.5 51t93.5 18.5q49 0 93 -18.5t76 -51t51 -76t19 -93.5z" />
    <glyph glyph-name="ellipsis" unicode="&#x2026;" horiz-adv-x="1111" 
d="M1011 80q0 -43 -27.5 -69t-70.5 -28q-43 0 -71 26t-28 69t28 68t71 25q43 2 70.5 -23.5t27.5 -67.5zM654 80q0 -43 -28 -69t-70 -28q-43 0 -71.5 26t-28.5 69t28 68t71 25q43 1 71 -24.5t28 -66.5zM295 80q2 -43 -26 -69t-71 -28q-43 0 -70.5 26t-27.5 69t27.5 68
t70.5 25q43 2 70 -23.5t27 -67.5z" />
    <glyph glyph-name="perthousand" unicode="&#x2030;" horiz-adv-x="1809" 
d="M1585 271q0 39 -4 73t-14.5 59t-28.5 39.5t-47 14.5q-30 0 -48.5 -14.5t-29 -39.5t-14.5 -59t-4 -73t4 -73t14.5 -58.5t29 -39t48.5 -14.5q28 0 46.5 14t29 38.5t14.5 58.5t4 74zM1699 271q0 -65 -12.5 -118t-39 -90t-66 -57t-93.5 -20q-53 0 -92 20.5t-65 58t-38.5 90
t-12.5 116.5q0 66 13.5 119t40 90.5t66 57.5t92.5 20q52 0 91 -20.5t64.5 -58t38.5 -90.5t13 -118zM1060 271q0 39 -4 73t-14.5 59t-29.5 39.5t-48 14.5t-47 -14.5t-28.5 -39.5t-14.5 -59t-4 -73t4 -73t14.5 -58.5t28.5 -39t47 -14.5t48 14t29.5 38.5t14.5 58.5t4 74z
M1174 271q0 -65 -12.5 -118t-38.5 -90t-65.5 -57t-93.5 -20q-53 0 -92.5 20.5t-65 58t-38 90t-12.5 116.5q0 66 13 119t39.5 90.5t66 57.5t92.5 20q52 0 91 -20.5t64.5 -58t38.5 -90.5t13 -118zM429 0h-125l551 1000h124zM414 730q0 39 -3.5 73t-14 59t-29 39.5t-47.5 14.5
q-30 0 -48 -14.5t-28.5 -39.5t-14 -59t-3.5 -73t3.5 -73t14 -58.5t28.5 -39t48 -14.5q29 0 47 14t28.5 39t14.5 59t4 73zM529 732q0 -66 -12.5 -119t-39 -90.5t-66 -57.5t-93.5 -20q-53 0 -92.5 20.5t-65 58t-38 90.5t-12.5 118q0 66 13 118.5t39.5 89t66 56.5t92.5 20
q52 0 91.5 -20.5t65 -57.5t38.5 -89.5t13 -116.5z" />
    <glyph glyph-name="guilsinglleft" unicode="&#x2039;" horiz-adv-x="486" 
d="M268 157l-168 298l168 298l118 -61l-136 -238l136 -238z" />
    <glyph glyph-name="guilsinglright" unicode="&#x203a;" horiz-adv-x="485" 
d="M218 157l-118 59l136 238l-136 238l118 61l167 -298z" />
    <glyph glyph-name="fraction" unicode="&#x2044;" horiz-adv-x="298" 
d="M-179 -60h-111l766 1203h112z" />
    <glyph glyph-name="fraction" unicode="&#x2215;" horiz-adv-x="298" 
d="M-179 -60h-111l766 1203h112z" />
    <glyph glyph-name="zerosuperior" unicode="&#x2070;" horiz-adv-x="636" 
d="M422 800q0 48 -5 87t-17 67t-32 43.5t-50 15.5t-49.5 -15.5t-31.5 -43.5t-17 -67t-5 -87q0 -47 5 -85.5t17 -67t31.5 -44t49.5 -15.5t50 15.5t32 44t17 67t5 85.5zM546 802q0 -149 -56.5 -232t-172.5 -83q-57 0 -99.5 22.5t-71 63.5t-42.5 99.5t-14 129.5q0 146 58 229
t171 83q56 0 98.5 -21.5t71 -62t43 -98.5t14.5 -130z" />
    <glyph glyph-name="foursuperior" unicode="&#x2074;" horiz-adv-x="575" 
d="M309 720v266l-150 -266h150zM420 496h-123v126h-220l-27 98l230 386h140v-380h75v-104h-75v-126z" />
    <glyph glyph-name="fivesuperior" unicode="&#x2075;" horiz-adv-x="546" 
d="M466 700q0 -102 -54.5 -157.5t-157.5 -55.5q-53 0 -96 15t-78 40l51 87q23 -19 52 -31t65 -12q51 0 73.5 26.5t22.5 84.5q0 60 -22 86t-68 26q-29 0 -51 -10.5t-39 -29.5l-72 51l42 284h298v-106h-208l-22 -124l2 -1q15 12 36 19.5t52 7.5q39 0 71 -11.5t55 -36
t35.5 -62.5t12.5 -90z" />
    <glyph glyph-name="sixsuperior" unicode="&#x2076;" horiz-adv-x="600" 
d="M398 697q0 54 -19 83t-67 29t-69.5 -29.5t-21.5 -82.5q0 -23 5 -44t16 -36.5t28 -24.5t41 -9q49 0 68 32t19 82zM520 700q0 -47 -15 -86t-43 -68t-66.5 -45t-84.5 -16q-57 0 -99 20t-69 57t-40 89.5t-13 117.5q0 79 15 143t45 108t74.5 68t104.5 24q48 0 88 -12t68 -29
l-39 -88q-48 31 -117 31q-56 0 -86.5 -41.5t-30.5 -136.5h2q13 25 43 44t78 19q93 0 139 -51.5t46 -147.5z" />
    <glyph glyph-name="sevensuperior" unicode="&#x2077;" horiz-adv-x="531" 
d="M461 1006q-39 -35 -69.5 -77t-51.5 -97.5t-32 -128t-11 -168.5v-39h-124v29q0 55 6.5 119.5t24 128.5t48 123t78.5 104h-260v106h380l11 -100v0z" />
    <glyph glyph-name="eightsuperior" unicode="&#x2078;" horiz-adv-x="588" 
d="M383 673q0 53 -22 75t-67 22q-43 0 -66.5 -22.5t-23.5 -74.5q0 -44 21.5 -69t68.5 -25q49 0 69 25t20 69zM371 940q0 37 -17 60t-60 23q-42 0 -60.5 -23t-18.5 -60q0 -41 18.5 -62.5t60.5 -21.5q43 0 60 21.5t17 62.5zM508 667q0 -86 -56.5 -133t-156.5 -47
q-101 0 -158 47t-57 133q0 55 21.5 92.5t70.5 59.5v3q-41 22 -59.5 53.5t-18.5 78.5q0 39 15.5 69t42.5 50t63.5 30.5t78.5 10.5t78 -10.5t62.5 -30.5t41.5 -50t15 -69q0 -46 -17.5 -78t-58.5 -54v-3q48 -22 70.5 -58.5t22.5 -93.5z" />
    <glyph glyph-name="ninesuperior" unicode="&#x2079;" horiz-adv-x="600" 
d="M201 906q0 -54 19.5 -83t67.5 -29q46 0 68.5 29.5t22.5 82.5q0 47 -21.5 78.5t-69.5 31.5t-67.5 -31t-19.5 -79zM80 904q0 45 15.5 83.5t43 66.5t66 44t83.5 16q114 0 168 -73.5t54 -210.5q0 -167 -58.5 -255t-179.5 -88q-48 0 -88.5 12t-69.5 29l40 90
q21 -15 51.5 -23.5t66.5 -8.5q55 0 85.5 43.5t31.5 137.5h-3q-14 -24 -43.5 -42.5t-78.5 -18.5q-93 0 -138.5 51.5t-45.5 146.5z" />
    <glyph glyph-name="zeroinferior" unicode="&#x2080;" horiz-adv-x="636" 
d="M422 250q0 48 -5 87t-17 67t-32 43t-50 15t-49.5 -15t-31.5 -43t-17 -67t-5 -87q0 -47 5 -86.5t17 -68t31.5 -44t49.5 -15.5t50 15.5t32 44t17 68t5 86.5zM546 252q0 -149 -56.5 -232.5t-172.5 -83.5q-57 0 -99.5 22.5t-71 63.5t-42.5 99.5t-14 130.5q0 147 57.5 229
t171.5 82q56 0 98.5 -21.5t71 -62t43 -98t14.5 -129.5z" />
    <glyph glyph-name="oneinferior" unicode="&#x2081;" horiz-adv-x="441" 
d="M321 552v-610h-121v455l-98 -70l-52 84l177 141h94z" />
    <glyph glyph-name="twoinferior" unicode="&#x2082;" horiz-adv-x="541" 
d="M75 45q40 40 86 83t84 86t63.5 84t25.5 77q0 32 -17.5 54.5t-60.5 22.5q-32 0 -63 -14t-63 -49l-60 85q48 43 98 65t106 22q85 0 135.5 -45t50.5 -131q0 -37 -13 -74t-42.5 -78t-75.5 -87t-112 -101h244v-103h-369z" />
    <glyph glyph-name="threeinferior" unicode="&#x2083;" horiz-adv-x="549" 
d="M469 121q0 -84 -55 -134.5t-155 -50.5q-56 0 -101 14.5t-88 43.5l51 89q38 -29 69 -39t65 -10q41 0 67.5 21t26.5 68q0 45 -22 65t-73 20h-69v96h47q53 0 75 19.5t22 61.5q0 35 -19 54.5t-61 19.5q-29 0 -59 -10t-62 -35l-48 84q52 33 94 47t93 14q84 0 134.5 -41.5
t50.5 -122.5q0 -41 -17 -74.5t-50 -53.5q43 -17 63.5 -55t20.5 -91z" />
    <glyph glyph-name="fourinferior" unicode="&#x2084;" horiz-adv-x="575" 
d="M309 168v265l-150 -265h150zM420 -58h-123v125h-220l-27 100l230 385h140v-379h75v-106h-75v-125z" />
    <glyph glyph-name="fiveinferior" unicode="&#x2085;" horiz-adv-x="546" 
d="M466 148q0 -101 -54.5 -156.5t-157.5 -55.5q-53 0 -96 16t-78 41l51 87q23 -20 52 -33t65 -13q51 0 73.5 27.5t22.5 85.5q0 60 -22 86.5t-68 26.5q-29 0 -51 -11.5t-39 -31.5l-72 53l42 283h298v-105h-208l-22 -126h2q15 12 36 19.5t52 7.5q39 0 71 -11.5t55 -35.5
t35.5 -62t12.5 -92z" />
    <glyph glyph-name="sixinferior" unicode="&#x2086;" horiz-adv-x="600" 
d="M398 147q0 54 -19 83.5t-67 29.5t-69.5 -30t-21.5 -83q0 -23 5 -43.5t16 -36.5t28 -25t41 -9q49 0 68 32t19 82zM520 148q0 -45 -15 -84t-42.5 -67.5t-66 -44.5t-84.5 -16q-58 0 -100 20t-69 57t-40 89t-13 116q0 80 15 144t45 108.5t74.5 68t104.5 23.5q48 0 88 -12.5
t68 -27.5l-37 -89q-25 14 -54.5 22t-64.5 8q-56 0 -86.5 -41t-30.5 -135h2q13 24 43 43t78 19q93 0 139 -52t46 -149z" />
    <glyph glyph-name="seveninferior" unicode="&#x2087;" horiz-adv-x="531" 
d="M461 451q-39 -34 -69.5 -76t-51.5 -97.5t-32 -127.5t-11 -168v-40h-124v28q0 56 6.5 121t24 129t48 123t78.5 104h-260v105h380l11 -101v0z" />
    <glyph glyph-name="eightinferior" unicode="&#x2088;" horiz-adv-x="588" 
d="M385 123q0 54 -22.5 75.5t-67.5 21.5q-44 0 -67.5 -23t-23.5 -76q0 -43 21.5 -68.5t69.5 -25.5t69 25.5t21 70.5zM371 391q0 36 -16.5 58.5t-59.5 22.5q-42 0 -60 -22.5t-18 -58.5q0 -42 18 -64t60 -22q43 0 59.5 22t16.5 64zM508 117q0 -86 -56.5 -133.5t-156.5 -47.5
q-101 0 -158 47.5t-57 133.5q0 54 22 92t72 59v3q-41 23 -60 54.5t-19 79.5q0 39 15.5 68.5t42.5 49.5t63.5 30t78.5 10q41 0 77 -10t62.5 -30t42 -49.5t15.5 -68.5q0 -46 -17.5 -78.5t-58.5 -55.5v-3q49 -21 70.5 -58t21.5 -93z" />
    <glyph glyph-name="nineinferior" unicode="&#x2089;" horiz-adv-x="600" 
d="M201 354q0 -52 19.5 -81.5t67.5 -29.5q46 0 68.5 30.5t22.5 81.5q0 47 -21.5 79t-69.5 32q-47 0 -67 -31.5t-20 -80.5zM80 354q0 45 15.5 83.5t43 66.5t66 43.5t83.5 15.5q114 0 168 -73.5t54 -211.5q0 -166 -58.5 -254t-179.5 -88q-48 0 -88.5 13t-69.5 28l40 89
q21 -14 51.5 -23t66.5 -9q55 0 85.5 44t31.5 139h-3q-14 -25 -43.5 -44t-78.5 -19q-93 0 -138.5 52.5t-45.5 147.5z" />
    <glyph glyph-name="Euro" unicode="&#x20ac;" horiz-adv-x="961" 
d="M90 337l28 99h79q-2 17 -2 33v33v30t2 30h-94l28 99h76q12 75 38 139.5t70.5 112.5t107.5 75.5t149 27.5q45 0 85 -8.5t77 -26t72 -44t70 -61.5l-101 -109q-48 57 -96.5 84.5t-109.5 27.5q-86 0 -132.5 -56t-61.5 -162h341l-28 -99h-323q-1 -15 -1 -30v-30v-33t1 -33h314
l-29 -99h-274q7 -44 20 -83t35.5 -68.5t56 -47t81.5 -17.5q65 0 118 28t107 86l87 -111q-62 -66 -138 -103.5t-175 -37.5q-84 0 -146.5 25.5t-106 72t-70 112t-38.5 144.5h-117z" />
    <glyph glyph-name="trademark" unicode="&#x2122;" horiz-adv-x="969" 
d="M295 973v-297h-90v297h-105v76h300v-76h-105zM782 676l1 221l-105 -161l-109 161l2 -221h-87v373h81l113 -169l111 169h80v-373h-87z" />
    <glyph glyph-name="onethird" unicode="&#x2153;" horiz-adv-x="1400" 
d="M371 1104v-609h-120v455l-99 -70l-52 84l177 140h94zM371 -60h-111l766 1203h112zM1299 121q0 -84 -55 -134.5t-155 -50.5q-56 0 -101 14.5t-88 43.5l51 89q38 -29 69 -39t65 -10q41 0 67.5 21t26.5 68q0 45 -22 65t-73 20h-69v96h47q53 0 75 19.5t22 61.5q0 35 -19 54.5
t-61 19.5q-29 0 -59 -10t-62 -35l-48 84q52 33 94 47t93 14q84 0 134.5 -41.5t50.5 -122.5q0 -41 -17 -74.5t-50 -53.5q43 -17 63.5 -55t20.5 -91z" />
    <glyph glyph-name="twothirds" unicode="&#x2154;" horiz-adv-x="1400" 
d="M103 596q40 41 85.5 84.5t84.5 86t64.5 83.5t25.5 76q0 32 -18 56t-61 24q-62 0 -125 -63l-59 84q48 43 97.5 64t105.5 21q84 0 134.5 -44t50.5 -130q0 -37 -13 -74t-42 -78t-75 -87t-111 -101h244v-103h-371zM399 -60h-111l766 1203h112zM1335 121q0 -84 -55 -134.5
t-155 -50.5q-56 0 -101 14.5t-88 43.5l51 89q38 -29 69 -39t65 -10q41 0 67.5 21t26.5 68q0 45 -22 65t-73 20h-69v96h47q53 0 75 19.5t22 61.5q0 35 -19 54.5t-61 19.5q-29 0 -59 -10t-62 -35l-48 84q52 33 94 47t93 14q84 0 134.5 -41.5t50.5 -122.5q0 -41 -17 -74.5
t-50 -53.5q43 -17 63.5 -55t20.5 -91z" />
    <glyph glyph-name="onefifth" unicode="&#x2155;" horiz-adv-x="1400" 
d="M1281 148q0 -101 -54.5 -156.5t-157.5 -55.5q-54 0 -96.5 16t-77.5 41l51 87q23 -20 51.5 -33t65.5 -13q51 0 73 27.5t22 85.5q0 60 -21.5 86.5t-67.5 26.5q-29 0 -51 -11.5t-39 -31.5l-72 53l42 283h298v-105h-208l-22 -126h2q15 12 36 19.5t52 7.5q39 0 71 -11.5
t55 -35.5t35.5 -62t12.5 -92zM334 -58h-107l740 1162h107zM371 1104v-609h-120v455l-98 -70l-53 84l177 140h94z" />
    <glyph glyph-name="threefifths" unicode="&#x2157;" horiz-adv-x="1400" 
d="M1348 148q0 -101 -54.5 -156.5t-157.5 -55.5q-53 0 -96 16t-78 41l51 87q23 -20 52.5 -33t64.5 -13q51 0 73.5 27.5t22.5 85.5q0 60 -22 86.5t-68 26.5q-29 0 -51 -11.5t-39 -31.5l-72 53l42 283h298v-105h-208l-21 -126h2q14 12 35 19.5t53 7.5q38 0 70 -11.5t55 -35.5
t35.5 -62t12.5 -92zM388 -58h-108l740 1162h108zM499 672q0 -41 -14.5 -75t-41.5 -58.5t-65.5 -38t-87.5 -13.5q-56 0 -101.5 14t-88.5 43l50 90q40 -29 70.5 -38.5t64.5 -9.5q39 0 66 21t27 68q0 44 -22.5 66t-72.5 22h-69v96h47q53 0 76 19.5t23 61.5q0 35 -19.5 54
t-62.5 19q-28 0 -57.5 -10t-61.5 -35l-51 84q27 17 50 28.5t45.5 19t45 11t48.5 3.5q41 0 75 -10.5t58.5 -31.5t38 -51.5t13.5 -70.5q0 -42 -18 -76t-50 -54q44 -16 64.5 -55t20.5 -93z" />
    <glyph glyph-name="minus" unicode="&#x2212;" horiz-adv-x="790" 
d="M118 330v144h540v-144h-540z" />
    <glyph glyph-name="lessequal" unicode="&#x2264;" horiz-adv-x="1012" 
d="M100 0v121h789v-121h-789zM101 529v141l791 311v-139l-634 -243l634 -242v-140z" />
    <glyph glyph-name="greaterequal" unicode="&#x2265;" horiz-adv-x="1012" 
d="M122 0v121h790v-121h-790zM120 217v140l633 242l-633 243v139l792 -311v-141z" />
    <glyph glyph-name="commaaccent" unicode="&#xf004;" horiz-adv-x="377" 
d="M173 -360h-107l45 274h174z" />
    <glyph glyph-name="commaaccent" unicode="&#xf6c3;" horiz-adv-x="377" 
d="M173 -360h-107l45 274h174z" />
    <glyph glyph-name="commaaccent.1" horiz-adv-x="397" 
d="M207 1171h101l-37 -248h-170z" />
    <glyph glyph-name="caron.1" horiz-adv-x="397" 
d="M232 857h-102l35 227h169z" />
    </font>
</defs>
</svg>
