<?xml version="1.0" standalone="no"?>
<!DOCTYPE svg PUBLIC "-//W3C//DTD SVG 1.1//EN" "http://www.w3.org/Graphics/SVG/1.1/DTD/svg11.dtd" >
<svg xmlns="http://www.w3.org/2000/svg" xmlns:xlink="http://www.w3.org/1999/xlink" version="1.1">
<metadata>
Created by FontForge 20170731 at Sun Oct 20 04:40:27 2002
 By Aleksey,,,
Copyright (c) Terminal Design, Inc., 2002. All rights reserved.
</metadata>
<defs>
<font id="ClearviewHwy-Three-B" horiz-adv-x="934" >
  <font-face 
    font-family="ClearviewHwy-3-B"
    font-weight="400"
    font-stretch="normal"
    units-per-em="1448"
    panose-1="2 0 5 6 0 0 0 2 0 4"
    ascent="1158"
    descent="-290"
    x-height="817"
    cap-height="1000"
    bbox="-310 -346 1733 1388"
    underline-thickness="75"
    underline-position="-244"
    unicode-range="U+0020-F6C3"
  />
<missing-glyph horiz-adv-x="555" 
 />
    <glyph glyph-name=".notdef" horiz-adv-x="555" 
 />
    <glyph glyph-name=".null" horiz-adv-x="0" 
 />
    <glyph glyph-name="nonmarkingreturn" horiz-adv-x="600" 
 />
    <glyph glyph-name="space" unicode=" " horiz-adv-x="600" 
 />
    <glyph glyph-name="space" unicode="&#xa0;" horiz-adv-x="600" 
 />
    <glyph glyph-name="exclam" unicode="!" horiz-adv-x="528" 
d="M378 86q0 -47 -32.5 -75t-80.5 -28q-49 0 -82 28t-33 75q0 44 33 71t82 27q48 0 80.5 -27t32.5 -71zM340 294h-150l-26 706h203z" />
    <glyph glyph-name="quotedbl" unicode="&#x22;" horiz-adv-x="715" 
d="M257 703h-122l-35 346h197zM574 703h-124l-34 346h199z" />
    <glyph glyph-name="numbersign" unicode="#" horiz-adv-x="1006" 
d="M430 691l-24 -193h172l26 193h-174zM886 691h-141l-27 -193h151l-18 -134h-153l-26 -190h-144l27 190h-166l-26 -190h-139l26 190h-150l16 134h150l24 193h-151l17 131h153l24 178h138l-22 -178h175l26 178h139l-25 -178h142z" />
    <glyph glyph-name="dollar" unicode="$" horiz-adv-x="782" 
d="M702 310q0 -47 -13 -90t-40 -77t-69.5 -57.5t-102.5 -32.5v-122h-167v122q-57 3 -116.5 23.5t-113.5 53.5l60 145q61 -43 120.5 -66t122.5 -23q69 0 105.5 28t36.5 84q0 41 -19 66t-64 48l-162 80q-44 22 -78 45t-57.5 51.5t-36 63t-12.5 78.5q0 45 13 85t39.5 71.5
t67 52.5t95.5 29v114h166v-114q48 -4 94 -18t94 -37l-51 -147q-50 32 -99.5 48t-106.5 16q-60 0 -96 -21.5t-36 -68.5q0 -20 6.5 -34.5t19.5 -27t33.5 -24t47.5 -25.5l146 -70q87 -41 130 -99.5t43 -149.5z" />
    <glyph glyph-name="percent" unicode="%" horiz-adv-x="1297" 
d="M1074 271q0 36 -3.5 69t-14 57.5t-29 39t-47.5 14.5q-30 0 -48 -14.5t-28 -39.5t-13.5 -57.5t-3.5 -68.5t3.5 -68.5t14 -57.5t28.5 -39.5t47 -14.5t47.5 14.5t29 39t14 57.5t3.5 69zM1197 273q0 -65 -13 -117.5t-40 -90.5t-68 -58.5t-97 -20.5t-96.5 21t-66.5 59.5
t-38.5 91t-12.5 115.5q0 64 13.5 116.5t41 90t68.5 58t96 20.5q53 0 93 -21t66.5 -58.5t40 -90t13.5 -115.5zM439 0h-134l549 1000h134zM407 730q0 36 -3.5 69t-13 58t-28 39.5t-48.5 14.5t-48 -14.5t-28 -39.5t-13.5 -58t-3.5 -69t3.5 -68.5t13.5 -57.5t28 -39.5t48 -14.5
q29 0 47.5 14.5t28.5 39t13.5 57t3.5 69.5zM529 732q0 -64 -13 -117t-39.5 -90.5t-67.5 -58.5t-97 -21t-96 21t-65.5 59t-38 91t-12.5 116q0 64 13 116.5t40 90t68 57.5t96 20q54 0 94 -21t66 -58.5t39 -89.5t13 -115z" />
    <glyph glyph-name="ampersand" unicode="&#x26;" horiz-adv-x="947" 
d="M609 466h-177q-75 0 -111 -35t-36 -121q0 -87 39.5 -133t124.5 -46q50 0 81.5 13.5t49 40.5t23.5 67.5t6 95.5v118zM781 466v-122q0 -78 -17 -143.5t-56 -113t-102.5 -74t-156.5 -26.5q-165 0 -252 81.5t-87 232.5q0 95 41 159t113 84v4q-62 24 -94 78.5t-32 126.5
q0 65 22 114.5t62 82.5t95.5 50t121.5 17q49 0 94 -9t93 -29l-41 -139q-28 14 -61.5 22t-68.5 8q-70 0 -105 -33t-35 -95q0 -37 13 -61.5t36.5 -39t55.5 -20.5t71 -6h118v125h171v-125h117v-149h-116z" />
    <glyph glyph-name="quotesingle" unicode="'" horiz-adv-x="397" 
d="M257 703h-121l-36 346h197z" />
    <glyph glyph-name="parenleft" unicode="(" horiz-adv-x="505" 
d="M245 -201q-32 92 -55.5 177.5t-39 168.5t-23 166t-7.5 171q0 87 7.5 170.5t22.5 166.5t38.5 169t56.5 179l130 -34q-23 -84 -40 -163t-28 -158.5t-16.5 -161t-5.5 -168.5q0 -88 5 -168.5t16 -159.5t28 -158t41 -163z" />
    <glyph glyph-name="parenright" unicode=")" horiz-adv-x="506" 
d="M386 482q0 -89 -8 -173t-24 -167t-39.5 -168t-54.5 -176l-130 35q24 84 41 163t28 158t16 159.5t5 168.5q0 87 -5.5 168.5t-16.5 161t-28 158.5t-40 163l130 34q32 -91 56 -176.5t39.5 -169t23 -167.5t7.5 -172z" />
    <glyph glyph-name="asterisk" unicode="*" horiz-adv-x="632" 
d="M395 817v-7l112 -104l-118 -83l-69 139h-7l-67 -140l-118 83l111 105v7l-159 16l46 134l140 -71l3 4l-29 149h150l-25 -146l1 -6l140 71l46 -133z" />
    <glyph glyph-name="plus" unicode="+" horiz-adv-x="846" 
d="M507 331v-250h-166v250h-241v159h241v236h166v-236h239v-159h-239z" />
    <glyph glyph-name="comma" unicode="," horiz-adv-x="414" 
d="M211 -195h-121l50 363h194z" />
    <glyph glyph-name="hyphen" unicode="-" horiz-adv-x="628" 
d="M140 353v174h348v-174h-348z" />
    <glyph glyph-name="hyphen" unicode="&#xad;" horiz-adv-x="628" 
d="M140 353v174h348v-174h-348z" />
    <glyph glyph-name="period" unicode="." horiz-adv-x="424" 
d="M324 87q0 -46 -31.5 -75t-79.5 -29t-80.5 28t-32.5 76q0 22 9 40.5t24 32t35.5 20.5t44.5 7q48 0 79.5 -27.5t31.5 -72.5z" />
    <glyph glyph-name="slash" unicode="/" horiz-adv-x="760" 
d="M217 -173h-157l483 1222h157z" />
    <glyph glyph-name="zero" unicode="0" horiz-adv-x="973" 
d="M676 499q0 74 -7 140t-28 116t-58 79.5t-97 29.5t-97.5 -29.5t-58.5 -79.5t-28 -116t-7 -140q0 -79 8.5 -146t30.5 -115.5t58.5 -76t93.5 -27.5t94 27.5t58 76t29.5 115.5t8.5 146zM863 504q0 -111 -21 -206.5t-66.5 -165.5t-117 -110t-172.5 -40t-172.5 40t-116.5 110
t-66 165.5t-21 206.5q0 112 22.5 206t68.5 162t117 106t168 38q98 0 169 -38t117.5 -106t68.5 -162t22 -206z" />
    <glyph glyph-name="one" unicode="1" horiz-adv-x="597" 
d="M279 0l1 766h-5l-153 -138l-82 135l272 240h145v-1003h-178z" />
    <glyph glyph-name="two" unicode="2" horiz-adv-x="803" 
d="M105 0l-25 161q101 100 182 180.5t137.5 149t86.5 127.5t30 115q0 27 -6.5 50.5t-21 41t-38 27.5t-56.5 10q-62 0 -112.5 -30t-101.5 -87l-94 135q38 35 75.5 60.5t76 42.5t80.5 25t89 8q66 0 119.5 -17.5t92 -52t59.5 -85.5t21 -119q0 -66 -22.5 -129t-73 -132
t-131.5 -149t-198 -179l429 1v-154h-598z" />
    <glyph glyph-name="three" unicode="3" horiz-adv-x="790" 
d="M690 292q0 -71 -21.5 -128t-63.5 -97.5t-105 -62t-145 -21.5q-83 0 -154.5 21t-140.5 68l70 138q30 -20 56 -34.5t51.5 -23.5t51.5 -13.5t55 -4.5q36 0 66.5 8.5t52.5 28t34.5 50.5t12.5 76q0 79 -37 114.5t-113 35.5h-112v149h47q88 0 139.5 30.5t51.5 105.5
q0 60 -33 95.5t-108 35.5q-51 0 -100.5 -20t-97.5 -57l-73 134q77 50 146 72t152 22q65 0 119 -16.5t93 -50t60.5 -84t21.5 -118.5q0 -75 -29.5 -125.5t-95.5 -83.5v-3q79 -23 114 -84.5t35 -156.5z" />
    <glyph glyph-name="four" unicode="4" horiz-adv-x="884" 
d="M495 783l-240 -425h243l1 425h-4zM676 205v-205h-186v205h-372l-38 141l398 654h198v-642h128v-153h-128z" />
    <glyph glyph-name="five" unicode="5" horiz-adv-x="812" 
d="M712 345q0 -84 -22.5 -151.5t-66 -114.5t-107.5 -72t-148 -25q-81 0 -148 20t-130 67l74 138q45 -35 91.5 -55.5t101.5 -20.5q91 0 133 55t42 156q0 98 -39 149t-119 51q-52 0 -90.5 -22.5t-69.5 -68.5l-114 91l68 458h487v-158h-343l-37 -214l3 -3q32 29 68.5 42
t84.5 13q132 0 206.5 -86t74.5 -249z" />
    <glyph glyph-name="six" unicode="6" horiz-adv-x="880" 
d="M606 328q0 85 -37.5 134.5t-112.5 49.5q-74 0 -114 -51t-40 -137t38 -138t116 -52q37 0 65.5 14t47 39.5t28 61.5t9.5 79zM780 332q0 -77 -23 -141.5t-66 -110.5t-103 -71.5t-135 -25.5q-92 0 -157 34.5t-106.5 97t-60.5 150t-19 194.5q0 123 20 225.5t64.5 176
t116 114.5t174.5 41q66 0 121 -14.5t110 -45.5l-65 -136q-39 23 -76.5 35t-82.5 12q-47 0 -84 -17t-62.5 -53.5t-40 -95.5t-15.5 -143h2q29 47 78 72.5t113 25.5q70 0 125 -22.5t93 -64.5t58.5 -102t20.5 -135z" />
    <glyph glyph-name="seven" unicode="7" horiz-adv-x="765" 
d="M695 846q-56 -55 -97.5 -104.5t-71.5 -100.5t-50 -107t-31.5 -124.5t-16 -152.5t-4.5 -190v-67h-188v51q0 101 8 207t35.5 208t80 197.5t141.5 175.5v3h-441v158h610l25 -154v0z" />
    <glyph glyph-name="eight" unicode="8" horiz-adv-x="905" 
d="M612 289q0 37 -8 68t-26.5 53.5t-49.5 34.5t-76 12q-34 0 -63 -8.5t-50.5 -28t-34 -52t-12.5 -80.5q0 -77 36.5 -119.5t124.5 -42.5q77 0 118 38t41 125zM591 737q0 69 -33 104t-105 35t-105.5 -35t-33.5 -104q0 -67 33.5 -104.5t104.5 -37.5t105 37.5t34 104.5zM795 291
q0 -146 -85 -227t-257 -81t-257.5 81t-85.5 227q0 91 35.5 150t114.5 94v3q-67 37 -96 87t-29 127q0 129 82.5 196.5t234.5 67.5q72 0 130.5 -16t100 -49t64 -82.5t22.5 -116.5q0 -77 -29 -127t-95 -87v-3q79 -35 114.5 -94t35.5 -150z" />
    <glyph glyph-name="nine" unicode="9" horiz-adv-x="883" 
d="M581 675q0 42 -8.5 77t-27 60.5t-47.5 39.5t-70 14q-72 0 -111.5 -52.5t-39.5 -140.5q0 -84 37 -132.5t114 -48.5q75 0 113.5 50.5t38.5 132.5h1zM773 515q0 -125 -20.5 -223.5t-65.5 -167t-116.5 -105t-173.5 -36.5q-68 0 -123.5 16t-111.5 54l70 131q22 -15 41.5 -25
t39 -16.5t40 -9.5t44.5 -3q100 0 149.5 76.5t50.5 244.5h-3q-29 -57 -77 -83.5t-114 -26.5q-68 0 -123.5 24t-95.5 67t-62 103.5t-22 134.5t24 137t67.5 109.5t105 73t136.5 26.5q87 0 151 -33t106 -97t62.5 -157t20.5 -214z" />
    <glyph glyph-name="colon" unicode=":" horiz-adv-x="421" 
d="M321 87q0 -46 -31 -75t-77 -29q-48 0 -80.5 28t-32.5 76q0 22 9 40.5t24 32t35.5 20.5t44.5 7q46 0 77 -27.5t31 -72.5zM321 607q0 -47 -31 -75t-77 -28q-48 0 -80.5 27.5t-32.5 75.5q0 22 9 40.5t24 32t35.5 20.5t44.5 7q46 0 77 -27.5t31 -72.5z" />
    <glyph glyph-name="semicolon" unicode=";" horiz-adv-x="430" 
d="M350 628q0 -49 -31.5 -78.5t-79.5 -29.5q-50 0 -83.5 29.5t-33.5 78.5q0 47 33.5 75.5t83.5 28.5q48 0 79.5 -28.5t31.5 -75.5zM214 -202h-124l50 376h202z" />
    <glyph glyph-name="less" unicode="&#x3c;" horiz-adv-x="969" 
d="M100 331v150l759 335v-149l-597 -259l597 -261v-147z" />
    <glyph glyph-name="equal" unicode="=" horiz-adv-x="856" 
d="M150 168v154h556v-154h-556zM150 466v156h556v-156h-556z" />
    <glyph glyph-name="greater" unicode="&#x3e;" horiz-adv-x="969" 
d="M110 0v147l598 259l-598 261v149l759 -335v-150z" />
    <glyph glyph-name="question" unicode="?" horiz-adv-x="783" 
d="M431 86q0 -45 -30.5 -74t-78.5 -29t-80.5 28t-32.5 75q0 46 32.5 73t80.5 27t78.5 -27.5t30.5 -72.5zM663 743q0 -94 -37 -155t-110 -104l-61 -40q-17 -10 -26 -18t-13.5 -17.5t-5 -23.5t-0.5 -37v-73h-169v110q0 34 3 57t12 40t25 30.5t42 28.5l59 33q26 15 45.5 29.5
t32.5 32.5t19.5 40.5t6.5 52.5q0 63 -34.5 99t-102.5 36q-54 0 -99.5 -19.5t-88.5 -57.5l-71 136q36 25 70 42.5t68 28.5t70 16.5t77 5.5q70 0 124 -19t90.5 -54.5t55 -86t18.5 -113.5z" />
    <glyph glyph-name="at" unicode="@" horiz-adv-x="1196" 
d="M698 561q2 22 0 40.5t-10.5 32t-25.5 21.5t-44 8q-63 0 -93 -54.5t-30 -169.5q0 -58 20.5 -85t62.5 -27q53 0 76.5 34.5t30.5 95.5l13 104v0zM1066 586q0 -99 -23 -169.5t-59.5 -115t-81 -65t-86.5 -20.5q-17 0 -35 5t-34 15.5t-27.5 27.5t-15.5 41h-3
q-29 -42 -70.5 -63.5t-89.5 -21.5q-39 0 -71 15t-55 44t-35.5 72.5t-12.5 100.5q0 58 13.5 115t42 102t72.5 73t105 28q42 0 69 -15.5t45 -45.5h3l5 48h126l-47 -405q-2 -17 8.5 -30.5t33.5 -13.5q20 0 43 15.5t43 49t33.5 88t13.5 132.5q0 81 -23 144.5t-66 107t-104 66.5
t-136 23q-96 0 -173.5 -31.5t-132.5 -91t-84.5 -143.5t-29.5 -189q0 -103 25.5 -182t73 -132.5t116 -81t155.5 -27.5q82 0 149.5 24.5t121.5 72.5l44 -76q-70 -58 -152.5 -80.5t-171.5 -22.5q-97 0 -181 30.5t-145.5 93.5t-96.5 159t-35 228q0 125 40.5 223.5t110.5 167
t163.5 104.5t199.5 36q90 0 167.5 -27t134 -80.5t88.5 -134t32 -188.5z" />
    <glyph glyph-name="A" unicode="A" horiz-adv-x="976" 
d="M487 829h-8l-121 -445h254zM716 0l-68 228h-324l-69 -228h-195l315 1003h220l321 -1003h-200z" />
    <glyph glyph-name="B" unicode="B" horiz-adv-x="950" 
d="M661 291q0 52 -15.5 83.5t-42 47.5t-60.5 21t-71 5q-38 0 -72.5 -1t-64.5 -3v-301q37 -2 68.5 -2.5t70.5 -0.5q45 0 80 5t59 20.5t36 45.5t12 80zM631 723q0 74 -39.5 107t-129.5 33q-30 0 -64.5 -1t-62.5 -5v-274q28 -1 59 -1h68q45 0 77 6t52.5 22t30 43.5t9.5 69.5z
M850 280q0 -147 -83 -213.5t-239 -66.5h-378v993q73 8 150.5 13t161.5 5q66 0 130 -12t113.5 -42.5t80 -82.5t30.5 -132q0 -85 -34.5 -136.5t-106.5 -77.5v-3q45 -9 78 -31t54.5 -54t32 -72.5t10.5 -87.5z" />
    <glyph glyph-name="C" unicode="C" horiz-adv-x="930" 
d="M860 129q-64 -68 -143.5 -107t-178.5 -39q-112 0 -191 40t-129.5 110t-74 164.5t-23.5 204.5q0 102 24 195.5t75.5 164t131 112.5t190.5 42q95 0 169.5 -36.5t143.5 -110.5l-112 -127q-45 56 -91.5 86.5t-109.5 30.5q-59 0 -101.5 -25.5t-70.5 -72.5t-41.5 -113
t-13.5 -146q0 -65 10.5 -130t36.5 -116.5t70.5 -83.5t112.5 -32q64 0 115 30t104 88l97 -129v0z" />
    <glyph glyph-name="D" unicode="D" horiz-adv-x="1007" 
d="M693 509q0 70 -10 134.5t-36.5 113t-73 77.5t-119.5 29q-28 0 -58.5 -1t-60.5 -5v-706q29 -2 51 -2.5t45 -0.5q67 0 116.5 20.5t81.5 64.5t48 112.5t16 163.5zM887 505q0 -118 -27 -211.5t-82 -159t-140 -100t-200 -34.5h-288v994q33 3 70 6.5t75.5 5.5t77 3.5t74.5 1.5
q108 0 190.5 -34.5t138 -99.5t83.5 -159t28 -213z" />
    <glyph glyph-name="E" unicode="E" horiz-adv-x="819" 
d="M150 0v1000h556v-158h-371v-244h335v-159h-335v-285h384v-154h-569z" />
    <glyph glyph-name="F" unicode="F" horiz-adv-x="786" 
d="M335 842v-249h324v-160h-324v-433h-185v1000h546v-158h-361z" />
    <glyph glyph-name="G" unicode="G" horiz-adv-x="1023" 
d="M903 445q0 -96 -17.5 -180t-59.5 -146.5t-113 -99t-178 -36.5q-105 0 -183 41t-129.5 111t-77 163.5t-25.5 199.5t26 200t78.5 164.5t131.5 112t185 41.5q51 0 94 -10.5t80 -28.5t69.5 -42t62.5 -52l-107 -130q-45 49 -90.5 77.5t-107.5 28.5q-69 0 -113.5 -33t-70 -85.5
t-35 -116.5t-9.5 -125q0 -62 8.5 -127.5t32.5 -119t68 -88t116 -34.5q58 0 94 22t56 58.5t27 84.5t7 100h-181v155h361v-105v0z" />
    <glyph glyph-name="H" unicode="H" horiz-adv-x="1002" 
d="M667 0v442h-332v-442h-185v1000h185v-384h332v384h185v-1000h-185z" />
    <glyph glyph-name="I" unicode="I" horiz-adv-x="485" 
d="M150 0v1000h185v-1000h-185z" />
    <glyph glyph-name="J" unicode="J" horiz-adv-x="706" 
d="M556 271q0 -66 -14 -119.5t-45 -91t-80.5 -58t-121.5 -20.5q-66 0 -120 17t-105 55l74 140q36 -30 65.5 -42t67.5 -12q52 0 73 32t21 96v732h185v-729v0z" />
    <glyph glyph-name="K" unicode="K" horiz-adv-x="917" 
d="M644 0l-237 424l-74 -96l2 -328h-185v1000h185l-2 -437h9l275 437h221l-301 -442l330 -558h-223z" />
    <glyph glyph-name="L" unicode="L" horiz-adv-x="764" 
d="M150 0v1000h185v-843h339v-157h-524z" />
    <glyph glyph-name="M" unicode="M" horiz-adv-x="1144" 
d="M812 0v672h-6l-235 -399l-237 396h-4v-669h-180v1000h176l245 -417l247 417h176v-1000h-182z" />
    <glyph glyph-name="N" unicode="N" horiz-adv-x="1054" 
d="M739 0l-408 652h-3v-652h-178v1000h180l393 -642h3v642h178v-1000h-165z" />
    <glyph glyph-name="O" unicode="O" horiz-adv-x="1093" 
d="M779 501q0 79 -10.5 145.5t-37 114.5t-72 75t-114.5 27t-113.5 -27t-70.5 -75.5t-36.5 -115t-10.5 -144.5q0 -80 10.5 -146.5t37 -115t72 -75.5t115.5 -27q68 0 112.5 27.5t70.5 76t36.5 115.5t10.5 145zM973 501q0 -118 -27 -213.5t-80.5 -163t-133 -104.5t-184.5 -37
q-106 0 -186 37t-134 104.5t-81 163t-27 213.5q0 115 26.5 210t80 163t134 105t187.5 37q106 0 185.5 -37t132.5 -105t80 -163t27 -210z" />
    <glyph glyph-name="P" unicode="P" horiz-adv-x="909" 
d="M629 688q0 48 -8.5 81t-28 53t-51.5 29t-79 9q-30 0 -61 -1t-66 -5v-342h130q43 0 74 7t51 26.5t29.5 53.5t9.5 89zM819 688q0 -159 -79 -242.5t-248 -83.5h-157v-362h-185v994q66 7 142.5 11.5t159.5 4.5q81 0 148 -16.5t116 -54t76 -99t27 -152.5z" />
    <glyph glyph-name="Q" unicode="Q" horiz-adv-x="1094" 
d="M780 501q0 78 -10 144.5t-36.5 114.5t-72 75.5t-116.5 27.5q-70 0 -115 -27.5t-70.5 -76.5t-35.5 -115t-10 -143q0 -78 10 -144.5t36.5 -115t72 -76.5t116.5 -28q69 0 113.5 28.5t71 77.5t36.5 115.5t10 142.5zM974 501q0 -64 -8.5 -126t-27.5 -117.5t-51 -103.5t-78 -85
v-2q22 -6 36 -17t29 -22.5t35.5 -22t54.5 -17.5l-57 -136q-53 3 -95 24t-76 46t-62.5 45t-53.5 20q-16 0 -28 -2t-30 -2q-113 0 -196 36t-137.5 103.5t-81.5 163.5t-27 215q0 113 25.5 207.5t78 163t133.5 106.5t191 38q109 0 189.5 -37.5t133 -106t78 -163t25.5 -208.5z
" />
    <glyph glyph-name="R" unicode="R" horiz-adv-x="936" 
d="M630 700q0 83 -41.5 122.5t-130.5 39.5q-32 0 -61.5 -1.5t-60.5 -4.5v-314h140q38 0 66.5 8t48 26.5t29.5 49t10 74.5zM640 0l-114 349q-8 25 -18 35t-33 10h-140v-394h-185v994q78 9 152.5 12.5t152.5 3.5q76 0 142.5 -15.5t116 -50.5t78 -92.5t28.5 -141.5
q0 -101 -39.5 -166t-117.5 -97v-2q13 -3 21 -21t14 -33l138 -391h-196z" />
    <glyph glyph-name="S" unicode="S" horiz-adv-x="840" 
d="M740 288q0 -80 -25 -137t-69.5 -94t-105 -54t-131.5 -17q-98 0 -176 24t-153 73l68 151q57 -43 118.5 -70t133.5 -27q30 0 58.5 6t51 21t36 40t13.5 64q0 37 -17.5 64t-47 47.5t-67.5 37.5t-78 34q-44 19 -86.5 40.5t-76 54t-54.5 79.5t-21 117t26 121.5t69.5 85
t99.5 49.5t116 16q80 0 148.5 -20.5t134.5 -59.5l-54 -151q-50 37 -100.5 58t-112.5 21q-30 0 -56.5 -6t-46.5 -19.5t-31.5 -35.5t-11.5 -53q0 -30 16.5 -52t44 -39t63.5 -31.5t74 -30.5q45 -19 89.5 -41.5t80.5 -57t58 -84.5t22 -124z" />
    <glyph glyph-name="T" unicode="T" horiz-adv-x="769" 
d="M477 840v-840h-185v840h-232v160h649v-160h-232z" />
    <glyph glyph-name="U" unicode="U" horiz-adv-x="1010" 
d="M860 406q0 -101 -17.5 -179.5t-58.5 -132.5t-109.5 -82.5t-170.5 -28.5t-170 28t-109 82t-58 132.5t-17 180.5v594h185v-599q0 -59 6 -106.5t24 -82t51 -53t88 -18.5t88.5 19t52 53.5t24.5 82t6 105.5v599h185v-594v0z" />
    <glyph glyph-name="V" unicode="V" horiz-adv-x="903" 
d="M559 0h-218l-281 1000h198l192 -812h4l192 812h197z" />
    <glyph glyph-name="W" unicode="W" horiz-adv-x="1355" 
d="M1058 0h-211l-168 673h-7l-166 -673h-214l-212 1000h197l128 -762h4l186 762h169l183 -763h6l129 763h193z" />
    <glyph glyph-name="X" unicode="X" horiz-adv-x="886" 
d="M629 0l-184 365h-1l-183 -365h-211l282 520l-251 480h213l157 -344h5l157 344h207l-257 -494l273 -506h-207z" />
    <glyph glyph-name="Y" unicode="Y" horiz-adv-x="872" 
d="M531 388v-388h-185v381l-306 619h205l195 -452l195 452h197z" />
    <glyph glyph-name="Z" unicode="Z" horiz-adv-x="816" 
d="M90 0v145l409 695h-389v160h603v-144l-412 -702h425v-154h-636z" />
    <glyph glyph-name="bracketleft" unicode="[" horiz-adv-x="541" 
d="M140 -181v1342h301v-112h-142v-1118h142v-112h-301z" />
    <glyph glyph-name="backslash" unicode="\" horiz-adv-x="759" 
d="M548 -173l-488 1222h154l485 -1222h-151z" />
    <glyph glyph-name="bracketright" unicode="]" horiz-adv-x="542" 
d="M100 -181v112h141v1118h-141v112h302v-1342h-302z" />
    <glyph glyph-name="asciicircum" unicode="^" horiz-adv-x="727" 
d="M582 751l-217 117l-224 -117l-81 128l301 161l306 -161z" />
    <glyph glyph-name="underscore" unicode="_" horiz-adv-x="743" 
d="M60 -241v118h623v-118h-623z" />
    <glyph glyph-name="grave" unicode="`" horiz-adv-x="433" 
d="M287 917l-242 147l152 86l188 -177z" />
    <glyph glyph-name="a" unicode="a" horiz-adv-x="887" 
d="M566 415q-50 0 -100 -7t-90 -26.5t-65 -54t-25 -89.5t25.5 -92.5t80.5 -37.5q94 0 174 78v229zM685 -12q-40 10 -66 31.5t-36 63.5h-3q-50 -48 -110 -74.5t-132 -26.5q-55 0 -97.5 18t-71.5 51t-44 78.5t-15 100.5q0 61 19.5 107t53.5 79t79 54.5t96 34.5t104.5 18
t105.5 5v30q0 33 -4.5 58t-16.5 42t-33.5 26t-55.5 9q-75 0 -140.5 -20.5t-125.5 -54.5l-50 134q81 40 158 60.5t166 20.5q81 0 135.5 -19t86.5 -56t45.5 -92t13.5 -128v-344q0 -24 2 -40t7.5 -28t15.5 -21t25 -19z" />
    <glyph glyph-name="b" unicode="b" horiz-adv-x="919" 
d="M625 408q0 58 -5 109.5t-21.5 90t-47 61t-82.5 22.5q-72 0 -111 -41.5t-39 -124.5v-206q0 -41 7.5 -77t25 -63t45.5 -43t69 -16q50 0 81 24.5t48.5 65t23.5 92.5t6 106zM809 411q0 -78 -15.5 -155t-50.5 -138t-92 -98.5t-140 -37.5q-68 0 -116 28t-83 89h-3l-23 -99h-146
v1085h181v-349h1q32 54 79.5 75.5t107.5 21.5q80 0 137 -32.5t93 -89.5t53 -134t17 -166z" />
    <glyph glyph-name="c" unicode="c" horiz-adv-x="800" 
d="M655 615q-40 36 -80 55t-96 19q-57 0 -93 -26t-56.5 -66.5t-28 -89.5t-7.5 -96q0 -48 8 -99t29 -92t57.5 -67.5t93.5 -26.5q56 0 101.5 19.5t89.5 54.5l57 -133q-63 -42 -126.5 -63.5t-138.5 -21.5q-95 0 -162.5 34t-110.5 92.5t-62.5 136t-19.5 163.5q0 87 21.5 164.5
t66 135t113.5 91.5t164 34q70 0 132 -22.5t120 -64.5z" />
    <glyph glyph-name="d" unicode="d" horiz-adv-x="919" 
d="M599 525q0 83 -38 124.5t-110 41.5q-51 0 -82 -22.5t-47.5 -61t-22 -90t-5.5 -109.5q0 -54 6.5 -106t23.5 -92.5t48 -65t80 -24.5q42 0 70.5 16t45.5 43t24 62.5t7 73.5v210zM622 0l-10 96h-5q-36 -59 -84.5 -86.5t-114.5 -27.5q-83 0 -140 37.5t-92 98.5t-50.5 138
t-15.5 155q0 89 17 166t53.5 134t93 89.5t135.5 32.5q59 0 107 -21.5t80 -72.5h2v346h181v-1085h-157z" />
    <glyph glyph-name="e" unicode="e" horiz-adv-x="902" 
d="M622 471q0 45 -7.5 86t-25 72t-47 49t-75.5 18q-82 0 -128 -58t-46 -167h329v0zM792 412q0 -13 -0.5 -28.5t-2.5 -34.5h-495q0 -109 46.5 -167.5t142.5 -58.5q57 0 105.5 16.5t104.5 54.5l53 -133q-66 -42 -131 -60.5t-141 -18.5q-88 0 -156 29.5t-114 85t-70 134
t-24 177.5q0 106 26.5 186t73.5 133t113 79.5t144 26.5q160 0 242.5 -107t82.5 -314z" />
    <glyph glyph-name="f" unicode="f" horiz-adv-x="567" 
d="M507 953q-17 2 -32.5 4t-32.5 2q-28 0 -45.5 -4.5t-27.5 -14.5t-14 -26t-4 -40v-69h145v-147h-142v-658h-181v658h-103v147h103v57q0 64 11 108.5t38.5 72t74.5 39.5t120 12q21 0 44 -1t46 -6v-134v0z" />
    <glyph glyph-name="g" unicode="g" horiz-adv-x="922" 
d="M602 515q0 37 -9 69.5t-27.5 56t-47 37t-67.5 13.5q-49 0 -79.5 -22t-48 -59t-23.5 -86.5t-6 -104.5q0 -42 6 -88t23 -85t47.5 -64t80.5 -25q47 0 76.5 20t46 51.5t22.5 70t6 76.5v140zM782 3q0 -79 -15 -139t-51.5 -100.5t-97.5 -61.5t-152 -21q-85 0 -161.5 19.5
t-146.5 54.5l53 145q62 -34 122 -52.5t132 -18.5q38 0 64 7t42 24.5t23 46.5t7 73v137h-3q-36 -51 -82 -75t-108 -24q-75 0 -131 28t-93 79.5t-55.5 125t-18.5 164.5q0 79 14 154.5t48.5 134t92 94t144.5 35.5q66 0 115 -24t83 -80h2l11 88h162v-814v0z" />
    <glyph glyph-name="h" unicode="h" horiz-adv-x="922" 
d="M601 0v465q0 44 -2.5 83t-15 68.5t-38.5 46.5t-73 17q-83 0 -117 -48.5t-34 -136.5v-495h-181v1085h181v-343h1q37 51 90 71t116 20q77 0 126 -24.5t77.5 -69.5t39.5 -109.5t11 -145.5v-484h-181z" />
    <glyph glyph-name="i" unicode="i" horiz-adv-x="462" 
d="M342 1023q0 -45 -31 -72.5t-81 -27.5t-80 27.5t-30 72.5t30 71.5t80 26.5q51 0 81.5 -26.5t30.5 -71.5zM140 0v817h182v-817h-182z" />
    <glyph glyph-name="j" unicode="j" horiz-adv-x="462" 
d="M322 9q0 -74 -13 -134t-44.5 -102.5t-84 -66t-133.5 -23.5q-52 0 -107 9v151q25 -2 44.5 -3t36.5 -1q44 0 68 12.5t35.5 35.5t13.5 57t2 77v796h182v-808v0zM342 1023q0 -45 -31 -72.5t-81 -27.5t-80 27.5t-30 72.5t30 71.5t80 26.5q51 0 81.5 -26.5t30.5 -71.5z" />
    <glyph glyph-name="k" unicode="k" horiz-adv-x="827" 
d="M582 0l-177 357l-86 -110v-247h-179v1085h181v-622h4l240 354h208l-240 -341l254 -476h-205z" />
    <glyph glyph-name="l" unicode="l" horiz-adv-x="505" 
d="M435 0q-25 -5 -58 -7.5t-62 -2.5q-49 0 -82.5 9.5t-54 30.5t-29.5 55.5t-9 85.5v914h181v-869q0 -24 3.5 -38.5t12 -22t22.5 -9.5t35 -2h41v-144v0z" />
    <glyph glyph-name="m" unicode="m" horiz-adv-x="1332" 
d="M1011 0v481q0 43 -3.5 79.5t-15.5 63t-35.5 41.5t-63.5 15q-68 0 -102 -43.5t-34 -124.5v-512h-181v482q0 43 -3 79.5t-15 63t-35.5 41t-63.5 14.5q-71 0 -104.5 -45t-33.5 -123v-512h-181v817h164l11 -87h3q30 51 75.5 77t118.5 26q68 0 118.5 -25.5t78.5 -88.5
q43 66 97 90t125 24q72 0 121.5 -21t80.5 -63t45 -104t14 -144v-501h-181z" />
    <glyph glyph-name="n" unicode="n" horiz-adv-x="920" 
d="M599 0v465q0 45 -2 84.5t-14 68.5t-38 45.5t-73 16.5q-83 0 -117 -48.5t-34 -136.5v-495h-181v817h159l13 -87h3q35 58 90 80.5t123 22.5q77 0 126 -24.5t77 -69.5t38.5 -109.5t10.5 -145.5v-484h-181z" />
    <glyph glyph-name="o" unicode="o" 
d="M640 408q0 55 -6.5 105.5t-25 88.5t-52.5 61t-88 23q-55 0 -89 -22.5t-53 -61t-25.5 -89t-6.5 -105.5q0 -63 7.5 -114.5t27 -89t53.5 -58t86 -20.5t85 20.5t52.5 58t27 89t7.5 114.5zM824 408q0 -96 -21.5 -174.5t-66 -134.5t-111.5 -86.5t-157 -30.5t-157.5 30.5
t-112 86t-66.5 134.5t-22 175q0 94 21.5 172t65.5 134t111.5 87.5t159.5 31.5q90 0 156.5 -30t111 -85.5t66.5 -134t22 -175.5z" />
    <glyph glyph-name="p" unicode="p" horiz-adv-x="919" 
d="M625 409q0 29 -1 61t-6 63.5t-15 60t-27.5 50t-44.5 34.5t-65 13q-39 0 -67 -13t-46 -36.5t-26 -55t-8 -67.5v-201q0 -38 7 -73t23.5 -63t45 -44.5t71.5 -16.5q36 0 62 14t43.5 37t28 52.5t16 61.5t7.5 64t2 59zM809 412q0 -73 -14.5 -149t-49 -138.5t-92.5 -102.5
t-145 -40q-63 0 -106.5 22t-77.5 73h-3v-385h-181v1125h159l12 -87h3q34 55 82.5 79t114.5 24q87 0 144.5 -38.5t91.5 -99.5t48 -136t14 -147z" />
    <glyph glyph-name="q" unicode="q" horiz-adv-x="922" 
d="M601 519q0 172 -147 172q-53 0 -84.5 -22t-48 -60.5t-22 -90t-5.5 -110.5q0 -53 6 -104t23.5 -92t48.5 -66t82 -25q44 0 72.5 18.5t45 47.5t23 66t6.5 75v191zM731 -338q-43 12 -67.5 31.5t-39 46.5t-19 61t-4.5 76v200h-6q-32 -51 -78 -73t-106 -22q-80 0 -137 34.5
t-93.5 93.5t-53.5 137t-17 165q0 78 15 153.5t49.5 135t92 96t141.5 36.5q64 0 115 -23t83 -80h3l10 87h163v-904q0 -53 9 -77t51 -49z" />
    <glyph glyph-name="r" unicode="r" horiz-adv-x="633" 
d="M516 667q-46 0 -82 -8t-61 -28t-38.5 -54t-13.5 -85v-492h-181v817h162l13 -101h1q32 61 78.5 89t124.5 28h44v-166h-47z" />
    <glyph glyph-name="s" unicode="s" horiz-adv-x="757" 
d="M667 232q0 -65 -20.5 -112.5t-59 -78t-93.5 -45t-123 -14.5q-82 0 -158 21.5t-143 63.5l62 140q49 -35 112.5 -60.5t126.5 -25.5q60 0 90 23t30 76q0 29 -15.5 49t-42 35t-60.5 27.5t-70 26.5q-38 15 -75 34t-66.5 47.5t-47.5 68.5t-18 96q0 57 21.5 100t60 71.5t91.5 43
t117 14.5q66 0 131.5 -13t125.5 -42l-43 -141q-42 26 -93 41t-104 15q-59 0 -96 -17t-37 -64q0 -24 13 -41t35.5 -30.5t51 -24.5t60.5 -23q41 -15 83 -34t76.5 -48.5t56 -72.5t21.5 -106z" />
    <glyph glyph-name="t" unicode="t" horiz-adv-x="592" 
d="M502 -1q-30 -4 -59.5 -6t-59.5 -2q-69 0 -111.5 13.5t-65.5 43t-30.5 76.5t-7.5 113v419h-108v149h111v219h178v-219h153v-149h-153v-421q0 -29 3 -47t14.5 -28t33 -13.5t59.5 -3.5h43v-144v0z" />
    <glyph glyph-name="u" unicode="u" horiz-adv-x="911" 
d="M607 0l-9 86h-5q-35 -51 -86.5 -78.5t-125.5 -27.5q-63 0 -108.5 17.5t-75 55.5t-43.5 97.5t-14 144.5v522h181v-469q0 -46 3 -85.5t15 -68t37 -44.5t69 -16q42 0 69.5 12.5t44.5 36.5t24 59.5t7 82.5v492h181v-817h-164z" />
    <glyph glyph-name="v" unicode="v" horiz-adv-x="822" 
d="M526 0h-225l-241 817h192l160 -670h6l158 670h186z" />
    <glyph glyph-name="w" unicode="w" horiz-adv-x="1245" 
d="M973 0h-204l-145 539h-6l-145 -539h-204l-189 817h186l114 -631h4l157 631h163l157 -631h6l115 631h183z" />
    <glyph glyph-name="x" unicode="x" horiz-adv-x="788" 
d="M547 0l-154 314h-3l-151 -314h-199l243 427l-218 390h203l133 -282h5l133 282h188l-220 -386l241 -431h-201z" />
    <glyph glyph-name="y" unicode="y" horiz-adv-x="832" 
d="M505 -33q-24 -73 -48 -126.5t-55 -89t-73 -53t-102 -17.5q-27 0 -52 1.5t-57 5.5v154q14 -2 34 -4t42 -2q25 0 42.5 4.5t30.5 15.5t23 31t20 52l17 55l-267 823h194l165 -630h3l161 630h189z" />
    <glyph glyph-name="z" unicode="z" horiz-adv-x="725" 
d="M90 0v131l335 538h-326v148h527v-144l-326 -525h335v-148h-545z" />
    <glyph glyph-name="braceleft" unicode="{" horiz-adv-x="556" 
d="M363 -188q-53 0 -91 9.5t-62 33t-35 63t-11 99.5v271q0 25 -2.5 46t-10 37t-22 27t-39.5 16v128q24 5 38.5 16t22.5 27.5t10.5 37.5t2.5 46v288q0 60 11 99.5t35 63.5t62 33.5t91 9.5h83v-114h-33q-31 0 -48.5 -6t-26 -20t-10.5 -38.5t-2 -60.5v-284q0 -30 -3.5 -52
t-12 -40.5t-23 -35t-36.5 -34.5q22 -18 36.5 -34t23 -34t12 -40.5t3.5 -52.5v-269q0 -37 2.5 -61t11 -37.5t26 -19t47.5 -5.5h33v-113h-83z" />
    <glyph glyph-name="bar" unicode="|" horiz-adv-x="429" 
d="M150 -330v1379h129v-1379h-129z" />
    <glyph glyph-name="braceright" unicode="}" horiz-adv-x="555" 
d="M465 414q-24 -5 -38.5 -16t-22 -27t-9.5 -37t-2 -46v-271q0 -60 -11.5 -99.5t-35.5 -63t-61.5 -33t-90.5 -9.5h-84v113h33q30 0 48 5.5t27 19t11.5 37.5t2.5 61v269q0 30 3.5 52.5t11.5 40.5t22.5 34t36.5 34q-22 18 -36.5 34.5t-22.5 35t-11.5 40.5t-3.5 52v284
q0 36 -2 60.5t-11 38.5t-27 20t-49 6h-33v114h86q52 0 89.5 -9.5t61.5 -33.5t35 -63.5t11 -99.5v-288q0 -25 2.5 -46t10.5 -37.5t22 -27.5t37 -16v-128v0z" />
    <glyph glyph-name="asciitilde" unicode="~" horiz-adv-x="802" 
d="M732 903q-24 -61 -74.5 -92.5t-113.5 -31.5q-56 0 -139.5 32t-131.5 32q-32 0 -52 -13t-42 -52l-104 91q31 60 73 91.5t114 31.5q58 0 142 -32t128 -32q29 0 52 14.5t41 49.5l107 -89v0z" />
    <glyph glyph-name="exclamdown" unicode="&#xa1;" horiz-adv-x="518" 
d="M368 670q0 -45 -31.5 -72t-79.5 -27q-46 0 -76.5 27.5t-30.5 71.5q0 45 30.5 72t76.5 27q48 0 79.5 -27t31.5 -72zM160 -247l27 706h146l25 -706h-198z" />
    <glyph glyph-name="cent" unicode="&#xa2;" horiz-adv-x="775" 
d="M705 205q-46 -37 -89 -58t-98 -29v-118h-155v121q-66 14 -114 49t-78.5 86t-45.5 115t-15 135q0 72 15 135t45.5 112.5t78.5 83t114 47.5v116h155v-113q49 -8 90 -25.5t84 -47.5l-71 -135q-41 35 -77 52t-83 17q-51 0 -83 -21.5t-51 -56t-26 -78t-7 -86.5q0 -49 9 -93.5
t29 -79t52.5 -55t79.5 -20.5q45 0 87 16.5t89 57.5l65 -127v0z" />
    <glyph glyph-name="sterling" unicode="&#xa3;" horiz-adv-x="787" 
d="M100 0v144h15q30 0 50 11t32 30.5t17.5 47.5t5.5 62q0 16 -1 32t-3 36t-5 44.5t-7 57.5h-100v142h83q-5 45 -11 88t-6 91q0 118 70.5 174t197.5 56q125 0 242 -57l-34 -156q-38 27 -80 43.5t-95 16.5q-67 0 -94.5 -29.5t-27.5 -88.5q0 -32 5 -66t10 -72h194v-142h-174
q11 -61 16.5 -103t5.5 -77q0 -41 -6 -70t-22 -57v-2h319v-156h-597z" />
    <glyph glyph-name="currency" unicode="&#xa4;" horiz-adv-x="959" 
d="M60 334l30 104h80q-1 16 -2 31.5t-1 32.5v28t2 29h-95l29 103h77q13 75 40.5 140t73 112.5t109.5 74.5t151 27q48 0 89 -9t78.5 -27.5t73 -46t70.5 -64.5l-110 -116q-46 57 -94 84t-110 27q-83 0 -127.5 -51.5t-60.5 -150.5h335l-30 -103h-314q-1 -14 -1 -28v-29v-32
t1 -32h304l-30 -104h-262q7 -41 19.5 -77.5t34.5 -63.5t54 -43t78 -16q66 0 118.5 28.5t103.5 85.5l95 -121q-64 -68 -142 -106.5t-176 -38.5q-86 0 -150 25.5t-108.5 72t-72 111.5t-40.5 143h-120z" />
    <glyph glyph-name="yen" unicode="&#xa5;" horiz-adv-x="876" 
d="M626 583h150v-121h-210l-31 -65v-89h241v-120h-241v-188h-184v188h-244v120h244v81l-36 73h-208v121h147l-204 417h197l196 -451l194 451h189z" />
    <glyph glyph-name="brokenbar" unicode="&#xa6;" horiz-adv-x="429" 
d="M150 -330v578h129v-578h-129zM150 471v578h129v-578h-129z" />
    <glyph glyph-name="section" unicode="&#xa7;" horiz-adv-x="742" 
d="M489 438q0 44 -27 67t-90 23q-25 0 -47 -4t-38 -14.5t-25.5 -28t-9.5 -43.5q0 -40 27 -64.5t93 -24.5q60 0 88.5 21t28.5 68zM642 468q0 -35 -8.5 -65.5t-27.5 -54.5t-49.5 -40.5t-75.5 -22.5v-3q33 -13 62 -32.5t50.5 -46t33.5 -58t12 -68.5q0 -49 -15 -89t-47 -68.5
t-82 -44.5t-120 -16q-78 0 -142.5 21t-129.5 64l55 131q57 -37 109.5 -59t106.5 -22q96 0 96 75q0 17 -5 30.5t-17 25.5t-32 24.5t-49 27.5q-34 15 -65.5 29.5t-60.5 28.5q-33 19 -59 38t-44 41.5t-28 51t-10 65.5q0 76 43 120.5t122 52.5v5q-71 27 -113 73.5t-42 119.5
q0 102 69.5 158t194.5 56q65 0 122 -12.5t120 -40.5l-46 -140q-44 26 -87 40t-88 14q-42 0 -70.5 -15t-28.5 -55q0 -26 18 -47.5t68 -46.5q39 -16 70.5 -29.5l73.5 -31.5q53 -27 84.5 -70t31.5 -114z" />
    <glyph glyph-name="dieresis" unicode="&#xa8;" horiz-adv-x="608" 
d="M227 1020q0 -21 -7 -38t-20 -30.5t-30 -20.5t-37 -7t-37.5 7t-30.5 20.5t-20.5 30.5t-7.5 38q0 19 7.5 36t20.5 30.5t30.5 21t37.5 7.5t37 -7.5t30 -21t20 -30.5t7 -36zM555 1020q0 -21 -7 -38t-20 -30.5t-30 -20.5t-37 -7q-41 0 -68.5 28t-27.5 68q0 19 7.5 36
t20.5 30.5t30.5 21t37.5 7.5t37 -7.5t30 -21t20 -30.5t7 -36z" />
    <glyph glyph-name="copyright" unicode="&#xa9;" horiz-adv-x="1256" 
d="M873 271q-53 -48 -108 -70.5t-123 -22.5q-78 0 -134 25t-93 69t-54.5 103.5t-17.5 128.5q0 72 20 131t57.5 101t92.5 64.5t125 22.5q68 0 124.5 -23t107.5 -71l-74 -89q-35 38 -72 55.5t-80 17.5q-90 0 -130.5 -55.5t-40.5 -155.5q0 -103 42.5 -158.5t129.5 -55.5
q47 0 86.5 18t80.5 54l61 -89v0zM1080 502q0 93 -35.5 175t-96.5 143.5t-143.5 97t-175.5 35.5t-175 -35.5t-143 -97t-96 -143.5t-35 -175t35 -175t96 -142.5t143 -96t175 -35.5t175.5 35.5t143.5 96t96.5 142.5t35.5 175zM1146 501q0 -108 -41 -202t-111.5 -164.5
t-164.5 -111t-201 -40.5q-108 0 -202 40.5t-164.5 111t-111 164.5t-40.5 202q0 107 40.5 201t111 164t164.5 110.5t202 40.5q107 0 201 -40.5t164.5 -110.5t111.5 -164t41 -201z" />
    <glyph glyph-name="ordfeminine" unicode="&#xaa;" horiz-adv-x="639" 
d="M386 787q-93 -1 -132.5 -23t-39.5 -65q0 -31 16.5 -49t44.5 -18q25 0 51 10t60 33v112zM467 555q-55 12 -68 50h-2q-34 -25 -72.5 -38.5t-79.5 -13.5q-66 0 -105.5 38t-39.5 101q0 45 20 76.5t57.5 52t90 29.5t118.5 9v11q0 16 -1.5 28t-8.5 20t-21.5 11.5t-39.5 3.5
q-32 0 -75.5 -10t-91.5 -39l-38 86q57 29 107.5 42t107.5 13q51 0 85 -10.5t54.5 -32t29 -55.5t8.5 -80v-162q0 -12 1.5 -19.5t5.5 -13.5t11 -12t19 -14z" />
    <glyph glyph-name="guillemotleft" unicode="&#xab;" horiz-adv-x="797" 
d="M256 151l-166 301l166 300l127 -64l-134 -237l134 -235zM572 151l-166 301l166 300l125 -64l-131 -237l131 -235z" />
    <glyph glyph-name="registered" unicode="&#xae;" horiz-adv-x="801" 
d="M363 886v-74h44q25 0 35.5 10t10.5 27q0 20 -11.5 28.5t-40.5 8.5h-38zM478 778q4 -6 12.5 -25.5t17.5 -40.5t16 -37.5l7 -16.5h-78l-39 95q-2 5 -3.5 6t-6.5 1h-40v-102h-68v280q26 2 54 3.5t51 1.5q22 0 44 -3.5t39 -14t27.5 -28.5t10.5 -46q0 -50 -44 -73zM401 1011
q-46 0 -86 -17t-70 -46.5t-47.5 -68.5t-17.5 -83q0 -45 17.5 -84t47.5 -68t70 -45.5t86 -16.5q45 0 85 16.5t70 45.5t47.5 68t17.5 84q0 44 -17.5 83t-47.5 68.5t-70 46.5t-85 17zM401 542q-54 0 -101.5 20t-83 54.5t-56 80.5t-20.5 99t20.5 99t56 80.5t83 54t101.5 19.5
t101 -19.5t82.5 -54t56 -80.5t20.5 -99t-20.5 -99t-56 -80.5t-82.5 -54.5t-101 -20z" />
    <glyph glyph-name="macron" unicode="&#xaf;" horiz-adv-x="673" 
d="M120 959v126h430v-126h-430z" />
    <glyph glyph-name="macron" unicode="&#x2c9;" horiz-adv-x="673" 
d="M120 959v126h430v-126h-430z" />
    <glyph glyph-name="degree" unicode="&#xb0;" horiz-adv-x="756" 
d="M540 796q0 34 -13 64.5t-35.5 53t-53 36t-64.5 13.5q-35 0 -65 -13.5t-53 -36t-36 -53t-13 -64.5t13 -64.5t36 -53t53 -36t65 -13.5q34 0 64.5 13.5t53 36t35.5 53t13 64.5zM608 796q0 -48 -18.5 -91t-50.5 -74.5t-74.5 -50t-90.5 -18.5t-91 18.5t-74.5 50t-50 74.5
t-18.5 91t18.5 90.5t50 74.5t74.5 50.5t91 18.5t90.5 -18.5t74.5 -50.5t50.5 -74.5t18.5 -90.5z" />
    <glyph glyph-name="plusminus" unicode="&#xb1;" horiz-adv-x="846" 
d="M101 0v148h644v-148h-644zM507 430v-208h-166v208h-241v159h241v236h166v-236h239v-159h-239z" />
    <glyph glyph-name="twosuperior" unicode="&#xb2;" horiz-adv-x="571" 
d="M75 604q37 36 82 77t84 83t65.5 82.5t26.5 75.5q0 32 -17 54t-59 22q-32 0 -62.5 -15t-62.5 -47l-62 89q50 45 100.5 66t109.5 21q88 0 138.5 -44.5t50.5 -131.5q0 -38 -13.5 -75t-42.5 -77t-74.5 -84t-109.5 -95h242v-110h-377z" />
    <glyph glyph-name="threesuperior" unicode="&#xb3;" horiz-adv-x="579" 
d="M479 673q0 -42 -15 -76t-42.5 -58.5t-67.5 -38t-91 -13.5q-57 0 -103.5 15t-89.5 43l52 95q40 -29 70.5 -38.5t65.5 -9.5q38 0 64.5 20t26.5 64q0 83 -91 83h-73v101h51q49 0 72 18t23 59q0 32 -19 50.5t-61 18.5q-28 0 -58 -10t-62 -36l-53 91q27 17 51 29t47 19.5
t46.5 11t49.5 3.5q85 0 138 -42.5t53 -122.5q0 -42 -18 -75.5t-50 -53.5q43 -16 63.5 -55.5t20.5 -91.5z" />
    <glyph glyph-name="acute" unicode="&#xb4;" horiz-adv-x="433" 
d="M141 917l-99 56l189 177l151 -86z" />
    <glyph glyph-name="mu" unicode="&#xb5;" horiz-adv-x="911" 
d="M607 0h164v817h-181v-492q0 -47 -7 -82.5t-24 -59.5t-44.5 -36.5t-69.5 -12.5q-63 0 -87 31t-30.5 69.5t-6.5 113.5v469h-181v-1155h170v365q14 -24 38 -35.5t71 -11.5q57 0 95.5 23.5t78.5 82.5h5z" />
    <glyph glyph-name="mu" unicode="&#x3bc;" horiz-adv-x="911" 
d="M607 0h164v817h-181v-492q0 -47 -7 -82.5t-24 -59.5t-44.5 -36.5t-69.5 -12.5q-63 0 -87 31t-30.5 69.5t-6.5 113.5v469h-181v-1155h170v365q14 -24 38 -35.5t71 -11.5q57 0 95.5 23.5t78.5 82.5h5z" />
    <glyph glyph-name="paragraph" unicode="&#xb6;" horiz-adv-x="799" 
d="M535 0q-105 0 -184.5 29t-133 80t-80.5 120t-27 149q0 78 27 146t80.5 119t133 80t184.5 29h114v-752h-114z" />
    <glyph glyph-name="periodcentered" unicode="&#xb7;" horiz-adv-x="439" 
d="M339 408q0 -25 -9 -46.5t-25.5 -38t-38.5 -26t-47 -9.5t-47 9.5t-38 26t-25 38t-9 46.5t9 47t25 38t38 25t47 9t47 -9t38.5 -25t25.5 -38t9 -47z" />
    <glyph glyph-name="periodcentered" unicode="&#x2219;" horiz-adv-x="439" 
d="M339 408q0 -25 -9 -46.5t-25.5 -38t-38.5 -26t-47 -9.5t-47 9.5t-38 26t-25 38t-9 46.5t9 47t25 38t38 25t47 9t47 -9t38.5 -25t25.5 -38t9 -47z" />
    <glyph glyph-name="cedilla" unicode="&#xb8;" horiz-adv-x="648" 
d="M487 -202q0 -31 -9 -57.5t-27 -45.5t-44.5 -30t-60.5 -11q-43 0 -77.5 10.5t-60.5 27.5l32 70q29 -17 49 -23.5t46 -6.5q25 0 42 16.5t17 46.5q0 24 -14.5 42.5t-45.5 18.5q-13 0 -26 -2.5t-24 -7.5l-47 34l61 120h73l-39 -80l2 -1q8 2 22 4t22 2q51 0 80 -33t29 -94z
" />
    <glyph glyph-name="onesuperior" unicode="&#xb9;" horiz-adv-x="474" 
d="M334 1104v-609h-131v445l-97 -67l-56 91l183 140h101z" />
    <glyph glyph-name="ordmasculine" unicode="&#xba;" horiz-adv-x="624" 
d="M395 794q0 30 -3.5 55.5t-13 45t-26.5 30.5t-45 11t-45.5 -11t-27 -30.5t-13 -45t-3.5 -55.5q0 -71 20.5 -106.5t68.5 -35.5q51 0 69.5 36.5t18.5 105.5zM514 793q0 -108 -52.5 -171.5t-156.5 -63.5q-51 0 -89 17t-64 48t-39 75t-13 98q0 53 13 96.5t38.5 74t64.5 47.5
t92 17q102 0 154 -64t52 -174z" />
    <glyph glyph-name="guillemotright" unicode="&#xbb;" horiz-adv-x="799" 
d="M227 153l-127 63l133 235l-133 237l127 64l165 -300zM544 153l-127 63l131 235l-131 237l127 64l165 -300z" />
    <glyph glyph-name="onequarter" unicode="&#xbc;" horiz-adv-x="1470" 
d="M383 -58h-120l794 1162h119zM1174 171v257l-145 -257h145zM1293 -58h-132v122h-222l-27 107l231 381h150v-375h77v-113h-77v-122zM404 1104v-609h-131v445l-97 -67l-56 91l183 140h101z" />
    <glyph glyph-name="onehalf" unicode="&#xbd;" horiz-adv-x="1470" 
d="M404 1104v-609h-131v445l-97 -67l-56 91l183 140h101zM383 -58h-120l794 1162h119zM970 51q25 24 54 50.5t57.5 54.5t55 56t47 55.5t32.5 53.5t12 50q0 30 -17 52t-59 22q-62 0 -125 -63l-64 92q51 43 102 65t110 22q88 0 138.5 -45.5t50.5 -131.5q0 -38 -14 -75t-43 -77
t-74.5 -84t-108.5 -95h242v-111h-377z" />
    <glyph glyph-name="threequarters" unicode="&#xbe;" horiz-adv-x="1470" 
d="M506 673q0 -42 -15 -76t-42.5 -58.5t-67.5 -38t-90 -13.5q-58 0 -104.5 15t-89.5 43l53 95q39 -29 70 -38.5t65 -9.5q39 0 65 20t26 64q0 42 -21.5 62.5t-69.5 20.5h-72v101h51q48 0 71 18t23 59q0 32 -19 50.5t-61 18.5q-28 0 -58 -10t-62 -36l-53 91q27 17 51 29
t47.5 19.5t47 11t49.5 3.5q42 0 77 -11t60 -32t39 -51.5t14 -70.5q0 -42 -18 -75.5t-50 -53.5q43 -16 63.5 -55.5t20.5 -91.5zM1112 171v257l-145 -257h145zM1231 -58h-133v122h-221l-27 107l231 381h150v-375h76v-113h-76v-122zM402 -58h-120l794 1162h118z" />
    <glyph glyph-name="questiondown" unicode="&#xbf;" horiz-adv-x="783" 
d="M571 672q0 -45 -32 -72.5t-78 -27.5t-76.5 27.5t-30.5 72.5q0 44 30.5 71t76.5 27t78 -27t32 -71zM693 -170q-36 -24 -69 -41.5t-67.5 -29t-70.5 -16.5t-78 -5q-70 0 -124 19t-90.5 55t-55 87t-18.5 115q0 50 9 88t27 68t46 54t66 47l62 39q16 10 25 17.5t13.5 17.5t5 24
t0.5 37v73h168v-111q0 -34 -3.5 -57t-12.5 -39.5t-25 -30t-41 -28.5l-58 -33q-26 -15 -45 -28.5t-32.5 -30.5t-20 -39t-6.5 -53q0 -66 34 -102.5t102 -36.5q56 0 100 19.5t89 59.5l70 -139v0z" />
    <glyph glyph-name="Agrave" unicode="&#xc0;" horiz-adv-x="976" 
d="M487 829h-8l-121 -445h254zM716 0l-68 228h-324l-69 -228h-195l315 1003h220l321 -1003h-200zM474 1082l-242 147l152 86l188 -177z" />
    <glyph glyph-name="Aacute" unicode="&#xc1;" horiz-adv-x="976" 
d="M487 829h-8l-121 -445h254zM716 0l-68 228h-324l-69 -228h-195l315 1003h220l321 -1003h-200zM483 1082l-99 56l189 177l151 -86z" />
    <glyph glyph-name="Acircumflex" unicode="&#xc2;" horiz-adv-x="976" 
d="M487 829h-8l-121 -445h254zM716 0l-68 228h-324l-69 -228h-195l315 1003h220l321 -1003h-200zM654 1075l-172 97l-175 -97l-61 98l234 132l233 -132z" />
    <glyph glyph-name="Atilde" unicode="&#xc3;" horiz-adv-x="976" 
d="M487 829h-8l-121 -445h254zM716 0l-68 228h-324l-69 -228h-195l315 1003h220l321 -1003h-200zM743 1216q-20 -55 -62.5 -88t-93.5 -33q-30 0 -56 9t-50 19.5t-46 19.5t-44 9q-28 0 -49 -13t-36 -47l-81 60q27 64 62 94t92 30q29 0 55.5 -9t50.5 -20t47 -20t45 -9
q27 0 49.5 14t33.5 46z" />
    <glyph glyph-name="Adieresis" unicode="&#xc4;" horiz-adv-x="976" 
d="M487 829h-8l-121 -445h254zM716 0l-68 228h-324l-69 -228h-195l315 1003h220l321 -1003h-200zM412 1185q0 -21 -7 -38t-20 -30.5t-30 -20.5t-37 -7t-37.5 7t-30.5 20.5t-20.5 30.5t-7.5 38q0 19 7.5 36t20.5 30.5t30.5 21t37.5 7.5t37 -7.5t30 -21t20 -30.5t7 -36z
M740 1185q0 -21 -7 -38t-20 -30.5t-30 -20.5t-37 -7q-41 0 -68.5 28t-27.5 68q0 19 7.5 36t20.5 30.5t30.5 21t37.5 7.5t37 -7.5t30 -21t20 -30.5t7 -36z" />
    <glyph glyph-name="Aring" unicode="&#xc5;" horiz-adv-x="976" 
d="M487 829h-8l-121 -445h254zM716 0l-68 228h-324l-69 -228h-195l315 1003h220l321 -1003h-200zM412 1212q0 -29 20.5 -49t49.5 -20q28 0 48 20t20 49t-20 49t-48 20q-29 0 -49.5 -20t-20.5 -49zM348 1212q0 28 10.5 52.5t28.5 42.5t42.5 28.5t52.5 10.5q27 0 51 -10.5
t42 -28.5t28.5 -42.5t10.5 -52.5q0 -27 -10.5 -51.5t-28.5 -42.5t-42 -28.5t-51 -10.5q-28 0 -52.5 10.5t-42.5 28.5t-28.5 42.5t-10.5 51.5z" />
    <glyph glyph-name="AE" unicode="&#xc6;" horiz-adv-x="1368" 
d="M405 384h294v456h-94zM699 0v228h-347l-97 -228h-195l448 1000h746v-158h-370v-244h334v-159h-334v-285h384v-154h-569z" />
    <glyph glyph-name="Ccedilla" unicode="&#xc7;" horiz-adv-x="930" 
d="M697 -202q0 -31 -9 -57.5t-27 -45.5t-44.5 -30t-60.5 -11q-43 0 -77.5 10.5t-60.5 27.5l31 70q30 -17 50 -23.5t46 -6.5t42.5 16.5t16.5 46.5q0 24 -14.5 42.5t-45.5 18.5q-14 0 -27 -2.5t-24 -7.5l-46 34l45 106q-99 8 -169.5 50.5t-115.5 111.5t-66 159.5t-21 194.5
q0 102 24 195.5t75.5 164t131 112.5t190.5 42q95 0 169.5 -36.5t143.5 -110.5l-112 -127q-45 56 -91.5 86.5t-109.5 30.5q-59 0 -101.5 -25.5t-70.5 -72.5t-41.5 -113t-13.5 -146q0 -65 10.5 -130t36.5 -116.5t70.5 -83.5t112.5 -32q64 0 115 30t104 88l97 -129
q-60 -63 -133.5 -101t-163.5 -42l-21 -66l2 -1q8 2 21.5 4t22.5 2q51 0 80 -33t29 -94z" />
    <glyph glyph-name="Egrave" unicode="&#xc8;" horiz-adv-x="819" 
d="M150 0v1000h556v-158h-371v-244h335v-159h-335v-285h384v-154h-569zM454 1082l-242 147l152 86l188 -177z" />
    <glyph glyph-name="Eacute" unicode="&#xc9;" horiz-adv-x="819" 
d="M150 0v1000h556v-158h-371v-244h335v-159h-335v-285h384v-154h-569zM412 1082l-99 56l189 177l151 -86z" />
    <glyph glyph-name="Ecircumflex" unicode="&#xca;" horiz-adv-x="819" 
d="M150 0v1000h556v-158h-371v-244h335v-159h-335v-285h384v-154h-569zM616 1075l-172 97l-175 -97l-61 98l234 132l233 -132z" />
    <glyph glyph-name="Edieresis" unicode="&#xcb;" horiz-adv-x="819" 
d="M150 0v1000h556v-158h-371v-244h335v-159h-335v-285h384v-154h-569zM359 1185q0 -21 -7 -38t-20 -30.5t-30 -20.5t-37 -7t-37.5 7t-30.5 20.5t-20.5 30.5t-7.5 38q0 19 7.5 36t20.5 30.5t30.5 21t37.5 7.5t37 -7.5t30 -21t20 -30.5t7 -36zM687 1185q0 -21 -7 -38
t-20 -30.5t-30 -20.5t-37 -7q-41 0 -68.5 28t-27.5 68q0 19 7.5 36t20.5 30.5t30.5 21t37.5 7.5t37 -7.5t30 -21t20 -30.5t7 -36z" />
    <glyph glyph-name="Igrave" unicode="&#xcc;" horiz-adv-x="485" 
d="M150 0v1000h185v-1000h-185zM241 1082l-242 147l152 86l188 -177z" />
    <glyph glyph-name="Iacute" unicode="&#xcd;" horiz-adv-x="485" 
d="M150 0v1000h185v-1000h-185zM244 1082l-99 56l189 177l151 -86z" />
    <glyph glyph-name="Icircumflex" unicode="&#xce;" horiz-adv-x="485" 
d="M150 0v1000h185v-1000h-185zM417 1075l-172 97l-175 -97l-61 98l234 132l233 -132z" />
    <glyph glyph-name="Idieresis" unicode="&#xcf;" horiz-adv-x="485" 
d="M150 0v1000h185v-1000h-185zM182 1185q0 -21 -7 -38t-20 -30.5t-30 -20.5t-37 -7t-37.5 7t-30.5 20.5t-20.5 30.5t-7.5 38q0 19 7.5 36t20.5 30.5t30.5 21t37.5 7.5t37 -7.5t30 -21t20 -30.5t7 -36zM510 1185q0 -21 -7 -38t-20 -30.5t-30 -20.5t-37 -7q-41 0 -68.5 28
t-27.5 68q0 19 7.5 36t20.5 30.5t30.5 21t37.5 7.5t37 -7.5t30 -21t20 -30.5t7 -36z" />
    <glyph glyph-name="Eth" unicode="&#xd0;" horiz-adv-x="1007" 
d="M335 439v-288q29 -2 51 -2.5t45 -0.5q67 0 116.5 20.5t81.5 64.5t48 112.5t16 163.5q0 70 -10 134.5t-36.5 113t-73 77.5t-119.5 29q-28 0 -58.5 -1t-60.5 -5v-259h167v-159h-167zM887 505q0 -118 -27 -211.5t-82 -159t-140 -100t-200 -34.5h-288v439h-92v159h92v396
q33 3 70 6.5t75.5 5.5t77 3.5t74.5 1.5q108 0 190.5 -34.5t138 -99.5t83.5 -159t28 -213z" />
    <glyph glyph-name="Ntilde" unicode="&#xd1;" horiz-adv-x="1054" 
d="M739 0l-408 652h-3v-652h-178v1000h180l393 -642h3v642h178v-1000h-165zM804 1216q-20 -55 -62.5 -88t-93.5 -33q-30 0 -56 9t-50 19.5t-46 19.5t-44 9q-28 0 -49 -13t-36 -47l-81 60q27 64 62 94t92 30q29 0 55.5 -9t50.5 -20t47 -20t45 -9q27 0 49.5 14t33.5 46z" />
    <glyph glyph-name="Ograve" unicode="&#xd2;" horiz-adv-x="1093" 
d="M779 501q0 79 -10.5 145.5t-37 114.5t-72 75t-114.5 27t-113.5 -27t-70.5 -75.5t-36.5 -115t-10.5 -144.5q0 -80 10.5 -146.5t37 -115t72 -75.5t115.5 -27q68 0 112.5 27.5t70.5 76t36.5 115.5t10.5 145zM973 501q0 -118 -27 -213.5t-80.5 -163t-133 -104.5t-184.5 -37
q-106 0 -186 37t-134 104.5t-81 163t-27 213.5q0 115 26.5 210t80 163t134 105t187.5 37q106 0 185.5 -37t132.5 -105t80 -163t27 -210zM549 1097l-242 147l152 86l188 -177z" />
    <glyph glyph-name="Oacute" unicode="&#xd3;" horiz-adv-x="1093" 
d="M779 501q0 79 -10.5 145.5t-37 114.5t-72 75t-114.5 27t-113.5 -27t-70.5 -75.5t-36.5 -115t-10.5 -144.5q0 -80 10.5 -146.5t37 -115t72 -75.5t115.5 -27q68 0 112.5 27.5t70.5 76t36.5 115.5t10.5 145zM973 501q0 -118 -27 -213.5t-80.5 -163t-133 -104.5t-184.5 -37
q-106 0 -186 37t-134 104.5t-81 163t-27 213.5q0 115 26.5 210t80 163t134 105t187.5 37q106 0 185.5 -37t132.5 -105t80 -163t27 -210zM556 1097l-99 56l189 177l151 -86z" />
    <glyph glyph-name="Ocircumflex" unicode="&#xd4;" horiz-adv-x="1093" 
d="M779 501q0 79 -10.5 145.5t-37 114.5t-72 75t-114.5 27t-113.5 -27t-70.5 -75.5t-36.5 -115t-10.5 -144.5q0 -80 10.5 -146.5t37 -115t72 -75.5t115.5 -27q68 0 112.5 27.5t70.5 76t36.5 115.5t10.5 145zM973 501q0 -118 -27 -213.5t-80.5 -163t-133 -104.5t-184.5 -37
q-106 0 -186 37t-134 104.5t-81 163t-27 213.5q0 115 26.5 210t80 163t134 105t187.5 37q106 0 185.5 -37t132.5 -105t80 -163t27 -210zM723 1090l-172 97l-175 -97l-61 98l234 132l233 -132z" />
    <glyph glyph-name="Otilde" unicode="&#xd5;" horiz-adv-x="1093" 
d="M779 501q0 79 -10.5 145.5t-37 114.5t-72 75t-114.5 27t-113.5 -27t-70.5 -75.5t-36.5 -115t-10.5 -144.5q0 -80 10.5 -146.5t37 -115t72 -75.5t115.5 -27q68 0 112.5 27.5t70.5 76t36.5 115.5t10.5 145zM973 501q0 -118 -27 -213.5t-80.5 -163t-133 -104.5t-184.5 -37
q-106 0 -186 37t-134 104.5t-81 163t-27 213.5q0 115 26.5 210t80 163t134 105t187.5 37q106 0 185.5 -37t132.5 -105t80 -163t27 -210zM817 1231q-20 -55 -62.5 -88t-93.5 -33q-30 0 -56 9t-50 19.5t-46 19.5t-44 9q-28 0 -49 -13t-36 -47l-81 60q27 64 62 94t92 30
q29 0 55.5 -9t50.5 -20t47 -20t45 -9q27 0 49.5 14t33.5 46z" />
    <glyph glyph-name="Odieresis" unicode="&#xd6;" horiz-adv-x="1093" 
d="M779 501q0 79 -10.5 145.5t-37 114.5t-72 75t-114.5 27t-113.5 -27t-70.5 -75.5t-36.5 -115t-10.5 -144.5q0 -80 10.5 -146.5t37 -115t72 -75.5t115.5 -27q68 0 112.5 27.5t70.5 76t36.5 115.5t10.5 145zM973 501q0 -118 -27 -213.5t-80.5 -163t-133 -104.5t-184.5 -37
q-106 0 -186 37t-134 104.5t-81 163t-27 213.5q0 115 26.5 210t80 163t134 105t187.5 37q106 0 185.5 -37t132.5 -105t80 -163t27 -210zM486 1200q0 -21 -7 -38t-20 -30.5t-30 -20.5t-37 -7t-37.5 7t-30.5 20.5t-20.5 30.5t-7.5 38q0 19 7.5 36t20.5 30.5t30.5 21t37.5 7.5
t37 -7.5t30 -21t20 -30.5t7 -36zM814 1200q0 -21 -7 -38t-20 -30.5t-30 -20.5t-37 -7q-41 0 -68.5 28t-27.5 68q0 19 7.5 36t20.5 30.5t30.5 21t37.5 7.5t37 -7.5t30 -21t20 -30.5t7 -36z" />
    <glyph glyph-name="multiply" unicode="&#xd7;" horiz-adv-x="903" 
d="M739 580l-183 -179l183 -181l-113 -112l-179 183l-180 -183l-113 112l183 181l-183 179l113 112l180 -183l179 183z" />
    <glyph glyph-name="Oslash" unicode="&#xd8;" horiz-adv-x="1093" 
d="M779 501q0 73 -9 136l-385 -433q27 -33 67 -50t97 -17q68 0 112.5 27.5t70.5 76t36.5 115.5t10.5 145zM314 501q0 -42 2.5 -81t8.5 -72l390 439q-27 36 -69 56t-101 20q-69 0 -113.5 -27t-70.5 -75.5t-36.5 -115t-10.5 -144.5zM973 501q0 -118 -27 -213.5t-80.5 -163
t-133 -104.5t-184.5 -37q-87 0 -155 24.5t-120 69.5l-82 -91l-100 98l93 106q-64 124 -64 311q0 115 26.5 210t80 163t134 105t187.5 37q89 0 158.5 -26t120.5 -74l87 97l107 -93l-108 -121q29 -63 44.5 -137t15.5 -161z" />
    <glyph glyph-name="Ugrave" unicode="&#xd9;" horiz-adv-x="1010" 
d="M860 406q0 -101 -17.5 -179.5t-58.5 -132.5t-109.5 -82.5t-170.5 -28.5t-170 28t-109 82t-58 132.5t-17 180.5v594h185v-599q0 -59 6 -106.5t24 -82t51 -53t88 -18.5t88.5 19t52 53.5t24.5 82t6 105.5v599h185v-594v0zM502 1082l-242 147l152 86l188 -177z" />
    <glyph glyph-name="Uacute" unicode="&#xda;" horiz-adv-x="1010" 
d="M860 406q0 -101 -17.5 -179.5t-58.5 -132.5t-109.5 -82.5t-170.5 -28.5t-170 28t-109 82t-58 132.5t-17 180.5v594h185v-599q0 -59 6 -106.5t24 -82t51 -53t88 -18.5t88.5 19t52 53.5t24.5 82t6 105.5v599h185v-594v0zM506 1082l-99 56l189 177l151 -86z" />
    <glyph glyph-name="Ucircumflex" unicode="&#xdb;" horiz-adv-x="1010" 
d="M860 406q0 -101 -17.5 -179.5t-58.5 -132.5t-109.5 -82.5t-170.5 -28.5t-170 28t-109 82t-58 132.5t-17 180.5v594h185v-599q0 -59 6 -106.5t24 -82t51 -53t88 -18.5t88.5 19t52 53.5t24.5 82t6 105.5v599h185v-594v0zM680 1075l-172 97l-175 -97l-61 98l234 132
l233 -132z" />
    <glyph glyph-name="Udieresis" unicode="&#xdc;" horiz-adv-x="1010" 
d="M860 406q0 -101 -17.5 -179.5t-58.5 -132.5t-109.5 -82.5t-170.5 -28.5t-170 28t-109 82t-58 132.5t-17 180.5v594h185v-599q0 -59 6 -106.5t24 -82t51 -53t88 -18.5t88.5 19t52 53.5t24.5 82t6 105.5v599h185v-594v0zM432 1185q0 -21 -7 -38t-20 -30.5t-30 -20.5t-37 -7
t-37.5 7t-30.5 20.5t-20.5 30.5t-7.5 38q0 19 7.5 36t20.5 30.5t30.5 21t37.5 7.5t37 -7.5t30 -21t20 -30.5t7 -36zM760 1185q0 -21 -7 -38t-20 -30.5t-30 -20.5t-37 -7q-41 0 -68.5 28t-27.5 68q0 19 7.5 36t20.5 30.5t30.5 21t37.5 7.5t37 -7.5t30 -21t20 -30.5t7 -36z
" />
    <glyph glyph-name="Yacute" unicode="&#xdd;" horiz-adv-x="872" 
d="M531 388v-388h-185v381l-306 619h205l195 -452l195 452h197zM448 1082l-99 56l189 177l151 -86z" />
    <glyph glyph-name="Thorn" unicode="&#xde;" horiz-adv-x="909" 
d="M635 550q0 47 -9 79.5t-29 52.5t-52.5 29t-80.5 9q-27 0 -62 -1t-68 -4v-340h131q42 0 74 7t53.5 26.5t32 53.5t10.5 88zM819 549q0 -77 -19 -137t-59.5 -101.5t-103 -63.5t-148.5 -22h-155v-225h-184v1000h182v-133q29 2 62 4t61 2q81 0 148 -16.5t115 -54t74.5 -100
t26.5 -153.5z" />
    <glyph glyph-name="germandbls" unicode="&#xdf;" horiz-adv-x="914" 
d="M824 287q0 -75 -21 -129t-59 -89.5t-93 -52t-122 -16.5h-74v141q40 0 73 5t57 20.5t37 44.5t13 77q0 102 -67.5 153t-132.5 68l-17 110q56 55 94 103.5t38 123.5q0 62 -24 90t-76 28t-74 -28.5t-22 -103.5v-832h-181v658h-103v147h103v21q0 147 68 209t208 62
q134 0 200.5 -59t66.5 -181q0 -86 -36.5 -142.5t-86.5 -101.5v-3q120 -57 175.5 -131.5t55.5 -191.5z" />
    <glyph glyph-name="agrave" unicode="&#xe0;" horiz-adv-x="887" 
d="M566 415q-50 0 -100 -7t-90 -26.5t-65 -54t-25 -89.5t25.5 -92.5t80.5 -37.5q94 0 174 78v229zM685 -12q-40 10 -66 31.5t-36 63.5h-3q-50 -48 -110 -74.5t-132 -26.5q-55 0 -97.5 18t-71.5 51t-44 78.5t-15 100.5q0 61 19.5 107t53.5 79t79 54.5t96 34.5t104.5 18
t105.5 5v30q0 33 -4.5 58t-16.5 42t-33.5 26t-55.5 9q-75 0 -140.5 -20.5t-125.5 -54.5l-50 134q81 40 158 60.5t166 20.5q81 0 135.5 -19t86.5 -56t45.5 -92t13.5 -128v-344q0 -24 2 -40t7.5 -28t15.5 -21t25 -19zM462 917l-242 147l152 86l188 -177z" />
    <glyph glyph-name="aacute" unicode="&#xe1;" horiz-adv-x="887" 
d="M566 415q-50 0 -100 -7t-90 -26.5t-65 -54t-25 -89.5t25.5 -92.5t80.5 -37.5q94 0 174 78v229zM685 -12q-40 10 -66 31.5t-36 63.5h-3q-50 -48 -110 -74.5t-132 -26.5q-55 0 -97.5 18t-71.5 51t-44 78.5t-15 100.5q0 61 19.5 107t53.5 79t79 54.5t96 34.5t104.5 18
t105.5 5v30q0 33 -4.5 58t-16.5 42t-33.5 26t-55.5 9q-75 0 -140.5 -20.5t-125.5 -54.5l-50 134q81 40 158 60.5t166 20.5q81 0 135.5 -19t86.5 -56t45.5 -92t13.5 -128v-344q0 -24 2 -40t7.5 -28t15.5 -21t25 -19zM440 917l-99 56l189 177l151 -86z" />
    <glyph glyph-name="acircumflex" unicode="&#xe2;" horiz-adv-x="887" 
d="M566 415q-50 0 -100 -7t-90 -26.5t-65 -54t-25 -89.5t25.5 -92.5t80.5 -37.5q94 0 174 78v229zM685 -12q-40 10 -66 31.5t-36 63.5h-3q-50 -48 -110 -74.5t-132 -26.5q-55 0 -97.5 18t-71.5 51t-44 78.5t-15 100.5q0 61 19.5 107t53.5 79t79 54.5t96 34.5t104.5 18
t105.5 5v30q0 33 -4.5 58t-16.5 42t-33.5 26t-55.5 9q-75 0 -140.5 -20.5t-125.5 -54.5l-50 134q81 40 158 60.5t166 20.5q81 0 135.5 -19t86.5 -56t45.5 -92t13.5 -128v-344q0 -24 2 -40t7.5 -28t15.5 -21t25 -19zM617 910l-172 97l-175 -97l-61 98l234 132l233 -132z" />
    <glyph glyph-name="atilde" unicode="&#xe3;" horiz-adv-x="887" 
d="M566 415q-50 0 -100 -7t-90 -26.5t-65 -54t-25 -89.5t25.5 -92.5t80.5 -37.5q94 0 174 78v229zM685 -12q-40 10 -66 31.5t-36 63.5h-3q-50 -48 -110 -74.5t-132 -26.5q-55 0 -97.5 18t-71.5 51t-44 78.5t-15 100.5q0 61 19.5 107t53.5 79t79 54.5t96 34.5t104.5 18
t105.5 5v30q0 33 -4.5 58t-16.5 42t-33.5 26t-55.5 9q-75 0 -140.5 -20.5t-125.5 -54.5l-50 134q81 40 158 60.5t166 20.5q81 0 135.5 -19t86.5 -56t45.5 -92t13.5 -128v-344q0 -24 2 -40t7.5 -28t15.5 -21t25 -19zM691 1051q-20 -55 -62.5 -88t-93.5 -33q-30 0 -56 9
t-50 19.5t-46 19.5t-44 9q-28 0 -49 -13t-36 -47l-81 60q27 64 62 94t92 30q29 0 55.5 -9t50.5 -20t47 -20t45 -9q27 0 49.5 14t33.5 46z" />
    <glyph glyph-name="adieresis" unicode="&#xe4;" horiz-adv-x="887" 
d="M566 415q-50 0 -100 -7t-90 -26.5t-65 -54t-25 -89.5t25.5 -92.5t80.5 -37.5q94 0 174 78v229zM685 -12q-40 10 -66 31.5t-36 63.5h-3q-50 -48 -110 -74.5t-132 -26.5q-55 0 -97.5 18t-71.5 51t-44 78.5t-15 100.5q0 61 19.5 107t53.5 79t79 54.5t96 34.5t104.5 18
t105.5 5v30q0 33 -4.5 58t-16.5 42t-33.5 26t-55.5 9q-75 0 -140.5 -20.5t-125.5 -54.5l-50 134q81 40 158 60.5t166 20.5q81 0 135.5 -19t86.5 -56t45.5 -92t13.5 -128v-344q0 -24 2 -40t7.5 -28t15.5 -21t25 -19zM378 1020q0 -21 -7 -38t-20 -30.5t-30 -20.5t-37 -7
t-37.5 7t-30.5 20.5t-20.5 30.5t-7.5 38q0 19 7.5 36t20.5 30.5t30.5 21t37.5 7.5t37 -7.5t30 -21t20 -30.5t7 -36zM706 1020q0 -21 -7 -38t-20 -30.5t-30 -20.5t-37 -7q-41 0 -68.5 28t-27.5 68q0 19 7.5 36t20.5 30.5t30.5 21t37.5 7.5t37 -7.5t30 -21t20 -30.5t7 -36z
" />
    <glyph glyph-name="aring" unicode="&#xe5;" horiz-adv-x="887" 
d="M566 415q-50 0 -100 -7t-90 -26.5t-65 -54t-25 -89.5t25.5 -92.5t80.5 -37.5q94 0 174 78v229zM685 -12q-40 10 -66 31.5t-36 63.5h-3q-50 -48 -110 -74.5t-132 -26.5q-55 0 -97.5 18t-71.5 51t-44 78.5t-15 100.5q0 61 19.5 107t53.5 79t79 54.5t96 34.5t104.5 18
t105.5 5v30q0 33 -4.5 58t-16.5 42t-33.5 26t-55.5 9q-75 0 -140.5 -20.5t-125.5 -54.5l-50 134q81 40 158 60.5t166 20.5q81 0 135.5 -19t86.5 -56t45.5 -92t13.5 -128v-344q0 -24 2 -40t7.5 -28t15.5 -21t25 -19zM372 1032q0 -29 20.5 -49t49.5 -20q28 0 48 20t20 49
t-20 49t-48 20q-29 0 -49.5 -20t-20.5 -49zM308 1032q0 28 10.5 52.5t28.5 42.5t42.5 28.5t52.5 10.5q27 0 51 -10.5t42 -28.5t28.5 -42.5t10.5 -52.5q0 -27 -10.5 -51.5t-28.5 -42.5t-42 -28.5t-51 -10.5q-28 0 -52.5 10.5t-42.5 28.5t-28.5 42.5t-10.5 51.5z" />
    <glyph glyph-name="ae" unicode="&#xe6;" horiz-adv-x="1367" 
d="M566 414q-141 0 -210 -43t-69 -134q0 -58 27 -94t77 -36q46 0 87.5 19t87.5 61v227zM1087 475q-2 45 -10 85.5t-26.5 70.5t-49 47.5t-76.5 17.5q-80 0 -126 -55t-47 -166h335v0zM1257 409q0 -11 -0.5 -27.5t-2.5 -35.5h-501q2 -109 50.5 -164t140.5 -55q55 0 106 18
t103 53l55 -134q-125 -82 -271 -82q-97 0 -167 34.5t-115 98.5q-57 -67 -133.5 -100t-164.5 -33q-61 0 -107.5 17.5t-77.5 50t-46.5 78.5t-15.5 102q0 82 35.5 139.5t97 93.5t145.5 52t180 16v24q0 31 -2.5 56t-13.5 42.5t-33.5 26.5t-61.5 9q-118 0 -267 -76l-49 139
q81 41 160 62t167 21q74 0 133 -20.5t93 -69.5q43 45 102.5 68t128.5 23q77 0 138.5 -26.5t104.5 -79.5t66 -133t23 -188z" />
    <glyph glyph-name="ccedilla" unicode="&#xe7;" horiz-adv-x="800" 
d="M617 -204q0 -63 -36.5 -102.5t-105.5 -39.5q-43 0 -77 10.5t-60 27.5l31 70q29 -17 49.5 -23.5t46.5 -6.5q25 0 41.5 16.5t16.5 46.5q0 24 -15 42.5t-45 18.5q-28 0 -51 -10l-47 34l44 106q-80 10 -136.5 47t-92.5 94t-53 129t-17 152q0 87 21.5 164.5t66 135t113.5 91.5
t164 34q70 0 132 -22.5t120 -64.5l-72 -131q-40 36 -80 55t-96 19q-57 0 -93 -26t-56.5 -66.5t-28 -89.5t-7.5 -96q0 -48 8 -99t29 -92t57.5 -67.5t93.5 -26.5q56 0 101.5 19.5t89.5 54.5l57 -133q-59 -40 -119.5 -61t-129.5 -24l-19 -62l1 -1q8 2 21.5 4t21.5 2
q51 0 81 -34t30 -95z" />
    <glyph glyph-name="egrave" unicode="&#xe8;" horiz-adv-x="902" 
d="M622 471q0 45 -7.5 86t-25 72t-47 49t-75.5 18q-82 0 -128 -58t-46 -167h329v0zM792 412q0 -13 -0.5 -28.5t-2.5 -34.5h-495q0 -109 46.5 -167.5t142.5 -58.5q57 0 105.5 16.5t104.5 54.5l53 -133q-66 -42 -131 -60.5t-141 -18.5q-88 0 -156 29.5t-114 85t-70 134
t-24 177.5q0 106 26.5 186t73.5 133t113 79.5t144 26.5q160 0 242.5 -107t82.5 -314zM481 917l-242 147l152 86l188 -177z" />
    <glyph glyph-name="eacute" unicode="&#xe9;" horiz-adv-x="902" 
d="M622 471q0 45 -7.5 86t-25 72t-47 49t-75.5 18q-82 0 -128 -58t-46 -167h329v0zM792 412q0 -13 -0.5 -28.5t-2.5 -34.5h-495q0 -109 46.5 -167.5t142.5 -58.5q57 0 105.5 16.5t104.5 54.5l53 -133q-66 -42 -131 -60.5t-141 -18.5q-88 0 -156 29.5t-114 85t-70 134
t-24 177.5q0 106 26.5 186t73.5 133t113 79.5t144 26.5q160 0 242.5 -107t82.5 -314zM469 917l-99 56l189 177l151 -86z" />
    <glyph glyph-name="ecircumflex" unicode="&#xea;" horiz-adv-x="902" 
d="M622 471q0 45 -7.5 86t-25 72t-47 49t-75.5 18q-82 0 -128 -58t-46 -167h329v0zM792 412q0 -13 -0.5 -28.5t-2.5 -34.5h-495q0 -109 46.5 -167.5t142.5 -58.5q57 0 105.5 16.5t104.5 54.5l53 -133q-66 -42 -131 -60.5t-141 -18.5q-88 0 -156 29.5t-114 85t-70 134
t-24 177.5q0 106 26.5 186t73.5 133t113 79.5t144 26.5q160 0 242.5 -107t82.5 -314zM643 910l-172 97l-175 -97l-61 98l234 132l233 -132z" />
    <glyph glyph-name="edieresis" unicode="&#xeb;" horiz-adv-x="902" 
d="M622 471q0 45 -7.5 86t-25 72t-47 49t-75.5 18q-82 0 -128 -58t-46 -167h329v0zM792 412q0 -13 -0.5 -28.5t-2.5 -34.5h-495q0 -109 46.5 -167.5t142.5 -58.5q57 0 105.5 16.5t104.5 54.5l53 -133q-66 -42 -131 -60.5t-141 -18.5q-88 0 -156 29.5t-114 85t-70 134
t-24 177.5q0 106 26.5 186t73.5 133t113 79.5t144 26.5q160 0 242.5 -107t82.5 -314zM401 1020q0 -21 -7 -38t-20 -30.5t-30 -20.5t-37 -7t-37.5 7t-30.5 20.5t-20.5 30.5t-7.5 38q0 19 7.5 36t20.5 30.5t30.5 21t37.5 7.5t37 -7.5t30 -21t20 -30.5t7 -36zM729 1020
q0 -21 -7 -38t-20 -30.5t-30 -20.5t-37 -7q-41 0 -68.5 28t-27.5 68q0 19 7.5 36t20.5 30.5t30.5 21t37.5 7.5t37 -7.5t30 -21t20 -30.5t7 -36z" />
    <glyph glyph-name="igrave" unicode="&#xec;" horiz-adv-x="462" 
d="M140 0v817h182v-817h-182zM238 917l-242 147l152 86l188 -177z" />
    <glyph glyph-name="iacute" unicode="&#xed;" horiz-adv-x="462" 
d="M140 0v817h182v-817h-182zM242 917l-99 56l189 177l151 -86z" />
    <glyph glyph-name="icircumflex" unicode="&#xee;" horiz-adv-x="462" 
d="M140 0v817h182v-817h-182zM410 910l-172 97l-175 -97l-61 98l234 132l233 -132z" />
    <glyph glyph-name="idieresis" unicode="&#xef;" horiz-adv-x="462" 
d="M140 0v817h182v-817h-182zM168 1020q0 -21 -7 -38t-20 -30.5t-30 -20.5t-37 -7t-37.5 7t-30.5 20.5t-20.5 30.5t-7.5 38q0 19 7.5 36t20.5 30.5t30.5 21t37.5 7.5t37 -7.5t30 -21t20 -30.5t7 -36zM496 1020q0 -21 -7 -38t-20 -30.5t-30 -20.5t-37 -7q-41 0 -68.5 28
t-27.5 68q0 19 7.5 36t20.5 30.5t30.5 21t37.5 7.5t37 -7.5t30 -21t20 -30.5t7 -36z" />
    <glyph glyph-name="eth" unicode="&#xf0;" 
d="M640 408q0 55 -6.5 105.5t-25 88.5t-52.5 61t-88 23q-55 0 -89 -22.5t-53 -61t-25.5 -89t-6.5 -105.5q0 -63 7.5 -114.5t27 -89t53.5 -58t86 -20.5t85 20.5t52.5 58t27 89t7.5 114.5zM670 981q35 -66 63.5 -131.5t48.5 -134.5t31 -144.5t11 -162.5q0 -96 -21.5 -174.5
t-66 -134.5t-111.5 -86.5t-157 -30.5t-157.5 30.5t-112 86t-66.5 134.5t-22 175q0 94 22 172t64.5 134t104 87.5t140.5 31.5q21 0 43.5 -4t45 -13t43 -23.5t37.5 -36.5l6 4q-11 30 -30.5 74t-39.5 90l-80 -43l-47 99l79 39q-12 24 -24 47.5t-22 40.5l124 56q11 -22 22.5 -43
t21.5 -43l120 64l49 -101z" />
    <glyph glyph-name="ntilde" unicode="&#xf1;" horiz-adv-x="920" 
d="M599 0v465q0 45 -2 84.5t-14 68.5t-38 45.5t-73 16.5q-83 0 -117 -48.5t-34 -136.5v-495h-181v817h159l13 -87h3q35 58 90 80.5t123 22.5q77 0 126 -24.5t77 -69.5t38.5 -109.5t10.5 -145.5v-484h-181zM744 1051q-20 -55 -62.5 -88t-93.5 -33q-30 0 -56 9t-50 19.5
t-46 19.5t-44 9q-28 0 -49 -13t-36 -47l-81 60q27 64 62 94t92 30q29 0 55.5 -9t50.5 -20t47 -20t45 -9q27 0 49.5 14t33.5 46z" />
    <glyph glyph-name="ograve" unicode="&#xf2;" 
d="M640 408q0 55 -6.5 105.5t-25 88.5t-52.5 61t-88 23q-55 0 -89 -22.5t-53 -61t-25.5 -89t-6.5 -105.5q0 -63 7.5 -114.5t27 -89t53.5 -58t86 -20.5t85 20.5t52.5 58t27 89t7.5 114.5zM824 408q0 -96 -21.5 -174.5t-66 -134.5t-111.5 -86.5t-157 -30.5t-157.5 30.5
t-112 86t-66.5 134.5t-22 175q0 94 21.5 172t65.5 134t111.5 87.5t159.5 31.5q90 0 156.5 -30t111 -85.5t66.5 -134t22 -175.5zM471 917l-242 147l152 86l188 -177z" />
    <glyph glyph-name="oacute" unicode="&#xf3;" 
d="M640 408q0 55 -6.5 105.5t-25 88.5t-52.5 61t-88 23q-55 0 -89 -22.5t-53 -61t-25.5 -89t-6.5 -105.5q0 -63 7.5 -114.5t27 -89t53.5 -58t86 -20.5t85 20.5t52.5 58t27 89t7.5 114.5zM824 408q0 -96 -21.5 -174.5t-66 -134.5t-111.5 -86.5t-157 -30.5t-157.5 30.5
t-112 86t-66.5 134.5t-22 175q0 94 21.5 172t65.5 134t111.5 87.5t159.5 31.5q90 0 156.5 -30t111 -85.5t66.5 -134t22 -175.5zM460 917l-99 56l189 177l151 -86z" />
    <glyph glyph-name="ocircumflex" unicode="&#xf4;" 
d="M640 408q0 55 -6.5 105.5t-25 88.5t-52.5 61t-88 23q-55 0 -89 -22.5t-53 -61t-25.5 -89t-6.5 -105.5q0 -63 7.5 -114.5t27 -89t53.5 -58t86 -20.5t85 20.5t52.5 58t27 89t7.5 114.5zM824 408q0 -96 -21.5 -174.5t-66 -134.5t-111.5 -86.5t-157 -30.5t-157.5 30.5
t-112 86t-66.5 134.5t-22 175q0 94 21.5 172t65.5 134t111.5 87.5t159.5 31.5q90 0 156.5 -30t111 -85.5t66.5 -134t22 -175.5zM640 910l-172 97l-175 -97l-61 98l234 132l233 -132z" />
    <glyph glyph-name="otilde" unicode="&#xf5;" 
d="M640 408q0 55 -6.5 105.5t-25 88.5t-52.5 61t-88 23q-55 0 -89 -22.5t-53 -61t-25.5 -89t-6.5 -105.5q0 -63 7.5 -114.5t27 -89t53.5 -58t86 -20.5t85 20.5t52.5 58t27 89t7.5 114.5zM824 408q0 -96 -21.5 -174.5t-66 -134.5t-111.5 -86.5t-157 -30.5t-157.5 30.5
t-112 86t-66.5 134.5t-22 175q0 94 21.5 172t65.5 134t111.5 87.5t159.5 31.5q90 0 156.5 -30t111 -85.5t66.5 -134t22 -175.5zM744 1051q-20 -55 -62.5 -88t-93.5 -33q-30 0 -56 9t-50 19.5t-46 19.5t-44 9q-28 0 -49 -13t-36 -47l-81 60q27 64 62 94t92 30q29 0 55.5 -9
t50.5 -20t47 -20t45 -9q27 0 49.5 14t33.5 46z" />
    <glyph glyph-name="odieresis" unicode="&#xf6;" 
d="M640 408q0 55 -6.5 105.5t-25 88.5t-52.5 61t-88 23q-55 0 -89 -22.5t-53 -61t-25.5 -89t-6.5 -105.5q0 -63 7.5 -114.5t27 -89t53.5 -58t86 -20.5t85 20.5t52.5 58t27 89t7.5 114.5zM824 408q0 -96 -21.5 -174.5t-66 -134.5t-111.5 -86.5t-157 -30.5t-157.5 30.5
t-112 86t-66.5 134.5t-22 175q0 94 21.5 172t65.5 134t111.5 87.5t159.5 31.5q90 0 156.5 -30t111 -85.5t66.5 -134t22 -175.5zM404 1020q0 -21 -7 -38t-20 -30.5t-30 -20.5t-37 -7t-37.5 7t-30.5 20.5t-20.5 30.5t-7.5 38q0 19 7.5 36t20.5 30.5t30.5 21t37.5 7.5t37 -7.5
t30 -21t20 -30.5t7 -36zM732 1020q0 -21 -7 -38t-20 -30.5t-30 -20.5t-37 -7q-41 0 -68.5 28t-27.5 68q0 19 7.5 36t20.5 30.5t30.5 21t37.5 7.5t37 -7.5t30 -21t20 -30.5t7 -36z" />
    <glyph glyph-name="oslash" unicode="&#xf8;" 
d="M294 408q0 -28 1 -55t4 -51l289 333q-21 24 -49.5 37.5t-70.5 13.5q-55 0 -89 -22.5t-53 -61t-25.5 -89t-6.5 -105.5zM640 408q0 28 -2 54.5t-6 52.5l-289 -334q21 -27 50.5 -41t74.5 -14q52 0 85 20.5t52.5 58t27 89t7.5 114.5zM824 408q0 -96 -21.5 -174.5t-66 -134.5
t-111.5 -86.5t-157 -30.5q-73 0 -130.5 19.5t-100.5 56.5l-67 -78l-83 77l78 90q-29 53 -42 118t-13 143q0 94 21.5 172t65.5 134t111.5 87.5t159.5 31.5q71 0 127 -19t99 -54l63 72l89 -70l-79 -92q28 -52 42.5 -118t14.5 -144z" />
    <glyph glyph-name="ugrave" unicode="&#xf9;" horiz-adv-x="911" 
d="M607 0l-9 86h-5q-35 -51 -86.5 -78.5t-125.5 -27.5q-63 0 -108.5 17.5t-75 55.5t-43.5 97.5t-14 144.5v522h181v-469q0 -46 3 -85.5t15 -68t37 -44.5t69 -16q42 0 69.5 12.5t44.5 36.5t24 59.5t7 82.5v492h181v-817h-164zM472 917l-242 147l152 86l188 -177z" />
    <glyph glyph-name="uacute" unicode="&#xfa;" horiz-adv-x="911" 
d="M607 0l-9 86h-5q-35 -51 -86.5 -78.5t-125.5 -27.5q-63 0 -108.5 17.5t-75 55.5t-43.5 97.5t-14 144.5v522h181v-469q0 -46 3 -85.5t15 -68t37 -44.5t69 -16q42 0 69.5 12.5t44.5 36.5t24 59.5t7 82.5v492h181v-817h-164zM449 917l-99 56l189 177l151 -86z" />
    <glyph glyph-name="ucircumflex" unicode="&#xfb;" horiz-adv-x="911" 
d="M607 0l-9 86h-5q-35 -51 -86.5 -78.5t-125.5 -27.5q-63 0 -108.5 17.5t-75 55.5t-43.5 97.5t-14 144.5v522h181v-469q0 -46 3 -85.5t15 -68t37 -44.5t69 -16q42 0 69.5 12.5t44.5 36.5t24 59.5t7 82.5v492h181v-817h-164zM643 910l-172 97l-175 -97l-61 98l234 132
l233 -132z" />
    <glyph glyph-name="udieresis" unicode="&#xfc;" horiz-adv-x="911" 
d="M607 0l-9 86h-5q-35 -51 -86.5 -78.5t-125.5 -27.5q-63 0 -108.5 17.5t-75 55.5t-43.5 97.5t-14 144.5v522h181v-469q0 -46 3 -85.5t15 -68t37 -44.5t69 -16q42 0 69.5 12.5t44.5 36.5t24 59.5t7 82.5v492h181v-817h-164zM383 1020q0 -21 -7 -38t-20 -30.5t-30 -20.5
t-37 -7t-37.5 7t-30.5 20.5t-20.5 30.5t-7.5 38q0 19 7.5 36t20.5 30.5t30.5 21t37.5 7.5t37 -7.5t30 -21t20 -30.5t7 -36zM711 1020q0 -21 -7 -38t-20 -30.5t-30 -20.5t-37 -7q-41 0 -68.5 28t-27.5 68q0 19 7.5 36t20.5 30.5t30.5 21t37.5 7.5t37 -7.5t30 -21t20 -30.5
t7 -36z" />
    <glyph glyph-name="yacute" unicode="&#xfd;" horiz-adv-x="832" 
d="M528 -33q-24 -73 -48 -126.5t-55 -89t-73 -53t-102 -17.5q-27 0 -52 1.5t-57 5.5v154q14 -2 34 -4t42 -2q25 0 42.5 4.5t30.5 15.5t23 31t20 52l17 55l-267 823h194l165 -630h3l161 630h189zM443 917l-99 56l189 177l151 -86z" />
    <glyph glyph-name="thorn" unicode="&#xfe;" horiz-adv-x="919" 
d="M625 409q0 29 -1 61t-6 63.5t-15 60t-27.5 50t-44.5 34.5t-65 13q-39 0 -67 -13t-46 -36.5t-25 -55t-7 -67.5v-201q0 -38 6 -73t22.5 -63t45 -44.5t71.5 -16.5q36 0 62 14t43.5 37t28 52.5t16 61.5t7.5 64t2 59zM809 412q0 -73 -14.5 -149t-49 -138.5t-92.5 -102.5
t-145 -40q-63 0 -106.5 22t-77.5 73h-3v-385h-181v1393h181v-355h3q34 55 77.5 79t109.5 24q87 0 144.5 -38.5t91.5 -99.5t48 -136t14 -147z" />
    <glyph glyph-name="ydieresis" unicode="&#xff;" horiz-adv-x="832" 
d="M528 -33q-24 -73 -48 -126.5t-55 -89t-73 -53t-102 -17.5q-27 0 -52 1.5t-57 5.5v154q14 -2 34 -4t42 -2q25 0 42.5 4.5t30.5 15.5t23 31t20 52l17 55l-267 823h194l165 -630h3l161 630h189zM375 1020q0 -21 -7 -38t-20 -30.5t-30 -20.5t-37 -7t-37.5 7t-30.5 20.5
t-20.5 30.5t-7.5 38q0 19 7.5 36t20.5 30.5t30.5 21t37.5 7.5t37 -7.5t30 -21t20 -30.5t7 -36zM703 1020q0 -21 -7 -38t-20 -30.5t-30 -20.5t-37 -7q-41 0 -68.5 28t-27.5 68q0 19 7.5 36t20.5 30.5t30.5 21t37.5 7.5t37 -7.5t30 -21t20 -30.5t7 -36z" />
    <glyph glyph-name="Amacron" unicode="&#x100;" horiz-adv-x="976" 
d="M487 829h-8l-121 -445h254zM716 0l-68 228h-324l-69 -228h-195l315 1003h220l321 -1003h-200zM264 1124v126h430v-126h-430z" />
    <glyph glyph-name="amacron" unicode="&#x101;" horiz-adv-x="887" 
d="M566 415q-50 0 -100 -7t-90 -26.5t-65 -54t-25 -89.5t25.5 -92.5t80.5 -37.5q94 0 174 78v229zM685 -12q-40 10 -66 31.5t-36 63.5h-3q-50 -48 -110 -74.5t-132 -26.5q-55 0 -97.5 18t-71.5 51t-44 78.5t-15 100.5q0 61 19.5 107t53.5 79t79 54.5t96 34.5t104.5 18
t105.5 5v30q0 33 -4.5 58t-16.5 42t-33.5 26t-55.5 9q-75 0 -140.5 -20.5t-125.5 -54.5l-50 134q81 40 158 60.5t166 20.5q81 0 135.5 -19t86.5 -56t45.5 -92t13.5 -128v-344q0 -24 2 -40t7.5 -28t15.5 -21t25 -19zM228 959v126h430v-126h-430z" />
    <glyph glyph-name="Abreve" unicode="&#x102;" horiz-adv-x="976" 
d="M487 829h-8l-121 -445h254zM716 0l-68 228h-324l-69 -228h-195l315 1003h220l321 -1003h-200zM715 1287q-2 -81 -66 -139.5t-165 -58.5q-103 1 -164 59t-63 139h114q4 -28 27.5 -54t82.5 -28q59 0 86.5 27t29.5 55h118v0z" />
    <glyph glyph-name="abreve" unicode="&#x103;" horiz-adv-x="887" 
d="M566 415q-50 0 -100 -7t-90 -26.5t-65 -54t-25 -89.5t25.5 -92.5t80.5 -37.5q94 0 174 78v229zM685 -12q-40 10 -66 31.5t-36 63.5h-3q-50 -48 -110 -74.5t-132 -26.5q-55 0 -97.5 18t-71.5 51t-44 78.5t-15 100.5q0 61 19.5 107t53.5 79t79 54.5t96 34.5t104.5 18
t105.5 5v30q0 33 -4.5 58t-16.5 42t-33.5 26t-55.5 9q-75 0 -140.5 -20.5t-125.5 -54.5l-50 134q81 40 158 60.5t166 20.5q81 0 135.5 -19t86.5 -56t45.5 -92t13.5 -128v-344q0 -24 2 -40t7.5 -28t15.5 -21t25 -19zM681 1122q-2 -81 -66 -139.5t-165 -58.5q-103 1 -164 59
t-63 139h114q4 -28 27.5 -54t82.5 -28q59 0 86.5 27t29.5 55h118v0z" />
    <glyph glyph-name="Aogonek" unicode="&#x104;" horiz-adv-x="976" 
d="M487 829h-8l-121 -445h254zM914 -292q-23 -17 -59 -34.5t-89 -17.5q-41 0 -70.5 13t-48.5 35t-28.5 52t-9.5 63q0 34 12 64t29 53.5t35.5 39.5t30.5 24l-68 228h-324l-69 -228h-195l315 1003h220l321 -1003h-86q-19 -15 -37 -31t-32 -35.5t-22.5 -42.5t-8.5 -52
q0 -37 17.5 -55t45.5 -18q23 0 40 8.5t34 21.5l47 -88v0z" />
    <glyph glyph-name="aogonek" unicode="&#x105;" horiz-adv-x="887" 
d="M566 415q-50 0 -100 -7t-90 -26.5t-65 -54t-25 -89.5t25.5 -92.5t80.5 -37.5q94 0 174 78v229zM787 -289q-23 -17 -59 -34.5t-89 -17.5q-41 0 -70.5 13t-48 34.5t-27.5 50t-9 60.5q0 35 12.5 65.5t32 57t42.5 47.5t44 36q-23 20 -32 60h-3q-50 -48 -110 -74.5t-132 -26.5
q-55 0 -97.5 18t-71.5 51t-44 78.5t-15 100.5q0 61 19.5 107t53.5 79t79 54.5t96 34.5t104.5 18t105.5 5v30q0 33 -4.5 58t-16.5 42t-33.5 26t-55.5 9q-75 0 -140.5 -20.5t-125.5 -54.5l-50 134q81 40 158 60.5t166 20.5q81 0 135.5 -19t86.5 -56t45.5 -92t13.5 -128v-344
q0 -24 2 -40t7.5 -28t15.5 -21t25 -19q-58 -51 -96 -87t-60 -63.5t-30.5 -49.5t-8.5 -44q0 -37 17.5 -55t46.5 -18q23 0 39.5 8.5t34.5 21.5l47 -88v0z" />
    <glyph glyph-name="Cacute" unicode="&#x106;" horiz-adv-x="930" 
d="M860 129q-64 -68 -143.5 -107t-178.5 -39q-112 0 -191 40t-129.5 110t-74 164.5t-23.5 204.5q0 102 24 195.5t75.5 164t131 112.5t190.5 42q95 0 169.5 -36.5t143.5 -110.5l-112 -127q-45 56 -91.5 86.5t-109.5 30.5q-59 0 -101.5 -25.5t-70.5 -72.5t-41.5 -113
t-13.5 -146q0 -65 10.5 -130t36.5 -116.5t70.5 -83.5t112.5 -32q64 0 115 30t104 88l97 -129v0zM529 1097l-99 56l189 177l151 -86z" />
    <glyph glyph-name="cacute" unicode="&#x107;" horiz-adv-x="800" 
d="M655 615q-40 36 -80 55t-96 19q-57 0 -93 -26t-56.5 -66.5t-28 -89.5t-7.5 -96q0 -48 8 -99t29 -92t57.5 -67.5t93.5 -26.5q56 0 101.5 19.5t89.5 54.5l57 -133q-63 -42 -126.5 -63.5t-138.5 -21.5q-95 0 -162.5 34t-110.5 92.5t-62.5 136t-19.5 163.5q0 87 21.5 164.5
t66 135t113.5 91.5t164 34q70 0 132 -22.5t120 -64.5zM463 917l-99 56l189 177l151 -86z" />
    <glyph glyph-name="Ccaron" unicode="&#x10c;" horiz-adv-x="930" 
d="M860 129q-64 -68 -143.5 -107t-178.5 -39q-112 0 -191 40t-129.5 110t-74 164.5t-23.5 204.5q0 102 24 195.5t75.5 164t131 112.5t190.5 42q95 0 169.5 -36.5t143.5 -110.5l-112 -127q-45 56 -91.5 86.5t-109.5 30.5q-59 0 -101.5 -25.5t-70.5 -72.5t-41.5 -113
t-13.5 -146q0 -65 10.5 -130t36.5 -116.5t70.5 -83.5t112.5 -32q64 0 115 30t104 88l97 -129v0zM355 1324l172 -97l175 97l61 -98l-234 -132l-233 132z" />
    <glyph glyph-name="ccaron" unicode="&#x10d;" horiz-adv-x="800" 
d="M655 615q-40 36 -80 55t-96 19q-57 0 -93 -26t-56.5 -66.5t-28 -89.5t-7.5 -96q0 -48 8 -99t29 -92t57.5 -67.5t93.5 -26.5q56 0 101.5 19.5t89.5 54.5l57 -133q-63 -42 -126.5 -63.5t-138.5 -21.5q-95 0 -162.5 34t-110.5 92.5t-62.5 136t-19.5 163.5q0 87 21.5 164.5
t66 135t113.5 91.5t164 34q70 0 132 -22.5t120 -64.5zM288 1144l172 -97l175 97l61 -98l-234 -132l-233 132z" />
    <glyph glyph-name="Dcaron" unicode="&#x10e;" horiz-adv-x="1007" 
d="M693 509q0 70 -10 134.5t-36.5 113t-73 77.5t-119.5 29q-28 0 -58.5 -1t-60.5 -5v-706q29 -2 51 -2.5t45 -0.5q67 0 116.5 20.5t81.5 64.5t48 112.5t16 163.5zM887 505q0 -118 -27 -211.5t-82 -159t-140 -100t-200 -34.5h-288v994q33 3 70 6.5t75.5 5.5t77 3.5t74.5 1.5
q108 0 190.5 -34.5t138 -99.5t83.5 -159t28 -213zM252 1309l172 -97l175 97l61 -98l-234 -132l-233 132z" />
    <glyph glyph-name="dcaron" unicode="&#x10f;" horiz-adv-x="919" 
d="M599 525q0 83 -38 124.5t-110 41.5q-51 0 -82 -22.5t-47.5 -61t-22 -90t-5.5 -109.5q0 -54 6.5 -106t23.5 -92.5t48 -65t80 -24.5q42 0 70.5 16t45.5 43t24 62.5t7 73.5v210zM622 0l-10 96h-5q-36 -59 -84.5 -86.5t-114.5 -27.5q-83 0 -140 37.5t-92 98.5t-50.5 138
t-15.5 155q0 89 17 166t53.5 134t93 89.5t135.5 32.5q59 0 107 -21.5t80 -72.5h2v346h181v-1085h-157zM984 837h-104l36 248h165z" />
    <glyph glyph-name="Dcroat" unicode="&#x110;" horiz-adv-x="1007" 
d="M335 439v-288q29 -2 51 -2.5t45 -0.5q67 0 116.5 20.5t81.5 64.5t48 112.5t16 163.5q0 70 -10 134.5t-36.5 113t-73 77.5t-119.5 29q-28 0 -58.5 -1t-60.5 -5v-259h167v-159h-167zM887 505q0 -118 -27 -211.5t-82 -159t-140 -100t-200 -34.5h-288v439h-92v159h92v396
q33 3 70 6.5t75.5 5.5t77 3.5t74.5 1.5q108 0 190.5 -34.5t138 -99.5t83.5 -159t28 -213z" />
    <glyph glyph-name="dcroat" unicode="&#x111;" horiz-adv-x="919" 
d="M599 525q0 83 -38 124.5t-110 41.5q-51 0 -82 -22.5t-47.5 -61t-22 -90t-5.5 -109.5q0 -54 6.5 -106t23.5 -92.5t48 -65t80 -24.5q42 0 70.5 16t45.5 43t24 62.5t7 73.5v210zM622 0l-10 96h-5q-36 -59 -84.5 -86.5t-114.5 -27.5q-83 0 -140 37.5t-92 98.5t-50.5 138
t-15.5 155q0 89 17 166t53.5 134t93 89.5t135.5 32.5q59 0 107 -21.5t80 -72.5h2v147h-100v117h100v82h182v-82h110v-117h-110v-886h-158z" />
    <glyph glyph-name="Emacron" unicode="&#x112;" horiz-adv-x="819" 
d="M150 0v1000h556v-158h-371v-244h335v-159h-335v-285h384v-154h-569zM216 1124v126h430v-126h-430z" />
    <glyph glyph-name="emacron" unicode="&#x113;" horiz-adv-x="902" 
d="M622 471q0 45 -7.5 86t-25 72t-47 49t-75.5 18q-82 0 -128 -58t-46 -167h329v0zM792 412q0 -13 -0.5 -28.5t-2.5 -34.5h-495q0 -109 46.5 -167.5t142.5 -58.5q57 0 105.5 16.5t104.5 54.5l53 -133q-66 -42 -131 -60.5t-141 -18.5q-88 0 -156 29.5t-114 85t-70 134
t-24 177.5q0 106 26.5 186t73.5 133t113 79.5t144 26.5q160 0 242.5 -107t82.5 -314zM247 959v126h430v-126h-430z" />
    <glyph glyph-name="Ebreve" unicode="&#x114;" horiz-adv-x="819" 
d="M150 0v1000h556v-158h-371v-244h335v-159h-335v-285h384v-154h-569zM657 1287q-2 -81 -66 -139.5t-165 -58.5q-103 1 -164 59t-63 139h114q4 -28 27.5 -54t82.5 -28q59 0 86.5 27t29.5 55h118v0z" />
    <glyph glyph-name="ebreve" unicode="&#x115;" horiz-adv-x="902" 
d="M622 471q0 45 -7.5 86t-25 72t-47 49t-75.5 18q-82 0 -128 -58t-46 -167h329v0zM792 412q0 -13 -0.5 -28.5t-2.5 -34.5h-495q0 -109 46.5 -167.5t142.5 -58.5q57 0 105.5 16.5t104.5 54.5l53 -133q-66 -42 -131 -60.5t-141 -18.5q-88 0 -156 29.5t-114 85t-70 134
t-24 177.5q0 106 26.5 186t73.5 133t113 79.5t144 26.5q160 0 242.5 -107t82.5 -314zM696 1128q-2 -81 -66 -139.5t-165 -58.5q-103 1 -164 59t-63 139h114q4 -28 27.5 -54t82.5 -28q59 0 86.5 27t29.5 55h118v0z" />
    <glyph glyph-name="Edotaccent" unicode="&#x116;" horiz-adv-x="819" 
d="M150 0v1000h556v-158h-371v-244h335v-159h-335v-285h384v-154h-569zM539 1173q0 -45 -31 -72.5t-82 -27.5q-52 0 -81 27.5t-29 72.5t29 71.5t81 26.5q53 0 83 -26.5t30 -71.5z" />
    <glyph glyph-name="edotaccent" unicode="&#x117;" horiz-adv-x="902" 
d="M622 471q0 45 -7.5 86t-25 72t-47 49t-75.5 18q-82 0 -128 -58t-46 -167h329v0zM792 412q0 -13 -0.5 -28.5t-2.5 -34.5h-495q0 -109 46.5 -167.5t142.5 -58.5q57 0 105.5 16.5t104.5 54.5l53 -133q-66 -42 -131 -60.5t-141 -18.5q-88 0 -156 29.5t-114 85t-70 134
t-24 177.5q0 106 26.5 186t73.5 133t113 79.5t144 26.5q160 0 242.5 -107t82.5 -314zM571 1023q0 -45 -31 -72.5t-82 -27.5q-52 0 -81 27.5t-29 72.5t29 71.5t81 26.5q53 0 83 -26.5t30 -71.5z" />
    <glyph glyph-name="Eogonek" unicode="&#x118;" horiz-adv-x="819" 
d="M712 -292q-23 -17 -59.5 -34.5t-89.5 -17.5q-41 0 -70 13t-47.5 34.5t-27.5 50t-9 60.5q0 37 11 67t27.5 53.5t36 40t35.5 25.5h-369v1000h556v-158h-371v-244h335v-159h-335v-285h384v-154h-79q-23 -14 -43 -30t-35.5 -36t-24.5 -43.5t-9 -51.5q0 -37 17 -55t46 -18
q23 0 40 8.5t35 21.5l46 -88v0z" />
    <glyph glyph-name="eogonek" unicode="&#x119;" horiz-adv-x="902" 
d="M622 471q0 45 -7.5 86t-25 72t-47 49t-75.5 18q-82 0 -127.5 -58t-46.5 -167h329v0zM732 -280q-20 -16 -54.5 -33.5t-93.5 -17.5q-41 0 -70.5 14t-48 37t-27.5 52.5t-9 60.5q0 25 6.5 47t17 40.5t23 34.5t25.5 28q-7 -1 -14 -1h-13q-88 0 -155.5 29.5t-114 85t-70.5 134
t-24 177.5q0 106 26.5 186t74 133t113 79.5t143.5 26.5q160 0 242.5 -107t82.5 -314q0 -13 -0.5 -28.5t-2.5 -34.5h-495q1 -109 47 -167.5t142 -58.5q57 0 105.5 16.5t104.5 54.5l53 -133q-24 -16 -49 -28t-51 -23q-18 -14 -36 -31t-31.5 -37t-22 -43t-8.5 -49
q0 -36 16.5 -53.5t46.5 -17.5q23 0 40 8t34 22l47 -89v0z" />
    <glyph glyph-name="Ecaron" unicode="&#x11a;" horiz-adv-x="819" 
d="M150 0v1000h556v-158h-371v-244h335v-159h-335v-285h384v-154h-569zM260 1309l172 -97l175 97l61 -98l-234 -132l-233 132z" />
    <glyph glyph-name="ecaron" unicode="&#x11b;" horiz-adv-x="902" 
d="M622 471q0 45 -7.5 86t-25 72t-47 49t-75.5 18q-82 0 -128 -58t-46 -167h329v0zM792 412q0 -13 -0.5 -28.5t-2.5 -34.5h-495q0 -109 46.5 -167.5t142.5 -58.5q57 0 105.5 16.5t104.5 54.5l53 -133q-66 -42 -131 -60.5t-141 -18.5q-88 0 -156 29.5t-114 85t-70 134
t-24 177.5q0 106 26.5 186t73.5 133t113 79.5t144 26.5q160 0 242.5 -107t82.5 -314zM297 1144l172 -97l175 97l61 -98l-234 -132l-233 132z" />
    <glyph glyph-name="Gbreve" unicode="&#x11e;" horiz-adv-x="1023" 
d="M903 445q0 -96 -17.5 -180t-59.5 -146.5t-113 -99t-178 -36.5q-105 0 -183 41t-129.5 111t-77 163.5t-25.5 199.5t26 200t78.5 164.5t131.5 112t185 41.5q51 0 94 -10.5t80 -28.5t69.5 -42t62.5 -52l-107 -130q-45 49 -90.5 77.5t-107.5 28.5q-69 0 -113.5 -33t-70 -85.5
t-35 -116.5t-9.5 -125q0 -62 8.5 -127.5t32.5 -119t68 -88t116 -34.5q58 0 94 22t56 58.5t27 84.5t7 100h-181v155h361v-105v0zM757 1302q-2 -81 -66 -139.5t-165 -58.5q-103 1 -164 59t-63 139h114q4 -28 27.5 -54t82.5 -28q59 0 86.5 27t29.5 55h118v0z" />
    <glyph glyph-name="gbreve" unicode="&#x11f;" horiz-adv-x="922" 
d="M602 515q0 37 -9 69.5t-27.5 56t-47 37t-67.5 13.5q-49 0 -79.5 -22t-48 -59t-23.5 -86.5t-6 -104.5q0 -42 6 -88t23 -85t47.5 -64t80.5 -25q47 0 76.5 20t46 51.5t22.5 70t6 76.5v140zM782 3q0 -79 -15 -139t-51.5 -100.5t-97.5 -61.5t-152 -21q-85 0 -161.5 19.5
t-146.5 54.5l53 145q62 -34 122 -52.5t132 -18.5q38 0 64 7t42 24.5t23 46.5t7 73v137h-3q-36 -51 -82 -75t-108 -24q-75 0 -131 28t-93 79.5t-55.5 125t-18.5 164.5q0 79 14 154.5t48.5 134t92 94t144.5 35.5q66 0 115 -24t83 -80h2l11 88h162v-814v0zM696 1122
q-2 -81 -66 -139.5t-165 -58.5q-103 1 -164 59t-63 139h114q4 -28 27.5 -54t82.5 -28q59 0 86.5 27t29.5 55h118v0z" />
    <glyph glyph-name="Gcommaaccent" unicode="&#x122;" horiz-adv-x="1023" 
d="M903 445q0 -96 -17.5 -180t-59.5 -146.5t-113 -99t-178 -36.5q-105 0 -183 41t-129.5 111t-77 163.5t-25.5 199.5t26 200t78.5 164.5t131.5 112t185 41.5q51 0 94 -10.5t80 -28.5t69.5 -42t62.5 -52l-107 -130q-45 49 -90.5 77.5t-107.5 28.5q-69 0 -113.5 -33t-70 -85.5
t-35 -116.5t-9.5 -125q0 -62 8.5 -127.5t32.5 -119t68 -88t116 -34.5q58 0 94 22t56 58.5t27 84.5t7 100h-181v155h361v-105v0zM549 -343h-107l37 256h171z" />
    <glyph glyph-name="gcommaaccent" unicode="&#x123;" horiz-adv-x="922" 
d="M602 515q0 37 -9 69.5t-27.5 56t-47 37t-67.5 13.5q-49 0 -79.5 -22t-48 -59t-23.5 -86.5t-6 -104.5q0 -42 6 -88t23 -85t47.5 -64t80.5 -25q47 0 76.5 20t46 51.5t22.5 70t6 76.5v140zM782 3q0 -79 -15 -139t-51.5 -100.5t-97.5 -61.5t-152 -21q-85 0 -161.5 19.5
t-146.5 54.5l53 145q62 -34 122 -52.5t132 -18.5q38 0 64 7t42 24.5t23 46.5t7 73v137h-3q-36 -51 -82 -75t-108 -24q-75 0 -131 28t-93 79.5t-55.5 125t-18.5 164.5q0 79 14 154.5t48.5 134t92 94t144.5 35.5q66 0 115 -24t83 -80h2l11 88h162v-814v0zM485 1160h103
l-34 -247h-167z" />
    <glyph glyph-name="Imacron" unicode="&#x12a;" horiz-adv-x="485" 
d="M150 0v1000h185v-1000h-185zM27 1124v126h430v-126h-430z" />
    <glyph glyph-name="imacron" unicode="&#x12b;" horiz-adv-x="462" 
d="M140 0v817h182v-817h-182zM23 959v126h430v-126h-430z" />
    <glyph glyph-name="Ibreve" unicode="&#x12c;" horiz-adv-x="485" 
d="M150 0v1000h185v-1000h-185zM477 1287q-2 -81 -66 -139.5t-165 -58.5q-103 1 -164 59t-63 139h114q4 -28 27.5 -54t82.5 -28q59 0 86.5 27t29.5 55h118v0z" />
    <glyph glyph-name="ibreve" unicode="&#x12d;" horiz-adv-x="462" 
d="M140 0v817h182v-817h-182zM460 1122q-2 -81 -66 -139.5t-165 -58.5q-103 1 -164 59t-63 139h114q4 -28 27.5 -54t82.5 -28q59 0 86.5 27t29.5 55h118v0z" />
    <glyph glyph-name="Iogonek" unicode="&#x12e;" horiz-adv-x="485" 
d="M375 -292q-23 -17 -59 -34.5t-89 -17.5q-39 0 -68 13t-48.5 34.5t-29 50t-9.5 60.5q0 37 12 67.5t30 53.5t39 39.5t38 25.5h-41v1000h185v-1000h-32q-18 -15 -38.5 -30.5t-37 -34.5t-27 -42.5t-10.5 -53.5q0 -37 17.5 -55t46.5 -18q23 0 39.5 8.5t34.5 21.5l47 -88v0z
" />
    <glyph glyph-name="iogonek" unicode="&#x12f;" horiz-adv-x="462" 
d="M342 1023q0 -45 -31 -72.5t-82 -27.5t-81 27.5t-30 72.5t30 71.5t81 26.5q52 0 82.5 -26.5t30.5 -71.5zM364 -292q-23 -17 -55.5 -34.5t-80.5 -17.5q-40 0 -70 12t-49.5 33.5t-29.5 50.5t-10 62q0 36 11 66t27.5 53t36 40t36.5 27h-40v817h182v-817h-28
q-19 -14 -38 -30.5t-34.5 -36.5t-25 -43.5t-9.5 -50.5q0 -31 13.5 -52t41.5 -21q24 0 41 8.5t35 21.5l46 -88v0z" />
    <glyph glyph-name="Idotaccent" unicode="&#x130;" horiz-adv-x="485" 
d="M150 0v1000h185v-1000h-185zM355 1173q0 -45 -31 -72.5t-82 -27.5q-52 0 -81 27.5t-29 72.5t29 71.5t81 26.5q53 0 83 -26.5t30 -71.5z" />
    <glyph glyph-name="dotlessi" unicode="&#x131;" horiz-adv-x="462" 
d="M140 0v817h182v-817h-182z" />
    <glyph glyph-name="Kcommaaccent" unicode="&#x136;" horiz-adv-x="917" 
d="M644 0l-237 424l-74 -96l2 -328h-185v1000h185l-2 -437h9l275 437h221l-301 -442l330 -558h-223zM480 -343h-107l37 256h171z" />
    <glyph glyph-name="kcommaaccent" unicode="&#x137;" horiz-adv-x="827" 
d="M582 0l-177 357l-86 -110v-247h-179v1085h181v-622h4l240 354h208l-240 -341l254 -476h-205zM434 -343h-107l37 256h171z" />
    <glyph glyph-name="Lacute" unicode="&#x139;" horiz-adv-x="764" 
d="M150 0v1000h185v-843h339v-157h-524zM252 1082l-99 56l189 177l151 -86z" />
    <glyph glyph-name="lacute" unicode="&#x13a;" horiz-adv-x="505" 
d="M435 0q-25 -5 -58 -7.5t-62 -2.5q-49 0 -82.5 9.5t-54 30.5t-29.5 55.5t-9 85.5v914h181v-869q0 -24 3.5 -38.5t12 -22t22.5 -9.5t35 -2h41v-144v0zM239 1155l-99 56l189 177l151 -86z" />
    <glyph glyph-name="Lcommaaccent" unicode="&#x13b;" horiz-adv-x="764" 
d="M150 0v1000h185v-843h339v-157h-524zM418 -343h-107l37 256h171z" />
    <glyph glyph-name="lcommaaccent" unicode="&#x13c;" horiz-adv-x="505" 
d="M435 0q-25 -5 -58 -7.5t-62 -2.5q-49 0 -82.5 9.5t-54 30.5t-29.5 55.5t-9 85.5v914h181v-869q0 -24 3.5 -38.5t12 -22t22.5 -9.5t35 -2h41v-144v0zM314 -343h-107l37 256h171z" />
    <glyph glyph-name="Lcaron" unicode="&#x13d;" horiz-adv-x="764" 
d="M150 0v1000h185v-843h339v-157h-524zM650 837h-104l36 248h165z" />
    <glyph glyph-name="lcaron" unicode="&#x13e;" horiz-adv-x="505" 
d="M435 0q-25 -5 -58 -7.5t-62 -2.5q-49 0 -82.5 9.5t-54 30.5t-29.5 55.5t-9 85.5v914h181v-869q0 -24 3.5 -38.5t12 -22t22.5 -9.5t35 -2h41v-144v0zM580 837h-104l36 248h165z" />
    <glyph glyph-name="Lslash" unicode="&#x141;" horiz-adv-x="764" 
d="M150 0v418l-80 -50v160l80 47v425h184v-317l185 114v-165l-185 -113v-362h339v-157h-523z" />
    <glyph glyph-name="lslash" unicode="&#x142;" horiz-adv-x="505" 
d="M321 539v-323q0 -24 3.5 -38.5t12 -22t22.5 -9.5t35 -2h41v-144q-25 -5 -58 -7.5t-62 -2.5q-49 0 -82.5 9.5t-54 30.5t-29.5 55.5t-9 85.5v260l-95 -69v182l95 68v473h181v-366l138 100v-180z" />
    <glyph glyph-name="Nacute" unicode="&#x143;" horiz-adv-x="1054" 
d="M739 0l-408 652h-3v-652h-178v1000h180l393 -642h3v642h178v-1000h-165zM536 1082l-99 56l189 177l151 -86z" />
    <glyph glyph-name="nacute" unicode="&#x144;" horiz-adv-x="920" 
d="M599 0v465q0 45 -2 84.5t-14 68.5t-38 45.5t-73 16.5q-83 0 -117 -48.5t-34 -136.5v-495h-181v817h159l13 -87h3q35 58 90 80.5t123 22.5q77 0 126 -24.5t77 -69.5t38.5 -109.5t10.5 -145.5v-484h-181zM482 917l-99 56l189 177l151 -86z" />
    <glyph glyph-name="Ncommaaccent" unicode="&#x145;" horiz-adv-x="1054" 
d="M739 0l-408 652h-3v-652h-178v1000h180l393 -642h3v642h178v-1000h-165zM515 -343h-107l37 256h171z" />
    <glyph glyph-name="ncommaaccent" unicode="&#x146;" horiz-adv-x="920" 
d="M599 0v465q0 45 -2 84.5t-14 68.5t-38 45.5t-73 16.5q-83 0 -117 -48.5t-34 -136.5v-495h-181v817h159l13 -87h3q35 58 90 80.5t123 22.5q77 0 126 -24.5t77 -69.5t38.5 -109.5t10.5 -145.5v-484h-181zM463 -343h-107l37 256h171z" />
    <glyph glyph-name="Ncaron" unicode="&#x147;" horiz-adv-x="1054" 
d="M739 0l-408 652h-3v-652h-178v1000h180l393 -642h3v642h178v-1000h-165zM358 1309l172 -97l175 97l61 -98l-234 -132l-233 132z" />
    <glyph glyph-name="ncaron" unicode="&#x148;" horiz-adv-x="920" 
d="M599 0v465q0 45 -2 84.5t-14 68.5t-38 45.5t-73 16.5q-83 0 -117 -48.5t-34 -136.5v-495h-181v817h159l13 -87h3q35 58 90 80.5t123 22.5q77 0 126 -24.5t77 -69.5t38.5 -109.5t10.5 -145.5v-484h-181zM297 1144l172 -97l175 97l61 -98l-234 -132l-233 132z" />
    <glyph glyph-name="Omacron" unicode="&#x14c;" horiz-adv-x="1093" 
d="M779 501q0 79 -10.5 145.5t-37 114.5t-72 75t-114.5 27t-113.5 -27t-70.5 -75.5t-36.5 -115t-10.5 -144.5q0 -80 10.5 -146.5t37 -115t72 -75.5t115.5 -27q68 0 112.5 27.5t70.5 76t36.5 115.5t10.5 145zM973 501q0 -118 -27 -213.5t-80.5 -163t-133 -104.5t-184.5 -37
q-106 0 -186 37t-134 104.5t-81 163t-27 213.5q0 115 26.5 210t80 163t134 105t187.5 37q106 0 185.5 -37t132.5 -105t80 -163t27 -210zM333 1139v126h430v-126h-430z" />
    <glyph glyph-name="omacron" unicode="&#x14d;" 
d="M640 408q0 55 -6.5 105.5t-25 88.5t-52.5 61t-88 23q-55 0 -89 -22.5t-53 -61t-25.5 -89t-6.5 -105.5q0 -63 7.5 -114.5t27 -89t53.5 -58t86 -20.5t85 20.5t52.5 58t27 89t7.5 114.5zM824 408q0 -96 -21.5 -174.5t-66 -134.5t-111.5 -86.5t-157 -30.5t-157.5 30.5
t-112 86t-66.5 134.5t-22 175q0 94 21.5 172t65.5 134t111.5 87.5t159.5 31.5q90 0 156.5 -30t111 -85.5t66.5 -134t22 -175.5zM252 959v126h430v-126h-430z" />
    <glyph glyph-name="Obreve" unicode="&#x14e;" horiz-adv-x="1093" 
d="M779 501q0 79 -10.5 145.5t-37 114.5t-72 75t-114.5 27t-113.5 -27t-70.5 -75.5t-36.5 -115t-10.5 -144.5q0 -80 10.5 -146.5t37 -115t72 -75.5t115.5 -27q68 0 112.5 27.5t70.5 76t36.5 115.5t10.5 145zM973 501q0 -118 -27 -213.5t-80.5 -163t-133 -104.5t-184.5 -37
q-106 0 -186 37t-134 104.5t-81 163t-27 213.5q0 115 26.5 210t80 163t134 105t187.5 37q106 0 185.5 -37t132.5 -105t80 -163t27 -210zM775 1302q-2 -81 -66 -139.5t-165 -58.5q-103 1 -164 59t-63 139h114q4 -28 27.5 -54t82.5 -28q59 0 86.5 27t29.5 55h118v0z" />
    <glyph glyph-name="obreve" unicode="&#x14f;" 
d="M640 408q0 55 -6.5 105.5t-25 88.5t-52.5 61t-88 23q-55 0 -89 -22.5t-53 -61t-25.5 -89t-6.5 -105.5q0 -63 7.5 -114.5t27 -89t53.5 -58t86 -20.5t85 20.5t52.5 58t27 89t7.5 114.5zM824 408q0 -96 -21.5 -174.5t-66 -134.5t-111.5 -86.5t-157 -30.5t-157.5 30.5
t-112 86t-66.5 134.5t-22 175q0 94 21.5 172t65.5 134t111.5 87.5t159.5 31.5q90 0 156.5 -30t111 -85.5t66.5 -134t22 -175.5zM697 1128q-2 -81 -66 -139.5t-165 -58.5q-103 1 -164 59t-63 139h114q4 -28 27.5 -54t82.5 -28q59 0 86.5 27t29.5 55h118v0z" />
    <glyph glyph-name="Ohungarumlaut" unicode="&#x150;" horiz-adv-x="1093" 
d="M779 501q0 79 -10.5 145.5t-37 114.5t-72 75t-114.5 27t-113.5 -27t-70.5 -75.5t-36.5 -115t-10.5 -144.5q0 -80 10.5 -146.5t37 -115t72 -75.5t115.5 -27q68 0 112.5 27.5t70.5 76t36.5 115.5t10.5 145zM973 501q0 -118 -27 -213.5t-80.5 -163t-133 -104.5t-184.5 -37
q-106 0 -186 37t-134 104.5t-81 163t-27 213.5q0 115 26.5 210t80 163t134 105t187.5 37q106 0 185.5 -37t132.5 -105t80 -163t27 -210zM758 1098l-100 56l190 167l151 -76zM394 1098l-98 56l188 167l153 -76z" />
    <glyph glyph-name="ohungarumlaut" unicode="&#x151;" 
d="M640 408q0 55 -6.5 105.5t-25 88.5t-52.5 61t-88 23q-55 0 -89 -22.5t-53 -61t-25.5 -89t-6.5 -105.5q0 -63 7.5 -114.5t27 -89t53.5 -58t86 -20.5t85 20.5t52.5 58t27 89t7.5 114.5zM824 408q0 -96 -21.5 -174.5t-66 -134.5t-111.5 -86.5t-157 -30.5t-157.5 30.5
t-112 86t-66.5 134.5t-22 175q0 94 21.5 172t65.5 134t111.5 87.5t159.5 31.5q90 0 156.5 -30t111 -85.5t66.5 -134t22 -175.5zM672 918l-100 56l190 167l151 -76zM308 918l-98 56l188 167l153 -76z" />
    <glyph glyph-name="OE" unicode="&#x152;" horiz-adv-x="1464" 
d="M791 501q0 78 -11 144.5t-38.5 114.5t-73 75t-114.5 27t-115.5 -27.5t-74.5 -76t-40 -114.5t-12 -143q0 -79 12 -145.5t40 -115t74.5 -75.5t115.5 -27q67 0 112 27.5t73 76.5t40 115t12 144zM796 0v108q-16 -29 -41.5 -51.5t-58 -38.5t-69.5 -24t-75 -8q-106 0 -187 36.5
t-135.5 103.5t-82 162t-27.5 213q0 116 27.5 211t81.5 162.5t135 104.5t188 37q78 0 143 -31t101 -89v104h555v-156h-370v-246h333v-156h-333v-288h383v-154h-568z" />
    <glyph glyph-name="oe" unicode="&#x153;" horiz-adv-x="1404" 
d="M621 391q0 53 -6.5 100.5t-24 83t-49 56.5t-82.5 21t-83 -21t-49.5 -56.5t-24 -83t-6.5 -100.5q0 -128 36.5 -195t126.5 -67q88 0 125 67t37 195zM1125 457q-2 42 -10 79.5t-25.5 65.5t-46 44.5t-71.5 16.5q-78 0 -121 -51.5t-43 -154.5h317v0zM1294 392
q0 -12 -0.5 -27.5t-2.5 -34.5h-484q2 -100 47.5 -151.5t134.5 -51.5q54 0 101 17t99 51l55 -134q-64 -39 -127 -58.5t-135 -19.5q-180 0 -265 124q-43 -61 -107 -92.5t-151 -31.5q-86 0 -151 28.5t-109 81.5t-66.5 128.5t-22.5 169.5q0 93 22 169t65.5 130t109 83t152.5 29
q85 0 149 -30t106 -92q43 63 110 92.5t145 29.5q76 0 136 -26t102 -77.5t64.5 -128t22.5 -178.5z" />
    <glyph glyph-name="Racute" unicode="&#x154;" horiz-adv-x="936" 
d="M630 700q0 83 -41.5 122.5t-130.5 39.5q-32 0 -61.5 -1.5t-60.5 -4.5v-314h140q38 0 66.5 8t48 26.5t29.5 49t10 74.5zM640 0l-114 349q-8 25 -18 35t-33 10h-140v-394h-185v994q78 9 152.5 12.5t152.5 3.5q76 0 142.5 -15.5t116 -50.5t78 -92.5t28.5 -141.5
q0 -101 -39.5 -166t-117.5 -97v-2q13 -3 21 -21t14 -33l138 -391h-196zM426 1097l-99 56l189 177l151 -86z" />
    <glyph glyph-name="racute" unicode="&#x155;" horiz-adv-x="633" 
d="M516 667q-46 0 -82 -8t-61 -28t-38.5 -54t-13.5 -85v-492h-181v817h162l13 -101h1q32 61 78.5 89t124.5 28h44v-166h-47zM334 917l-99 56l189 177l151 -86z" />
    <glyph glyph-name="Rcommaaccent" unicode="&#x156;" horiz-adv-x="936" 
d="M630 700q0 83 -41.5 122.5t-130.5 39.5q-32 0 -61.5 -1.5t-60.5 -4.5v-314h140q38 0 66.5 8t48 26.5t29.5 49t10 74.5zM640 0l-114 349q-8 25 -18 35t-33 10h-140v-394h-185v994q78 9 152.5 12.5t152.5 3.5q76 0 142.5 -15.5t116 -50.5t78 -92.5t28.5 -141.5
q0 -101 -39.5 -166t-117.5 -97v-2q13 -3 21 -21t14 -33l138 -391h-196zM467 -343h-107l37 256h171z" />
    <glyph glyph-name="rcommaaccent" unicode="&#x157;" horiz-adv-x="633" 
d="M516 667q-46 0 -82 -8t-61 -28t-38.5 -54t-13.5 -85v-492h-181v817h162l13 -101h1q32 61 78.5 89t124.5 28h44v-166h-47zM224 -343h-107l37 256h171z" />
    <glyph glyph-name="Rcaron" unicode="&#x158;" horiz-adv-x="936" 
d="M630 700q0 83 -41.5 122.5t-130.5 39.5q-32 0 -61.5 -1.5t-60.5 -4.5v-314h140q38 0 66.5 8t48 26.5t29.5 49t10 74.5zM640 0l-114 349q-8 25 -18 35t-33 10h-140v-394h-185v994q78 9 152.5 12.5t152.5 3.5q76 0 142.5 -15.5t116 -50.5t78 -92.5t28.5 -141.5
q0 -101 -39.5 -166t-117.5 -97v-2q13 -3 21 -21t14 -33l138 -391h-196zM271 1324l172 -97l175 97l61 -98l-234 -132l-233 132z" />
    <glyph glyph-name="rcaron" unicode="&#x159;" horiz-adv-x="633" 
d="M516 667q-46 0 -82 -8t-61 -28t-38.5 -54t-13.5 -85v-492h-181v817h162l13 -101h1q32 61 78.5 89t124.5 28h44v-166h-47zM170 1144l172 -97l175 97l61 -98l-234 -132l-233 132z" />
    <glyph glyph-name="Sacute" unicode="&#x15a;" horiz-adv-x="840" 
d="M740 288q0 -80 -25 -137t-69.5 -94t-105 -54t-131.5 -17q-98 0 -176 24t-153 73l68 151q57 -43 118.5 -70t133.5 -27q30 0 58.5 6t51 21t36 40t13.5 64q0 37 -17.5 64t-47 47.5t-67.5 37.5t-78 34q-44 19 -86.5 40.5t-76 54t-54.5 79.5t-21 117t26 121.5t69.5 85
t99.5 49.5t116 16q80 0 148.5 -20.5t134.5 -59.5l-54 -151q-50 37 -100.5 58t-112.5 21q-30 0 -56.5 -6t-46.5 -19.5t-31.5 -35.5t-11.5 -53q0 -30 16.5 -52t44 -39t63.5 -31.5t74 -30.5q45 -19 89.5 -41.5t80.5 -57t58 -84.5t22 -124zM427 1097l-99 56l189 177l151 -86z
" />
    <glyph glyph-name="sacute" unicode="&#x15b;" horiz-adv-x="757" 
d="M667 232q0 -65 -20.5 -112.5t-59 -78t-93.5 -45t-123 -14.5q-82 0 -158 21.5t-143 63.5l62 140q49 -35 112.5 -60.5t126.5 -25.5q60 0 90 23t30 76q0 29 -15.5 49t-42 35t-60.5 27.5t-70 26.5q-38 15 -75 34t-66.5 47.5t-47.5 68.5t-18 96q0 57 21.5 100t60 71.5t91.5 43
t117 14.5q66 0 131.5 -13t125.5 -42l-43 -141q-42 26 -93 41t-104 15q-59 0 -96 -17t-37 -64q0 -24 13 -41t35.5 -30.5t51 -24.5t60.5 -23q41 -15 83 -34t76.5 -48.5t56 -72.5t21.5 -106zM406 917l-99 56l189 177l151 -86z" />
    <glyph glyph-name="Scedilla" unicode="&#x15e;" horiz-adv-x="840" 
d="M572 -202q0 -31 -9 -57.5t-27 -45.5t-44.5 -30t-60.5 -11q-43 0 -77.5 10.5t-60.5 27.5l32 70q29 -17 49 -23.5t46 -6.5q25 0 42 16.5t17 46.5q0 24 -14.5 42.5t-45.5 18.5q-13 0 -26 -2.5t-24 -7.5l-47 34l48 107q-86 3 -156 27t-139 69l68 151q57 -43 118.5 -70
t133.5 -27q30 0 58.5 6t51 21t36 40t13.5 64q0 37 -17.5 64t-47 47.5t-67.5 37.5t-78 34q-44 19 -86.5 40.5t-76 54t-54.5 79.5t-21 117t26 121.5t69.5 85t99.5 49.5t116 16q80 0 148.5 -20.5t134.5 -59.5l-54 -151q-50 37 -100.5 58t-112.5 21q-30 0 -56.5 -6t-46.5 -19.5
t-31.5 -35.5t-11.5 -53q0 -30 16.5 -52t44 -39t63.5 -31.5t74 -30.5q45 -19 89.5 -41.5t80.5 -57t58 -84.5t22 -124t-21.5 -129t-60.5 -91.5t-92.5 -56.5t-117.5 -24l-26 -67l2 -1q8 2 22 4t22 2q51 0 80 -33t29 -94z" />
    <glyph glyph-name="Scedilla" unicode="&#xf6c1;" horiz-adv-x="840" 
d="M572 -202q0 -31 -9 -57.5t-27 -45.5t-44.5 -30t-60.5 -11q-43 0 -77.5 10.5t-60.5 27.5l32 70q29 -17 49 -23.5t46 -6.5q25 0 42 16.5t17 46.5q0 24 -14.5 42.5t-45.5 18.5q-13 0 -26 -2.5t-24 -7.5l-47 34l48 107q-86 3 -156 27t-139 69l68 151q57 -43 118.5 -70
t133.5 -27q30 0 58.5 6t51 21t36 40t13.5 64q0 37 -17.5 64t-47 47.5t-67.5 37.5t-78 34q-44 19 -86.5 40.5t-76 54t-54.5 79.5t-21 117t26 121.5t69.5 85t99.5 49.5t116 16q80 0 148.5 -20.5t134.5 -59.5l-54 -151q-50 37 -100.5 58t-112.5 21q-30 0 -56.5 -6t-46.5 -19.5
t-31.5 -35.5t-11.5 -53q0 -30 16.5 -52t44 -39t63.5 -31.5t74 -30.5q45 -19 89.5 -41.5t80.5 -57t58 -84.5t22 -124t-21.5 -129t-60.5 -91.5t-92.5 -56.5t-117.5 -24l-26 -67l2 -1q8 2 22 4t22 2q51 0 80 -33t29 -94z" />
    <glyph glyph-name="scedilla" unicode="&#x15f;" horiz-adv-x="757" 
d="M543 -202q0 -31 -9.5 -57.5t-27.5 -45.5t-44.5 -30t-60.5 -11q-43 0 -77.5 10.5t-60.5 27.5l32 70q29 -17 49 -23.5t46 -6.5q25 0 42 16.5t17 46.5q0 24 -14.5 42.5t-45.5 18.5q-14 0 -26.5 -2.5t-23.5 -7.5l-47 34l47 103q-75 4 -142 25t-127 59l62 140
q49 -35 112.5 -60.5t126.5 -25.5q60 0 90 23t30 76q0 29 -15.5 49t-42 35t-60.5 27.5t-70 26.5q-38 15 -75 34t-66.5 47.5t-47.5 68.5t-18 96q0 57 21.5 100t60 71.5t91.5 43t117 14.5q66 0 131.5 -13t125.5 -42l-43 -141q-42 26 -93 41t-104 15q-59 0 -96 -17t-37 -64
q0 -24 13 -41t35.5 -30.5t51 -24.5t60.5 -23q41 -15 83 -34t76.5 -48.5t56 -72.5t21.5 -106q0 -120 -68.5 -179.5t-186.5 -69.5l-25 -63l2 -1q8 2 22 4t22 2q51 0 80.5 -33t29.5 -94z" />
    <glyph glyph-name="scedilla" unicode="&#xf6c2;" horiz-adv-x="757" 
d="M543 -202q0 -31 -9.5 -57.5t-27.5 -45.5t-44.5 -30t-60.5 -11q-43 0 -77.5 10.5t-60.5 27.5l32 70q29 -17 49 -23.5t46 -6.5q25 0 42 16.5t17 46.5q0 24 -14.5 42.5t-45.5 18.5q-14 0 -26.5 -2.5t-23.5 -7.5l-47 34l47 103q-75 4 -142 25t-127 59l62 140
q49 -35 112.5 -60.5t126.5 -25.5q60 0 90 23t30 76q0 29 -15.5 49t-42 35t-60.5 27.5t-70 26.5q-38 15 -75 34t-66.5 47.5t-47.5 68.5t-18 96q0 57 21.5 100t60 71.5t91.5 43t117 14.5q66 0 131.5 -13t125.5 -42l-43 -141q-42 26 -93 41t-104 15q-59 0 -96 -17t-37 -64
q0 -24 13 -41t35.5 -30.5t51 -24.5t60.5 -23q41 -15 83 -34t76.5 -48.5t56 -72.5t21.5 -106q0 -120 -68.5 -179.5t-186.5 -69.5l-25 -63l2 -1q8 2 22 4t22 2q51 0 80.5 -33t29.5 -94z" />
    <glyph glyph-name="Scaron" unicode="&#x160;" horiz-adv-x="840" 
d="M740 288q0 -80 -25 -137t-69.5 -94t-105 -54t-131.5 -17q-98 0 -176 24t-153 73l68 151q57 -43 118.5 -70t133.5 -27q30 0 58.5 6t51 21t36 40t13.5 64q0 37 -17.5 64t-47 47.5t-67.5 37.5t-78 34q-44 19 -86.5 40.5t-76 54t-54.5 79.5t-21 117t26 121.5t69.5 85
t99.5 49.5t116 16q80 0 148.5 -20.5t134.5 -59.5l-54 -151q-50 37 -100.5 58t-112.5 21q-30 0 -56.5 -6t-46.5 -19.5t-31.5 -35.5t-11.5 -53q0 -30 16.5 -52t44 -39t63.5 -31.5t74 -30.5q45 -19 89.5 -41.5t80.5 -57t58 -84.5t22 -124zM246 1324l172 -97l175 97l61 -98
l-234 -132l-233 132z" />
    <glyph glyph-name="scaron" unicode="&#x161;" horiz-adv-x="757" 
d="M667 232q0 -65 -20.5 -112.5t-59 -78t-93.5 -45t-123 -14.5q-82 0 -158 21.5t-143 63.5l62 140q49 -35 112.5 -60.5t126.5 -25.5q60 0 90 23t30 76q0 29 -15.5 49t-42 35t-60.5 27.5t-70 26.5q-38 15 -75 34t-66.5 47.5t-47.5 68.5t-18 96q0 57 21.5 100t60 71.5t91.5 43
t117 14.5q66 0 131.5 -13t125.5 -42l-43 -141q-42 26 -93 41t-104 15q-59 0 -96 -17t-37 -64q0 -24 13 -41t35.5 -30.5t51 -24.5t60.5 -23q41 -15 83 -34t76.5 -48.5t56 -72.5t21.5 -106zM225 1144l172 -97l175 97l61 -98l-234 -132l-233 132z" />
    <glyph glyph-name="Tcommaaccent" unicode="&#x162;" horiz-adv-x="769" 
d="M477 840v-840h-185v840h-232v160h649v-160h-232zM395 -343h-107l37 256h171z" />
    <glyph glyph-name="Tcommaaccent" unicode="&#x21a;" horiz-adv-x="769" 
d="M477 840v-840h-185v840h-232v160h649v-160h-232zM395 -343h-107l37 256h171z" />
    <glyph glyph-name="tcommaaccent" unicode="&#x163;" horiz-adv-x="592" 
d="M502 -1q-30 -4 -59.5 -6t-59.5 -2q-69 0 -111.5 13.5t-65.5 43t-30.5 76.5t-7.5 113v419h-108v149h111v219h178v-219h153v-149h-153v-421q0 -29 3 -47t14.5 -28t33 -13.5t59.5 -3.5h43v-144v0zM352 -343h-107l37 256h171z" />
    <glyph glyph-name="tcommaaccent" unicode="&#x21b;" horiz-adv-x="592" 
d="M502 -1q-30 -4 -59.5 -6t-59.5 -2q-69 0 -111.5 13.5t-65.5 43t-30.5 76.5t-7.5 113v419h-108v149h111v219h178v-219h153v-149h-153v-421q0 -29 3 -47t14.5 -28t33 -13.5t59.5 -3.5h43v-144v0zM352 -343h-107l37 256h171z" />
    <glyph glyph-name="Tcaron" unicode="&#x164;" horiz-adv-x="769" 
d="M477 840v-840h-185v840h-232v160h649v-160h-232zM211 1324l172 -97l175 97l61 -98l-234 -132l-233 132z" />
    <glyph glyph-name="tcaron" unicode="&#x165;" horiz-adv-x="592" 
d="M502 -1q-30 -4 -59.5 -6t-59.5 -2q-69 0 -111.5 13.5t-65.5 43t-30.5 76.5t-7.5 113v419h-108v149h111v219h178v-219h153v-149h-153v-421q0 -29 3 -47t14.5 -28t33 -13.5t59.5 -3.5h43v-144v0zM634 837h-104l36 248h165z" />
    <glyph glyph-name="Umacron" unicode="&#x16a;" horiz-adv-x="1010" 
d="M860 406q0 -101 -17.5 -179.5t-58.5 -132.5t-109.5 -82.5t-170.5 -28.5t-170 28t-109 82t-58 132.5t-17 180.5v594h185v-599q0 -59 6 -106.5t24 -82t51 -53t88 -18.5t88.5 19t52 53.5t24.5 82t6 105.5v599h185v-594v0zM285 1124v126h430v-126h-430z" />
    <glyph glyph-name="umacron" unicode="&#x16b;" horiz-adv-x="911" 
d="M607 0l-9 86h-5q-35 -51 -86.5 -78.5t-125.5 -27.5q-63 0 -108.5 17.5t-75 55.5t-43.5 97.5t-14 144.5v522h181v-469q0 -46 3 -85.5t15 -68t37 -44.5t69 -16q42 0 69.5 12.5t44.5 36.5t24 59.5t7 82.5v492h181v-817h-164zM240 959v126h430v-126h-430z" />
    <glyph glyph-name="Ubreve" unicode="&#x16c;" horiz-adv-x="1010" 
d="M860 406q0 -101 -17.5 -179.5t-58.5 -132.5t-109.5 -82.5t-170.5 -28.5t-170 28t-109 82t-58 132.5t-17 180.5v594h185v-599q0 -59 6 -106.5t24 -82t51 -53t88 -18.5t88.5 19t52 53.5t24.5 82t6 105.5v599h185v-594v0zM738 1287q-2 -81 -66 -139.5t-165 -58.5
q-103 1 -164 59t-63 139h114q4 -28 27.5 -54t82.5 -28q59 0 86.5 27t29.5 55h118v0z" />
    <glyph glyph-name="ubreve" unicode="&#x16d;" horiz-adv-x="911" 
d="M607 0l-9 86h-5q-35 -51 -86.5 -78.5t-125.5 -27.5q-63 0 -108.5 17.5t-75 55.5t-43.5 97.5t-14 144.5v522h181v-469q0 -46 3 -85.5t15 -68t37 -44.5t69 -16q42 0 69.5 12.5t44.5 36.5t24 59.5t7 82.5v492h181v-817h-164zM687 1122q-2 -81 -66 -139.5t-165 -58.5
q-103 1 -164 59t-63 139h114q4 -28 27.5 -54t82.5 -28q59 0 86.5 27t29.5 55h118v0z" />
    <glyph glyph-name="Uring" unicode="&#x16e;" horiz-adv-x="1010" 
d="M860 406q0 -101 -17.5 -179.5t-58.5 -132.5t-109.5 -82.5t-170.5 -28.5t-170 28t-109 82t-58 132.5t-17 180.5v594h185v-599q0 -59 6 -106.5t24 -82t51 -53t88 -18.5t88.5 19t52 53.5t24.5 82t6 105.5v599h185v-594v0zM435 1197q0 -29 20.5 -49t49.5 -20q28 0 48 20
t20 49t-20 49t-48 20q-29 0 -49.5 -20t-20.5 -49zM371 1197q0 28 10.5 52.5t28.5 42.5t42.5 28.5t52.5 10.5q27 0 51 -10.5t42 -28.5t28.5 -42.5t10.5 -52.5q0 -27 -10.5 -51.5t-28.5 -42.5t-42 -28.5t-51 -10.5q-28 0 -52.5 10.5t-42.5 28.5t-28.5 42.5t-10.5 51.5z" />
    <glyph glyph-name="uring" unicode="&#x16f;" horiz-adv-x="911" 
d="M607 0l-9 86h-5q-35 -51 -86.5 -78.5t-125.5 -27.5q-63 0 -108.5 17.5t-75 55.5t-43.5 97.5t-14 144.5v522h181v-469q0 -46 3 -85.5t15 -68t37 -44.5t69 -16q42 0 69.5 12.5t44.5 36.5t24 59.5t7 82.5v492h181v-817h-164zM380 1032q0 -29 20.5 -49t49.5 -20q28 0 48 20
t20 49t-20 49t-48 20q-29 0 -49.5 -20t-20.5 -49zM316 1032q0 28 10.5 52.5t28.5 42.5t42.5 28.5t52.5 10.5q27 0 51 -10.5t42 -28.5t28.5 -42.5t10.5 -52.5q0 -27 -10.5 -51.5t-28.5 -42.5t-42 -28.5t-51 -10.5q-28 0 -52.5 10.5t-42.5 28.5t-28.5 42.5t-10.5 51.5z" />
    <glyph glyph-name="Uhungarumlaut" unicode="&#x170;" horiz-adv-x="1010" 
d="M860 406q0 -101 -17.5 -179.5t-58.5 -132.5t-109.5 -82.5t-170.5 -28.5t-170 28t-109 82t-58 132.5t-17 180.5v594h185v-599q0 -59 6 -106.5t24 -82t51 -53t88 -18.5t88.5 19t52 53.5t24.5 82t6 105.5v599h185v-594v0zM699 1088l-100 56l190 167l151 -76zM335 1088
l-98 56l188 167l153 -76z" />
    <glyph glyph-name="uhungarumlaut" unicode="&#x171;" horiz-adv-x="911" 
d="M607 0l-9 86h-5q-35 -51 -86.5 -78.5t-125.5 -27.5q-63 0 -108.5 17.5t-75 55.5t-43.5 97.5t-14 144.5v522h181v-469q0 -46 3 -85.5t15 -68t37 -44.5t69 -16q42 0 69.5 12.5t44.5 36.5t24 59.5t7 82.5v492h181v-817h-164zM658 918l-100 56l190 167l151 -76zM294 918
l-98 56l188 167l153 -76z" />
    <glyph glyph-name="Uogonek" unicode="&#x172;" horiz-adv-x="1010" 
d="M788 -267q-23 -16 -59 -33.5t-89 -17.5q-39 0 -68 12.5t-48.5 34.5t-29 52t-9.5 66q0 44 19.5 78t42.5 61q-11 0 -21 -1.5t-22 -1.5q-102 0 -170 28t-108.5 82t-58 132.5t-17.5 180.5v594h185v-599q0 -59 6 -106.5t24 -82t51 -53t88 -18.5t88.5 19t52 53.5t24.5 82
t6 105.5v599h185v-594q0 -141 -35 -237.5t-121 -142.5q-19 -15 -37 -32.5t-32.5 -37.5t-23 -43.5t-8.5 -49.5q0 -35 17.5 -53t46.5 -18q23 0 39.5 8t34.5 22l47 -89v0z" />
    <glyph glyph-name="uogonek" unicode="&#x173;" horiz-adv-x="911" 
d="M789 -295q-23 -17 -55.5 -33t-81.5 -16q-42 0 -72.5 13t-49.5 34.5t-28 50t-9 60.5q0 36 12.5 66t30 53.5t37 40t34.5 26.5l-9 86h-5q-35 -51 -86.5 -78.5t-125.5 -27.5q-63 0 -108.5 17.5t-75 55.5t-43.5 97.5t-14 144.5v522h181v-469q0 -46 3 -85.5t15 -68t37 -44.5
t69 -16q42 0 69.5 12.5t44.5 36.5t24 59.5t7 82.5v492h183v-817h-53q-20 -15 -39.5 -31.5t-34.5 -36t-24.5 -42.5t-9.5 -51q0 -37 17 -55t45 -18q21 0 35 6.5t33 20.5l47 -88v0z" />
    <glyph glyph-name="Ydieresis" unicode="&#x178;" horiz-adv-x="872" 
d="M531 388v-388h-185v381l-306 619h205l195 -452l195 452h197zM384 1185q0 -21 -7 -38t-20 -30.5t-30 -20.5t-37 -7t-37.5 7t-30.5 20.5t-20.5 30.5t-7.5 38q0 19 7.5 36t20.5 30.5t30.5 21t37.5 7.5t37 -7.5t30 -21t20 -30.5t7 -36zM712 1185q0 -21 -7 -38t-20 -30.5
t-30 -20.5t-37 -7q-41 0 -68.5 28t-27.5 68q0 19 7.5 36t20.5 30.5t30.5 21t37.5 7.5t37 -7.5t30 -21t20 -30.5t7 -36z" />
    <glyph glyph-name="Zacute" unicode="&#x179;" horiz-adv-x="816" 
d="M90 0v145l409 695h-389v160h603v-144l-412 -702h425v-154h-636zM412 1082l-99 56l189 177l151 -86z" />
    <glyph glyph-name="zacute" unicode="&#x17a;" horiz-adv-x="725" 
d="M90 0v131l335 538h-326v148h527v-144l-326 -525h335v-148h-545zM375 917l-99 56l189 177l151 -86z" />
    <glyph glyph-name="Zdotaccent" unicode="&#x17b;" horiz-adv-x="816" 
d="M90 0v145l409 695h-389v160h603v-144l-412 -702h425v-154h-636zM532 1188q0 -45 -31 -72.5t-82 -27.5q-52 0 -81 27.5t-29 72.5t29 71.5t81 26.5q53 0 83 -26.5t30 -71.5z" />
    <glyph glyph-name="zdotaccent" unicode="&#x17c;" horiz-adv-x="725" 
d="M90 0v131l335 538h-326v148h527v-144l-326 -525h335v-148h-545zM508 1023q0 -45 -31 -72.5t-82 -27.5q-52 0 -81 27.5t-29 72.5t29 71.5t81 26.5q53 0 83 -26.5t30 -71.5z" />
    <glyph glyph-name="Zcaron" unicode="&#x17d;" horiz-adv-x="816" 
d="M90 0v145l409 695h-389v160h603v-144l-412 -702h425v-154h-636zM241 1324l172 -97l175 97l61 -98l-234 -132l-233 132z" />
    <glyph glyph-name="zcaron" unicode="&#x17e;" horiz-adv-x="725" 
d="M90 0v131l335 538h-326v148h527v-144l-326 -525h335v-148h-545zM197 1144l172 -97l175 97l61 -98l-234 -132l-233 132z" />
    <glyph glyph-name="florin" unicode="&#x192;" horiz-adv-x="830" 
d="M747 914l-28 3.5t-26 1.5q-29 0 -47 -4.5t-29.5 -13.5t-17.5 -23t-10 -34l-33 -169h137l-27 -147h-136l-110 -571q-13 -66 -33.5 -112.5t-52 -76t-76.5 -43.5t-108 -14q-22 0 -44.5 2t-45.5 7l25 135q17 -5 30 -5.5t30 -0.5q26 0 43.5 9.5t29.5 27.5t20 45t15 63l100 534
h-102l27 147h104l30 164q12 62 30.5 103.5t51 66t81 35t119.5 10.5q18 0 35.5 -1.5t40.5 -3.5z" />
    <glyph glyph-name="Scommaaccent" unicode="&#x218;" horiz-adv-x="840" 
d="M740 288q0 -80 -25 -137t-69.5 -94t-105 -54t-131.5 -17q-98 0 -176 24t-153 73l68 151q57 -43 118.5 -70t133.5 -27q30 0 58.5 6t51 21t36 40t13.5 64q0 37 -17.5 64t-47 47.5t-67.5 37.5t-78 34q-44 19 -86.5 40.5t-76 54t-54.5 79.5t-21 117t26 121.5t69.5 85
t99.5 49.5t116 16q80 0 148.5 -20.5t134.5 -59.5l-54 -151q-50 37 -100.5 58t-112.5 21q-30 0 -56.5 -6t-46.5 -19.5t-31.5 -35.5t-11.5 -53q0 -30 16.5 -52t44 -39t63.5 -31.5t74 -30.5q45 -19 89.5 -41.5t80.5 -57t58 -84.5t22 -124zM402 -343h-107l37 256h171z" />
    <glyph glyph-name="scommaaccent" unicode="&#x219;" horiz-adv-x="757" 
d="M667 232q0 -65 -20.5 -112.5t-59 -78t-93.5 -45t-123 -14.5q-82 0 -158 21.5t-143 63.5l62 140q49 -35 112.5 -60.5t126.5 -25.5q60 0 90 23t30 76q0 29 -15.5 49t-42 35t-60.5 27.5t-70 26.5q-38 15 -75 34t-66.5 47.5t-47.5 68.5t-18 96q0 57 21.5 100t60 71.5t91.5 43
t117 14.5q66 0 131.5 -13t125.5 -42l-43 -141q-42 26 -93 41t-104 15q-59 0 -96 -17t-37 -64q0 -24 13 -41t35.5 -30.5t51 -24.5t60.5 -23q41 -15 83 -34t76.5 -48.5t56 -72.5t21.5 -106zM376 -343h-107l37 256h171z" />
    <glyph glyph-name="circumflex" unicode="&#x2c6;" horiz-adv-x="523" 
d="M432 910l-172 97l-175 -97l-61 98l234 132l233 -132z" />
    <glyph glyph-name="caron" unicode="&#x2c7;" horiz-adv-x="523" 
d="M86 1144l172 -97l175 97l61 -98l-234 -132l-233 132z" />
    <glyph glyph-name="breve" unicode="&#x2d8;" horiz-adv-x="593" 
d="M533 1122q-2 -81 -66 -139.5t-165 -58.5q-103 1 -164 59t-63 139h114q4 -28 27.5 -54t82.5 -28q59 0 86.5 27t29.5 55h118v0z" />
    <glyph glyph-name="dotaccent" unicode="&#x2d9;" horiz-adv-x="314" 
d="M270 1023q0 -45 -31 -72.5t-82 -27.5q-52 0 -81 27.5t-29 72.5t29 71.5t81 26.5q53 0 83 -26.5t30 -71.5z" />
    <glyph glyph-name="ring" unicode="&#x2da;" horiz-adv-x="409" 
d="M130 1032q0 -29 20.5 -49t49.5 -20q28 0 48 20t20 49t-20 49t-48 20q-29 0 -49.5 -20t-20.5 -49zM66 1032q0 28 10.5 52.5t28.5 42.5t42.5 28.5t52.5 10.5q27 0 51 -10.5t42 -28.5t28.5 -42.5t10.5 -52.5q0 -27 -10.5 -51.5t-28.5 -42.5t-42 -28.5t-51 -10.5
q-28 0 -52.5 10.5t-42.5 28.5t-28.5 42.5t-10.5 51.5z" />
    <glyph glyph-name="ogonek" unicode="&#x2db;" horiz-adv-x="476" 
d="M414 -292q-23 -17 -59.5 -34.5t-89.5 -17.5q-41 0 -70 13t-47.5 34.5t-27.5 50t-9 60.5q0 33 12.5 63.5t29.5 55t34.5 42t28.5 25.5h114q-19 -15 -37 -32t-32 -37.5t-22.5 -43.5t-8.5 -48q0 -37 17 -55t45 -18q24 0 41 8.5t34 21.5l47 -88v0z" />
    <glyph glyph-name="tilde" unicode="&#x2dc;" horiz-adv-x="562" 
d="M542 1051q-20 -55 -62.5 -88t-93.5 -33q-30 0 -56 9t-50 19.5t-46 19.5t-44 9q-28 0 -49 -13t-36 -47l-81 60q27 64 62 94t92 30q29 0 55.5 -9t50.5 -20t47 -20t45 -9q27 0 49.5 14t33.5 46z" />
    <glyph glyph-name="hungarumlaut" unicode="&#x2dd;" horiz-adv-x="803" 
d="M522 918l-100 56l190 167l151 -76zM158 918l-98 56l188 167l153 -76z" />
    <glyph glyph-name="endash" unicode="&#x2013;" horiz-adv-x="851" 
d="M120 436v149h611v-149h-611z" />
    <glyph glyph-name="emdash" unicode="&#x2014;" horiz-adv-x="1422" 
d="M100 362v147h1222v-147h-1222z" />
    <glyph glyph-name="quoteleft" unicode="&#x2018;" horiz-adv-x="426" 
d="M256 718h-196l129 331h117z" />
    <glyph glyph-name="quoteright" unicode="&#x2019;" horiz-adv-x="426" 
d="M237 716h-117l51 333h195z" />
    <glyph glyph-name="quotesinglbase" unicode="&#x201a;" horiz-adv-x="426" 
d="M177 -226h-117l51 333h195z" />
    <glyph glyph-name="quotedblleft" unicode="&#x201c;" horiz-adv-x="731" 
d="M254 716h-194l128 333h117zM560 716h-196l130 333h117z" />
    <glyph glyph-name="quotedblright" unicode="&#x201d;" horiz-adv-x="732" 
d="M239 716h-119l52 333h195zM544 716h-119l53 333h194z" />
    <glyph glyph-name="quotedblbase" unicode="&#x201e;" horiz-adv-x="732" 
d="M179 -226h-119l52 333h195zM484 -226h-119l53 333h194z" />
    <glyph glyph-name="dagger" unicode="&#x2020;" horiz-adv-x="567" 
d="M370 699v-415h-174v415h-106v143h106v196h174v-196h107v-143h-107z" />
    <glyph glyph-name="daggerdbl" unicode="&#x2021;" horiz-adv-x="568" 
d="M370 421v-171h-172v171h-106v144h106v161h-108v144h108v168h172v-168h108v-144h-108v-161h108v-144h-108z" />
    <glyph glyph-name="bullet" unicode="&#x2022;" horiz-adv-x="885" 
d="M685 493q0 -51 -19 -95t-52 -77t-77 -52t-94 -19t-94.5 19t-77.5 52t-52 77t-19 95t19 95t52 77t77.5 52t94.5 19t94 -19t77 -52t52 -77t19 -95z" />
    <glyph glyph-name="ellipsis" unicode="&#x2026;" horiz-adv-x="1159" 
d="M1058 84q1 -44 -28.5 -71t-75.5 -27q-45 0 -75.5 26t-31.5 71q0 43 30.5 69t75.5 26q45 1 75 -25t30 -69zM685 84q0 -44 -30 -71t-75 -27t-76 26t-31 71q0 43 30.5 69t75.5 26q45 1 75.5 -25t30.5 -69zM312 84q0 -44 -30 -71t-75 -27t-75.5 26t-30.5 71q-1 21 7 38.5
t22 30t33 19.5t42 7q45 1 76 -25t31 -69z" />
    <glyph glyph-name="perthousand" unicode="&#x2030;" horiz-adv-x="1833" 
d="M1612 271q0 36 -3.5 68.5t-14 57.5t-29 39.5t-47.5 14.5q-30 0 -48 -14.5t-28 -39.5t-13.5 -57.5t-3.5 -68.5t3.5 -68.5t13.5 -57.5t28 -39.5t48 -14.5q29 0 47.5 14.5t29 39t14 57.5t3.5 69zM1733 273q0 -65 -12.5 -118t-39 -90.5t-67 -58t-96.5 -20.5t-96.5 21
t-67 59.5t-39 91t-12.5 115.5q0 64 13.5 116.5t40.5 90t68 58t96 20.5q54 0 94 -21t66 -58.5t39 -90t13 -115.5zM1074 271q0 36 -3.5 69t-14 57.5t-28.5 39t-48 14.5t-48 -14.5t-28 -39.5t-13.5 -57.5t-3.5 -68.5t3.5 -68.5t14 -57.5t28.5 -39.5t47 -14.5q30 0 48 14.5
t28.5 39t14 57.5t3.5 69zM1197 273q0 -65 -13 -117.5t-40 -90.5t-68 -58.5t-97 -20.5t-96.5 21t-66.5 59.5t-38.5 91t-12.5 115.5q0 64 13.5 116.5t40.5 90t68 58t96 20.5q54 0 94 -21t66.5 -58.5t40 -90t13.5 -115.5zM440 0h-135l550 1000h133zM407 730q0 36 -3.5 69
t-13 58t-27.5 39.5t-48 14.5t-48 -14.5t-27.5 -39.5t-13 -58t-3.5 -69t3.5 -68.5t13 -57.5t27.5 -39.5t48 -14.5t48 14.5t27.5 39t13 57t3.5 69.5zM529 732q0 -64 -12.5 -117t-39 -90.5t-67 -58.5t-96.5 -21t-96 21t-66.5 59t-39 91t-12.5 116q0 64 13 116.5t40 90t68 57.5
t96 20q54 0 94 -21t66 -58.5t39 -89.5t13 -115z" />
    <glyph glyph-name="guilsinglleft" unicode="&#x2039;" horiz-adv-x="483" 
d="M256 153l-166 299l166 300l127 -64l-134 -237l134 -235z" />
    <glyph glyph-name="guilsinglright" unicode="&#x203a;" horiz-adv-x="483" 
d="M228 153l-128 63l133 235l-133 237l128 64l165 -300z" />
    <glyph glyph-name="fraction" unicode="&#x2044;" horiz-adv-x="244" 
d="M-190 -58h-120l794 1162h119z" />
    <glyph glyph-name="fraction" unicode="&#x2215;" horiz-adv-x="244" 
d="M-190 -58h-120l794 1162h119z" />
    <glyph glyph-name="zerosuperior" unicode="&#x2070;" horiz-adv-x="666" 
d="M432 802q0 44 -4.5 81.5t-16 64.5t-30.5 42.5t-48 15.5q-30 0 -50 -15.5t-31.5 -42.5t-16 -64.5t-4.5 -81.5q0 -45 4.5 -82.5t16 -65.5t31 -43.5t49.5 -15.5t49 15.5t30.5 43.5t16 65.5t4.5 82.5zM566 803q0 -149 -57 -232.5t-177 -83.5q-60 0 -103.5 23t-72 64.5
t-42.5 99.5t-14 129q0 73 14.5 130.5t43.5 97.5t73.5 61.5t103.5 21.5q57 0 100.5 -21.5t72.5 -62t43.5 -98t14.5 -129.5z" />
    <glyph glyph-name="foursuperior" unicode="&#x2074;" horiz-adv-x="598" 
d="M322 726v255l-145 -255h145zM441 496h-132v123h-222l-27 107l231 380h150v-374h77v-113h-77v-123z" />
    <glyph glyph-name="fivesuperior" unicode="&#x2075;" horiz-adv-x="576" 
d="M476 702q0 -101 -55 -158t-163 -57q-54 0 -98 15t-80 40l52 93q25 -19 54 -31t65 -12q48 0 69.5 26t21.5 81q0 54 -21 78.5t-66 24.5q-27 0 -49 -10.5t-38 -28.5l-76 56l43 285h304v-114h-209l-19 -117l1 -3q14 12 35.5 19.5t53.5 7.5q38 0 70 -11t55.5 -35t36.5 -61
t13 -88z" />
    <glyph glyph-name="sixsuperior" unicode="&#x2076;" horiz-adv-x="631" 
d="M408 699q0 49 -17 77.5t-64 28.5q-46 0 -66.5 -28.5t-20.5 -79.5q0 -21 4.5 -40.5t15 -34.5t27 -24t40.5 -9q23 0 38.5 8.5t25 23.5t13.5 35t4 43zM541 700q0 -47 -16 -86t-44.5 -68t-67.5 -45t-86 -16q-59 0 -102 20.5t-71 58t-41 90.5t-13 118q0 76 15 139t45.5 107.5
t76 69t107.5 24.5q50 0 90.5 -12t70.5 -29l-41 -95q-23 14 -53 22.5t-65 8.5q-55 0 -85.5 -40t-30.5 -128h1q14 23 43 41.5t77 18.5q96 0 143 -51.5t47 -147.5z" />
    <glyph glyph-name="sevensuperior" unicode="&#x2077;" horiz-adv-x="548" 
d="M468 998q-39 -34 -70 -75.5t-52 -96t-32.5 -125.5t-11.5 -165v-40h-132v30q0 55 7 118.5t24.5 126.5t47.5 120.5t76 101.5h-255v113h385l13 -108v0z" />
    <glyph glyph-name="eightsuperior" unicode="&#x2078;" horiz-adv-x="636" 
d="M404 675q0 49 -21.5 70.5t-64.5 21.5t-65 -22t-22 -70q0 -42 21 -66t66 -24q46 0 66 24t20 66zM392 938q0 35 -16.5 56.5t-57.5 21.5q-40 0 -57 -21.5t-17 -56.5q0 -39 17 -60t57 -21q41 0 57.5 21t16.5 60zM536 669q0 -86 -57 -134t-161 -48q-103 0 -160.5 47t-57.5 135
q0 54 21.5 91t70.5 59v3q-42 22 -60 52.5t-18 78.5q0 40 15.5 70t43 50.5t65 30.5t80.5 10t80 -10t64.5 -30.5t43.5 -50.5t16 -70q0 -46 -18.5 -77.5t-59.5 -53.5v-3q49 -22 70.5 -58.5t21.5 -91.5z" />
    <glyph glyph-name="ninesuperior" unicode="&#x2079;" horiz-adv-x="631" 
d="M220 904q0 -49 18.5 -77t64.5 -28q45 0 66 28t21 77q0 44 -20 75t-67 31q-45 0 -64 -30.5t-19 -75.5zM90 904q0 45 16 83.5t44.5 66.5t67.5 44t86 16q116 0 171.5 -75t55.5 -212q0 -161 -61 -250.5t-186 -89.5q-47 0 -88.5 12.5t-70.5 29.5l40 94q23 -14 53 -22.5
t66 -8.5q56 0 85.5 42.5t29.5 129.5h-2q-15 -23 -43.5 -40.5t-76.5 -17.5q-94 0 -140.5 51.5t-46.5 146.5z" />
    <glyph glyph-name="zeroinferior" unicode="&#x2080;" horiz-adv-x="666" 
d="M432 250q0 45 -4.5 82.5t-15.5 64.5t-30 42t-49 15t-50 -15.5t-31 -42.5t-15.5 -64.5t-4.5 -81.5t4.5 -81.5t15.5 -65.5t31 -44t50 -16t49 16t30 44t15.5 65.5t4.5 81.5zM566 252q0 -149 -57 -232.5t-177 -83.5q-59 0 -103 23t-72.5 64.5t-42.5 99.5t-14 129
q0 145 58.5 228t177.5 83q57 0 100 -22t72 -62.5t43.5 -98t14.5 -128.5z" />
    <glyph glyph-name="oneinferior" unicode="&#x2081;" horiz-adv-x="474" 
d="M334 552v-610h-131v446l-97 -69l-56 92l183 141h101z" />
    <glyph glyph-name="twoinferior" unicode="&#x2082;" horiz-adv-x="573" 
d="M77 51q25 24 54 50.5t57.5 54.5t55 56t47 55.5t32.5 53.5t12 50q0 30 -17 52t-59 22q-62 0 -125 -63l-64 92q51 43 102 65t110 22q88 0 138.5 -45.5t50.5 -131.5q0 -38 -14 -75t-43 -77t-74.5 -84t-108.5 -95h242v-111h-377z" />
    <glyph glyph-name="threeinferior" unicode="&#x2083;" horiz-adv-x="579" 
d="M479 121q0 -42 -15 -76t-42.5 -58t-67.5 -37.5t-90 -13.5q-57 0 -103.5 15.5t-90.5 44.5l54 94q38 -28 69.5 -38t65.5 -10q39 0 65 19t26 63q0 43 -22 62t-70 19h-71v102h51q48 0 70.5 18t22.5 57q0 32 -18.5 50.5t-61.5 18.5q-28 0 -58 -10t-62 -35l-54 90q28 17 52 29
t47 19.5t46.5 11t49.5 3.5q86 0 138.5 -42t52.5 -123q0 -85 -68 -127q43 -17 63.5 -55.5t20.5 -90.5z" />
    <glyph glyph-name="fourinferior" unicode="&#x2084;" horiz-adv-x="598" 
d="M322 171v257l-145 -257h145zM441 -58h-132v122h-222l-27 107l231 381h150v-375h77v-113h-77v-122z" />
    <glyph glyph-name="fiveinferior" unicode="&#x2085;" horiz-adv-x="576" 
d="M476 150q0 -100 -55 -157t-163 -57q-54 0 -98 16t-80 41l52 93q25 -21 54 -33.5t65 -12.5q48 0 69.5 27t21.5 80q0 54 -21 78.5t-66 24.5q-27 0 -49 -10.5t-38 -28.5l-76 57l43 285h304v-112h-209l-19 -120l1 -2q14 12 35.5 20.5t53.5 8.5q38 0 70 -11.5t55.5 -35.5
t36.5 -61.5t13 -89.5z" />
    <glyph glyph-name="sixinferior" unicode="&#x2086;" horiz-adv-x="631" 
d="M409 148q0 50 -17 78.5t-63 28.5q-45 0 -66 -28.5t-21 -79.5q0 -21 4.5 -40.5t14.5 -34.5t26.5 -24t39.5 -9q47 0 64.5 31.5t17.5 77.5zM541 150q0 -46 -15.5 -85.5t-44 -68t-67.5 -44.5t-87 -16q-59 0 -102 20t-71 57.5t-41 90t-13 117.5q0 76 15 139t45.5 108t77 69.5
t108.5 24.5q48 0 89 -12.5t70 -27.5l-41 -97q-23 15 -52.5 23.5t-65.5 8.5q-55 0 -85.5 -40t-30.5 -128h2q15 24 44 42t77 18q96 0 142 -51.5t46 -147.5z" />
    <glyph glyph-name="seveninferior" unicode="&#x2087;" horiz-adv-x="548" 
d="M468 444q-39 -35 -70 -76t-52 -95.5t-32.5 -125.5t-11.5 -165v-40h-132v31q0 55 7 118.5t24.5 126t47.5 120t76 101.5h-255v113h385l13 -108v0z" />
    <glyph glyph-name="eightinferior" unicode="&#x2088;" horiz-adv-x="636" 
d="M404 124q0 50 -21.5 71.5t-64.5 21.5t-65 -22.5t-22 -70.5q0 -42 21 -66.5t66 -24.5q46 0 66 24.5t20 66.5zM392 388q0 35 -17 56.5t-57 21.5t-57 -21.5t-17 -56.5q0 -40 16.5 -60.5t56.5 -20.5q42 0 58.5 20.5t16.5 60.5zM536 118q0 -86 -57 -134t-161 -48
q-103 0 -160.5 47.5t-57.5 134.5q0 53 21.5 91t69.5 59v3q-41 23 -59.5 54t-18.5 79q0 39 16 68.5t43.5 50t64.5 30.5t80 10t80 -10t64.5 -30.5t43 -50t15.5 -68.5q0 -47 -17.5 -78.5t-58.5 -54.5v-3q92 -41 92 -150z" />
    <glyph glyph-name="nineinferior" unicode="&#x2089;" horiz-adv-x="631" 
d="M220 352q0 -48 18.5 -76.5t64.5 -28.5q45 0 66 29t21 78q0 22 -4.5 41.5t-15 34t-27 23t-40.5 8.5q-45 0 -64 -31t-19 -78zM90 352q0 46 16 84.5t44.5 66.5t67.5 44t86 16q116 0 171.5 -74.5t55.5 -211.5q0 -161 -61 -251t-186 -90q-47 0 -88.5 13t-70.5 28l40 95
q23 -14 53 -22t66 -8q56 0 85.5 42t29.5 130h-2q-15 -25 -43.5 -42.5t-76.5 -17.5q-94 0 -140.5 52t-46.5 146z" />
    <glyph glyph-name="Euro" unicode="&#x20ac;" horiz-adv-x="1081" 
d="M60 338l28 101h86q-2 17 -2 33v33v26t2 27h-99l30 100h80q14 81 45.5 147t82.5 113t124 72.5t169 25.5q53 0 100 -9t91 -28.5t86 -49t84 -69.5l-107 -121q-114 124 -256 124q-100 0 -155.5 -51t-75.5 -154h393l-29 -100h-376v-54v-33q0 -15 1 -32h365l-30 -101h-322
q7 -44 23 -81.5t42.5 -64.5t65.5 -42t92 -15q75 0 142.5 30t133.5 95l97 -125q-43 -39 -85.5 -68t-87 -48t-92 -28t-99.5 -9q-98 0 -170.5 24.5t-123.5 70t-82 111.5t-46 150h-125z" />
    <glyph glyph-name="trademark" unicode="&#x2122;" horiz-adv-x="1028" 
d="M322 968v-301h-95v301h-107v81h308v-81h-106zM817 667l2 219l-107 -163l-108 163l1 -219h-93v382h86l114 -170l111 170h85v-382h-91z" />
    <glyph glyph-name="onethird" unicode="&#x2153;" horiz-adv-x="1470" 
d="M404 1104v-609h-131v445l-97 -67l-56 91l183 140h101zM410 -58h-120l794 1162h119zM1376 121q0 -42 -15 -76t-42.5 -58t-67.5 -37.5t-90 -13.5q-57 0 -103.5 15.5t-90.5 44.5l54 94q38 -28 69.5 -38t65.5 -10q39 0 65 19t26 63q0 43 -22 62t-70 19h-71v102h51
q48 0 70.5 18t22.5 57q0 32 -18.5 50.5t-61.5 18.5q-28 0 -58 -10t-62 -35l-54 90q28 17 52 29t47 19.5t46.5 11t49.5 3.5q86 0 138.5 -42t52.5 -123q0 -85 -68 -127q43 -17 63.5 -55.5t20.5 -90.5z" />
    <glyph glyph-name="twothirds" unicode="&#x2154;" horiz-adv-x="1470" 
d="M105 604q37 36 82 77t84 83t65.5 82.5t26.5 75.5q0 32 -17 54t-59 22q-32 0 -62.5 -15t-62.5 -47l-62 89q50 45 100.5 66t109.5 21q88 0 138.5 -44.5t50.5 -131.5q0 -38 -13.5 -75t-42.5 -77t-74.5 -84t-109.5 -95h242v-110h-377zM414 -58h-120l794 1162h119zM1379 121
q0 -42 -15 -76t-42.5 -58t-67.5 -37.5t-90 -13.5q-57 0 -103.5 15.5t-90.5 44.5l54 94q38 -28 69.5 -38t65.5 -10q39 0 65 19t26 63q0 43 -22 62t-70 19h-71v102h51q48 0 70.5 18t22.5 57q0 32 -18.5 50.5t-61.5 18.5q-28 0 -58 -10t-62 -35l-54 90q28 17 52 29t47 19.5
t46.5 11t49.5 3.5q86 0 138.5 -42t52.5 -123q0 -85 -68 -127q43 -17 63.5 -55.5t20.5 -90.5z" />
    <glyph glyph-name="onefifth" unicode="&#x2155;" horiz-adv-x="1470" 
d="M404 1104v-609h-131v445l-97 -67l-56 91l183 140h101zM383 -58h-120l794 1162h119zM1346 150q0 -100 -55 -157t-163 -57q-54 0 -98 16t-80 41l52 93q25 -21 54 -33.5t65 -12.5q48 0 69.5 27t21.5 80q0 54 -21 78.5t-66 24.5q-27 0 -49 -10.5t-38 -28.5l-76 57l43 285h304
v-112h-209l-19 -120l1 -2q14 12 35.5 20.5t53.5 8.5q38 0 70 -11.5t55.5 -35.5t36.5 -61.5t13 -89.5z" />
    <glyph glyph-name="threefifths" unicode="&#x2157;" horiz-adv-x="1470" 
d="M506 673q0 -42 -15 -76t-42.5 -58.5t-67.5 -38t-90 -13.5q-58 0 -104.5 15t-89.5 43l53 95q39 -29 70 -38.5t65 -9.5q39 0 65 20t26 64q0 42 -21.5 62.5t-69.5 20.5h-72v101h51q48 0 71 18t23 59q0 32 -19 50.5t-61 18.5q-28 0 -58 -10t-62 -36l-53 91q27 17 51 29
t47.5 19.5t47 11t49.5 3.5q42 0 77 -11t60 -32t39 -51.5t14 -70.5q0 -42 -18 -75.5t-50 -53.5q43 -16 63.5 -55.5t20.5 -91.5zM1367 150q0 -100 -55 -157t-162 -57q-55 0 -99 16t-80 41l53 93q25 -21 53.5 -33.5t64.5 -12.5q49 0 70.5 27t21.5 80q0 54 -21 78.5t-66 24.5
q-27 0 -49 -10.5t-38 -28.5l-77 57l44 285h304v-112h-210l-20 -120l2 -2q15 12 36 20.5t52 8.5q39 0 71 -11.5t55.5 -35.5t36.5 -61.5t13 -89.5zM402 -58h-120l794 1162h118z" />
    <glyph glyph-name="minus" unicode="&#x2212;" horiz-adv-x="846" 
d="M145 327v155h556v-155h-556z" />
    <glyph glyph-name="lessequal" unicode="&#x2264;" horiz-adv-x="1093" 
d="M131 0v129h815v-129h-815zM134 526v149l813 308v-148l-640 -234l640 -236v-149z" />
    <glyph glyph-name="greaterequal" unicode="&#x2265;" horiz-adv-x="1061" 
d="M111 0v129h815v-129h-815zM110 216v149l639 234l-639 236v148l814 -308v-149z" />
    <glyph glyph-name="commaaccent" unicode="&#xf6c3;" horiz-adv-x="558" 
d="M287 -343h-107l37 256h171z" />
    <glyph glyph-name="commaaccent.1" horiz-adv-x="495" 
d="M248 1136h103l-34 -247h-167z" />
    <glyph glyph-name="caron.1" horiz-adv-x="495" 
d="M255 837h-104l36 248h165z" />
    </font>
</defs>
</svg>
