<svg xmlns="http://www.w3.org/2000/svg" viewBox="0 0 50.04 21.24"><defs><style>.cls-1{fill:#ffd520;}.cls-1,.cls-2{fill-rule:evenodd;}</style></defs><g id="Layer_2" data-name="Layer 2"><g id="US_House" data-name="US House"><path id="path19" class="cls-1" d="M0,17.82a3.42,3.42,0,0,0,3.42,3.42h32.4a3.21,3.21,0,0,0,2.7-1.35L49.41,5.4a3.24,3.24,0,0,0,.63-2A3.42,3.42,0,0,0,46.62,0H3.42A3.42,3.42,0,0,0,0,3.42Z"/><path id="path21" class="cls-2" d="M.39,17.82V3.42a3,3,0,0,1,3-3H46.61a3.05,3.05,0,0,1,2.5,4.76L38.25,19.63a3,3,0,0,1-2.42,1.22H3.4A3,3,0,0,1,.39,17.82Z"/><path id="path23" class="cls-1" d="M1.24,17.82A2.17,2.17,0,0,0,3.4,20H35.83a2.15,2.15,0,0,0,1.7-.83L48.44,4.61a2.18,2.18,0,0,0-1.83-3.37H3.42A2.18,2.18,0,0,0,1.24,3.42Z"/></g></g></svg>